<?xml version="1.0" encoding="UTF-8" standalone="no"?>
<!-- Created with Inkscape (http://www.inkscape.org/) -->

<svg
   xmlns:dc="http://purl.org/dc/elements/1.1/"
   xmlns:cc="http://creativecommons.org/ns#"
   xmlns:rdf="http://www.w3.org/1999/02/22-rdf-syntax-ns#"
   xmlns:svg="http://www.w3.org/2000/svg"
   xmlns="http://www.w3.org/2000/svg"
   xmlns:sodipodi="http://sodipodi.sourceforge.net/DTD/sodipodi-0.dtd"
   xmlns:inkscape="http://www.inkscape.org/namespaces/inkscape"
   width="3in"
   height="2in"
   viewBox="0 0 270 180"
   id="svg2"
   version="1.1"
   inkscape:version="0.91 r13725"
   sodipodi:docname="Laser-nametag.svg">
  <defs
     id="defs4" />
  <sodipodi:namedview
     id="base"
     pagecolor="#ffffff"
     bordercolor="#666666"
     borderopacity="1.0"
     inkscape:pageopacity="0.0"
     inkscape:pageshadow="2"
     inkscape:zoom="4"
     inkscape:cx="131.51886"
     inkscape:cy="88.324487"
     inkscape:document-units="px"
     inkscape:current-layer="layer1"
     showgrid="false"
     units="in"
     inkscape:window-width="1920"
     inkscape:window-height="1016"
     inkscape:window-x="0"
     inkscape:window-y="27"
     inkscape:window-maximized="1" />
  <metadata
     id="metadata7">
    <rdf:RDF>
      <cc:Work
         rdf:about="">
        <dc:format>image/svg+xml</dc:format>
        <dc:type
           rdf:resource="http://purl.org/dc/dcmitype/StillImage" />
        <dc:title></dc:title>
      </cc:Work>
    </rdf:RDF>
  </metadata>
  <g
     inkscape:label="Layer 1"
     inkscape:groupmode="layer"
     id="layer1"
     transform="translate(0,-872.36215)">
    <g
       transform="matrix(-1.1832395,0,0,1.1579802,232.80348,-163.64252)"
       style="font-style:normal;font-weight:normal;font-size:66.42260742px;line-height:125%;font-family:sans-serif;letter-spacing:0px;word-spacing:0px;fill:none;fill-opacity:1;stroke:#000000;stroke-width:0.04271527;stroke-linecap:butt;stroke-linejoin:round;stroke-miterlimit:4;stroke-dasharray:none;stroke-opacity:1"
       id="flowRoot4136">
      <path
         d="m 29.825781,907.90008 q 34.638352,1.20001 34.638352,3.24329 l 0,0.25946 q 0,0.61623 -3.113559,1.03785 l 0.129731,0.12974 0,0.12973 q 0,1.91354 -27.762574,3.11356 l 0.259463,12.84343 0.129732,0 q 7.070375,0 12.324507,2.72437 0.908122,0.94055 0.908122,1.81624 0,1.62164 -4.410876,3.11356 -4.508176,2.33517 -8.692021,2.33517 l 0,0.12973 0.129731,10.89746 0,0.90812 1.297317,-0.12973 13.102897,0 0.259463,0.25946 -0.259463,0.25947 -14.400214,0 0,0.90812 24.25982,0.12973 0.129731,0.12973 0,0.12973 -0.129731,0.12973 -9.340679,0 -14.919141,0.12974 0,0.90812 21.016528,0 0.259464,0.25946 -0.129732,0.12973 -16.216457,0 -4.800071,0.12973 0,0.64866 29.708549,0 0.259463,0.25947 -0.259463,0.25946 -32.822109,0 0,0.90812 29.838281,0 0.259463,0.25946 -0.259463,0.25947 -32.822109,0 q 0,0.48649 1.816243,0.77839 l 7.00551,0 21.405723,0.12973 0.129731,0.12973 0,0.12973 -0.129731,0.12973 -15.567799,0 -13.492092,-0.12973 q -0.389195,0 -1.945975,-1.16758 -0.908121,0 -0.908121,-0.25947 l 0,-30.87613 -0.129732,0 -0.389195,30.09774 q 0,1.65408 2.464901,2.98383 l 1.037854,0.25947 9.600142,0 16.216457,0.12973 0.129732,0.12973 0,0.12973 -0.129732,0.12973 -2.205438,0 -5.059535,0.12973 -6.356851,-0.12973 -7.524436,0 -7.913631,-0.12973 q -2.335169,-1.03785 -2.335169,-2.4649 l 0.648658,-44.36823 q 0,-0.94055 1.945975,-1.94597 0.259463,0 0.259463,-0.64866 l -0.129732,0 q -1.913542,0 -2.724364,2.20544 -0.648659,8.65959 -1.037854,44.62769 0,2.3676 2.983828,3.63248 l 8.043363,0.12974 11.546117,0 0.259464,0.25946 -0.129732,0.12973 -18.0327,0 q -3.600054,0 -4.800071,-2.72436 l -0.259464,-1.29732 q 0.356762,-45.66554 1.297317,-45.66554 1.297316,-1.81625 3.502755,-1.81625 0.778389,-1.29731 2.335169,-1.29731 z m -1.945974,1.42704 0.778389,0 1.167585,-0.25946 q 17.870536,0.3892 27.632843,1.03785 l 0.648658,0 0,-0.12973 q -21.211125,-1.68651 -28.411232,-1.68651 -1.816243,0.55136 -1.816243,1.03785 z m -0.389195,0.3892 -0.259464,0.77839 0.648659,0 0.648658,-0.77839 -1.037853,0 z m 11.286654,0 0,0.12973 1.427048,0 0,-0.12973 -1.427048,0 z m -9.859606,0.12973 -0.389195,0.64866 19.070553,0.51893 2.075707,0 0,-0.12974 Q 33.166371,909.84605 28.91766,909.84605 Z m 12.194775,0 0,0.12973 15.567799,1.03786 5.189266,0 0,-0.12974 q -8.335259,-0.64865 -19.58948,-1.03785 l -1.167585,0 z m 17.124579,0.25946 0,0.12974 0.908121,0 0,-0.12974 -0.908121,0 z m 1.55678,0.12974 0,0.12973 0.259463,0 0,-0.12973 -0.259463,0 z m -32.692377,0.64865 0,1.55678 0.77839,0 0,-1.55678 -0.77839,0 z m -1.945975,2.33517 q -0.518927,30.35721 -0.518927,43.46011 0.389195,2.07571 2.854097,2.07571 l 0.518926,0 0,-0.12974 q -2.33517,-1.39461 -2.33517,-3.63248 0.259464,-21.60032 0.908122,-43.8493 l 0.129732,-0.12973 -0.259464,0 q -1.00542,0 -1.297316,2.20543 z m 3.113559,-2.20543 0,1.42704 1.55678,0 0,-1.16758 0.129732,-0.12973 0,-0.12973 -1.686512,0 z m 2.075707,0.51892 0,0.90812 1.167585,0 0.259463,-0.90812 -1.427048,0 z m 1.55678,0 q 0.389195,0.2919 0.389195,0.90812 l 0.389195,0 q 0.259463,0 0.259463,-0.64865 l 0.259463,0 0,0.25946 0.129732,-0.12973 0.259463,0 0,0.51892 12.324508,0 9.600142,-0.25946 0,-0.12973 q -7.783899,-0.51893 -12.065044,-0.51893 l -9.859606,0 -0.129731,0.12973 -0.129732,0 -0.129732,-0.12973 0,0.12973 -0.129731,-0.12973 -0.648659,0 -0.129731,0.12973 -0.129732,-0.12973 -0.259463,0 z m 23.351698,0 0,0.12973 0.908121,0 0,-0.12973 -0.908121,0 z m 3.632486,0 0,0.12973 0.908122,0.12974 1.945975,-0.12974 0,-0.12973 -2.854097,0 z m -2.205438,0.12973 0,0.12974 0.389195,0 0,-0.12974 -0.389195,0 z m 1.55678,0.64866 0,0.12973 0.518926,0 0,-0.12973 -0.518926,0 z m -31.005866,0.64866 0,1.29732 0.129732,0.12973 -0.129732,0.12973 0,0.12973 0.129732,0.12973 -0.129732,0.12974 0,0.64865 0.129732,0.12974 0,0.12973 -0.129732,0.12973 0.129732,0 -0.129732,0.12973 0,18.16243 0.259464,0 0,-0.12973 0.259463,-18.0327 -0.129732,-0.12973 0.129732,0 -0.129732,-0.12973 0.129732,-0.64866 0,-0.25946 -0.259463,0 0,-0.25947 0.259463,0 -0.129732,-0.12973 0.129732,-0.12973 0,-1.42705 -0.518927,0 z m 1.037853,0 0,0.90812 q 0.389195,-0.12973 0.389195,-0.77839 l 0,-0.12973 -0.389195,0 z m 0.648659,0 0,0.3892 0.259463,0 0,1.03785 0.389195,0 0.259463,-0.90812 0,-0.51893 -0.518926,0 -0.129732,0.12973 -0.129732,0 -0.129731,-0.12973 z m 4.670339,0.3892 0,0.77839 19.070554,-1.03786 0,-0.12973 -2.464902,0 -16.605652,0.3892 z m 21.275992,-0.12974 0,0.12974 0.648658,0 3.11356,-0.25947 0,-0.12973 -0.518927,0 -3.243291,0.25946 z m -24.389551,-0.12973 0,0.25947 0.518926,-0.12974 0,-0.12973 -0.518926,0 z m 1.816243,0.90812 0,0.12974 0.908121,0 0,-0.51893 -0.259463,-0.25946 -0.648658,0.64865 z m 21.016528,-0.64865 0,0.12973 1.167585,0 0,-0.12973 -1.167585,0 z m -22.832771,0.12973 0,0.77839 1.427048,-0.51893 0,-0.25946 -1.427048,0 z m 21.275991,0 0,0.12973 0.648658,0 0,-0.12973 -0.648658,0 z m 4.929803,0.12973 0,0.12973 0.389195,0 0,-0.12973 -0.389195,0 z m -21.92465,1.03785 -1.167585,0.12973 0,0.64866 q 11.578551,-0.51892 22.443577,-1.55678 l 0,-0.12973 -0.259464,0 q -13.881287,0.90812 -21.016528,0.90812 z m -6.227119,-0.25946 0.259463,0 0,-0.25946 -0.259463,0.25946 z m 0.77839,0.90812 0,0.25946 0.518926,0 0,-0.77839 -0.518926,0.51893 z m 1.167585,-0.51893 0,0.77839 0.77839,0 0.648658,-0.12973 0,-0.64866 -1.427048,0 z m 1.945974,0 0,0.64866 0.77839,0 0,-0.64866 -0.77839,0 z m -4.151413,0.12974 0,0.51892 0.518927,-0.25946 0,-0.25946 -0.518927,0 z m 4.151413,1.03785 0.129732,12.32451 0.129732,0.38919 0.908121,0 -0.389195,-12.84343 -0.77839,0.12973 z m -1.945974,0 0.129731,0.51893 0.259464,12.97316 0.129731,0.64866 0.259464,0 0.908121,0.12973 -0.259463,-14.27048 -1.427048,0 z m -2.33517,0.12973 -0.129732,14.27048 -0.129731,1.16759 0.518926,0 0.648658,0.12973 0,-0.12973 -0.259463,-15.43807 -0.648658,0 z m 1.167585,0 0.259463,14.01102 0.259463,0 0,-14.01102 -0.518926,0 z m 1.037853,11.15692 0,2.8541 0.129732,0 0,-2.8541 -0.129732,0 z m 2.33517,1.81625 0,1.16758 0.908121,0 0,-1.03785 -0.908121,-0.12973 z m 1.297316,0.12973 0,0.12973 0.129732,0.51893 0,0.38919 q 7.362271,0 12.324507,1.81624 l 0,-0.12973 q -4.670339,-2.72436 -12.454239,-2.72436 z m -4.410876,1.29731 0,1.16759 0.259463,0 0,-1.16759 -0.259463,0 z m 0.77839,0.12974 0,1.03785 0.129732,0 0,-1.03785 -0.129732,0 z m 0.648658,0 0,1.03785 1.167585,0 0,-1.03785 -1.167585,0 z m 1.686512,0 0,0.90812 0.259463,0.25946 0.648658,0 0,-1.03785 -0.908121,-0.12973 z m 1.427048,0.12973 0,1.03785 q 1.881109,0 7.783899,1.03785 l 0.389195,0 0,-0.12973 q -2.627066,-1.29731 -8.173094,-1.94597 z m 4.151413,0.12973 0,0.12973 0.259463,0 0,-0.12973 -0.259463,0 z m 0.648658,0.12973 0,0.12973 q 1.848676,0.22703 4.281145,1.68651 l 3.632486,0 q -1.135152,-1.16758 -7.654167,-1.81624 l -0.259464,0 z m -11.02719,1.03785 0,2.20544 1.297316,0 0,-0.90812 -0.129732,-1.29732 -1.167584,0 z m 1.686511,0 0,2.20544 0.259463,0 0,-2.20544 -0.259463,0 z m 0.77839,0 0,0.77839 0.259463,0 -0.129731,-0.77839 -0.129732,0 z m 0.648658,0 0,0.77839 1.167585,0 0,-0.64865 -1.167585,-0.12974 z m 1.686512,0.12974 0,0.64865 1.037853,0 -0.129732,-0.64865 -0.908121,0 z m 1.427048,0.12973 0,0.51892 4.800071,0 0,-0.12973 -4.800071,-0.38919 z m -3.762218,1.03785 0,0.90812 0.259463,0 0,-0.90812 -0.259463,0 z m 0.648658,0 0,0.90812 1.297317,0 0,-0.90812 -1.297317,0 z m 1.686512,0 0,0.90812 1.037853,0 0,-0.90812 -1.037853,0 z m 1.427048,0 0,0.90812 9.600142,0 q 0,-0.42163 -2.335169,-0.90812 l -7.264973,0 z m 9.729874,0 0,0.12973 q 0.389195,0.4865 0.389195,0.90812 0.745957,0 2.594633,-0.90812 l 0,-0.12973 -2.983828,0 z m 0.129732,2.07571 0.129731,0 q 2.10814,-0.77839 2.205439,-1.16759 l -0.129732,0 q -2.205438,0.61623 -2.205438,1.16759 z m -16.735384,-0.64866 0,11.80558 0.129732,0 0,-10.89746 0.129732,-0.90812 -0.259464,0 z m 0.648659,0 0,2.20544 1.297316,0 0,-2.20544 -1.297316,0 z m 1.686511,0 0,2.20544 0.259463,0 0,-2.20544 -0.259463,0 z m 0.77839,0 0,2.20544 0.259463,0 0,-2.20544 -0.259463,0 z m 0.648658,0 0,0.77839 1.297317,0 0,-0.77839 -1.297317,0 z m 1.686512,0 0,0.77839 1.037853,0 0,-0.77839 -1.037853,0 z m 1.427048,0 0,0.77839 8.043363,-0.64866 0,-0.12973 -8.043363,0 z m 0.129732,1.16758 0,0.90813 0.389195,-0.12974 q 3.56762,0 8.432557,-1.42704 l 0,-0.12974 -0.129731,0 q -4.962236,0.77839 -8.692021,0.77839 z m 8.692021,-0.25946 0,0.12973 0.259463,0 0,-0.12973 -0.259463,0 z m -0.389195,0.12973 0,0.12973 0.259463,0 0,-0.12973 -0.259463,0 z m -9.859606,0.25947 0,0.77839 1.037853,0 0,-0.90813 -0.129732,0 -0.908121,0.12974 z m -1.55678,0 0,0.90812 0.259463,0 0.908122,-0.12973 0,-0.77839 -1.167585,0 z m 3.11356,1.42704 0,0.77839 q 2.043273,0 7.005509,-1.42704 l 0,-0.12974 -0.259463,0 q -3.794651,0.77839 -6.746046,0.77839 z m -4.540608,-0.12973 0,1.16759 0.129731,0 0,-1.16759 -0.129731,0 z m 0.648658,0 0,1.16759 0.259463,0 0,-1.16759 -0.259463,0 z m 0.77839,0 0,1.03786 1.167585,0 0,-1.03786 -1.167585,0 z m -3.243291,0.12973 -0.129732,8.04337 0,6.35685 0.129732,0.12973 0,0.12973 -0.129732,0.12973 0.259463,0 0,-0.25946 1.297317,0 0,-1.55678 -0.129732,-12.97317 -1.297316,0 z m 4.929802,0 0,0.90813 0.908122,-0.12974 0,-0.77839 -0.908122,0 z m 0,1.29732 0,11.15692 0.129732,0.64866 1.037853,0 -0.129731,-6.48658 0,-4.02168 -0.129732,-1.29732 -0.908122,0 z m -3.113559,0.12973 0,9.60014 0.129731,0 0,-9.60014 -0.129731,0 z m 0.648658,0 0,11.54612 0.129732,0.12973 0,0.12973 -0.129732,0.12973 0.129732,0 -0.129732,0.12974 0,1.03785 0.518927,0 0,-0.90812 -0.259464,0 0,-0.25947 0.259464,0 -0.129732,-0.12973 0.129732,-0.12973 -0.129732,-8.04336 0,-2.98383 -0.129732,-0.64866 -0.259463,0 z m 0.77839,0 0.129732,9.34068 0,2.33517 1.167584,0 -0.129731,-11.67585 -1.167585,0 z m 0.908121,12.06505 0,0.12973 0.389195,0.12973 0,-0.25946 -0.389195,0 z m 0.908122,0 0,0.51892 0.389195,0.3892 0.648658,0 0,-0.90812 -1.037853,0 z m -1.686511,0.25946 0,0.64866 1.167584,0 q 0,-0.3892 -1.167584,-0.64866 z m -2.205439,1.16758 0.259464,0.25947 0,-0.25947 -0.259464,0 z m -1.297316,0.12974 0,0.90812 1.55678,0 0,-0.3892 -1.55678,-0.51892 z m 2.594633,0 0,0.90812 0.518927,0 0,-0.64866 -0.259464,-0.25946 -0.259463,0 z m 1.427048,0 0.648658,0.64865 0,-0.64865 -0.648658,0 z m 1.167585,0 0,0.90812 0.77839,0 q -0.324329,-0.84326 -0.648658,-0.90812 l -0.129732,0 z m 0.77839,0 0.259463,0.25946 0,-0.25946 -0.259463,0 z m -2.33517,0.38919 0,0.51893 0.518927,0 -0.518927,-0.51893 z m -2.724365,1.03785 0.648659,0.64866 0,-0.64866 -0.648659,0 z m 2.075707,0 0,0.25947 0.129732,0 0,-0.25947 -0.129732,0 z m 0.648658,0 0,0.64866 0.908122,0 0.129731,-0.12973 0.129732,0.12973 0.259463,0 -0.129731,-0.64866 -0.129732,0 0,0.25947 -0.259463,0 0,-0.25947 -0.908122,0 z m 1.55678,0 0,0.64866 0.908122,0 0.129731,-0.12973 0.129732,0 0.129732,0.12973 0,-0.64866 -0.129732,0.12974 -0.648658,-0.12974 -0.518927,0 z m -5.318998,0.12974 q 0,1.94597 0.518927,1.94597 l 1.037853,0 0.129732,-0.12973 0.129731,0.12973 0.129732,0 0.129732,-0.12973 0.129731,0.12973 0.908122,0 0.129732,-0.12973 0.129731,0.12973 0.259464,0 -0.129732,-0.90812 -0.129732,0 0,0.25946 -0.259463,0 0,-0.25946 -0.908122,0 0,0.64866 -0.259463,0 0,-0.51893 -0.129732,0 0,0.25946 -0.259463,0 q -0.518927,-1.42704 -1.55678,-1.42704 z m -0.389195,1.42704 0,0.51893 0.259464,0 -0.129732,-0.51893 -0.129732,0 z"
         style="font-style:normal;font-variant:normal;font-weight:normal;font-stretch:normal;font-family:'STRING AND WIRE';-inkscape-font-specification:'STRING AND WIRE';text-align:center;letter-spacing:5.1258316px;text-anchor:middle;fill:none;stroke:#000000;stroke-width:0.04271527;stroke-linejoin:round;stroke-miterlimit:4;stroke-dasharray:none;stroke-opacity:1"
         id="path4236"
         inkscape:connector-curvature="0" />
      <path
         d="m 82.887461,929.17607 2.724364,0 q 4.508175,0 6.22712,3.37302 l 0,0.90812 q 0,0.94056 -5.318998,2.4649 -1.816243,0.84326 -3.762218,2.72437 l -0.129732,0 0,-0.25946 q 1.816244,-2.59464 7.7839,-4.02169 l 0,-0.12973 -0.389195,0 q -1.264884,0 -6.486583,2.07571 -1.00542,0.48649 -2.464901,2.07571 -0.616226,0 -1.037854,1.42704 l 0.259464,5.05954 0,1.03785 -0.259464,0.25946 -0.129731,-0.38919 -0.259464,-5.05953 -0.129731,0 q -0.648659,1.9784 -0.648659,3.11355 l 0,1.94598 0.129732,1.94597 -0.389195,0.12974 0,2.72436 0.129732,5.83793 -0.129732,0.12973 -0.129732,0 -0.129731,-0.12973 0,-2.46491 -0.129732,-9.34068 -0.129732,0 0,1.42705 -0.389194,0.12973 0.129731,6.74605 0,6.09739 -0.259463,0 -0.259463,-16.86512 -0.129732,-0.77839 -0.129732,0 -0.389195,2.33517 0,2.8541 -0.259463,3.50275 0,10.37854 -0.259463,0.25946 -0.129732,-0.12973 0,-11.54612 -0.129732,-6.09739 -0.129731,0 -0.259464,3.37303 0.129732,12.7137 -0.259463,0 -0.259464,-12.97317 -0.129731,0 -0.129732,12.97317 -0.259463,0 0,-1.29732 0.129731,-11.54612 -0.129731,-2.20543 q 0.259463,-1.03786 0.259463,-2.59464 l 0,-0.25946 -0.129732,0 q -0.518926,1.58921 -0.518926,7.3947 l 0,11.93532 -0.259463,0.25946 -0.129732,-0.12973 0,-10.50827 q 0,-2.33517 -0.389195,-2.33517 l 0.129732,-0.64865 0,-0.64866 0.129731,-6.35685 0,-0.12973 -0.129731,0 q -0.908122,1.20001 -0.908122,16.21645 l 0,2.8541 -0.259463,0 0,-7.00551 0.129731,-5.83793 q -0.389195,0 -0.389195,-0.25946 l 0,-1.81624 -0.129731,0 -0.129732,9.34068 0,2.85409 -0.259463,0.25947 -0.129732,-0.12973 0,-0.12974 0.129732,-8.43255 -0.129732,0 -0.259463,-0.25947 q 0,-11.54611 1.816243,-16.60565 l 0,-0.12973 -0.129732,0 q -2.594633,5.05953 -2.594633,14.78941 l 0,0.25946 -0.259463,0.25946 -0.129732,-0.12973 0,-1.29731 q 0,-10.02177 2.983828,-14.27049 l 1.037854,-0.51892 q 0.421627,0 1.167584,0.51892 l 1.037854,-0.51892 q 0.843255,0 1.297316,0.77839 2.659499,-1.55678 5.44873,-1.55678 z m -0.908122,0.38919 0,0.12973 0.259463,0 0,-0.12973 -0.259463,0 z m -1.816243,1.29732 0,0.12973 0.129732,0 q 1.556779,-0.64866 3.502754,-0.64866 l 0.129732,0 0.648658,0.12973 2.075707,-0.12973 0,-0.12973 -2.33517,-0.64866 q -2.075707,0.3892 -4.151413,1.29732 z m 6.097388,-1.29732 0,0.12973 4.281144,1.94598 0.77839,0.64866 q -0.875688,-1.68651 -3.891949,-2.59464 l -1.037854,-0.12973 -0.129731,0 z m -8.562289,1.42705 0.389194,0.77839 q 2.88653,-1.94597 3.632487,-1.94597 l 0,-0.12974 -0.389195,0 q -1.654079,0.3892 -3.632486,1.29732 z m 9.081215,-0.64866 0,0.12973 0.259464,0 0,-0.12973 -0.259464,0 z m -4.670339,0.51893 0,0.12973 0.389195,0 0,-0.12973 -0.389195,0 z m 5.189266,0 0,0.12973 0.389195,0 0,-0.12973 -0.389195,0 z m -5.967656,0.12973 0,0.12973 0.518926,0 0,-0.12973 -0.518926,0 z m -6.356851,0.12973 0,0.12973 0.259463,0 0,-0.12973 -0.259463,0 z m 5.967656,0 0,0.12973 0.259463,0 0,-0.12973 -0.259463,0 z m 2.205438,0 0,0.12973 0.389195,0 0,-0.12973 -0.389195,0 z m -2.594633,0.12973 0,0.12974 0.259463,0 0,-0.12974 -0.259463,0 z m 2.205438,0 0,0.12974 0.259463,0 0,-0.12974 -0.259463,0 z m 1.55678,0 0.259463,0.25947 1.427048,0 0,-0.12973 -0.908121,-0.12974 -0.77839,0 z m -8.432558,0.12974 0,0.38919 0.129732,0 0,-0.38919 -0.129732,0 z m 1.55678,0 0,0.25946 0.129732,0.64866 0.259463,-0.25947 -0.259463,-0.64865 -0.129732,0 z m 2.724365,0 0,0.12973 0.259463,0 0,-0.12973 -0.259463,0 z m 2.205438,0 0,0.12973 0.259463,0 0,-0.12973 -0.259463,0 z m 5.578461,0 0,0.12973 0.648659,0.12973 -0.259464,-0.25946 -0.389195,0 z m -8.692021,0.38919 0,0.12973 0.129732,0 0.648658,-0.25946 0,-0.12973 -0.129731,0 -0.648659,0.25946 z m -0.77839,0.90812 0.129732,0.3892 0.129732,0 2.075706,-1.29732 0,-0.12973 -0.129731,0 -2.205439,1.03785 z m 3.243292,-1.03785 0,0.12973 0.259463,0 0,-0.12973 -0.259463,0 z m -2.724365,2.33517 0,0.25946 q 3.664919,-2.33517 4.67034,-2.33517 l 0,-0.12973 -0.259464,0 q -1.945974,0 -4.410876,2.20544 z m 4.021681,-1.68651 0,0.12973 1.55678,-0.12973 2.464902,0 0,-0.12973 -1.686512,-0.3892 -2.33517,0.51893 z m 3.89195,-0.51893 0,0.12973 0.77839,0.25947 0.129732,0 0,-0.12974 -0.648659,-0.25946 -0.259463,0 z m 2.33517,0 0,0.12973 0.648658,0.25947 0.129732,0 0,-0.12974 -0.648659,-0.25946 -0.129731,0 z m -15.69753,0.12973 -0.129732,1.81625 0,0.25946 0.129732,0 0.129731,-1.03785 0,-1.03786 -0.129731,0 z m 2.983828,0.25947 0,0.90812 0.129731,0 0,-0.90812 -0.129731,0 z m -3.373023,0.25946 0,0.25946 0.129731,0 0,-0.25946 -0.129731,0 z m 3.762218,0 0,0.38919 0.129731,0 0,-0.38919 -0.129731,0 z m 12.713702,0 q 0,0.25946 0.77839,0.38919 l 0.129731,0 0,-0.12973 -0.908121,-0.25946 z m -15.308336,0.12973 -0.129731,0.64866 0,1.81624 0.129731,0 0.129732,-1.94597 0,-0.51893 -0.129732,0 z m 1.427049,0 -0.129732,1.03785 0.129732,0.12974 0.259463,0 0,-0.25947 -0.129732,-0.90812 -0.129731,0 z m 3.373023,2.20544 0.259463,0.90812 q 3.275724,-2.59463 4.410876,-2.72436 l 0,-0.12974 q -2.237871,0.25947 -4.670339,1.94598 z m 5.059534,-1.55678 0,0.12973 3.373023,-0.12973 0,-0.12973 -1.55678,-0.25947 -1.816243,0.3892 z m -6.356851,0 0,0.25946 0.259463,0 0.129732,-0.12973 0.129732,0 -0.129732,-0.38919 -0.129732,0 -0.259463,0.25946 z m -4.800071,-0.12973 -0.648658,5.83792 0,0.51893 0.129731,0 0.648659,-6.09739 0,-0.25946 -0.129732,0 z m 16.605652,0 0,0.25946 0.518926,0 0,-0.12973 -0.518926,-0.12973 z m -9.989338,3.37302 0.129732,0 q 1.491914,-1.84868 5.708193,-2.8541 l 0.129731,0 0,-0.12973 -0.129731,0 q -3.437889,0 -5.837925,2.98383 z m -2.594633,-2.8541 0,0.64866 0.129732,-0.12973 0.129732,0 -0.129732,-0.51893 -0.129732,0 z m 10.508264,0 0,0.12974 0.259464,0 0,-0.12974 -0.259464,0 z m 2.205438,0 0,0.12974 0.389195,0 0,-0.12974 -0.389195,0 z m -5.189266,0.51893 0,0.12973 0.259464,0 0,-0.12973 -0.259464,0 z m -6.486583,0.77839 0.129732,0 0.389195,-0.38919 0,-0.12974 q -0.421628,0.12974 -0.518927,0.51893 z m 7.7839,-0.51893 0,0.12974 0.259463,0 0,-0.12974 -0.259463,0 z m -0.389195,0.12974 0,0.12973 0.259463,0 0,-0.12973 -0.259463,0 z m -9.600143,0.12973 0,0.51892 0.129732,0 0,-0.51892 -0.129732,0 z m 7.394705,1.16758 2.075706,-1.03785 0,-0.12973 -0.129731,0 q -1.589213,0.71352 -1.945975,1.16758 z m -3.373023,2.72437 0,0.64866 0.129731,0 q 0,-1.36219 4.021682,-4.28115 l 0.129731,0 0,-0.12973 -0.129731,0 q -1.686512,0.42163 -3.373023,2.20544 -0.77839,1.16758 -0.77839,1.55678 z m 5.837924,-3.63249 0,0.12973 0.259463,0 0,-0.12973 -0.259463,0 z m -12.194775,0.12973 -0.389195,2.8541 0,0.12973 0.129731,0 0.389195,-1.16758 0,-1.81625 -0.129731,0 z m -1.167585,0.12973 0,0.25947 0.129731,0 0,-0.25947 -0.129731,0 z m 4.151413,0 0,1.03786 0.129731,0 0.129732,-0.3892 -0.129732,-0.64866 -0.129731,0 z m 1.686511,0.64866 0.129732,0.90812 0.648658,-0.64865 -0.129732,-0.90813 q -0.518926,0.25947 -0.518926,0.64866 l -0.129732,0 z m -3.632486,-0.51892 0,0.38919 0.129731,0 0,-0.38919 -0.129731,0 z m 7.005509,0 0,0.12973 0.259463,0 0,-0.12973 -0.259463,0 z m -6.097388,0.12973 0,0.25946 0.129732,0 0,-0.25946 -0.129732,0 z m -0.518926,0.38919 0,0.51893 0.259463,-0.25946 0,-0.51893 -0.259463,0.25946 z m 7.783899,0.25947 -0.129732,0.12973 0,0.12973 0.129732,0 0.129732,-0.12973 0,-0.12973 -0.129732,0 z m -10.508264,0.12973 0,0.38919 0.129732,0 0,-0.38919 -0.129732,0 z m 5.578461,0 0,0.51892 0.129732,0 0,-0.51892 -0.129732,0 z m -2.205438,0.12973 0,0.64866 0.129732,0 0,-0.64866 -0.129732,0 z m 4.540608,0 -0.389195,0.51893 0.129732,0 0.389195,-0.51893 -0.129732,0 z m -5.708193,0.12973 0,0.51893 0.129732,0 0,-0.51893 -0.129732,0 z m 2.983828,0.25946 0,0.77839 0.259464,0.25947 0,-0.12973 -0.129732,-0.90813 -0.129732,0 z m 2.33517,0.77839 0,0.25947 0.648658,-0.77839 0,-0.12973 -0.648658,0.64865 z m -7.654168,-0.12973 0,0.51893 0.129732,0 0,-0.51893 -0.129732,0 z m 2.594633,0.12973 -0.129731,2.20544 0,0.25947 0.129731,0 0.129732,-0.90813 0,-1.55678 -0.129732,0 z m 0.648659,0.12974 0,0.38919 0.129731,0 0,-0.38919 -0.129731,0 z m 1.167585,1.03785 0,0.77839 q 0.324329,0 0.518926,-1.03785 l 0,-0.77839 q -0.324329,0 -0.518926,1.03785 z m 1.427048,-1.03785 0,0.38919 0.129731,0 0,-0.38919 -0.129731,0 z m -4.410876,0.25946 -0.518927,1.55678 0,1.03785 0.129732,0 0.518926,-1.68651 0,-0.90812 -0.129731,0 z m 5.318997,0.51893 -0.129731,-0.12974 -0.129732,0 0,1.55678 0.129732,0 0.648658,-1.68651 0,-0.12973 -0.518927,0.3892 z m -1.297316,-0.12974 0,0.25947 0.129732,0 0,-0.25947 -0.129732,0 z m -5.578461,0.25947 0,0.77839 0.129731,0 0,-0.77839 -0.129731,0 z m 2.205438,0.38919 0,0.77839 0.129731,0 0,-0.77839 -0.129731,0 z m 3.891949,0 0,1.03786 0.129732,0 0,-1.03786 -0.129732,0 z m 1.297317,0 -0.648658,1.81625 0,1.42704 0.129731,0 q 0.454061,-2.20543 0.77839,-2.20543 l -0.129731,-1.03786 -0.129732,0 z m -3.89195,0.12973 -0.259463,1.03786 0,0.51892 0.129732,0 0.259463,-1.29731 0,-0.25947 -0.129732,0 z m 1.55678,0.12974 -0.518926,1.42704 0,0.77839 0.129731,0 0.518927,-1.94597 0,-0.25946 -0.129732,0 z m -4.800071,0.38919 0,0.64866 0.129732,0 0,-0.64866 -0.129732,0 z m 3.632486,0.12973 0,0.77839 0.129732,0 0,-0.77839 -0.129732,0 z m 1.816244,0 0,0.25947 0.129731,0 0,-0.25947 -0.129731,0 z m -3.243292,0.3892 0,0.25946 0.129732,0 0,-0.25946 -0.129732,0 z m -2.594633,0.12973 0,0.90812 0.129732,0 0,-0.90812 -0.129732,0 z m 5.967656,0 0,1.16758 0.129732,0 0,-1.16758 -0.129732,0 z m 0.389195,0.12973 0,0.51893 0.129732,0 0,-0.51893 -0.129732,0 z m -3.373023,0.3892 0,0.25946 0.129732,0 0,-0.25946 -0.129732,0 z m 0.648658,0 -0.129731,1.29731 0,1.55678 0.129731,0 0.259464,-2.20544 0,-0.64865 -0.259464,0 z m -3.373023,1.16758 0,0.77839 0.129732,0 0,-0.77839 -0.129732,0 z m -0.389195,1.03785 0,0.25947 0.129732,0 0,-0.25947 -0.129732,0 z m 6.22712,0.25947 0,0.51892 0.129731,0 0,-0.51892 -0.129731,0 z m 0.389195,0 0,1.16758 0.129731,0 0,-1.16758 -0.129731,0 z"
         style="font-style:normal;font-variant:normal;font-weight:normal;font-stretch:normal;font-family:'STRING AND WIRE';-inkscape-font-specification:'STRING AND WIRE';text-align:center;letter-spacing:5.1258316px;text-anchor:middle;fill:none;stroke:#000000;stroke-width:0.04271527;stroke-linejoin:round;stroke-miterlimit:4;stroke-dasharray:none;stroke-opacity:1"
         id="path4238"
         inkscape:connector-curvature="0" />
      <path
         d="m 102.4135,915.03532 3.11356,0 q 3.63249,0.51892 3.63249,2.33517 l 0,0.12973 -0.25946,0.25946 q 0,-1.52434 -2.20544,-2.33517 1.16758,1.26489 1.16758,2.4649 l -0.38919,0.12974 0.12973,0.90812 0,0.12973 -0.25946,0.25946 -0.25947,-1.94597 -0.12973,0 q 0,0.38919 -0.38919,0.38919 l 0.12973,0.64866 0,1.29732 -0.25947,0 q -0.19459,-3.76222 -0.90812,-3.76222 l -0.12973,0 0,0.12973 0.12973,1.94598 -0.25946,0.25946 0,1.55678 -0.25946,0.25946 -0.12973,-0.12973 0,-1.55678 q 0,-0.81082 -0.51893,-2.20544 l -0.12973,0 -0.12973,0.51893 q 0.38919,1.29732 0.38919,2.98383 l -0.25946,0 -0.12973,-1.55678 0,-0.51893 -0.25947,0.25946 0,0.90813 -0.12973,0.90812 -0.25946,0 0,-0.12973 q 0,-1.55678 0.38919,-2.98383 l -0.12973,-0.3892 -0.12973,0 q -0.51893,1.29732 -0.51893,2.20544 l 0,1.42705 -0.25946,0.25946 -0.12973,-0.12973 0,-1.68651 -0.25947,-0.3892 0.12974,-1.94597 -0.12974,0 q -0.90812,0.55136 -0.90812,3.76222 l -0.25946,0 0,-1.29732 0.12973,-0.64866 -0.51893,-0.25946 q -0.0973,1.81624 -0.38919,1.81624 l -0.12973,-0.12973 0.12973,-0.64866 0,-0.51892 q -0.3892,0 -0.3892,-0.25947 0,-1.07028 1.16759,-2.33517 l -0.12973,0 q -2.075709,0.90812 -2.075709,2.33517 l -0.129732,0 -0.129732,-0.12973 0,-0.25946 q 0,-1.81625 3.632483,-2.33517 z m 0,0.25946 0,0.25946 0.12974,0 0,-0.25946 -0.12974,0 z m 2.98383,0 0,0.25946 0.12973,0 0,-0.25946 -0.12973,0 z m -0.77839,0.12973 0,0.12973 0.25947,0.25947 0,-0.12973 -0.25947,-0.25947 z m -1.55678,0.12973 0,0.25947 0.3892,-0.12973 0,-0.12974 -0.3892,0 z m -1.81624,0.90813 0,0.12973 0.12973,0 0.51893,-0.77839 0,-0.12973 -0.64866,0.77839 z m 4.80007,-0.77839 0,0.12973 0.51893,0.77839 0.12973,0 0,-0.25947 -0.64866,-0.64865 z m -2.20544,0.12973 0,0.25946 0.25947,0 -0.25947,-0.25946 z m 3.11356,0.51892 0,0.25947 0.12973,0 0,-0.25947 -0.12973,0 z m -3.89195,0.12974 0,0.25946 0.12973,0 0,-0.25946 -0.12973,0 z m 1.68651,0 0,0.25946 0.12974,0 0,-0.25946 -0.12974,0 z m -4.02168,0.25946 0,0.25946 0.12973,0 0,-0.25946 -0.12973,0 z m 6.48658,0.25946 0,0.25947 0.12974,0 0,-0.25947 -0.12974,0 z m -4.41087,7.91363 q 0.58379,0 1.16758,0.51893 l 0.77839,-0.51893 0.3892,0 q 2.91896,0 3.89195,13.88129 l 0.12973,2.72437 0,2.0757 -0.25946,0.25946 -0.12974,-0.12973 0,-1.42704 q 0,-10.3461 -2.59463,-16.34619 l -0.12973,0 0,0.12973 q 1.81624,5.90279 1.81624,19.45975 l -0.38919,0.12973 0.12973,9.34068 0,0.64866 -0.25946,0.25946 -0.12974,-0.12973 0,-4.80007 -0.12973,-9.72988 -0.12973,0 0,2.4649 -0.38919,0.12973 0.12973,4.15142 0,10.76773 -0.25947,0 0,-0.12974 q 0,-22.50844 -0.90812,-27.76257 l -0.12973,0 0,0.77839 0.12973,13.36236 -0.25946,3.50275 0,2.59464 0.12973,4.02168 -0.12973,3.63249 0,1.68651 -0.25946,0.25946 -0.12973,-0.12973 0,-14.14075 q 0,-4.76764 -0.51893,-12.84344 l -0.12973,0 -0.12973,2.72437 q 0.38919,8.69202 0.38919,20.62733 l 0,1.81625 -0.25946,0 -0.12973,-11.28666 0,-1.68651 -0.12974,-1.55678 -0.12973,0 0,1.03785 -0.12973,13.4921 -0.25946,0 0,-0.12974 q 0,-12.4218 0.38919,-22.05438 l -0.12973,-3.37302 -0.12973,0 0,1.55678 -0.25946,0 0,-0.90812 -0.12974,0 0.12974,1.16758 0.12973,0 0,1.55678 -0.25947,0 0,-1.03785 -0.12973,0 0.12973,1.29732 0.12974,0 -0.25947,10.2488 0,13.36236 -0.25946,0.25946 -0.12973,-0.12973 0,-12.06505 -0.25947,-3.63248 0.12974,-13.36236 0,-0.77839 -0.12974,0 q -0.90812,5.15683 -0.90812,28.02204 l -0.25946,0 0,-7.13525 0.12973,-7.7839 q -0.38919,0 -0.38919,-0.25946 l 0,-2.59463 -0.25947,0 0,-1.29732 -0.12973,0 0.12973,1.68651 0.12973,0 -0.12973,9.72988 0,4.54061 -0.25946,0.25946 -0.12973,-0.12973 0,-0.12973 0.12973,-8.95149 0,-1.03785 q -0.3892,0 -0.3892,-0.25947 0,-13.52452 1.81625,-19.33001 l 0,-0.12973 -0.12973,0 q -2.594638,5.87035 -2.594638,17.12457 l 0,0.51893 -0.259463,0.25946 -0.129732,-0.12973 0,-1.81624 q 0.713524,-16.99485 4.021683,-16.99485 z m 1.03785,1.29732 0,0.12973 0.25947,0 0,-0.12973 -0.25947,0 z m 0.90812,0.38919 0,0.51893 0.12974,0 0,-0.51893 -0.12974,0 z m -1.68651,0.12974 0,0.25946 0.12973,0 0,-0.25946 -0.12973,0 z m -0.64866,0.51892 -0.12973,2.07571 0,0.25946 0.12973,0 0.12974,-1.16758 0,-1.16759 -0.12974,0 z m 2.98383,0.12973 0,1.16759 0.12973,1.03785 0.12974,0 0,-0.38919 -0.12974,-1.81625 -0.12973,0 z m 0.3892,0.12974 0,0.51892 0.12973,0 0,-0.51892 -0.12973,0 z m -3.76222,0.25946 0,0.25946 0.12973,0 0,-0.25946 -0.12973,0 z m 1.16758,0.12973 -0.12973,0.90812 0,2.07571 0.12973,0 q 0.0324,-1.81624 0.25947,-1.81624 l -0.12973,-1.16759 -0.12974,0 z m 1.42705,0 0,0.64866 0.12973,2.33517 0.12974,0 0,-2.07571 -0.12974,-0.90812 -0.12973,0 z m 1.29732,0.3892 0,0.38919 0.64866,7.39471 0.12973,0 0,-0.64866 -0.64866,-7.13524 -0.12973,0 z m -4.02168,0.12973 q -0.64866,5.70819 -0.64866,7.52443 l -0.25946,0 0,-1.03785 -0.12974,0 0.12974,1.42705 0.12973,0 0,1.55678 0.12973,0 0.77839,-9.08122 0,-0.38919 -0.12973,0 z m -0.51893,1.55678 0,0.25946 0.12973,0 0,-0.25946 -0.12973,0 z m 2.4649,0.64866 0,1.03785 0.12973,0.64866 0.12974,0 0,-1.03786 -0.12974,-0.64865 -0.12973,0 z m -2.59463,0.25946 0,0.51893 0.12973,0 0,-0.51893 -0.12973,0 z m 3.11356,0.25946 0,0.25947 0.12973,0 0,-0.25947 -0.12973,0 z m -0.90812,0.12973 0,0.51893 0.12973,0 0,-0.51893 -0.12973,0 z m 3.24329,0.51893 0,0.51893 0.12973,0 0,-0.51893 -0.12973,0 z m -2.20544,0.25946 0,0.77839 0.12973,0 0,-0.77839 -0.12973,0 z m -3.37302,0.12974 0,0.38919 0.12973,0 0,-0.38919 -0.12973,0 z m 2.20544,0.38919 0,0.64866 0.12973,0 0,-0.64866 -0.12973,0 z m 3.50275,0.51893 0,0.90812 0.12973,0 0,-0.90812 -0.12973,0 z m -5.83792,0.38919 0,0.90812 0.12973,0 0,-0.90812 -0.12973,0 z m 3.63248,0.12973 0,1.03786 0.12973,0 0,-1.03786 -0.12973,0 z m 2.33517,1.03786 0,1.29731 0.12973,0 0,-1.29731 -0.12973,0 z m -2.20544,0.38919 0,1.55678 0.12974,0 0,-1.55678 -0.12974,0 z m 1.94598,1.42705 0,1.42705 0.12973,0 0,-1.42705 -0.12973,0 z m 0.38919,0 0,1.68651 0.12973,0 0,-1.68651 -0.12973,0 z m -6.35685,0.51893 0.12973,1.68651 0.12974,0 0,1.29732 0.12973,0 -0.12973,-1.68652 -0.12974,0 0,-1.29731 -0.12973,0 z m 6.09739,1.55678 0,1.42705 0.12973,0 0,-1.42705 -0.12973,0 z m 0.38919,0.77839 0,1.42705 0.12974,0 0,-1.42705 -0.12974,0 z"
         style="font-style:normal;font-variant:normal;font-weight:normal;font-stretch:normal;font-family:'STRING AND WIRE';-inkscape-font-specification:'STRING AND WIRE';text-align:center;letter-spacing:5.1258316px;text-anchor:middle;fill:none;stroke:#000000;stroke-width:0.04271527;stroke-linejoin:round;stroke-miterlimit:4;stroke-dasharray:none;stroke-opacity:1"
         id="path4240"
         inkscape:connector-curvature="0" />
      <path
         d="m 131.92889,929.43553 4.02168,0 q 6.06496,0 9.72988,5.18927 l 0.25946,0.77839 0,0.64866 q -0.1946,0.51892 -0.90812,0.51892 l -1.42705,-0.25946 -1.03785,0.25946 q -3.82709,-1.03785 -5.44873,-1.03785 -4.34601,0 -7.91363,4.80007 -1.29732,2.40004 -1.29732,4.28114 l 0,1.68652 -0.25946,0.25946 -0.25947,-0.90812 q 0,-6.97308 7.13524,-9.98934 l 0.12973,0 0,-0.12973 -0.12973,0 q -3.17842,0.55136 -4.80007,1.94597 -3.24329,3.47033 -3.24329,7.52444 l 0,0.51893 q 0,1.81624 0.64866,3.50275 -0.25946,0 -0.25946,0.3892 3.21085,6.35685 9.72987,6.35685 l 1.03785,0 0.77839,0.12973 1.81625,-0.77839 0,0.12973 q -1.65408,1.16759 -2.59464,1.16759 l 0,0.12973 0.3892,0 q 3.34059,-0.51893 5.319,-2.07571 l 0.25946,0 0,0.12973 q -3.30816,2.9514 -5.44873,3.24329 l 0,0.12974 0.38919,0 q 3.21086,-0.32433 6.74605,-3.2433 0,-0.25946 0.51893,-0.25946 l 0,0.12973 q -3.95682,3.89195 -9.34068,3.89195 l -1.03786,-0.12973 -0.90812,0.12973 q -2.40003,0 -5.18926,-1.03785 l -0.12973,0 0,0.12973 q 3.76221,1.94598 6.48658,1.94598 2.04327,0 6.09739,-1.81625 l 0,0.25947 q -2.91897,1.42704 -3.76222,1.42704 l 0,0.12974 0.25946,0 q 3.82709,-0.61623 5.70819,-1.94598 l 0.12974,0.12973 0,0.12973 q -3.53519,2.07571 -7.26498,2.07571 l -3.11356,0 -1.16758,-0.12973 -0.12973,0 0,0.12973 3.11356,0.51893 0.38919,-0.12973 1.42705,0.12973 1.29732,-0.12973 0,0.12973 -0.25947,0.25946 -4.5406,0 q -7.07038,0 -12.06505,-6.61631 -1.03785,-1.45949 -1.55678,-3.11356 l -0.12973,0 -0.12973,0.12973 -0.12973,0 q -1.16759,-2.9514 -1.16759,-5.57846 0,-9.24338 10.2488,-14.78941 l 2.07571,-0.64866 0,-0.12973 -0.25946,0 q -3.92439,0.61622 -7.91364,3.76222 -5.05953,5.15683 -5.05953,11.80558 l 0,1.16758 0.12973,0.64866 -0.12973,0.12973 -0.12973,0 -0.25947,-0.25946 0,-2.59464 q 0,-6.84334 6.74605,-12.45423 4.60547,-2.72437 7.7839,-2.72437 z m -2.20544,1.42705 0,0.12973 0.12973,0 q 1.78381,-0.51893 4.41088,-0.51893 l 0.38919,0.12974 0.77839,-0.12974 0.12974,0 1.81624,0.12974 0.12973,0 0,-0.12974 -3.37302,-0.64865 q -2.30274,0.25946 -4.41088,1.03785 z m 7.52444,-0.90812 0,0.12973 q 4.89737,1.52435 7.13524,3.76222 l 0.64866,0.51892 q -1.84868,-2.69193 -5.18927,-3.76221 -0.84325,-0.3892 -2.4649,-0.64866 l -0.12973,0 z m -7.91363,1.03785 0,0.12973 0.25946,0 0,-0.12973 -0.25946,0 z m 2.20544,0 0,0.12973 0.38919,0 0,-0.12973 -0.38919,0 z m -0.64866,0.12973 0,0.12973 0.25946,0 0,-0.12973 -0.25946,0 z m -0.64866,0.12973 0,0.12974 0.25946,0 0,-0.12974 -0.25946,0 z m 2.20544,0 0,0.12974 0.38919,0 0,-0.12974 -0.38919,0 z m -2.72437,0.12974 0,0.12973 0.25947,0 0,-0.12973 -0.25947,0 z m 2.33517,0 0,0.12973 0.25947,0 0,-0.12973 -0.25947,0 z m 1.55678,0 0,0.12973 2.20544,0 0,-0.12973 -2.20544,0 z m -4.28114,0.12973 0,0.12973 0.25946,0 0,-0.12973 -0.25946,0 z m 2.20544,0 0,0.12973 0.25946,0 0,-0.12973 -0.25946,0 z m -2.98383,0.25946 0,0.12973 0.12973,0 0.51893,-0.12973 0,-0.12973 -0.25947,0 -0.38919,0.12973 z m 2.59463,-0.12973 0,0.12973 0.25946,0 0,-0.12973 -0.25946,0 z m 7.91363,0 0,0.12973 1.55678,0.51893 0.12973,0 0,-0.12973 -1.55678,-0.51893 -0.12973,0 z m -8.30282,0.12973 0,0.12973 0.25946,0 0,-0.12973 -0.25946,0 z m -3.37303,2.4649 q 4.34601,-2.20544 5.18927,-2.20544 l 0,-0.12973 -0.25946,0 q -1.88111,0 -4.92981,2.33517 z m 5.05954,-1.94597 0,0.12973 0.90812,-0.12973 3.76222,0 0,-0.12973 -2.33517,-0.25947 -2.33517,0.3892 z m 4.9298,-0.3892 0,0.12973 1.29732,0.3892 0.25946,0 0,-0.12973 -1.42705,-0.3892 -0.12973,0 z m -9.72987,0.25947 0,0.12973 0.12973,0 0.38919,-0.12973 0,-0.12974 -0.12973,0 -0.38919,0.12974 z m -7.00551,8.82175 0,0.12973 0.12973,0 q 2.04327,-5.57846 6.35685,-7.7839 l 2.07571,-1.16758 0,-0.12974 -0.12974,0 q -5.0271,1.91355 -7.13524,5.83793 l -1.29731,3.11356 z m 6.61631,-8.69202 0,0.12973 0.25946,0 0,-0.12973 -0.25946,0 z m -1.29732,0.90812 0.90813,-0.3892 0,-0.12973 -0.12974,0 q -0.77839,0.2919 -0.77839,0.51893 z m 7.65417,-0.12973 0,0.12973 3.76222,0 0,-0.12973 -1.94598,-0.25947 -1.81624,0.25947 z m -10.11907,7.3947 0,0.12973 0.12973,0 q 0.94056,-2.98382 5.05954,-5.83792 3.01626,-1.68651 3.63249,-1.68651 l 0,-0.12973 -0.12974,0 q -3.27572,0.38919 -5.96765,3.24329 -1.71895,1.94597 -2.72437,4.28114 z m 15.17861,-7.52443 0,0.12973 1.55678,0.51892 0.12973,0 0,-0.12973 -1.55678,-0.51892 -0.12973,0 z m 2.59463,0 q 0,0.29189 0.64866,0.38919 l -0.3892,-0.38919 -0.25946,0 z m 0.90812,0 0,0.12973 0.3892,0.12973 0.12973,0 0,-0.12973 -0.3892,-0.12973 -0.12973,0 z m -14.01102,0.12973 q -3.24329,2.40003 -4.41087,4.54061 l 0.12973,0 q 1.97841,-3.0487 4.54061,-4.41088 l 0,-0.12973 -0.25947,0 z m 4.92981,0.12973 0,0.12973 0.38919,0 0,-0.12973 -0.38919,0 z m 0.77839,0.25946 0,0.12973 0.38919,0 0,-0.12973 -0.38919,0 z m 4.02168,0 0,0.12973 0.25946,0 0,-0.12973 -0.25946,0 z m -8.95149,1.94598 q 3.34059,-1.68651 4.80007,-1.68651 l 0,-0.12974 -0.38919,0 q -2.23787,0 -4.41088,1.81625 z m 6.09739,-1.81625 0,0.12974 1.94597,0 0,-0.12974 -1.94597,0 z m 3.24329,0 0,0.12974 0.90812,0.12973 0.12973,0 0,-0.12973 -0.51892,-0.12974 -0.51893,0 z m 4.67034,0.12974 0,0.25946 0.25946,0 -0.25946,-0.25946 z m -8.69202,0.25946 0,0.12973 0.25946,0 0,-0.12973 -0.25946,0 z m -1.03785,0.12973 0,0.12973 0.25946,0 0,-0.12973 -0.25946,0 z m 0.64866,0.3892 0,0.12973 0.25946,0 0,-0.12973 -0.25946,0 z m -0.3892,0.64865 0,0.12974 0.12973,0 2.59463,-0.25947 2.8541,0 0,-0.12973 -2.4649,-0.38919 q -0.90812,0 -3.11356,0.64865 z m -0.38919,-0.38919 0,0.12973 0.12973,0 0.38919,-0.12973 0,-0.12973 -0.12973,0 -0.38919,0.12973 z m -2.8541,0.25946 0,0.12973 0.12973,0 0.3892,-0.12973 0,-0.12973 -0.12974,0 -0.38919,0.12973 z m -4.67034,7.26498 0,0.12973 0.12973,0 q 0.0324,-2.07571 4.41088,-6.22712 1.36218,-1.03786 1.68651,-1.03786 l 0,-0.12973 -0.12973,0 q -2.30274,0.58379 -4.80007,4.02168 l -1.29732,3.2433 z m 6.09739,-6.87578 0,0.12973 0.12973,0 0.90812,-0.3892 0,-0.12973 -0.12973,0 -0.90812,0.3892 z m -11.41639,9.98933 q 0,7.8812 7.26497,12.45424 l 0.12974,0 q -3.40546,-2.95139 -4.28115,-4.80007 -0.84325,-2.0757 -1.16758,-2.0757 -0.64866,0 -1.16759,-4.67034 l 0,-1.29732 q 0,-5.05953 3.89195,-9.60014 l 0,-0.12973 q -4.67034,4.47574 -4.67034,10.11906 z m 5.96766,-7.13524 0.12973,0 q 2.2703,-2.52976 3.63249,-2.85409 l 0,-0.12973 -0.12974,0 q -2.23787,1.07028 -3.63248,2.98382 z m 6.87578,-2.98382 0,0.12973 0.25946,0 0,-0.12973 -0.25946,0 z m 7.26497,0.25946 0,0.12973 0.25946,0 0,-0.12973 -0.25946,0 z m 0.38919,0.12973 0,0.12973 0.3892,0 0,-0.12973 -0.3892,0 z m -9.72987,0.12973 -1.03785,0.90812 0.12973,0 q 0.87569,-0.77839 1.16758,-0.77839 l 0,-0.12973 -0.25946,0 z m 10.2488,0 0,0.12973 0.25946,0 0,-0.12973 -0.25946,0 z m -19.45975,9.34068 0,0.90812 q 0,3.89195 2.8541,7.52444 -2.4649,-4.05412 -2.4649,-8.04336 0,-4.96224 3.63248,-9.34068 -2.6595,2.40003 -3.37302,5.05953 -0.64866,2.14057 -0.64866,3.89195 z m 5.319,-8.95148 q -4.15141,3.92438 -4.15141,8.69202 l 0,0.64866 q 0,3.98924 2.85409,7.26497 -2.33517,-3.27573 -2.33517,-7.26497 l -0.12973,0 q 0,-5.1244 3.89195,-9.34068 l -0.12973,0 z m -5.319,0.77839 -0.25946,0.51892 0,0.12974 0.12973,0 0.25946,-0.51893 0,-0.12973 -0.12973,0 z m 6.09739,0.12973 q -3.76222,3.69735 -3.76222,8.17309 0.12973,2.04328 0.64866,3.63249 l -0.12973,0.64866 q 1.78381,3.63248 4.67034,4.9298 -4.41088,-3.85952 -4.41088,-9.08122 l 0,-0.51892 q 0,-4.02168 3.11356,-7.7839 l -0.12973,0 z m -6.74605,0.90812 0,0.25946 0.12973,0 0,-0.25946 -0.12973,0 z m -0.90812,1.81624 0,0.25947 0.12973,0 0,-0.25947 -0.12973,0 z m 6.87578,0.25947 -0.12973,0.38919 0,0.12973 0.12973,0 0.12973,-0.38919 0,-0.12973 -0.12973,0 z m -7.26497,0.77839 0,0.25946 0.12973,0 0,-0.25946 -0.12973,0 z m 3.37302,0.25946 0,0.25946 0.12973,0 0,-0.25946 -0.12973,0 z m -3.50276,0.12973 0,0.25947 0.12974,0 0,-0.25947 -0.12974,0 z m 6.87578,0 0,0.25947 0.12973,0 0,-0.25947 -0.12973,0 z m -6.09739,0.12973 0,0.25947 0.12974,0 0,-0.25947 -0.12974,0 z m 2.59464,0.12974 0,0.25946 0.12973,0 0,-0.25946 -0.12973,0 z m 3.37302,0.12973 0,0.25946 0.12973,0 0,-0.25946 -0.12973,0 z m -6.87578,0.12973 0,0.25946 0.12973,0 0,-0.25946 -0.12973,0 z m -0.12973,0.51893 0,0.25946 0.12973,0 0,-0.25946 -0.12973,0 z m 3.37302,0.12973 0,0.25946 0.12974,0 0,-0.25946 -0.12974,0 z m 2.59464,0.12973 0,0.25946 0.12973,0 0,-0.25946 -0.12973,0 z m 0.77839,0 0,0.25946 0.12973,0 0,-0.25946 -0.12973,0 z m -6.87578,0.38919 0,0.3892 0.12973,0 0,-0.3892 -0.12973,0 z m 3.37302,0.12973 0,0.25947 0.12973,0 0,-0.25947 -0.12973,0 z m 2.59464,0 0,0.25947 0.12973,0 0,-0.25947 -0.12973,0 z m 0.77839,0.12974 0,0.25946 0.12973,0 0,-0.25946 -0.12973,0 z m -0.3892,0.25946 0,0.25946 0.12973,0 0,-0.25946 -0.12973,0 z m -6.09739,0.25946 0,0.25947 0.12973,0 0,-0.25947 -0.12973,0 z m -0.38919,0.12973 0,0.51893 0.12973,0 0,-0.51893 -0.12973,0 z m 3.37302,0.12974 0,0.77839 0.12973,0 0,-0.77839 -0.12973,0 z m 3.37302,0.25946 0,0.51893 0.12974,0 0,-0.51893 -0.12974,0 z m -0.38919,0.25946 0,1.68651 0.12973,0 0,-1.68651 -0.12973,0 z m -6.09739,0.64866 0,0.64866 0.12973,0 0,-0.64866 -0.12973,0 z m 3.11356,0.64866 0,0.90812 q 0,4.05412 4.02168,8.82175 3.79465,2.46491 5.96766,2.46491 l 0.25946,0 0,-0.12974 q -2.14057,0 -7.52443,-5.05953 -2.59464,-3.56762 -2.59464,-7.00551 l -0.12973,0 z m 2.72437,0.77839 0,0.12973 q 0.32432,3.60005 3.63248,7.13524 2.43247,1.94598 4.54061,1.94598 l 0.12973,0 0,-0.12973 q -4.02168,-1.23246 -6.22712,-4.54061 -1.55678,-2.88653 -1.55678,-4.54061 l -0.51892,0 z m -5.7082,0.51893 0,0.12973 q 0,3.53519 3.76222,8.43256 4.76764,4.31357 8.30283,4.5406 l 0.77839,0.12974 0.25946,0 0,-0.12974 q -4.08655,-1.23245 -6.48658,-2.72436 -4.41088,-3.27573 -5.83793,-8.56229 0,-0.81082 -0.64866,-1.81624 l -0.12973,0 z m 6.09739,4.80007 q 1.36218,2.49733 3.76222,3.76222 2.69193,0.90812 3.63249,0.90812 l 0.25946,0 0,-0.12973 q -5.28657,-1.49192 -7.65417,-4.54061 z m -1.55678,1.68651 0,0.12973 q 4.37844,5.83793 8.69202,5.83793 l 0.25947,0 0,-0.12974 q -2.6595,0 -8.43256,-5.18926 0,-0.3892 -0.51893,-0.64866 z m 5.319,2.33517 0,0.12973 q 4.02168,2.07571 6.09739,2.07571 1.91354,0 5.96765,-2.07571 l 0,-0.12973 -0.12973,0 q -2.20544,1.03785 -4.80007,1.03785 l -2.33517,0 q -2.6595,0 -4.67034,-1.03785 l -0.12973,0 z m 3.63249,0.12973 0,0.12973 2.4649,0.3892 2.20543,-0.3892 0,-0.12973 -0.25946,0 -0.64866,0.12973 -1.42705,-0.12973 -1.03785,0.12973 -1.16758,-0.12973 -0.12973,0 z m 0.51892,0.51893 0,0.12973 0.25947,0 0,-0.12973 -0.25947,0 z m 3.50276,0 0,0.12973 0.25946,0 0,-0.12973 -0.25946,0 z m -4.15142,1.42705 0,0.12973 0.3892,0 0,-0.12973 -0.3892,0 z m 4.67034,0 0,0.12973 0.3892,0 0,-0.12973 -0.3892,0 z m -4.80007,2.33517 0,0.12973 0.3892,0 0,-0.12973 -0.3892,0 z"
         style="font-style:normal;font-variant:normal;font-weight:normal;font-stretch:normal;font-family:'STRING AND WIRE';-inkscape-font-specification:'STRING AND WIRE';text-align:center;letter-spacing:5.1258316px;text-anchor:middle;fill:none;stroke:#000000;stroke-width:0.04271527;stroke-linejoin:round;stroke-miterlimit:4;stroke-dasharray:none;stroke-opacity:1"
         id="path4242"
         inkscape:connector-curvature="0" />
      <path
         d="m 39.424493,977.15964 1.037853,0 q 2.691932,0 3.891949,3.76222 l 0,24.25974 -0.259463,0.2595 -0.129731,-0.1297 0,-17.38405 -0.129732,-7.26495 q -1.037853,-3.11356 -4.021681,-3.11356 -1.427049,0 -2.464902,1.03785 1.297317,0.12973 1.297317,0.38919 l 1.167585,-0.38919 q 2.659498,0 2.983828,3.11356 l 0,1.946 0.129731,0.3892 -0.129731,0.5189 0.129731,33.08155 -0.129731,0.1297 -0.129732,0 -0.259463,-0.2595 0,-32.17335 -0.129732,0 q -1.037853,1.4595 -1.037853,1.8162 l 0.129731,19.58945 -0.129731,0.1297 -0.129732,0 -0.259463,-0.2594 0,-19.20025 q -0.648658,0.3243 -0.648658,1.0378 l 0,36.45455 -0.259464,0.2595 -0.259463,-0.2595 0,-5.5784 -0.259463,-0.3892 -0.129732,-29.44905 0,-0.2595 -0.129732,0 q 0,0.3568 -1.55678,1.946 l -0.129731,8.692 0,17.64345 q 0,0.2595 -0.389195,0.2595 l 0,8.4326 -0.259464,0.2594 -0.259463,-0.2594 0,-33.47075 -0.518926,0.5189 0,11.93525 -0.259464,0.2595 -0.259463,-0.2595 0,-11.15685 -1.037853,1.1676 -0.129732,23.87055 -0.129732,0.1297 -0.129731,0 -0.129732,-0.1297 0,-23.09215 -1.037853,1.1676 0,9.47035 -0.259463,0.2594 -0.259464,-0.2594 0,-8.82175 -0.129731,0 q -5.091968,6.84335 -7.524436,8.95145 -2.529768,0.6811 -2.594634,1.1676 -1.459481,0.7784 -2.464901,0.7784 -2.497334,0 -4.800071,-3.7622 l -6.3568513,-8.30285 0,0.1298 q -1.1675849,28.28145 -2.8540964,28.28145 l -0.1297317,0 q -0.8108228,0 -1.2973165,-5.838 l -0.1297317,0 q -0.6810912,7.265 -1.4270482,7.265 l -0.2594633,0 q -2.04327358,0 -3.24329139,-44.23843 0,-1.45948 2.46490149,-2.59463 1.5567798,-0.0973 1.5567798,-0.64866 1.3297495,-0.90812 2.2054382,-0.90812 l 0.5189266,0 q 1.8486761,0 5.1892664,4.67039 l 10.637996,12.7137 q 10.410965,-14.0435 12.713702,-16.2165 0.810823,-0.51893 2.335169,-0.77839 1.297317,-1.29732 2.594634,-1.29732 z m -36.0654005,2.4649 0.9081216,0.25947 q 0.6162253,-0.64866 1.4270482,-0.64866 1.5243469,0 4.4108767,4.2811 l 10.767727,13.1029 0.518927,-0.9081 Q 8.0942979,979.55968 7.2510421,978.84615 l -1.6865115,-0.38919 q -2.2054381,0.51892 -2.2054381,1.16758 z m 33.4707665,-0.64866 -0.778389,1.16759 1.037853,-0.12973 0.389195,0.12973 0.648658,-0.90812 0,-0.12973 -1.297317,-0.12974 z m -14.91914,16.86507 0.77839,0.7784 9.989338,-13.1029 2.983828,-3.63244 0.518926,-0.77839 -0.259463,0 q -1.55678,0 -5.708193,5.96763 l -8.302826,10.7677 z m 17.384042,-16.73533 0,0.25946 q 1.945975,1.26488 1.945975,3.50277 l 0,0.5189 0.259463,0.2595 0.389195,-0.2595 0,0.1297 -0.648658,0.9082 0,0.6486 q 0.648658,0 1.167585,-0.6486 l 0,-1.81628 q 0,-3.50275 -2.464902,-3.50275 l -0.648658,0 z m -0.77839,0.38919 -0.648658,0.77839 q 0.648658,0 1.427048,1.29732 l 0.129732,0 0.518926,-0.3892 0.259464,0.25947 0,2.33516 0.389194,0 0.259464,-0.2595 q 0,-3.27568 -2.33517,-4.02164 z m -33.9896936,0.51893 2.4649014,2.59463 0.1297317,0 0.1297316,-0.51893 0.1297317,0 0.1297316,0.12973 0.1297317,0 0,-0.51892 0.2594633,0 0,0.25946 -0.1297317,1.55674 q 0.389195,0 0.77839,-1.42701 -1.7513774,-2.33517 -2.8540964,-2.33517 l -0.2594633,0 -0.9081216,0.25947 z m -4.92980292,2.72441 q 0,8.8217 1.68651152,35.93555 l 0.1297316,0 0,-0.6486 q -0.64865823,-14.6597 -1.03785319,-32.43295 -0.25946331,0 -0.25946331,-0.5189 l 0.12973165,0.1298 0.12973166,0 0,-2.4649 q 0,-1.36223 1.94597479,-2.07575 l 0.2594633,-0.77839 -0.1297316,0 q -2.85409642,0.61622 -2.85409642,2.85414 z m 3.37302302,-2.72441 -0.1297316,0.64866 0.6486582,0.25946 0.389195,-0.77839 -0.6486583,-0.12973 -0.2594633,0 z m 1.2973166,0.38919 -0.2594634,0.77839 1.4270483,1.55683 0,-0.77844 q 0,-0.68109 -1.1675849,-1.55678 z m 28.8004269,3.37302 q 0.356763,1.1676 0.648659,1.1676 l 0.648658,-1.6865 0.259463,0 0,0.3892 0.129732,0 2.33517,-3.11359 -0.518927,0 q -1.232451,0 -3.373023,3.24329 l -0.129732,0 z m 4.410877,-3.11355 -1.297317,1.81624 0.129732,0.51891 0.518926,-0.38918 0.129732,0.12978 0.129732,0 0,-1.0379 0.259463,0 0,0.64866 0.129732,0 0,-0.25947 0.259463,0 0.389195,1.03781 0.129732,0 0.77839,-0.90808 q -0.32433,-1.55677 -1.55678,-1.55677 z m -36.71405863,2.46485 0.12973166,1.6866 0,0.3892 q 0,0.3891 1.03785327,0.5189 l -0.77839,-1.1676 0,-0.1297 0.1297317,0.1297 0.1297316,0 0,-0.2595 0.1297317,0 0.7783899,0.2595 0,-0.1297 -0.1297316,-3.24333 -0.1297317,0 q -1.29731653,0.64866 -1.29731653,1.94593 z m 1.94597483,-1.94593 0,1.42705 q 0.4864937,0.74598 0.7783899,0.77838 l 0,-2.0757 -0.6486582,-0.12973 -0.1297317,0 z m 1.1675849,0.51893 0,1.8162 0.2594633,0.2595 0.1297317,-0.5189 -0.1297317,-0.3892 0.5189266,0 0.1297317,0.1297 0.1297316,0 0,-0.1297 -1.0378532,-1.1676 z m 2.0757065,0.64866 0,0.77834 0.2594633,0 0.2594633,-0.2594 -0.5189266,-0.51894 z m 2.7243647,0 0,0.25946 0.1297317,0 0,-0.25946 -0.1297317,0 z m 29.9680127,1.16754 0.648658,0.2595 0,-1.0378 -0.648658,0.7783 z m -31.3950609,-0.6486 0,0.2594 0.1297317,0 0,-0.2594 -0.1297317,0 z m 1.8162432,0 -0.1297317,2.3352 q 7.1028084,8.4001 10.5082644,12.8434 l 0.129731,0 0.908122,-1.0379 0,-0.1297 -11.4163857,-14.011 z m 25.8165997,1.1676 0,0.1297 0.389195,0.3892 q 0.389195,-0.4865 0.389195,-0.9081 l 0,-0.519 -0.77839,0.9082 z m 2.724364,-0.9082 0,0.7784 0.389195,-0.3892 -0.389195,-0.3892 z m -31.5247918,0.519 0.5189267,0.6486 q 0.6486582,-0.1621 0.6486582,-0.3892 l -0.2594633,-0.5189 -0.9081216,0.2595 z m 1.9459749,0.3892 0.5189266,0.5189 0,-1.1676 -0.5189266,0.6487 z m -3.6324864,-0.519 0,0.2595 0.1297317,0 0,-0.2595 -0.1297317,0 z m -1.5567798,0.1298 0,0.9081 0.3891949,0 0.2594633,-0.2595 -0.6486582,-0.6486 z m 2.3351697,0 0.2594634,0.2594 0,-0.2594 -0.2594634,0 z m 31.1355974,0.2594 -0.259463,0.3892 0,0.9082 0.518926,0 0,-1.0379 -0.259463,-0.2595 z m 1.945975,0 -0.518927,0.7784 0.389195,0.2595 0.389195,-0.1297 0.129732,0.1297 0.259463,-0.2595 0,0.1298 -0.259463,0.3892 0.648658,0.1297 0,-1.1676 -1.037853,-0.2595 z m -33.4707673,0.1298 0,0.1297 0.2594633,0.2595 0.1297316,0 -0.3891949,-0.3892 z m 35.4167423,0.2594 0,0.6487 0.129731,0 0.518927,-0.7784 -0.129732,0 -0.518926,0.1297 z m -33.2113042,0.3892 q 0.1945975,0.519 0.389195,0.519 l 0,-0.7784 -0.389195,0.2594 z m 0.7783899,-0.1297 0,1.1676 0.5189267,0.7784 0.1297316,0 0.1297317,-0.6487 q 0,-0.3568 -0.6486583,-1.2973 l -0.1297317,0 z m 26.7247213,0 0,0.9081 0.129731,0 0.259464,-0.5189 -0.389195,-0.3892 z m -11.546118,12.584 q 0.648659,0.3567 0.648659,0.7784 l 0.129731,0 8.821753,-11.5462 0,-1.6865 -9.600143,12.4543 z M 6.0834572,984.81385 q 0.9729874,1.5243 1.2973166,1.6865 l 0,-0.519 -1.0378533,-1.1675 -0.2594633,0 z m 26.8544528,0 0,0.9081 0.389195,-0.2595 -0.259464,-0.6486 -0.129731,0 z m -30.0977441,0.2594 0,0.7784 0.6486582,-0.1297 0,-0.7784 -0.6486582,0.1297 z m 2.0757064,0.2595 q 0.2594633,0.5838 0.5189267,0.6486 l 0,-1.0378 -0.5189267,0.3892 z m 35.6762047,-0.1297 0,0.1297 0.259464,0 0,-0.3892 -0.259464,0.2595 z m -38.5303011,-0.1298 0.2594633,0.2595 0,-0.2595 -0.2594633,0 z m 1.9459748,0.1298 0,0.2594 0.2594634,0 -0.2594634,-0.2594 z m 31.1355973,0.1297 -0.518927,0.7784 0.908122,0.3892 0,-1.1676 -0.389195,0 z m 6.097388,0.2594 0,0.3892 0.518926,-0.5189 -0.129731,0 -0.389195,0.1297 z m -35.2870104,0 0,1.1676 1.2973165,1.5568 0,-1.1676 -1.2973165,-1.5568 z m 30.0977444,0 0,0.3892 0.129731,0 0,-0.3892 -0.129731,0 z m 2.205438,0 -0.648659,0.9082 0,0.2594 q 1.686512,-0.5513 1.686512,-0.9081 l 0,-0.1297 -1.037853,-0.1298 z m -5.318998,1.0379 0,0.7784 1.037853,-1.2973 q -0.259463,0 -0.259463,-0.3892 -0.227031,0 -0.77839,0.9081 z m 7.264973,-0.7784 0,1.4271 q 0.648658,-0.3244 0.648658,-1.0379 l 0,-0.5189 -0.648658,0.1297 z m -36.1951323,0.1297 0,1.6866 0.2594634,0.2594 0,-1.946 -0.2594634,0 z m 0.6486583,0 0,2.2055 q 0,0.7135 0.6486583,1.0378 l 0.1297317,-1.5567 0,-0.7784 -0.77839,-0.9082 z m -3.373023,0.1298 1.0378532,1.2973 0,-0.9081 q 0,-0.2595 -1.0378532,-0.3892 z m 7.6541676,0 0,1.0378 9.8596054,12.0651 0.259464,-0.2595 q -5.286565,-6.9731 -10.1190694,-12.8434 z m -5.9676561,0.1297 0.5189266,0.6487 0,-0.6487 -0.5189266,0 z m 33.2113035,0.3892 0,0.1297 0.389195,0 0,-0.5189 -0.389195,0.3892 z m -35.28700997,-0.2595 0,0.1298 q 0,11.7731 1.29731657,36.58425 l 0.1297316,0 0,-34.50855 q 0,-0.3568 -1.2973165,-2.2055 l -0.12973167,0 z m 6.87577767,0.1298 0,0.6486 0.6486583,0.7784 0,-0.6486 -0.6486583,-0.7784 z m 26.7247213,0 0,1.427 q 0.22703,-0.032 0.77839,-1.0378 l -0.77839,-0.3892 z m -31.6545241,0.3892 0,1.2973 0.6486582,1.0378 0.1297317,0 0,-1.2973 -0.6486583,-1.0378 -0.1297316,0 z m 34.7680831,0.2594 0,1.0379 0.129732,0 0.908122,-1.2973 -0.129732,0 -0.908122,0.2594 z m 0,1.8163 0,1.5568 q 1.686512,-1.6541 1.686512,-2.3352 l 0,-1.2973 -1.686512,2.0757 z m -4.670339,-0.6487 0,1.5568 1.037853,-1.2973 0,-1.5568 -1.037853,1.2973 z m -8.951484,9.8596 0.129731,0.3892 8.432558,-10.638 0,-0.7784 -8.562289,11.0272 z m 12.065044,-11.0272 0,0.519 0.389195,-0.519 -0.389195,0 z m -1.55678,1.6865 0,0.7784 1.037853,-1.2973 0,-0.7784 -1.037853,1.2973 z m -28.5409644,-1.1675 0,2.2054 q 0,0.6487 1.2973165,1.946 l 0,-2.2055 q 0,-0.6486 -1.2973165,-1.9459 z m 1.8162431,0.2594 -0.1297316,1.0379 0.7783899,0.7784 0,-1.0379 -0.6486583,-0.7784 z m 1.1675849,0 -0.1297316,0.1297 0,0.3892 q 8.140661,10.8651 9.210948,11.93535 l 0.389194,-0.64865 0,-0.1297 -9.4704104,-11.6759 z m 27.1139164,0.5189 0,1.6866 0.129731,0 0.389195,-0.6487 0,-1.5568 -0.518926,0.5189 z m -32.0437193,0 0,1.0379 0.2594634,-0.2595 0,-0.5189 -0.2594634,-0.2595 z m 20.6273333,10.3786 0,0.2594 0.648658,0.6487 7.264973,-9.3407 0,-1.5568 -7.913631,9.9894 z m -21.6651865,-9.6002 0,0.1298 0.6486583,17.12445 0.1297316,0 0.1297317,-4.2811 -0.2594633,-12.32445 -0.389195,-0.5189 -0.1297316,-0.1298 -0.1297317,0 z m 31.5247925,1.1676 0,1.6865 0.129731,0 0.908122,-1.2973 0,-1.5568 -1.037853,1.1676 z m -29.838281,-1.0378 0,1.2973 0.6486583,0.7784 0,-1.2973 -0.6486583,-0.7784 z m 4.151413,0 0,1.0378 8.562289,10.76765 0.259464,-0.5189 -8.6920214,-11.28655 -0.1297316,0 z m 25.038209,0.1297 -0.908121,1.2973 0,0.7784 q 1.037853,-0.9081 1.037853,-1.5568 l 0,-0.5189 -0.129732,0 z m -26.2057939,0.3892 0,2.2054 0.5189266,1.1676 0.1297317,0 0,-2.2054 -0.5189267,-1.1676 -0.1297316,0 z m 28.8004279,0.3892 -0.389195,0.6486 0,1.5568 q 0.518926,-0.227 0.518926,-0.9081 l 0,-1.2973 -0.129731,0 z m -30.4869394,0.7784 0,1.2973 1.0378532,1.5568 0.1297317,0 0,-1.4271 -1.1675849,-1.427 z m 26.9841844,1.2973 0,1.5568 1.037853,-1.1676 0,-1.5568 -1.037853,1.1676 z m -0.518927,-1.0379 -6.875778,8.95145 0.389195,0.2595 6.616315,-8.43255 0,-0.7784 -0.129732,0 z m -27.8923056,0.1298 -0.1297317,10.50815 0.1297317,5.0596 0.1297316,0 0.5189266,-15.04885 q -0.3243291,0 -0.3891949,-0.5189 l -0.2594633,0 z m 4.2811446,0 -0.1297317,0.6486 0,1.6865 q 9.2433807,12.22725 9.7298737,12.58395 0.486494,0.3892 1.167585,0.3892 l 0.389195,0 0.648659,-0.1297 0,-0.1298 q -1.524347,-1.1675 -6.356851,-7.91355 l -5.3189984,-7.1352 -0.1297316,0 z m 26.594989,0.1297 -0.908121,1.2973 0,1.5568 q 1.037853,-0.9081 1.037853,-1.5568 l 0,-1.2973 -0.129732,0 z m -2.983828,1.2973 -9.859606,12.45425 0.389195,0 q 1.362183,0 3.243292,-2.9839 6.227119,-7.42705 6.227119,-7.91355 l 0.129732,-1.427 0,-0.1298 -0.129732,0 z m -26.4652574,0.3892 0,27.89225 0.1297316,0 q 0.6486583,-10.7028 1.0378533,-26.59495 l -1.1675849,-1.2973 z m 1.6865115,0 -0.1297317,1.2973 0.6486583,0.6487 0,-1.2973 -0.5189266,-0.6487 z m 26.2057939,0.2595 -0.908121,1.2973 0,1.5568 q 1.037853,-0.9081 1.037853,-1.5568 l 0,-1.2973 -0.129732,0 z m -25.1679407,1.0378 -0.1297316,1.4271 9.0812163,11.67575 1.686511,0.519 0.77839,0 q 1.135152,0 2.205438,-1.0379 l -1.297316,-0.2595 q -0.648659,0.3892 -1.297317,0.3892 -1.816243,0 -4.540608,-4.4108 -2.432468,-2.8217 -6.356851,-8.30285 l -0.1297317,0 z m -1.1675849,0.7784 0,0.1298 q 0,6.81085 -0.7783899,21.79485 l 0,0.6486 0.1297317,0 1.2973165,-21.92455 -0.389195,-0.5189 -0.1297316,-0.1298 -0.1297317,0 z m 24.7787466,0.1298 q 0,0.2594 -8.951485,11.15685 l 0,0.1297 0.129732,0 q 1.654079,0 6.746046,-7.00545 l 2.205438,-2.7244 0,-1.5567 -0.129731,0 z m -11.156923,1.427 0,0.1297 0.648659,0.6487 0.518926,-0.6487 0,-0.1297 -0.518926,-0.7784 -0.648659,0.7784 z m -0.389195,0.3892 -0.77839,1.1676 0,0.1297 0.648659,0.6487 0.129731,0 0.77839,-1.1676 -0.77839,-0.7784 z m 1.945975,0.1297 -0.518927,0.7784 q 0.194598,0.5189 0.648659,0.7784 0.518926,-0.5838 0.518926,-0.9081 l -0.648658,-0.6487 z m -0.908121,1.1676 -0.648659,0.9081 0.259464,0 0.908121,-0.2594 q -0.259463,-0.5838 -0.518926,-0.6487 z m 1.816243,0 -0.389195,0.6487 0.389195,0 0.389195,-0.3892 -0.389195,-0.2595 z m -4.540608,1.0379 0.648658,0.77835 0.129732,0 0.129731,-0.51895 q -0.518926,-0.2594 -0.518926,-0.6486 l -0.389195,0.3892 z m 5.059534,-0.2595 0,0.1297 0.259464,0 0,-0.1297 -0.259464,0 z m -2.983828,0.77835 0.518927,0.3892 0.518926,-0.77835 -0.259463,0 q -0.77839,0.1297 -0.77839,0.38915 z m 1.55678,-0.38915 -0.518927,0.77835 0,0.1297 0.259464,0 0.648658,-0.64855 -0.389195,-0.2595 z m 1.167585,0 -0.259463,0.38915 0.77839,0.7784 0.389195,-0.7784 -0.129732,0 -0.77839,-0.38915 z m -21.0165281,0.1297 0,23.09225 0.1297316,0 0.5189266,-11.4164 -0.5189266,-11.67585 -0.1297316,0 z m 15.8272621,0.1298 -0.518927,0.77835 0.129732,0.1297 1.037853,-0.2595 -0.648658,-0.64855 z m -13.3623607,0.25935 -0.5189266,12.584 0.5189266,9.2109 0.1297317,0 0,-21.7949 -0.1297317,0 z m 17.5137737,3.2433 -1.037853,-1.0378 -1.167585,1.5567 q 0.940554,1.0703 1.297316,1.1676 l 0.129732,0 3.632486,-4.5406 -0.259463,-0.2594 -2.594633,3.1135 z m 0.389195,-2.9838 0,0.1297 0.259463,0 0,-0.1297 -0.259463,0 z m -0.389195,0.5189 -0.518927,0.7784 0.129732,0.3892 -0.129732,0.1297 0.518927,0.3892 q 1.037853,-0.9405 1.037853,-1.427 l -1.037853,-0.2595 z m -4.281145,0.1297 0.389195,0.3892 0.129732,-0.3892 -0.518927,0 z m 1.037853,0 -0.389195,0.6487 0,0.2595 1.167585,0 0,-0.1298 -0.518926,-0.7784 -0.259464,0 z m 0.77839,0 0,0.1298 0.908122,1.0378 0.259463,-0.2594 q -0.259463,-0.5514 -0.77839,-0.9082 l -0.389195,0 z m -2.594633,0.3892 0,0.1298 0.518927,0.6486 0.259463,-0.3892 -0.389195,-0.5189 -0.389195,0.1297 z m 1.816243,0.9082 0,0.1297 0.77839,0.9081 0.518927,-0.7784 -1.167585,-0.2594 -0.129732,0 z m -0.908121,0.3892 1.037853,1.2973 0.259463,-0.2595 q -0.45406,-0.8757 -1.037853,-1.2973 l -0.259463,0.2595 z m 0.908121,2.0757 q 0.648659,1.0378 1.55678,1.427 l 0.648659,-0.7784 q -0.486494,-0.097 -1.427049,-1.1676 l -0.77839,0.519 z m 2.594633,0.7784 -0.648658,0.9081 0.908122,0.1297 0.129731,0 q 0.55136,-0.3243 0.77839,-0.9081 l -1.167585,-0.1297 z m -18.0326996,4.0216 -0.1297317,0.9082 0,1.6865 0.1297317,0.9081 0.1297317,0 0,-3.5028 -0.1297317,0 z m -0.389195,6.2272 -0.1297316,3.1135 0,0.5189 0.1297316,0 0.1297317,-2.2054 0,-1.427 -0.1297317,0 z m 0.6486583,0.2594 0,1.4271 0.1297317,0 0,-1.4271 -0.1297317,0 z m 0.1297317,1.6865 0,0.9082 0.1297316,0 0,-0.9082 -0.1297316,0 z m 2.0757065,0.6487 0,0.5189 0.1297316,0 0,-0.5189 -0.1297316,0 z m -5.1892663,0.2595 0,1.1675 0.1297317,0 0,-1.1675 -0.1297317,0 z m 3.2432914,1.0378 0,0.2595 0.1297317,0 0,-0.2595 -0.1297317,0 z m -1.1675849,0.5189 0,0.3892 0.1297317,0 0,-0.3892 -0.1297317,0 z m -1.9459748,0.3892 0,0.3892 0.1297317,0 0,-0.3892 -0.1297317,0 z"
         style="font-style:normal;font-variant:normal;font-weight:normal;font-stretch:normal;font-family:'STRING AND WIRE';-inkscape-font-specification:'STRING AND WIRE';text-align:center;letter-spacing:5.1258316px;text-anchor:middle;fill:none;stroke:#000000;stroke-width:0.04271527;stroke-linejoin:round;stroke-miterlimit:4;stroke-dasharray:none;stroke-opacity:1"
         id="path4244"
         inkscape:connector-curvature="0" />
      <path
         d="m 56.29104,980.79213 3.11356,0 q 3.632486,0.51892 3.632486,2.33512 l 0,0.1298 -0.259463,0.2594 q 0,-1.52431 -2.205438,-2.33513 1.167585,1.26489 1.167585,2.46493 l -0.389195,0.1297 0.129731,0.9081 0,0.1298 -0.259463,0.2594 -0.259463,-1.946 -0.129732,0 q 0,0.3892 -0.389195,0.3892 l 0.129732,0.6487 0,1.2973 -0.259464,0 q -0.194597,-3.7622 -0.908121,-3.7622 l -0.129732,0 0,0.12973 0.129732,1.94597 -0.259463,0.2595 0,1.5567 -0.259464,0.2595 -0.129731,-0.1297 0,-1.5568 q 0,-0.8108 -0.518927,-2.20544 l -0.129732,0 -0.129731,0.51893 q 0.389195,1.29731 0.389195,2.98381 l -0.259464,0 -0.129731,-1.5568 0,-0.5189 -0.259464,0.2595 0,0.9081 -0.129731,0.9081 -0.259464,0 0,-0.1297 q 0,-1.5568 0.389195,-2.98384 l -0.129731,-0.3892 -0.129732,0 q -0.518927,1.29734 -0.518927,2.20544 l 0,1.427 -0.259463,0.2595 -0.129732,-0.1297 0,-1.6865 -0.259463,-0.3892 0.129732,-1.946 -0.129732,0 q -0.908121,0.55136 -0.908121,3.7622 l -0.259464,0 0,-1.2973 0.129732,-0.6487 -0.518927,-0.2594 q -0.0973,1.8162 -0.389195,1.8162 l -0.129731,-0.1297 0.129731,-0.6487 0,-0.5189 q -0.389195,0 -0.389195,-0.2595 0,-1.07024 1.167585,-2.33513 l -0.129731,0 q -2.075707,0.90812 -2.075707,2.33513 l -0.129732,0 -0.129731,-0.1297 0,-0.2595 q 0,-1.8162 3.632486,-2.33512 z m 0,0.25946 0,0.25946 0.129732,0 0,-0.25946 -0.129732,0 z m 2.983828,0 0,0.25946 0.129732,0 0,-0.25946 -0.129732,0 z m -0.77839,0.12973 0,0.12973 0.259464,0.25947 0,-0.12973 -0.259464,-0.25947 z m -1.55678,0.12973 0,0.25947 0.389195,-0.12973 0,-0.12974 -0.389195,0 z m -1.816243,0.90812 0,0.12974 0.129732,0 0.518927,-0.77839 0,-0.12973 -0.648659,0.77838 z m 4.800072,-0.77838 0,0.12973 0.518926,0.77839 0.129732,0 0,-0.25947 -0.648658,-0.64865 z m -2.205439,0.12973 0,0.25946 0.259464,0 -0.259464,-0.25946 z m 3.11356,0.51892 0,0.25947 0.129732,0 0,-0.25947 -0.129732,0 z m -3.89195,0.12973 0,0.25947 0.129732,0 0,-0.25947 -0.129732,0 z m 1.686512,0 0,0.25947 0.129732,0 0,-0.25947 -0.129732,0 z m -4.021681,0.25947 0,0.25951 0.129731,0 0,-0.25951 -0.129731,0 z m 6.486582,0.25951 0,0.2594 0.129732,0 0,-0.2594 -0.129732,0 z m -4.410876,7.9136 q 0.583793,0 1.167585,0.5189 l 0.77839,-0.5189 0.389195,0 q 2.918962,0 3.89195,13.88125 l 0.129731,2.7243 0,2.0757 -0.259463,0.2595 -0.129732,-0.1297 0,-1.4271 q 0,-10.34605 -2.594633,-16.34615 l -0.129731,0 0,0.1298 q 1.816243,5.9028 1.816243,19.45965 l -0.389195,0.1297 0.129731,9.3407 0,0.6487 -0.259463,0.2594 -0.129732,-0.1297 0,-4.8001 -0.129731,-9.7298 -0.129732,0 0,2.4649 -0.389195,0.1297 0.129732,4.1514 0,10.7677 -0.259464,0 0,-0.1297 q 0,-22.5084 -0.908121,-27.76255 l -0.129732,0 0,0.7784 0.129732,13.36235 -0.259463,3.5027 0,2.5947 0.129731,4.0217 -0.129731,3.6324 0,1.6866 -0.259464,0.2594 -0.129731,-0.1297 0,-14.1408 q 0,-4.7676 -0.518927,-12.84335 l -0.129732,0 -0.129731,2.72435 q 0.389195,8.692 0.389195,20.6273 l 0,1.8162 -0.259464,0 -0.129731,-11.2866 0,-1.6865 -0.129732,-1.5568 -0.129732,0 0,1.0379 -0.129731,13.492 -0.259464,0 0,-0.1297 q 0,-12.4218 0.389195,-22.0544 l -0.129731,-3.37295 -0.129732,0 0,1.55675 -0.259463,0 0,-0.90805 -0.129732,0 0.129732,1.16755 0.129731,0 0,1.5567 -0.259463,0 0,-1.0378 -0.129732,0 0.129732,1.2973 0.129732,0 -0.259464,10.2488 0,13.3624 -0.259463,0.2594 -0.129732,-0.1297 0,-12.0651 -0.259463,-3.6324 0.129732,-13.36235 0,-0.7784 -0.129732,0 q -0.908121,5.15675 -0.908121,28.02195 l -0.259464,0 0,-7.1352 0.129732,-7.7839 q -0.389195,0 -0.389195,-0.2595 l 0,-2.5946 -0.259463,0 0,-1.2973 -0.129732,0 0.129732,1.6865 0.129731,0 -0.129731,9.7299 0,4.5406 -0.259464,0.2594 -0.129731,-0.1297 0,-0.1297 0.129731,-8.9515 0,-1.0379 q -0.389195,0 -0.389195,-0.2594 0,-13.52445 1.816244,-19.32995 l 0,-0.1298 -0.129732,0 q -2.594633,5.8704 -2.594633,17.12455 l 0,0.5189 -0.259464,0.2595 -0.129731,-0.1297 0,-1.8163 q 0.713524,-16.99475 4.021681,-16.99475 z m 1.037853,1.2973 0,0.1297 0.259464,0 0,-0.1297 -0.259464,0 z m 0.908122,0.3892 0,0.5189 0.129732,0 0,-0.5189 -0.129732,0 z m -1.686512,0.1297 0,0.2595 0.129732,0 0,-0.2595 -0.129732,0 z m -0.648658,0.519 -0.129731,2.0757 0,0.2594 0.129731,0 0.129732,-1.1676 0,-1.1675 -0.129732,0 z m 2.983828,0.1297 0,1.1676 0.129732,1.0378 0.129732,0 0,-0.3892 -0.129732,-1.8162 -0.129732,0 z m 0.389195,0.1297 0,0.5189 0.129732,0 0,-0.5189 -0.129732,0 z m -3.762218,0.2595 0,0.2594 0.129732,0 0,-0.2594 -0.129732,0 z m 1.167585,0.1297 -0.129732,0.9081 0,2.0757 0.129732,0 q 0.03243,-1.8162 0.259463,-1.8162 l -0.129731,-1.1676 -0.129732,0 z m 1.427048,0 0,0.6487 0.129732,2.3351 0.129732,0 0,-2.0757 -0.129732,-0.9081 -0.129732,0 z m 1.297317,0.3892 0,0.3892 0.648658,7.39465 0.129732,0 0,-0.6487 -0.648658,-7.13515 -0.129732,0 z m -4.021681,0.1297 q -0.648659,5.7082 -0.648659,7.52445 l -0.259463,0 0,-1.0379 -0.129732,0 0.129732,1.4271 0.129732,0 0,1.5567 0.129731,0 0.77839,-9.08115 0,-0.3892 -0.129731,0 z m -0.518927,1.5568 0,0.2595 0.129732,0 0,-0.2595 -0.129732,0 z m 2.464901,0.6487 0,1.0378 0.129732,0.6487 0.129732,0 0,-1.0379 -0.129732,-0.6486 -0.129732,0 z m -2.594633,0.2594 0,0.519 0.129732,0 0,-0.519 -0.129732,0 z m 3.11356,0.2595 0,0.2595 0.129732,0 0,-0.2595 -0.129732,0 z m -0.908122,0.1297 0,0.519 0.129732,0 0,-0.519 -0.129732,0 z m 3.243292,0.519 0,0.5189 0.129731,0 0,-0.5189 -0.129731,0 z m -2.205438,0.2594 0,0.7784 0.129731,0 0,-0.7784 -0.129731,0 z m -3.373023,0.1298 0,0.3892 0.129731,0 0,-0.3892 -0.129731,0 z m 2.205438,0.3892 0,0.6486 0.129731,0 0,-0.6486 -0.129731,0 z m 3.502754,0.5189 0,0.9081 0.129732,0 0,-0.9081 -0.129732,0 z m -5.837924,0.3892 0,0.90805 0.129732,0 0,-0.90805 -0.129732,0 z m 3.632486,0.1297 0,1.03785 0.129732,0 0,-1.03785 -0.129732,0 z m 2.33517,1.03785 0,1.2973 0.129732,0 0,-1.2973 -0.129732,0 z m -2.205438,0.3892 0,1.5567 0.129732,0 0,-1.5567 -0.129732,0 z m 1.945975,1.427 0,1.427 0.129731,0 0,-1.427 -0.129731,0 z m 0.389195,0 0,1.6865 0.129731,0 0,-1.6865 -0.129731,0 z m -6.356851,0.5189 0.129731,1.6865 0.129732,0 0,1.2974 0.129732,0 -0.129732,-1.6866 -0.129732,0 0,-1.2973 -0.129731,0 z m 6.097387,1.5568 0,1.4271 0.129732,0 0,-1.4271 -0.129732,0 z m 0.389195,0.7784 0,1.427 0.129732,0 0,-1.427 -0.129732,0 z"
         style="font-style:normal;font-variant:normal;font-weight:normal;font-stretch:normal;font-family:'STRING AND WIRE';-inkscape-font-specification:'STRING AND WIRE';text-align:center;letter-spacing:5.1258316px;text-anchor:middle;fill:none;stroke:#000000;stroke-width:0.04271527;stroke-linejoin:round;stroke-miterlimit:4;stroke-dasharray:none;stroke-opacity:1"
         id="path4246"
         inkscape:connector-curvature="0" />
      <path
         d="m 75.038692,980.79213 0.648658,0 0.77839,0.64866 q 0.681091,-0.64866 1.167585,-0.64866 2.951395,0 4.021681,18.94082 l 0,4.80005 -0.259463,0.2594 -0.129732,-0.1297 0,-0.9081 q 0,-13.71905 -2.464901,-21.40569 l -0.129732,0 0,0.25946 q 1.686512,8.20548 1.686512,24.51923 l -0.389195,0.1297 0.129731,12.8435 -0.129731,0.1297 -0.129732,0 -0.129732,-0.1297 0,-6.2272 -0.129731,-12.3245 -0.129732,0 0,3.1136 -0.389195,0.1297 0.129732,6.7461 0,12.5839 -0.259464,0 0,-0.1297 q 0,-29.05985 -0.908121,-35.67615 l -0.129732,0 0,1.0379 0.129732,16.99475 -0.259463,4.4109 0,5.9676 0.129731,2.8541 -0.129731,2.7244 0,3.892 -0.259464,0.2594 -0.129731,-0.1297 0,-18.0327 q 0,-6.3893 -0.518927,-16.47585 l -0.129732,0 -0.129731,3.6325 q 0.389195,11.02705 0.389195,27.37325 l 0,1.2973 -0.259464,0 -0.129731,-14.9191 0,-1.427 -0.129732,-2.5947 -0.129732,0 0,1.2973 -0.129731,17.6435 -0.259464,0 0,-0.1297 q 0,-16.411 0.389195,-28.15175 l -0.259463,-4.8 -0.129732,-0.5189 -0.129731,0 0,0.7783 0.259463,0 0,1.1676 -0.259463,0 0,-0.3892 -0.129732,0 0,1.5568 0.259463,0 0,0.9081 -0.259463,0 0,-0.2594 -0.129732,0 0,1.6865 0.259464,0 -0.259464,9.47035 0,20.7571 -0.259463,0.2594 -0.129732,-0.1297 0,-15.5678 -0.259463,-4.5406 0.129732,-17.12455 0,-0.7784 -0.129732,0 q -0.908121,6.5515 -0.908121,34.89775 l 0,0.9081 -0.259464,0 0,-9.3406 0.129732,-9.9894 q -0.389195,0 -0.389195,-0.2594 0,-6.61625 1.037853,-18.81105 l 0,-0.6487 -0.129732,0 -0.129731,2.2055 -0.129732,0 -0.129731,-0.1298 -0.129732,0 0,0.3892 0.259463,0 0,1.0379 -0.259463,0 0,-0.2595 -0.129732,0 0,0.7784 0.259464,0 0,0.7784 -0.259464,0.2595 -0.129731,-0.1298 0,0.519 0.259463,0 0,1.427 -0.259463,0 0,-0.3892 -0.129732,0 0,1.2973 0.259463,0 0,1.0379 -0.259463,0 0,-0.3892 -0.129732,0 0,1.6865 0.259464,0 0,1.1676 -0.259464,0 0,-0.3892 -0.129731,0 0,2.3352 0.259463,0 0,1.2973 -0.259463,0 0,-0.3892 -0.129732,0 0,2.59455 0.259463,0 -0.129731,7.1352 0,11.0272 -0.259464,0.2595 -0.129731,-0.1297 0,-0.1298 0.129731,-11.5461 0,-1.1676 q -0.389195,0 -0.389195,-0.2594 0,-18.29215 1.945975,-25.03819 l 0,-0.12973 -0.129732,0 q -2.724364,7.10277 -2.724364,22.05432 l 0,0.6487 -0.259464,0.2594 -0.129731,-0.1297 0,-1.946 q 0,-14.40015 2.854096,-21.14618 l 0.908122,-0.77839 z m 0.518926,2.07572 0,0.5189 0.129732,0 0,-0.5189 -0.129732,0 z m 1.686512,0 0,0.6486 0.129732,0 0,-0.6486 -0.129732,0 z m 0.648658,0.7784 0,1.8162 0.129732,1.2973 0.129731,0 0,-0.5189 -0.129731,-2.5946 -0.129732,0 z m -2.983828,0.1297 -0.129732,2.5946 0,0.2595 0.129732,0 0.129732,-1.2973 0,-1.5568 -0.129732,0 z m 3.373023,0.3892 0,0.5189 0.129732,0 0,-0.5189 -0.129732,0 z m -3.762218,0.1297 0,0.3892 0.129732,0 0,-0.3892 -0.129732,0 z m 1.167585,0.2595 -0.129732,1.2973 0,2.4649 0.129732,0 q 0,-1.5568 0.259463,-2.3352 l -0.129731,-1.427 -0.129732,0 z m 1.427048,0 0,0.7784 0.129732,2.9838 0.129732,0 0,-2.4649 -0.129732,-1.2973 -0.129732,0 z m 1.297317,0.5189 0,0.5189 0.648658,9.211 0.129732,0 0,-0.7784 -0.648659,-8.9515 -0.129731,0 z m -2.075707,2.5947 0,1.8162 0.129732,0.6487 0.129732,0 0,-0.9082 -0.129732,-1.5567 -0.129732,0 z m 2.724365,0.6486 0,0.2595 0.129732,0 0,-0.2595 -0.129732,0 z m -2.205438,0.3892 0,0.3892 0.129732,0 0,-0.3892 -0.129732,0 z m -0.908122,0.1297 0,0.6487 0.129732,0 0,-0.6487 -0.129732,0 z m 3.243292,0.6487 0,0.7784 0.129731,0 0,-0.7784 -0.129731,0 z m -2.205438,0.3892 0,1.0378 0.129731,0 0,-1.0378 -0.129731,0 z m 2.335169,1.1676 0,1.2973 0.129732,0 0,-1.2973 -0.129732,0 z m -2.205438,0.6486 0,1.4271 0.129732,0 0,-1.4271 -0.129732,0 z m 2.33517,1.2974 0,1.9459 0.129732,0 0,-1.9459 -0.129732,0 z m -2.205438,0.6486 0,2.0757 0.129732,0 0,-2.0757 -0.129732,0 z m 1.945975,1.6865 0,1.4271 0.129731,0 0,-1.4271 -0.129731,0 z m 0.389195,0 0,2.3352 0.129731,0 0,-2.3352 -0.129731,0 z m -0.259464,2.7244 0,1.8162 0.129732,0 0,-1.8162 -0.129732,0 z m 0.389195,0.5189 0,2.59455 0.129732,0 0,-2.59455 -0.129732,0 z m -5.837924,2.33515 0,0.5189 0.129732,0 0,-0.5189 -0.129732,0 z"
         style="font-style:normal;font-variant:normal;font-weight:normal;font-stretch:normal;font-family:'STRING AND WIRE';-inkscape-font-specification:'STRING AND WIRE';text-align:center;letter-spacing:5.1258316px;text-anchor:middle;fill:none;stroke:#000000;stroke-width:0.04271527;stroke-linejoin:round;stroke-miterlimit:4;stroke-dasharray:none;stroke-opacity:1"
         id="path4248"
         inkscape:connector-curvature="0" />
      <path
         d="m 93.656619,980.79213 0.648659,0 0.77839,0.64866 q 0.681091,-0.64866 1.167584,-0.64866 2.951396,0 4.021678,18.94082 l 0,4.80005 -0.25946,0.2594 -0.129731,-0.1297 0,-0.9081 q 0,-13.71905 -2.464902,-21.40569 l -0.129731,0 0,0.25946 q 1.686511,8.20548 1.686511,24.51923 l -0.389195,0.1297 0.129732,12.8435 -0.129732,0.1297 -0.129731,0 -0.129732,-0.1297 0,-6.2272 -0.129732,-12.3245 -0.129731,0 0,3.1136 -0.389195,0.1297 0.129731,6.7461 0,12.5839 -0.259463,0 0,-0.1297 q 0,-29.05985 -0.908122,-35.67615 l -0.129731,0 0,1.0379 0.129731,16.99475 -0.259463,4.4109 0,5.9676 0.129732,2.8541 -0.129732,2.7244 0,3.892 -0.259463,0.2594 -0.129732,-0.1297 0,-18.0327 q 0,-6.3893 -0.518927,-16.47585 l -0.129731,0 -0.129732,3.6325 q 0.389195,11.02705 0.389195,27.37325 l 0,1.2973 -0.259463,0 -0.129732,-14.9191 0,-1.427 -0.129731,-2.5947 -0.129732,0 0,1.2973 -0.129732,17.6435 -0.259463,0 0,-0.1297 q 0,-16.411 0.389195,-28.15175 l -0.259463,-4.8 -0.129732,-0.5189 -0.129732,0 0,0.7783 0.259464,0 0,1.1676 -0.259464,0 0,-0.3892 -0.129731,0 0,1.5568 0.259463,0 0,0.9081 -0.259463,0 0,-0.2594 -0.129732,0 0,1.6865 0.259463,0 -0.259463,9.47035 0,20.7571 -0.259463,0.2594 -0.129732,-0.1297 0,-15.5678 -0.259463,-4.5406 0.129731,-17.12455 0,-0.7784 -0.129731,0 q -0.908122,6.5515 -0.908122,34.89775 l 0,0.9081 -0.259463,0 0,-9.3406 0.129731,-9.9894 q -0.389195,0 -0.389195,-0.2594 0,-6.61625 1.037854,-18.81105 l 0,-0.6487 -0.129732,0 -0.129732,2.2055 -0.129731,0 -0.129732,-0.1298 -0.129732,0 0,0.3892 0.259464,0 0,1.0379 -0.259464,0 0,-0.2595 -0.129731,0 0,0.7784 0.259463,0 0,0.7784 -0.259463,0.2595 -0.129732,-0.1298 0,0.519 0.259463,0 0,1.427 -0.259463,0 0,-0.3892 -0.129732,0 0,1.2973 0.259464,0 0,1.0379 -0.259464,0 0,-0.3892 -0.129731,0 0,1.6865 0.259463,0 0,1.1676 -0.259463,0 0,-0.3892 -0.129732,0 0,2.3352 0.259463,0 0,1.2973 -0.259463,0 0,-0.3892 -0.129732,0 0,2.59455 0.259464,0 -0.129732,7.1352 0,11.0272 -0.259463,0.2595 -0.129732,-0.1297 0,-0.1298 0.129732,-11.5461 0,-1.1676 q -0.389195,0 -0.389195,-0.2594 0,-18.29215 1.945975,-25.03819 l 0,-0.12973 -0.129732,0 q -2.724365,7.10277 -2.724365,22.05432 l 0,0.6487 -0.259463,0.2594 -0.129732,-0.1297 0,-1.946 q 0,-14.40015 2.854097,-21.14618 l 0.908121,-0.77839 z m 0.518927,2.07572 0,0.5189 0.129732,0 0,-0.5189 -0.129732,0 z m 1.686511,0 0,0.6486 0.129732,0 0,-0.6486 -0.129732,0 z m 0.648659,0.7784 0,1.8162 0.129731,1.2973 0.129732,0 0,-0.5189 -0.129732,-2.5946 -0.129731,0 z m -2.983828,0.1297 -0.129732,2.5946 0,0.2595 0.129732,0 0.129731,-1.2973 0,-1.5568 -0.129731,0 z m 3.373023,0.3892 0,0.5189 0.129731,0 0,-0.5189 -0.129731,0 z m -3.762218,0.1297 0,0.3892 0.129731,0 0,-0.3892 -0.129731,0 z m 1.167585,0.2595 -0.129732,1.2973 0,2.4649 0.129732,0 q 0,-1.5568 0.259463,-2.3352 l -0.129732,-1.427 -0.129731,0 z m 1.427048,0 0,0.7784 0.129731,2.9838 0.129732,0 0,-2.4649 -0.129732,-1.2973 -0.129731,0 z m 1.297316,0.5189 0,0.5189 0.648659,9.211 0.129731,0 0,-0.7784 -0.648658,-8.9515 -0.129732,0 z m -2.075706,2.5947 0,1.8162 0.129732,0.6487 0.129731,0 0,-0.9082 -0.129731,-1.5567 -0.129732,0 z m 2.724365,0.6486 0,0.2595 0.129731,0 0,-0.2595 -0.129731,0 z m -2.205439,0.3892 0,0.3892 0.129732,0 0,-0.3892 -0.129732,0 z m -0.908121,0.1297 0,0.6487 0.129732,0 0,-0.6487 -0.129732,0 z m 3.243291,0.6487 0,0.7784 0.129732,0 0,-0.7784 -0.129732,0 z m -2.205438,0.3892 0,1.0378 0.129732,0 0,-1.0378 -0.129732,0 z m 2.33517,1.1676 0,1.2973 0.129732,0 0,-1.2973 -0.129732,0 z m -2.205438,0.6486 0,1.4271 0.129731,0 0,-1.4271 -0.129731,0 z m 2.33517,1.2974 0,1.9459 0.129731,0 0,-1.9459 -0.129731,0 z m -2.205439,0.6486 0,2.0757 0.129732,0 0,-2.0757 -0.129732,0 z m 1.945975,1.6865 0,1.4271 0.129732,0 0,-1.4271 -0.129732,0 z m 0.389195,0 0,2.3352 0.129732,0 0,-2.3352 -0.129732,0 z m -0.259463,2.7244 0,1.8162 0.129732,0 0,-1.8162 -0.129732,0 z m 0.389195,0.5189 0,2.59455 0.129732,0 0,-2.59455 -0.129732,0 z m -5.837925,2.33515 0,0.5189 0.129732,0 0,-0.5189 -0.129732,0 z"
         style="font-style:normal;font-variant:normal;font-weight:normal;font-stretch:normal;font-family:'STRING AND WIRE';-inkscape-font-specification:'STRING AND WIRE';text-align:center;letter-spacing:5.1258316px;text-anchor:middle;fill:none;stroke:#000000;stroke-width:0.04271527;stroke-linejoin:round;stroke-miterlimit:4;stroke-dasharray:none;stroke-opacity:1"
         id="path4250"
         inkscape:connector-curvature="0" />
      <path
         d="m 120.05844,994.15445 0.12973,0.1298 0,0.1297 q -5.70819,1.4919 -8.69202,5.319 -3.63248,4.73515 -3.63248,10.37845 l 0,0.9082 q 0,8.0757 7.52443,13.3623 3.47032,1.5568 4.54061,1.5568 l 0.25946,0 0,-0.1297 q -5.61089,-1.7838 -9.08121,-6.7461 -2.33517,-4.1838 -2.33517,-8.5623 0,-8.8217 8.17309,-14.14065 2.52977,-1.8163 5.319,-2.2055 l 0.12973,0.1298 0,0.1297 q -1.91354,0.5189 -4.28114,1.5568 l 0,0.1297 0.12973,0 q 1.16758,-0.6486 4.54061,-0.9081 l 1.03785,0.1297 1.16759,-0.1297 q 3.27572,0 3.76221,1.0378 4.73521,1.4271 7.52444,5.70815 2.59463,3.9569 2.59463,8.5623 l 0,0.6487 q 0,1.2649 -1.81624,2.0757 l -10.50826,0.1297 -2.33517,0 -0.25947,-0.2594 0.12973,-0.1298 10.11907,0 q 1.29732,-0.1621 1.29732,-0.5189 l -18.0327,0 0,0.1297 q 0,3.1785 3.37302,6.4866 1.81625,1.4919 4.15142,1.8163 2.62706,-0.2919 7.0055,-3.6325 l 0.64866,0 q 0.3892,0 0.3892,0.7784 1.10272,-0.7784 1.55678,-0.7784 l 0.51892,0 0.12974,0.6486 0,0.519 q 0,2.7892 -4.92981,6.4865 -3.08112,1.5568 -5.70819,1.5568 l -3.63249,0 q -6.42171,0 -11.54611,-7.7839 -1.94598,-4.0541 -1.94598,-7.5244 l 0,-1.5568 q 0,-7.9461 7.52444,-13.49205 3.47032,-1.946 5.05953,-1.946 z m 1.68651,2.2055 0,0.1297 4.54061,0 0,-0.1297 -2.20544,-0.3892 -2.33517,0.3892 z m 4.67034,-0.3892 0,0.2594 q 5.90279,1.6217 8.56229,5.31895 3.11356,4.1839 3.11356,9.3407 0,1.3946 -2.20544,1.6865 l -0.38919,0.3892 0.90812,0 q 2.20544,-0.3243 2.20544,-1.9459 l 0,-0.1298 q -0.45406,-10.638 -9.47041,-14.27045 l -2.72437,-0.6486 z m -15.5678,9.21085 0,0.1298 0.12974,0 q 1.29731,-4.0542 5.44873,-7.00545 l 2.85409,-1.8163 -0.12973,0 q -4.96224,1.8487 -6.87578,5.44865 -0.64866,1.0379 -1.42705,3.2433 z m 11.0272,-8.43245 0,0.1297 0.38919,0 0,-0.1297 -0.38919,0 z m 3.76221,0 0,0.1297 q 3.37303,0.3243 8.43256,5.70815 -3.79465,-5.83785 -8.30282,-5.83785 l -0.12974,0 z m -9.98933,3.63245 0.12973,0 q 3.69735,-2.95135 5.96765,-3.37305 l 0,-0.1297 -0.38919,0 q -2.62707,0 -5.70819,3.50275 z m 4.02168,-2.33515 0,0.1297 0.12973,0 q 0.84325,-0.3892 2.98383,-0.5189 l 1.16758,0.1297 1.03786,-0.1297 q 1.81624,0.1297 3.11355,0.5189 l 0.12974,0 0,-0.1297 q -2.59464,-1.1676 -4.28115,-1.1676 -1.58921,0 -4.28114,1.1676 z m -6.09739,7.00545 0,0.1297 0.12973,0 q 1.78381,-4.0217 7.52444,-6.74595 l 0.12973,0 0,-0.1297 -0.12973,0 q -2.9514,0.5513 -4.67034,2.07565 -2.20544,2.4649 -2.98383,4.6703 z m 6.61631,-5.70815 0,0.1297 0.12974,0 1.81624,-0.2594 3.37302,0 q 1.00542,0 2.20544,0.3892 l 0.12973,0 0,-0.1298 q -2.69193,-1.1675 -4.02168,-1.1675 -1.13515,0 -3.63249,1.0378 z m 6.22712,-1.0378 0,0.1297 q 1.42705,0 5.96766,4.41085 1.81624,2.1405 2.59463,5.5784 l 0.3892,0 q -0.25947,-2.627 -2.72437,-6.6163 -2.3676,-2.78915 -5.05953,-3.24325 l -1.03785,-0.2594 -0.12974,0 z m 4.28115,0 0,0.1297 q 5.96765,4.76755 5.96765,12.32445 l 0,0.1297 -0.25946,1.1676 0.51893,0 q 0.55136,-0.1946 0.90812,-1.1676 0,-7.8487 -6.74605,-12.45415 l -0.12973,-0.1297 -0.25946,0 z m -14.01102,0.3891 -0.12973,0.1298 0,0.1297 0.12973,0 0.12973,-0.1297 0,-0.1298 -0.12973,0 z m 0.12973,3.50275 0.12973,0 q 0.74596,-1.2 5.319,-2.59455 l 0,-0.1298 -0.25946,0 q -3.01626,0 -5.18927,2.72435 z m 8.43256,-2.72435 0,0.1298 q 5.09197,1.39455 6.61631,4.02155 l 0.12973,0 0,-0.2594 q -2.72436,-3.89195 -6.48658,-3.89195 l -0.25946,0 z m -3.11356,0.3892 0,0.1298 3.37302,0 0,-0.1298 -1.68651,-0.2594 -1.68651,0.2594 z m -6.61632,0 -0.51892,0.64865 0.12973,0 0.51893,-0.64865 -0.12974,0 z m -0.90812,0.25945 q -4.28114,4.4757 -4.28114,9.9893 l 0,1.0379 q 0,6.6812 5.70819,11.0272 l 0,-0.1298 q -5.05953,-4.6379 -5.05953,-11.5461 0,-5.5784 3.76221,-10.3785 l -0.12973,0 z m 10.37854,0.6487 -0.12974,0.1297 0,0.1297 -1.03785,-0.2594 q -1.20002,0 -2.98383,1.1675 l 0.12973,0 0.51893,-0.1297 0.12973,0.1297 0,0.1298 q -2.62706,0.7784 -3.50275,2.3351 -1.68651,2.5622 -1.94598,4.8001 l 1.03786,0 q 0,-2.7568 3.63248,-6.2271 2.10814,-1.1676 2.8541,-1.1676 l 0.12973,0.1297 0,0.1298 q -3.27572,1.0054 -5.18927,4.0216 -0.58379,1.1352 -1.03785,3.1136 l 14.01102,0 0,-0.5189 -7.3947,0 -0.25947,-0.2595 0.12973,-0.1297 7.39471,0 q -1.03786,-4.2812 -3.63249,-6.2271 -1.88111,-1.2973 -2.85409,-1.2973 z m 1.68651,0.1297 q 3.47032,2.1081 4.9298,6.3568 0.0973,1.0379 0.38919,1.0379 l 0.3892,0 q -1.23245,-4.8974 -4.28115,-7.0055 l -0.64865,-0.5189 -0.77839,0.1297 z m -12.06505,0 -0.12973,0.1297 0,0.1297 0.12973,0 0.12973,-0.1297 0,-0.1297 -0.12973,0 z m 0.90812,5.8379 0,0.1297 0.12974,0 q 0.97298,-2.6919 4.9298,-5.8379 l -0.25946,0 q -1.52435,0.4865 -3.11356,2.4649 -1.16759,1.8163 -1.68652,3.2433 z m 12.97317,-5.5785 q 3.66492,3.6001 4.15141,6.7461 0,0.5189 0.25947,0.5189 l 0.90812,0 q -0.2919,-2.7243 -3.50276,-6.2271 l -1.68651,-1.0379 -0.12973,0 z m -13.23263,0.1298 q -3.37302,3.6973 -3.37302,8.5623 l 0,0.7784 0.38919,0 0,-0.519 q 0,-4.6379 3.11356,-8.8217 l -0.12973,0 z m -3.76222,0.7784 0,0.2594 0.12973,0 0,-0.2594 -0.12973,0 z m 4.54061,0.1297 q -3.50275,4.1514 -3.50275,8.4326 l 0.38919,0 q 0,-3.6001 3.24329,-8.4326 l -0.12973,0 z m 1.16759,0 -1.68652,1.946 0.12974,0 1.68651,-1.946 -0.12973,0 z m -3.63249,0.1297 0,0.2595 0.12973,0 0,-0.2595 -0.12973,0 z m 5.70819,0 -0.25946,0.3892 0.12973,0 0.25946,-0.3892 -0.12973,0 z m 14.14075,0.1298 q 1.94598,3.373 2.20544,5.9676 l 0.3892,0 0,-0.1297 q 0,-2.3352 -2.59464,-5.8379 z m -15.95699,0.1297 q -3.63249,3.6649 -3.63249,7.6542 l 0,0.3892 0.64866,0 q 0,-4.119 3.11356,-8.0434 l -0.12973,0 z m -6.35685,0.1297 -0.51893,1.1676 0,0.1297 0.12973,0 0.51893,-1.1675 0,-0.1298 -0.12973,0 z m 21.14626,0.519 q 1.94597,3.7946 1.94597,5.1892 l 0.3892,0 0,-0.1297 q -0.71353,-3.3406 -2.33517,-5.0595 z m -21.92465,1.1675 0,0.2595 0.12973,0 0,-0.2595 -0.12973,0 z m -0.25947,0.6487 0,0.2595 0.12974,0 0,-0.2595 -0.12974,0 z m -0.12973,0.3892 0,0.2595 0.12973,0 0,-0.2595 -0.12973,0 z m 0.77839,0 0,0.2595 0.12973,0 0,-0.2595 -0.12973,0 z m 6.09739,0 -0.25946,0.6486 0,0.1298 0.12973,0 0.25946,-0.6487 0,-0.1297 -0.12973,0 z m -7.00551,0.3892 0,0.3892 0.12973,0 0,-0.3892 -0.12973,0 z m -0.12973,0.5189 0,0.2595 0.12973,0 0,-0.2595 -0.12973,0 z m 0.77839,0 0,0.2595 0.12973,0 0,-0.2595 -0.12973,0 z m 5.83792,0.2595 0,0.2594 0.12974,0 0,-0.2594 -0.12974,0 z m -6.74604,0.2594 0,0.3892 0.12973,0 0,-0.3892 -0.12973,0 z m 5.83792,0.1298 0,0.2594 0.12973,0 0,-0.2594 -0.12973,0 z m 0.77839,0 0,0.2594 0.12973,0 0,-0.2594 -0.12973,0 z m -0.90812,0.3892 0,0.2594 0.12973,0 0,-0.2594 -0.12973,0 z m 0.77839,0 0,0.2594 0.12973,0 0,-0.2594 -0.12973,0 z m -6.61631,0.1297 0,0.3892 0.12973,0 0,-0.3892 -0.12973,0 z m 6.48658,0.2595 0,0.3892 0.12973,0 0,-0.3892 -0.12973,0 z m -6.61632,0.3892 0,0.7783 0.12974,0 0,-0.7783 -0.12974,0 z m 0.3892,0 0,0.5189 0.12973,0 0,-0.5189 -0.12973,0 z m 6.09739,0.1297 0,0.3892 0.12973,0 0,-0.3892 -0.12973,0 z m 16.08672,0.3892 0.12973,0.5189 0.25947,0 0.25946,-0.2595 -0.25946,-0.2594 -0.3892,0 z m 1.03786,0.5189 1.03785,0 0,-0.1297 -0.12973,-0.3892 q -0.90812,0.2919 -0.90812,0.5189 z m 1.29731,-0.5189 0,0.1297 0.12973,0.3892 0.3892,0 0,-0.5189 -0.51893,0 z m 1.55678,0.2594 0,0.2595 0.3892,0 0,-0.5189 -0.12973,0 -0.25947,0.2594 z m -20.1084,0 0,0.519 0.12973,0 0,-0.519 -0.12973,0 z m 19.45974,0.2595 0.25947,0 0,-0.2595 -0.25947,0.2595 z m -25.94633,0.1297 0,2.0757 0.12973,0 0,-2.0757 -0.12973,0 z m 6.87578,0.3892 0,0.9082 0.90812,0 0.12973,-1.1676 -0.77839,0 -0.25946,0.2594 z m 1.42705,-0.2594 0,1.1676 14.27048,0 0,-1.1676 -14.27048,0 z m 14.52994,0 0,0.2594 0.12974,0 0,-0.2594 -0.12974,0 z m 0.90813,0 0,0.3892 0.38919,-0.3892 -0.38919,0 z m 1.42704,1.1676 0.51893,0 0,-1.1676 q -0.32433,0 -0.51893,1.1676 z m 0.77839,-1.1676 0,0.3892 0.3892,-0.3892 -0.3892,0 z m -25.55713,0.1297 0,1.6865 0.12973,0 0,-1.6865 -0.12973,0 z m 22.83277,0 -0.25946,0.9081 0,0.1298 0.51892,0 0,-0.1298 -0.12973,-0.9081 -0.12973,0 z m 0.51893,1.0379 1.16758,0 -0.12973,-0.6487 0,-0.3892 -0.25946,0 q -0.77839,0.5189 -0.77839,1.0379 z m 2.85409,-0.7784 0,0.1297 0.12973,0.6487 0.3892,0 0,-1.0379 -0.25946,0 -0.25947,0.2595 z m -20.23814,0 0,0.7784 0.12974,0 0,-0.7784 -0.12974,0 z m 19.84895,0.1297 -0.12973,0.6487 0.25946,0 0,-0.6487 -0.12973,0 z m -20.23814,0.2595 0,0.3892 0.12973,0 0,-0.3892 -0.12973,0 z m -3.24329,0.7784 0,0.1297 q 0,5.9028 4.54061,10.1191 l 0.64865,0.3891 0,-0.1297 q -4.80007,-4.2811 -4.80007,-10.3785 l 0,-0.1297 -0.38919,0 z m 0.64866,0 q 0,6.3244 5.18926,10.119 l 0,-0.1297 q -4.80007,-4.2163 -4.80007,-9.9893 l -0.38919,0 z m 1.29731,0 0,0.5189 q 0,5.319 4.41088,8.692 l 0,-0.1297 q -3.76222,-3.7622 -3.76222,-9.0812 l -0.64866,0 z m 1.29732,0 0,1.2973 0.12973,0 0,-1.2973 -0.12973,0 z m 0.38919,0 0,1.427 0.12974,0 0,-1.427 -0.12974,0 z m 0.51893,0 0,1.1675 0.90812,0 0,-1.1675 -0.90812,0 z m 1.29732,0 0,0.5189 0.12973,0.6486 15.95699,0 q 2.07571,0 2.07571,-1.1675 l -18.16243,0 z m 18.42189,0 q 0,0.4864 -0.64866,1.1675 l 0.64866,0 q 0.35676,0 0.64866,-1.1675 l -0.64866,0 z m -24.25982,0.5189 0,0.2594 0.12973,0 0,-0.2594 -0.12973,0 z m -2.20544,0.5189 0,0.7784 0.12974,0 0,-0.7784 -0.12974,0 z m 0.3892,0 0,0.6487 0.12973,0 0,-0.6487 -0.12973,0 z m 6.35685,0.3892 q 0,2.7568 2.98383,6.6163 1.88111,1.8163 3.89195,1.8163 l 0.12973,0 0,-0.1298 q -2.33517,-0.6162 -4.67034,-3.8919 -1.29732,-2.8217 -1.29732,-4.2812 l 0,-0.1297 -1.03785,0 z m -2.72436,0.1297 0,0.2595 0.12973,0 0,-0.2595 -0.12973,0 z m 1.94597,0.2595 0,0.3892 0.12973,0 0,-0.3892 -0.12973,0 z m 0.3892,0 0,0.5189 0.12973,0 0,-0.5189 -0.12973,0 z m -6.22712,0.2595 0,0.5189 0.12973,0 0,-0.5189 -0.12973,0 z m 0.38919,0 0,0.5189 0.12973,0 0,-0.5189 -0.12973,0 z m 5.57846,0.5189 0,0.2594 0.12973,0 0,-0.2594 -0.12973,0 z m 0.3892,0 0,0.3892 0.12973,0 0,-0.3892 -0.12973,0 z m -6.22712,0.1297 0,0.3892 0.12973,0 0,-0.3892 -0.12973,0 z m 6.35685,0.3892 0,0.3892 0.12973,0 0,-0.3892 -0.12973,0 z m -6.22712,0.1297 0,0.519 0.12973,0 0,-0.519 -0.12973,0 z m 0.38919,0.1298 0,0.2594 0.12974,0 0,-0.2594 -0.12974,0 z m 5.96766,0.2594 0,0.2595 0.12973,0.3892 0.12973,0 0,-0.1297 -0.12973,-0.519 -0.12973,0 z m -6.22712,0.2595 0,0.2595 0.12973,0 0,-0.2595 -0.12973,0 z m 0.12973,0.3892 0,0.2595 0.12973,0 0,-0.2595 -0.12973,0 z m 6.35685,0.1297 0,0.2595 0.12974,0 0,-0.2595 -0.12974,0 z m -6.22712,0.2595 0,0.2595 0.12974,0 0,-0.2595 -0.12974,0 z m 6.35686,0.1297 0,0.1298 0.51892,1.1675 0.12973,0 0,-0.1297 -0.51892,-1.1676 -0.12973,0 z m -6.22712,0.2595 0,0.1297 0.12973,0.3892 0.12973,0 0,-0.1297 -0.12973,-0.3892 -0.12973,0 z m 0.25946,0.6486 0,0.1298 q 1.13515,2.5946 3.24329,4.6703 l 0,-0.1297 q -2.20544,-2.2055 -3.11356,-4.6704 l -0.12973,0 z m 6.87578,0.7784 0,0.2595 0.64866,0.6487 0,-0.1298 q -0.25947,0 -0.51893,-0.7784 l -0.12973,0 z m -0.64866,0.1298 0,0.2594 q 2.5622,3.3731 4.28114,3.6325 -2.2703,-1.4595 -4.15141,-3.8919 l -0.12973,0 z m -4.67034,0.6486 0,0.2595 0.12973,0 0,-0.2595 -0.12973,0 z m 0.38919,0.6487 0,0.2594 q 2.04328,3.4704 6.48659,5.0596 l 0.12973,0 0,-0.1298 q -4.50818,-1.8162 -6.48658,-5.1892 l -0.12974,0 z m 14.40022,1.8162 0,0.1298 0.38919,0 q 1.10272,0 2.98383,-1.8163 -2.6595,1.6865 -3.37302,1.6865 z m 6.09739,-0.3892 -1.55678,1.5568 0.12973,0 1.55678,-1.5568 -0.12973,0 z m 1.03785,0 q -1.91354,3.4379 -8.17309,5.4488 l 0,0.1297 0.38919,0 q 4.73521,-1.1676 6.87578,-3.892 l 1.03785,-1.5567 0,-0.1298 -0.12973,0 z m -17.64351,0.1298 0,0.1297 q 2.78923,2.5946 4.54061,2.5946 l 0.12973,0 0,-0.1297 q -2.2703,-0.8108 -4.67034,-2.5946 z m 3.89195,0.1297 0,0.1297 0.25947,0 0,-0.1297 -0.25947,0 z m 8.69202,0.5189 0,0.1298 0.25947,0 0.12973,-0.1298 0,-0.1297 -0.3892,0.1297 z m 2.33517,0 -0.12973,0.1298 0,0.1297 0.12973,0 0.12974,-0.1297 0,-0.1298 -0.12974,0 z m -8.69202,0.1298 0,0.1297 2.20544,0.3892 1.42705,-0.2595 0,-0.1297 -1.16758,-0.1297 -1.42705,0.1297 -0.90812,-0.1297 -0.12974,0 z m -2.59463,0.3891 0,0.1298 0.25946,0 0,-0.1298 -0.25946,0 z m 0.3892,0.1298 0,0.1297 0.25946,0 0,-0.1297 -0.25946,0 z m -3.89195,0.1297 0,0.1297 0.90812,0.6487 0,-0.1297 -0.90812,-0.6487 z m 12.45423,0 0,0.1297 0.25947,0 0,-0.1297 -0.25947,0 z m -8.95148,0.1297 0,0.1298 q 1.20002,0.5189 2.07571,0.5189 l 0.38919,0 0,-0.1297 -2.33517,-0.519 -0.12973,0 z m 3.76222,0.519 0,0.1297 1.03785,0 0,-0.1297 -1.03785,0 z m 2.33517,0 0,0.1297 0.64866,0 0,-0.1297 -0.64866,0 z m -3.50276,0.1297 0,0.1297 0.25947,0 0,-0.1297 -0.25947,0 z m 2.98383,0 0,0.1297 0.3892,0 0,-0.1297 -0.3892,0 z m 3.24329,0.6487 0,0.1297 0.12973,0 q 1.13516,-0.4865 1.16759,-0.7784 l -0.12973,0 -1.16759,0.6487 z m -2.33517,-0.1298 0,0.1298 1.29732,-0.3892 0,-0.1298 -0.25946,0 -1.03786,0.3892 z m -3.76221,-0.1297 0,0.1297 1.29731,0.1298 1.16759,-0.1298 0,-0.1297 -0.90812,-0.1297 -0.12974,0.1297 -1.42704,0 z m -4.54061,0.1297 0,0.1298 0.25946,0 0,-0.1298 -0.25946,0 z m 0.77839,0 0,0.1298 q 1.39461,0.6811 2.59463,0.9081 l 0.25946,0 0,-0.1298 -2.72436,-0.9081 -0.12973,0 z m 2.20544,0 0,0.1298 0.25946,0 0,-0.1298 -0.25946,0 z m -4.02169,0.6487 0,0.1297 0.25947,0 0,-0.1297 -0.25947,0 z m 4.92981,0 0,0.1297 1.55678,0.2595 q 1.16758,-0.1298 1.16758,-0.3892 l -0.90812,0 -1.16758,0.1297 -0.3892,-0.1297 -0.25946,0 z m 3.37302,0.2594 0,0.1298 0.25946,0 0.90813,-0.2595 0,-0.1297 -0.25947,0 -0.90812,0.2594 z m 3.11356,-0.2594 0,0.1297 0.25946,0 0,-0.1297 -0.25946,0 z m -1.16758,0.3892 0,0.1297 0.12973,0 0.90812,-0.2595 0,-0.1297 -0.25947,0 -0.77838,0.2595 z m -0.3892,0.1297 0,0.1297 0.25946,0 0,-0.1297 -0.25946,0 z m -4.02168,0.1297 0,0.1298 1.29732,0 0,-0.1298 -1.29732,0 z m -2.98383,0.7784 0,0.1298 2.98383,0.6486 2.72436,-0.5189 0,-0.1297 -0.12973,0 -0.90812,0.1297 -1.16758,-0.1297 -1.16759,0.1297 -2.20544,-0.2595 -0.12973,0 z"
         style="font-style:normal;font-variant:normal;font-weight:normal;font-stretch:normal;font-family:'STRING AND WIRE';-inkscape-font-specification:'STRING AND WIRE';text-align:center;letter-spacing:5.1258316px;text-anchor:middle;fill:none;stroke:#000000;stroke-width:0.04271527;stroke-linejoin:round;stroke-miterlimit:4;stroke-dasharray:none;stroke-opacity:1"
         id="path4252"
         inkscape:connector-curvature="0" />
      <path
         d="m 160.53615,994.93285 2.72436,0 q 4.50818,0 6.22712,3.3731 l 0,0.9081 q 0,0.94045 -5.319,2.46485 -1.81624,0.8432 -3.76222,2.7243 l -0.12973,0 0,-0.2594 q 1.81625,-2.5947 7.7839,-4.0217 l 0,-0.12965 -0.38919,0 q -1.26489,0 -6.48659,2.07565 -1.00542,0.4865 -2.4649,2.0757 -0.61622,0 -1.03785,1.427 l 0.25946,5.0596 0,1.0378 -0.25946,0.2595 -0.12973,-0.3892 -0.25947,-5.0596 -0.12973,0 q -0.64866,1.9785 -0.64866,3.1136 l 0,1.946 0.12974,1.946 -0.3892,0.1297 0,2.7244 0.12973,5.8379 -0.12973,0.1297 -0.12973,0 -0.12973,-0.1297 0,-2.4649 -0.12973,-9.3407 -0.12974,0 0,1.427 -0.38919,0.1298 0.12973,6.746 0,6.0974 -0.25946,0 -0.25947,-16.8651 -0.12973,-0.7784 -0.12973,0 -0.38919,2.3352 0,2.8541 -0.25947,3.5027 0,10.3786 -0.25946,0.2594 -0.12973,-0.1297 0,-11.5461 -0.12973,-6.0974 -0.12974,0 -0.25946,3.373 0.12973,12.7137 -0.25946,0 -0.25946,-12.9732 -0.12974,0 -0.12973,12.9732 -0.25946,0 0,-1.2973 0.12973,-11.5461 -0.12973,-2.2055 q 0.25946,-1.0378 0.25946,-2.5946 l 0,-0.2595 -0.12973,0 q -0.51892,1.5893 -0.51892,7.3947 l 0,11.9354 -0.25947,0.2594 -0.12973,-0.1297 0,-10.5083 q 0,-2.3351 -0.38919,-2.3351 l 0.12973,-0.6487 0,-0.6487 0.12973,-6.3568 0,-0.1297 -0.12973,0 q -0.90812,1.2 -0.90812,16.2164 l 0,2.8541 -0.25947,0 0,-7.0055 0.12973,-5.8379 q -0.38919,0 -0.38919,-0.2595 l 0,-1.8162 -0.12973,0 -0.12973,9.3406 0,2.8541 -0.25947,0.2595 -0.12973,-0.1297 0,-0.1298 0.12973,-8.4325 -0.12973,0 -0.25946,-0.2595 q 0,-11.5461 1.81624,-16.60555 l 0,-0.1298 -0.12973,0 q -2.59463,5.05955 -2.59463,14.78935 l 0,0.2595 -0.25947,0.2595 -0.12973,-0.1298 0,-1.2973 q 0,-10.0217 2.98383,-14.27045 l 1.03785,-0.5189 q 0.42163,0 1.16759,0.5189 l 1.03785,-0.5189 q 0.84326,0 1.29732,0.7784 2.6595,-1.5568 5.44873,-1.5568 z m -0.90813,0.3892 0,0.1298 0.25947,0 0,-0.1298 -0.25947,0 z m -1.81624,1.2973 0,0.1298 0.12973,0 q 1.55678,-0.6487 3.50276,-0.6487 l 0.12973,0 0.64866,0.1297 2.0757,-0.1297 0,-0.1297 -2.33517,-0.6487 q -2.0757,0.3892 -4.15141,1.2973 z m 6.09739,-1.2973 0,0.1298 4.28114,1.9459 0.77839,0.6487 q -0.87569,-1.6865 -3.89195,-2.5946 l -1.03785,-0.1298 -0.12973,0 z m -8.56229,1.4271 0.38919,0.7784 q 2.88653,-1.946 3.63249,-1.946 l 0,-0.1297 -0.38919,0 q -1.65408,0.3891 -3.63249,1.2973 z m 9.08122,-0.6487 0,0.1297 0.25946,0 0,-0.1297 -0.25946,0 z m -4.67034,0.5189 0,0.1298 0.38919,0 0,-0.1298 -0.38919,0 z m 5.18926,0 0,0.1298 0.3892,0 0,-0.1298 -0.3892,0 z m -5.96765,0.1298 0,0.1297 0.51892,0 0,-0.1297 -0.51892,0 z m -6.35686,0.1297 0,0.1297 0.25947,0 0,-0.1297 -0.25947,0 z m 5.96766,0 0,0.1297 0.25946,0 0,-0.1297 -0.25946,0 z m 2.20544,0 0,0.1297 0.38919,0 0,-0.1297 -0.38919,0 z m -2.59463,0.1297 0,0.1298 0.25946,0 0,-0.1298 -0.25946,0 z m 2.20543,0 0,0.1298 0.25947,0 0,-0.1298 -0.25947,0 z m 1.55678,0 0.25947,0.2595 1.42705,0 0,-0.1297 -0.90813,-0.1298 -0.77839,0 z m -8.43255,0.1298 0,0.3892 0.12973,0 0,-0.3892 -0.12973,0 z m 1.55678,0 0,0.2594 0.12973,0.6487 0.25946,-0.2595 -0.25946,-0.6486 -0.12973,0 z m 2.72436,0 0,0.1297 0.25946,0 0,-0.1297 -0.25946,0 z m 2.20544,0 0,0.1297 0.25946,0 0,-0.1297 -0.25946,0 z m 5.57846,0 0,0.1297 0.64866,0.1297 -0.25946,-0.2594 -0.3892,0 z m -8.69202,0.3892 0,0.1297 0.12973,0 0.64866,-0.2595 0,-0.1297 -0.12973,0 -0.64866,0.2595 z m -0.77839,0.9081 0.12973,0.3892 0.12973,0 2.07571,-1.2973 0,-0.1298 -0.12973,0 -2.20544,1.0379 z m 3.24329,-1.0379 0,0.1298 0.25946,0 0,-0.1298 -0.25946,0 z m -2.72436,2.3352 0,0.2595 q 3.66492,-2.3352 4.67034,-2.3352 l 0,-0.1297 -0.25947,0 q -1.94597,0 -4.41087,2.2054 z m 4.02168,-1.6865 0,0.1297 1.55678,-0.1297 2.4649,0 0,-0.1297 -1.68651,-0.3892 -2.33517,0.5189 z m 3.89195,-0.5189 0,0.1297 0.77839,0.2595 0.12973,0 0,-0.1298 -0.64866,-0.2594 -0.25946,0 z m 2.33517,0 0,0.1297 0.64866,0.2595 0.12973,0 0,-0.1298 -0.64866,-0.2594 -0.12973,0 z m -15.69753,0.1297 -0.12973,1.8162 0,0.2595 0.12973,0 0.12973,-1.0379 0,-1.0378 -0.12973,0 z m 2.98382,0.2595 0,0.9081 0.12974,0 0,-0.9081 -0.12974,0 z m -3.37302,0.2594 0,0.2595 0.12973,0 0,-0.2595 -0.12973,0 z m 3.76222,0 0,0.3892 0.12973,0 0,-0.3892 -0.12973,0 z m 12.7137,0 q 0,0.2595 0.77839,0.3892 l 0.12973,0 0,-0.1297 -0.90812,-0.2595 z m -15.30833,0.1298 -0.12973,0.6486 0,1.81625 0.12973,0 0.12973,-1.94595 0,-0.5189 -0.12973,0 z m 1.42704,0 -0.12973,1.0378 0.12973,0.1297 0.25947,0 0,-0.2594 -0.12973,-0.9081 -0.12974,0 z m 3.37303,2.20535 0.25946,0.9081 q 3.27573,-2.59455 4.41088,-2.72435 l 0,-0.1297 q -2.23787,0.2595 -4.67034,1.94595 z m 5.05953,-1.55675 0,0.1297 3.37303,-0.1297 0,-0.1297 -1.55678,-0.2595 -1.81625,0.3892 z m -6.35685,0 0,0.2595 0.25946,0 0.12974,-0.1298 0.12973,0 -0.12973,-0.3892 -0.12974,0 -0.25946,0.2595 z m -4.80007,-0.1297 -0.64866,5.83785 0,0.5189 0.12973,0 0.64866,-6.09735 0,-0.2594 -0.12973,0 z m 16.60565,0 0,0.2594 0.51893,0 0,-0.1297 -0.51893,-0.1297 z m -9.98934,3.37295 0.12974,0 q 1.49191,-1.8487 5.70819,-2.85405 l 0.12973,0 0,-0.1297 -0.12973,0 q -3.43789,0 -5.83793,2.98375 z m -2.59463,-2.85405 0,0.6487 0.12973,-0.1298 0.12973,0 -0.12973,-0.5189 -0.12973,0 z m 10.50827,0 0,0.1297 0.25946,0 0,-0.1297 -0.25946,0 z m 2.20543,0 0,0.1297 0.3892,0 0,-0.1297 -0.3892,0 z m -5.18926,0.5189 0,0.1298 0.25946,0 0,-0.1298 -0.25946,0 z m -6.48659,0.77835 0.12974,0 0.38919,-0.3892 0,-0.1297 q -0.42163,0.1297 -0.51893,0.5189 z m 7.7839,-0.5189 0,0.1297 0.25947,0 0,-0.1297 -0.25947,0 z m -0.38919,0.1297 0,0.1298 0.25946,0 0,-0.1298 -0.25946,0 z m -9.60014,0.1298 0,0.5189 0.12973,0 0,-0.5189 -0.12973,0 z m 7.3947,1.1675 2.07571,-1.0378 0,-0.1297 -0.12973,0 q -1.58922,0.7135 -1.94598,1.1675 z m -3.37302,2.7244 0,0.6487 0.12973,0 q 0,-1.3622 4.02168,-4.2812 l 0.12973,0 0,-0.1297 -0.12973,0 q -1.68651,0.4216 -3.37302,2.2054 -0.77839,1.1676 -0.77839,1.5568 z m 5.83792,-3.6325 0,0.1298 0.25947,0 0,-0.1298 -0.25947,0 z m -12.19477,0.1298 -0.3892,2.854 0,0.1298 0.12973,0 0.3892,-1.1676 0,-1.8162 -0.12973,0 z m -1.16759,0.1297 0,0.2594 0.12973,0 0,-0.2594 -0.12973,0 z m 4.15141,0 0,1.0378 0.12974,0 0.12973,-0.3892 -0.12973,-0.6486 -0.12974,0 z m 1.68652,0.6486 0.12973,0.9082 0.64866,-0.6487 -0.12974,-0.9081 q -0.51892,0.2594 -0.51892,0.6486 l -0.12973,0 z m -3.63249,-0.5189 0,0.3892 0.12973,0 0,-0.3892 -0.12973,0 z m 7.00551,0 0,0.1297 0.25946,0 0,-0.1297 -0.25946,0 z m -6.09739,0.1297 0,0.2595 0.12973,0 0,-0.2595 -0.12973,0 z m -0.51893,0.3892 0,0.519 0.25947,-0.2595 0,-0.5189 -0.25947,0.2594 z m 7.7839,0.2595 -0.12973,0.1297 0,0.1298 0.12973,0 0.12974,-0.1298 0,-0.1297 -0.12974,0 z m -10.50826,0.1297 0,0.3892 0.12973,0 0,-0.3892 -0.12973,0 z m 5.57846,0 0,0.519 0.12973,0 0,-0.519 -0.12973,0 z m -2.20544,0.1298 0,0.6486 0.12973,0 0,-0.6486 -0.12973,0 z m 4.54061,0 -0.38919,0.5189 0.12973,0 0.38919,-0.5189 -0.12973,0 z m -5.70819,0.1297 0,0.5189 0.12973,0 0,-0.5189 -0.12973,0 z m 2.98383,0.2595 0,0.7784 0.25946,0.2594 0,-0.1297 -0.12973,-0.9081 -0.12973,0 z m 2.33517,0.7784 0,0.2594 0.64865,-0.7784 0,-0.1297 -0.64865,0.6487 z m -7.65417,-0.1298 0,0.5189 0.12973,0 0,-0.5189 -0.12973,0 z m 2.59463,0.1298 -0.12973,2.2054 0,0.2595 0.12973,0 0.12973,-0.9082 0,-1.5567 -0.12973,0 z m 0.64866,0.1297 0,0.3892 0.12973,0 0,-0.3892 -0.12973,0 z m 1.16758,1.0378 0,0.7784 q 0.32433,0 0.51893,-1.0378 l 0,-0.7784 q -0.32433,0 -0.51893,1.0378 z m 1.42705,-1.0378 0,0.3892 0.12973,0 0,-0.3892 -0.12973,0 z m -4.41087,0.2594 -0.51893,1.5568 0,1.0379 0.12973,0 0.51893,-1.6865 0,-0.9082 -0.12973,0 z m 5.31899,0.519 -0.12973,-0.1298 -0.12973,0 0,1.5568 0.12973,0 0.64866,-1.6865 0,-0.1297 -0.51893,0.3892 z m -1.29731,-0.1298 0,0.2595 0.12973,0 0,-0.2595 -0.12973,0 z m -5.57846,0.2595 0,0.7784 0.12973,0 0,-0.7784 -0.12973,0 z m 2.20544,0.3892 0,0.7784 0.12973,0 0,-0.7784 -0.12973,0 z m 3.89194,0 0,1.0379 0.12974,0 0,-1.0379 -0.12974,0 z m 1.29732,0 -0.64866,1.8162 0,1.4271 0.12973,0 q 0.45407,-2.2054 0.77839,-2.2054 l -0.12973,-1.0379 -0.12973,0 z m -3.89195,0.1297 -0.25946,1.0379 0,0.5189 0.12973,0 0.25946,-1.2973 0,-0.2595 -0.12973,0 z m 1.55678,0.1298 -0.51893,1.427 0,0.7784 0.12974,0 0.51892,-1.946 0,-0.2594 -0.12973,0 z m -4.80007,0.3892 0,0.6486 0.12973,0 0,-0.6486 -0.12973,0 z m 3.63249,0.1297 0,0.7784 0.12973,0 0,-0.7784 -0.12973,0 z m 1.81624,0 0,0.2595 0.12973,0 0,-0.2595 -0.12973,0 z m -3.24329,0.3892 0,0.2594 0.12973,0 0,-0.2594 -0.12973,0 z m -2.59463,0.1297 0,0.9081 0.12973,0 0,-0.9081 -0.12973,0 z m 5.96765,0 0,1.1676 0.12973,0 0,-1.1676 -0.12973,0 z m 0.3892,0.1297 0,0.519 0.12973,0 0,-0.519 -0.12973,0 z m -3.37303,0.3892 0,0.2595 0.12973,0 0,-0.2595 -0.12973,0 z m 0.64866,0 -0.12973,1.2974 0,1.5567 0.12973,0 0.25946,-2.2054 0,-0.6487 -0.25946,0 z m -3.37302,1.1676 0,0.7784 0.12973,0 0,-0.7784 -0.12973,0 z m -0.3892,1.0379 0,0.2594 0.12974,0 0,-0.2594 -0.12974,0 z m 6.22712,0.2594 0,0.519 0.12973,0 0,-0.519 -0.12973,0 z m 0.3892,0 0,1.1676 0.12973,0 0,-1.1676 -0.12973,0 z"
         style="font-style:normal;font-variant:normal;font-weight:normal;font-stretch:normal;font-family:'STRING AND WIRE';-inkscape-font-specification:'STRING AND WIRE';text-align:center;letter-spacing:5.1258316px;text-anchor:middle;fill:none;stroke:#000000;stroke-width:0.04271527;stroke-linejoin:round;stroke-miterlimit:4;stroke-dasharray:none;stroke-opacity:1"
         id="path4254"
         inkscape:connector-curvature="0" />
    </g>
    <flowRoot
       xml:space="preserve"
       id="flowRoot4165"
       style="font-style:normal;font-weight:normal;font-size:40px;line-height:125%;font-family:sans-serif;text-align:center;letter-spacing:0px;word-spacing:0px;text-anchor:middle;fill:#000000;fill-opacity:1;stroke:none;stroke-width:1px;stroke-linecap:butt;stroke-linejoin:miter;stroke-opacity:1"
       transform="translate(-0.25253813,972.11471)"><flowRegion
         id="flowRegion4167"><rect
           id="rect4169"
           width="245.97214"
           height="51.51778"
           x="11.111678"
           y="90.348961"
           style="text-align:center;text-anchor:middle" /></flowRegion><flowPara
         id="flowPara4171">Eric Miller</flowPara></flowRoot>    <rect
       style="fill:none;fill-opacity:1;fill-rule:nonzero;stroke:#ff0000;stroke-width:0.29955468;stroke-miterlimit:4;stroke-dasharray:none;stroke-opacity:1"
       id="rect4256"
       width="269.70044"
       height="179.70044"
       x="0.14978027"
       y="872.5119"
       ry="10.253048" />
    <circle
       style="fill:none;fill-opacity:1;fill-rule:nonzero;stroke:#ff0000;stroke-width:0.25171068;stroke-miterlimit:4;stroke-dasharray:none;stroke-opacity:1"
       id="path4258"
       cx="17.001549"
       cy="890.66888"
       r="11.124145" />
    <circle
       style="fill:none;fill-opacity:1;fill-rule:nonzero;stroke:#ff0000;stroke-width:0.25171068;stroke-miterlimit:4;stroke-dasharray:none;stroke-opacity:1"
       id="path4258-6"
       cx="252.99844"
       cy="890.66888"
       r="11.124145" />
    <circle
       style="fill:none;fill-opacity:1;fill-rule:nonzero;stroke:#ff0000;stroke-width:0.25171068;stroke-miterlimit:4;stroke-dasharray:none;stroke-opacity:1"
       id="path4258-7"
       cx="17.001545"
       cy="1034.0554"
       r="11.124145" />
    <circle
       style="fill:none;fill-opacity:1;fill-rule:nonzero;stroke:#ff0000;stroke-width:0.25171068;stroke-miterlimit:4;stroke-dasharray:none;stroke-opacity:1"
       id="path4258-6-5"
       cx="252.99846"
       cy="1034.0554"
       r="11.124145" />
  </g>
</svg>
