  0
SECTION
  2
HEADER
  9
$ACADVER
  1
AC1014
  9
$HANDSEED
  5
FFFF
  9
$MEASUREMENT
 70
     1
  0
ENDSEC
  0
SECTION
  2
TABLES
  0
TABLE
  2
VPORT
  5
8
330
0
100
AcDbSymbolTable
 70
     4
  0
VPORT
  5
2E
330
8
100
AcDbSymbolTableRecord
100
AcDbViewportTableRecord
  2
*ACTIVE
 70
     0
 10
0.0
 20
0.0
 11
1.0
 21
1.0
 12
210.0
 22
148.5
 13
0.0
 23
0.0
 14
10.0
 24
10.0
 15
10.0
 25
10.0
 16
0.0
 26
0.0
 36
1.0
 17
0.0
 27
0.0
 37
0.0
 40
341.0
 41
1.24
 42
50.0
 43
0.0
 44
0.0
 50
0.0
 51
0.0
 71
     0
 72
   100
 73
     1
 74
     3
 75
     0
 76
     0
 77
     0
 78
     0
  0
ENDTAB
  0
TABLE
  2
LTYPE
  5
5
330
0
100
AcDbSymbolTable
 70
     1
  0
LTYPE
  5
14
330
5
100
AcDbSymbolTableRecord
100
AcDbLinetypeTableRecord
  2
BYBLOCK
 70
     0
  3

 72
    65
 73
     0
 40
0.0
  0
LTYPE
  5
15
330
5
100
AcDbSymbolTableRecord
100
AcDbLinetypeTableRecord
  2
BYLAYER
 70
     0
  3

 72
    65
 73
     0
 40
0.0
  0
LTYPE
  5
16
330
5
100
AcDbSymbolTableRecord
100
AcDbLinetypeTableRecord
  2
CONTINUOUS
 70
     0
  3
Solid line
 72
    65
 73
     0
 40
0.0
  0
ENDTAB
  0
TABLE
  2
LAYER
  5
2
100
AcDbSymbolTable
 70
5
  0
LAYER
  5
50
100
AcDbSymbolTableRecord
100
AcDbLayerTableRecord
  2
0
 70
0
  6
CONTINUOUS
  0
LAYER
  5
51
100
AcDbSymbolTableRecord
100
AcDbLayerTableRecord
  2
image
 70
0
  6
CONTINUOUS
  0
LAYER
  5
52
100
AcDbSymbolTableRecord
100
AcDbLayerTableRecord
  2
trace
 70
0
  6
CONTINUOUS
  0
LAYER
  5
53
100
AcDbSymbolTableRecord
100
AcDbLayerTableRecord
  2
trace_1
 70
0
  6
CONTINUOUS
  0
LAYER
  5
54
100
AcDbSymbolTableRecord
100
AcDbLayerTableRecord
  2
bounds
 70
0
  6
CONTINUOUS
  0
ENDTAB
  0
TABLE
  2
STYLE
  5
3
330
0
100
AcDbSymbolTable
 70
     1
  0
STYLE
  5
11
330
3
100
AcDbSymbolTableRecord
100
AcDbTextStyleTableRecord
  2
STANDARD
 70
     0
 40
0.0
 41
1.0
 50
0.0
 71
     0
 42
2.5
  3
txt
  4

  0
ENDTAB
  0
TABLE
  2
VIEW
  5
6
330
0
100
AcDbSymbolTable
 70
     0
  0
ENDTAB
  0
TABLE
  2
UCS
  5
7
330
0
100
AcDbSymbolTable
 70
     0
  0
ENDTAB
  0
TABLE
  2
APPID
  5
9
330
0
100
AcDbSymbolTable
 70
     2
  0
APPID
  5
12
330
9
100
AcDbSymbolTableRecord
100
AcDbRegAppTableRecord
  2
ACAD
 70
     0
  0
ENDTAB
  0
TABLE
  2
DIMSTYLE
  5
A
330
0
100
AcDbSymbolTable
 70
     1
  0
DIMSTYLE
105
27
330
A
100
AcDbSymbolTableRecord
100
AcDbDimStyleTableRecord
  2
ISO-25
 70
     0
  3

  4

  5

  6

  7

 40
1.0
 41
2.5
 42
0.625
 43
3.75
 44
1.25
 45
0.0
 46
0.0
 47
0.0
 48
0.0
140
2.5
141
2.5
142
0.0
143
0.03937007874016
144
1.0
145
0.0
146
1.0
147
0.625
 71
     0
 72
     0
 73
     0
 74
     0
 75
     0
 76
     0
 77
     1
 78
     8
170
     0
171
     3
172
     1
173
     0
174
     0
175
     0
176
     0
177
     0
178
     0
270
     2
271
     2
272
     2
273
     2
274
     3
340
11
275
     0
280
     0
281
     0
282
     0
283
     0
284
     8
285
     0
286
     0
287
     3
288
     0
  0
ENDTAB
  0
TABLE
  2
BLOCK_RECORD
  5
1
330
0
100
AcDbSymbolTable
 70
     1
  0
BLOCK_RECORD
  5
1F
330
1
100
AcDbSymbolTableRecord
100
AcDbBlockTableRecord
  2
*MODEL_SPACE
  0
BLOCK_RECORD
  5
1B
330
1
100
AcDbSymbolTableRecord
100
AcDbBlockTableRecord
  2
*PAPER_SPACE
  0
ENDTAB
  0
ENDSEC
  0
SECTION
  2
BLOCKS
  0
BLOCK
  5
20
330
1F
100
AcDbEntity
  8
0
100
AcDbBlockBegin
  2
*MODEL_SPACE
 70
     0
 10
0.0
 20
0.0
 30
0.0
  3
*MODEL_SPACE
  1

  0
ENDBLK
  5
21
330
1F
100
AcDbEntity
  8
0
100
AcDbBlockEnd
  0
BLOCK
  5
1C
330
1B
100
AcDbEntity
 67
     1
  8
0
100
AcDbBlockBegin
  2
*PAPER_SPACE
  1

  0
ENDBLK
  5
1D
330
1B
100
AcDbEntity
 67
     1
  8
0
100
AcDbBlockEnd
  0
ENDSEC
  0
SECTION
  2
ENTITIES
  0
SPLINE
  5
100
100
AcDbEntity
  8
trace
 62
7
100
AcDbSpline
 70
0
 71
3
 72
16
 73
12
 74
10
 40
0.000000
 40
0.000000
 40
0.000000
 40
0.000000
 40
0.205032
 40
0.356604
 40
0.509266
 40
0.676290
 40
0.824638
 40
0.925706
 40
1.049760
 40
1.212275
 40
1.293174
 40
1.293174
 40
1.293174
 40
1.293174
 10
2.284546
 20
4.447225
 30
0.0
 10
2.231355
 20
4.404319
 30
0.0
 10
2.138844
 20
4.329695
 30
0.0
 10
1.999991
 20
4.231460
 30
0.0
 10
1.856975
 20
4.163695
 30
0.0
 10
1.700929
 20
4.135391
 30
0.0
 10
1.562082
 20
4.149578
 30
0.0
 10
1.439536
 20
4.173881
 30
0.0
 10
1.320717
 20
4.226209
 30
0.0
 10
1.209174
 20
4.276361
 30
0.0
 10
1.135781
 20
4.310998
 30
0.0
 10
1.111389
 20
4.322510
 30
0.0
 11
2.284546
 21
4.447225
 31
0.0
 11
2.123415
 21
4.320437
 31
0.0
 11
1.997960
 21
4.235378
 31
0.0
 11
1.859151
 21
4.171834
 31
0.0
 11
1.694701
 21
4.142624
 31
0.0
 11
1.546785
 21
4.153924
 31
0.0
 11
1.448059
 21
4.175557
 31
0.0
 11
1.332666
 21
4.221097
 31
0.0
 11
1.184620
 21
4.288131
 31
0.0
 11
1.111389
 21
4.322510
 31
0.0
  0
SPLINE
  5
101
100
AcDbEntity
  8
trace
 62
7
100
AcDbSpline
 70
0
 71
3
 72
22
 73
18
 74
16
 40
0.000000
 40
0.000000
 40
0.000000
 40
0.000000
 40
0.086522
 40
0.255139
 40
0.369448
 40
0.448715
 40
0.574889
 40
0.731123
 40
1.046720
 40
1.470247
 40
1.767403
 40
2.046321
 40
2.480033
 40
2.991817
 40
3.470992
 40
3.821201
 40
4.064259
 40
4.064259
 40
4.064259
 40
4.064259
 10
0.348735
 20
3.630554
 30
0.0
 10
0.366188
 20
3.607592
 30
0.0
 10
0.417656
 20
3.539882
 30
0.0
 10
0.493026
 20
3.442547
 30
0.0
 10
0.562140
 20
3.343264
 30
0.0
 10
0.629135
 20
3.260917
 30
0.0
 10
0.689116
 20
3.151329
 30
0.0
 10
0.668958
 20
2.944365
 30
0.0
 10
0.540999
 20
2.674500
 30
0.0
 10
0.428071
 20
2.347877
 30
0.0
 10
0.321427
 20
2.031237
 30
0.0
 10
0.271576
 20
1.697781
 30
0.0
 10
0.261604
 20
1.284049
 30
0.0
 10
0.454806
 20
0.831127
 30
0.0
 10
0.783897
 20
0.513664
 30
0.0
 10
1.108577
 20
0.355390
 30
0.0
 10
1.299187
 20
0.302248
 30
0.0
 10
1.377279
 20
0.280477
 30
0.0
 11
0.348735
 21
3.630554
 31
0.0
 11
0.401162
 21
3.561725
 31
0.0
 11
0.502780
 21
3.427168
 31
0.0
 11
0.570089
 21
3.334778
 31
0.0
 11
0.617971
 21
3.271606
 31
0.0
 11
0.672882
 21
3.158008
 31
0.0
 11
0.668681
 21
3.001831
 31
0.0
 11
0.560998
 21
2.705173
 31
0.0
 11
0.414869
 21
2.307653
 31
0.0
 11
0.328267
 21
2.023397
 31
0.0
 11
0.283718
 21
1.748060
 31
0.0
 11
0.290840
 21
1.314406
 31
0.0
 11
0.488241
 21
0.842224
 31
0.0
 11
0.831425
 21
0.507810
 31
0.0
 11
1.144850
 21
0.351568
 31
0.0
 11
1.377279
 21
0.280477
 31
0.0
  0
SPLINE
  5
102
100
AcDbEntity
  8
trace
 62
7
100
AcDbSpline
 70
0
 71
3
 72
10
 73
6
 74
4
 40
0.000000
 40
0.000000
 40
0.000000
 40
0.000000
 40
0.262905
 40
0.540801
 40
0.937620
 40
0.937620
 40
0.937620
 40
0.937620
 10
1.377279
 20
0.280477
 30
0.0
 10
1.462556
 20
0.260304
 30
0.0
 10
1.637973
 20
0.218809
 30
0.0
 10
1.946260
 20
0.164399
 30
0.0
 10
2.159769
 20
0.092422
 30
0.0
 10
2.285339
 20
0.050089
 30
0.0
 11
1.377279
 21
0.280477
 31
0.0
 11
1.633677
 21
0.222349
 31
0.0
 11
1.905745
 21
0.165732
 31
0.0
 11
2.285339
 21
0.050089
 31
0.0
  0
SPLINE
  5
103
100
AcDbEntity
  8
trace
 62
7
100
AcDbSpline
 70
0
 71
3
 72
10
 73
6
 74
4
 40
0.000000
 40
0.000000
 40
0.000000
 40
0.000000
 40
0.396380
 40
0.673510
 40
0.935997
 40
0.935997
 40
0.935997
 40
0.935997
 10
2.285339
 20
0.050089
 30
0.0
 10
2.410785
 20
0.092358
 30
0.0
 10
2.623937
 20
0.164178
 30
0.0
 10
2.931851
 20
0.217680
 30
0.0
 10
3.106919
 20
0.258941
 30
0.0
 10
3.192078
 20
0.279012
 30
0.0
 11
2.285339
 21
0.050089
 31
0.0
 11
2.664591
 21
0.165352
 31
0.0
 11
2.936022
 21
0.221264
 31
0.0
 11
3.192078
 21
0.279012
 31
0.0
  0
LWPOLYLINE
  5
104
100
AcDbEntity
  8
trace
 62
7
100
AcDbPolyline
 90
2
 70
0
 10
1.111389
 20
4.322510
 30
0.0
 10
0.348735
 20
3.630554
 30
0.0
  0
SPLINE
  5
105
100
AcDbEntity
  8
trace
 62
7
100
AcDbSpline
 70
0
 71
3
 72
22
 73
18
 74
16
 40
0.000000
 40
0.000000
 40
0.000000
 40
0.000000
 40
0.243054
 40
0.593259
 40
1.072434
 40
1.584218
 40
2.017930
 40
2.296848
 40
2.593997
 40
3.017512
 40
3.333102
 40
3.489342
 40
3.615519
 40
3.694788
 40
3.809092
 40
3.977702
 40
4.064220
 40
4.064220
 40
4.064220
 40
4.064220
 10
3.192078
 20
0.279012
 30
0.0
 10
3.270168
 20
0.300785
 30
0.0
 10
3.460774
 20
0.353930
 30
0.0
 10
3.785444
 20
0.512218
 30
0.0
 10
4.114528
 20
0.829683
 30
0.0
 10
4.307732
 20
1.282604
 30
0.0
 10
4.297760
 20
1.696337
 30
0.0
 10
4.247908
 20
2.029790
 30
0.0
 10
4.141272
 20
2.346426
 30
0.0
 10
4.028349
 20
2.673041
 30
0.0
 10
3.900399
 20
2.942906
 30
0.0
 10
3.880237
 20
3.149867
 30
0.0
 10
3.940207
 20
3.259465
 30
0.0
 10
4.007192
 20
3.341820
 30
0.0
 10
4.076311
 20
3.441095
 30
0.0
 10
4.151680
 20
3.538424
 30
0.0
 10
4.203148
 20
3.606129
 30
0.0
 10
4.220601
 20
3.629089
 30
0.0
 11
3.192078
 21
0.279012
 31
0.0
 11
3.424501
 21
0.350109
 31
0.0
 11
3.737916
 21
0.506360
 31
0.0
 11
4.081095
 21
0.840780
 31
0.0
 11
4.278496
 21
1.312962
 31
0.0
 11
4.285618
 21
1.746615
 31
0.0
 11
4.241068
 21
2.021952
 31
0.0
 11
4.154472
 21
2.306204
 31
0.0
 11
4.008353
 21
2.703714
 31
0.0
 11
3.900675
 21
3.000366
 31
0.0
 11
3.896469
 21
3.156549
 31
0.0
 11
3.951370
 21
3.270157
 31
0.0
 11
3.999247
 21
3.333333
 31
0.0
 11
4.066556
 21
3.425718
 31
0.0
 11
4.168173
 21
3.560266
 31
0.0
 11
4.220601
 21
3.629089
 31
0.0
  0
LWPOLYLINE
  5
106
100
AcDbEntity
  8
trace
 62
7
100
AcDbPolyline
 90
2
 70
0
 10
4.220601
 20
3.629089
 30
0.0
 10
3.457967
 20
4.321065
 30
0.0
  0
SPLINE
  5
107
100
AcDbEntity
  8
trace
 62
7
100
AcDbSpline
 70
0
 71
3
 72
16
 73
12
 74
10
 40
0.000000
 40
0.000000
 40
0.000000
 40
0.000000
 40
0.080903
 40
0.243428
 40
0.367487
 40
0.468555
 40
0.616903
 40
0.783926
 40
0.936803
 40
1.088863
 40
1.294176
 40
1.294176
 40
1.294176
 40
1.294176
 10
3.457967
 20
4.321065
 30
0.0
 10
3.433573
 20
4.309553
 30
0.0
 10
3.360176
 20
4.274917
 30
0.0
 10
3.248626
 20
4.224764
 30
0.0
 10
3.129801
 20
4.172438
 30
0.0
 10
3.007253
 20
4.148130
 30
0.0
 10
2.868413
 20
4.133964
 30
0.0
 10
2.712265
 20
4.162192
 30
0.0
 10
2.569153
 20
4.230394
 30
0.0
 10
2.430454
 20
4.329403
 30
0.0
 10
2.337785
 20
4.404234
 30
0.0
 10
2.284546
 20
4.447225
 30
0.0
 11
3.457967
 21
4.321065
 31
0.0
 11
3.384731
 21
4.286687
 31
0.0
 11
3.236675
 21
4.219652
 31
0.0
 11
3.121277
 21
4.174113
 31
0.0
 11
3.022551
 21
4.152480
 31
0.0
 11
2.874635
 21
4.141180
 31
0.0
 11
2.710185
 21
4.170390
 31
0.0
 11
2.571312
 21
4.234308
 31
0.0
 11
2.445740
 21
4.320062
 31
0.0
 11
2.284546
 21
4.447225
 31
0.0
  0
LWPOLYLINE
  5
108
100
AcDbEntity
  8
trace
 62
7
100
AcDbPolyline
 90
1
 70
1
 10
2.284546
 20
4.447225
 30
0.0
  0
SPLINE
  5
109
100
AcDbEntity
  8
trace
 62
7
100
AcDbSpline
 70
0
 71
3
 72
25
 73
21
 74
19
 40
0.000000
 40
0.000000
 40
0.000000
 40
0.000000
 40
0.029422
 40
0.053195
 40
0.071897
 40
0.088668
 40
0.106578
 40
0.126641
 40
0.152376
 40
0.175737
 40
0.198741
 40
0.222510
 40
0.247966
 40
0.276683
 40
0.290663
 40
0.304728
 40
0.318959
 40
0.333352
 40
0.347957
 40
0.362843
 40
0.362843
 40
0.362843
 40
0.362843
 10
1.482392
 20
3.319232
 30
0.0
 10
1.472733
 20
3.317477
 30
0.0
 10
1.455269
 20
3.314304
 30
0.0
 10
1.431259
 20
3.313223
 30
0.0
 10
1.411456
 20
3.315868
 30
0.0
 10
1.395219
 20
3.323781
 30
0.0
 10
1.381301
 20
3.335839
 30
0.0
 10
1.368540
 20
3.352944
 30
0.0
 10
1.358088
 20
3.373732
 30
0.0
 10
1.353552
 20
3.397720
 30
0.0
 10
1.356709
 20
3.421264
 30
0.0
 10
1.366829
 20
3.443474
 30
0.0
 10
1.383854
 20
3.463463
 30
0.0
 10
1.402161
 20
3.477162
 30
0.0
 10
1.418538
 20
3.486655
 30
0.0
 10
1.431251
 20
3.492775
 30
0.0
 10
1.444535
 20
3.497907
 30
0.0
 10
1.458263
 20
3.502311
 30
0.0
 10
1.472489
 20
3.505797
 30
0.0
 10
1.482204
 20
3.507321
 30
0.0
 10
1.487108
 20
3.508091
 30
0.0
 11
1.482392
 21
3.319232
 31
0.0
 11
1.453323
 21
3.314693
 31
0.0
 11
1.429561
 21
3.313941
 31
0.0
 11
1.411107
 21
3.316976
 31
0.0
 11
1.395970
 21
3.324196
 31
0.0
 11
1.382304
 21
3.335772
 31
0.0
 11
1.370109
 21
3.351703
 31
0.0
 11
1.358919
 21
3.374879
 31
0.0
 11
1.354800
 21
3.397874
 31
0.0
 11
1.357751
 21
3.420688
 31
0.0
 11
1.367492
 21
3.442369
 31
0.0
 11
1.383743
 21
3.461963
 31
0.0
 11
1.406504
 21
3.479471
 31
0.0
 11
1.418599
 21
3.486484
 31
0.0
 11
1.431274
 21
3.492579
 31
0.0
 11
1.444530
 21
3.497758
 31
0.0
 11
1.458243
 21
3.502129
 31
0.0
 11
1.472435
 21
3.505574
 31
0.0
 11
1.487108
 21
3.508091
 31
0.0
  0
LWPOLYLINE
  5
10a
100
AcDbEntity
  8
trace
 62
7
100
AcDbPolyline
 90
2
 70
0
 10
1.487108
 20
3.508091
 30
0.0
 10
1.518442
 20
3.458579
 30
0.0
  0
SPLINE
  5
10b
100
AcDbEntity
  8
trace
 62
7
100
AcDbSpline
 70
0
 71
3
 72
25
 73
21
 74
19
 40
0.000000
 40
0.000000
 40
0.000000
 40
0.000000
 40
0.015419
 40
0.030223
 40
0.044534
 40
0.058359
 40
0.071728
 40
0.084818
 40
0.098236
 40
0.109734
 40
0.119840
 40
0.129113
 40
0.138306
 40
0.148403
 40
0.156392
 40
0.163910
 40
0.171519
 40
0.181083
 40
0.194337
 40
0.211464
 40
0.211464
 40
0.211464
 40
0.211464
 10
1.518442
 20
3.458579
 30
0.0
 10
1.513301
 20
3.458721
 30
0.0
 10
1.503224
 20
3.458998
 30
0.0
 10
1.488399
 20
3.457799
 30
0.0
 10
1.474271
 20
3.455388
 30
0.0
 10
1.460918
 20
3.451665
 30
0.0
 10
1.448439
 20
3.446623
 30
0.0
 10
1.436771
 20
3.440197
 30
0.0
 10
1.426460
 20
3.432758
 30
0.0
 10
1.418302
 20
3.424285
 30
0.0
 10
1.413127
 20
3.415241
 30
0.0
 10
1.411060
 20
3.405759
 30
0.0
 10
1.412412
 20
3.396147
 30
0.0
 10
1.416422
 20
3.387865
 30
0.0
 10
1.421731
 20
3.381086
 30
0.0
 10
1.428042
 20
3.376500
 30
0.0
 10
1.435881
 20
3.373593
 30
0.0
 10
1.446136
 20
3.373389
 30
0.0
 10
1.459377
 20
3.374734
 30
0.0
 10
1.469319
 20
3.376712
 30
0.0
 10
1.474923
 20
3.377828
 30
0.0
 11
1.518442
 21
3.458579
 31
0.0
 11
1.503024
 21
3.458720
 31
0.0
 11
1.488264
 21
3.457566
 31
0.0
 11
1.474164
 21
3.455116
 31
0.0
 11
1.460855
 21
3.451375
 31
0.0
 11
1.448469
 21
3.446345
 31
0.0
 11
1.437005
 21
3.440026
 31
0.0
 11
1.426217
 21
3.432048
 31
0.0
 11
1.418378
 21
3.423637
 31
0.0
 11
1.413489
 21
3.414791
 31
0.0
 11
1.411611
 21
3.405711
 31
0.0
 11
1.412806
 21
3.396595
 31
0.0
 11
1.417072
 21
3.387444
 31
0.0
 11
1.422099
 21
3.381235
 31
0.0
 11
1.428184
 21
3.376819
 31
0.0
 11
1.435327
 21
3.374197
 31
0.0
 11
1.444870
 21
3.373575
 31
0.0
 11
1.458069
 21
3.374785
 31
0.0
 11
1.474923
 21
3.377828
 31
0.0
  0
LWPOLYLINE
  5
10c
100
AcDbEntity
  8
trace
 62
7
100
AcDbPolyline
 90
2
 70
0
 10
1.474923
 20
3.377828
 30
0.0
 10
1.501979
 20
3.383393
 30
0.0
  0
SPLINE
  5
10d
100
AcDbEntity
  8
trace
 62
7
100
AcDbSpline
 70
0
 71
3
 72
25
 73
21
 74
19
 40
0.000000
 40
0.000000
 40
0.000000
 40
0.000000
 40
0.024378
 40
0.045914
 40
0.065352
 40
0.084077
 40
0.103597
 40
0.124911
 40
0.153150
 40
0.177807
 40
0.201155
 40
0.225734
 40
0.254082
 40
0.287700
 40
0.302790
 40
0.318024
 40
0.333496
 40
0.348951
 40
0.364461
 40
0.380122
 40
0.380122
 40
0.380122
 40
0.380122
 10
1.501979
 20
3.383393
 30
0.0
 10
1.509989
 20
3.384845
 30
0.0
 10
1.525077
 20
3.387579
 30
0.0
 10
1.547010
 20
3.387262
 30
0.0
 10
1.566619
 20
3.382992
 30
0.0
 10
1.583953
 20
3.374197
 30
0.0
 10
1.599092
 20
3.361073
 30
0.0
 10
1.612930
 20
3.342535
 30
0.0
 10
1.624285
 20
3.320326
 30
0.0
 10
1.629531
 20
3.295040
 30
0.0
 10
1.626051
 20
3.270578
 30
0.0
 10
1.613917
 20
3.247763
 30
0.0
 10
1.593925
 20
3.226649
 30
0.0
 10
1.573063
 20
3.211469
 30
0.0
 10
1.554633
 20
3.200738
 30
0.0
 10
1.540821
 20
3.194190
 30
0.0
 10
1.526428
 20
3.188713
 30
0.0
 10
1.511613
 20
3.184189
 30
0.0
 10
1.496419
 20
3.180800
 30
0.0
 10
1.486102
 20
3.179531
 30
0.0
 10
1.480918
 20
3.178893
 30
0.0
 11
1.501979
 21
3.383393
 31
0.0
 11
1.526101
 21
3.386915
 31
0.0
 11
1.547634
 21
3.386497
 31
0.0
 11
1.566576
 21
3.382140
 31
0.0
 11
1.583290
 21
3.373696
 31
0.0
 11
1.598134
 21
3.361020
 31
0.0
 11
1.611109
 21
3.344111
 31
0.0
 11
1.623564
 21
3.318767
 31
0.0
 11
1.628143
 21
3.294538
 31
0.0
 11
1.624846
 21
3.271424
 31
0.0
 11
1.613696
 21
3.249520
 31
0.0
 11
1.594627
 21
3.228544
 31
0.0
 11
1.567641
 21
3.208496
 31
0.0
 11
1.554574
 21
3.200948
 31
0.0
 11
1.540816
 21
3.194408
 31
0.0
 11
1.526366
 21
3.188875
 31
0.0
 11
1.511578
 21
3.184385
 31
0.0
 11
1.496429
 21
3.181058
 31
0.0
 11
1.480918
 21
3.178893
 31
0.0
  0
LWPOLYLINE
  5
10e
100
AcDbEntity
  8
trace
 62
7
100
AcDbPolyline
 90
2
 70
0
 10
1.480918
 20
3.178893
 30
0.0
 10
1.447735
 20
3.231327
 30
0.0
  0
LWPOLYLINE
  5
10f
100
AcDbEntity
  8
trace
 62
7
100
AcDbPolyline
 90
2
 70
0
 10
1.513304
 20
3.325552
 30
0.0
 10
1.482392
 20
3.319232
 30
0.0
  0
LWPOLYLINE
  5
110
100
AcDbEntity
  8
trace
 62
7
100
AcDbPolyline
 90
3
 70
1
 10
1.746347
 20
3.573972
 30
0.0
 10
1.759548
 20
3.447173
 30
0.0
 10
1.813295
 20
3.465429
 30
0.0
  0
LWPOLYLINE
  5
111
100
AcDbEntity
  8
trace
 62
7
100
AcDbPolyline
 90
8
 70
1
 10
1.694005
 20
3.614208
 30
0.0
 10
1.763548
 20
3.637829
 30
0.0
 10
1.938873
 20
3.376584
 30
0.0
 10
1.882043
 20
3.357281
 30
0.0
 10
1.840176
 20
3.422346
 30
0.0
 10
1.764083
 20
3.396501
 30
0.0
 10
1.770889
 20
3.319527
 30
0.0
 10
1.714060
 20
3.300225
 30
0.0
  0
LWPOLYLINE
  5
112
100
AcDbEntity
  8
trace
 62
7
100
AcDbPolyline
 90
10
 70
1
 10
2.170872
 20
3.661552
 30
0.0
 10
2.042632
 20
3.645908
 30
0.0
 10
2.050565
 20
3.580879
 30
0.0
 10
2.167294
 20
3.595119
 30
0.0
 10
2.173699
 20
3.542611
 30
0.0
 10
2.056970
 20
3.528371
 30
0.0
 10
2.073008
 20
3.396899
 30
0.0
 10
2.013432
 20
3.389631
 30
0.0
 10
1.976650
 20
3.691148
 30
0.0
 10
2.164466
 20
3.714060
 30
0.0
  0
LWPOLYLINE
  5
113
100
AcDbEntity
  8
trace
 62
7
100
AcDbPolyline
 90
12
 70
1
 10
2.480548
 20
3.400840
 30
0.0
 10
2.291785
 20
3.413823
 30
0.0
 10
2.312628
 20
3.716859
 30
0.0
 10
2.501391
 20
3.703876
 30
0.0
 10
2.497761
 20
3.651103
 30
0.0
 10
2.368874
 20
3.659968
 30
0.0
 10
2.364379
 20
3.594611
 30
0.0
 10
2.481088
 20
3.586584
 30
0.0
 10
2.477458
 20
3.533812
 30
0.0
 10
2.360750
 20
3.541839
 30
0.0
 10
2.355291
 20
3.462477
 30
0.0
 10
2.484178
 20
3.453613
 30
0.0
  0
LWPOLYLINE
  5
114
100
AcDbEntity
  8
trace
 62
7
100
AcDbPolyline
 90
8
 70
1
 10
2.689659
 20
3.353629
 30
0.0
 10
2.631705
 20
3.369233
 30
0.0
 10
2.697031
 20
3.611854
 30
0.0
 10
2.622574
 20
3.631901
 30
0.0
 10
2.636221
 20
3.682586
 30
0.0
 10
2.843088
 20
3.626887
 30
0.0
 10
2.829441
 20
3.576202
 30
0.0
 10
2.754984
 20
3.596249
 30
0.0
  0
SPLINE
  5
115
100
AcDbEntity
  8
trace
 62
7
100
AcDbSpline
 70
0
 71
3
 72
25
 73
21
 74
19
 40
0.000000
 40
0.000000
 40
0.000000
 40
0.000000
 40
0.018947
 40
0.036581
 40
0.053034
 40
0.068722
 40
0.083831
 40
0.098577
 40
0.112298
 40
0.124231
 40
0.135009
 40
0.145242
 40
0.155509
 40
0.166781
 40
0.175531
 40
0.183916
 40
0.192389
 40
0.201342
 40
0.210898
 40
0.221375
 40
0.221375
 40
0.221375
 40
0.221375
 10
1.447735
 20
3.231327
 30
0.0
 10
1.454050
 20
3.231105
 30
0.0
 10
1.466242
 20
3.230676
 30
0.0
 10
1.483913
 20
3.231800
 30
0.0
 10
1.500342
 20
3.234295
 30
0.0
 10
1.515583
 20
3.238403
 30
0.0
 10
1.529729
 20
3.244010
 30
0.0
 10
1.542515
 20
3.250972
 30
0.0
 10
1.553447
 20
3.258942
 30
0.0
 10
1.561691
 20
3.268001
 30
0.0
 10
1.566837
 20
3.277875
 30
0.0
 10
1.568566
 20
3.288350
 30
0.0
 10
1.566793
 20
3.298967
 30
0.0
 10
1.562287
 20
3.308129
 30
0.0
 10
1.556468
 20
3.315672
 30
0.0
 10
1.549757
 20
3.321091
 30
0.0
 10
1.541893
 20
3.324755
 30
0.0
 10
1.533088
 20
3.326833
 30
0.0
 10
1.523359
 20
3.327201
 30
0.0
 10
1.516757
 20
3.326118
 30
0.0
 10
1.513304
 20
3.325552
 30
0.0
 11
1.447735
 21
3.231327
 31
0.0
 11
1.466679
 21
3.230983
 31
0.0
 11
1.484278
 21
3.232089
 31
0.0
 11
1.500531
 21
3.234644
 31
0.0
 11
1.515674
 21
3.238743
 31
0.0
 11
1.529711
 21
3.244336
 31
0.0
 11
1.542641
 21
3.251422
 31
0.0
 11
1.553606
 21
3.259672
 31
0.0
 11
1.561513
 21
3.268609
 31
0.0
 11
1.566364
 21
3.278233
 31
0.0
 11
1.567996
 21
3.288335
 31
0.0
 11
1.566394
 21
3.298477
 31
0.0
 11
1.561556
 21
3.308657
 31
0.0
 11
1.556138
 21
3.315528
 31
0.0
 11
1.549602
 21
3.320782
 31
0.0
 11
1.541950
 21
3.324419
 31
0.0
 11
1.533244
 21
3.326508
 31
0.0
 11
1.523696
 21
3.326885
 31
0.0
 11
1.513304
 21
3.325552
 31
0.0
  0
LWPOLYLINE
  5
116
100
AcDbEntity
  8
trace
 62
7
100
AcDbPolyline
 90
9
 70
1
 10
2.952330
 20
3.587406
 30
0.0
 10
3.009874
 20
3.557835
 30
0.0
 10
3.006556
 20
3.422295
 30
0.0
 10
3.115009
 20
3.503807
 30
0.0
 10
3.172552
 20
3.474236
 30
0.0
 10
3.004975
 20
3.353341
 30
0.0
 10
2.950296
 20
3.246939
 30
0.0
 10
2.896915
 20
3.274371
 30
0.0
 10
2.951593
 20
3.380773
 30
0.0
  0
SPLINE
  5
117
100
AcDbEntity
  8
trace
 62
7
100
AcDbSpline
 70
0
 71
3
 72
31
 73
27
 74
25
 40
0.000000
 40
0.000000
 40
0.000000
 40
0.000000
 40
0.014213
 40
0.028089
 40
0.044156
 40
0.064661
 40
0.091276
 40
0.124414
 40
0.157462
 40
0.184078
 40
0.204669
 40
0.220640
 40
0.234476
 40
0.248685
 40
0.263005
 40
0.276896
 40
0.292878
 40
0.313470
 40
0.340085
 40
0.373133
 40
0.406271
 40
0.432886
 40
0.453391
 40
0.469470
 40
0.483400
 40
0.497725
 40
0.497725
 40
0.497725
 40
0.497725
 10
1.396463
 20
1.171048
 30
0.0
 10
1.392283
 20
1.173453
 30
0.0
 10
1.384022
 20
1.178207
 30
0.0
 10
1.368619
 20
1.177564
 30
0.0
 10
1.353145
 20
1.170446
 30
0.0
 10
1.336728
 20
1.157020
 30
0.0
 10
1.318656
 20
1.137235
 30
0.0
 10
1.299940
 20
1.112572
 30
0.0
 10
1.282628
 20
1.086906
 30
0.0
 10
1.269753
 20
1.063400
 30
0.0
 10
1.262283
 20
1.043582
 30
0.0
 10
1.260569
 20
1.026566
 30
0.0
 10
1.265140
 20
1.012077
 30
0.0
 10
1.275358
 20
1.001779
 30
0.0
 10
1.288411
 20
0.995413
 30
0.0
 10
1.303661
 20
0.995697
 30
0.0
 10
1.319248
 20
1.002805
 30
0.0
 10
1.335596
 20
1.016274
 30
0.0
 10
1.353696
 20
1.036040
 30
0.0
 10
1.372407
 20
1.060705
 30
0.0
 10
1.389716
 20
1.086375
 30
0.0
 10
1.402613
 20
1.109864
 30
0.0
 10
1.410034
 20
1.129734
 30
0.0
 10
1.411767
 20
1.146708
 30
0.0
 10
1.407332
 20
1.161535
 30
0.0
 10
1.400119
 20
1.167848
 30
0.0
 10
1.396463
 20
1.171049
 30
0.0
 11
1.396463
 21
1.171048
 31
0.0
 11
1.383529
 21
1.176942
 31
0.0
 11
1.369654
 21
1.176782
 31
0.0
 11
1.354838
 21
1.170568
 31
0.0
 11
1.338625
 21
1.158015
 31
0.0
 11
1.320403
 21
1.138615
 31
0.0
 11
1.300172
 21
1.112369
 31
0.0
 11
1.281906
 21
1.084828
 31
0.0
 11
1.269420
 21
1.061323
 31
0.0
 11
1.262713
 21
1.041855
 31
0.0
 11
1.261676
 21
1.025918
 31
0.0
 11
1.266039
 21
1.012788
 31
0.0
 11
1.275802
 21
1.002464
 31
0.0
 11
1.288814
 21
0.996486
 31
0.0
 11
1.302705
 21
0.996552
 31
0.0
 11
1.317474
 21
1.002661
 31
0.0
 11
1.333740
 21
1.015288
 31
0.0
 11
1.351961
 21
1.034688
 31
0.0
 11
1.372139
 21
1.060860
 31
0.0
 11
1.390458
 21
1.088474
 31
0.0
 11
1.402945
 21
1.111979
 31
0.0
 11
1.409599
 21
1.131374
 31
0.0
 11
1.410683
 21
1.147416
 31
0.0
 11
1.406305
 21
1.160641
 31
0.0
 11
1.396463
 21
1.171049
 31
0.0
  0
LWPOLYLINE
  5
118
100
AcDbEntity
  8
trace
 62
7
100
AcDbPolyline
 90
1
 70
1
 10
1.396463
 20
1.171049
 30
0.0
  0
LWPOLYLINE
  5
119
100
AcDbEntity
  8
trace
 62
7
100
AcDbPolyline
 90
1
 70
1
 10
1.249382
 20
1.148721
 30
0.0
  0
LWPOLYLINE
  5
11a
100
AcDbEntity
  8
trace
 62
7
100
AcDbPolyline
 90
10
 70
1
 10
1.764931
 20
0.979704
 30
0.0
 10
1.645095
 20
1.027970
 30
0.0
 10
1.620620
 20
0.967202
 30
0.0
 10
1.729700
 20
0.923269
 30
0.0
 10
1.709937
 20
0.874202
 30
0.0
 10
1.600858
 20
0.918136
 30
0.0
 10
1.551376
 20
0.795280
 30
0.0
 10
1.495704
 20
0.817702
 30
0.0
 10
1.609185
 20
1.099459
 30
0.0
 10
1.784694
 20
1.028771
 30
0.0
  0
LWPOLYLINE
  5
11b
100
AcDbEntity
  8
trace
 62
7
100
AcDbPolyline
 90
10
 70
1
 10
2.067169
 20
0.911817
 30
0.0
 10
1.940322
 20
0.936316
 30
0.0
 10
1.927899
 20
0.871993
 30
0.0
 10
2.043360
 20
0.849694
 30
0.0
 10
2.033329
 20
0.797757
 30
0.0
 10
1.917868
 20
0.820056
 30
0.0
 10
1.892753
 20
0.690013
 30
0.0
 10
1.833824
 20
0.701394
 30
0.0
 10
1.891423
 20
0.999634
 30
0.0
 10
2.077199
 20
0.963755
 30
0.0
  0
SPLINE
  5
11c
100
AcDbEntity
  8
trace
 62
7
100
AcDbSpline
 70
0
 71
3
 72
31
 73
27
 74
25
 40
0.000000
 40
0.000000
 40
0.000000
 40
0.000000
 40
0.047814
 40
0.088087
 40
0.122321
 40
0.152769
 40
0.182491
 40
0.215074
 40
0.247747
 40
0.277469
 40
0.307855
 40
0.342138
 40
0.382427
 40
0.430242
 40
0.477944
 40
0.518166
 40
0.552429
 40
0.582815
 40
0.612537
 40
0.645210
 40
0.677794
 40
0.707516
 40
0.737963
 40
0.772177
 40
0.812384
 40
0.860085
 40
0.860085
 40
0.860085
 40
0.860085
 10
1.249382
 20
1.148721
 30
0.0
 10
1.259047
 20
1.161426
 30
0.0
 10
1.276852
 20
1.184834
 30
0.0
 10
1.307264
 20
1.212400
 30
0.0
 10
1.337937
 20
1.230019
 30
0.0
 10
1.369366
 20
1.236628
 30
0.0
 10
1.400557
 20
1.231443
 30
0.0
 10
1.428604
 20
1.215900
 30
0.0
 10
1.452359
 20
1.194375
 30
0.0
 10
1.467375
 20
1.166517
 30
0.0
 10
1.471095
 20
1.134636
 30
0.0
 10
1.464535
 20
1.099875
 30
0.0
 10
1.448092
 20
1.062274
 30
0.0
 10
1.423622
 20
1.024058
 30
0.0
 10
1.395353
 20
0.988588
 30
0.0
 10
1.365098
 20
0.960957
 30
0.0
 10
1.334330
 20
0.943563
 30
0.0
 10
1.302961
 20
0.936802
 30
0.0
 10
1.271748
 20
0.942032
 30
0.0
 10
1.243712
 20
0.957575
 30
0.0
 10
1.219955
 20
0.979111
 30
0.0
 10
1.204987
 20
1.006962
 30
0.0
 10
1.201110
 20
1.038837
 30
0.0
 10
1.207875
 20
1.073526
 30
0.0
 10
1.224116
 20
1.111151
 30
0.0
 10
1.240495
 20
1.135506
 30
0.0
 10
1.249382
 20
1.148721
 30
0.0
 11
1.249382
 21
1.148721
 31
0.0
 11
1.279583
 21
1.185790
 31
0.0
 11
1.309715
 21
1.212510
 31
0.0
 11
1.339781
 21
1.228881
 31
0.0
 11
1.369660
 21
1.234739
 31
0.0
 11
1.399014
 21
1.230075
 31
0.0
 11
1.427842
 21
1.214890
 31
0.0
 11
1.451587
 21
1.192447
 31
0.0
 11
1.465468
 21
1.166165
 31
0.0
 11
1.469487
 21
1.136046
 31
0.0
 11
1.463778
 21
1.102242
 31
0.0
 11
1.448259
 21
1.065062
 31
0.0
 11
1.422930
 21
1.024507
 31
0.0
 11
1.392777
 21
0.987544
 31
0.0
 11
1.362628
 21
0.960918
 31
0.0
 11
1.332484
 21
0.944631
 31
0.0
 11
1.302679
 21
0.938721
 31
0.0
 11
1.273325
 21
0.943384
 31
0.0
 11
1.244423
 21
0.958622
 31
0.0
 11
1.220751
 21
0.981013
 31
0.0
 11
1.206870
 21
1.007294
 31
0.0
 11
1.202778
 21
1.037466
 31
0.0
 11
1.208566
 21
1.071186
 31
0.0
 11
1.224100
 21
1.108271
 31
0.0
 11
1.249382
 21
1.148721
 31
0.0
  0
LWPOLYLINE
  5
11d
100
AcDbEntity
  8
trace
 62
7
100
AcDbPolyline
 90
12
 70
1
 10
2.181863
 20
0.900957
 30
0.0
 10
2.183052
 20
0.953841
 30
0.0
 10
2.363874
 20
0.949774
 30
0.0
 10
2.362685
 20
0.896890
 30
0.0
 10
2.302275
 20
0.898249
 30
0.0
 10
2.297824
 20
0.700342
 30
0.0
 10
2.358234
 20
0.698983
 30
0.0
 10
2.357044
 20
0.646099
 30
0.0
 10
2.176223
 20
0.650166
 30
0.0
 10
2.177412
 20
0.703050
 30
0.0
 10
2.237821
 20
0.701691
 30
0.0
 10
2.242273
 20
0.899599
 30
0.0
  0
SPLINE
  5
11e
100
AcDbEntity
  8
trace
 62
7
100
AcDbSpline
 70
0
 71
3
 72
31
 73
27
 74
25
 40
0.000000
 40
0.000000
 40
0.000000
 40
0.000000
 40
0.010640
 40
0.021260
 40
0.031933
 40
0.042751
 40
0.053805
 40
0.065160
 40
0.103156
 40
0.137208
 40
0.170687
 40
0.206513
 40
0.246971
 40
0.294106
 40
0.341353
 40
0.381876
 40
0.417722
 40
0.451201
 40
0.485253
 40
0.523249
 40
0.534627
 40
0.545748
 40
0.556677
 40
0.567415
 40
0.577972
 40
0.588428
 40
0.588428
 40
0.588428
 40
0.588428
 10
2.704300
 20
0.690218
 30
0.0
 10
2.701355
 20
0.688237
 30
0.0
 10
2.695471
 20
0.684281
 30
0.0
 10
2.686052
 20
0.679283
 30
0.0
 10
2.676234
 20
0.674997
 30
0.0
 10
2.665955
 20
0.671493
 30
0.0
 10
2.655213
 20
0.668743
 30
0.0
 10
2.635378
 20
0.665262
 30
0.0
 10
2.607270
 20
0.664160
 30
0.0
 10
2.572629
 20
0.673185
 30
0.0
 10
2.543699
 20
0.693095
 30
0.0
 10
2.521209
 20
0.722587
 30
0.0
 10
2.505295
 20
0.760895
 30
0.0
 10
2.496170
 20
0.805075
 30
0.0
 10
2.492687
 20
0.850072
 30
0.0
 10
2.497341
 20
0.891359
 30
0.0
 10
2.510771
 20
0.925964
 30
0.0
 10
2.533055
 20
0.953117
 30
0.0
 10
2.563836
 20
0.971391
 30
0.0
 10
2.591156
 20
0.978125
 30
0.0
 10
2.611208
 20
0.980281
 30
0.0
 10
2.622358
 20
0.980624
 30
0.0
 10
2.633288
 20
0.980126
 30
0.0
 10
2.643950
 20
0.978751
 30
0.0
 10
2.654325
 20
0.976559
 30
0.0
 10
2.660977
 20
0.974350
 30
0.0
 10
2.664287
 20
0.973251
 30
0.0
 11
2.704300
 21
0.690218
 31
0.0
 11
2.695369
 21
0.684435
 31
0.0
 11
2.686011
 21
0.679413
 31
0.0
 11
2.676225
 21
0.675153
 31
0.0
 11
2.665990
 21
0.671651
 31
0.0
 11
2.655282
 21
0.668905
 31
0.0
 11
2.644103
 21
0.666913
 31
0.0
 11
2.606116
 21
0.666086
 31
0.0
 11
2.573271
 21
0.675073
 31
0.0
 11
2.545569
 21
0.693873
 31
0.0
 11
2.523436
 21
0.722044
 31
0.0
 11
2.507301
 21
0.759146
 31
0.0
 11
2.497163
 21
0.805177
 31
0.0
 11
2.494127
 21
0.852326
 31
0.0
 11
2.499336
 21
0.892513
 31
0.0
 11
2.512789
 21
0.925739
 31
0.0
 11
2.534195
 21
0.951481
 31
0.0
 11
2.563262
 21
0.969220
 31
0.0
 11
2.599989
 21
0.978956
 31
0.0
 11
2.611305
 21
0.980144
 31
0.0
 11
2.622421
 21
0.980483
 31
0.0
 11
2.633338
 21
0.979972
 31
0.0
 11
2.643988
 21
0.978601
 31
0.0
 11
2.654304
 21
0.976361
 31
0.0
 11
2.664287
 21
0.973251
 31
0.0
  0
LWPOLYLINE
  5
11f
100
AcDbEntity
  8
trace
 62
7
100
AcDbPolyline
 90
2
 70
0
 10
2.664287
 20
0.973251
 30
0.0
 10
2.673628
 20
0.907177
 30
0.0
  0
LWPOLYLINE
  5
120
100
AcDbEntity
  8
trace
 62
7
100
AcDbPolyline
 90
2
 70
0
 10
2.694959
 20
0.756293
 30
0.0
 10
2.704300
 20
0.690218
 30
0.0
  0
SPLINE
  5
121
100
AcDbEntity
  8
trace
 62
7
100
AcDbSpline
 70
0
 71
3
 72
31
 73
27
 74
25
 40
0.000000
 40
0.000000
 40
0.000000
 40
0.000000
 40
0.013378
 40
0.025568
 40
0.036711
 40
0.047144
 40
0.057361
 40
0.067583
 40
0.087980
 40
0.106757
 40
0.126320
 40
0.148533
 40
0.174963
 40
0.206507
 40
0.237961
 40
0.264391
 40
0.286686
 40
0.306165
 40
0.324911
 40
0.345305
 40
0.355525
 40
0.365728
 40
0.376121
 40
0.387317
 40
0.399545
 40
0.412938
 40
0.412938
 40
0.412938
 40
0.412938
 10
2.673628
 20
0.907177
 30
0.0
 10
2.669899
 20
0.909627
 30
0.0
 10
2.662773
 20
0.914311
 30
0.0
 10
2.651808
 20
0.919820
 30
0.0
 10
2.641195
 20
0.923636
 30
0.0
 10
2.630855
 20
0.926087
 30
0.0
 10
2.620550
 20
0.926917
 30
0.0
 10
2.606948
 20
0.925954
 30
0.0
 10
2.590778
 20
0.921562
 30
0.0
 10
2.574473
 20
0.909921
 30
0.0
 10
2.563317
 20
0.892605
 30
0.0
 10
2.557231
 20
0.870450
 30
0.0
 10
2.555745
 20
0.843625
 30
0.0
 10
2.558504
 20
0.813881
 30
0.0
 10
2.564097
 20
0.784530
 30
0.0
 10
2.572990
 20
0.759194
 30
0.0
 10
2.584896
 20
0.739530
 30
0.0
 10
2.600490
 20
0.726077
 30
0.0
 10
2.619360
 20
0.719488
 30
0.0
 10
2.636095
 20
0.719780
 30
0.0
 10
2.649431
 20
0.722593
 30
0.0
 10
2.659094
 20
0.726192
 30
0.0
 10
2.668449
 20
0.731249
 30
0.0
 10
2.677490
 20
0.738032
 30
0.0
 10
2.686502
 20
0.746401
 30
0.0
 10
2.692056
 20
0.752897
 30
0.0
 10
2.694959
 20
0.756293
 30
0.0
 11
2.673628
 21
0.907177
 31
0.0
 11
2.662302
 21
0.914297
 31
0.0
 11
2.651396
 21
0.919741
 31
0.0
 11
2.640909
 21
0.923509
 31
0.0
 11
2.630740
 21
0.925839
 31
0.0
 11
2.620556
 21
0.926659
 31
0.0
 11
2.610356
 21
0.925971
 31
0.0
 11
2.590776
 21
0.920258
 31
0.0
 11
2.575550
 21
0.909270
 31
0.0
 11
2.564676
 21
0.893007
 31
0.0
 11
2.558324
 21
0.871721
 31
0.0
 11
2.556435
 21
0.845359
 31
0.0
 11
2.559007
 21
0.813920
 31
0.0
 11
2.565238
 21
0.783089
 31
0.0
 11
2.574361
 21
0.758284
 31
0.0
 11
2.586377
 21
0.739504
 31
0.0
 11
2.601317
 21
0.727004
 31
0.0
 11
2.618983
 21
0.720735
 31
0.0
 11
2.639376
 21
0.720696
 31
0.0
 11
2.649370
 21
0.722839
 31
0.0
 11
2.658937
 21
0.726384
 31
0.0
 11
2.668078
 21
0.731329
 31
0.0
 11
2.677093
 21
0.737968
 31
0.0
 11
2.686054
 21
0.746290
 31
0.0
 11
2.694959
 21
0.756293
 31
0.0
  0
LWPOLYLINE
  5
122
100
AcDbEntity
  8
trace
 62
7
100
AcDbPolyline
 90
12
 70
1
 10
3.046741
 20
0.777372
 30
0.0
 10
2.866872
 20
0.718659
 30
0.0
 10
2.772615
 20
1.007416
 30
0.0
 10
2.952484
 20
1.066129
 30
0.0
 10
2.968899
 20
1.015843
 30
0.0
 10
2.846085
 20
0.975754
 30
0.0
 10
2.866414
 20
0.913477
 30
0.0
 10
2.977623
 20
0.949778
 30
0.0
 10
2.994037
 20
0.899492
 30
0.0
 10
2.882828
 20
0.863191
 30
0.0
 10
2.907513
 20
0.787569
 30
0.0
 10
3.030327
 20
0.827658
 30
0.0
  0
SPLINE
  5
123
100
AcDbEntity
  8
trace
 62
7
100
AcDbSpline
 70
0
 71
3
 72
13
 73
9
 74
7
 40
0.000000
 40
0.000000
 40
0.000000
 40
0.000000
 40
0.005963
 40
0.011852
 40
0.017913
 40
0.025392
 40
0.035514
 40
0.048378
 40
0.048378
 40
0.048378
 40
0.048378
 10
3.247231
 20
1.036074
 30
0.0
 10
3.249157
 20
1.036590
 30
0.0
 10
3.252986
 20
1.037617
 30
0.0
 10
3.259023
 20
1.037644
 30
0.0
 10
3.265406
 20
1.036382
 30
0.0
 10
3.272790
 20
1.033517
 30
0.0
 10
3.281717
 20
1.028640
 30
0.0
 10
3.288145
 20
1.024469
 30
0.0
 10
3.291743
 20
1.022135
 30
0.0
 11
3.247231
 21
1.036074
 31
0.0
 11
3.253052
 21
1.037368
 31
0.0
 11
3.258940
 21
1.037451
 31
0.0
 11
3.264895
 21
1.036322
 31
0.0
 11
3.271905
 21
1.033713
 31
0.0
 11
3.280854
 21
1.028984
 31
0.0
 11
3.291743
 21
1.022135
 31
0.0
  0
LWPOLYLINE
  5
124
100
AcDbEntity
  8
trace
 62
7
100
AcDbPolyline
 90
4
 70
0
 10
3.291743
 20
1.022135
 30
0.0
 10
3.393629
 20
0.954511
 30
0.0
 10
3.336390
 20
0.921818
 30
0.0
 10
3.266548
 20
0.970257
 30
0.0
  0
SPLINE
  5
125
100
AcDbEntity
  8
trace
 62
7
100
AcDbSpline
 70
0
 71
3
 72
13
 73
9
 74
7
 40
0.000000
 40
0.000000
 40
0.000000
 40
0.000000
 40
0.002720
 40
0.006026
 40
0.009919
 40
0.032138
 40
0.049181
 40
0.063577
 40
0.063577
 40
0.063577
 40
0.063577
 10
3.266548
 20
0.970257
 30
0.0
 10
3.265797
 20
0.970764
 30
0.0
 10
3.264132
 20
0.971887
 30
0.0
 10
3.261416
 20
0.973773
 30
0.0
 10
3.253433
 20
0.979478
 30
0.0
 10
3.241192
 20
0.986859
 30
0.0
 10
3.223183
 20
0.992303
 30
0.0
 10
3.213102
 20
0.988664
 30
0.0
 10
3.208486
 20
0.986998
 30
0.0
 11
3.266548
 21
0.970257
 31
0.0
 11
3.264297
 21
0.971782
 31
0.0
 11
3.261581
 21
0.973667
 31
0.0
 11
3.258399
 21
0.975911
 31
0.0
 11
3.239071
 21
0.986869
 31
0.0
 11
3.222433
 21
0.990565
 31
0.0
 11
3.208486
 21
0.986998
 31
0.0
  0
LWPOLYLINE
  5
126
100
AcDbEntity
  8
trace
 62
7
100
AcDbPolyline
 90
6
 70
0
 10
3.208486
 20
0.986998
 30
0.0
 10
3.191880
 20
0.977513
 30
0.0
 10
3.251414
 20
0.873282
 30
0.0
 10
3.199299
 20
0.843514
 30
0.0
 10
3.048645
 20
1.107273
 30
0.0
 10
3.123904
 20
1.150259
 30
0.0
  0
LWPOLYLINE
  5
127
100
AcDbEntity
  8
trace
 62
7
100
AcDbPolyline
 90
1
 70
1
 10
3.247231
 20
1.036073
 30
0.0
  0
SPLINE
  5
128
100
AcDbEntity
  8
trace
 62
7
100
AcDbSpline
 70
0
 71
3
 72
19
 73
15
 74
13
 40
0.000000
 40
0.000000
 40
0.000000
 40
0.000000
 40
0.035453
 40
0.064303
 40
0.087943
 40
0.109913
 40
0.133995
 40
0.162440
 40
0.181977
 40
0.199353
 40
0.215521
 40
0.231345
 40
0.247752
 40
0.265853
 40
0.265853
 40
0.265853
 40
0.265853
 10
3.123904
 20
1.150259
 30
0.0
 10
3.134351
 20
1.155827
 30
0.0
 10
3.153300
 20
1.165925
 30
0.0
 10
3.181564
 20
1.174522
 30
0.0
 10
3.206815
 20
1.175493
 30
0.0
 10
3.229181
 20
1.167294
 30
0.0
 10
3.248246
 20
1.150773
 30
0.0
 10
3.261984
 20
1.130863
 30
0.0
 10
3.271486
 20
1.111154
 30
0.0
 10
3.275611
 20
1.093770
 30
0.0
 10
3.275168
 20
1.077107
 30
0.0
 10
3.270154
 20
1.061563
 30
0.0
 10
3.260740
 20
1.047368
 30
0.0
 10
3.251879
 20
1.039959
 30
0.0
 10
3.247231
 20
1.036073
 30
0.0
 11
3.123904
 21
1.150259
 31
0.0
 11
3.155768
 21
1.165803
 31
0.0
 11
3.183519
 21
1.173688
 31
0.0
 11
3.207159
 21
1.173914
 31
0.0
 11
3.227822
 21
1.166451
 31
0.0
 11
3.246409
 21
1.151139
 31
0.0
 11
3.262919
 21
1.127976
 31
0.0
 11
3.271100
 21
1.110234
 31
0.0
 11
3.274924
 21
1.093284
 31
0.0
 11
3.274391
 21
1.077125
 31
0.0
 11
3.269566
 21
1.062055
 31
0.0
 11
3.260512
 21
1.048371
 31
0.0
 11
3.247231
 21
1.036073
 31
0.0
  0
LWPOLYLINE
  5
129
100
AcDbEntity
  8
trace
 62
7
100
AcDbPolyline
 90
3
 70
0
 10
3.125786
 20
1.093229
 30
0.0
 10
3.166855
 20
1.021327
 30
0.0
 10
3.191411
 20
1.035353
 30
0.0
  0
SPLINE
  5
12a
100
AcDbEntity
  8
trace
 62
7
100
AcDbSpline
 70
0
 71
3
 72
19
 73
15
 74
13
 40
0.000000
 40
0.000000
 40
0.000000
 40
0.000000
 40
0.014890
 40
0.027047
 40
0.037167
 40
0.047073
 40
0.058310
 40
0.071769
 40
0.085203
 40
0.096355
 40
0.106102
 40
0.116241
 40
0.128464
 40
0.143466
 40
0.143466
 40
0.143466
 40
0.143466
 10
3.191411
 20
1.035353
 30
0.0
 10
3.195648
 20
1.037957
 30
0.0
 10
3.203345
 20
1.042688
 30
0.0
 10
3.212370
 20
1.051346
 30
0.0
 10
3.217868
 20
1.060819
 30
0.0
 10
3.219093
 20
1.071433
 30
0.0
 10
3.216568
 20
1.082836
 30
0.0
 10
3.211030
 20
1.094347
 30
0.0
 10
3.203956
 20
1.104943
 30
0.0
 10
3.195526
 20
1.112895
 30
0.0
 10
3.185838
 20
1.117224
 30
0.0
 10
3.174904
 20
1.117268
 30
0.0
 10
3.162807
 20
1.113858
 30
0.0
 10
3.154771
 20
1.109601
 30
0.0
 10
3.150342
 20
1.107255
 30
0.0
 11
3.191411
 21
1.035353
 31
0.0
 11
3.203781
 21
1.043641
 31
0.0
 11
3.212387
 21
1.052228
 31
0.0
 11
3.217231
 21
1.061113
 31
0.0
 11
3.218520
 21
1.070934
 31
0.0
 11
3.216360
 21
1.081962
 31
0.0
 11
3.210752
 21
1.094197
 31
0.0
 11
3.203094
 21
1.105234
 31
0.0
 11
3.194785
 21
1.112672
 31
0.0
 11
3.185824
 21
1.116509
 31
0.0
 11
3.175691
 21
1.116839
 31
0.0
 11
3.163864
 21
1.113754
 31
0.0
 11
3.150342
 21
1.107255
 31
0.0
  0
LWPOLYLINE
  5
12b
100
AcDbEntity
  8
trace
 62
7
100
AcDbPolyline
 90
2
 70
0
 10
3.150342
 20
1.107255
 30
0.0
 10
3.125786
 20
1.093229
 30
0.0
  0
LWPOLYLINE
  5
12c
100
AcDbEntity
  8
trace
 62
1
100
AcDbPolyline
 90
1
 70
1
 10
3.176863
 20
2.310268
 30
0.0
  0
SPLINE
  5
12d
100
AcDbEntity
  8
trace
 62
1
100
AcDbSpline
 70
0
 71
3
 72
22
 73
18
 74
16
 40
0.000000
 40
0.000000
 40
0.000000
 40
0.000000
 40
0.317989
 40
0.631428
 40
0.949417
 40
1.267407
 40
1.580845
 40
1.898834
 40
2.216824
 40
2.530262
 40
2.848252
 40
3.324701
 40
3.787019
 40
4.263468
 40
4.739917
 40
5.202235
 40
5.678684
 40
5.678684
 40
5.678684
 40
5.678684
 10
3.176863
 20
2.310268
 30
0.0
 10
3.165976
 20
2.203731
 30
0.0
 10
3.144357
 20
1.992181
 30
0.0
 10
2.976628
 20
1.712616
 30
0.0
 10
2.731045
 20
1.504766
 30
0.0
 10
2.426937
 20
1.394530
 30
0.0
 10
2.104242
 20
1.394527
 30
0.0
 10
1.800567
 20
1.504775
 30
0.0
 10
1.553256
 20
1.712582
 30
0.0
 10
1.391947
 20
1.992305
 30
0.0
 10
1.325742
 20
2.362791
 30
0.0
 10
1.439978
 20
2.787684
 30
0.0
 10
1.788295
 20
3.135787
 30
0.0
 10
2.266453
 20
3.264993
 30
0.0
 10
2.739693
 20
3.135856
 30
0.0
 10
3.102470
 20
2.787414
 30
0.0
 10
3.151818
 20
2.470905
 30
0.0
 10
3.176863
 20
2.310268
 30
0.0
 11
3.176863
 21
2.310268
 31
0.0
 11
3.121393
 21
1.997154
 31
0.0
 11
2.964673
 21
1.725708
 31
0.0
 11
2.721244
 21
1.521113
 31
0.0
 11
2.422344
 21
1.412595
 31
0.0
 11
2.108906
 21
1.412595
 31
0.0
 11
1.810006
 21
1.521113
 31
0.0
 11
1.566577
 21
1.725708
 31
0.0
 11
1.409857
 21
1.997154
 31
0.0
 11
1.354387
 21
2.310268
 31
0.0
 11
1.478798
 21
2.770187
 31
0.0
 11
1.805706
 21
3.097095
 31
0.0
 11
2.265625
 21
3.221506
 31
0.0
 11
2.725544
 21
3.097095
 31
0.0
 11
3.052452
 21
2.770187
 31
0.0
 11
3.176863
 21
2.310268
 31
0.0
  0
LWPOLYLINE
  5
12e
100
AcDbEntity
  8
trace
 62
7
100
AcDbPolyline
 90
2
 70
0
 10
1.732891
 20
2.823505
 30
0.0
 10
1.732891
 20
2.307037
 30
0.0
  0
SPLINE
  5
12f
100
AcDbEntity
  8
trace
 62
7
100
AcDbSpline
 70
0
 71
3
 72
13
 73
9
 74
7
 40
0.000000
 40
0.000000
 40
0.000000
 40
0.000000
 40
0.724774
 40
1.082724
 40
1.202332
 40
1.255886
 40
1.316758
 40
1.347837
 40
1.347837
 40
1.347837
 40
1.347837
 10
1.732891
 20
2.307037
 30
0.0
 10
1.978338
 20
2.360610
 30
0.0
 10
2.345006
 20
2.440641
 30
0.0
 10
2.678433
 20
2.531105
 30
0.0
 10
2.889908
 20
2.647615
 30
0.0
 10
2.833061
 20
2.722829
 30
0.0
 10
2.786171
 20
2.735619
 30
0.0
 10
2.756150
 20
2.741792
 30
0.0
 10
2.746003
 20
2.743878
 30
0.0
 11
1.732891
 21
2.307037
 31
0.0
 11
2.439474
 21
2.468398
 31
0.0
 11
2.776955
 21
2.587707
 31
0.0
 11
2.863246
 21
2.670533
 31
0.0
 11
2.832849
 21
2.714625
 31
0.0
 11
2.776399
 21
2.737401
 31
0.0
 11
2.746003
 21
2.743878
 31
0.0
  0
LWPOLYLINE
  5
130
100
AcDbEntity
  8
trace
 62
7
100
AcDbPolyline
 90
3
 70
0
 10
2.746003
 20
2.743878
 30
0.0
 10
2.746003
 20
2.823505
 30
0.0
 10
1.732891
 20
2.823505
 30
0.0
  0
SPLINE
  5
131
100
AcDbEntity
  8
trace
 62
7
100
AcDbSpline
 70
0
 71
3
 72
10
 73
6
 74
4
 40
0.000000
 40
0.000000
 40
0.000000
 40
0.000000
 40
0.000213
 40
0.000423
 40
0.000636
 40
0.000636
 40
0.000636
 40
0.000636
 10
1.732891
 20
2.307037
 30
0.0
 10
1.732821
 20
2.307023
 30
0.0
 10
1.732683
 20
2.306995
 30
0.0
 10
1.732475
 20
2.306954
 30
0.0
 10
1.732336
 20
2.306928
 30
0.0
 10
1.732266
 20
2.306915
 30
0.0
 11
1.732891
 21
2.307037
 31
0.0
 11
1.732682
 21
2.306995
 31
0.0
 11
1.732476
 21
2.306955
 31
0.0
 11
1.732266
 21
2.306915
 31
0.0
  0
LWPOLYLINE
  5
132
100
AcDbEntity
  8
trace
 62
7
100
AcDbPolyline
 90
3
 70
0
 10
1.732266
 20
2.306915
 30
0.0
 10
1.732891
 20
2.306915
 30
0.0
 10
1.732891
 20
2.307037
 30
0.0
  0
SPLINE
  5
133
100
AcDbEntity
  8
trace
 62
7
100
AcDbSpline
 70
0
 71
3
 72
16
 73
12
 74
10
 40
0.000000
 40
0.000000
 40
0.000000
 40
0.000000
 40
0.723327
 40
1.045088
 40
1.156662
 40
1.208168
 40
1.256320
 40
1.307954
 40
1.322784
 40
1.365942
 40
1.457007
 40
1.457007
 40
1.457007
 40
1.457007
 10
2.746627
 20
2.449859
 30
0.0
 10
2.518900
 20
2.373174
 30
0.0
 10
2.189872
 20
2.262377
 30
0.0
 10
1.841473
 20
2.078900
 30
0.0
 10
1.753069
 20
1.928002
 30
0.0
 10
1.768820
 20
1.855683
 30
0.0
 10
1.803299
 20
1.816234
 30
0.0
 10
1.839940
 20
1.801812
 30
0.0
 10
1.875809
 20
1.794979
 30
0.0
 10
1.925526
 20
1.791572
 30
0.0
 10
1.970244
 20
1.791201
 30
0.0
 10
2.000584
 20
1.790949
 30
0.0
 11
2.746627
 21
2.449859
 31
0.0
 11
2.070266
 21
2.193466
 31
0.0
 11
1.806563
 21
2.009099
 31
0.0
 11
1.761727
 21
1.906930
 31
0.0
 11
1.773152
 21
1.856707
 31
0.0
 11
1.804638
 21
1.820277
 31
0.0
 11
1.852007
 21
1.799728
 31
0.0
 11
1.866564
 21
1.796894
 31
0.0
 11
1.909541
 21
1.792946
 31
0.0
 11
2.000584
 21
1.790949
 31
0.0
  0
LWPOLYLINE
  5
134
100
AcDbEntity
  8
trace
 62
7
100
AcDbPolyline
 90
3
 70
0
 10
2.000584
 20
1.790949
 30
0.0
 10
2.746627
 20
1.790949
 30
0.0
 10
2.746627
 20
2.449859
 30
0.0
  0
SPLINE
  5
135
100
AcDbEntity
  8
trace
 62
7
100
AcDbSpline
 70
0
 71
3
 72
19
 73
15
 74
13
 40
0.000000
 40
0.000000
 40
0.000000
 40
0.000000
 40
0.141205
 40
0.272481
 40
0.412427
 40
0.647221
 40
0.835880
 40
0.954227
 40
1.038171
 40
1.115630
 40
1.196649
 40
1.206473
 40
1.212981
 40
1.222336
 40
1.222336
 40
1.222336
 40
1.222336
 10
2.284383
 20
4.187195
 30
0.0
 10
2.246917
 20
4.158663
 30
0.0
 10
2.174619
 20
4.103605
 30
0.0
 10
2.056540
 20
4.032558
 30
0.0
 10
1.902160
 20
3.963509
 30
0.0
 10
1.714642
 20
3.926646
 30
0.0
 10
1.533233
 20
3.943051
 30
0.0
 10
1.406568
 20
3.973993
 30
0.0
 10
1.317429
 20
4.001926
 30
0.0
 10
1.243744
 20
4.035352
 30
0.0
 10
1.193159
 20
4.059564
 30
0.0
 10
1.163615
 20
4.072990
 30
0.0
 10
1.155885
 20
4.076673
 30
0.0
 10
1.151085
 20
4.078892
 30
0.0
 10
1.148254
 20
4.080200
 30
0.0
 11
2.284383
 21
4.187195
 31
0.0
 11
2.170450
 21
4.103779
 31
0.0
 11
2.057829
 21
4.036327
 31
0.0
 11
1.929647
 21
3.980163
 31
0.0
 11
1.699028
 21
3.936087
 31
0.0
 11
1.510946
 21
3.950845
 31
0.0
 11
1.395793
 21
3.978149
 31
0.0
 11
1.316003
 21
4.004234
 31
0.0
 11
1.244954
 21
4.035087
 31
0.0
 11
1.171549
 21
4.069376
 31
0.0
 11
1.162624
 21
4.073480
 31
0.0
 11
1.156737
 21
4.076256
 31
0.0
 11
1.148254
 21
4.080200
 31
0.0
  0
LWPOLYLINE
  5
136
100
AcDbEntity
  8
trace
 62
7
100
AcDbPolyline
 90
2
 70
0
 10
1.148254
 20
4.080200
 30
0.0
 10
0.624491
 20
3.605001
 30
0.0
  0
SPLINE
  5
137
100
AcDbEntity
  8
trace
 62
7
100
AcDbSpline
 70
0
 71
3
 72
37
 73
33
 74
31
 40
0.000000
 40
0.000000
 40
0.000000
 40
0.000000
 40
0.038019
 40
0.074987
 40
0.109306
 40
0.141956
 40
0.169621
 40
0.199950
 40
0.209738
 40
0.225927
 40
0.254925
 40
0.289545
 40
0.330708
 40
0.377630
 40
0.488405
 40
0.617126
 40
0.760384
 40
0.901268
 40
1.087839
 40
1.298137
 40
1.404408
 40
1.505676
 40
1.597881
 40
1.678394
 40
1.738547
 40
1.765149
 40
2.048604
 40
2.416003
 40
2.827924
 40
3.236716
 40
3.530357
 40
3.780069
 40
3.780069
 40
3.780069
 40
3.780069
 10
0.624491
 20
3.605001
 30
0.0
 10
0.632113
 20
3.594899
 30
0.0
 10
0.647146
 20
3.574975
 30
0.0
 10
0.669198
 20
3.545640
 30
0.0
 10
0.689376
 20
3.518609
 30
0.0
 10
0.709923
 20
3.490786
 30
0.0
 10
0.722754
 20
3.475007
 30
0.0
 10
0.750803
 20
3.430420
 30
0.0
 10
0.733472
 20
3.459485
 30
0.0
 10
0.753851
 20
3.430752
 30
0.0
 10
0.764864
 20
3.416875
 30
0.0
 10
0.787638
 20
3.386030
 30
0.0
 10
0.809311
 20
3.352684
 30
0.0
 10
0.842121
 20
3.294445
 30
0.0
 10
0.875140
 20
3.204416
 30
0.0
 10
0.892415
 20
3.076271
 30
0.0
 10
0.867774
 20
2.938955
 30
0.0
 10
0.810924
 20
2.792646
 30
0.0
 10
0.749339
 20
2.624320
 30
0.0
 10
0.689981
 20
2.467455
 30
0.0
 10
0.642043
 20
2.336685
 30
0.0
 10
0.608351
 20
2.242623
 30
0.0
 10
0.578219
 20
2.156401
 30
0.0
 10
0.554782
 20
2.082389
 30
0.0
 10
0.539266
 20
2.028827
 30
0.0
 10
0.509018
 20
1.909154
 30
0.0
 10
0.479315
 20
1.685270
 30
0.0
 10
0.465504
 20
1.325655
 30
0.0
 10
0.630264
 20
0.950791
 30
0.0
 10
0.897409
 20
0.679932
 30
0.0
 10
1.188030
 20
0.543454
 30
0.0
 10
1.362783
 20
0.495729
 30
0.0
 10
1.443095
 20
0.473795
 30
0.0
 11
0.624491
 21
3.605001
 31
0.0
 11
0.647381
 21
3.574644
 31
0.0
 11
0.669586
 21
3.545088
 31
0.0
 11
0.690104
 21
3.517578
 31
0.0
 11
0.709670
 21
3.491440
 31
0.0
 11
0.725970
 21
3.469087
 31
0.0
 11
0.742757
 21
3.443827
 31
0.0
 11
0.737944
 21
3.452349
 31
0.0
 11
0.747753
 21
3.439470
 31
0.0
 11
0.765137
 21
3.416260
 31
0.0
 11
0.785571
 21
3.388314
 31
0.0
 11
0.808070
 21
3.353843
 31
0.0
 11
0.830892
 21
3.312846
 31
0.0
 11
0.869477
 21
3.209008
 31
0.0
 11
0.885373
 21
3.081272
 31
0.0
 11
0.863220
 21
2.939738
 31
0.0
 11
0.816821
 21
2.806713
 31
0.0
 11
0.751753
 21
2.631856
 31
0.0
 11
0.678162
 21
2.434855
 31
0.0
 11
0.641596
 21
2.335074
 31
0.0
 11
0.607461
 21
2.239732
 31
0.0
 11
0.577393
 21
2.152567
 31
0.0
 11
0.553096
 21
2.075808
 31
0.0
 11
0.536614
 21
2.017956
 31
0.0
 11
0.530090
 21
1.992167
 31
0.0
 11
0.486804
 21
1.712037
 31
0.0
 11
0.492352
 21
1.344679
 31
0.0
 11
0.651591
 21
0.964783
 31
0.0
 11
0.940596
 21
0.675668
 31
0.0
 11
1.204040
 21
0.545965
 31
0.0
 11
1.443095
 21
0.473795
 31
0.0
  0
SPLINE
  5
138
100
AcDbEntity
  8
trace
 62
7
100
AcDbSpline
 70
0
 71
3
 72
10
 73
6
 74
4
 40
0.000000
 40
0.000000
 40
0.000000
 40
0.000000
 40
0.238065
 40
0.505326
 40
0.878827
 40
0.878827
 40
0.878827
 40
0.878827
 10
1.432922
 20
0.476969
 30
0.0
 10
1.510164
 20
0.458782
 30
0.0
 10
1.674121
 20
0.420178
 30
0.0
 10
1.962920
 20
0.368791
 30
0.0
 10
2.166622
 20
0.303564
 30
0.0
 10
2.285360
 20
0.265544
 30
0.0
 11
1.432922
 21
0.476969
 31
0.0
 11
1.665115
 21
0.424419
 31
0.0
 11
1.926813
 21
0.370174
 31
0.0
 11
2.285360
 21
0.265544
 31
0.0
  0
LWPOLYLINE
  5
139
100
AcDbEntity
  8
trace
 62
7
100
AcDbPolyline
 90
2
 70
0
 10
1.443095
 20
0.473795
 30
0.0
 10
1.432922
 20
0.476969
 30
0.0
  0
SPLINE
  5
13a
100
AcDbEntity
  8
trace
 62
7
100
AcDbSpline
 70
0
 71
3
 72
10
 73
6
 74
4
 40
0.000000
 40
0.000000
 40
0.000000
 40
0.000000
 40
0.373188
 40
0.639753
 40
0.877165
 40
0.877165
 40
0.877165
 40
0.877165
 10
2.285360
 20
0.265544
 30
0.0
 10
2.404018
 20
0.303489
 30
0.0
 10
2.607433
 20
0.368540
 30
0.0
 10
2.895830
 20
0.419094
 30
0.0
 10
3.059386
 20
0.457440
 30
0.0
 10
3.136434
 20
0.475504
 30
0.0
 11
2.285360
 21
0.265544
 31
0.0
 11
2.643691
 21
0.369792
 31
0.0
 11
2.904815
 21
0.423376
 31
0.0
 11
3.136434
 21
0.475504
 31
0.0
  0
LWPOLYLINE
  5
13b
100
AcDbEntity
  8
trace
 62
7
100
AcDbPolyline
 90
2
 70
0
 10
3.136434
 20
0.475504
 30
0.0
 10
3.126261
 20
0.472331
 30
0.0
  0
SPLINE
  5
13c
100
AcDbEntity
  8
trace
 62
7
100
AcDbSpline
 70
0
 71
3
 72
37
 73
33
 74
31
 40
0.000000
 40
0.000000
 40
0.000000
 40
0.000000
 40
0.249698
 40
0.543339
 40
0.952137
 40
1.364058
 40
1.731457
 40
2.014912
 40
2.041516
 40
2.101669
 40
2.182180
 40
2.274380
 40
2.375640
 40
2.481905
 40
2.692199
 40
2.878769
 40
3.019651
 40
3.162906
 40
3.291626
 40
3.402400
 40
3.449319
 40
3.490476
 40
3.525094
 40
3.554096
 40
3.570293
 40
3.580064
 40
3.610398
 40
3.638061
 40
3.670708
 40
3.705022
 40
3.741984
 40
3.779998
 40
3.779998
 40
3.779998
 40
3.779998
 10
3.126261
 20
0.472331
 30
0.0
 10
3.206569
 20
0.494264
 30
0.0
 10
3.381317
 20
0.541991
 30
0.0
 10
3.671927
 20
0.678484
 30
0.0
 10
3.939070
 20
0.949345
 30
0.0
 10
4.103833
 20
1.324210
 30
0.0
 10
4.090020
 20
1.683825
 30
0.0
 10
4.060318
 20
1.907710
 30
0.0
 10
4.030070
 20
2.027384
 30
0.0
 10
4.014553
 20
2.080945
 30
0.0
 10
3.991118
 20
2.154955
 30
0.0
 10
3.960985
 20
2.241172
 30
0.0
 10
3.927291
 20
2.335226
 30
0.0
 10
3.879354
 20
2.465991
 30
0.0
 10
3.820003
 20
2.622855
 30
0.0
 10
3.758428
 20
2.791181
 30
0.0
 10
3.701583
 20
2.937490
 30
0.0
 10
3.676940
 20
3.074804
 30
0.0
 10
3.694207
 20
3.202948
 30
0.0
 10
3.727217
 20
3.292978
 30
0.0
 10
3.760018
 20
3.351219
 30
0.0
 10
3.781684
 20
3.384565
 30
0.0
 10
3.804453
 20
3.415412
 30
0.0
 10
3.815464
 20
3.429288
 30
0.0
 10
3.835850
 20
3.458026
 30
0.0
 10
3.818539
 20
3.428980
 30
0.0
 10
3.846582
 20
3.473566
 30
0.0
 10
3.859414
 20
3.489343
 30
0.0
 10
3.879959
 20
3.517164
 30
0.0
 10
3.900138
 20
3.544189
 30
0.0
 10
3.922191
 20
3.573516
 30
0.0
 10
3.937223
 20
3.593436
 30
0.0
 10
3.944845
 20
3.603536
 30
0.0
 11
3.126261
 21
0.472331
 31
0.0
 11
3.365302
 21
0.544502
 31
0.0
 11
3.628739
 21
0.674215
 31
0.0
 11
3.917745
 21
0.963338
 31
0.0
 11
4.076984
 21
1.343235
 31
0.0
 11
4.082532
 21
1.710592
 31
0.0
 11
4.039246
 21
1.990723
 31
0.0
 11
4.032721
 21
2.016514
 31
0.0
 11
4.016239
 21
2.074365
 31
0.0
 11
3.991943
 21
2.151123
 31
0.0
 11
3.961875
 21
2.238282
 31
0.0
 11
3.927739
 21
2.333615
 31
0.0
 11
3.891174
 21
2.433390
 31
0.0
 11
3.817590
 21
2.630390
 31
0.0
 11
3.752531
 21
2.805249
 31
0.0
 11
3.706136
 21
2.938273
 31
0.0
 11
3.683980
 21
3.079805
 31
0.0
 11
3.699869
 21
3.207540
 31
0.0
 11
3.738444
 21
3.311381
 31
0.0
 11
3.761259
 21
3.352378
 31
0.0
 11
3.783749
 21
3.386848
 31
0.0
 11
3.804179
 21
3.414795
 31
0.0
 11
3.821565
 21
3.438007
 31
0.0
 11
3.831380
 21
3.450892
 31
0.0
 11
3.826579
 21
3.442383
 31
0.0
 11
3.843368
 21
3.467646
 31
0.0
 11
3.859667
 21
3.489998
 31
0.0
 11
3.879232
 21
3.516133
 31
0.0
 11
3.899750
 21
3.543638
 31
0.0
 11
3.921955
 21
3.573185
 31
0.0
 11
3.944845
 21
3.603536
 31
0.0
  0
LWPOLYLINE
  5
13d
100
AcDbEntity
  8
trace
 62
7
100
AcDbPolyline
 90
2
 70
0
 10
3.944845
 20
3.603536
 30
0.0
 10
3.421102
 20
4.078756
 30
0.0
  0
SPLINE
  5
13e
100
AcDbEntity
  8
trace
 62
7
100
AcDbSpline
 70
0
 71
3
 72
19
 73
15
 74
13
 40
0.000000
 40
0.000000
 40
0.000000
 40
0.000000
 40
0.009355
 40
0.015863
 40
0.025687
 40
0.106713
 40
0.184182
 40
0.268128
 40
0.386475
 40
0.575134
 40
0.809927
 40
0.950519
 40
1.082222
 40
1.223608
 40
1.223608
 40
1.223608
 40
1.223608
 10
3.421102
 20
4.078756
 30
0.0
 10
3.418271
 20
4.077447
 30
0.0
 10
3.413471
 20
4.075229
 30
0.0
 10
3.405742
 20
4.071545
 30
0.0
 10
3.376195
 20
4.058119
 30
0.0
 10
3.325603
 20
4.033907
 30
0.0
 10
3.251911
 20
4.000482
 30
0.0
 10
3.162769
 20
3.972549
 30
0.0
 10
3.036102
 20
3.941604
 30
0.0
 10
2.854696
 20
3.925212
 30
0.0
 10
2.666950
 20
3.962066
 30
0.0
 10
2.512302
 20
4.031448
 30
0.0
 10
2.394119
 20
4.103140
 30
0.0
 10
2.321816
 20
4.158522
 30
0.0
 10
2.284383
 20
4.187195
 30
0.0
 11
3.421102
 21
4.078756
 31
0.0
 11
3.412619
 21
4.074811
 31
0.0
 11
3.406733
 21
4.072035
 31
0.0
 11
3.397807
 21
4.067932
 31
0.0
 11
3.324393
 21
4.033643
 31
0.0
 11
3.253334
 21
4.002789
 31
0.0
 11
3.173543
 21
3.976705
 31
0.0
 11
3.058389
 21
3.949400
 31
0.0
 11
2.870308
 21
3.934643
 31
0.0
 11
2.639689
 21
3.978719
 31
0.0
 11
2.510991
 21
4.035312
 31
0.0
 11
2.398214
 21
4.103336
 31
0.0
 11
2.284383
 21
4.187195
 31
0.0
  0
LWPOLYLINE
  5
13f
100
AcDbEntity
  8
trace
 62
7
100
AcDbPolyline
 90
1
 70
1
 10
2.284383
 20
4.187195
 30
0.0
  0
SPLINE
  5
140
100
AcDbEntity
  8
trace_1
 62
7
100
AcDbSpline
 70
0
 71
3
 72
25
 73
21
 74
19
 40
0.000000
 40
0.000000
 40
0.000000
 40
0.000000
 40
0.068271
 40
0.157393
 40
0.266400
 40
0.373660
 40
0.464813
 40
0.552658
 40
0.639508
 40
0.707621
 40
0.736077
 40
0.768670
 40
0.847394
 40
0.944261
 40
1.061973
 40
1.184678
 40
1.256929
 40
1.323464
 40
1.427463
 40
1.508250
 40
1.508250
 40
1.508250
 40
1.508250
 10
3.578186
 20
2.132568
 30
0.0
 10
3.561840
 20
2.116402
 30
0.0
 10
3.524156
 20
2.079131
 30
0.0
 10
3.492339
 20
1.994339
 30
0.0
 10
3.456406
 20
1.899677
 30
0.0
 10
3.405532
 20
1.809700
 30
0.0
 10
3.343163
 20
1.737151
 30
0.0
 10
3.297277
 20
1.661040
 30
0.0
 10
3.286086
 20
1.573919
 30
0.0
 10
3.297560
 20
1.524554
 30
0.0
 10
3.304084
 20
1.463330
 30
0.0
 10
3.348008
 20
1.517353
 30
0.0
 10
3.394983
 20
1.548496
 30
0.0
 10
3.464548
 20
1.625739
 30
0.0
 10
3.527527
 20
1.717312
 30
0.0
 10
3.577054
 20
1.807845
 30
0.0
 10
3.628386
 20
1.882995
 30
0.0
 10
3.618186
 20
1.966595
 30
0.0
 10
3.610230
 20
2.049431
 30
0.0
 10
3.587934
 20
2.107278
 30
0.0
 10
3.578186
 20
2.132568
 30
0.0
 11
3.578186
 21
2.132568
 31
0.0
 11
3.532702
 21
2.081656
 31
0.0
 11
3.494785
 21
2.001002
 31
0.0
 11
3.453573
 21
1.900085
 31
0.0
 11
3.399829
 21
1.807262
 31
0.0
 11
3.344544
 21
1.734788
 31
0.0
 11
3.302694
 21
1.657552
 31
0.0
 11
3.290511
 21
1.571560
 31
0.0
 11
3.299462
 21
1.504038
 31
0.0
 11
3.307373
 21
1.476705
 31
0.0
 11
3.332665
 21
1.497262
 31
0.0
 11
3.391297
 21
1.549797
 31
0.0
 11
3.457397
 21
1.620605
 31
0.0
 11
3.524962
 21
1.716997
 31
0.0
 11
3.587973
 21
1.822287
 31
0.0
 11
3.620544
 21
1.886780
 31
0.0
 11
3.620029
 21
1.953312
 31
0.0
 11
3.604286
 21
2.056113
 31
0.0
 11
3.578186
 21
2.132568
 31
0.0
  0
LWPOLYLINE
  5
141
100
AcDbEntity
  8
trace_1
 62
7
100
AcDbPolyline
 90
1
 70
1
 10
3.578186
 20
2.132568
 30
0.0
  0
SPLINE
  5
142
100
AcDbEntity
  8
trace_1
 62
7
100
AcDbSpline
 70
0
 71
3
 72
25
 73
21
 74
19
 40
0.000000
 40
0.000000
 40
0.000000
 40
0.000000
 40
0.080789
 40
0.184790
 40
0.251325
 40
0.323575
 40
0.446280
 40
0.563993
 40
0.660859
 40
0.739584
 40
0.772177
 40
0.800632
 40
0.868745
 40
0.955595
 40
1.043440
 40
1.134594
 40
1.241853
 40
1.350859
 40
1.439977
 40
1.508244
 40
1.508244
 40
1.508244
 40
1.508244
 10
1.019958
 20
2.125468
 30
0.0
 10
1.010209
 20
2.100178
 30
0.0
 10
0.987909
 20
2.042331
 30
0.0
 10
0.979945
 20
1.959496
 30
0.0
 10
0.969736
 20
1.875894
 30
0.0
 10
1.021071
 20
1.800744
 30
0.0
 10
1.070597
 20
1.710211
 30
0.0
 10
1.133576
 20
1.618639
 30
0.0
 10
1.203141
 20
1.541395
 30
0.0
 10
1.250116
 20
1.510252
 30
0.0
 10
1.294040
 20
1.456230
 30
0.0
 10
1.300564
 20
1.517454
 30
0.0
 10
1.312038
 20
1.566818
 30
0.0
 10
1.300847
 20
1.653939
 30
0.0
 10
1.254961
 20
1.730051
 30
0.0
 10
1.192592
 20
1.802600
 30
0.0
 10
1.141718
 20
1.892576
 30
0.0
 10
1.105788
 20
1.987237
 30
0.0
 10
1.073983
 20
2.072031
 30
0.0
 10
1.036303
 20
2.109301
 30
0.0
 10
1.019958
 20
2.125468
 30
0.0
 11
1.019958
 21
2.125468
 31
0.0
 11
0.993853
 21
2.049012
 31
0.0
 11
0.978100
 21
1.946212
 31
0.0
 11
0.977580
 21
1.879679
 31
0.0
 11
1.010151
 21
1.815187
 31
0.0
 11
1.073162
 21
1.709896
 31
0.0
 11
1.140727
 21
1.613505
 31
0.0
 11
1.206828
 21
1.542697
 31
0.0
 11
1.265459
 21
1.490162
 31
0.0
 11
1.290751
 21
1.469604
 31
0.0
 11
1.298662
 21
1.496938
 31
0.0
 11
1.307613
 21
1.564460
 31
0.0
 11
1.295431
 21
1.650452
 31
0.0
 11
1.253581
 21
1.727687
 31
0.0
 11
1.198295
 21
1.800161
 31
0.0
 11
1.144552
 21
1.892985
 31
0.0
 11
1.103344
 21
1.993901
 31
0.0
 11
1.065437
 21
2.074555
 31
0.0
 11
1.019958
 21
2.125468
 31
0.0
  0
LWPOLYLINE
  5
143
100
AcDbEntity
  8
trace_1
 62
7
100
AcDbPolyline
 90
1
 70
1
 10
1.019958
 20
2.125468
 30
0.0
  0
SPLINE
  5
144
100
AcDbEntity
  8
trace_1
 62
7
100
AcDbSpline
 70
0
 71
3
 72
16
 73
12
 74
10
 40
0.000000
 40
0.000000
 40
0.000000
 40
0.000000
 40
0.002645
 40
0.004947
 40
0.007187
 40
0.046462
 40
0.102788
 40
0.149967
 40
0.211800
 40
0.257693
 40
0.327015
 40
0.327015
 40
0.327015
 40
0.327015
 10
0.711650
 20
1.874206
 30
0.0
 10
0.710776
 20
1.874071
 30
0.0
 10
0.709141
 20
1.873818
 30
0.0
 10
0.706963
 20
1.872627
 30
0.0
 10
0.698649
 20
1.860292
 30
0.0
 10
0.706664
 20
1.824326
 30
0.0
 10
0.716783
 20
1.779300
 30
0.0
 10
0.745538
 20
1.731855
 30
0.0
 10
0.785999
 20
1.692829
 30
0.0
 10
0.776643
 20
1.630658
 30
0.0
 10
0.769522
 20
1.593553
 30
0.0
 10
0.765238
 20
1.571228
 30
0.0
 11
0.711650
 21
1.874206
 31
0.0
 11
0.709067
 21
1.873639
 31
0.0
 11
0.707076
 21
1.872482
 31
0.0
 11
0.705709
 21
1.870707
 31
0.0
 11
0.705089
 21
1.831437
 31
0.0
 11
0.720590
 21
1.777286
 31
0.0
 11
0.744771
 21
1.736776
 31
0.0
 11
0.779017
 21
1.685292
 31
0.0
 11
0.777717
 21
1.639417
 31
0.0
 11
0.765238
 21
1.571228
 31
0.0
  0
LWPOLYLINE
  5
145
100
AcDbEntity
  8
trace_1
 62
7
100
AcDbPolyline
 90
2
 70
0
 10
0.765238
 20
1.571228
 30
0.0
 10
0.899170
 20
1.787008
 30
0.0
  0
SPLINE
  5
146
100
AcDbEntity
  8
trace_1
 62
7
100
AcDbSpline
 70
0
 71
3
 72
13
 73
9
 74
7
 40
0.000000
 40
0.000000
 40
0.000000
 40
0.000000
 40
0.069989
 40
0.149851
 40
0.204181
 40
0.205292
 40
0.206345
 40
0.207338
 40
0.207338
 40
0.207338
 40
0.207338
 10
0.899170
 20
1.787008
 30
0.0
 10
0.877642
 20
1.796222
 30
0.0
 10
0.831550
 20
1.815950
 30
0.0
 10
0.773123
 20
1.848759
 30
0.0
 10
0.732525
 20
1.873181
 30
0.0
 10
0.713713
 20
1.874273
 30
0.0
 10
0.712660
 20
1.874282
 30
0.0
 10
0.711980
 20
1.874231
 30
0.0
 10
0.711650
 20
1.874206
 30
0.0
 11
0.899170
 21
1.787008
 31
0.0
 11
0.835287
 21
1.815599
 31
0.0
 11
0.765156
 21
1.853803
 31
0.0
 11
0.714803
 21
1.874206
 31
0.0
 11
0.713693
 21
1.874265
 31
0.0
 11
0.712640
 21
1.874267
 31
0.0
 11
0.711650
 21
1.874206
 31
0.0
  0
LWPOLYLINE
  5
147
100
AcDbEntity
  8
trace_1
 62
7
100
AcDbPolyline
 90
1
 70
1
 10
0.711650
 20
1.874206
 30
0.0
  0
SPLINE
  5
148
100
AcDbEntity
  8
trace_1
 62
7
100
AcDbSpline
 70
0
 71
3
 72
10
 73
6
 74
4
 40
0.000000
 40
0.000000
 40
0.000000
 40
0.000000
 40
0.054330
 40
0.134191
 40
0.204181
 40
0.204181
 40
0.204181
 40
0.204181
 10
3.898722
 20
1.853373
 30
0.0
 10
3.881707
 20
1.847056
 30
0.0
 10
3.839682
 20
1.831452
 30
0.0
 10
3.782154
 20
1.794243
 30
0.0
 10
3.735940
 20
1.775110
 30
0.0
 10
3.714355
 20
1.766174
 30
0.0
 11
3.898722
 21
1.853373
 31
0.0
 11
3.848369
 21
1.832970
 31
0.0
 11
3.778238
 21
1.794766
 31
0.0
 11
3.714355
 21
1.766174
 31
0.0
  0
LWPOLYLINE
  5
149
100
AcDbEntity
  8
trace_1
 62
7
100
AcDbPolyline
 90
2
 70
0
 10
3.714355
 20
1.766174
 30
0.0
 10
3.848287
 20
1.550395
 30
0.0
  0
SPLINE
  5
14a
100
AcDbEntity
  8
trace_1
 62
7
100
AcDbSpline
 70
0
 71
3
 72
16
 73
12
 74
10
 40
0.000000
 40
0.000000
 40
0.000000
 40
0.000000
 40
0.069321
 40
0.115215
 40
0.177048
 40
0.224226
 40
0.280553
 40
0.319827
 40
0.322797
 40
0.326061
 40
0.330130
 40
0.330130
 40
0.330130
 40
0.330130
 10
3.848287
 20
1.550395
 30
0.0
 10
3.844002
 20
1.572719
 30
0.0
 10
3.836881
 20
1.609824
 30
0.0
 10
3.827532
 20
1.671998
 30
0.0
 10
3.867961
 20
1.711011
 30
0.0
 10
3.896821
 20
1.758500
 30
0.0
 10
3.906546
 20
1.803361
 30
0.0
 10
3.915425
 20
1.839931
 30
0.0
 10
3.905966
 20
1.852419
 30
0.0
 10
3.902516
 20
1.853483
 30
0.0
 10
3.900076
 20
1.853412
 30
0.0
 10
3.898722
 20
1.853373
 30
0.0
 11
3.848287
 21
1.550395
 31
0.0
 11
3.835808
 21
1.618583
 31
0.0
 11
3.834509
 21
1.664458
 31
0.0
 11
3.868754
 21
1.715942
 31
0.0
 11
3.892936
 21
1.756452
 31
0.0
 11
3.908437
 21
1.810604
 31
0.0
 11
3.907817
 21
1.849874
 31
0.0
 11
3.905848
 21
1.852096
 31
0.0
 11
3.902788
 21
1.853236
 31
0.0
 11
3.898722
 21
1.853373
 31
0.0
  0
SPLINE
  5
14b
100
AcDbEntity
  8
trace_1
 62
7
100
AcDbSpline
 70
0
 71
3
 72
19
 73
15
 74
13
 40
0.000000
 40
0.000000
 40
0.000000
 40
0.000000
 40
0.076448
 40
0.222428
 40
0.332437
 40
0.378579
 40
0.407560
 40
0.427826
 40
0.596105
 40
0.921448
 40
1.205338
 40
1.457580
 40
1.793413
 40
2.316367
 40
2.316367
 40
2.316367
 40
2.316367
 10
0.967997
 20
1.840942
 30
0.0
 10
0.952212
 20
1.820917
 30
0.0
 10
0.906283
 20
1.762651
 30
0.0
 10
0.847559
 20
1.668651
 30
0.0
 10
0.793285
 20
1.583364
 30
0.0
 10
0.760435
 20
1.531864
 30
0.0
 10
0.735896
 20
1.508832
 30
0.0
 10
0.733483
 20
1.432512
 30
0.0
 10
0.886898
 20
1.312851
 30
0.0
 10
1.014903
 20
1.097034
 30
0.0
 10
1.229535
 20
0.897374
 30
0.0
 10
1.474080
 20
0.740576
 30
0.0
 10
1.820998
 20
0.597062
 30
0.0
 10
2.109080
 20
0.580614
 30
0.0
 10
2.284505
 20
0.570597
 30
0.0
 11
0.967997
 21
1.840942
 31
0.0
 11
0.921425
 21
1.780318
 31
0.0
 11
0.840956
 21
1.658519
 31
0.0
 11
0.781982
 21
1.565653
 31
0.0
 11
0.755128
 21
1.528131
 31
0.0
 11
0.737852
 21
1.504861
 31
0.0
 11
0.735799
 21
1.484700
 31
0.0
 11
0.832326
 21
1.346859
 31
0.0
 11
1.036411
 21
1.093486
 31
0.0
 11
1.242126
 21
0.897847
 31
0.0
 11
1.454077
 21
0.761088
 31
0.0
 11
1.765617
 21
0.635682
 31
0.0
 11
2.284505
 21
0.570597
 31
0.0
  0
SPLINE
  5
14c
100
AcDbEntity
  8
trace_1
 62
7
100
AcDbSpline
 70
0
 71
3
 72
28
 73
24
 74
22
 40
0.000000
 40
0.000000
 40
0.000000
 40
0.000000
 40
0.529219
 40
0.866589
 40
1.099445
 40
1.459860
 40
1.768615
 40
1.914228
 40
1.938492
 40
1.972701
 40
2.021501
 40
2.138977
 40
2.298881
 40
2.382908
 40
2.412395
 40
2.477344
 40
2.559883
 40
2.680777
 40
2.865835
 40
3.105662
 40
3.346841
 40
3.613486
 40
4.015503
 40
4.015503
 40
4.015503
 40
4.015503
 10
2.284505
 20
0.570597
 30
0.0
 10
2.461285
 20
0.580311
 30
0.0
 10
2.750758
 20
0.596216
 30
0.0
 10
3.103968
 20
0.709022
 30
0.0
 10
3.373968
 20
0.861476
 30
0.0
 10
3.614125
 20
1.055189
 30
0.0
 10
3.754586
 20
1.280774
 30
0.0
 10
3.872710
 20
1.406012
 30
0.0
 10
3.873694
 20
1.476280
 30
0.0
 10
3.854222
 20
1.507654
 30
0.0
 10
3.820115
 20
1.563705
 30
0.0
 10
3.758809
 20
1.662073
 30
0.0
 10
3.693678
 20
1.726099
 30
0.0
 10
3.635705
 20
1.866813
 30
0.0
 10
3.599455
 20
1.803896
 30
0.0
 10
3.576547
 20
1.755107
 30
0.0
 10
3.530138
 20
1.675661
 30
0.0
 10
3.447300
 20
1.576911
 30
0.0
 10
3.320249
 20
1.445874
 30
0.0
 10
3.154971
 20
1.298310
 30
0.0
 10
2.950158
 20
1.150830
 30
0.0
 10
2.652155
 20
1.072320
 30
0.0
 10
2.429944
 20
1.056505
 30
0.0
 10
2.296346
 20
1.046997
 30
0.0
 11
2.284505
 21
0.570597
 31
0.0
 11
2.810714
 21
0.626965
 31
0.0
 11
3.131329
 21
0.731963
 31
0.0
 11
3.334778
 21
0.845235
 31
0.0
 11
3.609661
 21
1.078340
 31
0.0
 11
3.798321
 21
1.322752
 31
0.0
 11
3.872457
 21
1.448079
 31
0.0
 11
3.871770
 21
1.472334
 31
0.0
 11
3.857031
 21
1.503205
 31
0.0
 11
3.831543
 21
1.544820
 31
0.0
 11
3.767168
 21
1.643087
 31
0.0
 11
3.676669
 21
1.774917
 31
0.0
 11
3.624695
 21
1.840942
 31
0.0
 11
3.607337
 21
1.817106
 31
0.0
 11
3.577580
 21
1.759375
 31
0.0
 11
3.535421
 21
1.688415
 31
0.0
 11
3.460048
 21
1.593894
 31
0.0
 11
3.331761
 21
1.460519
 31
0.0
 11
3.152222
 21
1.301514
 31
0.0
 11
2.950996
 21
1.168563
 31
0.0
 11
2.695984
 21
1.090661
 31
0.0
 11
2.296346
 21
1.046997
 31
0.0
  0
LWPOLYLINE
  5
14d
100
AcDbEntity
  8
trace_1
 62
7
100
AcDbPolyline
 90
1
 70
1
 10
3.898722
 20
1.853373
 30
0.0
  0
SPLINE
  5
14e
100
AcDbEntity
  8
trace_1
 62
7
100
AcDbSpline
 70
0
 71
3
 72
16
 73
12
 74
10
 40
0.000000
 40
0.000000
 40
0.000000
 40
0.000000
 40
0.402017
 40
0.668662
 40
0.909841
 40
1.149668
 40
1.334727
 40
1.455620
 40
1.538159
 40
1.603108
 40
1.632595
 40
1.632595
 40
1.632595
 40
1.632595
 10
2.296346
 20
1.046997
 30
0.0
 10
2.162748
 20
1.056503
 30
0.0
 10
1.940537
 20
1.072313
 30
0.0
 10
1.642534
 20
1.150845
 30
0.0
 10
1.437720
 20
1.298259
 30
0.0
 10
1.272445
 20
1.446046
 30
0.0
 10
1.145388
 20
1.576500
 30
0.0
 10
1.062562
 20
1.676500
 30
0.0
 10
1.016126
 20
1.753214
 30
0.0
 10
0.993280
 20
1.808139
 30
0.0
 10
0.974013
 20
1.833137
 30
0.0
 10
0.967997
 20
1.840942
 30
0.0
 11
2.296346
 21
1.046997
 31
0.0
 11
1.896708
 21
1.090661
 31
0.0
 11
1.641696
 21
1.168563
 31
0.0
 11
1.440470
 21
1.301514
 31
0.0
 11
1.260931
 21
1.460519
 31
0.0
 11
1.132644
 21
1.593894
 31
0.0
 11
1.057271
 21
1.688415
 31
0.0
 11
1.015112
 21
1.759375
 31
0.0
 11
0.985355
 21
1.817106
 31
0.0
 11
0.967997
 21
1.840942
 31
0.0
  0
SPLINE
  5
14f
100
AcDbEntity
  8
trace_1
 62
7
100
AcDbSpline
 70
0
 71
3
 72
16
 73
12
 74
10
 40
0.000000
 40
0.000000
 40
0.000000
 40
0.000000
 40
0.333822
 40
0.642889
 40
0.923553
 40
1.115530
 40
1.279694
 40
1.394204
 40
1.546536
 40
1.768605
 40
1.935374
 40
1.935374
 40
1.935374
 40
1.935374
 10
2.280497
 20
3.785339
 30
0.0
 10
2.169065
 20
3.780106
 30
0.0
 10
1.954464
 20
3.770027
 30
0.0
 10
1.655297
 20
3.686188
 30
0.0
 10
1.421144
 20
3.569657
 30
0.0
 10
1.246460
 20
3.446744
 30
0.0
 10
1.127772
 20
3.347726
 30
0.0
 10
1.028234
 20
3.232566
 30
0.0
 10
1.054367
 20
3.060079
 30
0.0
 10
1.072818
 20
2.881885
 30
0.0
 10
1.136703
 20
2.767218
 30
0.0
 10
1.164103
 20
2.718038
 30
0.0
 11
2.280497
 21
3.785339
 31
0.0
 11
1.947913
 21
3.756621
 31
0.0
 11
1.650047
 21
3.674167
 31
0.0
 11
1.398783
 21
3.549113
 31
0.0
 11
1.241121
 21
3.439578
 31
0.0
 11
1.117304
 21
3.331786
 31
0.0
 11
1.050944
 21
3.238464
 31
0.0
 11
1.049440
 21
3.086140
 31
0.0
 11
1.091217
 21
2.868036
 31
0.0
 11
1.164103
 21
2.718038
 31
0.0
  0
SPLINE
  5
150
100
AcDbEntity
  8
trace_1
 62
7
100
AcDbSpline
 70
0
 71
3
 72
13
 73
9
 74
7
 40
0.000000
 40
0.000000
 40
0.000000
 40
0.000000
 40
0.102660
 40
0.236171
 40
0.387052
 40
0.556369
 40
0.760402
 40
0.961172
 40
0.961172
 40
0.961172
 40
0.961172
 10
1.164103
 20
2.718038
 30
0.0
 10
1.183461
 20
2.746280
 30
0.0
 10
1.227993
 20
2.811253
 30
0.0
 10
1.309946
 20
2.910876
 30
0.0
 10
1.401939
 20
3.031597
 30
0.0
 10
1.539976
 20
3.141536
 30
0.0
 10
1.709838
 20
3.231363
 30
0.0
 10
1.836399
 20
3.278392
 30
0.0
 10
1.899170
 20
3.301717
 30
0.0
 11
1.164103
 21
2.718038
 31
0.0
 11
1.223210
 21
2.801975
 31
0.0
 11
1.305705
 21
2.906950
 31
0.0
 11
1.402506
 21
3.022685
 31
0.0
 11
1.533335
 21
3.130166
 31
0.0
 11
1.712529
 21
3.227730
 31
0.0
 11
1.899170
 21
3.301717
 31
0.0
  0
SPLINE
  5
151
100
AcDbEntity
  8
trace_1
 62
7
100
AcDbSpline
 70
0
 71
3
 72
16
 73
12
 74
10
 40
0.000000
 40
0.000000
 40
0.000000
 40
0.000000
 40
0.264867
 40
0.516293
 40
0.775855
 40
0.976626
 40
1.180658
 40
1.349976
 40
1.500857
 40
1.634367
 40
1.737028
 40
1.737028
 40
1.737028
 40
1.737028
 10
1.899170
 20
3.301717
 30
0.0
 10
1.984458
 20
3.326390
 30
0.0
 10
2.150706
 20
3.374485
 30
0.0
 10
2.412696
 20
3.366397
 30
0.0
 10
2.645120
 20
3.313617
 30
0.0
 10
2.850747
 20
3.230124
 30
0.0
 10
3.021108
 20
3.141808
 30
0.0
 10
3.159035
 20
3.031538
 30
0.0
 10
3.251053
 20
2.910890
 30
0.0
 10
3.333000
 20
2.811251
 30
0.0
 10
3.377533
 20
2.746280
 30
0.0
 10
3.396891
 20
2.718038
 30
0.0
 11
1.899170
 21
3.301717
 31
0.0
 11
2.157165
 21
3.361663
 31
0.0
 11
2.408572
 21
3.358598
 31
0.0
 11
2.661825
 21
3.301717
 31
0.0
 11
2.848465
 21
3.227730
 31
0.0
 11
3.027659
 21
3.130166
 31
0.0
 11
3.158488
 21
3.022685
 31
0.0
 11
3.255289
 21
2.906950
 31
0.0
 11
3.337784
 21
2.801975
 31
0.0
 11
3.396891
 21
2.718038
 31
0.0
  0
LWPOLYLINE
  5
152
100
AcDbEntity
  8
trace_1
 62
7
100
AcDbPolyline
 90
1
 70
1
 10
0.967997
 20
1.840942
 30
0.0
  0
LWPOLYLINE
  5
153
100
AcDbEntity
  8
trace_1
 62
7
100
AcDbPolyline
 90
1
 70
1
 10
2.280497
 20
3.785339
 30
0.0
  0
SPLINE
  5
154
100
AcDbEntity
  8
trace_1
 62
7
100
AcDbSpline
 70
0
 71
3
 72
16
 73
12
 74
10
 40
0.000000
 40
0.000000
 40
0.000000
 40
0.000000
 40
0.166769
 40
0.388839
 40
0.541170
 40
0.655680
 40
0.819844
 40
1.011821
 40
1.292485
 40
1.601552
 40
1.935374
 40
1.935374
 40
1.935374
 40
1.935374
 10
3.396891
 20
2.718038
 30
0.0
 10
3.424291
 20
2.767218
 30
0.0
 10
3.488176
 20
2.881885
 30
0.0
 10
3.506627
 20
3.060079
 30
0.0
 10
3.532760
 20
3.232566
 30
0.0
 10
3.433223
 20
3.347726
 30
0.0
 10
3.314535
 20
3.446744
 30
0.0
 10
3.139850
 20
3.569657
 30
0.0
 10
2.905697
 20
3.686188
 30
0.0
 10
2.606530
 20
3.770027
 30
0.0
 10
2.391929
 20
3.780106
 30
0.0
 10
2.280497
 20
3.785339
 30
0.0
 11
3.396891
 21
2.718038
 31
0.0
 11
3.469778
 21
2.868036
 31
0.0
 11
3.511555
 21
3.086140
 31
0.0
 11
3.510050
 21
3.238464
 31
0.0
 11
3.443690
 21
3.331786
 31
0.0
 11
3.319874
 21
3.439578
 31
0.0
 11
3.162211
 21
3.549113
 31
0.0
 11
2.910947
 21
3.674167
 31
0.0
 11
2.613081
 21
3.756621
 31
0.0
 11
2.280497
 21
3.785339
 31
0.0
  0
SPLINE
  5
155
100
AcDbEntity
  8
trace_1
 62
7
100
AcDbSpline
 70
0
 71
3
 72
10
 73
6
 74
4
 40
0.000000
 40
0.000000
 40
0.000000
 40
0.000000
 40
0.092759
 40
0.185520
 40
0.278603
 40
0.278603
 40
0.278603
 40
0.278603
 10
0.941203
 20
3.565857
 30
0.0
 10
0.959541
 20
3.540970
 30
0.0
 10
0.996219
 20
3.491196
 30
0.0
 10
1.053366
 20
3.417841
 30
0.0
 10
1.085221
 20
3.364639
 30
0.0
 10
1.101176
 20
3.337992
 30
0.0
 11
0.941203
 21
3.565857
 31
0.0
 11
0.996562
 21
3.491428
 31
0.0
 11
1.051739
 21
3.416862
 31
0.0
 11
1.101176
 21
3.337992
 31
0.0
  0
SPLINE
  5
156
100
AcDbEntity
  8
trace_1
 62
7
100
AcDbSpline
 70
0
 71
3
 72
10
 73
6
 74
4
 40
0.000000
 40
0.000000
 40
0.000000
 40
0.000000
 40
0.123131
 40
0.234194
 40
0.344821
 40
0.344821
 40
0.344821
 40
0.344821
 10
1.101176
 20
3.337992
 30
0.0
 10
1.130783
 20
3.366459
 30
0.0
 10
1.187097
 20
3.420604
 30
0.0
 10
1.278926
 20
3.490178
 30
0.0
 10
1.341511
 20
3.529494
 30
0.0
 10
1.372742
 20
3.549113
 30
0.0
 11
1.101176
 21
3.337992
 31
0.0
 11
1.191672
 21
3.421489
 31
0.0
 11
1.279932
 21
3.488907
 31
0.0
 11
1.372742
 21
3.549113
 31
0.0
  0
LWPOLYLINE
  5
157
100
AcDbEntity
  8
trace_1
 62
7
100
AcDbPolyline
 90
3
 70
0
 10
1.192322
 20
3.772318
 30
0.0
 10
1.148600
 20
3.563985
 30
0.0
 10
0.941203
 20
3.565857
 30
0.0
  0
SPLINE
  5
158
100
AcDbEntity
  8
trace_1
 62
7
100
AcDbSpline
 70
0
 71
3
 72
10
 73
6
 74
4
 40
0.000000
 40
0.000000
 40
0.000000
 40
0.000000
 40
0.096121
 40
0.191550
 40
0.287597
 40
0.287597
 40
0.287597
 40
0.287597
 10
1.372742
 20
3.549113
 30
0.0
 10
1.354925
 20
3.575749
 30
0.0
 10
1.319421
 20
3.628830
 30
0.0
 10
1.259615
 20
3.704005
 30
0.0
 10
1.214801
 20
3.749498
 30
0.0
 10
1.192322
 20
3.772318
 30
0.0
 11
1.372742
 21
3.549113
 31
0.0
 11
1.318203
 21
3.628264
 31
0.0
 11
1.258503
 21
3.702712
 31
0.0
 11
1.192322
 21
3.772318
 31
0.0
  0
SPLINE
  5
159
100
AcDbEntity
  8
trace_1
 62
7
100
AcDbSpline
 70
0
 71
3
 72
10
 73
6
 74
4
 40
0.000000
 40
0.000000
 40
0.000000
 40
0.000000
 40
0.096047
 40
0.191476
 40
0.287597
 40
0.287597
 40
0.287597
 40
0.287597
 10
3.368673
 20
3.772318
 30
0.0
 10
3.346193
 20
3.749498
 30
0.0
 10
3.301379
 20
3.704005
 30
0.0
 10
3.241573
 20
3.628830
 30
0.0
 10
3.206069
 20
3.575749
 30
0.0
 10
3.188253
 20
3.549113
 30
0.0
 11
3.368673
 21
3.772318
 31
0.0
 11
3.302492
 21
3.702712
 31
0.0
 11
3.242791
 21
3.628264
 31
0.0
 11
3.188253
 21
3.549113
 31
0.0
  0
SPLINE
  5
15a
100
AcDbEntity
  8
trace_1
 62
7
100
AcDbSpline
 70
0
 71
3
 72
10
 73
6
 74
4
 40
0.000000
 40
0.000000
 40
0.000000
 40
0.000000
 40
0.110627
 40
0.221690
 40
0.344821
 40
0.344821
 40
0.344821
 40
0.344821
 10
3.188253
 20
3.549113
 30
0.0
 10
3.219484
 20
3.529494
 30
0.0
 10
3.282069
 20
3.490178
 30
0.0
 10
3.373898
 20
3.420604
 30
0.0
 10
3.430211
 20
3.366459
 30
0.0
 10
3.459818
 20
3.337992
 30
0.0
 11
3.188253
 21
3.549113
 31
0.0
 11
3.281062
 21
3.488907
 31
0.0
 11
3.369322
 21
3.421489
 31
0.0
 11
3.459818
 21
3.337992
 31
0.0
  0
LWPOLYLINE
  5
15b
100
AcDbEntity
  8
trace_1
 62
7
100
AcDbPolyline
 90
1
 70
1
 10
1.192322
 20
3.772318
 30
0.0
  0
SPLINE
  5
15c
100
AcDbEntity
  8
trace_1
 62
7
100
AcDbSpline
 70
0
 71
3
 72
10
 73
6
 74
4
 40
0.000000
 40
0.000000
 40
0.000000
 40
0.000000
 40
0.093083
 40
0.185844
 40
0.278603
 40
0.278603
 40
0.278603
 40
0.278603
 10
3.459818
 20
3.337992
 30
0.0
 10
3.475774
 20
3.364639
 30
0.0
 10
3.507629
 20
3.417841
 30
0.0
 10
3.564776
 20
3.491196
 30
0.0
 10
3.601453
 20
3.540970
 30
0.0
 10
3.619792
 20
3.565857
 30
0.0
 11
3.459818
 21
3.337992
 31
0.0
 11
3.509256
 21
3.416862
 31
0.0
 11
3.564432
 21
3.491428
 31
0.0
 11
3.619792
 21
3.565857
 31
0.0
  0
SPLINE
  5
15d
100
AcDbEntity
  8
trace_1
 62
7
100
AcDbSpline
 70
0
 71
3
 72
10
 73
6
 74
4
 40
0.000000
 40
0.000000
 40
0.000000
 40
0.000000
 40
0.164869
 40
0.324644
 40
0.435167
 40
0.435167
 40
0.435167
 40
0.435167
 10
1.448283
 20
3.044820
 30
0.0
 10
1.412202
 20
3.003337
 30
0.0
 10
1.341154
 20
2.921652
 30
0.0
 10
1.254861
 20
2.804954
 30
0.0
 10
1.200768
 20
2.732909
 30
0.0
 10
1.178650
 20
2.703450
 30
0.0
 11
1.448283
 21
3.044820
 31
0.0
 11
1.341760
 21
2.918985
 31
0.0
 11
1.244922
 21
2.791900
 31
0.0
 11
1.178650
 21
2.703450
 31
0.0
  0
LWPOLYLINE
  5
15e
100
AcDbEntity
  8
trace_1
 62
7
100
AcDbPolyline
 90
3
 70
0
 10
3.619792
 20
3.565857
 30
0.0
 10
3.412394
 20
3.563985
 30
0.0
 10
3.368673
 20
3.772318
 30
0.0
  0
SPLINE
  5
15f
100
AcDbEntity
  8
trace_1
 62
7
100
AcDbSpline
 70
0
 71
3
 72
10
 73
6
 74
4
 40
0.000000
 40
0.000000
 40
0.000000
 40
0.000000
 40
0.146513
 40
0.322549
 40
0.485481
 40
0.485481
 40
0.485481
 40
0.485481
 10
1.178650
 20
2.703450
 30
0.0
 10
1.229698
 20
2.708768
 30
0.0
 10
1.342081
 20
2.720475
 30
0.0
 10
1.431142
 20
2.880140
 30
0.0
 10
1.442718
 20
2.991360
 30
0.0
 10
1.448283
 20
3.044820
 30
0.0
 11
1.178650
 21
2.703450
 31
0.0
 11
1.320816
 21
2.738876
 31
0.0
 11
1.419897
 21
2.884379
 31
0.0
 11
1.448283
 21
3.044820
 31
0.0
  0
SPLINE
  5
160
100
AcDbEntity
  8
trace_1
 62
7
100
AcDbSpline
 70
0
 71
3
 72
10
 73
6
 74
4
 40
0.000000
 40
0.000000
 40
0.000000
 40
0.000000
 40
0.162932
 40
0.338968
 40
0.485481
 40
0.485481
 40
0.485481
 40
0.485481
 10
3.112712
 20
3.044820
 30
0.0
 10
3.118276
 20
2.991360
 30
0.0
 10
3.129852
 20
2.880140
 30
0.0
 10
3.218913
 20
2.720475
 30
0.0
 10
3.331296
 20
2.708768
 30
0.0
 10
3.382345
 20
2.703450
 30
0.0
 11
3.112712
 21
3.044820
 31
0.0
 11
3.141097
 21
2.884379
 31
0.0
 11
3.240178
 21
2.738876
 31
0.0
 11
3.382345
 21
2.703450
 31
0.0
  0
LWPOLYLINE
  5
161
100
AcDbEntity
  8
trace_1
 62
7
100
AcDbPolyline
 90
1
 70
1
 10
1.448283
 20
3.044820
 30
0.0
  0
SPLINE
  5
162
100
AcDbEntity
  8
trace_1
 62
7
100
AcDbSpline
 70
0
 71
3
 72
10
 73
6
 74
4
 40
0.000000
 40
0.000000
 40
0.000000
 40
0.000000
 40
0.110523
 40
0.270298
 40
0.435167
 40
0.435167
 40
0.435167
 40
0.435167
 10
3.382345
 20
2.703450
 30
0.0
 10
3.360226
 20
2.732909
 30
0.0
 10
3.306134
 20
2.804954
 30
0.0
 10
3.219840
 20
2.921652
 30
0.0
 10
3.148793
 20
3.003337
 30
0.0
 10
3.112712
 20
3.044820
 30
0.0
 11
3.382345
 21
2.703450
 31
0.0
 11
3.316073
 21
2.791900
 31
0.0
 11
3.219234
 21
2.918985
 31
0.0
 11
3.112712
 21
3.044820
 31
0.0
  0
LWPOLYLINE
  5
163
100
AcDbEntity
  8
trace_1
 62
7
100
AcDbPolyline
 90
1
 70
1
 10
3.112712
 20
3.044820
 30
0.0
  0
ENDSEC
  0
SECTION
  2
OBJECTS
  0
DICTIONARY
  5
C
330
0
100
AcDbDictionary
  3
ACAD_GROUP
350
D
  3
ACAD_MLINESTYLE
350
17
  0
DICTIONARY
  5
D
330
C
100
AcDbDictionary
  0
DICTIONARY
  5
1A
330
C
100
AcDbDictionary
  0
DICTIONARY
  5
17
330
C
100
AcDbDictionary
  3
STANDARD
350
18
  0
DICTIONARY
  5
19
330
C
100
AcDbDictionary
  0
ENDSEC
  0
EOF
