<?xml version="1.0" encoding="UTF-8" standalone="no"?>
<!-- Created with Inkscape (http://www.inkscape.org/) -->

<svg
   width="12in"
   height="12in"
   viewBox="0 0 304.8 304.8"
   version="1.1"
   id="svg5"
   xml:space="preserve"
   inkscape:export-filename="wheymo.svg"
   inkscape:export-xdpi="96"
   inkscape:export-ydpi="96"
   inkscape:version="1.2.1 (9c6d41e, 2022-07-14)"
   sodipodi:docname="wheymo.svg"
   xmlns:inkscape="http://www.inkscape.org/namespaces/inkscape"
   xmlns:sodipodi="http://sodipodi.sourceforge.net/DTD/sodipodi-0.dtd"
   xmlns="http://www.w3.org/2000/svg"
   xmlns:svg="http://www.w3.org/2000/svg"><sodipodi:namedview
     id="namedview7"
     pagecolor="#ffffff"
     bordercolor="#000000"
     borderopacity="0.25"
     inkscape:showpageshadow="2"
     inkscape:pageopacity="0.0"
     inkscape:pagecheckerboard="0"
     inkscape:deskcolor="#d1d1d1"
     inkscape:document-units="mm"
     showgrid="false"
     inkscape:zoom="0.43115757"
     inkscape:cx="614.62449"
     inkscape:cy="543.88469"
     inkscape:window-width="1916"
     inkscape:window-height="1040"
     inkscape:window-x="0"
     inkscape:window-y="38"
     inkscape:window-maximized="1"
     inkscape:current-layer="text414" /><defs
     id="defs2"><rect
       x="86.222778"
       y="552.76215"
       width="614.43054"
       height="319.80481"
       id="rect356" /></defs><g
     inkscape:label="Layer 1"
     inkscape:groupmode="layer"
     id="layer1"><path
       style="fill:#000000;stroke-width:0.305206"
       d="m 121.31522,71.500219 c -1.75007,-0.625332 -3.63571,-1.919101 -4.77633,-3.277111 -0.64752,-0.770936 -24.930262,-42.707191 -27.127513,-46.849177 -0.634508,-1.196098 -0.72858,-1.787203 -0.72858,-4.578096 0,-3.06566 0.045,-3.287649 1.037427,-5.117804 1.241213,-2.2889404 2.86053,-3.8239195 5.182675,-4.9127489 1.460724,-0.6849197 2.122888,-0.8032177 4.46212,-0.7971687 2.320011,0.006 3.017021,0.132637 4.485461,0.8149557 3.08655,1.4341851 3.77498,2.4042035 12.57541,17.7192269 4.50946,7.847619 8.28807,14.268398 8.39691,14.268398 0.10885,0 3.83337,-6.333957 8.2767,-14.075462 8.74122,-15.2295954 9.61026,-16.4521418 12.72711,-17.9042059 1.49784,-0.6978087 2.17248,-0.8211327 4.51429,-0.8252137 2.50091,-0.0044 2.94005,0.08715 4.79094,0.9983354 1.23661,0.6087857 2.4939,1.5267481 3.19824,2.3350808 0.63833,0.7325714 4.7925,7.6633404 9.2315,15.4017074 4.43901,7.738368 8.1604,14.069758 8.26978,14.069758 0.10937,0 3.89342,-6.420779 8.40899,-14.268398 5.34837,-9.294956 8.64189,-14.7025257 9.44882,-15.5138804 4.60838,-4.6336373 12.38947,-4.0419886 16.37996,1.2454824 1.52496,2.02061 2.17143,4.057585 2.15385,6.786621 -0.0121,1.877416 -0.17439,2.547747 -1.07192,4.427421 -1.25842,2.635463 -25.22617,44.347337 -26.59833,46.289945 -1.17435,1.662572 -3.94627,3.505612 -6.02094,4.003322 -3.84266,0.921839 -7.96363,-0.312388 -10.52398,-3.151918 -0.90401,-1.002585 -4.36543,-6.697086 -9.39954,-15.463495 -4.38272,-7.632069 -8.08559,-13.88117 -8.2286,-13.886889 -0.25775,-0.01032 -0.96463,1.187588 -11.16015,18.912393 -5.67473,9.865466 -6.90573,11.491386 -9.75864,12.889307 -2.1859,1.071092 -5.85498,1.278116 -8.14566,0.459614 z"
       id="path416" /><g
       aria-label="WHEYMO"
       id="text414"
       style="font-size:50.8px;font-family:FreeSans;-inkscape-font-specification:FreeSans;text-align:center;letter-spacing:6.61458px;text-anchor:middle;stroke-width:0.961001;stroke-linejoin:round"><path
         d="m 55.158713,130.76984 h -5.1816 l -8.5344,-30.4292 -8.2804,30.4292 h -5.1816 L 18.481114,93.736645 h 5.283199 l 6.9596,30.073595 8.2296,-30.073595 h 5.08 l 8.4328,30.073595 6.8072,-30.073595 h 5.2832 z"
         style="stroke-width:0.961"
         id="path670" /><path
         d="M 99.771609,113.90424 H 80.72161 v 16.8656 h -4.7244 V 93.736645 h 4.7244 V 109.73864 H 99.771609 V 93.736645 h 4.724401 v 37.033195 h -4.724401 z"
         style="stroke-width:0.961"
         id="path667" /><path
         d="m 123.96293,113.90424 v 12.7 h 21.844 v 4.1656 h -26.5684 V 93.736645 h 25.654 v 4.165597 h -20.9296 v 11.836398 h 20.1676 v 4.1656 z"
         style="stroke-width:0.961"
         id="path664" /><path
         d="m 173.70668,116.24104 v 14.5288 h -4.7244 v -14.5288 l -14.2748,-22.504395 h 5.842 l 10.8712,18.033995 10.5664,-18.033995 h 5.6388 z"
         style="stroke-width:0.961"
         id="path661" /><path
         d="m 219.03084,130.76984 h -4.9784 l -10.5156,-31.038797 v 31.038797 h -4.4704 V 93.736645 h 6.5532 l 10.9728,32.257995 10.7696,-32.257995 h 6.5532 v 37.033195 h -4.4704 V 99.731043 Z"
         style="stroke-width:0.961"
         id="path658" /><path
         d="m 282.38895,112.83744 q 0,8.2296 -4.8768,13.6652 -4.8768,5.4356 -13.0048,5.4356 -8.0264,0 -12.954,-5.334 -4.9276,-5.3848 -4.9276,-14.0716 0,-8.6868 4.9276,-14.020791 4.9276,-5.384804 12.9032,-5.384804 8.128,0 13.0048,5.384804 4.9276,5.384791 4.9276,14.325591 z m -17.9324,-15.544792 q -5.8928,0 -9.4996,4.216392 -3.6068,4.1656 -3.6068,11.0236 0,6.858 3.6068,11.0744 3.6576,4.1656 9.5504,4.1656 5.8928,0 9.4996,-4.1656 3.6576,-4.1656 3.6576,-10.8712 0,-7.0104 -3.6068,-11.2268 -3.6068,-4.216392 -9.6012,-4.216392 z"
         style="stroke-width:0.961"
         id="path655" /></g></g></svg>
