<?xml version="1.0" encoding="UTF-8" standalone="no"?>
<!-- Created with Inkscape (http://www.inkscape.org/) -->

<svg
   width="60.126747mm"
   height="7.7450485mm"
   viewBox="0 0 60.126747 7.7450485"
   version="1.1"
   id="svg5"
   sodipodi:docname="distances.svg"
   inkscape:version="1.2.1 (9c6d41e, 2022-07-14)"
   xmlns:inkscape="http://www.inkscape.org/namespaces/inkscape"
   xmlns:sodipodi="http://sodipodi.sourceforge.net/DTD/sodipodi-0.dtd"
   xmlns="http://www.w3.org/2000/svg"
   xmlns:svg="http://www.w3.org/2000/svg">
  <sodipodi:namedview
     id="namedview7"
     pagecolor="#ffffff"
     bordercolor="#000000"
     borderopacity="0.25"
     inkscape:showpageshadow="2"
     inkscape:pageopacity="0.0"
     inkscape:pagecheckerboard="0"
     inkscape:deskcolor="#d1d1d1"
     inkscape:document-units="mm"
     showgrid="false"
     inkscape:zoom="1.7989002"
     inkscape:cx="290.45525"
     inkscape:cy="336.59456"
     inkscape:window-width="1846"
     inkscape:window-height="2030"
     inkscape:window-x="1990"
     inkscape:window-y="128"
     inkscape:window-maximized="1"
     inkscape:current-layer="layer1" />
  <defs
     id="defs2">
    <rect
       x="86.825478"
       y="184.17897"
       width="444.69949"
       height="116.07095"
       id="rect236" />
    <rect
       x="162.07153"
       y="124.16016"
       width="350.06775"
       height="94.975342"
       id="rect605" />
  </defs>
  <g
     inkscape:label="Layer 1"
     inkscape:groupmode="layer"
     id="layer1"
     transform="translate(-48.653161,-65.551771)">
    <g
       aria-label="2023 - 60 MI"
       transform="matrix(0.26458333,0,0,0.26458333,0,14.729272)"
       id="g603"
       style="font-weight:bold;font-size:40px;font-family:'Trader Joes';-inkscape-font-specification:'Trader Joes Bold';text-align:center;text-anchor:middle;white-space:pre;shape-inside:url(#rect236);fill:#d40000;stroke-width:3.63213;stroke-linejoin:round"
       inkscape:label="60mi"
       inkscape:export-filename="60mi.1.0.svg"
       inkscape:export-xdpi="96"
       inkscape:export-ydpi="96">
      <path
         d="m 371.18757,221.12079 h 6.16587 c 0,0 -0.48753,-10.75443 2.43767,-10.75443 3.38406,0 0.65961,10.75443 0.65961,10.75443 h 8.37411 c 0,0 -2.17956,-10.58236 1.11846,-10.58236 3.3267,0 2.20824,10.58236 2.20824,10.58236 h 6.56737 c 0,0 -1.49128,-1.69203 -2.95388,-9.11975 -1.4626,-7.42773 -2.20674,-11.24197 -2.20674,-11.24197 h -5.45041 c 0,0 0.25811,7.45641 -2.86785,7.45641 -2.60974,0 -2.6671,-7.45641 -2.6671,-7.45641 h -5.51681 c 0,0 -1.02188,8.02998 -3.31616,13.10607 -1.70986,4.92479 -2.55238,7.25565 -2.55238,7.25565 z"
         id="path595"
         sodipodi:nodetypes="ccsccsccsccscccc"
         style="stroke-width:2.6041" />
      <path
         d="m 408.09674,210.93993 c 0,-7.74319 3.03992,-10.18086 3.03992,-10.18086 h -10.06614 c 0,0 3.58481,3.84292 3.58481,10.35293 0,6.51002 -3.58481,10.00879 -3.58481,10.00879 h 10.06614 c 0,0 -3.03992,-3.84292 -3.03992,-10.18086 z"
         id="path597"
         style="stroke-width:2.6041" />
      <g
         aria-label="2023 - 60"
         transform="translate(-60.839622,60.417491)"
         id="text601"
         style="shape-inside:url(#rect605);display:inline">
        <path
           d="m 244.7256,132.08123 5.6,10.76 c 0,0 -0.36,-6.36 5.16,-6.16 5.48,0.2 5.44,4.36 2.04,6.68 -3.4,2.28 -5.92,3.44 -7.76,6.36 -1.84,2.92 -3.96,11.2 -3.96,11.2 h 23.64 l 0.92,-10.12 c 0,0 -11.6,6.2 -14.28,5.16 -2.32,-0.92 0,-6 5.68,-7.76 5.8,-1.76 7.8,-8.92 5.96,-12 -3.76,-6.4 -13.32,-4.48 -17.36,-3.4 -2.68,0.72 -5.64,-0.72 -5.64,-0.72 z"
           id="path1340" />
        <path
           d="m 283.96559,131.72123 c -6.8,0 -12.28,6.56 -12.28,14.6 0,8.08 5.48,14.6 12.28,14.6 6.8,0 12.28,-6.52 12.28,-14.6 0,-8.04 -5.48,-14.6 -12.28,-14.6 z m -1.56,21.04 c -3.36,0 -6.12,-2.76 -6.12,-6.16 0,-3.4 2.76,-6.16 6.12,-6.16 3.4,0 6.16,2.76 6.16,6.16 0,3.4 -2.76,6.16 -6.16,6.16 z"
           id="path1342" />
        <path
           d="m 297.56557,132.08123 5.6,10.76 c 0,0 -0.36,-6.36 5.16,-6.16 5.48,0.2 5.44,4.36 2.04,6.68 -3.4,2.28 -5.92,3.44 -7.76,6.36 -1.84,2.92 -3.96,11.2 -3.96,11.2 h 23.64 l 0.92,-10.12 c 0,0 -11.6,6.2 -14.28,5.16 -2.32,-0.92 0,-6 5.68,-7.76 5.8,-1.76 7.8,-8.92 5.96,-12 -3.76,-6.4 -13.32,-4.48 -17.36,-3.4 -2.68,0.72 -5.64,-0.72 -5.64,-0.72 z"
           id="path1344" />
        <path
           d="m 326.56556,132.24123 -2.04,9.24 c 0,0 7.04,-2.96 8.96,-3.44 1.92,-0.48 3.2,-1 4.12,0.12 0.92,1.16 2.28,3 1.36,4.28 -0.92,1.28 -2.92,1.2 -3.92,1.08 -1,-0.12 -2.84,-0.52 -2.84,-0.52 v 5.64 c 0,0 4.68,-1.4 5.6,-0.92 0.92,0.44 1.88,6.2 -0.32,7.4 -2.16,1.24 -5.08,-1.2 -8.08,-2.56 -2.96,-1.36 -4.88,-2.04 -4.88,-2.04 l 2.04,10.4 c 0,0 6.52,0 10.92,0 4.36,0 10.12,-4.64 9.24,-9.68 -0.84,-5 -5.92,-6.28 -5.92,-6.28 0,0 5.36,-1.24 4.16,-6.96 -1.24,-5.76 -6.92,-5.76 -10.72,-5.76 -3.76,0 -7.68,0 -7.68,0 z"
           id="path1346" />
        <path
           d="m 365.80546,143.60123 c -4.4,0 -10.12,-1 -10.12,-1 v 5.88 c 0,0 5.72,-1.16 9.8,-0.96 4.04,0.16 7.96,0.96 7.96,0.96 v -5.88 c 0,0 -3.24,1 -7.64,1 z"
           id="path1348" />
        <path
           d="m 392.88542,144.28123 c -4.92,1.36 -5.68,-6.64 -0.44,-7.6 4.16,-0.76 6.28,3.84 6.28,3.84 l 1.64,-8.68 -2.4,1.8 c 0,0 -3.08,-2.24 -7.96,-1.44 -2,0.32 -5.6,1.48 -7.2,8.12 -1.56,6.68 0.04,19.36 7.44,20.4 7.4,1.04 12.44,-1.56 13.28,-9.2 0.76,-7.2 -5.72,-8.56 -10.64,-7.24 z m -0.84,12.12 c -2.12,0 -3.88,-1.92 -3.88,-4.32 0,-2.4 1.76,-4.32 3.88,-4.32 2.16,0 3.92,1.92 3.92,4.32 0,2.4 -1.76,4.32 -3.92,4.32 z"
           id="path1350" />
        <path
           d="m 417.16536,131.72123 c -6.8,0 -12.28,6.56 -12.28,14.6 0,8.08 5.48,14.6 12.28,14.6 6.8,0 12.28,-6.52 12.28,-14.6 0,-8.04 -5.48,-14.6 -12.28,-14.6 z m -1.56,21.04 c -3.36,0 -6.12,-2.76 -6.12,-6.16 0,-3.4 2.76,-6.16 6.12,-6.16 3.4,0 6.16,2.76 6.16,6.16 0,3.4 -2.76,6.16 -6.16,6.16 z"
           id="path1352" />
      </g>
    </g>
  </g>
</svg>
