<?xml version="1.0" encoding="UTF-8" standalone="no"?>
<!-- Created with Inkscape (http://www.inkscape.org/) -->

<svg
   width="210mm"
   height="297mm"
   viewBox="0 0 210 297"
   version="1.1"
   id="svg5"
   inkscape:version="1.2.1 (9c6d41e, 2022-07-14)"
   sodipodi:docname="distances.svg"
   xmlns:inkscape="http://www.inkscape.org/namespaces/inkscape"
   xmlns:sodipodi="http://sodipodi.sourceforge.net/DTD/sodipodi-0.dtd"
   xmlns="http://www.w3.org/2000/svg"
   xmlns:svg="http://www.w3.org/2000/svg">
  <sodipodi:namedview
     id="namedview7"
     pagecolor="#ffffff"
     bordercolor="#000000"
     borderopacity="0.25"
     inkscape:showpageshadow="2"
     inkscape:pageopacity="0.0"
     inkscape:pagecheckerboard="0"
     inkscape:deskcolor="#d1d1d1"
     inkscape:document-units="mm"
     showgrid="false"
     inkscape:zoom="2.544029"
     inkscape:cx="296.57681"
     inkscape:cy="236.04291"
     inkscape:window-width="1920"
     inkscape:window-height="1080"
     inkscape:window-x="0"
     inkscape:window-y="0"
     inkscape:window-maximized="1"
     inkscape:current-layer="g603" />
  <defs
     id="defs2">
    <rect
       x="162.07153"
       y="124.16016"
       width="350.06775"
       height="94.975342"
       id="rect591" />
    <rect
       x="86.825475"
       y="184.17897"
       width="444.6995"
       height="116.07095"
       id="rect236" />
    <rect
       x="162.07153"
       y="124.16016"
       width="350.06775"
       height="94.975342"
       id="rect605" />
  </defs>
  <g
     inkscape:label="Layer 1"
     inkscape:groupmode="layer"
     id="layer1">
    <g
       aria-label="2023 - 60 MI"
       transform="scale(0.26458333)"
       id="text234"
       style="font-weight:bold;font-size:40px;font-family:'Trader Joes';-inkscape-font-specification:'Trader Joes Bold';text-align:center;text-anchor:middle;white-space:pre;shape-inside:url(#rect236);fill:#d40000;stroke-width:3.63213;stroke-linejoin:round">
      <path
         d="m 371.18757,221.12079 h 6.16587 c 0,0 -0.48753,-10.75443 2.43767,-10.75443 3.38406,0 0.65961,10.75443 0.65961,10.75443 h 8.37411 c 0,0 -2.17956,-10.58236 1.11846,-10.58236 3.3267,0 2.20824,10.58236 2.20824,10.58236 h 6.56737 c 0,0 -1.49128,-1.69203 -2.95388,-9.11975 -1.4626,-7.42773 -2.20674,-11.24197 -2.20674,-11.24197 h -5.45041 c 0,0 0.25811,7.45641 -2.86785,7.45641 -2.60974,0 -2.6671,-7.45641 -2.6671,-7.45641 h -5.51681 c 0,0 -1.02188,8.02998 -3.31616,13.10607 -1.70986,4.92479 -2.55238,7.25565 -2.55238,7.25565 z"
         id="path412"
         sodipodi:nodetypes="ccsccsccsccscccc"
         style="stroke-width:2.6041" />
      <path
         d="m 408.09674,210.93993 c 0,-7.74319 3.03992,-10.18086 3.03992,-10.18086 h -10.06614 c 0,0 3.58481,3.84292 3.58481,10.35293 0,6.51002 -3.58481,10.00879 -3.58481,10.00879 h 10.06614 c 0,0 -3.03992,-3.84292 -3.03992,-10.18086 z"
         id="path414"
         style="stroke-width:2.6041" />
      <text
         xml:space="preserve"
         id="text589"
         style="font-style:normal;font-variant:normal;font-weight:bold;font-stretch:normal;font-size:40px;font-family:'Trader Joes';-inkscape-font-specification:'Trader Joes Bold';text-align:center;white-space:pre;shape-inside:url(#rect591);fill:#d40000;stroke-width:3.63213;stroke-linejoin:round"
         transform="translate(-60.839622,60.417491)"><tspan
           x="245.2056"
           y="160.92123"
           id="tspan640">2023 - 40</tspan></text>
    </g>
    <g
       aria-label="2023 - 60 MI"
       transform="matrix(0.26458333,0,0,0.26458333,0,14.729272)"
       id="g603"
       style="font-weight:bold;font-size:40px;font-family:'Trader Joes';-inkscape-font-specification:'Trader Joes Bold';text-align:center;text-anchor:middle;white-space:pre;shape-inside:url(#rect236);fill:#d40000;stroke-width:3.63213;stroke-linejoin:round">
      <path
         d="m 371.18757,221.12079 h 6.16587 c 0,0 -0.48753,-10.75443 2.43767,-10.75443 3.38406,0 0.65961,10.75443 0.65961,10.75443 h 8.37411 c 0,0 -2.17956,-10.58236 1.11846,-10.58236 3.3267,0 2.20824,10.58236 2.20824,10.58236 h 6.56737 c 0,0 -1.49128,-1.69203 -2.95388,-9.11975 -1.4626,-7.42773 -2.20674,-11.24197 -2.20674,-11.24197 h -5.45041 c 0,0 0.25811,7.45641 -2.86785,7.45641 -2.60974,0 -2.6671,-7.45641 -2.6671,-7.45641 h -5.51681 c 0,0 -1.02188,8.02998 -3.31616,13.10607 -1.70986,4.92479 -2.55238,7.25565 -2.55238,7.25565 z"
         id="path595"
         sodipodi:nodetypes="ccsccsccsccscccc"
         style="stroke-width:2.6041" />
      <path
         d="m 408.09674,210.93993 c 0,-7.74319 3.03992,-10.18086 3.03992,-10.18086 h -10.06614 c 0,0 3.58481,3.84292 3.58481,10.35293 0,6.51002 -3.58481,10.00879 -3.58481,10.00879 h 10.06614 c 0,0 -3.03992,-3.84292 -3.03992,-10.18086 z"
         id="path597"
         style="stroke-width:2.6041" />
      <text
         xml:space="preserve"
         id="text601"
         style="font-style:normal;font-variant:normal;font-weight:bold;font-stretch:normal;font-size:40px;font-family:'Trader Joes';-inkscape-font-specification:'Trader Joes Bold';text-align:center;white-space:pre;shape-inside:url(#rect605);fill:#d40000;stroke-width:3.63213;stroke-linejoin:round"
         transform="translate(-60.839622,60.417491)"><tspan
           x="244.0856"
           y="160.92123"
           id="tspan642">2023 - 60</tspan></text>
    </g>
  </g>
</svg>
