<?xml version="1.0" encoding="UTF-8" standalone="no"?>
<!-- Created with Inkscape (http://www.inkscape.org/) -->

<svg
   width="80.923096mm"
   height="81.426514mm"
   viewBox="0 0 80.923096 81.426514"
   version="1.1"
   id="svg5"
   xml:space="preserve"
   xmlns="http://www.w3.org/2000/svg"
   xmlns:svg="http://www.w3.org/2000/svg"><defs
     id="defs2" /><g
     id="layer1"
     transform="translate(665.74562,-2066.5642)"><path
       d="m -656.70291,2112.189 c 0.91864,-0.7409 1.28905,-1.2891 2.02989,-1.8521 0,0 0.57785,-0.3112 0.91863,-0.1778 0.40005,0.1481 0.54822,0.9186 0.54822,0.9186 0.19261,0.7408 -0.1778,3.5116 -1.65947,6.8453 h 5.36363 c -1.28905,-3.7042 -2.2225,-7.0231 -0.91863,-7.7639 0,0 0.5334,-0.2075 0.91863,0.1778 0.37042,0.3704 1.12607,1.3335 1.85209,1.8521 l -1.67429,-4.6228 h -5.54143 z"
       id="path38123"
       style="font-size:56px;line-height:0.9;font-family:'Trader Joes';-inkscape-font-specification:'Trader Joes';text-align:center;text-anchor:middle;white-space:pre;fill:#d40000;stroke-width:3" /><path
       d="m -642.7308,2107.4624 c -2.44475,0 -4.43019,2.3707 -4.43019,5.2748 0,2.904 1.98544,5.2599 4.43019,5.2599 2.44475,0 4.43018,-2.3559 4.43018,-5.2599 0,-2.9041 -1.98543,-5.2748 -4.43018,-5.2748 z m -0.56304,7.5862 c -1.21496,0 -2.20768,-0.9927 -2.20768,-2.2225 0,-1.2298 0.99272,-2.2225 2.20768,-2.2225 1.22979,0 2.2225,0.9927 2.2225,2.2225 0,1.2298 -0.99271,2.2225 -2.2225,2.2225 z"
       id="path38125"
       style="font-size:56px;line-height:0.9;font-family:'Trader Joes';-inkscape-font-specification:'Trader Joes';text-align:center;text-anchor:middle;white-space:pre;fill:#d40000;stroke-width:3" /><path
       d="m -631.04047,2107.6847 c 0.45931,1.2001 1.18533,4.3413 -0.50377,6.6527 -0.68157,0.8593 -4.74133,0.7704 -2.16323,-6.6527 -1.21497,0 -2.88925,0 -4.10422,0 0,0 1.52612,1.3187 1.80763,6.5934 0.10372,1.9854 1.73355,3.0374 2.23732,3.393 0.87418,0.6075 2.10397,0.652 2.96333,0.1778 1.71874,-0.9482 2.4892,-2.0595 2.4003,-4.608 -0.19261,-4.445 1.79282,-5.408 1.79282,-5.5562 z"
       id="path38127"
       style="font-size:56px;line-height:0.9;font-family:'Trader Joes';-inkscape-font-specification:'Trader Joes';text-align:center;text-anchor:middle;white-space:pre;fill:#d40000;stroke-width:3" /><path
       d="m -616.89056,2117.9082 c -0.0296,-0.5038 -0.91864,-1.2891 -1.65947,-2.5781 -0.60748,-1.0668 -1.0668,-2.6966 -1.11125,-2.9633 0,0 1.49648,-1.1409 1.65947,-2.4003 0.14816,-1.0372 -0.37042,-2.2077 -1.11125,-2.4003 h -7.00829 c 0,0.5185 1.83727,1.289 1.46685,5.734 0,0 -0.54821,3.6894 -1.46685,4.608 h 4.23757 c -0.91863,-1.0964 -1.46685,-4.2376 -0.74083,-4.608 0,0 0.56303,-0.3704 0.93345,0.1778 0,0 0.6223,0.5186 0.91863,1.2891 0.74083,1.852 0.19262,2.8299 0.19262,3.1411 z m -3.68935,-7.2009 c -0.0741,0.7705 -1.67429,1.4817 -2.0447,1.4817 0,0 0.19261,-0.7557 0.19261,-1.4817 0,-0.6519 -0.19261,-1.6595 -0.19261,-1.6595 0,0 2.2225,-0.1926 2.0447,1.6595 z"
       id="path38129"
       style="font-size:56px;line-height:0.9;font-family:'Trader Joes';-inkscape-font-specification:'Trader Joes';text-align:center;text-anchor:middle;white-space:pre;fill:#d40000;stroke-width:3" /><path
       d="m -606.83597,2107.5069 h -5.17102 c 0.0296,1.1705 1.65947,2.5929 1.28905,5.9118 -0.29633,2.667 -1.11125,4.445 -1.11125,4.445 1.18533,0 3.54118,0.1038 4.8006,0 2.02988,-0.1926 3.7338,-2.6077 3.70417,-5.3636 -0.0296,-2.2669 -1.85209,-4.4302 -3.51155,-4.9932 z m -1.30387,7.4528 c 0,0 0,0.7408 -0.54822,-1.6595 -0.3556,-1.5409 0,-3.882 0,-3.882 0,0 2.69664,0.815 2.77072,2.7708 0.0741,2.1039 -1.65947,2.5781 -2.2225,2.7707 z"
       id="path38131"
       style="font-size:56px;line-height:0.9;font-family:'Trader Joes';-inkscape-font-specification:'Trader Joes';text-align:center;text-anchor:middle;white-space:pre;fill:#d40000;stroke-width:3" /><path
       d="m -595.63457,2117.9082 0.74083,-3.6894 c -0.90382,0.044 -2.96333,1.4817 -4.25238,1.6595 -1.21497,0.1778 -0.9779,-2.0447 -0.74084,-2.5781 0.23707,-0.5186 2.02989,0.1778 2.2225,0.1778 v -2.0299 c -2.87443,0.726 -3.06705,-0.6815 -1.85208,-1.8521 0.66675,-0.6371 3.94123,1.2743 4.6228,1.3039 l -0.74083,-3.3337 h -7.2009 c 0,0.2667 1.09643,3.0077 1.09643,5.5414 0,2.3707 -1.09643,4.5339 -1.09643,4.8006 z"
       id="path38133"
       style="font-size:56px;line-height:0.9;font-family:'Trader Joes';-inkscape-font-specification:'Trader Joes';text-align:center;text-anchor:middle;white-space:pre;fill:#d40000;stroke-width:3" /><path
       d="m -642.68185,2120.9011 c 1.11125,0.7409 3.68935,4.2524 1.48166,7.0231 -0.69638,0.8742 -3.70416,-0.1778 -1.48166,-2.2225 -0.56304,0.1926 -3.88197,2.0003 -4.43019,2.2225 0,0 1.46685,0.3704 2.02989,1.2891 0.40005,0.7112 0.78528,1.3187 1.28905,1.6743 0.87418,0.6074 2.10396,0.6371 2.96333,0.1778 1.71873,-0.9631 2.4892,-2.0744 2.4003,-4.6228 -0.19262,-4.4302 2.4003,-5.3933 2.4003,-5.5415 z"
       id="path38135"
       style="font-size:56px;line-height:0.9;font-family:'Trader Joes';-inkscape-font-specification:'Trader Joes';text-align:center;text-anchor:middle;white-space:pre;fill:#d40000;stroke-width:3" /><path
       d="m -631.11006,2120.7974 c -2.44475,0 -4.43019,2.3707 -4.43019,5.2747 0,2.9041 1.98544,5.26 4.43019,5.26 2.44475,0 4.43018,-2.3559 4.43018,-5.26 0,-2.904 -1.98543,-5.2747 -4.43018,-5.2747 z m -0.56304,7.5861 c -1.21496,0 -2.20768,-0.9927 -2.20768,-2.2225 0,-1.2297 0.99272,-2.2225 2.20768,-2.2225 1.22979,0 2.2225,0.9928 2.2225,2.2225 0,1.2298 -0.99271,2.2225 -2.2225,2.2225 z"
       id="path38137"
       style="font-size:56px;line-height:0.9;font-family:'Trader Joes';-inkscape-font-specification:'Trader Joes';text-align:center;text-anchor:middle;white-space:pre;fill:#d40000;stroke-width:3" /><path
       d="m -618.24922,2127.5538 c -0.90382,0.044 -2.96333,1.4817 -4.25238,1.6595 -1.21497,0.1778 -0.9779,-2.0447 -0.74084,-2.5781 0.23707,-0.5186 2.02989,0.1778 2.2225,0.1778 v -2.0299 c -2.87443,0.726 -3.06705,-0.6816 -1.85208,-1.8521 0.66675,-0.6371 3.94123,1.2742 4.6228,1.3039 l -0.74083,-3.3338 h -7.2009 c 0,0.2667 1.09643,3.0078 1.09643,5.5415 0,2.3706 -1.09643,4.5339 -1.09643,4.8006 h 7.2009 z"
       id="path38139"
       style="font-size:56px;line-height:0.9;font-family:'Trader Joes';-inkscape-font-specification:'Trader Joes';text-align:center;text-anchor:middle;white-space:pre;fill:#d40000;stroke-width:3" /><path
       d="m -616.81203,2124.7831 c 0,0 2.8448,-2.6226 1.85209,-3.882 -0.74084,-0.9186 -1.85209,-0.8297 -2.2225,-0.5482 -1.65947,1.2891 0.74083,2.9633 0.74083,2.9633 z"
       id="path38141"
       style="font-size:56px;line-height:0.9;font-family:'Trader Joes';-inkscape-font-specification:'Trader Joes';text-align:center;text-anchor:middle;white-space:pre;fill:#d40000;stroke-width:3" /><path
       d="m -606.51448,2120.99 c -0.23706,0 -3.39301,-0.889 -5.17101,0.1926 -0.84455,0.5186 -1.57057,1.5854 -1.52612,2.6078 0.0444,1.2742 0.45932,1.8669 0.78528,2.1928 1.11125,1.1113 1.28905,0.5483 2.2225,1.6595 0.59267,0.726 -0.37041,1.4817 -0.93345,1.4817 -1.21496,0 -1.4224,-2.1929 -1.65946,-2.2225 l -1.46685,4.2524 c 0.54821,0.2222 1.28905,-0.1778 1.65946,-0.3705 1.28905,0.1927 0.91864,0.3705 3.14114,0.3705 2.02988,0 3.31893,-0.5038 3.31893,-2.9486 0,-1.852 -1.48167,-2.9633 -2.4003,-3.1411 -1.28905,-0.2667 -1.65947,-1.3039 -1.28905,-2.0447 0.22225,-0.4149 0.77047,-0.5482 1.48167,-0.5482 0.91863,0 1.17051,0.4445 1.28905,0.5482 0.1778,0.1926 0.60748,0.9483 0.54821,1.6743 l 2.02989,-3.882 c -0.3556,-0.1481 -1.65947,0.5482 -2.02989,0.1778 z"
       id="path38143"
       style="font-size:56px;line-height:0.9;font-family:'Trader Joes';-inkscape-font-specification:'Trader Joes';text-align:center;text-anchor:middle;white-space:pre;fill:#d40000;stroke-width:3" /><path
       id="path38113"
       style="fill:#d40000;fill-opacity:1;stroke-width:0.0749397"
       d="m -630.6456,2066.5642 c -0.55492,0.015 -1.72258,0.192 -2.25361,0.3721 -0.7951,0.2703 -1.85444,0.8832 -2.24637,1.2991 -0.47016,0.4991 -0.66082,0.9286 -0.66146,1.4893 -6.8e-4,0.5841 0.191,0.8846 0.67592,1.0594 0.22928,0.083 0.37277,0.1961 0.47388,0.3746 0.0926,0.1636 0.19757,0.252 0.29042,0.2455 0.12172,-0.01 0.15748,0.059 0.22169,0.4165 0.10178,0.5665 0.16362,0.6511 0.44029,0.6026 0.1754,-0.032 0.24041,-0.01 0.2868,0.111 0.0333,0.084 0.12377,0.1468 0.20412,0.1411 0.0946,-0.01 0.14807,0.041 0.15503,0.1395 0.006,0.082 0.0546,0.146 0.10852,0.1422 0.054,0 0.1802,0.089 0.28009,0.2062 0.3234,0.3783 0.8473,0.2263 1.45934,-0.4233 l 0.31005,-0.3292 0.33849,0.136 c 0.32784,0.1317 0.33721,0.1441 0.29094,0.387 -0.0263,0.138 -0.15181,1.4926 -0.27906,3.0097 -0.12724,1.5171 -0.24054,2.7697 -0.25166,2.7838 -0.0111,0.014 -1.08371,0.4212 -2.38383,0.9054 -2.31425,0.8618 -2.37603,0.8805 -2.93212,0.8743 -0.31239,0 -0.64045,-0.017 -0.72915,-0.028 -0.0918,-0.013 -0.26983,0.063 -0.41239,0.1756 -0.14675,0.1156 -0.28016,0.1717 -0.32193,0.1355 -0.0545,-0.047 -1.0177,0.6424 -1.21595,0.8707 -0.0158,0.019 0.0662,0.2269 0.18241,0.4636 0.13752,0.2801 0.2046,0.5179 0.19225,0.6816 -0.0148,0.1952 0.0191,0.2763 0.14883,0.3607 0.12991,0.084 0.19657,0.2475 0.29972,0.7297 0.10753,0.5024 0.14321,0.5861 0.18655,0.4377 0.0742,-0.2539 0.042,-0.9315 -0.0667,-1.3958 -0.0974,-0.4163 -0.0222,-0.5279 0.14676,-0.2171 0.0557,0.1023 0.1614,0.1763 0.24339,0.1705 0.20085,-0.014 0.24349,0.13 0.11989,0.4047 -0.16773,0.3727 -0.0574,1.5687 0.17881,1.9409 0.36654,0.5776 0.64932,0.7341 1.75854,0.9742 0.55874,0.1208 1.09134,0.2147 1.18339,0.2082 0.22029,-0.015 0.39476,-0.3302 0.31627,-0.57 -0.0528,-0.1612 -0.17895,-0.213 -1.02888,-0.4237 -1.07608,-0.267 -1.05896,-0.2603 -1.31155,-0.5452 -0.55686,-0.6282 -0.41184,-1.5184 0.31884,-1.9586 0.43396,-0.2613 1.38449,-0.266 2.44275,-0.012 0.77146,0.1853 0.78821,0.1939 0.7555,0.3892 -0.1152,0.6876 -0.14671,0.7825 -0.25217,0.7503 -0.0793,-0.024 -0.13401,0.086 -0.19948,0.4021 -0.33989,1.6423 -0.52082,2.2714 -0.67644,2.3544 -0.0882,0.047 -0.15725,0.1361 -0.15348,0.1983 0.0162,0.2675 -0.082,0.3137 -0.47593,0.2233 -0.20734,-0.048 -0.78029,-0.097 -1.27332,-0.1095 -5.61047,-0.1443 -9.89855,5.0663 -8.66304,10.5269 0.94511,4.1771 4.78731,7.0349 9.0563,6.7351 1.68522,-0.1189 3.2923,-0.7137 4.59404,-1.7018 2.36856,-1.7977 3.63623,-4.527 3.43803,-7.402 -0.0546,-0.7851 -0.0478,-0.8585 0.0718,-0.8135 0.19989,0.075 1.51808,0.01 1.51203,-0.079 -0.0118,-0.1673 0.72309,-0.1189 1.43403,0.094 l 0.72914,0.218 0.0466,0.6109 c 0.0531,0.7039 0.21021,1.0219 0.7121,1.4422 0.51438,0.4308 0.84551,0.5027 2.16163,0.4667 0.74739,-0.021 1.18996,-0.072 1.24636,-0.017 0.0481,0.045 0.18029,0.3501 0.28897,0.5904 0.60644,1.3406 2.04701,2.9025 3.40341,3.6902 0.64142,0.3724 1.58192,0.7577 2.26912,0.9296 1.28355,0.321 2.98677,0.3242 4.23282,0.01 h -3.1e-4 c 4.09266,-1.041 6.84096,-4.8277 6.54535,-9.018 -0.30142,-4.2726 -3.68951,-7.662 -8.00158,-8.0042 -0.91668,-0.073 -1.57854,-0.024 -2.50425,0.1854 -1.10624,0.2468 -2.24983,0.7461 -3.12488,1.3642 -0.33641,0.2377 -0.4337,0.2773 -0.48679,0.1969 -0.0366,-0.056 -0.43492,-0.5215 -0.88522,-1.0356 l -0.81855,-0.9348 0.49506,-1.925 c 0.47794,-1.8575 0.62386,-2.2916 0.77359,-2.3021 0.18354,-0.013 0.90275,-0.3972 1.09865,-0.5871 0.26251,-0.2546 0.45768,-0.7414 0.43563,-1.0863 -0.0127,-0.2044 -0.0546,-0.261 -0.22738,-0.3126 -0.21039,-0.063 -0.21069,-0.065 -0.22841,-0.6898 -0.0219,-0.7733 -0.25249,-1.4288 -0.71985,-2.048 -0.49049,-0.6498 -1.26202,-1.2131 -1.91616,-1.3989 -0.19203,-0.054 -0.32706,-0.3431 -0.60109,-0.6804 -1.76711,-2.1759 -3.99491,-3.6568 -5.92386,-4.1406 -1.07531,-0.2698 -2.44645,-0.1926 -3.29978,0.1329 -0.32919,0.1255 -0.38764,0.1264 -0.75502,0.017 -0.58463,-0.1729 -0.64511,-0.2324 -0.76636,-0.7576 -0.0598,-0.259 -0.16874,-0.5501 -0.24236,-0.6469 -0.12411,-0.1631 -0.12739,-0.2438 -0.0434,-1.1075 0.0498,-0.5123 0.0878,-0.9732 0.0842,-1.0242 -0.003,-0.037 -0.11943,-0.051 -0.30438,-0.045 z m -0.0811,0.7079 -0.0294,0.3024 c -0.0462,0.4742 -0.0718,0.542 -0.24339,0.6403 -0.20508,0.1174 -0.49507,0.1479 -0.50178,0.053 -0.003,-0.04 0.0797,-0.1376 0.18346,-0.2166 0.10379,-0.079 0.27948,-0.2862 0.39015,-0.4609 z m -1.80506,0.4853 c 0.0146,-10e-4 -2e-5,0.024 -0.0388,0.078 -0.0499,0.071 -0.074,0.2125 -0.0532,0.3152 0.0317,0.1564 -0.026,0.2341 -0.3545,0.4775 -0.21597,0.1599 -0.40175,0.2927 -0.41289,0.2946 -0.0113,8e-4 0.0311,-0.093 0.0946,-0.2114 0.23655,-0.4407 0.43857,-0.7187 0.62477,-0.8594 0.0812,-0.061 0.12551,-0.092 0.14003,-0.095 z m -1.40353,0.7586 c 0.0359,0 0.0353,0.037 -10e-4,0.09 -0.0368,0.054 -0.11807,0.2713 -0.18035,0.4822 -0.12717,0.431 -0.44317,0.843 -0.49712,0.6481 -0.0174,-0.063 0.004,-0.1944 0.0465,-0.2925 l 5.1e-4,-6e-4 c 0.12181,-0.2766 0.55887,-0.9189 0.63149,-0.9276 z m -0.7377,0.052 c 0.0593,0 -0.1396,0.6129 -0.3054,0.9478 -0.0922,0.1861 -0.16007,0.4534 -0.15142,0.5937 0.0137,0.2184 0.003,0.236 -0.0744,0.1226 -0.0496,-0.073 -0.0766,-0.2392 -0.0599,-0.3696 0.0275,-0.2151 0.51801,-1.2893 0.59118,-1.2945 z m 3.9703,0.1561 c 0.0915,0 0.13328,0.063 0.2031,0.2279 0.1671,0.3949 0.18414,0.8664 0.0351,0.9679 -0.17235,0.1173 -0.17721,0.114 -0.0982,-0.062 h -3.6e-4 c 0.0796,-0.1779 0.044,-0.1884 -0.17725,-0.051 l -0.15764,0.097 0.13746,-0.1824 0.13746,-0.1819 -0.21807,0.069 -0.21859,0.07 0.13591,-0.1773 0.13539,-0.1772 -0.16949,0.055 c -0.1402,0.046 -0.15522,0.035 -0.0883,-0.056 0.0659,-0.092 0.0477,-0.1106 -0.0971,-0.1024 -0.17205,0.012 -0.17332,0 -0.0398,-0.1095 0.13287,-0.1161 0.13104,-0.12 -0.0455,-0.108 l -0.18242,0.013 0.19586,-0.1204 c 0.1076,-0.067 0.28827,-0.1377 0.40152,-0.1591 0.0441,-0.012 0.0806,-0.014 0.11136,-0.01 z m -1.2583,0.1671 c 0.0146,0 0.0197,0 0.0145,0.014 -0.0843,0.1607 -0.50444,0.3514 -1.00615,0.4574 -0.59355,0.1254 -0.9127,0.2975 -1.31413,0.7079 -0.44424,0.4541 -0.39837,0.3369 0.0579,-0.1478 0.428,-0.4547 0.7246,-0.6098 1.23868,-0.6481 0.16445,-0.012 0.47113,-0.1176 0.68162,-0.234 0.15783,-0.088 0.28371,-0.144 0.32762,-0.1488 z m 0.41702,0.3307 c 0.0615,0 0.12257,0.029 0.18966,0.087 0.19907,0.173 0.25611,0.7131 0.11113,1.0496 -0.12117,0.2813 -0.18655,0.3037 -0.10593,0.036 l -5.2e-4,1e-4 c 0.0909,-0.3015 0.0314,-0.8291 -0.10437,-0.9266 -0.0953,-0.069 -0.15225,-0.059 -0.29405,0.05 -0.24226,0.1843 -0.30484,0.1737 -0.14881,-0.025 0.14383,-0.1834 0.24994,-0.2697 0.35294,-0.2708 z m -1.7544,0.4517 c 0.0977,-0.01 1.43761,0.9511 1.44332,1.032 0.007,0.1 -0.0644,0.06 -0.84027,-0.4626 -0.59113,-0.3985 -0.76065,-0.5583 -0.60305,-0.5694 z m 3.14037,0.494 c 0.075,0 0.16286,0.033 0.32814,0.099 l 0.34416,0.138 -0.13487,0.3359 c -0.1551,0.3863 -0.21028,0.4302 -0.16433,0.1313 l 5.2e-4,-6e-4 0.032,-0.2087 -0.13229,0.1783 c -0.17197,0.2322 -0.2046,0.2278 -0.17623,-0.025 l 0.0233,-0.2082 -0.16021,0.1617 -0.16122,0.1612 0.0822,-0.186 c 0.0707,-0.1612 0.0661,-0.1788 -0.0325,-0.1328 -0.0764,0.036 -0.10306,0.019 -0.0817,-0.052 0.0184,-0.061 -0.0274,-0.1129 -0.10697,-0.124 -0.11068,-0.015 -0.0919,-0.048 0.093,-0.1638 0.111,-0.07 0.17231,-0.1042 0.24701,-0.105 z m 4.56096,0.2589 c 1.14141,0.3024 2.44098,0.9909 3.43271,1.776 1.15784,0.9167 1.88875,1.5445 2.27405,2.0617 l 0.49286,0.547 c 0.12309,0.1653 -1.18884,0.7938 -1.49219,0.6643 -0.15411,-0.066 -0.30525,-0.1347 -0.45836,-0.2015 0,0 0.19841,-2.6522 -0.27541,-1.4479 -0.20949,0.5325 -0.42893,1.1368 -0.42893,1.1368 -0.20303,-0.092 -0.40265,-0.1879 -0.60306,-0.2827 0,0 0.75835,-2.6713 -2.3e-4,-1.6471 -0.34367,0.4641 -0.69379,1.3132 -0.69379,1.3132 -0.21948,-0.1091 -0.43707,-0.2198 -0.65216,-0.3328 0,0 1.07681,-2.7659 0.14654,-1.5551 -0.34445,0.4484 -0.80075,1.2022 -0.80075,1.2022 -0.16171,-0.09 -0.32163,-0.1815 -0.48008,-0.2744 0,0 0.39831,-0.9451 0.44636,-1.5994 0.0825,-1.1236 -1.15589,1.1653 -1.15589,1.1653 -0.20968,-0.133 -0.41631,-0.2685 -0.61856,-0.4071 0,0 0.80398,-1.5182 0.34374,-1.34 -0.4952,0.1918 -0.97884,0.8842 -0.97884,0.8842 -0.1642,-0.1233 -0.32478,-0.2494 -0.48265,-0.3773 0,0 0.43995,-0.9222 0.25297,-1.0374 -0.18698,-0.1151 -0.67311,0.6839 -0.67311,0.6839 -0.22688,-0.1978 -0.61988,-0.2123 -0.83067,-0.4219 l -0.30127,0.1819 0.0403,-0.1772 c 0.0591,-0.2602 0.0933,-0.3836 0.57361,-0.509 1.05593,-0.2633 1.92691,-0.21 2.92277,-0.01 z m -6.03271,0.5188 0.0382,0.4181 c 0.0214,0.2298 0.0311,0.6857 0.0232,1.0129 l -0.0145,0.5942 -0.0672,-0.6459 c -0.037,-0.3554 -0.0473,-0.8113 -0.0232,-1.0128 l -5.2e-4,-10e-5 z m 3.50521,3.9796 0.18347,0.044 c 0.30482,0.072 0.52883,0.1439 0.53072,0.1706 9.7e-4,0.014 -0.18845,0.6284 -0.42065,1.3653 -0.23221,0.7368 -0.53812,1.7112 -0.67954,2.1652 -0.14141,0.4542 -0.27219,0.8271 -0.29094,0.8284 -0.0188,0 -0.16303,-0.043 -0.3204,-0.099 h -5.1e-4 l -0.28629,-0.1012 c -0.10258,-0.1342 0.32754,-0.071 0.42643,-0.3513 0.0582,-0.165 -0.60064,-0.3763 -0.54059,-0.6007 0.0575,-0.2149 0.63115,0.154 0.7194,-0.09 0.0287,-0.079 -0.60098,-0.5992 -0.57401,-0.6841 0.0432,-0.1362 0.74573,0.087 0.79875,-0.048 0.0604,-0.1567 -0.73969,-0.5468 -0.69257,-0.7152 0.0612,-0.2187 0.81451,0.021 0.91368,-0.1738 0.0727,-0.1422 -0.82499,-0.7964 -0.72883,-0.9369 0.0585,-0.085 0.8495,0.2328 0.98571,0.064 0.13653,-0.1689 -0.61752,-0.7583 -0.74901,-0.9716 -0.11231,-0.1821 0.72791,0.1417 0.72537,0.1371 z m 0.62374,1.9591 h 0.062 c 0.10333,0.018 1.11901,0.3267 2.25723,0.6862 l 2.06964,0.6543 -0.20516,0.1834 c -0.11283,0.101 -0.74625,0.6593 -1.40766,1.2408 -1.09298,0.9609 -2.25004,2.0399 -2.96727,2.7678 l -0.27389,0.278 0.0739,0.8816 0.0734,0.8821 -2.12132,0.1498 -2.12131,0.1494 0.0589,-0.1969 c 0.0829,-0.2749 0.0713,-0.3152 -0.0992,-0.3472 -0.14874,-0.028 -0.14922,-0.031 -0.0292,-0.4879 0.0944,-0.3617 0.15893,-0.4727 0.30128,-0.5193 0.34156,-0.1118 0.53079,-0.4387 0.37568,-0.6485 -0.0954,-0.1291 -2.07376,-0.5299 -3.02565,-0.613 l -0.83148,-0.073 0.44492,-0.087 c 0.24455,-0.048 0.9702,-0.1765 1.61282,-0.2858 1.94065,-0.3302 3.23335,-0.6922 4.04369,-1.1327 l 0.46095,-0.2506 0.5612,-1.632 c 0.47318,-1.3767 0.55289,-1.5931 0.68679,-1.6045 z m 6.29729,2.4112 c 0.0632,0 0.14231,0.013 0.22325,0.035 l 0.29404,0.077 -0.19999,0.09 c -0.47399,0.2555 0.64818,0.7292 0.50902,0.9849 -0.12137,0.2229 -1.03853,-0.02 -0.9891,0.1757 0.0889,0.3513 0.79089,0.7867 0.77722,0.9106 -0.0472,0.4279 -1.1764,-0.1869 -1.18287,-0.074 -0.0237,0.4132 0.78194,0.747 0.83353,0.8258 0.21038,0.3213 -1.26877,-0.012 -1.24696,0.043 0.1425,0.3621 0.62008,0.8093 0.64699,0.8729 0.18476,0.4363 -0.99871,-0.063 -1.10587,-0.048 -0.40159,0.057 0.52201,0.8848 0.55551,0.9927 0.10792,0.3475 -1.15728,-0.2666 -1.05006,0.033 0.0864,0.2416 0.75655,0.5897 0.79014,0.6315 0.24008,0.2985 -1.02095,-0.021 -1.06916,0 -0.32287,0.1089 0.43142,0.6496 0.40515,0.6718 -0.0932,0.079 -0.65155,-0.1757 -0.67284,-0.1623 -0.11763,0.074 0.0258,0.5279 0.11986,0.6821 l -0.30798,-0.14 c -0.16935,-0.077 -0.30079,-0.1597 -0.29249,-0.1834 l -7.3e-4,-0.01 c 0.0646,-0.1853 2.79775,-6.3301 2.83911,-6.3831 0.0147,-0.018 0.061,-0.027 0.12402,-0.025 z m -16.89819,2.3973 c 0.0387,0 0.0273,0.059 -0.0383,0.1819 -0.0577,0.1087 -0.10454,0.1343 -0.14466,0.079 -0.0326,-0.046 -0.006,-0.1278 0.0594,-0.183 0.059,-0.049 0.10026,-0.076 0.12352,-0.077 z m 19.27066,1.4144 c 0.0129,0.011 -0.005,0.1377 -0.0403,0.2811 -0.035,0.1435 -0.0738,0.3035 -0.0858,0.356 -0.0121,0.052 -0.12577,0.1027 -0.25268,0.1117 l -0.23049,0.017 0.2925,-0.3927 c 0.1611,-0.2161 0.3039,-0.3838 0.31677,-0.3726 z m -4.66432,0.091 c 0.0152,0.013 -0.0755,0.2415 -0.20154,0.5075 l -0.22892,0.4832 -0.39895,0.028 c -0.39839,0.028 -0.39818,0.028 -0.46767,-0.2378 -0.0382,-0.1461 -0.0598,-0.2748 -0.0476,-0.2857 0.0577,-0.051 1.32043,-0.5166 1.34462,-0.4956 z m 3.98581,1.4346 c 0.16475,0 0.28164,0.01 0.28316,0.03 0.0107,0.1516 -0.85337,3.3749 -0.89297,3.3311 -0.0254,-0.029 -0.15945,-0.2627 -0.29766,-0.5215 v -5e-4 c -0.13833,-0.2588 -0.42151,-0.6948 -0.6289,-0.9695 l -0.37724,-0.4996 0.63872,-0.6646 0.63924,-0.6646 0.45733,-0.032 0.17799,-0.013 z m -4.91569,0.3467 c 0.10278,-0.01 0.18878,0.01 0.19067,0.034 0.004,0.062 -0.26611,0.9452 -0.29042,0.9483 -0.0103,7e-4 -0.0338,-0.2166 -0.0527,-0.4838 -0.0331,-0.4685 -0.0274,-0.4864 0.15245,-0.4991 z m -3.26233,0.2305 0.10435,0.3871 c 0.0572,0.2128 0.17911,0.6691 0.27078,1.0138 0.14998,0.5641 1.04787,3.4515 1.1715,3.7673 0.0275,0.07 0.0345,0.1289 0.0162,0.1302 -0.019,0 -0.98389,-0.8685 -2.14457,-1.9332 h -5.1e-4 c -1.16067,-1.0647 -2.39784,-2.1944 -2.74919,-2.5105 l -0.63924,-0.5746 1.98541,-0.1401 z m 9.07644,0.5814 c 0.0265,0.01 0.37633,0.3957 0.77722,0.862 l 0.72864,0.8475 -0.69764,0.8029 c -0.38395,0.4417 -0.83344,1.0404 -0.99838,1.3308 -0.16495,0.2903 -0.31869,0.5293 -0.34159,0.5312 -0.0229,0 -0.12122,-0.1952 -0.21859,-0.4377 l -0.17673,-0.4408 0.43924,-1.755 c 0.24182,-0.9651 0.46135,-1.7487 0.48783,-1.7409 z m -13.67152,0.043 c 0.0291,0 0.59217,0.4908 1.2511,1.0951 4.84553,4.4438 5.24399,4.8236 5.25703,5.0084 0.0229,0.325 -0.64814,0.8608 -1.29914,1.0377 -0.6118,0.1662 -0.59778,0.1734 -0.82941,-0.4067 -0.79262,-1.9847 -2.41629,-3.7282 -4.28656,-4.6023 l -0.40101,-0.1875 0.0915,-0.2859 c 0.067,-0.2089 0.0681,-0.3233 0.004,-0.4258 -0.066,-0.1048 -0.0568,-0.2763 0.0362,-0.6841 0.0682,-0.2995 0.14762,-0.5468 0.17673,-0.5489 z m 21.57078,0.3566 c 0.27242,0.01 0.47596,0.033 0.74053,0.085 3.15506,0.6221 5.5189,2.8301 6.30039,5.8854 0.15347,0.6 0.24932,1.9573 0.18707,2.6505 -0.12517,1.3939 -0.79114,3.0162 -1.69602,4.1315 -0.58235,0.7178 -1.34731,1.3646 -2.19315,1.8552 -1.03122,0.598 -1.82886,0.8611 -3.28662,1.0832 -0.067,0.013 -0.46568,0.01 -0.8852,-0.01 -1.40294,-0.045 -2.85151,-0.4862 -4.00337,-1.2206 -1.06764,-0.6805 -2.14559,-1.8341 -2.70837,-2.898 -0.19071,-0.3605 -0.2031,-0.4164 -0.10125,-0.464 0.0636,-0.03 0.12362,-0.045 0.13333,-0.035 0.01,0.011 0.19564,0.3138 0.41341,0.6739 1.85807,3.0715 5.67244,4.4259 9.05629,3.2153 3.43527,-1.2291 5.56204,-4.8833 4.90151,-8.4222 -0.49052,-2.6281 -2.18496,-4.7088 -4.6514,-5.7108 -1.22971,-0.4997 -1.82455,-0.5849 -3.33932,-0.478 -1.09537,0.077 -1.35683,0.1192 -1.89394,0.3075 -0.64634,0.2259 -1.89439,0.8859 -2.12029,1.1213 -0.11185,0.1166 -0.13982,0.1205 -0.20617,0.03 -0.11658,-0.1585 -0.11202,-0.1651 0.29921,-0.4558 0.52419,-0.3705 1.29564,-0.7521 2.02261,-1.0005 0.51086,-0.1744 0.80824,-0.2217 1.87792,-0.2971 0.53968,-0.038 0.88069,-0.053 1.15293,-0.051 z m -13.82655,0.5339 c 0.0358,0 0.13765,0.1629 0.39894,0.6014 0.52729,0.8851 1.39236,2.0083 2.43086,3.1564 l 0.78601,0.8682 -0.20051,0.7808 -0.2005,0.7804 -0.4346,0.086 c -0.23895,0.047 -0.58187,0.1767 -0.76222,0.2872 -0.18034,0.1107 -0.34413,0.2068 -0.36432,0.2135 -0.0199,0.01 -0.21665,-0.1656 -0.43666,-0.3834 v -5e-4 c -0.32992,-0.3266 -0.45228,-0.5243 -0.69661,-1.1286 -0.27056,-0.6693 -0.43979,-1.2822 -0.57309,-2.0744 -0.0275,-0.1633 -0.0254,-0.8396 0.005,-1.5027 0.0301,-0.6633 0.0464,-1.3407 0.0362,-1.5053 -0.007,-0.1093 -0.01,-0.1757 0.0119,-0.1794 z m 13.32375,0.062 c 0.1883,0 0.37626,0.015 0.56375,0.034 2.8539,0.2949 5.12049,2.0443 6.15622,4.7517 0.22881,0.5981 0.26043,0.7711 0.34468,1.8913 0.10136,1.3467 0.0665,1.6805 -0.29714,2.8283 -0.65094,2.0546 -2.47124,3.894 -4.52065,4.5677 -0.85748,0.282 -0.85943,0.2824 -2.02985,0.34 -0.82913,0.04 -1.22912,0.024 -1.69292,-0.068 v 5e-4 c -2.02132,-0.4036 -3.76217,-1.6148 -4.82348,-3.3559 -0.2091,-0.3429 -0.38172,-0.6438 -0.38344,-0.6681 -0.006,-0.085 0.43024,-0.074 0.70381,0.018 0.34482,0.1162 0.35732,0.1147 0.34677,-0.035 -0.008,-0.1128 0.19832,-0.1331 2.47427,-0.2434 2.37626,-0.1154 2.48858,-0.1137 2.61741,0.024 0.11335,0.1214 0.15928,0.1283 0.29148,0.045 0.13604,-0.086 0.15248,-0.1623 0.1235,-0.5731 -0.0448,-0.6351 0.0199,-0.6914 0.81649,-0.7141 0.94775,-0.027 1.03636,-0.1419 0.7829,-1.0175 -0.0828,-0.2859 -0.16917,-0.4133 -0.37155,-0.5462 -0.14515,-0.095 -0.29125,-0.2659 -0.32453,-0.3788 -0.0962,-0.3266 -0.4668,-0.5845 -0.86351,-0.601 l -0.34418,-0.014 -2.05724,-2.3668 c -1.7545,-2.0182 -2.04286,-2.3825 -1.95957,-2.4758 0.0537,-0.06 0.32487,-0.2431 0.60256,-0.4066 1.19988,-0.7067 2.52631,-1.0626 3.84421,-1.0367 z m -24.24815,1.1544 c 0.56366,0 0.9834,0.05 1.14929,0.1375 0.057,0.03 0.0887,0.1041 0.0703,0.1643 -0.0286,0.094 -0.13101,0.096 -0.70434,0.021 -0.85215,-0.1124 -2.22886,-0.024 -3.00239,0.1918 -3.25952,0.9128 -5.54324,3.8349 -5.58881,7.1499 -0.0251,1.8295 0.58984,3.6047 1.72496,4.978 0.50035,0.6053 1.5853,1.4877 2.28048,1.8547 2.28361,1.2053 5.00905,1.1775 7.25331,-0.073 1.97787,-1.1022 3.41213,-3.1196 3.78943,-5.3304 0.54583,-3.1981 -1.07538,-6.4805 -3.93206,-7.9608 -0.31281,-0.1619 -0.44169,-0.2709 -0.43047,-0.3638 0.009,-0.073 0.0388,-0.1345 0.0666,-0.1364 0.19328,-0.014 1.42149,0.7823 2.02417,1.3115 1.10387,0.9693 1.8261,2.0685 2.32078,3.5332 0.18802,0.5567 0.23271,0.8299 0.29766,1.8143 0.0652,0.9982 0.057,1.2621 -0.0651,1.8986 -0.17271,0.9003 -0.53451,1.8615 -0.99011,2.6313 -0.40254,0.6802 -1.31521,1.7241 -1.91668,2.1922 -0.96464,0.7508 -2.29253,1.341 -3.45974,1.5378 -0.34703,0.059 -0.66464,0.1122 -0.70539,0.1203 -0.0405,0.012 -0.4036,0.01 -0.80615,-0.01 v 6e-4 c -2.39235,-0.063 -4.50226,-1.0876 -6.01514,-2.9198 -0.48751,-0.5904 -1.07527,-1.6496 -1.34359,-2.421 -0.19057,-0.5479 -0.22774,-0.7902 -0.31057,-2.0061 -0.0872,-1.2857 -0.0836,-1.4319 0.0615,-2.0706 0.63162,-2.7807 2.52402,-4.9306 5.15937,-5.8617 0.65309,-0.2307 0.85717,-0.2675 1.92649,-0.3452 0.41814,-0.029 0.80801,-0.043 1.14619,-0.041 z m 18.93116,0.2744 c 0.0215,0 0.0399,0.01 0.0569,0.024 0.0679,0.059 -0.0555,0.2491 -0.4873,0.7488 -0.61876,0.716 -1.22104,1.6682 -1.40353,2.2196 -0.12617,0.3812 -0.18161,0.4191 -0.26252,0.1804 -0.13817,-0.4078 0.93501,-2.1973 1.7818,-2.971 0.15723,-0.1436 0.24975,-0.2047 0.31471,-0.2015 z m -19.07068,0.3194 c 0.28025,0 0.53042,0.023 0.72295,0.06 0.2701,0.053 0.50456,0.1073 0.5209,0.1215 0.0448,0.039 -0.45173,2.4719 -0.709,3.4736 -0.29725,1.1574 -0.89647,2.8606 -1.04334,2.9658 -0.28077,0.2011 -0.38355,0.3434 -0.41083,0.5689 -0.0235,0.1947 0.0105,0.2758 0.17621,0.4197 0.38397,0.3334 0.95771,0.097 0.92398,-0.3814 -0.008,-0.1166 0.11848,-0.4595 0.28938,-0.7829 0.56437,-1.0676 1.12024,-2.4439 1.58544,-3.9243 0.2545,-0.81 0.47848,-1.561 0.49764,-1.6692 0.0192,-0.1081 0.0597,-0.1978 0.0899,-0.1999 0.15186,-0.011 1.12489,0.6051 1.64383,1.0402 2.30381,1.9317 3.16941,4.9863 2.22157,7.8399 -0.73365,2.2088 -2.59533,3.986 -4.86121,4.6405 -0.79869,0.2307 -2.11504,0.337 -2.88923,0.2334 l -5.2e-4,-5e-4 c -1.52657,-0.2046 -2.73222,-0.7537 -3.9057,-1.7797 -1.57793,-1.3797 -2.39877,-3.1271 -2.44533,-5.2043 -0.0256,-1.1384 0.11095,-1.9008 0.52142,-2.9074 0.82231,-2.0164 2.39436,-3.4834 4.47518,-4.1769 0.64399,-0.2146 1.75607,-0.3478 2.59674,-0.3375 z m 19.42466,0.1446 c 0.0391,0 0.61898,0.6368 1.28881,1.4212 0.66984,0.7843 1.5605,1.8231 1.9792,2.3089 l 0.7612,0.8831 -0.28734,-0.024 c -0.15812,-0.013 -1.15093,-0.047 -2.20659,-0.076 -1.05564,-0.028 -2.03342,-0.064 -2.17248,-0.078 -0.24039,-0.024 -0.75808,-0.4345 -1.29501,-1.0263 l -0.17415,-0.1917 0.25993,-0.6331 c 0.14297,-0.3481 0.41052,-0.863 0.5948,-1.1445 0.35094,-0.536 1.12941,-1.4317 1.2516,-1.4403 z m -4.08192,3.4278 0.19585,0.1705 c 0.16451,0.1428 0.19065,0.2141 0.16381,0.4465 -0.0302,0.2611 -0.0476,0.2781 -0.31729,0.2972 l -0.28629,0.02 0.12196,-0.4672 z m -0.15452,1.05 h 0.1721 c 0.22048,0.01 0.26578,0.042 0.27647,0.1938 0.0135,0.1915 -0.0598,0.1827 -0.39738,-0.047 v 5e-4 c -0.14861,-0.1009 -0.17349,-0.1408 -0.0512,-0.1488 z m 3.86333,0.1313 c 0.11434,-0.01 3.71931,0.1031 4.11034,0.1266 l 0.34728,0.021 -0.12041,0.2848 -0.1204,0.2842 -1.43196,0.1829 c -0.78767,0.1008 -1.53654,0.1956 -1.66398,0.2113 -0.2065,0.025 -0.2296,0.01 -0.21032,-0.1524 0.0317,-0.2665 -0.12025,-0.4557 -0.57672,-0.7183 -0.22413,-0.1291 -0.37439,-0.237 -0.33383,-0.2398 z m -2.5771,0.015 c 0.097,0 0.23565,0.3106 0.21652,0.5266 -0.0129,0.1455 -0.0123,0.4242 0.001,0.6196 0.0212,0.3125 0.005,0.3564 -0.13539,0.3663 -0.1559,0.011 -0.15964,-0.01 -0.15762,-0.7209 0.001,-0.4027 0.0175,-0.7504 0.0367,-0.7725 0.0116,-0.013 0.0249,-0.019 0.0388,-0.019 z m -2.77089,0.309 c 0.0707,0 0.0804,0.092 0.10435,0.4315 l 0.0331,0.4693 -0.3607,-0.307 c -0.3569,-0.3041 -0.35859,-0.3081 -0.19741,-0.4057 0.0895,-0.054 0.23662,-0.1272 0.32712,-0.1623 0.0397,-0.015 0.0701,-0.026 0.0935,-0.026 z m 1.22525,0.1065 0.19792,0.1596 c 0.2524,0.2043 0.54297,0.6825 0.50023,0.8227 -0.0492,0.1615 -0.70235,0.1908 -0.832,0.038 l 10e-6,-5e-4 c -0.0818,-0.097 -0.0787,-0.2051 0.0165,-0.5695 z m -2.76439,0.2037 c 0.0847,-0.01 0.13572,0.086 0.0677,0.2377 -0.0578,0.1293 -0.35364,0.2274 -0.36123,0.1199 -0.002,-0.024 0.0537,-0.1282 0.12299,-0.2305 0.0568,-0.084 0.11973,-0.1232 0.17054,-0.1271 z m 13.13046,0.2615 c 0.0276,0 0.061,0.023 0.10956,0.061 0.0767,0.06 0.20639,0.2538 0.28836,0.43 0.11772,0.2533 0.13419,0.361 0.0781,0.5116 -0.0658,0.1763 -0.11016,0.1931 -0.59582,0.2274 l -0.52503,0.037 -0.0181,-0.2574 c -0.0145,-0.2056 0.0241,-0.2871 0.19223,-0.4031 0.11578,-0.08 0.26234,-0.2596 0.32556,-0.3999 0.0666,-0.1478 0.0988,-0.2077 0.14522,-0.2068 z m -1.88362,0.2121 0.13849,0.2155 c 0.083,0.1289 0.25003,0.247 0.41548,0.294 0.39717,0.1127 0.40589,0.3963 0.0233,0.7509 -0.25079,0.2324 -0.27972,0.2975 -0.25941,0.5855 l 0.0227,0.324 -1.85002,0.078 c -1.01925,0.043 -2.80002,0.1259 -2.46292,0.1259 h 8e-5 l -0.61289,0.052 0.11887,-0.342 c 0.14741,-0.4241 0.15157,-0.3965 -0.078,-0.4657 -0.10554,-0.032 -0.19371,-0.089 -0.19637,-0.1266 -0.003,-0.037 0.17993,-0.2653 0.40566,-0.5059 l 0.41032,-0.4377 1.25521,-0.1778 c 0.69038,-0.098 1.57325,-0.2198 1.96216,-0.2712 z m -10.21127,1.0449 c 0.17005,0.01 0.26288,0.065 0.45218,0.2295 0.25238,0.2191 0.29103,0.2955 0.31367,0.6164 0.0308,0.4365 -0.0514,0.4685 -0.55811,0.2176 -0.33284,-0.1646 -0.74976,-0.6579 -0.76739,-0.9079 -0.007,-0.099 0.0654,-0.1299 0.35708,-0.1504 0.0802,-0.01 0.14574,-0.01 0.20261,0 z m 1.72031,0.1757 c 0.10819,0 0.23712,0.031 0.38757,0.082 0.26886,0.091 0.27712,0.1027 0.17932,0.2656 -0.13587,0.2264 -0.66019,0.63 -0.83406,0.6423 -0.11657,0.01 -0.14252,-0.051 -0.16536,-0.3746 -0.0301,-0.4264 0.10792,-0.6272 0.43253,-0.6155 z m 0.94051,0.7932 c 0.0357,-0.011 0.065,0.047 0.12816,0.1887 0.18632,0.4198 0.1797,0.4269 -0.40514,0.4681 l -0.50137,-0.01 0.28072,-0.1894 c 0.18007,-0.1214 0.36269,-0.2979 0.41755,-0.3751 0.0349,-0.049 0.0587,-0.079 0.0801,-0.085 z" /><path
       id="path38115"
       style="fill:#d40000;stroke-width:0.181882"
       d="m -620.91751,2067.044 c -0.0438,0 -0.0873,0 -0.13126,0.021 -0.13811,0.052 -0.59047,0.6225 -1.0051,1.2691 -0.10465,0.1632 -0.21014,0.3135 -0.31678,0.4538 0.777,0.4176 1.50844,0.9199 2.17403,1.4764 0.73295,0.528 1.30192,1.2313 1.93425,1.8644 16.86765,3.3499 29.02026,18.1481 29.02613,35.3452 -6e-5,19.9087 -16.13924,36.0479 -36.04793,36.0479 -19.90869,-1e-4 -36.04786,-16.1392 -36.04792,-36.0479 0.002,-15.7091 10.17718,-29.608 25.15143,-34.3566 -0.38065,-0.6708 -1.15876,-1.0834 -1.49603,-1.7151 -0.4817,1.1183 -1.28026,1.602 -2.55488,1.5932 -0.79426,-0.01 -1.08694,-0.1208 -2.11202,-0.8331 -0.65437,-0.4546 -1.30749,-0.8289 -1.45159,-0.8289 -0.42755,0 -0.61932,0.558 -0.52607,1.5354 0.18127,1.8998 -0.66032,3.3295 -2.19573,3.7315 -0.7677,0.201 -0.85158,0.1826 -3.10524,-0.6971 -0.83346,-0.3254 -0.88554,-0.3262 -1.11207,-0.023 -0.19489,0.2609 -0.19445,0.5062 10e-4,1.3637 0.44268,1.9414 0.23855,2.8222 -0.86506,3.7378 -0.78115,0.6482 -1.60688,0.7533 -3.02721,0.386 -1.98295,-0.5127 -2.23671,-0.2204 -1.41955,1.6355 0.78478,1.7823 0.52906,3.1964 -0.74776,4.1367 -0.41327,0.3043 -0.86298,0.3951 -2.27686,0.4579 -1.61791,0.072 -1.76639,0.1098 -1.81901,0.4609 -0.033,0.2203 0.25968,0.8487 0.69143,1.4837 0.94542,1.3907 1.09664,2.3791 0.52917,3.4726 -0.45417,0.8752 -1.31261,1.38 -2.67064,1.57 -2.03392,0.2846 -2.17908,0.6416 -0.81339,1.9947 1.12692,1.1166 1.42941,1.6769 1.42265,2.6396 -0.01,1.4306 -0.77676,2.3054 -2.56728,2.928 -1.01246,0.3522 -1.19375,0.4818 -1.24385,0.8893 -0.0505,0.4105 0.10207,0.5794 1.09605,1.217 1.48153,0.95 1.83752,1.4915 1.82883,2.7807 -0.009,1.2843 -0.37284,1.8272 -1.83968,2.7394 -1.73608,1.0797 -1.72461,1.4864 0.062,2.1647 1.41585,0.5375 1.78029,0.8102 2.1978,1.6428 0.69559,1.3873 0.37597,2.5237 -1.08934,3.8695 -1.37911,1.2667 -1.26153,1.7949 0.45424,2.0376 2.05705,0.2911 3.13365,1.3461 3.12177,3.0583 -0.005,0.7154 -0.14158,1.0493 -0.83302,2.0443 -0.45471,0.6544 -0.82742,1.3097 -0.82838,1.4552 -0.003,0.4445 0.578,0.6144 1.81643,0.5323 0.9894,-0.066 1.31387,-0.01 1.99316,0.3488 1.55301,0.8195 1.94386,2.4878 1.00562,4.2896 -0.87815,1.6859 -0.57533,2.1638 1.12138,1.7705 2.17009,-0.5032 3.32479,-0.117 4.07727,1.3632 0.36368,0.7155 0.36216,1.1598 -0.006,2.7001 -0.26429,1.1049 -0.26486,1.2467 -0.01,1.5053 0.25506,0.2583 0.36281,0.254 1.14722,-0.044 2.2395,-0.85 2.28833,-0.8592 3.05098,-0.6289 1.53855,0.4645 2.08202,1.3971 2.06705,3.5465 -0.0103,1.4901 0.007,1.5552 0.42892,1.6645 0.3323,0.086 0.70801,-0.073 1.53582,-0.648 2.3787,-1.653 4.67452,-0.7801 5.02347,1.91 0.28844,2.2236 0.61668,2.3627 2.15129,0.9095 1.25424,-1.1876 1.72183,-1.3858 2.93212,-1.2408 1.24829,0.1494 1.80808,0.6815 2.41691,2.2955 0.45545,1.2075 0.59923,1.4182 1.00149,1.4702 0.40297,0.052 0.57392,-0.1026 1.20509,-1.094 1.61446,-2.5356 3.83905,-2.6116 5.42292,-0.1855 0.32628,0.4999 0.71591,1.0589 0.8661,1.2433 v 0 c 0.23862,0.2925 0.32075,0.3038 0.65061,0.088 0.20762,-0.1357 0.54562,-0.6923 0.75086,-1.2371 0.49524,-1.3146 0.91938,-1.8814 1.67276,-2.2325 1.37446,-0.6407 2.53998,-0.2647 3.93258,1.2672 1.18582,1.3045 1.6282,1.1323 1.96887,-0.7669 0.36734,-2.0479 1.30554,-2.9999 2.94504,-2.9854 0.6882,0.01 1.05522,0.1572 2.1146,0.8739 0.82618,0.5589 1.3902,0.8263 1.58647,0.7529 0.35836,-0.1346 0.35796,-0.1344 0.39119,-1.8939 0.0395,-2.0921 0.88441,-3.2129 2.55436,-3.3895 0.6724,-0.071 1.0582,0.022 2.04587,0.4925 1.79926,0.8572 2.2352,0.5936 1.79989,-1.0888 -0.49517,-1.9136 -0.17084,-3.1087 1.06247,-3.9125 0.73436,-0.4788 1.11661,-0.4896 3.65559,-0.1049 1.14871,0.1741 1.24986,-0.1201 0.58601,-1.7017 -0.61815,-1.4728 -0.63523,-2.464 -0.0584,-3.3832 0.61108,-0.9736 1.30828,-1.2643 3.02669,-1.2739 2.21781,-0.01 2.33505,-0.2064 1.14411,-1.9202 -0.68959,-0.9924 -0.76423,-1.2069 -0.75757,-2.1658 0.0122,-1.7472 0.87965,-2.5953 3.00343,-2.9363 1.92484,-0.3091 2.02075,-0.5587 0.73122,-1.9001 -1.25362,-1.3039 -1.416,-1.6213 -1.40818,-2.7476 0.0104,-1.5067 0.53251,-2.0691 2.79466,-3.0112 1.42333,-0.5927 1.40218,-0.928 -0.11937,-1.9038 -1.51541,-0.9719 -1.81326,-1.4406 -1.80351,-2.8401 0.01,-1.3764 0.43587,-2.0245 1.85725,-2.8247 1.65201,-0.9301 1.57678,-1.4085 -0.33693,-2.1311 -1.54789,-0.5843 -2.14096,-1.292 -2.24637,-2.6799 -0.0905,-1.1916 0.17976,-1.74 1.42007,-2.8841 1.36394,-1.2582 1.24184,-1.6068 -0.6749,-1.9291 -0.62968,-0.1059 -1.40303,-0.3432 -1.71824,-0.5271 -0.6316,-0.368 -1.38424,-1.6925 -1.37304,-2.4158 0.01,-0.5867 0.55119,-1.6916 1.31878,-2.6893 0.88694,-1.1529 0.6673,-1.3727 -1.50378,-1.5027 -2.01211,-0.1205 -2.55472,-0.3918 -3.06442,-1.5353 -0.4672,-1.0482 -0.42838,-1.5934 0.21446,-3.0309 0.63378,-1.4172 0.64892,-1.5115 0.30076,-1.8045 -0.19705,-0.1662 -0.51905,-0.1486 -1.40974,0.076 -1.40553,0.3549 -2.46036,0.2543 -3.20859,-0.307 -1.07829,-0.8088 -1.35259,-2.0826 -0.84646,-3.9315 0.26604,-0.972 0.14475,-1.5297 -0.33538,-1.5297 -0.14222,-9e-4 -0.73326,0.2064 -1.31309,0.4605 -1.26795,0.5558 -2.77208,0.5354 -3.54449,-0.048 -0.88743,-0.6703 -1.12746,-1.315 -1.07797,-2.8959 0.068,-2.171 -0.24525,-2.3626 -1.94148,-1.1839 -1.29582,0.9004 -2.45536,1.0868 -3.45251,0.5529 -0.9058,-0.485 -1.29945,-1.1451 -1.62522,-2.7275 -0.4089,-1.9862 -0.60482,-2.0516 -2.05311,-0.6801 -1.24392,1.1784 -1.93652,1.452 -3.15226,1.246 -1.03126,-0.1747 -1.62008,-0.7428 -2.16782,-2.0914 -0.50816,-1.2511 -0.82375,-1.7579 -1.13017,-1.7766 z" /><path
       id="path38117"
       style="color:#000000;fill:#d40000;-inkscape-stroke:none"
       d="m -615.47288,2074.3552 c 0.3749,0.4095 0.69946,0.8622 0.96015,1.3487 13.24008,4.4846 22.76398,17.01 22.76398,31.7691 0,18.5273 -15.00809,33.5375 -33.53542,33.5375 -18.52732,0 -33.53697,-15.0102 -33.53697,-33.5375 0,-15.5348 10.41679,-28.5728 24.74746,-32.3865 -0.15988,-0.1009 -0.1813,-0.2244 -0.33809,-0.3283 -0.25241,-0.1022 -0.48907,-0.2375 -0.709,-0.3953 -14.27837,4.238 -24.70031,17.46 -24.70031,33.1101 0,19.0677 15.46915,34.5375 34.53691,34.5375 19.06777,0 34.53536,-15.4698 34.53536,-34.5375 0,-15.6594 -10.43313,-28.888 -24.72407,-33.1178 z" /><path
       fill="none"
       stroke-width="0.087591"
       stroke-linecap="butt"
       stroke-linejoin="miter"
       stroke="#e51535"
       stroke-opacity="1"
       stroke-miterlimit="3.8637"
       d="m -625.07292,2117.5328 c -0.0362,0 -0.0723,0 -0.10851,0"
       id="path38119" /><path
       style="fill:#d40000;fill-opacity:1;stroke-width:3"
       d="m -636.20042,2106.3691 c 1.71464,-0.7311 22.40543,-1.9776 23.24952,-1.7441 0.84409,0.2336 -9.21769,1.135 -9.69847,1.1613 -0.77787,0.043 -13.83772,1.1395 -13.55105,0.5828 z"
       id="path38121" /><path
       style="fill:#d40000;fill-opacity:1;stroke-width:3"
       d="m -615.91797,2105.9906 c 0.18708,-0.3663 9.46733,-1.7483 9.81569,-1.864 0.34835,-0.1157 4.00358,-1.2484 4.15873,-1.233 0.15514,0.015 -2.77617,1.5985 -3.45085,1.7093 -0.67467,0.1108 -11.21594,2.1197 -10.52357,1.3877 z"
       id="path38145" /></g></svg>
