<?xml version="1.0" encoding="UTF-8" standalone="no"?>
<!-- Created with Inkscape (http://www.inkscape.org/) -->

<svg
   width="80.923096mm"
   height="81.429321mm"
   viewBox="0 0 80.923096 81.429321"
   version="1.1"
   id="svg5"
   xml:space="preserve"
   inkscape:version="1.2.1 (9c6d41e, 2022-07-14)"
   sodipodi:docname="v1.svg"
   xmlns:inkscape="http://www.inkscape.org/namespaces/inkscape"
   xmlns:sodipodi="http://sodipodi.sourceforge.net/DTD/sodipodi-0.dtd"
   xmlns="http://www.w3.org/2000/svg"
   xmlns:svg="http://www.w3.org/2000/svg"><sodipodi:namedview
     id="namedview7"
     pagecolor="#ffffff"
     bordercolor="#000000"
     borderopacity="0.25"
     inkscape:showpageshadow="2"
     inkscape:pageopacity="0.0"
     inkscape:pagecheckerboard="0"
     inkscape:deskcolor="#d1d1d1"
     inkscape:document-units="mm"
     showgrid="false"
     inkscape:zoom="1.7696964"
     inkscape:cx="-944.22978"
     inkscape:cy="7154.6172"
     inkscape:window-width="1148"
     inkscape:window-height="968"
     inkscape:window-x="768"
     inkscape:window-y="110"
     inkscape:window-maximized="1"
     inkscape:current-layer="layer1" /><defs
     id="defs2"><rect
       x="841.3205"
       y="2504.342"
       width="234.96034"
       height="143.19041"
       id="rect25021-7" /></defs><g
     inkscape:label="Layer 1"
     inkscape:groupmode="layer"
     id="layer1"
     transform="translate(312.81223,-1859.5557)"><path
       id="path25001-3"
       style="fill:#e51535;fill-opacity:1;stroke-width:0.181882"
       d="m -267.98361,1860.0372 c -0.0438,0 -0.0873,0 -0.13126,0.021 -0.13811,0.052 -0.591,0.6225 -1.00562,1.2691 -0.10456,0.1631 -0.20972,0.3131 -0.31626,0.4532 0.77684,0.4176 1.50855,0.9206 2.17402,1.4769 0.73295,0.5281 1.30141,1.2308 1.93374,1.864 16.86782,3.3496 29.02069,18.1479 29.02665,35.3451 -1e-5,19.9087 -16.1392,36.048 -36.04793,36.048 -19.90873,0 -36.04792,-16.1393 -36.04793,-36.048 0.002,-15.7088 10.17708,-29.6073 25.15092,-34.356 -0.38068,-0.6708 -1.15871,-1.0838 -1.49603,-1.7157 -0.48168,1.1186 -1.2801,1.6021 -2.55489,1.5932 -0.79426,-0.01 -1.08642,-0.1207 -2.1115,-0.833 -0.65436,-0.4546 -1.308,-0.8284 -1.4521,-0.8284 -0.42755,0 -0.61932,0.5574 -0.52607,1.5348 0.18127,1.8999 -0.66032,3.3301 -2.19573,3.7321 -0.7677,0.201 -0.85106,0.1821 -3.10472,-0.6976 -0.83347,-0.3254 -0.88606,-0.3263 -1.11259,-0.023 -0.19489,0.2609 -0.19445,0.5063 10e-4,1.3638 0.44268,1.9414 0.23854,2.8221 -0.86506,3.7377 -0.78115,0.6482 -1.60688,0.7539 -3.02721,0.3866 -1.98295,-0.5127 -2.23619,-0.2204 -1.41903,1.6355 0.78477,1.7823 0.52906,3.1959 -0.74776,4.1362 -0.41327,0.3043 -0.86299,0.3956 -2.27687,0.4584 -1.6179,0.072 -1.76639,0.1098 -1.81901,0.4609 -0.033,0.2203 0.25968,0.8487 0.69143,1.4837 0.94542,1.3907 1.09612,2.3791 0.52865,3.4726 -0.45417,0.8752 -1.31261,1.3799 -2.67063,1.5699 -2.03392,0.2846 -2.17908,0.6411 -0.81339,1.9942 1.12692,1.1166 1.42941,1.6775 1.42265,2.6402 -0.01,1.4306 -0.77677,2.3054 -2.56728,2.928 -1.01246,0.3522 -1.19324,0.4813 -1.24334,0.8888 -0.0505,0.4105 0.10208,0.5799 1.09606,1.2175 1.48153,0.95 1.83752,1.4915 1.82883,2.7807 -0.009,1.2843 -0.37336,1.8267 -1.8402,2.7389 -1.73608,1.0797 -1.72462,1.4864 0.062,2.1647 1.41585,0.5375 1.78081,0.8102 2.19832,1.6428 0.69559,1.3873 0.37545,2.5242 -1.08986,3.87 -1.37911,1.2667 -1.26102,1.7944 0.45475,2.0371 2.05705,0.2911 3.13314,1.3465 3.12126,3.0587 -0.005,0.7154 -0.14107,1.0494 -0.83251,2.0444 -0.45471,0.6544 -0.82793,1.3097 -0.82889,1.4552 -0.003,0.4445 0.578,0.6143 1.81643,0.5322 0.9894,-0.066 1.31387,-0.01 1.99316,0.3489 1.55301,0.8195 1.94386,2.4873 1.00562,4.2891 -0.87816,1.6859 -0.57533,2.1637 1.12138,1.7704 2.17009,-0.5032 3.32479,-0.1164 4.07727,1.3638 0.36368,0.7155 0.36268,1.1593 -0.006,2.6995 -0.26429,1.1049 -0.26538,1.2473 -0.0103,1.5059 0.25506,0.2583 0.36333,0.2535 1.14774,-0.044 2.23949,-0.85 2.28781,-0.8592 3.05045,-0.6289 1.53855,0.4645 2.08203,1.3971 2.06706,3.5465 -0.0103,1.4901 0.007,1.5552 0.42943,1.6645 0.3323,0.086 0.7075,-0.073 1.53531,-0.648 2.3787,-1.653 4.67452,-0.7796 5.02347,1.9105 0.28844,2.2236 0.61668,2.3627 2.15129,0.9095 1.25423,-1.1876 1.72234,-1.3858 2.93263,-1.2408 1.24829,0.1494 1.80808,0.681 2.41691,2.295 0.45545,1.2075 0.59871,1.4182 1.00097,1.4702 0.40298,0.052 0.57444,-0.1026 1.20561,-1.094 1.61446,-2.5356 3.83853,-2.6116 5.42241,-0.1855 0.32628,0.4999 0.71591,1.0594 0.8661,1.2438 v 5e-4 c 0.23862,0.2925 0.32075,0.3039 0.65061,0.088 0.20762,-0.1357 0.54561,-0.6924 0.75085,-1.2372 0.49524,-1.3146 0.91991,-1.8813 1.67329,-2.2324 1.37446,-0.6407 2.53997,-0.2648 3.93257,1.2671 1.18582,1.3045 1.62769,1.1323 1.96836,-0.7669 0.36734,-2.0479 1.30606,-2.9993 2.94556,-2.9848 0.68819,0.01 1.0547,0.1572 2.11408,0.8739 0.82618,0.5589 1.39019,0.8263 1.58646,0.7529 0.35836,-0.1346 0.35848,-0.135 0.39171,-1.8945 0.0395,-2.0921 0.88389,-3.2128 2.55385,-3.3894 0.6724,-0.071 1.0582,0.022 2.04587,0.4924 1.79926,0.8572 2.23572,0.5941 1.80041,-1.0883 -0.49517,-1.9136 -0.17084,-3.1091 1.06247,-3.9129 0.73435,-0.4788 1.11609,-0.4891 3.65507,-0.1044 1.14871,0.1741 1.24986,-0.1201 0.58601,-1.7017 -0.61815,-1.4728 -0.63523,-2.464 -0.0584,-3.3832 0.61108,-0.9736 1.30828,-1.2643 3.02668,-1.2739 2.21782,-0.01 2.33558,-0.2069 1.14464,-1.9208 -0.68959,-0.9924 -0.76476,-1.2063 -0.7581,-2.1652 0.0122,-1.7472 0.87966,-2.5958 3.00344,-2.9368 1.92484,-0.3091 2.02075,-0.5587 0.73122,-1.9001 -1.25362,-1.3039 -1.416,-1.6214 -1.40818,-2.7477 0.0104,-1.5067 0.53251,-2.0691 2.79466,-3.0112 1.42333,-0.5927 1.40217,-0.9279 -0.11937,-1.9037 -1.51541,-0.9719 -1.81326,-1.4407 -1.80351,-2.8402 0.01,-1.3764 0.43639,-2.0244 1.85777,-2.8246 1.652,-0.9301 1.57626,-1.4085 -0.33745,-2.1311 -1.54789,-0.5843 -2.14097,-1.2921 -2.24638,-2.68 -0.0905,-1.1916 0.17976,-1.7399 1.42007,-2.884 1.36395,-1.2582 1.24185,-1.6068 -0.67489,-1.9291 -0.62968,-0.1059 -1.40303,-0.3427 -1.71824,-0.5266 -0.6316,-0.368 -1.38373,-1.6925 -1.37253,-2.4159 0.01,-0.5867 0.55068,-1.692 1.31827,-2.6897 0.88694,-1.1529 0.66782,-1.3723 -1.50327,-1.5023 -2.01211,-0.1205 -2.55523,-0.3922 -3.06493,-1.5358 -0.4672,-1.0482 -0.42838,-1.5933 0.21446,-3.0308 0.63378,-1.4172 0.64891,-1.511 0.30075,-1.804 -0.19705,-0.1662 -0.51904,-0.1487 -1.40973,0.076 -1.40554,0.3549 -2.46036,0.2539 -3.20859,-0.3074 -1.0783,-0.8088 -1.35207,-2.0826 -0.84594,-3.9316 0.26604,-0.972 0.14423,-1.5296 -0.3359,-1.5296 -0.14222,-9e-4 -0.73327,0.2069 -1.3131,0.461 -1.26795,0.5558 -2.77207,0.5354 -3.54448,-0.048 -0.88743,-0.6703 -1.12746,-1.3151 -1.07797,-2.896 0.068,-2.171 -0.24473,-2.3626 -1.94097,-1.1839 -1.29582,0.9004 -2.45587,1.0864 -3.45302,0.5525 -0.9058,-0.485 -1.29945,-1.1451 -1.62522,-2.7275 -0.4089,-1.9862 -0.6043,-2.0511 -2.05259,-0.6796 -1.24393,1.1784 -1.93652,1.452 -3.15226,1.246 -1.03126,-0.1747 -1.62061,-0.7428 -2.16835,-2.0914 -0.50815,-1.2512 -0.82323,-1.7579 -1.12964,-1.7766 z m -7.17218,0.4408 c -0.0103,0.058 -0.0201,0.1165 -0.0336,0.1731 0.0481,-0.01 0.0961,-0.011 0.14417,-0.018 -0.0378,-0.055 -0.0746,-0.1063 -0.11059,-0.155 z"
       sodipodi:nodetypes="sssccccsccccssssssssssssssssssssssssssssssccssssscssscsssssssssssssscscsssssssscssssssscsssssccssssscsscsssssssssscccc"
       inkscape:export-filename="export1.0.svg"
       inkscape:export-xdpi="96"
       inkscape:export-ydpi="96" /><path
       id="circle25003-5"
       style="color:#000000;fill:#e51535;fill-opacity:1;-inkscape-stroke:none"
       d="m -262.54002,1867.3484 c 0.37502,0.4097 0.70045,0.862 0.96118,1.3487 13.23985,4.4847 22.76347,17.0101 22.76347,31.7691 0,18.5273 -15.00758,33.537 -33.5349,33.537 -18.52732,0 -33.53749,-15.0097 -33.53749,-33.537 0,-15.5348 10.44788,-28.5672 24.77855,-32.3809 -0.37634,-0.2799 -0.72575,-0.4794 -1.07767,-0.7297 -14.27852,4.2378 -24.70082,17.4604 -24.70082,33.1106 0,19.0677 15.46967,34.5369 34.53743,34.5369 19.06776,0 34.53484,-15.4692 34.53484,-34.5369 0,-15.6596 -10.43334,-28.8883 -24.72459,-33.1178 z"
       sodipodi:nodetypes="ccsssccsssc" /><path
       fill="none"
       stroke-width="0.087591"
       stroke-linecap="butt"
       stroke-linejoin="miter"
       stroke="#e51535"
       stroke-opacity="1"
       stroke-miterlimit="3.8637"
       d="m -272.13934,1910.5257 c -0.0362,0 -0.0723,0 -0.10851,0"
       id="path25005-6" /><path
       style="fill:#e51535;fill-opacity:1;stroke-width:0.0749397"
       d="m -256.29542,1895.4056 c 4.09265,-1.041 6.84123,-4.8278 6.54562,-9.0181 -0.30143,-4.2726 -3.68976,-7.6618 -8.00184,-8.004 -0.91668,-0.073 -1.57826,-0.025 -2.50396,0.1854 -1.10624,0.2468 -2.24987,0.7461 -3.12491,1.3642 -0.33641,0.2377 -0.4338,0.2771 -0.48689,0.1967 -0.0366,-0.056 -0.43479,-0.5212 -0.88509,-1.0354 l -0.81872,-0.935 0.49526,-1.9249 c 0.47794,-1.8575 0.62372,-2.2913 0.77345,-2.3019 0.18353,-0.013 0.90251,-0.3973 1.0984,-0.5873 0.26251,-0.2545 0.45779,-0.7414 0.43574,-1.0862 -0.0128,-0.2044 -0.0542,-0.2611 -0.227,-0.3127 -0.21039,-0.063 -0.21111,-0.065 -0.22884,-0.69 -0.0219,-0.7733 -0.2521,-1.4284 -0.71946,-2.0476 -0.49049,-0.6498 -1.26246,-1.2133 -1.91661,-1.3991 -0.19202,-0.054 -0.37715,-0.2102 -0.65118,-0.5476 -1.76712,-2.1759 -3.95699,-3.7517 -5.88594,-4.2355 -1.07531,-0.2698 -2.43428,-0.2306 -3.28761,0.095 -0.32919,0.1254 -0.38717,0.1269 -0.75452,0.017 -0.58464,-0.1729 -0.64509,-0.2327 -0.76634,-0.7579 -0.0598,-0.2591 -0.16893,-0.5502 -0.24255,-0.6469 -0.12411,-0.1631 -0.12726,-0.2435 -0.0433,-1.1072 0.0498,-0.5123 0.0876,-0.9732 0.084,-1.0243 -0.0105,-0.149 -1.84984,0.086 -2.55785,0.3267 -0.7951,0.2703 -1.85443,0.8828 -2.24636,1.2988 -0.47016,0.499 -0.66107,0.9288 -0.66172,1.4895 -6.7e-4,0.5841 0.19098,0.8844 0.67591,1.0592 0.22928,0.083 0.37285,0.1962 0.47397,0.3747 0.0926,0.1636 0.19752,0.2523 0.29037,0.2458 0.12173,-0.01 0.15782,0.059 0.22202,0.4163 0.10178,0.5665 0.16363,0.6511 0.4403,0.6026 0.17541,-0.032 0.24001,-0.01 0.28641,0.1112 0.0333,0.084 0.12403,0.1465 0.20438,0.1408 0.0946,-0.01 0.14808,0.041 0.15503,0.1394 0.006,0.082 0.0547,0.1463 0.10861,0.1425 0.054,0 0.17981,0.089 0.2797,0.2057 0.3234,0.3784 0.84739,0.2266 1.45943,-0.423 l 0.31009,-0.3292 0.33873,0.1361 c 0.32784,0.1316 0.33718,0.144 0.29091,0.387 -0.0263,0.138 -0.15193,1.4923 -0.27918,3.0094 -0.12725,1.5172 -0.24045,2.7699 -0.25156,2.7839 -0.0111,0.014 -1.08397,0.4215 -2.38409,0.9057 -2.31426,0.8618 -2.37581,0.8802 -2.9319,0.8739 -0.3124,0 -0.64068,-0.017 -0.72938,-0.028 -0.0918,-0.013 -0.26943,0.063 -0.41198,0.1756 -0.14676,0.1156 -0.28018,0.1716 -0.32196,0.1354 -0.0545,-0.047 -1.01782,0.6424 -1.21606,0.8708 -0.0158,0.018 0.0663,0.2268 0.1825,0.4634 0.13752,0.2801 0.20465,0.5182 0.19229,0.6819 -0.0148,0.1952 0.0187,0.2759 0.14837,0.3604 0.12991,0.084 0.19703,0.2477 0.30018,0.7299 0.10753,0.5024 0.14307,0.5859 0.18642,0.4375 0.0742,-0.2538 0.0417,-0.9313 -0.067,-1.3957 -0.0974,-0.4163 -0.0218,-0.5277 0.14711,-0.2169 0.0557,0.1023 0.16122,0.1763 0.24321,0.1706 0.20085,-0.014 0.24363,0.1301 0.12003,0.4048 -0.16773,0.3727 -0.0578,1.5684 0.17844,1.9407 0.36654,0.5775 0.64943,0.7342 1.75865,0.9743 0.55873,0.1208 1.09122,0.2144 1.18327,0.2079 0.22029,-0.016 0.39503,-0.3302 0.31654,-0.57 -0.0528,-0.1611 -0.17882,-0.2131 -1.02875,-0.4238 -1.07608,-0.2669 -1.05913,-0.2598 -1.31173,-0.5448 -0.55686,-0.6281 -0.41197,-1.5185 0.3187,-1.9587 0.43396,-0.2613 1.38452,-0.266 2.44278,-0.012 0.77146,0.1852 0.78849,0.194 0.75579,0.3893 -0.11521,0.6877 -0.1471,0.7823 -0.25257,0.7501 -0.0793,-0.024 -0.13386,0.086 -0.19932,0.4022 -0.3399,1.6423 -0.52051,2.2711 -0.67613,2.3541 -0.0882,0.047 -0.15726,0.1364 -0.15349,0.1986 0.0163,0.2675 -0.0823,0.3136 -0.47625,0.2233 -0.20734,-0.048 -0.78029,-0.097 -1.27331,-0.1096 -5.61048,-0.1443 -9.89859,5.0664 -8.66307,10.5271 0.94511,4.1771 4.78766,7.0344 9.05666,6.7346 1.68521,-0.1189 3.29186,-0.7135 4.5936,-1.7015 2.36856,-1.7978 3.63625,-4.5271 3.43806,-7.4022 -0.0546,-0.7851 -0.0477,-0.8581 0.0719,-0.8131 0.19989,0.075 1.51819,0.01 1.51215,-0.079 -0.0118,-0.1673 0.72306,-0.1189 1.43399,0.093 l 0.7291,0.2183 0.0466,0.6106 c 0.0531,0.7039 0.21034,1.0223 0.71223,1.4427 0.51438,0.4308 0.84545,0.5022 2.16157,0.4662 0.7474,-0.02 1.19352,0 1.24986,0.052 0.0481,0.045 0.17655,0.2802 0.28524,0.5205 0.60643,1.3406 2.04715,2.9028 3.40356,3.6905 0.64142,0.3724 1.58211,0.7579 2.26931,0.9298 1.28356,0.321 2.98662,0.3238 4.23266,0.01 z m -2.31643,-0.5452 c -1.40294,-0.045 -2.85158,-0.4863 -4.00345,-1.2206 -1.06764,-0.6806 -2.14578,-1.834 -2.70856,-2.8978 -0.19072,-0.3605 -0.20294,-0.4166 -0.10113,-0.4642 0.0637,-0.03 0.12372,-0.045 0.13343,-0.035 0.01,0.011 0.19581,0.3138 0.41358,0.6739 1.85809,3.0715 5.67244,4.4256 9.05629,3.2149 3.43528,-1.229 5.56188,-4.8832 4.90135,-8.4221 -0.49052,-2.6281 -2.18517,-4.7086 -4.65161,-5.7106 -1.22972,-0.4997 -1.82449,-0.5848 -3.33927,-0.4779 -1.09535,0.077 -1.35689,0.1192 -1.89402,0.3074 -0.64633,0.2259 -1.89418,0.8859 -2.12009,1.1213 -0.11185,0.1165 -0.13978,0.1207 -0.20614,0.03 -0.11658,-0.1584 -0.112,-0.1654 0.29923,-0.4561 0.52419,-0.3705 1.29554,-0.7521 2.02251,-1.0005 0.51086,-0.1744 0.80805,-0.2215 1.87774,-0.2969 1.07934,-0.076 1.36469,-0.071 1.89381,0.033 3.15507,0.6222 5.51871,2.8303 6.3002,5.8856 0.15347,0.6 0.24919,1.9573 0.18693,2.6504 -0.12516,1.394 -0.7912,3.0164 -1.69608,4.1318 -0.58236,0.7177 -1.34684,1.3644 -2.19267,1.855 -1.03123,0.598 -1.82926,0.861 -3.28702,1.083 -0.067,0.014 -0.46546,0.01 -0.88498,-0.01 z m -24.542,1.7314 c -2.39235,-0.063 -4.50222,-1.0878 -6.0151,-2.92 -0.48751,-0.5904 -1.07528,-1.6495 -1.34359,-2.4209 -0.19058,-0.5479 -0.22819,-0.7906 -0.31102,-2.0065 -0.0872,-1.2857 -0.0832,-1.4315 0.0618,-2.0703 0.63162,-2.7807 2.52411,-4.9308 5.15947,-5.8619 0.65309,-0.2307 0.85693,-0.2673 1.92626,-0.345 1.11501,-0.079 2.03009,-0.043 2.29552,0.097 0.057,0.03 0.0885,0.1038 0.0701,0.164 -0.0286,0.094 -0.13104,0.097 -0.70438,0.021 -0.85216,-0.1125 -2.22854,-0.024 -3.00206,0.1917 -3.25952,0.9129 -5.54349,3.8346 -5.58906,7.1496 -0.0251,1.8295 0.59019,3.605 1.72531,4.9783 0.50034,0.6053 1.5851,1.4875 2.28027,1.8544 2.28362,1.2054 5.00918,1.1779 7.25344,-0.073 1.97787,-1.1022 3.41216,-3.1198 3.78946,-5.3306 0.54583,-3.198 -1.07563,-6.4805 -3.93232,-7.9608 -0.3128,-0.162 -0.44183,-0.2711 -0.4306,-0.364 0.009,-0.073 0.0389,-0.1342 0.0667,-0.1362 0.19327,-0.014 1.42184,0.7824 2.02451,1.3116 1.10388,0.9693 1.82583,2.0685 2.32051,3.5331 0.18802,0.5567 0.23292,0.8302 0.29787,1.8145 0.0652,0.9982 0.0568,1.2618 -0.0653,1.8983 -0.17272,0.9003 -0.53451,1.8619 -0.99012,2.6317 -0.40254,0.6801 -1.31501,1.7237 -1.91648,2.1917 -0.96464,0.7509 -2.29278,1.3413 -3.45998,1.5381 -0.34703,0.059 -0.66446,0.1122 -0.70521,0.1203 -0.0405,0.012 -0.40346,0 -0.80601,-0.01 z m 23.39644,-2.474 c -2.02133,-0.4037 -3.76225,-1.615 -4.82357,-3.356 -0.2091,-0.343 -0.3816,-0.6436 -0.38331,-0.6679 -0.006,-0.085 0.42982,-0.074 0.7034,0.018 0.34481,0.1163 0.35776,0.1149 0.34719,-0.035 -0.008,-0.1127 0.19811,-0.133 2.47406,-0.2433 2.37626,-0.1155 2.48854,-0.1138 2.61736,0.024 0.11334,0.1214 0.1594,0.1286 0.29159,0.045 0.13603,-0.086 0.15256,-0.1621 0.12358,-0.5729 -0.0448,-0.6351 0.02,-0.6917 0.81659,-0.7144 0.94775,-0.027 1.03612,-0.1419 0.78265,-1.0177 -0.0827,-0.2859 -0.1694,-0.4133 -0.37178,-0.5462 -0.14515,-0.095 -0.29113,-0.2657 -0.32441,-0.3786 -0.0963,-0.3266 -0.46682,-0.5846 -0.86353,-0.6012 l -0.34405,-0.014 -2.05731,-2.3665 c -1.75449,-2.0182 -2.04293,-2.3827 -1.95963,-2.4759 0.0537,-0.06 0.32488,-0.2432 0.60257,-0.4067 1.37131,-0.8076 2.9081,-1.157 4.40826,-1.002 2.85389,0.2949 5.12055,2.0444 6.15628,4.7518 0.22882,0.5981 0.26035,0.7713 0.3446,1.8914 0.10136,1.3467 0.0662,1.6803 -0.29741,2.8281 -0.65094,2.0546 -2.47116,3.8939 -4.52057,4.5676 -0.85748,0.282 -0.85929,0.2823 -2.02971,0.3399 -0.82913,0.04 -1.2291,0.024 -1.69288,-0.068 z m -24.15398,1.8083 c -1.52658,-0.2046 -2.73238,-0.7541 -3.90586,-1.7801 -1.57793,-1.3797 -2.399,-3.1268 -2.44556,-5.204 -0.0256,-1.1384 0.11131,-1.9008 0.52177,-2.9073 0.82232,-2.0165 2.39426,-3.4838 4.47509,-4.1773 0.85865,-0.2862 2.54947,-0.4271 3.31954,-0.2769 0.2701,0.053 0.50442,0.1075 0.52076,0.1217 0.0448,0.039 -0.45182,2.4717 -0.70909,3.4735 -0.29725,1.1573 -0.89646,2.8607 -1.04333,2.9659 -0.28077,0.2011 -0.38329,0.3431 -0.41058,0.5687 -0.0235,0.1946 0.0105,0.2756 0.17622,0.4195 0.38397,0.3335 0.95769,0.097 0.92396,-0.3814 -0.008,-0.1167 0.11859,-0.4596 0.28951,-0.783 0.56436,-1.0676 1.12026,-2.4434 1.58546,-3.9238 0.2545,-0.8099 0.47844,-1.5609 0.4976,-1.6691 0.0192,-0.1081 0.0597,-0.1983 0.0899,-0.2004 0.15185,-0.011 1.12501,0.6051 1.64395,1.0402 2.30382,1.9317 3.16942,4.9865 2.22158,7.84 -0.73365,2.2089 -2.59555,3.9862 -4.86143,4.6407 -0.79868,0.2307 -2.11528,0.3369 -2.88947,0.2334 z m 20.6805,-6.1226 h -0.61292 l 0.11892,-0.3422 c 0.14741,-0.424 0.15196,-0.3967 -0.0777,-0.466 -0.10554,-0.032 -0.19408,-0.089 -0.19675,-0.1265 -0.003,-0.037 0.17986,-0.2654 0.40559,-0.506 l 0.41041,-0.4375 1.25529,-0.1778 c 0.69038,-0.098 1.57349,-0.22 1.96239,-0.2715 l 0.70711,-0.093 0.13874,0.2155 c 0.083,0.1289 0.2497,0.2469 0.41515,0.2939 0.39717,0.1127 0.406,0.3967 0.0234,0.7513 -0.25079,0.2324 -0.27953,0.2972 -0.25921,0.5852 l 0.0229,0.3239 -1.85017,0.1305 c -1.0176,0.072 -2.12598,0.1283 -2.46307,0.1259 z m -1.37298,-0.073 c 0.18328,-0.1713 0.24523,-0.1666 0.19002,0.014 -0.0199,0.065 -0.10819,0.1236 -0.19626,0.1299 -0.15799,0.011 -0.15777,0.011 0.006,-0.1442 z m -2.70233,0.1219 c 0.17458,-0.1293 0.36231,-0.2982 0.41716,-0.3754 0.0929,-0.1308 0.1072,-0.1237 0.20822,0.1039 0.18632,0.4198 0.17996,0.4272 -0.40488,0.4685 l -0.53791,0.038 z m -0.87544,-0.6377 c -0.0401,-0.5685 0.21812,-0.7365 0.81989,-0.5335 0.26885,0.091 0.27694,0.1026 0.17915,0.2655 -0.13588,0.2265 -0.65982,0.6302 -0.83368,0.6424 -0.11657,0.01 -0.14253,-0.051 -0.16536,-0.3744 z m -1.0803,0.2724 c -0.33283,-0.1646 -0.74994,-0.6582 -0.76757,-0.9082 -0.007,-0.099 0.0659,-0.1296 0.35751,-0.1501 0.3209,-0.023 0.40204,0.01 0.6544,0.2243 0.25239,0.2191 0.2913,0.2955 0.31395,0.6164 0.0308,0.4365 -0.0516,0.4685 -0.55829,0.2176 z m 11.22414,-1.3114 c -0.0145,-0.2056 0.0243,-0.2867 0.19242,-0.4026 0.11578,-0.081 0.2623,-0.2601 0.32552,-0.4004 0.10663,-0.2364 0.12509,-0.247 0.25454,-0.1454 0.0767,0.06 0.20664,0.2536 0.28862,0.4299 0.11773,0.2532 0.13411,0.3607 0.0779,0.5113 -0.0658,0.1763 -0.11034,0.1933 -0.59601,0.2275 l -0.52487,0.037 z m -7.95604,0.5491 c -0.18454,-0.056 -0.18223,-0.3922 0.003,-0.4053 0.11629,-0.01 0.153,0.039 0.16534,0.2137 0.0171,0.2424 0.0131,0.247 -0.16816,0.1916 z m -0.27675,-1.6435 c 0.001,-0.4027 0.0178,-0.7504 0.0371,-0.7725 0.0925,-0.1066 0.27719,0.2605 0.25532,0.5073 -0.0129,0.1455 -0.0125,0.4244 8.1e-4,0.6198 0.0212,0.3126 0.005,0.3564 -0.13552,0.3664 -0.1559,0.011 -0.15969,-0.01 -0.15767,-0.721 z m -1.60385,0.6435 c -0.0818,-0.097 -0.0787,-0.2051 0.0165,-0.5696 l 0.11746,-0.4502 0.19783,0.1601 c 0.2524,0.2043 0.54319,0.682 0.50045,0.8222 -0.0492,0.1615 -0.70254,0.1909 -0.8322,0.038 z m -2.20057,0.2092 c -0.003,-0.04 0.0467,-0.056 0.11006,-0.037 0.0633,0.019 0.11609,0.048 0.11726,0.065 10e-4,0.016 -0.0483,0.033 -0.11005,0.037 -0.0617,0 -0.11446,-0.025 -0.11727,-0.065 z m 7.36798,-0.7015 c 0.0317,-0.2665 -0.12035,-0.4559 -0.57681,-0.7186 -0.22414,-0.1291 -0.37431,-0.2369 -0.33375,-0.2397 0.11435,-0.01 3.71911,0.1029 4.11015,0.1264 l 0.34739,0.021 -0.12036,0.2847 -0.12038,0.2846 -1.43215,0.1828 c -0.78766,0.1009 -1.53644,0.1957 -1.66388,0.2114 -0.2065,0.025 -0.22948,0.01 -0.21021,-0.1524 z m -6.67957,-0.4457 c 0.0895,-0.054 0.23683,-0.1271 0.32732,-0.1621 0.15852,-0.062 0.16576,-0.046 0.19765,0.4055 l 0.0331,0.4692 -0.36043,-0.307 c -0.35689,-0.3041 -0.35883,-0.3081 -0.19764,-0.4056 z m -0.57072,0.6859 c -0.003,-0.041 0.01,-0.076 0.0276,-0.078 0.0181,0 0.0562,0.03 0.0845,0.07 0.0283,0.039 0.0159,0.075 -0.0277,0.078 -0.0436,0 -0.0816,-0.028 -0.0845,-0.07 z m -0.84123,-0.2106 c -0.002,-0.024 0.0537,-0.1279 0.12294,-0.2301 0.15151,-0.2233 0.34693,-0.1327 0.23808,0.1104 -0.0578,0.1292 -0.35344,0.2272 -0.36102,0.1197 z m 9.08893,-1.0835 c -1.05565,-0.029 -2.03316,-0.063 -2.17222,-0.077 -0.2404,-0.024 -0.7583,-0.4345 -1.29523,-1.0263 l -0.17414,-0.1917 0.25995,-0.6331 c 0.14297,-0.3482 0.41074,-0.8633 0.59503,-1.1448 0.35093,-0.536 1.12925,-1.4317 1.25144,-1.4403 0.0392,0 0.61924,0.6367 1.28907,1.421 0.66983,0.7844 1.56045,1.8235 1.97915,2.3093 l 0.76128,0.8832 -0.28748,-0.024 c -0.15811,-0.013 -1.1512,-0.047 -2.20685,-0.076 z m -5.72036,0.1133 c -0.19815,-0.1345 -0.17644,-0.1609 0.12108,-0.1473 0.22049,0.01 0.26591,0.042 0.27658,0.1935 0.0135,0.1914 -0.0601,0.1829 -0.3977,-0.047 z m -2.95869,-0.1916 c -0.32991,-0.3265 -0.45197,-0.5244 -0.69629,-1.1288 -0.27056,-0.6693 -0.43988,-1.282 -0.57319,-2.0743 -0.0275,-0.1633 -0.0254,-0.8396 0.005,-1.5028 0.0301,-0.6633 0.0463,-1.3405 0.0361,-1.5051 -0.0179,-0.2912 -0.007,-0.28 0.41104,0.4218 0.52729,0.885 1.39242,2.0082 2.43092,3.1564 l 0.78555,0.8684 -0.20035,0.7806 -0.20034,0.7806 -0.43445,0.086 c -0.23895,0.047 -0.582,0.1767 -0.76235,0.2873 -0.18034,0.1107 -0.34442,0.2067 -0.3646,0.2134 -0.0199,0.01 -0.21671,-0.1658 -0.43673,-0.3836 z m 2.94024,-0.5402 0.12185,-0.467 0.19591,0.1702 c 0.1645,0.1427 0.19078,0.2144 0.16395,0.4468 -0.0302,0.261 -0.048,0.2778 -0.31776,0.2968 l -0.2858,0.02 z m -7.52179,-0.01 c -0.79263,-1.9848 -2.41627,-3.728 -4.28654,-4.6022 l -0.40093,-0.1874 0.0916,-0.2859 c 0.067,-0.2089 0.0679,-0.3233 0.003,-0.4258 -0.066,-0.1047 -0.057,-0.2766 0.036,-0.6845 0.0682,-0.2995 0.14785,-0.5462 0.17697,-0.5483 0.0291,0 0.59204,0.4907 1.25097,1.095 4.84555,4.4438 5.24388,4.8232 5.25692,5.0081 0.0229,0.3249 -0.6481,0.8611 -1.29911,1.038 -0.61179,0.1662 -0.59773,0.1731 -0.82937,-0.407 z m 9.27507,-1.1802 c -0.13816,-0.4078 0.93494,-2.1969 1.78173,-2.9707 0.20963,-0.1915 0.30391,-0.2365 0.37176,-0.1777 0.0679,0.059 -0.0558,0.2489 -0.4877,0.7486 -0.61875,0.7159 -1.22072,1.668 -1.40321,2.2193 -0.12617,0.3812 -0.18168,0.4193 -0.26258,0.1805 z m -0.73325,-1.6601 -0.17704,-0.4411 0.43963,-1.7549 c 0.24181,-0.9651 0.46133,-1.7485 0.48782,-1.7408 0.0265,0.01 0.37617,0.3956 0.77706,0.8618 l 0.72889,0.8476 -0.69812,0.803 c -0.38395,0.4416 -0.83306,1.0404 -0.998,1.3308 -0.16495,0.2904 -0.31864,0.5294 -0.34155,0.5313 -0.0229,0 -0.12131,-0.1952 -0.21869,-0.4377 z m -8.90881,-1.1531 c -1.16066,-1.0647 -2.39778,-2.1944 -2.74913,-2.5106 l -0.6388,-0.5747 1.98536,-0.1401 1.98535,-0.14 0.1041,0.3871 c 0.0572,0.2128 0.17907,0.6692 0.27074,1.0139 0.14998,0.564 1.04791,3.4517 1.17155,3.7675 0.0275,0.07 0.0346,0.129 0.0162,0.1303 -0.019,0 -0.98409,-0.8686 -2.14477,-1.9334 z m 7.85347,-1.0987 c -0.13827,-0.2588 -0.42116,-0.6954 -0.62865,-0.9701 l -0.37727,-0.4997 0.63876,-0.6645 0.63877,-0.6645 0.45775,-0.032 c 0.25176,-0.018 0.45947,-0.01 0.46154,0.021 0.0107,0.1516 -0.85362,3.3748 -0.89322,3.331 -0.0254,-0.029 -0.15943,-0.2629 -0.29772,-0.5218 z m -3.74963,-1.7685 c 0.0646,-0.1853 2.79755,-6.3299 2.8389,-6.3829 0.0294,-0.037 0.18567,-0.034 0.34748,0.01 l 0.29408,0.077 -0.20026,0.09 c -0.27492,0.1226 -0.2448,0.2179 0.0483,0.1531 0.22442,-0.05 0.21883,-0.041 -0.0845,0.1335 l -0.32488,0.1868 0.37988,0.06 0.37988,0.06 -0.36506,0.087 -0.36505,0.087 0.2195,0.1509 0.2195,0.1511 -0.35528,0.1173 -0.35529,0.1171 0.26684,0.1157 0.26686,0.1157 -0.38599,0.1117 c -0.21224,0.062 -0.43477,0.1151 -0.49442,0.1193 -0.0596,0 -0.10625,0.039 -0.10356,0.077 0.003,0.038 0.20015,0.082 0.4388,0.097 l 0.43394,0.028 -0.48102,0.1036 c -0.47628,0.1024 -0.47914,0.1043 -0.28963,0.212 0.10526,0.06 0.2627,0.1584 0.34987,0.2193 0.1498,0.1046 0.13906,0.1091 -0.19675,0.082 -0.19536,-0.016 -0.35411,-0.013 -0.35283,0 10e-4,0.019 0.0941,0.096 0.20626,0.1718 0.24024,0.163 0.1592,0.2678 -0.22952,0.2972 -0.2967,0.021 -0.30222,0.1121 -0.0181,0.2898 l 0.2151,0.1346 -0.25766,0.061 c -0.14171,0.034 -0.34109,0.076 -0.44296,0.096 -0.1731,0.033 -0.16479,0.046 0.12519,0.1772 l 0.3105,0.1416 -0.26103,0.027 c -0.14329,0.019 -0.32457,0.057 -0.40221,0.094 -0.12797,0.06 -0.1179,0.079 0.10741,0.1912 0.13666,0.068 0.25012,0.1467 0.25207,0.1744 0.002,0.028 -0.116,0.082 -0.26221,0.1198 -0.24676,0.065 -0.25535,0.076 -0.11985,0.1647 0.13377,0.087 0.12297,0.097 -0.12985,0.117 -0.34978,0.025 -0.40082,0.1237 -0.15198,0.2844 0.26741,0.1729 0.25089,0.237 -0.0668,0.2594 l -0.27025,0.019 0.13564,0.1782 c 0.13233,0.1739 0.13103,0.1786 -0.053,0.1916 -0.10372,0.01 -0.18622,0.047 -0.18329,0.089 0.003,0.041 0.0389,0.073 0.0801,0.07 0.0412,0 0.077,0.026 0.0797,0.064 0.003,0.042 -0.0866,0.051 -0.22366,0.024 -0.26137,-0.056 -0.27832,-4e-4 -0.0931,0.3035 l 0.12538,0.2055 -0.30789,-0.14 c -0.16936,-0.077 -0.30113,-0.1595 -0.29284,-0.1833 z m -0.41126,-0.2293 c -0.0331,-0.4685 -0.0274,-0.4864 0.15261,-0.4991 0.10278,-0.01 0.18834,0.01 0.19024,0.034 0.004,0.062 -0.26565,0.9451 -0.28996,0.9482 -0.0103,7e-4 -0.0341,-0.2162 -0.0529,-0.4834 z m 5.43035,-1.9949 c 0.1611,-0.2161 0.30344,-0.3837 0.3163,-0.3725 0.0129,0.011 -0.005,0.1377 -0.0403,0.2811 -0.035,0.1435 -0.0735,0.3039 -0.0855,0.3564 -0.0121,0.052 -0.1257,0.1027 -0.25262,0.1116 l -0.23075,0.016 z m -5.645,0.4998 c -0.0382,-0.1461 -0.0595,-0.2746 -0.0473,-0.2854 0.0577,-0.051 1.32044,-0.5169 1.34463,-0.4959 0.0152,0.013 -0.0755,0.2415 -0.20161,0.5075 l -0.22922,0.4834 -0.39851,0.028 c -0.39839,0.028 -0.39852,0.028 -0.46801,-0.2377 z m -7.20998,0.5862 c 0.0829,-0.275 0.0714,-0.3155 -0.0991,-0.3475 -0.14874,-0.028 -0.14896,-0.031 -0.0292,-0.4879 0.0944,-0.3617 0.15866,-0.4725 0.30101,-0.5191 0.34156,-0.1118 0.53105,-0.4388 0.37594,-0.6486 -0.0954,-0.1291 -2.07376,-0.5298 -3.02565,-0.6129 l -0.83151,-0.073 0.4446,-0.087 c 0.24455,-0.048 0.97038,-0.1765 1.613,-0.2859 1.94065,-0.3302 3.23362,-0.6922 4.04395,-1.1327 l 0.46077,-0.2503 0.56098,-1.6323 c 0.54078,-1.5734 0.56777,-1.631 0.74887,-1.5996 0.10333,0.018 1.11913,0.3269 2.25735,0.6864 l 2.06947,0.6537 -0.20514,0.1835 c -0.11283,0.1009 -0.74629,0.6593 -1.4077,1.2408 -1.09297,0.9608 -2.24984,2.0402 -2.96706,2.7681 l -0.27385,0.2779 0.0736,0.8819 0.0736,0.8818 -2.12128,0.1497 -2.12129,0.1496 z m -6.22263,-2.7954 c 0.15728,-0.1329 0.18985,-0.093 0.085,0.1048 -0.0577,0.1086 -0.10438,0.1338 -0.14453,0.078 -0.0326,-0.046 -0.006,-0.1278 0.0595,-0.183 z m 9.10309,-2.371 -0.28649,-0.1017 0.25633,-0.094 0.25626,-0.095 -0.26954,-0.093 -0.26954,-0.093 0.3094,-0.1402 c 0.17022,-0.076 0.30781,-0.1626 0.30587,-0.1902 -0.002,-0.028 -0.11465,-0.068 -0.25036,-0.088 l -0.24681,-0.038 0.27132,-0.1422 c 0.1492,-0.078 0.26992,-0.1643 0.26824,-0.1911 -0.002,-0.027 -0.11524,-0.081 -0.25233,-0.1211 l -0.24926,-0.072 0.3646,-0.1563 0.36462,-0.1561 -0.23282,-0.1056 c -0.12805,-0.058 -0.21614,-0.1085 -0.19574,-0.1123 0.0205,0 0.16832,-0.063 0.32866,-0.1332 l 0.2916,-0.1264 -0.26632,-0.092 -0.26632,-0.092 0.30797,-0.1164 c 0.36037,-0.1363 0.37822,-0.1908 0.0901,-0.2755 l -0.21101,-0.063 0.3107,-0.1217 c 0.35253,-0.1381 0.38915,-0.2292 0.11183,-0.2784 -0.25197,-0.045 -0.24589,-0.1251 0.0193,-0.2576 0.25233,-0.126 0.25755,-0.1471 0.0786,-0.3189 -0.12694,-0.1219 -0.11994,-0.1289 0.14495,-0.1476 l 0.27832,-0.02 -0.18223,-0.2212 -0.18224,-0.2211 0.18338,0.044 c 0.30482,0.072 0.52851,0.1439 0.5304,0.1706 9.7e-4,0.014 -0.18821,0.6281 -0.42042,1.365 -0.23221,0.7368 -0.53789,1.7114 -0.67931,2.1655 -0.14141,0.4542 -0.27247,0.8268 -0.29122,0.8281 -0.0188,0 -0.16304,-0.043 -0.3206,-0.099 z m 9.32251,-4.4122 0.0315,-0.2727 -0.24109,0.2123 c -0.13258,0.1167 -0.25959,0.2136 -0.28221,0.2152 -0.0226,0 -0.0217,-0.1242 0.002,-0.2797 0.0237,-0.1555 0.0326,-0.2918 0.0198,-0.3029 -0.0129,-0.011 -0.10473,0.053 -0.20416,0.1437 -0.0994,0.091 -0.1974,0.1653 -0.21773,0.1667 -0.0203,0 -0.002,-0.152 0.0405,-0.3409 0.0426,-0.189 0.0579,-0.3422 0.0339,-0.3405 -0.024,0 -0.15202,0.081 -0.28446,0.1765 -0.25499,0.1835 -0.29002,0.149 -0.18894,-0.1862 0.0766,-0.2539 0.0373,-0.2977 -0.1572,-0.1753 -0.13959,0.088 -0.14512,0.081 -0.0873,-0.1108 0.0825,-0.2735 0.0267,-0.3022 -0.21319,-0.1097 -0.37426,0.3003 -0.39339,0.2984 -0.25581,-0.025 0.18164,-0.428 0.16373,-0.4644 -0.0925,-0.1874 -0.19759,0.2135 -0.21086,0.2185 -0.13886,0.052 0.062,-0.1435 0.0588,-0.1951 -0.0147,-0.2335 -0.0703,-0.037 -0.0761,-0.09 -0.0217,-0.2094 0.12068,-0.2696 0.0733,-0.2832 -0.14541,-0.041 -0.2369,0.2613 -0.25551,0.2383 -0.1235,-0.1532 0.0513,-0.1519 0.0922,-0.2905 0.091,-0.3081 -10e-4,-0.018 -0.14571,0.082 -0.32105,0.2224 -0.17536,0.1397 -0.30845,0.2099 -0.29578,0.1559 0.0127,-0.054 0.0337,-0.2512 0.0468,-0.4379 l 0.0237,-0.3398 -0.28549,0.3206 -0.28549,0.3207 0.0237,-0.3397 c 0.013,-0.1869 0.0337,-0.3828 0.0459,-0.4353 0.0436,-0.1871 -0.0878,-0.082 -0.25261,0.2016 l -0.16746,0.2886 -0.0508,-0.394 -0.0508,-0.3939 -0.22201,0.2966 -0.22202,0.2967 0.008,-0.3115 c 0.009,-0.3605 -0.0647,-0.384 -0.29903,-0.095 l -0.16756,0.2065 -0.0682,-0.4341 -0.0681,-0.434 -0.21347,0.3788 -0.21349,0.3788 -0.0534,-0.4351 -0.0534,-0.4351 -0.12488,0.2906 c -0.0687,0.1598 -0.1523,0.2924 -0.1858,0.2948 -0.0335,0 -0.074,-0.1807 -0.09,-0.4068 -0.0159,-0.2261 -0.0542,-0.4092 -0.085,-0.407 -0.0308,0 -0.11207,0.1686 -0.18053,0.3696 l -0.12446,0.3654 -0.069,-0.4459 -0.069,-0.4459 -0.16374,0.3414 -0.16374,0.3412 -0.0639,-0.3628 -0.0639,-0.3628 -0.17155,0.3878 c -0.15974,0.361 -0.1754,0.3751 -0.22754,0.2038 -0.0307,-0.1011 -0.0735,-0.3009 -0.0949,-0.4441 l -0.0389,-0.2602 -0.11012,0.4071 c -0.0606,0.2239 -0.1238,0.3951 -0.1405,0.3807 -0.0167,-0.014 -0.0716,-0.2073 -0.1219,-0.4283 l -0.0915,-0.4019 -0.0774,0.3248 c -0.094,0.394 -0.19669,0.4273 -0.22174,0.072 -0.0239,-0.3393 -0.10489,-0.3244 -0.33376,0.061 -0.10238,0.1724 -0.19688,0.3144 -0.21002,0.3153 -0.0132,9e-4 0.0156,-0.1416 0.0638,-0.3168 0.0482,-0.1751 0.0728,-0.3313 0.0546,-0.3471 -0.0183,-0.016 -0.16884,0.053 -0.33471,0.1529 l -0.30158,0.1817 0.0402,-0.1768 c 0.0591,-0.2603 0.0934,-0.2848 0.57372,-0.4103 0.64355,-0.168 2.17997,-0.1955 2.92276,-0.052 1.14142,0.2202 2.50426,0.8625 3.49599,1.6477 1.15783,0.9166 1.9015,1.6077 2.2868,2.1249 l 0.41706,0.5599 -0.1846,0.222 c -0.10155,0.1221 -0.19888,0.2232 -0.21632,0.2244 -0.0175,0 -0.0175,-0.1206 -2.3e-4,-0.2705 z m -11.8739,-3.6747 0.0437,-0.3665 0.0382,0.418 c 0.0214,0.2298 0.0314,0.6855 0.0235,1.0126 l -0.0144,0.5945 -0.0672,-0.6461 c -0.037,-0.3554 -0.0476,-0.811 -0.0235,-1.0125 z m 1.88887,-0.4403 0.0321,-0.2088 -0.13209,0.1783 c -0.17197,0.2323 -0.2045,0.2277 -0.17612,-0.025 l 0.0234,-0.2082 -0.1607,0.1616 -0.16073,0.1615 0.0817,-0.1862 c 0.0707,-0.1611 0.0664,-0.1789 -0.0322,-0.133 -0.0764,0.036 -0.10341,0.019 -0.082,-0.052 0.0184,-0.061 -0.0268,-0.1128 -0.10648,-0.124 -0.11069,-0.015 -0.0923,-0.048 0.0927,-0.1639 0.22205,-0.1386 0.24452,-0.1389 0.57514,-0.01 l 0.34404,0.1381 -0.13486,0.3358 c -0.1551,0.3863 -0.20986,0.4302 -0.16391,0.1313 z m -2.91092,-0.6287 c -0.59112,-0.3985 -0.76041,-0.5584 -0.60282,-0.5695 0.0977,-0.01 1.43735,0.9511 1.44306,1.032 0.007,0.1 -0.0644,0.06 -0.84024,-0.4625 z m 1.34608,0.152 c 0.0909,-0.3014 0.0315,-0.829 -0.10436,-0.9264 -0.0953,-0.069 -0.15258,-0.059 -0.29437,0.05 -0.24226,0.1843 -0.30477,0.1738 -0.14875,-0.025 0.23014,-0.2934 0.36367,-0.3386 0.54249,-0.1833 0.19908,0.1729 0.25639,0.7129 0.11139,1.0494 -0.12118,0.2813 -0.18696,0.3038 -0.10634,0.036 z m -2.85933,-0.4726 c 0.42801,-0.4547 0.72424,-0.6098 1.23832,-0.648 0.16446,-0.012 0.47114,-0.1177 0.6816,-0.2344 0.21047,-0.1167 0.3646,-0.1777 0.34253,-0.1356 -0.0843,0.1607 -0.50445,0.3518 -1.00616,0.4578 -0.59356,0.1254 -0.91269,0.2971 -1.31412,0.7076 -0.44424,0.4541 -0.39839,0.3373 0.0579,-0.1474 z m 3.64583,-0.066 c 0.0796,-0.1779 0.0437,-0.1883 -0.17757,-0.051 l -0.15723,0.097 0.13741,-0.1821 0.1374,-0.1822 -0.21844,0.069 -0.21839,0.07 0.13571,-0.1773 0.13571,-0.1772 -0.16942,0.055 c -0.1402,0.045 -0.15554,0.035 -0.0887,-0.056 0.0659,-0.092 0.048,-0.1105 -0.0968,-0.1023 -0.17204,0.012 -0.17363,0 -0.0401,-0.1098 0.13286,-0.1162 0.13139,-0.1197 -0.0451,-0.1077 l -0.18249,0.013 0.19574,-0.1203 c 0.1076,-0.067 0.28837,-0.138 0.40162,-0.1594 0.17747,-0.033 0.22077,0 0.31389,0.2164 0.16711,0.3949 0.18431,0.8666 0.0353,0.9681 -0.17235,0.1173 -0.17729,0.1142 -0.0983,-0.062 z m -4.70129,0.01 c 0.0275,-0.2152 0.51806,-1.2893 0.59123,-1.2945 0.0593,0 -0.13941,0.6128 -0.30521,0.9477 -0.0922,0.1861 -0.16045,0.4534 -0.1518,0.5937 0.0137,0.2183 0.003,0.2361 -0.0744,0.1227 -0.0496,-0.073 -0.0765,-0.2393 -0.0599,-0.3696 z m 0.69725,-0.4153 c 0.12147,-0.2763 0.55953,-0.9193 0.63219,-0.928 0.0359,0 0.0349,0.037 -10e-4,0.091 -0.0368,0.054 -0.11775,0.2713 -0.18003,0.4822 -0.12717,0.431 -0.44329,0.8427 -0.49724,0.6478 -0.0174,-0.063 0.004,-0.1945 0.0469,-0.2927 z m 1.27086,-0.7322 c 0.23654,-0.4407 0.4385,-0.7184 0.6247,-0.8591 0.16226,-0.1226 0.17776,-0.1252 0.10095,-0.017 -0.0499,0.071 -0.0737,0.2123 -0.0529,0.3151 0.0317,0.1563 -0.0263,0.2344 -0.35479,0.4779 -0.21597,0.1599 -0.4018,0.2924 -0.41294,0.2942 -0.0113,8e-4 0.0315,-0.093 0.095,-0.2114 z m 1.79499,-0.4441 c -0.003,-0.04 0.0798,-0.1376 0.18354,-0.2167 0.10381,-0.079 0.27927,-0.2864 0.38994,-0.4612 l 0.20123,-0.3176 -0.0295,0.3026 c -0.0462,0.4741 -0.0719,0.5416 -0.24351,0.6399 -0.20507,0.1175 -0.495,0.148 -0.50172,0.053 z"
       id="path25009-2"
       sodipodi:nodetypes="csscssscsssccssscsscssssssssssscsssssscsssssccscssssssssssssssssssssssscsscscsscccsscsssccsssssssssscscsssssssscsscsscsscssscsssssssssscssscccccssssssssssssccssssssssccccsssscsssssssssssssccccssssccscssssccccssssssssscssssssssssssscscssscssssssscsssssscssssssssscsssccccccscscsssscsssssssssscssssscsssccsccsssssssccccscssccsssccsscsssssssssssssssscssscsssscscccsssscccscccssccccccccssccccccccccccssscsssssscscsccccccscscsscssssscscsccssscssssssscssssscssscscsssccsscssscsssccccccssssscccccccscccsscccscccccsccsssssccccssssccccsssscssssscssssssccssssscccssscccccsscccccccssssscccccccssscssscssssssscssssscsscccccscsccccsscccssscsccsscsssssccsssssscssssssccccccccccccccccscsccssssssscccssccssssscssccscsscc" /><path
       style="fill:#e51535;fill-opacity:1;stroke-width:3"
       d="m -283.26684,1899.362 c 1.71464,-0.7311 22.40543,-1.9776 23.24952,-1.7441 0.84409,0.2336 -9.21769,1.135 -9.69847,1.1613 -0.77787,0.043 -13.83772,1.1395 -13.55105,0.5828 z"
       id="path25013-9"
       sodipodi:nodetypes="cssc" /><text
       xml:space="preserve"
       transform="matrix(0.26458333,0,0,0.26458333,-526.54004,1237.27)"
       id="text25017-1"
       style="font-style:normal;font-variant:normal;font-weight:normal;font-stretch:normal;font-size:56px;line-height:0.9;font-family:'Trader Joes';-inkscape-font-specification:'Trader Joes';text-align:center;white-space:pre;shape-inside:url(#rect25021-7);display:inline;fill:#e51535;fill-opacity:1;stroke-width:11.3386"
       x="41.607422"
       y="0"><tspan
         x="844.08499"
         y="2546.0073"
         id="tspan28592">TOUR de </tspan><tspan
         x="877.321"
         y="2596.4072"
         id="tspan28594">JOE'S</tspan></text><path
       style="fill:#e51535;fill-opacity:1;stroke-width:3"
       d="m -262.98439,1898.9835 c 0.18708,-0.3663 9.46733,-1.7483 9.81569,-1.864 0.34835,-0.1157 4.00358,-1.2484 4.15873,-1.233 0.15514,0.015 -2.77617,1.5985 -3.45085,1.7093 -0.67467,0.1108 -11.21594,2.1197 -10.52357,1.3877 z"
       id="path25019-2" /></g></svg>
