<?xml version="1.0" encoding="UTF-8" standalone="no"?>
<!-- Created with Inkscape (http://www.inkscape.org/) -->

<svg
   width="80.923096mm"
   height="81.42627mm"
   viewBox="0 0 80.923096 81.42627"
   version="1.1"
   id="svg5"
   xml:space="preserve"
   xmlns="http://www.w3.org/2000/svg"
   xmlns:svg="http://www.w3.org/2000/svg"><defs
     id="defs2" /><g
     id="layer1"
     transform="translate(836.56905,-2282.4601)"><path
       d="m -827.52633,2328.0848 c 0.91864,-0.7409 1.28905,-1.2891 2.02989,-1.8521 0,0 0.57785,-0.3112 0.91863,-0.1778 0.40005,0.1481 0.54822,0.9186 0.54822,0.9186 0.19261,0.7408 -0.1778,3.5116 -1.65947,6.8453 h 5.36363 c -1.28905,-3.7042 -2.2225,-7.0231 -0.91863,-7.7639 0,0 0.5334,-0.2075 0.91863,0.1778 0.37042,0.3704 1.12607,1.3335 1.85209,1.8521 l -1.67429,-4.6228 h -5.54143 z"
       id="path40490"
       style="font-size:56px;line-height:0.9;font-family:'Trader Joes';-inkscape-font-specification:'Trader Joes';text-align:center;text-anchor:middle;white-space:pre;fill:#d40000;stroke-width:3" /><path
       d="m -813.55422,2323.3582 c -2.44475,0 -4.43019,2.3707 -4.43019,5.2748 0,2.904 1.98544,5.2599 4.43019,5.2599 2.44475,0 4.43018,-2.3559 4.43018,-5.2599 0,-2.9041 -1.98543,-5.2748 -4.43018,-5.2748 z m -0.56304,7.5862 c -1.21496,0 -2.20768,-0.9927 -2.20768,-2.2225 0,-1.2298 0.99272,-2.2225 2.20768,-2.2225 1.22979,0 2.2225,0.9927 2.2225,2.2225 0,1.2298 -0.99271,2.2225 -2.2225,2.2225 z"
       id="path40492"
       style="font-size:56px;line-height:0.9;font-family:'Trader Joes';-inkscape-font-specification:'Trader Joes';text-align:center;text-anchor:middle;white-space:pre;fill:#d40000;stroke-width:3" /><path
       d="m -801.86389,2323.5805 c 0.45931,1.2001 1.18533,4.3413 -0.50377,6.6527 -0.68157,0.8593 -4.74133,0.7704 -2.16323,-6.6527 -1.21497,0 -2.88925,0 -4.10422,0 0,0 1.52612,1.3187 1.80763,6.5934 0.10372,1.9854 1.73355,3.0374 2.23732,3.393 0.87418,0.6075 2.10397,0.652 2.96333,0.1778 1.71874,-0.9482 2.4892,-2.0595 2.4003,-4.608 -0.19261,-4.445 1.79282,-5.408 1.79282,-5.5562 z"
       id="path40494"
       style="font-size:56px;line-height:0.9;font-family:'Trader Joes';-inkscape-font-specification:'Trader Joes';text-align:center;text-anchor:middle;white-space:pre;fill:#d40000;stroke-width:3" /><path
       d="m -787.71398,2333.804 c -0.0296,-0.5038 -0.91864,-1.2891 -1.65947,-2.5781 -0.60748,-1.0668 -1.0668,-2.6966 -1.11125,-2.9633 0,0 1.49648,-1.1409 1.65947,-2.4003 0.14816,-1.0372 -0.37042,-2.2077 -1.11125,-2.4003 h -7.00829 c 0,0.5185 1.83727,1.289 1.46685,5.734 0,0 -0.54821,3.6894 -1.46685,4.608 h 4.23757 c -0.91863,-1.0964 -1.46685,-4.2376 -0.74083,-4.608 0,0 0.56303,-0.3704 0.93345,0.1778 0,0 0.6223,0.5186 0.91863,1.2891 0.74083,1.852 0.19262,2.8299 0.19262,3.1411 z m -3.68935,-7.2009 c -0.0741,0.7705 -1.67429,1.4817 -2.0447,1.4817 0,0 0.19261,-0.7557 0.19261,-1.4817 0,-0.6519 -0.19261,-1.6595 -0.19261,-1.6595 0,0 2.2225,-0.1926 2.0447,1.6595 z"
       id="path40496"
       style="font-size:56px;line-height:0.9;font-family:'Trader Joes';-inkscape-font-specification:'Trader Joes';text-align:center;text-anchor:middle;white-space:pre;fill:#d40000;stroke-width:3" /><path
       d="m -777.65939,2323.4027 h -5.17102 c 0.0296,1.1705 1.65947,2.5929 1.28905,5.9118 -0.29633,2.667 -1.11125,4.445 -1.11125,4.445 1.18533,0 3.54118,0.1038 4.8006,0 2.02988,-0.1926 3.7338,-2.6077 3.70417,-5.3636 -0.0296,-2.2669 -1.85209,-4.4302 -3.51155,-4.9932 z m -1.30387,7.4528 c 0,0 0,0.7408 -0.54822,-1.6595 -0.3556,-1.5409 0,-3.882 0,-3.882 0,0 2.69664,0.815 2.77072,2.7708 0.0741,2.1039 -1.65947,2.5781 -2.2225,2.7707 z"
       id="path40498"
       style="font-size:56px;line-height:0.9;font-family:'Trader Joes';-inkscape-font-specification:'Trader Joes';text-align:center;text-anchor:middle;white-space:pre;fill:#d40000;stroke-width:3" /><path
       d="m -766.45799,2333.804 0.74083,-3.6894 c -0.90382,0.044 -2.96333,1.4817 -4.25238,1.6595 -1.21497,0.1778 -0.9779,-2.0447 -0.74084,-2.5781 0.23707,-0.5186 2.02989,0.1778 2.2225,0.1778 v -2.0299 c -2.87443,0.726 -3.06705,-0.6815 -1.85208,-1.8521 0.66675,-0.6371 3.94123,1.2743 4.6228,1.3039 l -0.74083,-3.3337 h -7.2009 c 0,0.2667 1.09643,3.0077 1.09643,5.5414 0,2.3707 -1.09643,4.5339 -1.09643,4.8006 z"
       id="path40500"
       style="font-size:56px;line-height:0.9;font-family:'Trader Joes';-inkscape-font-specification:'Trader Joes';text-align:center;text-anchor:middle;white-space:pre;fill:#d40000;stroke-width:3" /><path
       d="m -813.50527,2336.7969 c 1.11125,0.7409 3.68935,4.2524 1.48166,7.0231 -0.69638,0.8742 -3.70416,-0.1778 -1.48166,-2.2225 -0.56304,0.1926 -3.88197,2.0003 -4.43019,2.2225 0,0 1.46685,0.3704 2.02989,1.2891 0.40005,0.7112 0.78528,1.3187 1.28905,1.6743 0.87418,0.6074 2.10396,0.6371 2.96333,0.1778 1.71873,-0.9631 2.4892,-2.0744 2.4003,-4.6228 -0.19262,-4.4302 2.4003,-5.3933 2.4003,-5.5415 z"
       id="path40502"
       style="font-size:56px;line-height:0.9;font-family:'Trader Joes';-inkscape-font-specification:'Trader Joes';text-align:center;text-anchor:middle;white-space:pre;fill:#d40000;stroke-width:3" /><path
       d="m -801.93348,2336.6932 c -2.44475,0 -4.43019,2.3707 -4.43019,5.2747 0,2.9041 1.98544,5.26 4.43019,5.26 2.44475,0 4.43018,-2.3559 4.43018,-5.26 0,-2.904 -1.98543,-5.2747 -4.43018,-5.2747 z m -0.56304,7.5861 c -1.21496,0 -2.20768,-0.9927 -2.20768,-2.2225 0,-1.2297 0.99272,-2.2225 2.20768,-2.2225 1.22979,0 2.2225,0.9928 2.2225,2.2225 0,1.2298 -0.99271,2.2225 -2.2225,2.2225 z"
       id="path40504"
       style="font-size:56px;line-height:0.9;font-family:'Trader Joes';-inkscape-font-specification:'Trader Joes';text-align:center;text-anchor:middle;white-space:pre;fill:#d40000;stroke-width:3" /><path
       d="m -789.07264,2343.4496 c -0.90382,0.044 -2.96333,1.4817 -4.25238,1.6595 -1.21497,0.1778 -0.9779,-2.0447 -0.74084,-2.5781 0.23707,-0.5186 2.02989,0.1778 2.2225,0.1778 v -2.0299 c -2.87443,0.726 -3.06705,-0.6816 -1.85208,-1.8521 0.66675,-0.6371 3.94123,1.2742 4.6228,1.3039 l -0.74083,-3.3338 h -7.2009 c 0,0.2667 1.09643,3.0078 1.09643,5.5415 0,2.3706 -1.09643,4.5339 -1.09643,4.8006 h 7.2009 z"
       id="path40506"
       style="font-size:56px;line-height:0.9;font-family:'Trader Joes';-inkscape-font-specification:'Trader Joes';text-align:center;text-anchor:middle;white-space:pre;fill:#d40000;stroke-width:3" /><path
       d="m -787.63545,2340.6789 c 0,0 2.8448,-2.6226 1.85209,-3.882 -0.74084,-0.9186 -1.85209,-0.8297 -2.2225,-0.5482 -1.65947,1.2891 0.74083,2.9633 0.74083,2.9633 z"
       id="path40508"
       style="font-size:56px;line-height:0.9;font-family:'Trader Joes';-inkscape-font-specification:'Trader Joes';text-align:center;text-anchor:middle;white-space:pre;fill:#d40000;stroke-width:3" /><path
       d="m -777.3379,2336.8858 c -0.23706,0 -3.39301,-0.889 -5.17101,0.1926 -0.84455,0.5186 -1.57057,1.5854 -1.52612,2.6078 0.0444,1.2742 0.45932,1.8669 0.78528,2.1928 1.11125,1.1113 1.28905,0.5483 2.2225,1.6595 0.59267,0.726 -0.37041,1.4817 -0.93345,1.4817 -1.21496,0 -1.4224,-2.1929 -1.65946,-2.2225 l -1.46685,4.2524 c 0.54821,0.2222 1.28905,-0.1778 1.65946,-0.3705 1.28905,0.1927 0.91864,0.3705 3.14114,0.3705 2.02988,0 3.31893,-0.5038 3.31893,-2.9486 0,-1.852 -1.48167,-2.9633 -2.4003,-3.1411 -1.28905,-0.2667 -1.65947,-1.3039 -1.28905,-2.0447 0.22225,-0.4149 0.77047,-0.5482 1.48167,-0.5482 0.91863,0 1.17051,0.4445 1.28905,0.5482 0.1778,0.1926 0.60748,0.9483 0.54821,1.6743 l 2.02989,-3.882 c -0.3556,-0.1481 -1.65947,0.5482 -2.02989,0.1778 z"
       id="path40510"
       style="font-size:56px;line-height:0.9;font-family:'Trader Joes';-inkscape-font-specification:'Trader Joes';text-align:center;text-anchor:middle;white-space:pre;fill:#d40000;stroke-width:3" /><path
       id="path40514"
       style="fill:#d40000;stroke-width:0.181882"
       d="m -791.74093,2282.9398 c -0.0438,0 -0.0873,0 -0.13126,0.021 -0.13811,0.052 -0.59047,0.6225 -1.0051,1.2691 -0.10465,0.1632 -0.21014,0.3135 -0.31678,0.4538 0.777,0.4176 1.50844,0.9199 2.17403,1.4764 0.73295,0.528 1.30192,1.2313 1.93425,1.8644 16.86765,3.3499 29.02026,18.1481 29.02613,35.3452 -6e-5,19.9087 -16.13924,36.0479 -36.04793,36.0479 -19.90869,-1e-4 -36.04786,-16.1392 -36.04792,-36.0479 0.002,-15.7091 10.17718,-29.608 25.15143,-34.3566 -0.38065,-0.6708 -1.15876,-1.0834 -1.49603,-1.7151 -0.4817,1.1183 -1.28026,1.602 -2.55488,1.5932 -0.79426,-0.01 -1.08694,-0.1208 -2.11202,-0.8331 -0.65437,-0.4546 -1.30749,-0.8289 -1.45159,-0.8289 -0.42755,0 -0.61932,0.558 -0.52607,1.5354 0.18127,1.8998 -0.66032,3.3295 -2.19573,3.7315 -0.7677,0.201 -0.85158,0.1826 -3.10524,-0.6971 -0.83346,-0.3254 -0.88554,-0.3262 -1.11207,-0.023 -0.19489,0.2609 -0.19445,0.5062 0.001,1.3637 0.44268,1.9414 0.23855,2.8222 -0.86506,3.7378 -0.78115,0.6482 -1.60688,0.7533 -3.02721,0.386 -1.98295,-0.5127 -2.23671,-0.2204 -1.41955,1.6355 0.78478,1.7823 0.52906,3.1964 -0.74776,4.1367 -0.41327,0.3043 -0.86298,0.3951 -2.27686,0.4579 -1.61791,0.072 -1.76639,0.1098 -1.81901,0.4609 -0.033,0.2203 0.25968,0.8487 0.69143,1.4837 0.94542,1.3907 1.09664,2.3791 0.52917,3.4726 -0.45417,0.8752 -1.31261,1.38 -2.67064,1.57 -2.03392,0.2846 -2.17908,0.6416 -0.81339,1.9947 1.12692,1.1166 1.42941,1.6769 1.42265,2.6396 -0.01,1.4306 -0.77676,2.3054 -2.56728,2.928 -1.01246,0.3522 -1.19375,0.4818 -1.24385,0.8893 -0.0505,0.4105 0.10207,0.5794 1.09605,1.217 1.48153,0.95 1.83752,1.4915 1.82883,2.7807 -0.009,1.2843 -0.37284,1.8272 -1.83968,2.7394 -1.73608,1.0797 -1.72461,1.4864 0.062,2.1647 1.41585,0.5375 1.78029,0.8102 2.1978,1.6428 0.69559,1.3873 0.37597,2.5237 -1.08934,3.8695 -1.37911,1.2667 -1.26153,1.7949 0.45424,2.0376 2.05705,0.2911 3.13365,1.3461 3.12177,3.0583 -0.005,0.7154 -0.14158,1.0493 -0.83302,2.0443 -0.45471,0.6544 -0.82742,1.3097 -0.82838,1.4552 -0.003,0.4445 0.578,0.6144 1.81643,0.5323 0.9894,-0.066 1.31387,-0.01 1.99316,0.3488 1.55301,0.8195 1.94386,2.4878 1.00562,4.2896 -0.87815,1.6859 -0.57533,2.1638 1.12138,1.7705 2.17009,-0.5032 3.32479,-0.117 4.07727,1.3632 0.36368,0.7155 0.36216,1.1598 -0.006,2.7001 -0.26429,1.1049 -0.26486,1.2467 -0.01,1.5053 0.25506,0.2583 0.36281,0.254 1.14722,-0.044 2.2395,-0.85 2.28833,-0.8592 3.05098,-0.6289 1.53855,0.4645 2.08202,1.3971 2.06705,3.5465 -0.0103,1.4901 0.007,1.5552 0.42892,1.6645 0.3323,0.086 0.70801,-0.073 1.53582,-0.648 2.3787,-1.653 4.67452,-0.7801 5.02347,1.91 0.28844,2.2236 0.61668,2.3627 2.15129,0.9095 1.25424,-1.1876 1.72183,-1.3858 2.93212,-1.2408 1.24829,0.1494 1.80808,0.6815 2.41691,2.2955 0.45545,1.2075 0.59923,1.4182 1.00149,1.4702 0.40297,0.052 0.57392,-0.1026 1.20509,-1.094 1.61446,-2.5356 3.83905,-2.6116 5.42292,-0.1855 0.32628,0.4999 0.71591,1.0589 0.8661,1.2433 v 0 c 0.23862,0.2925 0.32075,0.3038 0.65061,0.088 0.20762,-0.1357 0.54562,-0.6923 0.75086,-1.2371 0.49524,-1.3146 0.91938,-1.8814 1.67276,-2.2325 1.37446,-0.6407 2.53998,-0.2647 3.93258,1.2672 1.18582,1.3045 1.6282,1.1323 1.96887,-0.7669 0.36734,-2.0479 1.30554,-2.9999 2.94504,-2.9854 0.6882,0.01 1.05522,0.1572 2.1146,0.8739 0.82618,0.5589 1.3902,0.8263 1.58647,0.7529 0.35836,-0.1346 0.35796,-0.1344 0.39119,-1.8939 0.0395,-2.0921 0.88441,-3.2129 2.55436,-3.3895 0.6724,-0.071 1.0582,0.022 2.04587,0.4925 1.79926,0.8572 2.2352,0.5936 1.79989,-1.0888 -0.49517,-1.9136 -0.17084,-3.1087 1.06247,-3.9125 0.73436,-0.4788 1.11661,-0.4896 3.65559,-0.1049 1.14871,0.1741 1.24986,-0.1201 0.58601,-1.7017 -0.61815,-1.4728 -0.63523,-2.464 -0.0584,-3.3832 0.61108,-0.9736 1.30828,-1.2643 3.02669,-1.2739 2.21781,-0.01 2.33505,-0.2064 1.14411,-1.9202 -0.68959,-0.9924 -0.76423,-1.2069 -0.75757,-2.1658 0.0122,-1.7472 0.87965,-2.5953 3.00343,-2.9363 1.92484,-0.3091 2.02075,-0.5587 0.73122,-1.9001 -1.25362,-1.3039 -1.416,-1.6213 -1.40818,-2.7476 0.0104,-1.5067 0.53251,-2.0691 2.79466,-3.0112 1.42333,-0.5927 1.40218,-0.928 -0.11937,-1.9038 -1.51541,-0.9719 -1.81326,-1.4406 -1.80351,-2.8401 0.01,-1.3764 0.43587,-2.0245 1.85725,-2.8247 1.65201,-0.9301 1.57678,-1.4085 -0.33693,-2.1311 -1.54789,-0.5843 -2.14096,-1.292 -2.24637,-2.6799 -0.0905,-1.1916 0.17976,-1.74 1.42007,-2.8841 1.36394,-1.2582 1.24184,-1.6068 -0.6749,-1.9291 -0.62968,-0.1059 -1.40303,-0.3432 -1.71824,-0.5271 -0.6316,-0.368 -1.38424,-1.6925 -1.37304,-2.4158 0.01,-0.5867 0.55119,-1.6916 1.31878,-2.6893 0.88694,-1.1529 0.6673,-1.3727 -1.50378,-1.5027 -2.01211,-0.1205 -2.55472,-0.3918 -3.06442,-1.5353 -0.4672,-1.0482 -0.42838,-1.5934 0.21446,-3.0309 0.63378,-1.4172 0.64892,-1.5115 0.30076,-1.8045 -0.19705,-0.1662 -0.51905,-0.1486 -1.40974,0.076 -1.40553,0.3549 -2.46036,0.2543 -3.20859,-0.307 -1.07829,-0.8088 -1.35259,-2.0826 -0.84646,-3.9315 0.26604,-0.972 0.14475,-1.5297 -0.33538,-1.5297 -0.14222,-9e-4 -0.73326,0.2064 -1.31309,0.4605 -1.26795,0.5558 -2.77208,0.5354 -3.54449,-0.048 -0.88743,-0.6703 -1.12746,-1.315 -1.07797,-2.8959 0.068,-2.171 -0.24525,-2.3626 -1.94148,-1.1839 -1.29582,0.9004 -2.45536,1.0868 -3.45251,0.5529 -0.9058,-0.485 -1.29945,-1.1451 -1.62522,-2.7275 -0.4089,-1.9862 -0.60482,-2.0516 -2.05311,-0.6801 -1.24392,1.1784 -1.93652,1.452 -3.15226,1.246 -1.03126,-0.1747 -1.62008,-0.7428 -2.16782,-2.0914 -0.50816,-1.2511 -0.82375,-1.7579 -1.13017,-1.7766 z" /><path
       id="path40512"
       style="fill:#d40000;fill-opacity:1;stroke-width:0.0749397"
       d="m -801.46891,2282.4602 c -0.55492,0.015 -1.72258,0.1919 -2.25361,0.372 -0.7951,0.2703 -1.85444,0.8833 -2.24637,1.2992 -0.47016,0.4991 -0.66082,0.9286 -0.66146,1.4893 -6.8e-4,0.5841 0.19101,0.8846 0.67593,1.0594 0.22928,0.083 0.37276,0.1961 0.47387,0.3746 0.0926,0.1636 0.19757,0.252 0.29042,0.2455 0.12172,-0.01 0.15748,0.059 0.22169,0.4165 0.10178,0.5665 0.16362,0.651 0.44029,0.6025 0.1754,-0.032 0.24041,-0.01 0.2868,0.1111 0.0333,0.084 0.12377,0.1468 0.20412,0.1411 0.0946,-0.01 0.14807,0.041 0.15503,0.1395 0.006,0.082 0.0546,0.146 0.10852,0.1422 0.054,0 0.1802,0.089 0.28009,0.2061 0.3234,0.3783 0.8473,0.2264 1.45934,-0.4232 l 0.31006,-0.3292 0.33848,0.1359 c 0.32784,0.1317 0.33721,0.1442 0.29094,0.3871 -0.0263,0.138 -0.1518,1.4925 -0.27905,3.0096 -0.12724,1.5171 -0.24055,2.7697 -0.25167,2.7838 -0.0111,0.014 -1.08371,0.4212 -2.38383,0.9054 -2.31425,0.8618 -2.37603,0.8806 -2.93212,0.8744 -0.31239,0 -0.64046,-0.017 -0.72916,-0.028 -0.0918,-0.013 -0.26982,0.063 -0.41238,0.1757 -0.14675,0.1156 -0.28017,0.1716 -0.32194,0.1354 -0.0545,-0.047 -1.0177,0.6424 -1.21595,0.8707 -0.0158,0.019 0.0662,0.2274 0.18242,0.4641 0.13752,0.2801 0.20459,0.5174 0.19224,0.6811 -0.0148,0.1952 0.0191,0.2763 0.14883,0.3607 0.12991,0.084 0.19657,0.2479 0.29972,0.7301 0.10753,0.5024 0.14321,0.5861 0.18655,0.4377 0.0742,-0.2539 0.042,-0.932 -0.0667,-1.3963 -0.0974,-0.4163 -0.0222,-0.5278 0.14676,-0.217 0.0557,0.1023 0.16141,0.1763 0.2434,0.1705 0.20085,-0.014 0.24349,0.13 0.11989,0.4047 -0.16773,0.3727 -0.0574,1.5687 0.1788,1.9409 0.36654,0.5776 0.64933,0.7345 1.75854,0.9746 0.55874,0.1208 1.09135,0.2143 1.1834,0.2078 0.22028,-0.015 0.39474,-0.3302 0.31625,-0.57 -0.0528,-0.1612 -0.17894,-0.2131 -1.02887,-0.4238 -1.07608,-0.267 -1.05896,-0.2602 -1.31155,-0.5451 -0.55686,-0.6282 -0.41184,-1.5184 0.31884,-1.9586 0.43396,-0.2613 1.38449,-0.2659 2.44275,-0.012 0.77146,0.1853 0.78822,0.1939 0.75551,0.3892 -0.1152,0.6876 -0.14672,0.7825 -0.25218,0.7503 -0.0793,-0.024 -0.134,0.086 -0.19947,0.402 -0.33989,1.6423 -0.52083,2.2714 -0.67645,2.3544 -0.0882,0.047 -0.15725,0.1363 -0.15348,0.1985 0.0162,0.2675 -0.082,0.3136 -0.47594,0.2232 -0.20734,-0.048 -0.78028,-0.097 -1.27331,-0.1096 -5.61046,-0.1443 -9.89854,5.0665 -8.66303,10.5271 0.94511,4.1771 4.78731,7.0347 9.05629,6.7349 1.68522,-0.1189 3.2923,-0.7136 4.59404,-1.7017 2.36855,-1.7977 3.63623,-4.5271 3.43803,-7.4021 -0.0546,-0.7851 -0.0478,-0.8584 0.0718,-0.8134 0.19989,0.075 1.5181,0.01 1.51205,-0.079 -0.0118,-0.1673 0.72308,-0.1189 1.43402,0.094 l 0.72916,0.2181 0.0465,0.6108 c 0.0531,0.7039 0.21021,1.022 0.7121,1.4423 0.51438,0.4308 0.8455,0.5026 2.16162,0.4666 0.74739,-0.021 1.19004,-0.072 1.24644,-0.017 0.0481,0.045 0.18019,0.3503 0.28887,0.5906 0.60644,1.3406 2.04701,2.9025 3.40341,3.6902 0.64142,0.3724 1.58191,0.7578 2.26911,0.9297 1.28339,0.321 2.9863,0.3239 4.2323,0.01 4.09266,-1.041 6.84095,-4.8277 6.54534,-9.018 -0.30142,-4.2726 -3.68951,-7.662 -8.00158,-8.0042 -0.91668,-0.073 -1.57853,-0.024 -2.50424,0.1855 -1.10624,0.2468 -2.24982,0.7462 -3.12487,1.3643 -0.33641,0.2377 -0.43371,0.2773 -0.4868,0.1969 -0.0366,-0.056 -0.43491,-0.5215 -0.88521,-1.0356 l -0.81856,-0.9349 0.49506,-1.9249 c 0.47794,-1.8575 0.62387,-2.2917 0.7736,-2.3022 0.18354,-0.013 0.90274,-0.3971 1.09864,-0.587 0.26251,-0.2546 0.45768,-0.7414 0.43563,-1.0863 -0.0127,-0.2044 -0.0546,-0.261 -0.22737,-0.3126 -0.21039,-0.063 -0.21069,-0.065 -0.22841,-0.6899 -0.0219,-0.7733 -0.2525,-1.4287 -0.71986,-2.0479 -0.49049,-0.6498 -1.26202,-1.2131 -1.91616,-1.3989 -0.19203,-0.054 -0.32697,-0.3433 -0.601,-0.6806 -1.7671,-2.1759 -3.99472,-3.657 -5.92367,-4.1408 -1.0753,-0.2698 -2.44672,-0.1922 -3.30005,0.1333 -0.32919,0.1255 -0.38762,0.1259 -0.75499,0.017 -0.42236,-0.1249 -0.57033,-0.1926 -0.66611,-0.4175 0.005,0 0.009,-0.01 0.014,-0.015 0.11662,-0.1107 0.23143,-0.2012 0.43563,-0.2036 0.33271,0 0.55757,-0.1866 0.69608,-0.4144 l 0.0806,-0.1323 0.091,0.087 c 0.22335,0.2142 0.39694,0.3072 0.64234,0.3436 0.27752,0.039 0.6534,-0.015 0.80873,-0.1245 0.0917,-0.063 0.11098,-0.061 0.21343,-0.01 0.39889,0.2362 0.88738,0.3536 1.12964,0.2718 0.11746,-0.041 0.13988,-0.037 0.26614,0.037 0.0757,0.044 0.20441,0.091 0.28577,0.1028 0.16181,0.029 0.78041,-0.063 1.03146,-0.1483 0.0871,-0.03 0.23554,-0.043 0.32866,-0.032 0.0929,0.016 0.14958,0.013 0.12557,-0.011 -0.0242,-0.015 -0.041,-0.042 -0.0382,-0.061 0.007,-0.052 0.19858,-0.012 0.30438,0.066 0.10921,0.082 0.12089,0.073 0.0444,-0.033 l -10e-4,0.019 c -0.11497,-0.1565 -0.32418,-0.2541 -0.65113,-0.3059 -0.25806,-0.045 -0.30247,-0.054 -0.23564,-0.08 0.0462,-0.02 0.24609,-2e-4 0.46457,0.025 l 0.38344,0.055 -0.14211,-0.088 c -0.0779,-0.048 -0.24764,-0.1226 -0.37724,-0.1659 -0.31381,-0.1052 -0.50488,-0.088 -0.94671,0.1018 -0.54232,0.229 -0.55289,0.2299 -0.66508,0.08 -0.14886,-0.2021 -0.43143,-0.316 -0.78031,-0.3147 -0.15439,0.012 -0.35753,0.019 -0.4501,0.045 -0.16823,0.045 -0.16811,0.045 -0.29921,-0.062 -0.36958,-0.3071 -1.14629,-0.4421 -1.51877,-0.2671 -0.11186,0.053 -0.19217,0.062 -0.36432,0.034 -0.48047,-0.074 -1.00523,0.2852 -1.002,0.6883 4.4e-4,0.026 -3.4e-4,0.049 -0.002,0.07 -0.0619,-0.2285 -0.15062,-0.4582 -0.21446,-0.5421 -0.12411,-0.1631 -0.1274,-0.2442 -0.0434,-1.1079 0.0498,-0.5123 0.0878,-0.9728 0.0842,-1.0238 -0.003,-0.037 -0.11943,-0.051 -0.30438,-0.045 z m -0.0811,0.7079 -0.0295,0.3023 c -0.0462,0.4742 -0.0718,0.542 -0.24339,0.6403 -0.20508,0.1174 -0.49507,0.1476 -0.50178,0.053 -0.003,-0.04 0.0797,-0.1375 0.18345,-0.2165 0.10379,-0.079 0.27949,-0.2863 0.39016,-0.461 z m -1.80506,0.4848 v 5e-4 c 0.0146,0 2e-5,0.024 -0.0388,0.078 -0.0499,0.071 -0.074,0.2125 -0.0532,0.3152 0.0317,0.1564 -0.026,0.2341 -0.3545,0.4775 -0.21597,0.1599 -0.40176,0.2927 -0.4129,0.2946 -0.0113,8e-4 0.0311,-0.093 0.0946,-0.2114 0.23655,-0.4407 0.43857,-0.7187 0.62477,-0.8594 0.0812,-0.061 0.12552,-0.092 0.14004,-0.095 z m -1.40353,0.7586 v 5e-4 c 0.0359,0 0.0353,0.037 -10e-4,0.09 -0.0368,0.054 -0.11807,0.2712 -0.18035,0.4821 -0.12717,0.431 -0.44318,0.843 -0.49713,0.6481 -0.0174,-0.063 0.004,-0.1944 0.0465,-0.2925 l 5.1e-4,-5e-4 c 0.12181,-0.2766 0.55887,-0.9189 0.63149,-0.9276 z m -0.73794,0.052 c 0.0593,0 -0.13961,0.6128 -0.30541,0.9477 -0.0922,0.1861 -0.16006,0.4535 -0.15141,0.5938 0.0137,0.2184 0.003,0.2364 -0.0744,0.123 -0.0496,-0.073 -0.0767,-0.2396 -0.06,-0.37 0.0275,-0.2151 0.51801,-1.2893 0.59118,-1.2945 z m 3.9703,0.156 c 0.0915,0 0.13327,0.063 0.20309,0.2279 0.1671,0.3949 0.18418,0.8664 0.0351,0.9679 -0.17235,0.1173 -0.1772,0.114 -0.0982,-0.062 0.0796,-0.1779 0.044,-0.188 -0.17725,-0.051 l -0.15813,0.097 0.13746,-0.1824 0.13746,-0.1819 -0.21807,0.069 -0.21859,0.07 0.13591,-0.1773 0.13539,-0.1772 -0.16898,0.055 c -0.1402,0.046 -0.15529,0.035 -0.0884,-0.056 0.0659,-0.092 0.0477,-0.1106 -0.0971,-0.1024 -0.17205,0.012 -0.17331,0 -0.0398,-0.1095 0.13287,-0.1161 0.13106,-0.12 -0.0455,-0.108 l -0.18242,0.013 0.19586,-0.1204 c 0.1076,-0.067 0.28827,-0.1378 0.40152,-0.1592 0.0441,-0.012 0.0803,-0.014 0.11111,-0.01 z m -1.25832,0.1675 c 0.0146,0 0.0197,-10e-5 0.0145,0.014 -0.0843,0.1607 -0.50443,0.3513 -1.00614,0.4573 -0.59355,0.1254 -0.9127,0.2976 -1.31413,0.708 -0.44424,0.4541 -0.3984,0.3369 0.0579,-0.1478 0.428,-0.4547 0.72461,-0.6097 1.23869,-0.648 0.16445,-0.012 0.47112,-0.1177 0.68161,-0.2341 0.15783,-0.088 0.28372,-0.144 0.32763,-0.1488 z m 0.41703,0.3307 c 0.0615,0 0.12256,0.029 0.18965,0.087 0.19907,0.173 0.25608,0.713 0.1111,1.0495 -0.12116,0.2813 -0.18655,0.3039 -0.10593,0.036 h -5.2e-4 c 0.0909,-0.3015 0.0314,-0.829 -0.10438,-0.9265 -0.0953,-0.069 -0.15224,-0.059 -0.29404,0.05 -0.24226,0.1843 -0.30486,0.1734 -0.14883,-0.025 0.14383,-0.1834 0.24995,-0.2697 0.35295,-0.2708 z m -1.75442,0.4516 c 0.0977,-0.01 1.43762,0.9511 1.44333,1.032 0.007,0.1 -0.0644,0.06 -0.84026,-0.4625 -0.59113,-0.3985 -0.76067,-0.5584 -0.60307,-0.5695 z m 3.14038,0.493 v 0 c 0.075,0 0.16287,0.033 0.32815,0.099 l 0.34416,0.1379 -0.13488,0.3359 c -0.15509,0.3863 -0.21028,0.4302 -0.16433,0.1313 l 5.2e-4,-5e-4 0.032,-0.2088 -0.13229,0.1783 c -0.17197,0.2322 -0.20459,0.228 -0.17622,-0.025 l 0.0233,-0.2083 -0.1602,0.1618 -0.16123,0.1612 0.0822,-0.186 c 0.0707,-0.1612 0.0666,-0.1788 -0.032,-0.1328 -0.0764,0.036 -0.10352,0.019 -0.0822,-0.052 0.0184,-0.061 -0.0274,-0.113 -0.10697,-0.1241 -0.11068,-0.015 -0.0919,-0.048 0.093,-0.1633 0.111,-0.07 0.17231,-0.1046 0.24701,-0.1054 z m 3.12229,0.087 c 0.47422,0.01 0.94074,0.068 1.43867,0.1685 v 0 c 1.14141,0.3024 2.44114,0.9905 3.43287,1.7756 1.15784,0.9167 1.88898,1.5447 2.27428,2.0619 l 0.49247,0.5472 c 0.12309,0.1653 -1.18855,0.7935 -1.4919,0.664 -0.1541,-0.066 -0.30526,-0.1347 -0.45836,-0.2015 0,0 0.19838,-2.6523 -0.27544,-1.448 -0.20949,0.5325 -0.42891,1.1369 -0.42891,1.1369 -0.20303,-0.092 -0.40266,-0.1879 -0.60307,-0.2827 0,0 0.75806,-2.6711 -5.2e-4,-1.6469 -0.34367,0.4641 -0.69349,1.3131 -0.69349,1.3131 -0.21948,-0.1091 -0.43707,-0.2198 -0.65216,-0.3328 0,0 1.07651,-2.7657 0.14624,-1.5549 -0.34445,0.4484 -0.80046,1.202 -0.80046,1.202 -0.16171,-0.09 -0.32163,-0.1815 -0.48008,-0.2744 0,0 0.39844,-0.9451 0.44649,-1.5994 0.0825,-1.1236 -1.156,1.1653 -1.156,1.1653 -0.20968,-0.133 -0.41632,-0.2686 -0.61857,-0.4072 0,0 0.80389,-1.5182 0.34365,-1.34 -0.4952,0.1918 -0.97876,0.8842 -0.97876,0.8842 -0.16419,-0.1233 -0.32478,-0.2493 -0.48265,-0.3772 0,0 0.43967,-0.922 0.25269,-1.0372 -0.18698,-0.1151 -0.67282,0.6837 -0.67282,0.6837 -0.22688,-0.1978 -0.62017,-0.2121 -0.83096,-0.4217 l -0.30127,0.1819 0.0403,-0.1772 c 0.0591,-0.2602 0.0933,-0.3837 0.57361,-0.5091 0.52797,-0.1316 1.00993,-0.1842 1.48415,-0.1788 z m -4.59403,0.692 0.0382,0.4181 c 0.0214,0.2298 0.0312,0.6856 0.0233,1.0128 l -0.0145,0.5943 -0.0672,-0.646 c -0.037,-0.3554 -0.0474,-0.8113 -0.0233,-1.0128 h -5.2e-4 z m 2.80551,3.7905 c 0.14769,-0.018 0.70228,0.1954 0.70021,0.1917 h -5.1e-4 l 0.18345,0.044 c 0.30482,0.072 0.52883,0.1439 0.53072,0.1706 9.7e-4,0.014 -0.18845,0.6283 -0.42065,1.3652 -0.23221,0.7368 -0.53813,1.7113 -0.67955,2.1653 -0.14141,0.4542 -0.27218,0.8271 -0.29093,0.8284 -0.0188,0 -0.16303,-0.043 -0.3204,-0.099 h -5.1e-4 l -0.28629,-0.1012 c -0.10258,-0.1342 0.32796,-0.071 0.42685,-0.3509 0.0582,-0.165 -0.60111,-0.3766 -0.54106,-0.601 0.0575,-0.2149 0.63161,0.1541 0.71986,-0.09 0.0287,-0.079 -0.6011,-0.5993 -0.57413,-0.6842 0.0432,-0.1362 0.74538,0.087 0.7984,-0.048 0.0604,-0.1567 -0.73958,-0.5468 -0.69246,-0.7152 0.0612,-0.2187 0.81447,0.021 0.91364,-0.1736 0.0727,-0.1422 -0.8248,-0.7964 -0.72864,-0.9369 0.0585,-0.085 0.84926,0.2329 0.98547,0.064 0.13653,-0.1689 -0.6173,-0.7583 -0.74879,-0.9716 -0.0211,-0.034 -0.009,-0.051 0.0253,-0.055 z m 1.32395,2.143 -5.2e-4,0.01 h 0.062 c 0.10333,0.018 1.11901,0.3268 2.25723,0.6863 l 2.06964,0.6542 -0.20515,0.1835 c -0.11283,0.101 -0.74626,0.6592 -1.40767,1.2407 -1.09298,0.9609 -2.25003,2.0399 -2.96726,2.7678 l -0.27389,0.278 0.0739,0.8816 0.0734,0.8822 -2.12132,0.1498 -2.12131,0.1494 0.0589,-0.1969 c 0.0829,-0.2749 0.0713,-0.3153 -0.0992,-0.3473 -0.14874,-0.028 -0.14896,-0.031 -0.0289,-0.4878 0.0944,-0.3617 0.15892,-0.4728 0.30127,-0.5194 0.34156,-0.1118 0.5308,-0.4387 0.37569,-0.6485 -0.0954,-0.1291 -2.07376,-0.5298 -3.02565,-0.6129 l -0.83148,-0.073 0.44494,-0.087 c 0.24455,-0.048 0.9702,-0.1764 1.61282,-0.2857 1.94065,-0.3302 3.23334,-0.6923 4.04368,-1.1328 l 0.46095,-0.2506 0.56121,-1.632 c 0.47318,-1.3767 0.55288,-1.5931 0.68678,-1.6045 z m 6.29677,2.4164 c 0.0632,0 0.1423,0.013 0.22324,0.035 l 0.29404,0.077 -0.19998,0.09 c -0.47399,0.2555 0.64817,0.7288 0.50901,0.9845 -0.12137,0.2229 -1.03852,-0.02 -0.98909,0.1757 0.0889,0.3513 0.79089,0.7871 0.77722,0.911 -0.0472,0.4279 -1.17641,-0.1873 -1.18288,-0.074 -0.0237,0.4132 0.78195,0.747 0.83354,0.8258 0.21038,0.3213 -1.26876,-0.012 -1.24695,0.043 0.1425,0.3621 0.62008,0.8092 0.64699,0.8728 0.18476,0.4363 -0.99872,-0.063 -1.10588,-0.048 -0.40159,0.057 0.52203,0.8848 0.55552,0.9927 0.10792,0.3475 -1.15728,-0.2666 -1.05006,0.033 0.0864,0.2416 0.75654,0.5897 0.79013,0.6315 0.24008,0.2985 -1.02097,-0.021 -1.06918,0 -0.32287,0.1089 0.43141,0.6496 0.40514,0.6718 -0.0932,0.079 -0.65154,-0.1757 -0.67283,-0.1623 -0.11763,0.074 0.0258,0.528 0.11989,0.6822 l -0.30799,-0.1401 c -0.16935,-0.077 -0.30079,-0.1597 -0.29249,-0.1834 l -5.1e-4,-0.01 c 0.0646,-0.1853 2.79774,-6.33 2.8391,-6.383 0.0147,-0.018 0.061,-0.027 0.12402,-0.025 z m -16.89819,2.3972 c 0.0387,0 0.0274,0.059 -0.0382,0.1819 -0.0577,0.1087 -0.10458,0.1344 -0.1447,0.079 -0.0326,-0.046 -0.006,-0.1282 0.0594,-0.1834 0.059,-0.049 0.10025,-0.076 0.12351,-0.077 z m 19.27066,1.4149 c 0.0126,0.012 -0.005,0.1379 -0.0403,0.2806 -0.035,0.1435 -0.0738,0.3036 -0.0858,0.3561 -0.0121,0.052 -0.12579,0.1026 -0.2527,0.1116 l -0.23048,0.017 0.29249,-0.3928 c 0.1611,-0.2161 0.30391,-0.3838 0.31678,-0.3726 z m -4.66432,0.09 v 5e-4 c 0.0152,0.013 -0.0755,0.2414 -0.20154,0.5074 l -0.22892,0.4832 -0.39894,0.028 c -0.39839,0.028 -0.39819,0.028 -0.46768,-0.2377 -0.0382,-0.1461 -0.0597,-0.2749 -0.0475,-0.2858 0.0577,-0.051 1.32043,-0.5165 1.34462,-0.4955 z m 3.98581,1.4309 v 0 c 0.16475,0 0.28166,0.01 0.28318,0.03 0.0107,0.1516 -0.85337,3.3748 -0.89297,3.331 -0.0254,-0.029 -0.15944,-0.2626 -0.29765,-0.5214 v -5e-4 c -0.13833,-0.2588 -0.42151,-0.6947 -0.6289,-0.9694 l -0.37724,-0.4997 0.63872,-0.6646 0.63924,-0.6646 0.45733,-0.032 z m -4.8426,0.3483 c 0.0676,0 0.1164,0.019 0.11782,0.037 0.004,0.062 -0.26611,0.9451 -0.29042,0.9482 -0.0103,7e-4 -0.0338,-0.2165 -0.0527,-0.4837 -0.0331,-0.4685 -0.0274,-0.4865 0.15244,-0.4992 v 6e-4 c 0.0257,0 0.0503,0 0.0729,0 z m -3.3352,0.233 0.10439,0.3871 c 0.0572,0.2128 0.17911,0.6692 0.27078,1.0139 0.14998,0.5641 1.04788,3.4514 1.17151,3.7672 0.0275,0.07 0.0343,0.1289 0.016,0.1302 -0.019,0 -0.9839,-0.8685 -2.14458,-1.9332 h -5.1e-4 c -1.16067,-1.0647 -2.39784,-2.1943 -2.74919,-2.5104 l -0.63924,-0.5747 1.98541,-0.14 z m 9.07645,0.5814 c 0.0265,0.01 0.37632,0.3957 0.77721,0.862 l 0.72864,0.8475 -0.69763,0.803 c -0.38395,0.4417 -0.83345,1.0403 -0.99839,1.3307 -0.16495,0.2903 -0.31868,0.5293 -0.34158,0.5312 -0.0229,0 -0.12122,-0.1952 -0.21859,-0.4377 l -0.17674,-0.4408 0.43925,-1.7549 c 0.24182,-0.9651 0.46135,-1.7488 0.48783,-1.741 z m -13.67152,0.043 h 5.2e-4 c 0.0298,7e-4 0.59211,0.4911 1.25057,1.095 4.84552,4.4438 5.244,4.8237 5.25704,5.0085 0.0229,0.325 -0.64814,0.8608 -1.29914,1.0377 -0.6118,0.1662 -0.59778,0.1734 -0.82941,-0.4067 -0.79262,-1.9847 -2.41629,-3.7282 -4.28656,-4.6023 l -0.40101,-0.1876 0.0915,-0.2858 c 0.067,-0.2089 0.0682,-0.3233 0.004,-0.4258 -0.066,-0.1048 -0.0568,-0.2764 0.0362,-0.6842 0.068,-0.2987 0.14691,-0.5454 0.17621,-0.5488 z m 21.57078,0.3524 v 0 c 0.27242,0.01 0.47595,0.033 0.74052,0.085 3.15506,0.6221 5.5189,2.8302 6.30039,5.8855 0.15347,0.6 0.24932,1.9572 0.18707,2.6504 -0.12517,1.3939 -0.79114,3.0163 -1.69602,4.1316 -0.58235,0.7178 -1.34731,1.3646 -2.19315,1.8552 -1.03122,0.5979 -1.82886,0.861 -3.28662,1.0831 -0.067,0.013 -0.4657,0.01 -0.88522,-0.01 -1.40293,-0.045 -2.85151,-0.4862 -4.00337,-1.2206 -1.06764,-0.6805 -2.14558,-1.8336 -2.70836,-2.8975 -0.19071,-0.3605 -0.20314,-0.4165 -0.10129,-0.4641 0.0636,-0.03 0.12362,-0.045 0.13333,-0.035 0.01,0.011 0.19564,0.3137 0.41341,0.6738 1.85807,3.0715 5.67245,4.4259 9.05629,3.2153 3.43527,-1.2291 5.56204,-4.8833 4.90151,-8.4222 -0.49052,-2.6281 -2.18495,-4.7088 -4.65139,-5.7108 -1.22971,-0.4997 -1.82456,-0.5849 -3.33933,-0.478 -1.09537,0.077 -1.35683,0.1192 -1.89394,0.3075 -0.64634,0.2259 -1.89439,0.886 -2.12029,1.1214 -0.11185,0.1166 -0.13984,0.1205 -0.20619,0.03 -0.11658,-0.1585 -0.11202,-0.1651 0.29921,-0.4558 0.52419,-0.3705 1.29565,-0.7521 2.02262,-1.0005 0.51086,-0.1744 0.80824,-0.2217 1.87792,-0.2971 0.53968,-0.038 0.88066,-0.053 1.1529,-0.051 z m -13.82603,0.538 c 0.0361,0 0.13795,0.1644 0.39842,0.6015 0.52729,0.8851 1.39236,2.0083 2.43086,3.1564 l 0.786,0.8681 -0.2005,0.7809 -0.20051,0.7803 -0.4346,0.086 c -0.23895,0.047 -0.58187,0.1768 -0.76222,0.2873 -0.18034,0.1107 -0.34413,0.2067 -0.36432,0.2134 -0.0199,0.01 -0.21666,-0.1656 -0.43667,-0.3834 v -5e-4 c -0.32992,-0.3266 -0.45227,-0.5243 -0.6966,-1.1286 -0.27056,-0.6693 -0.43979,-1.2821 -0.57309,-2.0743 -0.0275,-0.1633 -0.0252,-0.8397 0.005,-1.5028 0.0301,-0.6633 0.0464,-1.3407 0.0362,-1.5053 -0.007,-0.1093 -0.01,-0.1756 0.0119,-0.1793 z m 13.0762,0.062 c 0.0824,0 0.16465,0 0.24702,0 v 5e-4 c 0.1883,0 0.3763,0.015 0.56379,0.034 2.85389,0.2949 5.12048,2.0442 6.15621,4.7516 0.22881,0.5981 0.26043,0.7712 0.34468,1.8914 0.10136,1.3467 0.0665,1.6804 -0.29714,2.8282 -0.65094,2.0546 -2.47124,3.894 -4.52065,4.5677 -0.85748,0.282 -0.85943,0.2825 -2.02985,0.3401 -0.82913,0.04 -1.22912,0.024 -1.69292,-0.068 v 5e-4 c -2.02132,-0.4036 -3.76217,-1.6148 -4.82348,-3.3559 -0.2091,-0.3429 -0.38172,-0.6439 -0.38344,-0.6682 -0.006,-0.085 0.43026,-0.074 0.70383,0.018 0.34482,0.1162 0.3573,0.1146 0.34675,-0.035 -0.008,-0.1128 0.19832,-0.1331 2.47427,-0.2434 2.37626,-0.1154 2.48858,-0.1139 2.61741,0.024 0.11335,0.1214 0.15926,0.1282 0.29146,0.045 0.13604,-0.086 0.15248,-0.1623 0.1235,-0.5731 -0.0448,-0.6351 0.0199,-0.6914 0.81649,-0.7141 0.94775,-0.027 1.03636,-0.142 0.7829,-1.0176 -0.0828,-0.2859 -0.16918,-0.4128 -0.37156,-0.5457 -0.14514,-0.095 -0.29124,-0.2658 -0.32452,-0.3787 -0.0962,-0.3266 -0.46681,-0.5851 -0.86352,-0.6016 l -0.34416,-0.014 -2.05724,-2.3668 c -1.7545,-2.0182 -2.04286,-2.3825 -1.95957,-2.4758 0.0537,-0.06 0.32486,-0.2427 0.60255,-0.4062 1.12488,-0.6625 2.36116,-1.0168 3.59719,-1.0371 z m -24.00112,1.1524 v 0 c 0.56366,0 0.9834,0.05 1.14929,0.1375 0.057,0.03 0.0887,0.1041 0.0703,0.1643 -0.0286,0.094 -0.13102,0.096 -0.70435,0.021 -0.85215,-0.1124 -2.22887,-0.024 -3.0024,0.1917 -3.25952,0.9128 -5.54324,3.835 -5.58881,7.15 -0.0251,1.8295 0.58984,3.6047 1.72496,4.978 0.50035,0.6053 1.5853,1.4876 2.28048,1.8546 2.28361,1.2053 5.00905,1.1777 7.25331,-0.073 1.97786,-1.1022 3.41213,-3.1196 3.78943,-5.3304 0.54583,-3.1981 -1.07538,-6.4805 -3.93206,-7.9608 -0.31281,-0.1619 -0.44169,-0.2709 -0.43047,-0.3638 0.009,-0.073 0.0389,-0.1345 0.0667,-0.1364 0.19328,-0.014 1.42148,0.7823 2.02416,1.3115 1.10387,0.9693 1.82611,2.0684 2.32079,3.5331 0.18802,0.5567 0.23271,0.83 0.29766,1.8144 0.0652,0.9982 0.057,1.2621 -0.0651,1.8986 -0.17271,0.9003 -0.53453,1.8616 -0.99013,2.6314 -0.40253,0.6802 -1.3152,1.724 -1.91667,2.1921 -0.96464,0.7508 -2.29253,1.3411 -3.45974,1.5379 -0.34703,0.059 -0.66463,0.1117 -0.70538,0.1198 -0.0405,0.012 -0.40361,0.01 -0.80616,-0.01 v 5e-4 c -2.39234,-0.063 -4.50226,-1.0875 -6.01513,-2.9197 -0.48751,-0.5904 -1.07527,-1.6496 -1.34359,-2.421 -0.19057,-0.5479 -0.22775,-0.7902 -0.31058,-2.0061 -0.0872,-1.2857 -0.0836,-1.432 0.0615,-2.0707 0.63162,-2.7807 2.52403,-4.9305 5.15937,-5.8616 0.65309,-0.2307 0.85718,-0.2675 1.9265,-0.3452 0.41814,-0.029 0.808,-0.043 1.14618,-0.041 z m 18.93115,0.2769 c 0.0215,0 0.0398,0.01 0.0568,0.024 0.0679,0.059 -0.0555,0.2491 -0.48731,0.7488 -0.61876,0.716 -1.22104,1.6681 -1.40353,2.2195 -0.12617,0.3812 -0.1816,0.4191 -0.26251,0.1804 -0.13817,-0.4078 0.93501,-2.1972 1.7818,-2.9709 0.15723,-0.1436 0.24975,-0.2047 0.31471,-0.2015 z m -19.07067,0.3189 v 5e-4 c 0.28025,0 0.53042,0.023 0.72295,0.06 0.2701,0.053 0.50456,0.1078 0.5209,0.122 0.0448,0.039 -0.45173,2.4715 -0.709,3.4732 -0.29725,1.1574 -0.89648,2.861 -1.04335,2.9662 -0.28077,0.2011 -0.38355,0.3435 -0.41083,0.569 -0.0235,0.1947 0.0105,0.2757 0.17622,0.4196 0.38397,0.3334 0.95771,0.097 0.92398,-0.3814 -0.008,-0.1166 0.11848,-0.4595 0.28938,-0.7829 0.56437,-1.0676 1.12024,-2.4439 1.58544,-3.9243 0.2545,-0.81 0.47848,-1.561 0.49764,-1.6692 0.0192,-0.1081 0.0597,-0.1978 0.0899,-0.1999 0.15186,-0.011 1.12489,0.6051 1.64382,1.0402 2.30381,1.9317 3.16941,4.9862 2.22157,7.8398 -0.73364,2.2088 -2.59532,3.9861 -4.8612,4.6406 -0.79869,0.2307 -2.11504,0.3366 -2.88923,0.233 l -5.1e-4,-5e-4 c -1.52657,-0.2046 -2.73223,-0.7537 -3.90571,-1.7797 -1.57793,-1.3797 -2.39877,-3.1272 -2.44533,-5.2043 -0.0256,-1.1384 0.11095,-1.9008 0.52142,-2.9074 0.82231,-2.0164 2.39436,-3.483 4.47518,-4.1765 0.64399,-0.2146 1.75607,-0.3482 2.59674,-0.3379 z m 19.42465,0.1447 v 5e-4 c 0.0391,0 0.61898,0.6367 1.28881,1.4211 0.66984,0.7843 1.56051,1.8231 1.97921,2.3089 l 0.76119,0.8831 -0.28732,-0.024 c -0.15812,-0.013 -1.15092,-0.047 -2.20658,-0.076 -1.05564,-0.028 -2.03342,-0.064 -2.17248,-0.078 -0.24039,-0.024 -0.75808,-0.4345 -1.29501,-1.0263 l -0.17415,-0.1917 0.25993,-0.6331 c 0.14297,-0.3481 0.41052,-0.8631 0.5948,-1.1446 0.35094,-0.536 1.12941,-1.4316 1.2516,-1.4402 z m -4.08192,3.4282 0.19585,0.1705 c 0.16451,0.1428 0.19066,0.2141 0.16382,0.4465 -0.0302,0.2611 -0.0476,0.278 -0.31729,0.2971 l -0.28629,0.02 0.12195,-0.4672 z m -0.15451,1.0485 v 0 h 0.17208 c 0.22048,0.01 0.26578,0.042 0.27647,0.1937 0.0135,0.1915 -0.0598,0.1827 -0.39739,-0.047 v 5e-4 c -0.14861,-0.1009 -0.17345,-0.1408 -0.0512,-0.1488 z m 3.86333,0.1328 c 0.11434,-0.01 3.71931,0.1031 4.11034,0.1266 l 0.34727,0.021 -0.12041,0.2847 -0.1204,0.2843 -1.43196,0.1829 c -0.78767,0.1008 -1.53654,0.1957 -1.66398,0.2114 -0.2065,0.025 -0.2296,0.01 -0.21032,-0.1525 0.0317,-0.2665 -0.12024,-0.4557 -0.57671,-0.7183 -0.22413,-0.1291 -0.37439,-0.237 -0.33383,-0.2398 z m -2.57711,0.015 c 0.097,0 0.23566,0.3106 0.21653,0.5266 -0.0129,0.1455 -0.0123,0.4242 10e-4,0.6196 0.0212,0.3125 0.005,0.3565 -0.13539,0.3664 -0.1559,0.011 -0.15963,-0.01 -0.15761,-0.7209 10e-4,-0.4027 0.0175,-0.7505 0.0367,-0.7726 0.0116,-0.013 0.0249,-0.019 0.0387,-0.019 z m -2.77089,0.309 c 0.0707,0 0.0804,0.092 0.10439,0.4315 l 0.0331,0.4692 -0.3607,-0.3069 c -0.3569,-0.3041 -0.35858,-0.3081 -0.1974,-0.4057 0.0895,-0.054 0.23661,-0.1271 0.32711,-0.1622 0.0397,-0.015 0.0701,-0.026 0.0935,-0.026 z m 1.22525,0.1065 0.19792,0.1597 c 0.2524,0.2043 0.54297,0.6824 0.50023,0.8226 -0.0492,0.1615 -0.70234,0.1911 -0.83199,0.038 v -5e-4 c -0.0818,-0.097 -0.0787,-0.2051 0.0165,-0.5695 z m -2.76469,0.2041 c 0.0847,-0.01 0.13624,0.086 0.0682,0.2377 -0.0578,0.1293 -0.35415,0.2274 -0.36174,0.1199 -0.002,-0.024 0.0537,-0.1282 0.12299,-0.2305 0.0568,-0.084 0.11972,-0.1232 0.17053,-0.1271 z m 13.13047,0.2615 c 0.0276,0 0.061,0.023 0.10955,0.061 0.0767,0.06 0.2069,0.2537 0.28887,0.4299 0.11772,0.2533 0.13412,0.361 0.078,0.5116 -0.0658,0.1763 -0.11017,0.1931 -0.59582,0.2274 l -0.52504,0.037 -0.0181,-0.2574 c -0.0145,-0.2056 0.0241,-0.2871 0.19223,-0.4031 0.11578,-0.08 0.26234,-0.2596 0.32556,-0.3999 0.0663,-0.1471 0.0986,-0.2065 0.1447,-0.2062 z m -1.88361,0.2119 0.13849,0.2154 c 0.083,0.1289 0.25003,0.2471 0.41548,0.2941 0.39717,0.1127 0.40636,0.3962 0.0238,0.7508 -0.25079,0.2324 -0.27972,0.2975 -0.25941,0.5855 l 0.0222,0.3241 -1.85002,0.078 c -1.01925,0.043 -2.79999,0.1261 -2.4629,0.1261 l -0.61236,0.052 0.11885,-0.342 c 0.14741,-0.4241 0.15154,-0.3965 -0.078,-0.4657 -0.10554,-0.032 -0.19371,-0.089 -0.19637,-0.1266 -0.003,-0.037 0.17993,-0.2653 0.40566,-0.5059 l 0.41031,-0.4377 1.25522,-0.1777 c 0.69038,-0.098 1.57325,-0.2199 1.96216,-0.2713 z m -10.30376,1.0428 c 0.0335,0 0.0646,0 0.093,0.01 l -5.2e-4,-0.01 c 0.17005,0.01 0.26287,0.065 0.45217,0.2294 0.25238,0.2191 0.29103,0.2956 0.31367,0.6165 0.0308,0.4365 -0.0514,0.4685 -0.5581,0.2176 -0.33284,-0.1646 -0.74977,-0.658 -0.7674,-0.908 -0.007,-0.099 0.0654,-0.1299 0.35709,-0.1504 0.0401,0 0.0765,-0.01 0.11007,-0.01 z m 1.81281,0.1778 c 0.10819,0 0.23712,0.031 0.38757,0.082 0.26886,0.091 0.27712,0.1027 0.17932,0.2656 -0.13587,0.2264 -0.66019,0.6301 -0.83406,0.6424 -0.11657,0.01 -0.14252,-0.051 -0.16536,-0.3747 -0.0301,-0.4264 0.10792,-0.6271 0.43253,-0.6154 z m 0.94051,0.7906 v 0 c 0.0357,-0.011 0.065,0.047 0.12816,0.1886 0.18632,0.4198 0.17969,0.427 -0.40515,0.4682 l -0.50126,-0.01 0.2806,-0.1897 c 0.18007,-0.1214 0.36269,-0.2979 0.41755,-0.3751 0.0349,-0.049 0.0587,-0.079 0.0801,-0.085 z" /><path
       id="path40516"
       style="color:#000000;fill:#d40000;-inkscape-stroke:none"
       d="m -786.2963,2290.251 c 0.3749,0.4095 0.69946,0.8622 0.96015,1.3487 13.24008,4.4846 22.76398,17.01 22.76398,31.7691 0,18.5273 -15.00809,33.5375 -33.53542,33.5375 -18.52732,0 -33.53697,-15.0102 -33.53697,-33.5375 0,-15.5348 10.41679,-28.5728 24.74746,-32.3865 -0.15988,-0.1009 -0.1813,-0.2244 -0.33809,-0.3283 -0.25241,-0.1022 -0.48907,-0.2375 -0.709,-0.3953 -14.27837,4.238 -24.70031,17.46 -24.70031,33.1101 0,19.0677 15.46915,34.5375 34.53691,34.5375 19.06777,0 34.53536,-15.4698 34.53536,-34.5375 0,-15.6594 -10.43313,-28.888 -24.72407,-33.1178 z" /><path
       fill="none"
       stroke-width="0.087591"
       stroke-linecap="butt"
       stroke-linejoin="miter"
       stroke="#e51535"
       stroke-opacity="1"
       stroke-miterlimit="3.8637"
       d="m -795.89634,2333.4286 c -0.0362,0 -0.0723,0 -0.10851,0"
       id="path40518" /><path
       style="fill:#d40000;fill-opacity:1;stroke-width:3"
       d="m -807.02384,2322.2649 c 1.71464,-0.7311 22.40543,-1.9776 23.24952,-1.7441 0.84409,0.2336 -9.21769,1.135 -9.69847,1.1613 -0.77787,0.043 -13.83772,1.1395 -13.55105,0.5828 z"
       id="path40520" /><path
       style="fill:#d40000;fill-opacity:1;stroke-width:3"
       d="m -786.74139,2321.8864 c 0.18708,-0.3663 9.46733,-1.7483 9.81569,-1.864 0.34835,-0.1157 4.00358,-1.2484 4.15873,-1.233 0.15514,0.015 -2.77617,1.5985 -3.45085,1.7093 -0.67467,0.1108 -11.21594,2.1197 -10.52357,1.3877 z"
       id="path40522" /></g></svg>
