<?xml version="1.0" encoding="UTF-8" standalone="no"?>
<!-- Created with Inkscape (http://www.inkscape.org/) -->

<svg
   xmlns:dc="http://purl.org/dc/elements/1.1/"
   xmlns:cc="http://creativecommons.org/ns#"
   xmlns:rdf="http://www.w3.org/1999/02/22-rdf-syntax-ns#"
   xmlns:svg="http://www.w3.org/2000/svg"
   xmlns="http://www.w3.org/2000/svg"
   xmlns:sodipodi="http://sodipodi.sourceforge.net/DTD/sodipodi-0.dtd"
   xmlns:inkscape="http://www.inkscape.org/namespaces/inkscape"
   width="12.5in"
   height="8.375in"
   viewBox="0 0 1125 753.75002"
   id="svg4643"
   version="1.1"
   inkscape:version="0.91 r13725"
   sodipodi:docname="Laptop sticker.svg">
  <defs
     id="defs4645" />
  <sodipodi:namedview
     id="base"
     pagecolor="#ffffff"
     bordercolor="#666666"
     borderopacity="1.0"
     inkscape:pageopacity="0.0"
     inkscape:pageshadow="2"
     inkscape:zoom="1.1004444"
     inkscape:cx="562.5"
     inkscape:cy="384.67092"
     inkscape:document-units="px"
     inkscape:current-layer="layer2"
     showgrid="false"
     units="in"
     inkscape:window-width="1920"
     inkscape:window-height="1016"
     inkscape:window-x="0"
     inkscape:window-y="27"
     inkscape:window-maximized="1" />
  <metadata
     id="metadata4648">
    <rdf:RDF>
      <cc:Work
         rdf:about="">
        <dc:format>image/svg+xml</dc:format>
        <dc:type
           rdf:resource="http://purl.org/dc/dcmitype/StillImage" />
        <dc:title></dc:title>
      </cc:Work>
    </rdf:RDF>
  </metadata>
  <g
     inkscape:label="Laptop"
     inkscape:groupmode="layer"
     id="layer1"
     transform="translate(0,-298.61215)"
     style="display:inline">
    <circle
       style="color:#000000;clip-rule:nonzero;display:inline;overflow:visible;visibility:visible;opacity:1;isolation:auto;mix-blend-mode:normal;color-interpolation:sRGB;color-interpolation-filters:linearRGB;solid-color:#000000;solid-opacity:1;fill:#cccccc;fill-opacity:1;fill-rule:evenodd;stroke:none;stroke-width:1;stroke-linecap:butt;stroke-linejoin:round;stroke-miterlimit:10;stroke-dasharray:none;stroke-dashoffset:0;stroke-opacity:0.02808987;color-rendering:auto;image-rendering:auto;shape-rendering:auto;text-rendering:auto;enable-background:accumulate"
       id="path5199"
       cx="562.5"
       cy="675.48712"
       r="73.511955" />
    <flowRoot
       xml:space="preserve"
       id="flowRoot5201"
       style="font-style:normal;font-weight:normal;font-size:40px;line-height:100%;font-family:sans-serif;letter-spacing:-3.07999992px;word-spacing:0px;fill:#000000;fill-opacity:1;stroke:none;stroke-width:1px;stroke-linecap:butt;stroke-linejoin:miter;stroke-opacity:1"
       transform="matrix(0.86171371,0,0,0.86171371,28.680407,340.51847)"><flowRegion
         id="flowRegion5203"><rect
           id="rect5205"
           width="216.17264"
           height="68.690376"
           x="44.446712"
           y="38.561996"
           style="line-height:100%" /></flowRegion><flowPara
         id="flowPara5207">O Chrome</flowPara></flowRoot>    <rect
       style="color:#000000;clip-rule:nonzero;display:inline;overflow:visible;visibility:visible;opacity:1;isolation:auto;mix-blend-mode:normal;color-interpolation:sRGB;color-interpolation-filters:linearRGB;solid-color:#000000;solid-opacity:1;fill:none;fill-opacity:1;fill-rule:evenodd;stroke:#000000;stroke-width:1.00230145;stroke-linecap:butt;stroke-linejoin:round;stroke-miterlimit:10;stroke-dasharray:none;stroke-dashoffset:0;stroke-opacity:1;color-rendering:auto;image-rendering:auto;shape-rendering:auto;text-rendering:auto;enable-background:accumulate"
       id="rect5209"
       width="1121.8064"
       height="752.36731"
       x="2.6340604"
       y="299.48807"
       rx="15.897266"
       ry="16.022823" />
  </g>
  <g
     inkscape:groupmode="layer"
     id="layer2"
     inkscape:label="Comic">
    <g
       id="g4242">
      <path
         id="path4315-7"
         style="fill:#000000"
         d="m 720.1579,709.74062 c 1.2582,-2.3981 -2.45892,-9.88002 -4.67444,-9.40884 -2.19169,0.46612 -2.12115,3.08913 0.18657,6.93313 2.6988,4.49528 3.26457,4.80741 4.48787,2.47571 z m -5.48111,3.42902 c 0.61716,-3.90183 -4.45223,-13.08667 -8.35216,-15.13277 -3.01216,-1.58033 -3.00599,1.1324 0.0154,6.74532 1.51787,2.81965 3.30809,6.36623 3.97828,7.88128 1.29581,2.92899 3.92701,3.23456 4.3585,0.50617 z m 149.05798,-292.1701 c 0,0 -3.58996,-4.71395 -6.68686,-8.09729 -3.09702,-3.38334 -7.80124,-9.17013 -10.45382,-12.85952 -5.69993,-7.92768 -14.48527,-16.16179 -17.24376,-16.16179 -3.10213,0 -2.28196,4.47428 1.70371,9.29494 2.01317,2.43481 9.45831,10.13721 16.54486,17.11644 6.92857,6.82365 12.86154,13.34731 12.86154,13.34731 z m -137.25609,1.85844 c 14.64262,-3.68706 26.42502,-24.79668 26.42502,-47.34376 0,-9.97765 -0.31353,-11.2766 -3.92523,-16.26248 -8.93694,-12.33702 -21.40486,-16.5632 -37.67005,-12.76877 -9.67316,2.25658 -21.15342,9.82822 -24.83569,16.37996 -4.21452,7.49858 -3.97689,22.25165 0.53382,33.1457 7.40928,17.89482 11.93891,24.46396 16.86854,24.46396 1.53423,0 3.93109,0.86341 5.32628,1.9187 3.09763,2.34292 9.17425,2.50705 17.27731,0.46669 z m 178.01897,40.81568 c 0,-2.18975 -28.28796,-29.04845 -28.28796,-29.04845 l -3.28488,2.51527 c 0,0 8.09459,8.97544 15.71527,16.44672 11.46678,11.24211 15.85757,14.03492 15.85757,10.08646 z m -83.43815,3.80756 c 3.10548,-2.89583 8.88853,-7.58254 12.8513,-10.41491 22.3966,-16.00811 29.19145,-20.78996 39.48991,-27.79116 11.33065,-7.70288 18.02849,-13.43825 18.02849,-15.43787 0,-5.02452 -9.65967,-0.30179 -25.73574,12.58258 -22.55446,18.07643 -34.32243,27.09336 -42.92617,32.89123 -9.30557,6.27073 -11.61931,8.77438 -10.58931,11.45837 1.15975,3.02223 2.7426,2.43619 8.88152,-3.28824 z m 189.3428,9.01625 c 7.7643,-2.32625 17.0544,-10.18715 23.7645,-20.10843 7.6286,-11.27962 10.2106,-18.67582 10.3999,-29.79163 0.1786,-10.47711 -1.0961,-12.69026 -12.9305,-22.45191 -8.6292,-7.11769 -8.8183,-7.19611 -17.3613,-7.19611 -11.4728,0 -20.16902,4.3168 -31.42849,15.60124 -10.20269,10.22534 -11.6997,14.29093 -11.6997,31.77426 0,11.07012 0.40094,13.20833 3.63877,19.40616 6.23574,11.93664 20.8739,17.18349 35.61682,12.76642 z m -201.81103,-1.72352 c 0,-0.71876 -0.91688,-1.30684 -2.03742,-1.30684 -1.12055,0 -1.67392,0.58808 -1.22969,1.30684 0.44422,0.71877 1.361,1.30685 2.03732,1.30685 0.67642,0 1.22979,-0.58808 1.22979,-1.30685 z m 101.09005,-1.31573 c 2.39937,-3.2023 6.0371,-6.40615 8.08393,-7.11967 4.03,-1.40488 4.87317,-3.687 1.79812,-4.86701 -3.37961,-1.29686 -18.80821,13.61844 -17.04251,16.47544 1.41767,2.29372 2.66387,1.51246 7.16046,-4.48876 z M 549.03599,554.8657 c 0,-0.83529 -0.98944,-4.65781 -2.19885,-8.49449 -2.1083,-6.68814 -5.64222,-9.56611 -5.64222,-4.5949 0,4.48562 4.16016,14.60809 6.00365,14.60809 1.01066,0 1.83742,-0.68342 1.83742,-1.5187 z M 962.192,574.86364 c 17.1527,-10.42217 25.29026,-16.0734 25.29026,-17.56317 0,-1.97284 -9.46856,-3.31582 -26.79031,-3.7998 l -13.72186,-0.38338 0.18735,3.92053 c 0.44077,9.22243 3.46282,22.86977 5.06438,22.86977 0.91783,0 5.40438,-2.26978 9.97018,-5.04395 z m -380.4849,3.22989 c 0,-15.40539 -21.23162,-69.86548 -27.72371,-71.11254 -3.8898,-0.7472 -4.29492,5.65649 -1.09106,17.24804 1.61024,5.82584 4.14541,15.00303 5.63365,20.39377 3.09544,11.21194 4.00521,13.20624 12.87994,28.23149 7.39193,12.51467 10.30118,13.99436 10.30118,5.23924 z m 332.37086,11.28869 c 3.45917,-11.0153 3.51678,-12.89715 0.91647,-29.93699 -4.50475,-29.52067 -4.44369,-29.31896 -10.48873,-34.69641 -4.06607,-3.61715 -5.24087,-5.49392 -4.63449,-7.40437 1.14187,-3.59777 -1.3495,-4.64416 -4.2209,-1.77276 -2.07046,2.07047 -2.36016,4.23215 -2.06398,15.40308 0.64402,24.28753 3.0369,38.62082 8.10651,48.55808 1.5426,3.02391 2.80481,6.32423 2.80481,7.33409 0,2.15337 4.91352,8.72279 6.52408,8.72279 0.60878,0 1.9842,-2.79338 3.05623,-6.20751 z M 688.30053,578.27404 c 4.76549,-9.52362 9.82841,-19.22255 11.25089,-21.55317 l 2.5865,-4.23748 -4.67453,-7.69506 c -2.57092,-4.23229 -4.67453,-8.13987 -4.67453,-8.68351 0,-0.54365 -2.66366,-5.03174 -5.91937,-9.97351 -3.25561,-4.94179 -6.47557,-10.44787 -7.15524,-12.23577 -0.67977,-1.78788 -1.78138,-3.2507 -2.44798,-3.2507 -1.17814,0 -10.41241,14.57247 -22.37589,35.31092 -6.59946,11.44022 -19.38468,31.23772 -25.81018,39.96639 -2.3359,3.17332 -4.24724,6.23774 -4.24724,6.80982 0,0.5721 6.90996,0.81903 15.35542,0.54873 8.44556,-0.27029 18.58991,0.0699 22.54306,0.75601 3.95326,0.68611 9.37395,1.31622 12.04608,1.40025 l 4.85843,0.15277 z m 294.60778,31.95234 c 0,-2.07215 -3.20083,-4.1819 -6.34468,-4.1819 -3.12555,0 -3.1473,0.0674 -0.84297,2.61369 2.32075,2.56437 7.18765,3.62624 7.18765,1.56821 z m -18.94925,-1.5181 c 0,-2.83237 -6.70055,-6.2873 -8.56934,-4.41851 -2.57584,2.57582 0.91144,7.21338 5.06345,6.73369 2.01954,-0.2333 3.50589,-1.21486 3.50589,-2.31518 z m -288.44072,11.40763 c 7.39214,-1.75131 14.02945,-3.77334 14.74946,-4.49337 0.72002,-0.72003 1.64788,-3.39631 2.06179,-5.94727 0.70862,-4.36653 0.49534,-4.71668 -3.64129,-5.97999 -7.61556,-2.32577 -41.10339,-4.61097 -53.78678,-3.67041 -24.307,1.80252 -36.28929,5.73783 -37.26065,12.2374 -0.62143,4.15848 4.58943,8.14359 10.77624,8.2414 2.91928,0.0461 8.83615,0.91206 13.14874,1.92424 11.74916,2.75759 37.14846,1.66916 53.95249,-2.312 z m 310.50548,18.47149 c 13.81256,-1.35932 15.93978,-1.90661 19.22938,-4.94734 4.6399,-4.28887 6.0214,-9.49746 3.2532,-12.26563 -3.9412,-3.94119 -40.75393,-5.62472 -56.30894,-2.57512 -4.31258,0.84549 -9.89929,1.9203 -12.41502,2.38845 -5.14656,0.95776 -13.06844,6.33586 -13.06844,8.87206 0,0.91626 1.46042,3.03792 3.24536,4.7148 2.63523,2.47567 5.76768,3.35341 16.66227,4.66896 7.37928,0.89106 15.76922,1.40683 18.64428,1.14617 2.87505,-0.26068 12.21617,-1.16173 20.75791,-2.00235 z m -12.26342,9.92952 c 0,-1.20707 -1.22562,-1.96027 -3.18996,-1.96027 -3.5589,0 -5.56841,2.02721 -3.02571,3.05232 3.30193,1.3312 6.21567,0.81927 6.21567,-1.09205 z m -25.6658,1.12922 c 3.33475,-0.45708 6.06313,-1.278 6.06313,-1.82425 0,-0.54626 -4.61222,-1.40147 -10.24942,-1.90048 -12.29019,-1.08793 -19.36033,-4.57678 -23.01667,-11.35788 -2.11939,-3.93078 -2.29544,-5.30914 -1.0323,-8.08148 2.10538,-4.6209 10.37498,-9.78521 19.47261,-12.16059 4.20103,-1.09686 7.9822,-2.55059 8.4028,-3.23046 1.9519,-3.15575 -1.14386,-13.13446 -5.46721,-17.6229 l -4.44536,-4.615 3.76047,-3.02113 c 2.29638,-1.84489 3.37971,-3.63716 2.78253,-4.60338 -0.53779,-0.87024 -1.46732,-4.90493 -2.06555,-8.96598 -0.59811,-4.06105 -1.73632,-10.32413 -2.52921,-13.91795 -3.00438,-13.61772 -3.31029,-13.12445 7.85309,-12.6654 25.6499,1.05477 31.37879,1.67344 46.06869,4.97509 3.32938,0.7483 3.83418,0.28801 6.8054,-6.20547 3.998,-8.73732 7.0547,-21.68092 7.5307,-31.88856 l 0.3635,-7.79627 -4.3218,-0.41508 c -3.0879,-0.29655 -6.11202,0.73368 -10.5916,3.60823 -10.23188,6.56573 -22.12438,10.72301 -36.05356,12.6032 -7.18764,0.97021 -15.71475,2.34493 -18.94924,3.05496 -3.23439,0.71001 -9.28069,1.31657 -13.43614,1.34786 -5.12785,0.0387 -7.77478,0.62878 -8.23835,1.83681 -0.37563,0.97894 0.54815,7.88888 2.0528,15.35542 3.95848,19.64211 4.93736,41.29788 2.19152,48.48226 -2.35964,6.17377 -7.82747,12.79308 -10.56777,12.79308 -0.96539,0 -3.92775,-2.40461 -6.58294,-5.34359 -2.65519,-2.93898 -5.17615,-4.99503 -5.60218,-4.56903 -0.42603,0.42602 1.08991,5.68297 3.36873,11.68212 2.27882,5.99915 4.14322,12.43685 4.14322,14.30604 0,4.35775 2.36821,16.17899 4.18797,20.90445 1.87464,4.8682 7.70996,7.71724 18.02838,8.80218 12.54519,1.31906 13.46562,1.33893 20.07376,0.43318 z M 867.91405,462.96618 c -1.70977,-4.49711 -1.68373,-10.74709 0.0491,-11.81813 2.8898,-1.78596 5.3037,2.30417 4.90642,8.31324 -0.44705,6.76102 -3.02456,8.58396 -4.95556,3.50489 z m -92.92698,151.4125 c -2.7658,-3.33261 -3.1727,-18.88725 -0.6231,-23.81774 1.9542,-3.77907 4.49732,-5.16968 6.24964,-3.41739 0.38589,0.38596 -0.16403,3.17933 -1.22205,6.20751 -1.3518,3.86875 -1.6873,8.12859 -1.12828,14.32698 0.80146,8.88633 -0.0376,10.60274 -3.27621,6.70064 z m 45.11227,40.53264 c 2.92315,-1.1217 2.60491,-3.04268 -1.83659,-11.08627 -8.927,-16.16708 -16.25589,-46.51437 -15.51778,-64.25552 0.40125,-9.64429 0.91239,-11.79198 3.39811,-14.27732 4.52157,-4.52078 6.30735,-1.63043 3.71332,6.01013 -5.10213,15.02807 0.0638,43.77451 12.20833,67.9386 l 7.28937,14.50336 14.37528,-0.45186 c 7.90641,-0.24851 14.80781,-0.85744 15.3364,-1.35317 0.52869,-0.49572 -0.27245,-4.11491 -1.78013,-8.04263 -3.63449,-9.46776 -8.01786,-24.68416 -12.41001,-43.07954 -3.25707,-13.64153 -3.56747,-17.07931 -3.36214,-37.24506 0.25792,-25.33672 1.03607,-33.42197 3.54353,-36.81727 3.79539,-5.13935 4.50673,-0.39462 3.07391,20.50125 -2.39393,34.91201 -0.96748,43.88148 15.41188,96.91001 1.037,3.35713 2.6232,6.71619 3.52492,7.46459 1.60909,1.33541 40.90507,2.34124 42.16706,1.07933 0.34072,-0.34072 -0.87893,-2.82739 -2.71019,-5.52593 -3.84369,-5.66409 -5.51331,-11.18003 -6.71665,-22.1903 -0.47141,-4.31258 -2.8507,-13.65267 -5.2875,-20.75577 -2.43669,-7.10307 -5.10808,-17.01777 -5.93621,-22.03261 -1.35671,-8.21504 -1.86659,-9.24369 -5.14938,-10.38807 -2.98358,-1.04008 -4.01797,-2.61206 -5.71049,-8.67822 -1.13685,-4.07444 -2.96832,-10.28522 -4.06983,-13.80173 l -2.00282,-6.39367 4.00794,-3.66071 c 2.20438,-2.0134 4.00793,-4.3505 4.00793,-5.19358 0,-0.90764 1.26242,-1.29153 3.09513,-0.9412 3.00345,0.57415 3.11636,0.28004 3.81724,-9.94539 0.60157,-8.77659 1.20376,-10.92697 3.60439,-12.8709 6.52805,-5.28604 10.46468,-4.60026 20.62242,3.59245 5.19622,4.19103 6.36475,4.56159 14.38396,4.56159 4.80051,0 10.7224,-0.57193 13.15972,-1.27095 2.43742,-0.69904 9.19642,-1.90052 15.02013,-2.66998 16.37706,-2.16382 36.07196,-8.65297 36.07196,-11.88512 0,-0.63961 -5.15401,-1.16293 -11.45331,-1.16293 -8.4165,0 -13.35428,-0.71897 -18.62253,-2.71158 -3.94312,-1.49137 -8.85863,-3.23526 -10.92334,-3.87529 -2.06481,-0.64004 -5.13151,-2.06618 -6.81504,-3.16921 -4.20312,-2.75406 -8.82266,-2.51284 -11.64722,0.60817 -3.10088,3.42649 -4.78315,3.29708 -8.49449,-0.65342 -1.68813,-1.79691 -3.60908,-3.26711 -4.26888,-3.26711 -0.6598,0 -2.66827,-1.15521 -4.46324,-2.56712 -3.0416,-2.39255 -3.48102,-2.42461 -6.46219,-0.47128 -3.02383,1.98131 -3.38117,1.92521 -6.53715,-1.02669 -5.25393,-4.91407 -6.25069,-7.54919 -3.85613,-10.1951 1.13538,-1.25463 2.06439,-2.58446 2.06439,-2.95513 0,-0.37068 -6.80552,-7.5749 -15.12353,-16.00938 -9.60311,-9.73764 -15.02871,-14.61956 -15.02871,-14.61956 0,0 -4.40762,2.89764 -2.51886,4.06498 2.007,1.24038 1.54991,5.8808 -0.5793,5.8808 -2.64934,0 -5.95493,5.15052 -5.95493,9.27867 0,1.90836 -0.87516,4.19605 -1.94479,5.08379 -2.69043,2.23289 -3.80417,-0.98897 -2.95274,-8.54238 0.3608,-3.20105 0.35306,-5.82008 -0.0167,-5.82008 -1.49806,0 -22.30961,14.81902 -28.40975,20.22936 -5.87652,5.21197 -6.36988,6.06223 -4.90067,8.44736 0.89838,1.45864 1.63356,3.23303 1.63356,3.94309 0,1.1554 -2.4069,4.68644 -5.17051,4.45657 -1.9863,-0.16521 -4.35712,-4.85438 -6.18503,-4.85438 -0.95536,0 -2.66952,1.06774 -3.58504,2.31731 -1.14448,1.56221 -1.14825,4.26668 -1.39498,4.66602 -0.44422,0.71876 -2.78859,1.30684 -5.20971,1.30684 -3.02916,0 -5.14468,0.93613 -6.78377,3.00187 -3.83178,4.82926 -5.276,5.10611 -10.1431,1.94433 -7.09083,-4.60637 -7.46062,-7.86424 -1.16466,-10.258 5.56716,-2.11659 3.11248,-5.42184 -8.1866,-11.02375 -5.79904,-2.87506 -12.26008,-5.9211 -14.35803,-6.76898 -2.09786,-0.84788 -6.46062,-2.99876 -9.69501,-4.77975 -3.23449,-1.78099 -10.58544,-5.46508 -16.33556,-8.18686 -5.75011,-2.72176 -14.19034,-7.18678 -18.75614,-9.92222 -4.5658,-2.73547 -9.09344,-4.97357 -10.06155,-4.97357 -2.12671,0 -14.12176,23.32842 -17.72666,34.47558 -3.8299,11.84258 -6.38295,21.53544 -6.38295,24.23357 0,3.32988 5.61923,15.68381 11.19705,24.617 10.23489,16.39145 16.20424,27.21364 16.22494,29.41514 0.0115,1.27213 -1.34741,4.50657 -3.0208,7.18765 -3.5818,5.73842 -12.78721,23.74723 -15.68997,30.69447 l -2.03261,4.86481 c 4.24849,2.89736 11.22119,3.76793 12.75835,8.67573 1.58191,5.05032 -3.30224,12.60429 -5.6901,14.82211 -3.2024,2.97432 -17.27042,7.84343 -23.18018,8.02295 -5.9727,0.18143 -10.53191,1.61095 -11.1615,3.4996 -0.34783,1.04345 0.97836,1.60445 3.82372,1.61752 5.48018,0.0252 8.23846,1.71899 7.20124,4.42206 -0.55734,1.45242 -2.45823,2.09215 -6.21671,2.09215 l -5.41379,0 0.9149,4.87661 c 1.92367,10.2543 -1.38703,9.58561 43.52858,8.79176 30.75412,-0.54358 43.0416,-0.28042 52.55385,1.12552 12.47514,1.84386 59.41333,2.88377 63.27511,1.40184 z m 137.7485,41.82657 c 8.75126,-2.96548 11.53316,-3.31769 21.79335,-2.75933 6.46888,0.35204 12.79079,1.06255 14.0486,1.57894 3.65829,1.50185 2.82029,-2.86526 -1.62749,-8.48106 -4.74083,-5.98581 -11.76768,-19.84379 -11.76768,-23.20773 0,-4.62912 -2.97574,-6.82067 -9.73997,-7.17328 l -6.47295,-0.33744 -1.74009,7.7029 c -0.95713,4.23662 -2.89597,9.32606 -4.30862,11.30992 -1.41264,1.98386 -2.56842,4.04546 -2.56842,4.58135 0,0.53588 -2.35231,5.05437 -5.22737,10.0411 -2.87506,4.98672 -5.22738,9.30915 -5.22738,9.60538 0,1.12662 3.12827,0.42954 12.83802,-2.86075 z m -331.05461,3.45072 c 2.87505,-0.79055 11.04283,-2.29868 18.1506,-3.35139 11.14958,-1.65136 13.88475,-1.66294 19.92938,-0.0845 8.39506,2.19226 8.88225,1.17052 3.67725,-7.71121 -3.51761,-6.00238 -6.44745,-14.82971 -12.36599,-37.2575 l -3.62111,-13.72186 -7.60866,0 -7.60865,0 -0.90173,4.57395 c -0.49587,2.51568 -1.60543,8.69052 -2.46565,13.72187 -0.86011,5.03135 -2.62069,12.68778 -3.91237,17.01428 -2.27695,7.62688 -10.50609,23.21748 -13.10169,24.8216 -0.70371,0.43494 -1.27956,1.70679 -1.27956,2.8263 0,2.13164 0.45572,2.09753 11.10818,-0.83156 z m 48.35324,9.27146 c 0.71876,-0.13991 0.28677,-0.84872 -0.96006,-1.57517 -4.08698,-2.38132 -32.09526,-4.14182 -39.45959,-2.4803 -9.94488,2.24377 -11.2007,2.6617 -11.2007,3.7279 0,0.81551 47.56286,1.11733 51.62035,0.32757 z m 280.11288,1.25773 c 6.94112,-1.36836 19.38322,-2.87562 27.64896,-3.34945 8.26586,-0.47386 15.56557,-1.39071 16.22167,-2.03748 2.53892,-2.50269 -6.65649,-4.35945 -21.44905,-4.33105 -14.0559,0.027 -15.74089,0.318 -26.03192,4.49581 -6.05184,2.45682 -11.2465,5.19666 -11.54383,6.08851 -0.7082,2.12465 0.26388,2.06907 15.15417,-0.86634 z m 60.32015,9.67556 c 0,-1.07815 -0.8821,-1.96027 -1.9603,-1.96027 -1.0781,0 -1.9603,0.88212 -1.9603,1.96027 0,1.07815 0.8822,1.96027 1.9603,1.96027 1.0782,0 1.9603,-0.88212 1.9603,-1.96027 z m -86.25181,8.35467 c 0,-1.97392 -0.58526,-2.52893 -2.06712,-1.96027 -1.13695,0.4363 -2.31311,0.79324 -2.61368,0.79324 -0.30058,0 -0.54658,0.88212 -0.54658,1.96027 0,1.08903 1.16163,1.96027 2.61369,1.96027 1.78672,0 2.61369,-0.87124 2.61369,-2.75351 z M 861.3906,399.6003 c -2.16664,-4.2921 -3.93935,-8.7027 -3.93935,-9.80134 0,-3.86537 3.89732,-1.93895 6.53422,3.22984 1.4668,2.87506 3.12096,5.22738 3.6761,5.22738 0.55505,0 1.71699,-2.64636 2.58212,-5.8808 1.05007,-3.92628 2.28196,-5.8808 3.70652,-5.8808 1.80042,0 2.00021,1.00532 1.27966,6.43723 -1.05195,7.93028 1.00627,9.92787 5.02989,4.88176 2.984,-3.74239 5.94207,-4.58561 5.94207,-1.69389 0,0.98121 -1.21882,3.33353 -2.70852,5.22738 -1.96831,2.50232 -3.91154,3.44334 -7.11049,3.44334 -2.42111,0 -4.76548,0.58808 -5.2097,1.30685 -0.44423,0.71876 -1.94062,1.30684 -3.32535,1.30684 -1.76497,0 -3.69575,-2.3335 -6.45717,-7.80379 z m -30.07362,20.4051 c -4.44746,-1.83156 -7.36099,-3.87243 -7.64671,-5.35629 -0.3862,-2.00503 0.15358,-2.27425 3.29826,-1.64531 7.66438,1.53288 18.72112,6.3853 18.72112,8.21605 0,2.74204 -5.9957,2.23541 -14.37267,-1.21445 z m 64.47499,7.57556 c -1.0691,-2.7861 4.2049,-8.21144 6.12032,-6.29598 1.77062,1.77056 0.60198,4.69944 -2.69691,6.75964 -2.18912,1.36712 -2.75002,1.29115 -3.42341,-0.46366 z m -65.78445,5.3526 c 0,-4.14673 9.87378,-6.34774 11.33964,-2.52779 1.03063,2.68583 -1.71332,4.39671 -7.0924,4.42206 -2.86784,0.0135 -4.24724,-0.60169 -4.24724,-1.89427 z m 64.72601,4.58809 c -1.26764,-2.05109 1.36268,-4.87567 5.22853,-5.61468 3.86021,-0.73792 8.44692,2.12748 6.49585,4.05805 -2.12033,2.09812 -10.68685,3.23548 -11.72438,1.55663 z m -458.3652,192.3729 c -2.05175,-4.63831 -3.00338,-10.4523 -3.76481,-23.00098 -1.02858,-16.95116 -0.10455,-23.79115 3.0718,-22.73993 1.15339,0.38171 1.84166,6.20096 2.36969,20.03559 0.40929,10.72371 1.43843,21.15315 2.28698,23.17655 0.84855,2.02338 1.5428,4.81677 1.5428,6.20751 0,4.48892 -2.68783,2.69323 -5.50646,-3.67874 z m 47.88833,20.25593 c -7.2901,-8.62487 -11.76927,-24.2552 -13.20898,-46.0938 -0.77387,-11.73865 1.32143,-32.98645 3.70235,-37.54424 1.36326,-2.60968 6.33735,-3.1243 6.31596,-0.65342 -0.007,0.89846 -0.94987,4.57395 -2.09353,8.16777 -2.95075,9.27246 -2.99058,38.78305 -0.0685,50.7286 3.13363,12.81011 7.1993,21.47791 11.51617,24.5518 2.06753,1.47218 3.42341,3.21981 3.01317,3.88362 -1.52201,2.46267 -5.69345,1.08065 -9.17666,-3.04033 z m 570.71204,65.23704 c -0.7936,-0.9563 -1.6007,-3.13748 -1.7936,-4.8471 -0.5023,-4.45405 3.7479,-5.03558 5.6877,-0.7782 2.4534,5.38462 -0.5241,9.68587 -3.8941,5.6253 z m -488.95189,7.60964 c -2.10852,-2.54056 0.42655,-12.40513 3.18797,-12.40513 2.73172,0 3.3128,3.14573 1.5358,8.3148 -2.07819,6.04487 -2.6737,6.56055 -4.72377,4.09033 z m 7.40563,2.69893 c -1.72546,-4.49626 1.99027,-16.73443 6.12188,-20.16337 3.19111,-2.64838 3.87171,0.58801 1.69231,8.04743 -1.09492,3.74726 -2.33026,8.43043 -2.74521,10.40703 -0.8024,3.82132 -3.86251,4.85299 -5.06898,1.70891 z m 471.21686,1.67142 c -0.8889,-0.88886 -1.6161,-4.07282 -1.6161,-7.07551 0,-3.25853 -0.7902,-6.11526 -1.9603,-7.08628 -2.7092,-2.2485 -2.572,-6.84619 0.1883,-6.30333 5.6621,1.11354 10.3814,14.90936 6.7547,19.74635 -1.3904,1.85441 -2.0831,2.00232 -3.3666,0.71877 z m -156.5231,2.7529 c -2.24077,-3.62568 4.55273,-16.91469 8.64702,-16.91469 3.25571,0 3.22759,0.17588 -1.59289,9.96767 -4.07223,8.27189 -5.41692,9.59614 -7.05413,6.94702 z m 8.05141,11.13973 c -1.64704,-4.29215 -0.71751,-8.84028 3.8093,-18.63777 4.72753,-10.23227 8.95669,-15.95088 11.79641,-15.95088 3.31332,0 2.99947,4.03422 -0.63596,8.17471 -5.78368,6.58723 -9.56621,14.89271 -9.84974,21.62714 -0.18327,4.35565 -0.84506,6.2498 -2.28018,6.52723 -1.11208,0.21499 -2.38996,-0.56821 -2.83983,-1.74043 z m 172.86799,-78.3956 c -21.8538,-0.3574 -48.5554,-1.10965 -59.3368,-1.67165 -10.78152,-0.56198 -20.3379,-0.78768 -21.2363,-0.50155 -2.36821,0.7542 -2.02425,3.36416 1.37106,10.40229 5.97272,12.38083 15.04074,22.75369 30.79524,35.22659 2.9185,2.31066 3.0267,2.9096 1.9603,10.85726 -0.9972,7.43167 -1.5587,8.61754 -4.819,10.17852 -4.7142,2.25716 -9.4184,1.06891 -12.1257,-3.06286 -1.9592,-2.99019 -1.9606,-3.50052 -0.017,-6.46749 1.1609,-1.77163 2.1106,-3.606 2.1106,-4.07641 0,-0.4704 -5.7338,-0.49406 -12.74172,-0.0526 -7.008,0.44148 -17.44644,1.07717 -23.19656,1.41263 -5.75011,0.33546 -13.39515,1.5082 -16.98897,2.60613 -3.59382,1.09791 -8.77823,2.00257 -11.52083,2.01036 -2.74259,0.007 -6.16412,0.64434 -7.60332,1.41458 -2.43805,1.30482 -2.47684,1.61399 -0.56749,4.52799 2.69158,4.10781 2.58536,6.24975 -0.44589,8.99294 -3.1058,2.81077 -13.28925,3.38733 -16.26143,0.92068 -2.98494,-2.47724 -2.69702,-5.08065 1.11416,-10.07742 1.79686,-2.35587 3.26711,-5.45101 3.26711,-6.8781 0,-1.4271 2.11144,-4.55375 4.69199,-6.94813 2.58065,-2.39438 6.59277,-7.29381 8.91592,-10.88764 6.6556,-10.29619 19.0632,-34.47625 19.0632,-37.15073 0,-2.73749 -5.59664,-3.20316 -57.82786,-4.81148 -31.13907,-0.95884 -30.65669,-1.17538 -22.54307,10.11815 4.95054,6.89074 5.5888,8.97426 2.74908,8.97426 -2.2714,0 -8.88832,-7.43147 -12.8398,-14.4206 l -2.97772,-5.2667 -13.72186,0.77087 c -7.54698,0.42398 -21.33743,1.32514 -30.6453,2.00258 -24.04645,1.75012 -34.66608,1.54534 -54.50199,-1.0511 -20.26487,-2.65258 -94.20121,-3.15643 -96.69874,-0.65894 -0.96174,0.96177 -0.55013,3.6973 1.3702,9.10619 1.50977,4.25231 2.745,8.53635 2.745,9.5201 0,3.00044 14.53242,27.43343 17.15029,28.83452 1.36048,0.72811 2.45237,2.71925 2.45237,4.47209 0,1.73781 0.67046,4.63102 1.4898,6.42936 2.04056,4.47855 -0.66941,10.97286 -5.03605,12.06884 -4.83982,1.2147 -10.26281,-3.37761 -9.86887,-8.35714 l 0.30674,-3.87681 -15.73137,-0.92016 c -19.55855,-1.14403 -42.64902,0.18629 -46.63051,2.68652 -1.61724,1.01558 -2.9404,3.11822 -2.9404,4.67254 0,3.83724 -4.98493,8.8753 -8.78168,8.8753 -3.39696,0 -9.51414,-5.32048 -9.51414,-8.27507 0,-1.02282 0.88573,-2.59475 1.96832,-3.49322 1.12629,-0.93472 1.83857,-3.33708 1.66492,-5.61564 -0.18338,-2.40629 0.39529,-4.21498 1.46209,-4.57061 2.28113,-0.76036 4.10831,-2.87191 12.10065,-13.98368 8.4579,-11.759 10.84315,-16.50381 13.71497,-27.28132 1.92681,-7.23083 2.03376,-8.98701 0.60125,-9.87232 -1.80334,-1.11452 -12.56777,-0.98757 -50.33943,0.59357 -34.00545,1.4235 -40.52817,2.18662 -41.02823,4.80018 -0.72211,3.77348 10.32481,26.96493 15.81554,33.2028 3.57072,4.05651 4.77552,6.32652 3.84954,7.25258 -4.54625,4.54624 -14.8147,-10.39676 -23.98278,-34.90069 l -2.6645,-7.12143 -28.86301,-0.21018 c -71.00684,-0.51709 -200.19422,0.25956 -199.62418,-1.22594 7.00556,-6.51732 111.92523,-3.50209 167.90755,-4.20531 12.25176,-0.1539 25.7057,0.54263 36.75818,-0.003 10.01169,-0.50466 19.58495,-1.34211 20.32392,-2.0263 0.48834,-0.45212 0.0889,-3.87667 -0.88729,-7.61011 -2.17992,-8.33559 -6.38096,-33.43 -9.2557,-55.28703 -1.60366,-12.1928 -1.97417,-22.13544 -1.46116,-39.20533 0.74564,-24.80951 1.83837,-30.05742 6.25843,-30.05742 2.45059,0 2.69283,0.52247 1.96936,4.24724 -1.78776,9.20358 -2.39226,50.70587 -0.94009,64.54286 3.07976,29.34558 9.65256,62.9134 12.53556,64.01971 0.87245,0.33479 17.55186,-0.30049 37.06524,-1.41175 19.51339,-1.11127 40.74291,-2.02048 47.17677,-2.02048 6.43375,0 11.96934,-0.44105 12.30107,-0.98013 0.33183,-0.53907 1.02142,-3.77351 1.53235,-7.18764 l 0.92911,-6.20751 -23.46705,0 -23.46695,0 -5.61379,-6.65756 c -5.65916,-6.71147 -8.07358,-13.10741 -12.53306,-33.2012 -0.95713,-4.31258 -2.9221,-10.48742 -4.36653,-13.72186 -1.44453,-3.23444 -3.97573,-9.40928 -5.62497,-13.72187 l -2.99842,-7.84106 -5.72419,0 -5.72429,0 -3.72315,-11.10818 c -2.04777,-6.1095 -3.73172,-11.76308 -3.74207,-12.56353 -0.0104,-0.80044 1.338,-2.85872 2.99623,-4.57396 6.4878,-6.71059 8.57039,-12.12944 7.82423,-20.35844 -0.63105,-6.95909 -0.36644,-8.06453 2.84317,-11.87892 2.12336,-2.52354 4.75848,-4.20577 6.58796,-4.20577 4.37145,0 10.84911,8.27129 16.56849,21.15624 11.9869,27.00512 10.22987,22.1236 15.43352,42.87914 5.8234,23.22737 5.79475,23.82147 -1.32399,27.45318 l -5.04474,2.57361 -4.04954,-3.40746 c -2.22718,-1.8741 -4.95388,-5.15631 -6.05916,-7.29378 -3.27286,-6.32899 -3.72586,-2.9877 -0.58484,4.31379 1.59237,3.70145 3.37804,9.45312 3.96831,12.7815 2.41076,13.59442 6.26334,23.91575 10.59496,28.38483 l 4.3199,4.45708 17.309,0 c 9.51989,0 17.64616,-0.54574 18.05839,-1.21276 0.96686,-1.56434 -1.66126,-2.34019 -13.62056,-4.021 -5.36705,-0.75431 -11.12407,-2.26639 -12.79338,-3.3602 -4.18755,-2.74378 -7.40813,-9.9234 -6.34739,-14.14995 1.12493,-4.48213 10.32814,-11.05471 16.96555,-12.11606 3.69273,-0.5905 6.57395,-2.23964 9.66783,-5.53367 5.10004,-5.42984 29.9213,-42.39627 34.30163,-51.08547 1.63053,-3.23444 5.13235,-9.15111 7.78189,-13.14815 8.79392,-13.26648 14.17665,-25.21197 19.60016,-43.4974 2.95169,-9.95151 7.73464,-22.80311 10.62862,-28.5591 2.89408,-5.756 4.89889,-10.82855 4.45508,-11.27236 -0.4438,-0.44381 -9.15523,3.39005 -19.35854,8.51969 -16.27639,8.18277 -19.67355,9.41397 -27.69956,10.03885 -5.03135,0.39172 -14.14654,2.28385 -20.25609,4.20472 -13.43823,4.22506 -25.1717,4.93176 -25.85618,1.55729 -0.32012,-1.57859 0.63272,-2.45282 3.22634,-2.95987 4.16287,-0.8139 15.17048,-3.54426 32.43117,-8.04435 6.46888,-1.68652 13.91737,-3.07195 16.55207,-3.07872 7.76465,-0.02 48.13673,-21.1575 48.13673,-25.20281 0,-0.93487 -2.54678,-3.82858 -5.65948,-6.43048 -4.48331,-3.74759 -6.93202,-7.5819 -11.78345,-18.45057 -5.6417,-12.63934 -6.14582,-14.62998 -6.40113,-25.27673 -0.24589,-10.25689 0.10957,-12.29189 3.15964,-18.0911 5.63866,-10.7208 16.07993,-18.21533 29.20243,-20.9609 20.6312,-4.31661 37.7816,2.46016 47.29072,18.68641 3.02352,5.15909 3.43773,7.29099 3.45687,17.78987 0.047,26.04001 -13.61481,47.74331 -33.89746,53.84746 -3.91551,1.17841 -8.49699,1.61071 -11.80791,1.11418 -6.5636,-0.98426 -8.50045,1.10086 -3.44589,3.70964 1.98411,1.02407 6.54792,3.48792 10.14174,5.47521 8.76464,4.84658 18.877,9.94061 48.15314,24.25671 22.4888,10.9971 24.81007,11.86388 26.70291,9.97103 1.89283,-1.89286 1.88185,-2.28434 -0.12651,-4.50362 -2.85216,-3.15162 -2.77678,-4.05565 0.64193,-7.69462 3.29763,-3.51021 5.70442,-3.81325 8.4534,-1.06436 2.61755,2.61764 3.54134,2.49116 7.88079,-1.07894 2.03167,-1.67156 6.63448,-5.02632 10.22831,-7.455 3.59382,-2.4287 10.0627,-7.39439 14.37528,-11.03489 4.31259,-3.64051 10.04639,-7.97876 12.74174,-9.64056 2.69534,-1.66182 6.52794,-5.30087 6.52794,-5.30087 0,0 -8.01796,-9.1825 -23.45952,-23.96061 -5.06345,-4.84592 -9.91101,-10.72671 -10.77237,-13.06844 -0.86127,-2.34171 -2.47036,-6.11886 -3.57584,-8.39366 -3.60094,-7.41028 -0.41318,-8.6758 10.45475,-4.15053 7.71268,3.21148 14.65453,9.26413 21.49466,18.74128 7.57154,10.49072 17.45641,21.0962 17.45641,21.0962 0,0 4.31928,-3.09834 7.59998,-5.85838 3.84421,-3.23414 7.8234,-5.30006 11.19234,-5.81088 2.87506,-0.43594 7.4327,-1.19506 10.12804,-1.68694 4.11917,-0.75172 4.90067,-0.53381 4.90067,1.36666 0,3.98623 -9.24525,17.39563 -14.50817,21.04286 -2.80208,1.94176 -5.74802,4.60554 -5.74802,4.60554 0,0 24.36972,26.0132 25.80128,26.0132 0.36843,0 2.84307,-0.90804 5.49931,-2.01788 5.62539,-2.35044 7.61577,-1.86895 13.65401,3.30305 4.3818,3.75313 4.41202,3.85168 2.20721,7.21664 -2.13549,3.25916 -2.10966,3.67127 0.5792,9.22555 2.444,5.04876 4.04557,6.39475 12.16808,10.22646 16.16493,7.62561 20.01688,8.52523 42.02476,9.81493 18.53308,1.08607 21.17658,0.98515 23.25838,-0.88783 1.3802,-1.24164 2.1886,-3.48874 1.9603,-5.44845 -0.3612,-3.10038 -0.8071,-3.30657 -6.3298,-2.92732 -12.68239,0.87094 -28.99371,-8.35094 -34.70462,-19.6209 -5.92785,-11.69814 -5.74363,-33.77848 0.38296,-45.88066 4.71331,-9.31061 20.7738,-22.98157 32.01756,-27.25382 10.7615,-4.08905 25.553,-2.6336 30.5924,3.01019 1.3656,1.52938 5.4233,4.96553 9.0172,7.6359 7.1134,5.2856 12.415,14.07015 12.415,20.57109 0,19.20822 -13.3784,43.23967 -30.0148,53.91524 l -6.4981,4.16985 0.021,15.24442 c 0.039,29.15587 -9.4135,58.87431 -20.40402,64.14899 -2.12957,1.02199 -9.28712,5.57961 -15.90582,10.12804 -6.61869,4.54844 -12.3134,8.26988 -12.65496,8.26988 -1.78159,0 -13.863,8.44309 -13.863,9.68816 0,1.91624 10.56453,6.5507 19.60266,8.59935 9.57175,2.1696 18.80416,6.06073 26.92562,11.34825 3.66822,2.3882 8.09502,4.34219 9.83722,4.34219 1.7423,0 4.4763,0.9165 6.0756,2.03664 2.4904,1.74437 2.7919,2.82271 2.1015,7.51436 -1.0483,7.12398 -6.3347,14.86538 -12.1913,17.85321 -2.5613,1.30668 -8.62532,2.80077 -13.47538,3.32018 -5.94146,0.63626 -8.8185,1.50551 -8.8185,2.66433 0,2.23089 4.56256,3.65314 8.52723,2.65808 2.32148,-0.58269 3.94543,0.11892 6.39843,2.7643 l 3.28722,3.54515 53.6782,-0.10702 c 24.3911,-0.0486 45.3054,-0.27709 45.6761,1.93905 0.16,0.95655 1.8009,3.71216 -2.6404,4.60312 -5.8482,1.17322 -19.0907,0.34642 -28.7995,0.18765 z"
         inkscape:connector-curvature="0"
         sodipodi:nodetypes="cscccsccccccsscsccssssssssssccsssssssscssscsssssssscssssscssssssssscssssssssscsccsscsscscccsccsscsssscssssssscssscssccssssssssssssssssssscsscscsccssssscsssscccssscsscssccscccsccsccssssscsccsssscccscccssscsssssssssssssccssssscssccsssssscsssccssscsccssssssccsccsssscsccssccsscsssccssssscsssscccccscsccccsscsscsscsssssssssssssscscsssssscssscsssccscsssscsccssssssscsscssscccccsccscccsccccscsscssssccsscsccscscscccsssscsscssscsssssscsssccscscsscssssssscsscscscscscacccssscsssscccccsscccccsccscsssscccssscscscsssssscssssccssssssssccssssssscccssscsccsscssssccsssscsscsssssscsscccsssssscsssscccssscc" />
    </g>
    <path
       inkscape:connector-curvature="0"
       id="path4443"
       style="fill:#000000"
       d="m 342.40619,331.33934 c -1.02329,-1.02327 -0.90581,-12.59138 0.21367,-21.04166 0.68103,-5.14067 1.27173,-6.25 3.32799,-6.25 2.35206,0 2.47681,0.70271 2.10812,11.875 -0.21552,6.53125 -0.6753,12.85938 -1.02172,14.0625 -0.63239,2.19624 -3.07213,2.9101 -4.62806,1.35416 z m -77.64068,1.26793 c 0.55478,-6.08278 1.04775,-14.99709 1.09552,-19.80959 0.0783,-7.88772 0.33318,-8.75 2.58682,-8.75 2.37226,0 2.4816,0.71329 2.13988,13.95966 -0.4789,18.56347 -1.56885,24.64613 -4.51814,25.21412 -2.1696,0.41782 -2.25033,-0.23923 -1.30408,-10.61419 z m -37.56795,10.81495 c -0.4699,-0.76033 -0.12626,-9.22753 0.76365,-18.81598 1.47049,-15.84387 1.83846,-17.43356 4.03541,-17.43356 2.29247,0 2.36985,0.66214 1.49742,12.8125 -0.506,7.04688 -1.28589,15.29796 -1.73309,18.33575 -0.80236,5.45036 -2.89907,7.79421 -4.56339,5.10129 z m 84.81193,0.6656 c -5.52335,-3.8687 -7.4027,-25.5898 -3.04445,-35.18701 2.90165,-6.38968 6.81335,-9.22813 12.71737,-9.22813 5.66527,0 11.94565,4.39861 9.86314,6.90789 -1.13327,1.36551 -2.13402,1.33376 -5.7638,-0.18285 -7.63791,-3.19131 -11.92725,0.19326 -13.47877,10.63569 -1.00789,6.7835 0.32237,19.39136 2.33665,22.14605 2.33502,3.19332 6.34575,1.09031 10.08315,-5.28708 3.52953,-6.0227 3.3571,-7.24717 -1.02905,-7.30715 -1.90003,-0.026 -2.74588,-0.80766 -2.74588,-2.53755 0,-2.022 0.956,-2.57036 5,-2.868 2.78766,-0.20517 6.01575,0.37548 7.29564,1.31231 2.19134,1.60395 2.11027,2.04509 -1.78431,9.70913 -2.24398,4.41585 -5.36082,9.30969 -6.92633,10.8752 -3.27054,3.27054 -8.67494,3.70705 -12.52336,1.0115 z m -66.2436,0.8474 c -1.47508,-0.22121 -3.69416,-1.52066 -4.93129,-2.88768 -2.1537,-2.37981 -2.15812,-3.02782 -0.10412,-15.24267 1.1799,-7.01645 2.13335,-13.95394 2.11878,-15.41664 -0.0391,-3.9265 2.95959,-6.01721 5.03815,-3.51269 1.37185,1.65297 1.21582,4.10418 -0.93595,14.70292 -3.18011,15.66423 -2.68527,17.09422 5.91537,17.09422 5.3528,0 6.20602,0.34044 6.20602,2.47619 0,3.45404 -3.69516,4.22776 -13.30696,2.78635 z m -28.72666,-24.64855 c 3.83558,-2.51318 4.20737,-5.64054 1.0141,-8.53041 -3.19749,-2.89369 -9.42763,-3.9516 -11.06454,-1.87883 -1.96928,2.49364 -3.02078,11.28778 -1.5601,13.04778 1.49635,1.80298 6.6031,0.64246 11.61054,-2.63854 z m -18.80515,23.65466 c -0.41818,-1.08975 -0.11851,-6.57412 0.66582,-12.1875 0.78438,-5.61339 1.42543,-13.40862 1.42455,-17.32277 -0.001,-5.93813 0.45845,-7.43885 2.77654,-9.0625 7.62736,-5.34242 22.22186,1.23672 22.22186,10.01752 0,5.05539 -6.3118,10.98839 -14.04177,13.19906 -7.55834,2.1616 -8.49313,3.19875 -8.26717,9.17253 0.20698,5.47192 -0.7179,8.16501 -2.80406,8.16501 -0.6685,0 -1.5576,-0.89161 -1.97577,-1.98135 z m 142.27742,1.58366 c -1.99043,-2.39832 1.6571,-7.10231 5.50722,-7.10231 3.73442,0 4.15065,3.62019 0.7682,6.68126 -2.76061,2.49833 -4.45697,2.61214 -6.27542,0.42105 z m -66.74583,0.15247 c -0.30819,-0.89638 -0.1105,-3.03603 0.43935,-4.75478 0.54985,-1.71875 1.58352,-9.21704 2.29703,-16.66285 0.71351,-7.44582 1.61704,-14.0552 2.00782,-14.6875 0.39079,-0.63231 1.81472,-1.14965 3.16428,-1.14965 2.89701,0 9.3223,9.46726 11.22767,16.54328 1.35319,5.02538 3.10354,6.09243 4.13246,2.51922 0.34643,-1.20312 1.01216,-7.0947 1.47936,-13.09239 0.52997,-6.80348 1.49452,-11.44023 2.56455,-12.32828 3.67224,-3.04768 3.80841,5.29441 0.44977,27.55218 -1.6571,10.98172 -4.19767,16.63498 -7.21491,16.05457 -1.51557,-0.29154 -2.33386,-2.17393 -2.88655,-6.64023 -0.89412,-7.22555 -6.16222,-21.23335 -7.98551,-21.23335 -0.68373,0 -1.67125,4.72676 -2.1945,10.50393 -0.52325,5.77716 -1.40254,12.24505 -1.95396,14.37308 -1.03323,3.98735 -4.53432,5.8895 -5.52686,3.00277 z M 155.56561,333.78999 c 3.22501,-7.29066 2.27166,-17.50988 -2.10795,-22.5956 l -2.92511,-3.39671 -3.25244,3.05161 c -3.94727,3.70354 -7.14358,13.75548 -6.10795,19.20858 2.53848,13.36621 9.35052,15.13252 14.39345,3.73212 z m -12.49371,10.84644 c -6.91304,-6.44049 -8.86901,-16.14255 -5.46159,-27.09066 3.55477,-11.42145 11.18714,-17.47913 17.12273,-13.58998 4.73281,3.10105 6.9546,8.71147 7.11561,17.96815 0.18629,10.70923 -1.83261,16.66163 -7.27061,21.43627 -5.08314,4.46303 -7.76607,4.76062 -11.50614,1.27622 z m -22.47473,1.75876 c -0.88037,-0.38846 -3.08203,-3.60682 -4.89257,-7.1519 -4.60909,-9.02471 -4.6293,-19.07203 -0.0561,-27.8848 5.96358,-11.49205 13.3803,-14.64801 19.99963,-8.51022 3.43099,3.18139 4.56487,6.82441 2.12411,6.82441 -0.71533,0 -2.93587,-1.209 -4.93452,-2.68666 -3.39988,-2.51364 -3.83019,-2.55806 -6.68151,-0.6898 -7.5787,4.96575 -10.60537,20.27255 -5.85122,29.59145 3.14384,6.16242 3.85624,6.55991 8.71898,4.86475 5.04974,-1.76035 7.97,0.28487 4.8548,3.40007 -2.04203,2.04202 -10.49979,3.47018 -13.28159,2.2427 z m 44.79954,0.24149 c -1.19205,-1.43632 -1.2355,-3.34199 -0.1876,-8.22815 0.75005,-3.4974 1.36374,-12.51871 1.36374,-20.04737 0,-12.82254 0.15703,-13.68848 2.48226,-13.68848 1.50427,0 3.76453,1.93763 5.73676,4.91788 3.33297,5.03645 6.06414,5.55987 7.37988,1.41436 1.10886,-3.4937 6.5687,-7.97726 8.7125,-7.15461 1.6395,0.62913 1.9386,3.82428 1.9386,20.70937 0,10.981 -0.51715,20.28508 -1.14922,20.67571 -0.63208,0.39065 -1.97194,-0.11237 -2.97747,-1.11797 -1.46631,-1.46631 -1.70035,-4.5266 -1.1822,-15.45853 0.71425,-15.06923 -0.32371,-17.61965 -4.68065,-11.50091 -2.9669,4.16663 -5.16233,4.71901 -7.51046,1.8897 -0.85586,-1.03125 -1.97367,-1.875 -2.48405,-1.875 -0.51036,0 -1.42586,6.84694 -2.03444,15.21543 -1.09923,15.11535 -2.22547,18.08286 -5.40765,14.24857 z m 54.92614,38.661 c 12.71875,-0.99209 28.44284,-1.81981 34.94241,-1.83939 25.37364,-0.0765 69.08676,-5.96316 85.68259,-11.53861 20.95906,-7.0413 27.98968,-11.66754 44.99599,-29.60802 0.9051,-0.95482 6.90126,-3.09115 13.32482,-4.74743 13.49056,-3.47845 37.50389,-12.8585 38.18872,-14.91721 0.32346,-0.9724 -4.85947,-1.57063 -16.95119,-1.95651 -19.5483,-0.62388 -23.93334,-2.11248 -23.93334,-8.12472 0,-4.24875 -6.18949,-13.86996 -12.88141,-20.0234 -10.80675,-9.93717 -30.48865,-18.70343 -50.24359,-22.37836 -42.40523,-7.88847 -136.8362,-11.10142 -159.375,-5.42264 -2.40625,0.60627 -6.625,1.41413 -9.375,1.79525 -16.66846,2.31007 -40.75644,9.45034 -52.61006,15.59493 -23.963785,12.42215 -31.666905,19.61394 -38.030345,35.50582 -3.79565,9.4792 -4.84169,19.93744 -2.94344,29.42868 0.82275,4.11375 10.85045,16.35661 13.39713,16.35661 0.80112,0 4.09823,1.40625 7.3269,3.125 3.22866,1.71875 6.731411,3.125 7.783871,3.125 1.052464,0 7.687614,1.87246 14.744764,4.16104 12.61804,4.09192 28.07475,7.97915 45.33118,11.40039 11.45529,2.27111 32.04701,2.2927 60.625,0.0636 z m -53.125,5.50771 c -20.5021,-2.45905 -66.82111,-14.84661 -78.701805,-21.048 -2.72349,-1.4216 -5.62018,-2.58471 -6.43708,-2.58471 -0.8169,0 -4.31478,-3.09594 -7.77309,-6.87987 -7.27749,-7.96273 -9.34288,-14.814 -8.47712,-28.12013 0.55489,-8.52835 5.17165,-21.28622 10.17776,-28.125 12.15452,-16.60416 36.079495,-29.94372 66.836335,-37.26514 35.76701,-8.51405 39.1187,-8.92453 73.125,-8.95597 49.30421,-0.0456 82.3923,2.1664 115.625,7.72965 21.53939,3.60576 43.14379,12.95285 55.36604,23.95397 5.9561,5.36103 13.38396,16.49312 13.38396,20.05847 0,1.38383 0.98437,3.04058 2.1875,3.68166 1.88419,1.00397 25.89171,2.64754 45.91329,3.14322 4.86161,0.12038 6.31981,0.63429 6.65488,2.34542 0.24903,1.2717 -0.52767,2.51488 -1.85078,2.9624 -1.25394,0.42411 -9.31114,4.0139 -17.90489,7.9773 -15.86755,7.31805 -32.24705,13.07438 -41.34033,14.52846 -3.94293,0.6305 -5.99527,1.99465 -9.577,6.36567 -12.69752,15.49567 -40.42672,28.02104 -70.95767,32.05183 -24.61985,3.25039 -53.01156,5.77732 -65,5.78516 -6.1875,0.004 -19.96875,0.66535 -30.625,1.46956 -22.07108,1.66567 -41.49599,2.021 -50.625,0.92605 z" />
    <path
       inkscape:connector-curvature="0"
       id="path4367"
       style="fill:#000000"
       d="m 410.0533,104.06815 c -0.31346,-0.81687 -0.42539,-7.856432 -0.24872,-15.643465 0.30158,-13.292674 0.46033,-14.158225 2.59664,-14.158225 2.17196,0 2.26368,0.672422 2.01726,14.790195 -0.14198,8.134597 -0.26999,15.174165 -0.28442,15.643465 -0.0451,1.4641 -3.48059,0.93205 -4.08076,-0.63197 z M 586.26347,94.026423 c 1.40347,-2.239877 -0.99738,-8.951745 -3.20206,-8.951745 -1.38153,0 -2.84846,4.801289 -2.84846,9.322995 0,2.721359 4.27719,2.458926 6.05052,-0.37125 z m -17.07664,22.050757 c 0.33506,-1.72077 1.67446,-6.71247 2.97645,-11.09264 1.30199,-4.38017 2.94093,-10.523788 3.64207,-13.652471 1.82427,-8.140299 5.24021,-14.446938 7.58089,-13.996161 3.36698,0.648428 7.30268,9.863509 10.04505,23.519602 3.15826,15.72718 3.18084,16.07495 1.04303,16.07495 -2.22326,0 -3.62835,-2.85445 -4.60226,-9.34942 -1.09376,-7.29438 -2.77111,-8.496871 -8.14013,-5.83554 -4.23926,2.1013 -4.68725,2.88793 -7.19008,12.62513 -0.96021,3.73568 -1.77966,4.83525 -3.60352,4.83525 -1.96451,0 -2.25846,-0.52507 -1.7515,-3.1287 z m -55.97126,2.71324 c -1.00934,-1.2162 -1.0548,-3.45996 -0.17935,-8.85513 1.30083,-8.01674 1.56629,-20.280123 0.49917,-23.061003 -0.44197,-1.151728 -2.08031,-1.799609 -4.55082,-1.799609 -3.05692,0 -3.86025,-0.457584 -3.86025,-2.198743 0,-2.77882 2.03661,-3.38826 11.94592,-3.574569 11.97141,-0.225085 13.09547,-0.07046 13.85395,1.906153 1.00124,2.60915 -1.39198,3.645812 -6.96612,3.017533 0,0 -4.17358,-0.138061 -4.93515,2.132378 -1.62281,4.838075 -0.9317,15.28059 -0.9317,15.28059 -1.08245,17.75295 -1.86779,20.77666 -4.87565,17.1524 z m -66.33692,-0.57086 c -3.16324,-2.77736 -4.27728,-4.87511 -5.30397,-9.98732 -2.84523,-14.167494 -1.20206,-21.998027 6.01137,-28.647137 7.45319,-6.870113 13.6615,-7.354739 20.27837,-1.582997 4.40597,3.843249 0.55077,6.647289 -4.19942,3.054416 -6.50809,-4.922459 -16.70874,2.147471 -18.10877,12.550949 -0.95007,7.059829 1.12797,17.331539 4.20052,20.763159 3.88613,4.34028 11.31006,2.7759 14.79095,-3.11675 2.71993,-4.6045 2.36141,-6.53835 -1.5911,-8.58227 -3.96101,-2.04833 -3.89802,-4.119256 0.15691,-5.156585 6.13269,-1.56887 9.15474,4.087185 6.65023,12.446515 -2.01918,6.73941 -6.58652,10.59251 -13.32334,11.23985 -4.97083,0.47762 -5.98013,0.16286 -9.56175,-2.98183 z m -36.17197,1.56965 c -1.84249,-2.22007 -0.65716,-5.13415 2.08837,-5.13415 3.28389,0 5.36853,2.97443 3.58814,5.11967 -1.79974,2.16856 -3.88437,2.17388 -5.67651,0.0145 z M 379.05425,76.942723 c 1.93339,-1.822125 3.05232,-0.225965 6.08782,8.700809 1.40875,4.142851 2.97053,6.826232 3.97301,6.826232 1.77987,0 4.87957,-5.689024 8.05849,-14.790183 1.40177,-4.013205 2.59643,-5.688536 4.05647,-5.688536 3.41638,0 2.15169,5.467939 -4.3165,18.662579 -5.451,11.119666 -5.91828,12.717886 -6.01926,20.588306 -0.0867,6.75227 -0.46326,8.5328 -1.80488,8.5328 -2.04733,0 -3.10914,-4.41295 -3.28499,-13.65248 -0.0962,-5.05706 -1.08943,-8.963693 -3.83216,-15.073371 l -3.70223,-8.247127 c -0.75286,-1.677088 -0.18858,-4.942204 0.78423,-5.859029 z m -2.67773,1.660487 c 1.06405,0.68631 0.78322,3.025739 -0.22487,3.791882 -0.84083,0.639027 -5.46811,0.405744 -5.46811,0.405744 -10.60094,-0.0024 -11.18567,0.354944 -11.18567,6.824898 0,5.694083 1.27479,7.168905 5.29436,6.125091 2.62904,-0.682717 6.70982,2.179129 5.62051,3.941675 -0.44541,0.72066 -2.72509,1.31029 -5.06594,1.31029 -5.4485,0 -6.99083,1.62399 -6.96922,7.33821 0.0277,7.33608 0.82349,7.88745 9.81053,6.79748 10.47323,-1.27021 10.00057,-1.31259 10.43355,0.93561 0.24083,1.25052 -0.59728,2.34976 -2.25985,2.96396 -4.37037,1.61457 -18.40379,2.44929 -20.53082,1.22117 l 0,-2.2e-4 c -1.73383,-1.00108 -1.95287,-3.2858 -1.89608,-19.77699 0.0423,-12.329504 0.5138,-19.251021 1.39146,-20.433859 1.01691,-1.370517 3.72115,-1.828495 11.56659,-1.95914 3.2639,-0.147367 7.97522,-0.458683 9.48356,0.514199 z m -57.41797,21.7462 c 0.47041,-17.52908 0.96681,-22.835798 2.2568,-24.125787 2.70803,-2.708042 3.89929,1.449079 3.02539,10.557617 -0.42024,4.38017 -0.54005,8.603905 -0.26622,9.386072 0.7047,2.012911 15.47816,1.934884 17.1592,-0.09069 0.6905,-0.832024 1.59462,-5.925131 2.00916,-11.318017 0.7598,-9.884813 2.23441,-12.660218 4.97321,-9.360187 0.98028,1.181185 0.82953,4.726558 -0.61395,14.43813 -1.22542,8.244534 -1.67942,15.991112 -1.26281,21.546752 0.68114,9.08337 0.39066,10.32759 -2.18081,9.34082 -1.57804,-0.60556 -2.53396,-4.14924 -3.26799,-12.11479 -0.21992,-2.38651 -0.74338,-4.68265 -1.16326,-5.10253 -1.19479,-1.1948 -12.42851,-1.36091 -14.29325,-0.21133 -1.14993,0.70889 -1.852,3.80247 -2.24278,9.88245 -0.4766,7.41516 -0.90674,8.91482 -2.65229,9.24699 -1.97879,0.37654 -2.05316,-0.73237 -1.4804,-22.07557 z m 156.09723,22.40014 c -0.43112,-0.69755 -0.38954,-1.90625 0.0924,-2.68603 0.48192,-0.77977 0.93603,-10.24843 1.00912,-21.041466 0.0733,-10.793033 0.34897,-19.811176 0.61306,-20.040296 0.26407,-0.229131 5.47184,-0.730121 11.57278,-1.113321 10.38643,-0.652391 11.09264,-0.559022 11.09264,1.466325 0,2.157743 -1.03191,2.41382 -15.35904,3.811389 -1.96445,0.191642 -2.32139,1.182005 -2.61189,7.246671 -0.31461,6.568 -0.16742,7.048806 2.26379,7.395098 4.08803,0.582301 4.00355,4.18793 -0.13189,5.62957 -3.38744,1.18087 -3.50198,1.44462 -3.50198,8.06492 l 0,6.84412 5.11967,-0.69804 c 2.81584,-0.38392 7.42355,-1.01213 10.23938,-1.39606 4.66036,-0.6354 5.11966,-0.48426 5.11966,1.68488 0,2.47387 -0.97443,2.88473 -9.6705,4.07746 -13.98506,1.91813 -15.09551,1.97102 -15.84721,0.75478 z m 137.54597,0.93644 c -4.83539,-1.40649 -10.51236,-7.33018 -12.09852,-12.62433 -3.07763,-10.27222 2.99819,-29.486391 9.86938,-31.210947 5.12402,-1.286049 12.17901,5.672017 10.41417,10.271095 -1.04756,2.729918 -2.79034,2.128643 -4.73609,-1.634007 -2.55679,-4.9443 -5.68597,-4.442572 -8.66084,1.388666 -3.31911,6.506004 -4.15838,17.514263 -1.69802,22.272073 2.14453,4.14704 7.04654,7.05734 11.88721,7.05734 4.01911,0 5.59325,2.87056 2.48604,4.53349 -2.46094,1.31705 -2.75926,1.31492 -7.46333,-0.0533 z m 28.90227,-8.1688 c -5.39857,-5.64869 -10.32932,-9.95283 -10.9572,-9.56478 -0.75513,0.46672 -0.67317,3.19826 0.2421,8.06887 1.45475,7.74124 0.86104,10.50764 -2.01796,9.40286 -2.04,-0.78281 -2.7314,-6.29272 -3.48969,-27.810174 -0.52515,-14.901962 0.13397,-18.126716 3.0989,-15.161527 0.72766,0.727718 1.32896,3.985296 1.33623,7.239078 0.0198,8.831907 0.99268,8.763828 8.94447,-0.625851 5.3924,-6.367468 8.67677,-8.225181 8.67677,-4.907797 0,0.898722 -2.81583,4.862701 -6.2574,8.808853 -3.44157,3.946163 -6.25739,8.175372 -6.25739,9.398238 0,1.31609 4.17843,6.21897 10.23936,12.01468 9.84855,9.41756 12.51551,13.79231 8.24839,13.53017 -1.09505,-0.0672 -6.40801,-4.74395 -11.80658,-10.39262 z M 559.97748,94.51212 c 5.99587,-5.744416 3.32038,-10.575148 -5.85701,-10.575148 -3.62129,0 -4.64021,0.432281 -4.69277,1.990987 -0.0369,1.09504 -0.23115,4.038853 -0.43161,6.541805 -0.20046,2.502963 -0.10823,4.986384 0.20513,5.518734 1.0204,1.733924 7.52964,-0.365929 10.77626,-3.476378 z m -0.69835,23.10097 c 6.93123,-6.93123 3.82146,-14.79617 -5.58024,-14.11305 l -4.77289,0.3468 -0.33528,6.97855 c -0.25188,5.24254 0.12209,7.43593 1.5034,8.81722 2.73824,2.73826 4.89345,2.26204 9.18501,-2.02952 z m -13.1974,7.3812 c -2.20715,-0.62936 -2.75547,-1.43219 -2.44785,-3.58415 0.21801,-1.5252 0.47401,-11.73255 0.56885,-22.682986 l 0.17244,-19.909865 6.82624,0.200722 c 3.75443,0.110329 7.71412,0.238367 8.79928,0.284427 1.08517,0.04605 3.59441,1.532403 5.57608,3.303031 4.11922,3.680505 4.01743,6.183957 -0.52354,12.875437 l -2.7026,3.982511 2.67377,3.108423 c 3.51617,4.08781 3.47116,9.72756 -0.12308,15.4212 -4.76722,7.55179 -10.02679,9.50844 -18.81959,7.00125 z m 20.04817,33.11745 c -1.08837,-1.76104 -1.00161,-23.13862 0.0984,-24.23861 1.73108,-1.7311 3.61789,1.36342 3.92774,6.4418 0.64292,10.53807 -0.15286,18.71068 -1.82191,18.71068 -0.90167,0 -1.89358,-0.41126 -2.20421,-0.91387 z m 0.0513,19.49639 c -2.38911,-2.38909 1.32846,-8.34317 5.20927,-8.34317 2.58208,0 3.07089,2.35073 1.24203,5.97297 -1.474,2.91936 -4.71237,4.10915 -6.4513,2.3702 z M 450.76156,172.9625 c -1.26964,-2.97224 -2.64601,-8.98786 -3.05859,-13.36804 -0.41258,-4.38017 -1.31951,-10.69344 -2.01539,-14.02948 -1.03598,-4.9665 -0.97791,-6.24315 0.3205,-7.0456 3.03384,-1.87502 4.19073,1.23145 5.56346,14.93908 0.75799,7.5689 1.66125,14.49936 2.00724,15.40103 0.98639,2.57046 2.99718,1.17189 4.02654,-2.8006 1.12657,-4.34756 3.83354,-4.72056 5.63087,-0.77589 0.71276,1.56433 1.97194,2.84425 2.79818,2.84425 1.6087,0 1.77306,-0.58719 3.82131,-13.65247 0.73573,-4.69304 1.60255,-10.17875 1.92625,-12.19049 0.70209,-4.36336 3.26331,-6.96659 5.07337,-5.15655 0.86143,0.86143 0.51637,4.24891 -1.18592,11.64232 -1.32047,5.73507 -2.42946,12.30862 -2.46441,14.60786 -0.0829,5.45546 -3.70516,14.31957 -6.04182,14.78527 -1.0836,0.21598 -2.37867,-0.83101 -3.16638,-2.55983 -1.68564,-3.69956 -3.64904,-3.72951 -5.31141,-0.0811 -2.10797,4.62649 -5.29367,3.59733 -7.9238,-2.55984 z m 82.44988,5.80706 c -0.43019,-0.43019 -0.80248,-5.94451 -0.82732,-12.25405 -0.0249,-6.30953 -0.72923,-15.31164 -1.56529,-20.00468 -1.61226,-9.04997 -1.486,-10.23936 1.08706,-10.23936 1.75452,0 2.4723,2.08734 3.72199,10.82377 0.44632,3.12014 1.40811,5.67297 2.13734,5.67297 0.72923,0 5.49854,-3.46131 10.59847,-7.69181 5.09992,-4.23049 9.74465,-7.40009 10.32158,-7.04354 2.0587,1.27237 0.99154,3.81149 -2.64858,6.30185 -5.10243,3.49078 -13.36805,11.4964 -13.36805,12.94754 0,0.65782 0.96046,1.79583 2.13438,2.52895 2.49221,1.55643 12.6558,14.64074 12.6558,16.29272 0,0.61875 -0.9772,1.125 -2.17156,1.125 -1.32,0 -4.46953,-2.9241 -8.03161,-7.45676 -5.70675,-7.26173 -8.48545,-9.50276 -9.95744,-8.03076 -0.39681,0.3968 -0.75871,4.38279 -0.80422,8.85777 -0.076,7.48024 -1.19287,10.26004 -3.28255,8.17039 z m -14.9518,-27.08733 c 6.28338,-6.28335 0.55959,-14.69206 -6.03705,-8.86893 -1.78846,1.57874 -2.14316,2.99213 -1.71309,6.82622 0.64676,5.76607 3.32174,6.47111 7.75014,2.04271 z m -10.73403,25.30895 c -0.56419,-1.48395 -1.01054,-8.3423 -0.99189,-15.24076 0.0208,-7.70911 -0.49716,-13.53503 -1.34418,-15.11773 -1.89957,-3.54937 -0.93223,-5.32184 4.38485,-8.0344 6.02877,-3.07565 10.47203,-2.97523 13.55491,0.30634 4.33707,4.61658 2.45077,12.91081 -4.0058,17.61409 l -3.13013,2.28015 4.57314,4.4381 c 5.01374,4.86565 7.96214,10.65655 6.87204,13.49727 -1.11338,2.90141 -3.34427,1.30675 -6.03946,-4.3171 -2.469,-5.15183 -6.29021,-8.8407 -9.15784,-8.8407 -1.09547,0 -1.39826,1.95811 -1.16898,7.55949 0.32683,7.98465 -1.55553,11.09229 -3.54666,5.85525 z M 493.31,174.0828 c 2.16486,-1.42561 6.12707,-10.25157 6.1008,-13.58974 -0.0509,-6.47843 -7.3065,-17.39534 -11.56114,-17.39534 -2.05351,0 -5.42968,9.71089 -5.45449,15.68878 -0.0431,10.38914 5.84207,18.6368 10.91483,15.2963 z m -8.08504,2.95111 c -9.48164,-7.45826 -9.95067,-27.02085 -0.875,-36.49604 3.81536,-3.98334 4.99352,-3.92896 9.99359,0.46114 7.98103,7.00746 10.91066,16.44613 7.89627,25.44029 -4.10014,12.2338 -10.14551,15.99805 -17.01486,10.59461 z m -91.63772,-14.31076 c -0.81023,-9.22964 -2.02823,-17.176 -2.70665,-17.65855 -0.67847,-0.48259 -2.93624,-0.58009 -5.01732,-0.2167 -4.56059,0.79633 -7.75591,-1.20452 -5.76146,-3.60771 0.83621,-1.00756 3.75988,-1.55559 8.2989,-1.55559 3.85431,0 9.65329,-0.68623 12.88662,-1.52495 3.23333,-0.83871 6.43406,-1.18175 7.11273,-0.76231 2.3923,1.47852 -0.19864,4.39945 -4.55531,5.13552 -2.41791,0.40849 -4.83511,1.34267 -5.37155,2.07592 -0.53643,0.73326 -0.63531,8.50075 -0.2197,17.2611 0.4156,8.76034 0.53882,16.31187 0.27386,16.78116 -0.265,0.46931 -1.15347,0.85329 -1.97442,0.85329 -1.09761,0 -1.88241,-4.44072 -2.9657,-16.78118 z m 29.95212,13.63203 c 2.43892,-2.69497 6.44023,-11.65188 6.47102,-14.4853 0.0392,-3.60453 -6.14135,-14.30963 -9.40475,-16.28976 -2.74485,-1.66548 -3.14075,-1.64668 -5.23475,0.24835 -2.62469,2.3753 -5.81396,10.99408 -5.81396,15.71176 0,6.74839 6.14592,16.82639 10.26135,16.82639 1.04541,0 2.71991,-0.90514 3.72109,-2.01144 z m -8.41008,5.09611 c -4.7619,-3.20746 -8.75867,-10.21397 -9.68608,-16.98011 -1.4071,-10.26587 6.15682,-25.92429 12.52293,-25.92429 1.36672,0 4.09589,1.40791 6.0648,3.12869 4.278,3.73883 10.55589,15.33813 10.55464,19.50117 -9.3e-4,4.5407 -6.06326,16.34633 -10.16608,19.79863 -4.43057,3.72809 -4.45969,3.72959 -9.29021,0.47591 z m -81.45553,41.48036 c 11.63333,-6.23468 19.01857,-10.28205 33.26807,-24.15307 3.44766,-3.35609 56.95655,7.63491 111.63871,9.69582 59.36682,2.23748 82.51047,-2.06058 123.24882,-8.00291 23.5725,-3.43842 39.1794,-10.39101 61.43615,-25.03838 11.92494,-7.84791 14.68844,-10.50067 20.85485,-20.01919 9.27541,-14.31765 10.39242,-17.49356 10.81287,-30.74333 0.36101,-11.37639 0.15278,-12.78556 -3.19415,-21.61643 -1.96917,-5.195675 -5.9815,-14.183505 -8.91628,-19.972933 -4.7378,-9.346297 -7.15673,-12.509305 -14.50658,-18.315609 -9.22033,-7.283983 -26.23797,-14.437916 -36.0229,-16.071531 -3.3018,-0.55125 -10.518,-1.800953 -16.036,-2.77713 -21.20155,-3.750725 -87.51277,-6.523226 -122.51009,-5.122207 -6.57026,0.263017 -25.25709,0.294378 -41.5263,0.06963 -16.2692,-0.224704 -35.72399,0.151175 -43.23285,0.835284 -7.50886,0.684087 -18.23365,1.251917 -23.83279,1.261807 -11.69391,0.02071 -23.87852,1.487915 -43.29192,5.213051 -11.5728,2.220631 -15.64102,3.627568 -26.70664,9.236124 -7.91584,4.012075 -14.85706,8.438781 -17.63446,11.246201 -28.53743,32.038783 -20.14083,79.385613 9.86732,106.980953 2.0837,1.82952 10.49619,8.53801 16.6567,11.1006 7.28684,3.03111 23.20183,4.71662 23.20183,4.71662 0,0 -2.83533,3.79725 -4.44621,5.52868 -7.06524,7.59399 -16.58058,17.9384 -22.78062,21.19717 -4.72889,2.48552 -25.45677,18.30134 -25.14399,21.42849 0.18422,1.84174 20.96193,-6.35735 26.79813,-9.91129 2.53179,-1.54172 7.93103,-4.5866 11.99833,-6.76642 z m -47.11963,22.52558 c -1.76829,-5.55968 23.74732,-26.56812 25.97375,-28.45176 6.28309,-5.31571 12.6574,-9.56365 18.55973,-14.84906 2.19552,-1.96604 6.24906,-6.25459 6.24906,-6.25459 -6.46888,-2.48052 -15.06358,-3.31181 -21.02743,-7.40849 -32.33234,-22.20967 -54.14191,-66.16902 -31.80608,-110.183399 4.57299,-8.410396 14.24273,-17.161596 26.20946,-23.719778 17.95558,-9.840301 35.20612,-13.640597 67.55738,-14.882944 11.26329,-0.432531 21.24667,-1.269554 22.18528,-1.860045 1.03614,-0.651868 29.19369,-0.950422 71.67552,-0.759995 54.3689,0.243699 53.71641,0.610438 80.56545,1.335721 8.54672,0.230876 17.10429,0.338979 25.63155,0.959986 25.38858,1.908232 57.34318,4.764173 75.98623,12.823855 9.79645,4.248943 16.15305,8.56588 24.18265,16.423012 5.99547,5.866705 7.3686,8.12829 11.54096,19.008133 2.21897,5.786238 5.10924,13.080264 6.42279,16.208964 1.60434,3.82127 2.56694,9.11945 2.93256,16.14069 0.74716,14.34839 -1.76719,22.25613 -12.13635,38.16908 -12.90152,18.96504 -44.57762,37.03637 -68.04308,42.84427 -8.03444,1.94315 -15.37443,3.53299 -16.31107,3.53299 -0.93377,0 -60.70692,9.59455 -120.04718,8.84761 -56.98949,-0.71734 -113.65816,-11.79676 -113.69273,-10.89373 -0.0233,0.61002 -1.80368,2.38907 -3.95629,3.95342 -2.15259,1.56434 -0.88577,0.5127 -7.98842,5.95667 -1.3823,1.31321 -11.78222,8.88618 -24.41755,15.60955 -19.93675,10.60851 -45.06269,21.17088 -46.24619,17.44984 z"
       sodipodi:nodetypes="sssscsssssssssssssssssssssscssssssssssssssssscssccsssssssssssssscsscssssscccscscssssssssssscssccccccssssssscsssscccssssssssccscsssssssssscssscscssscssssssccssscsssccssccsssscsssscsssssssscssccssssssscsssssscsssssssssssscssssssscsssssssssssssssscscssssssssssssscssssssssssssssssssssccscassssssscscsscsaasssssssccsscss" />
    <path
       inkscape:connector-curvature="0"
       id="path4501"
       style="fill:#000000"
       d="m 138.8493,496.40226 c -1.06026,-1.71555 2.73299,-7.44503 4.92905,-7.44503 2.63233,0 3.2492,3.16621 1.18975,6.1065 -1.98795,2.83819 -4.81037,3.45561 -6.1188,1.33853 z m 271.32014,3.03757 c -2.4225,-2.42247 -2.4293,-4.11225 -0.02,-5.03667 2.1669,-0.83153 5.6091,1.59152 5.6091,3.9484 0,2.50958 -3.4883,3.18883 -5.5888,1.08827 z M 285.01699,476.50145 c 4.11316,-1.56382 5.24387,-6.21301 2.70507,-11.12252 -2.74738,-5.31285 -5.8681,-6.79951 -9.27052,-4.41636 -2.24398,1.57173 -2.69326,3.12576 -2.69326,9.31555 0,7.03809 0.1602,7.42911 3.04362,7.42911 1.674,0 4.47079,-0.5426 6.21509,-1.20578 z m 5.01396,20.89328 c -2.18636,-4.3507 -12.83396,-15.9375 -14.64564,-15.9375 -0.60057,0 -0.90297,3.21808 -0.672,7.15126 0.35302,6.01128 0.0712,7.22148 -1.76753,7.59167 -2.0125,0.40515 -2.1875,-1.20403 -2.1875,-20.11523 l 0,-20.55561 6.37782,-0.84605 c 7.89354,-1.04712 11.04311,0.7392 14.7293,8.35382 3.72421,7.69321 3.37296,10.5614 -1.90274,15.53702 l -4.54561,4.28706 3.78068,3.98552 c 3.79023,3.99563 7.81055,10.84073 7.81055,13.29847 0,3.09263 -5.03927,1.10618 -6.97733,-2.75043 z M 255.57073,473.9494 c 4.07591,-2.95257 5.18755,-4.55357 5.18755,-7.47118 0,-4.68435 -4.43657,-7.84959 -10.22404,-7.29428 -4.10168,0.39358 -4.1596,0.48735 -4.8782,7.8983 -1.1097,11.4443 1.29596,13.11053 9.91469,6.86716 z m 2.78711,22.11511 c -2.35834,-5.50179 -8.9112,-12.10728 -12.01083,-12.10728 -1.2358,0 -1.82412,2.19398 -2.09158,7.79995 -0.29192,6.11828 -0.82382,7.88594 -2.46708,8.19883 -1.9065,0.363 -2.05942,-1.53969 -1.7002,-21.15354 0.454,-24.78828 0.48014,-24.84523 11.40184,-24.84523 5.51142,0 7.12087,0.57634 10.54707,3.77689 3.64835,3.40807 3.97529,4.29304 3.34797,9.0625 -0.54599,4.15104 -1.78798,6.26117 -5.78599,9.83045 -5.69161,5.08124 -6.06183,6.12235 -2.88299,8.10756 2.86715,1.79057 9.42581,13.84067 8.41949,15.46894 -1.69564,2.74358 -4.58339,0.98005 -6.7777,-4.13907 z m -149.67125,-8.66978 c 0.44568,-7.73437 0.81287,-17.31451 0.81599,-21.28921 0.004,-5.46952 0.49229,-7.41347 2.00684,-7.99465 3.12146,-1.19782 3.9516,1.58558 3.27852,10.99265 l -0.62162,8.68794 5.48347,-0.83777 c 7.8465,-1.19877 8.60849,-2.19021 8.60849,-11.20074 0,-8.21003 1.49457,-10.83685 4.47186,-7.85956 1.41849,1.41849 1.49665,3.76413 0.4318,12.9604 -0.71507,6.17564 -1.13488,15.44719 -0.93291,20.60344 0.33851,8.64169 0.17314,9.375 -2.11425,9.375 -2.21815,0 -2.49735,-0.90466 -2.63082,-8.52432 -0.0821,-4.68838 -0.71371,-9.0887 -1.40349,-9.77849 -1.8645,-1.8645 -11.28506,0.99099 -12.01929,3.64319 -0.32882,1.1878 -0.40889,4.12837 -0.17791,6.53462 0.59517,6.20045 -0.39557,8.75 -3.40022,8.75 -2.53588,0 -2.58472,-0.38234 -1.79646,-14.0625 z m 197.90502,14.47916 c -0.45833,-0.45832 -0.83333,-5.27938 -0.83333,-10.71345 0,-8.76432 -0.44887,-10.69041 -3.97458,-17.05494 -2.49076,-4.49628 -3.6607,-7.99276 -3.13382,-9.36577 1.17588,-3.06431 2.90625,-1.59164 6.52822,5.55597 1.71726,3.38885 3.81594,6.1594 4.66374,6.15678 0.84779,-0.003 3.92911,-3.09638 6.84739,-6.875 4.79107,-6.20358 9.06905,-8.86295 9.06905,-5.63774 0,0.67789 -3.375,5.84001 -7.5,11.4714 -7.4334,10.14794 -7.5,10.31462 -7.5,18.76748 0,6.27385 -0.44063,8.52861 -1.66667,8.52861 -0.91667,0 -2.04167,-0.375 -2.5,-0.83334 z M 225.1834,476.37613 c 1.30855,-2.11728 -0.61887,-9.91889 -2.45051,-9.91889 -1.49901,0 -3.22461,5.10049 -3.22461,9.53125 0,2.01922 4.47772,2.32507 5.67512,0.38764 z m -16.92512,24.34513 c 0,-1.19312 0.89618,-5.31249 1.99153,-9.15417 4.36775,-15.31891 5.47877,-19.6736 6.14428,-24.08315 0.90189,-5.97567 4.27746,-10.21119 7.23386,-9.07671 2.81259,1.07929 5.42514,6.08731 6.50435,12.46821 0.46109,2.72624 1.63431,9.0112 2.60716,13.96659 2.40742,12.26263 2.32585,15.65579 -0.36387,15.13779 -2.3105,-0.44495 -3.79558,-4.37161 -3.99271,-10.55704 -0.17547,-5.50526 -2.76924,-7.38056 -7.24729,-5.23977 -2.74643,1.31296 -4.05978,3.42495 -6.08526,9.78562 -1.67024,5.24511 -3.3266,8.25453 -4.6875,8.51661 -1.31997,0.2542 -2.10455,-0.40342 -2.10455,-1.76398 z m 164.38286,-6.32939 c 0.5222,-5.3953 0.8942,-14.52359 0.8266,-20.28508 -0.2477,-21.09706 6.0656,-20.43137 15.7488,1.6606 2.6965,6.15182 5.5527,11.40182 6.3472,11.66665 1.035,0.345 1.4445,-3.4577 1.4445,-13.41186 0,-11.36915 0.3505,-14.02789 1.929,-14.63359 1.0609,-0.40711 2.2741,-0.39499 2.696,0.0269 1.5245,1.52448 0.2437,32.43629 -1.5187,36.65432 -2.7821,6.6586 -6.0163,5.5222 -9.2097,-3.23597 -4.3147,-11.83343 -10.0693,-23.87658 -11.409,-23.87658 -0.7209,0 -1.2762,4.8274 -1.3302,11.56249 -0.1317,16.43179 -1.2412,22.67568 -4.1282,23.23075 -2.1967,0.42238 -2.2854,-0.17216 -1.3963,-9.35861 z m -188.52573,5.86329 c -2.10938,-2.50688 -3.58351,-6.4792 -4.56598,-12.30398 -1.30099,-7.71312 -1.18938,-9.34599 1.0803,-15.80361 1.39216,-3.96095 3.92761,-9.0325 5.63432,-11.27012 3.0942,-4.05671 9.9929,-8.17021 13.70214,-8.17021 2.51085,0 10.79209,7.2366 10.79209,9.43073 0,3.11573 -2.27427,3.09782 -6.0121,-0.0474 -2.04809,-1.72334 -4.84873,-3.13335 -6.22365,-3.13335 -3.96234,0 -9.6288,6.27248 -12.42154,13.75 -2.17625,5.82687 -2.39368,8.0184 -1.42619,14.37499 1.66523,10.9409 5.89511,13.97581 13.78918,9.89363 2.89302,-1.49604 4.1791,-1.62784 5.25042,-0.53804 2.55151,2.59549 -4.6776,7.51941 -11.03971,7.51941 -4.49889,0 -5.98506,-0.6428 -8.55928,-3.70207 z m 177.00173,-3.50389 c 2.2105,-2.44255 4.5633,-11.28318 4.6106,-17.3241 0.031,-3.99247 -4.835,-14.01485 -8.1342,-16.75294 -4.668,-3.87408 -10.58526,8.19322 -10.58526,21.58693 0,8.78996 0.25085,9.71193 3.29358,12.10535 4.03308,3.17242 8.15968,3.31922 10.81528,0.38476 z m -10.33395,6.26652 c -2.39253,-1.20206 -5.68445,-4.15431 -7.31535,-6.56056 -2.66104,-3.92614 -2.89611,-5.32869 -2.2912,-13.67039 0.77298,-10.65912 5.42114,-21.26459 11.2014,-25.55766 3.1972,-2.37454 3.7741,-2.4381 6.7741,-0.74628 1.8314,1.03279 5.1498,5.43685 7.5157,9.97434 3.8499,7.38363 4.1886,8.88636 3.7121,16.46895 -0.7425,11.81219 -7.1374,22.28673 -13.602,22.2791 -0.9046,-10e-4 -3.6022,-0.98545 -5.99475,-2.1875 z M 90.271072,498.30808 c 7.430435,-7.43044 11.901748,-28.22304 7.510435,-34.92505 -3.00867,-4.59179 -8.633595,-4.3041 -13.180513,0.67414 -6.50777,7.1251 -9.26314,26.91137 -4.90357,35.21256 1.66168,3.16405 6.926808,2.68519 10.573648,-0.96165 z m -13.534928,5.84054 c -1.64691,-1.95724 -3.70023,-6.71269 -4.56294,-10.56769 -1.40336,-6.27089 -1.28814,-8.0483 1.09401,-16.87666 3.18789,-11.81449 6.08611,-16.91168 11.54214,-20.29953 5.019468,-3.11677 11.468613,-2.35519 15.769606,1.86224 7.24688,7.10609 5.36903,28.13556 -3.642463,40.79106 -2.83862,3.98647 -10.799575,8.64919 -14.767303,8.64919 -1.34127,0 -3.78614,-1.60137 -5.43305,-3.55861 z m 179.022136,36.61875 c 9.28125,-0.98216 32.34375,-2.37648 51.25,-3.09846 33.43554,-1.27684 40.18227,-2.05165 64.99996,-7.46473 6.5313,-1.42456 15.5313,-3.09499 20,-3.71206 37.9504,-5.24049 53.7669,-10.08518 61.9779,-18.98421 8.2216,-8.91054 9.2745,-11.0109 9.2276,-18.40675 -0.1096,-17.28079 -7.8333,-35.68747 -19.5373,-46.56043 -5.5985,-5.20091 -23.8726,-16.09731 -28.2838,-16.86494 -2.2052,-0.38372 -6.58,-1.50145 -9.7219,-2.48384 -45.39617,-9.99944 -101.41558,-7.3837 -127.41246,-7.74492 -61.69757,-0.90266 -79.44504,-0.60683 -92.79904,1.54684 -6.69573,1.07986 -17.10198,1.98073 -23.125,2.00197 -6.02304,0.0213 -15.16971,0.59425 -20.32596,1.27338 -5.15625,0.67913 -14.44879,1.76917 -20.65007,2.4223 -15.2535,1.6065 -49.144816,12.05068 -69.059216,21.28176 -8.70558,4.03536 -16.28236,12.02564 -21.78932,22.97842 -4.68139,9.31083 -4.97212,10.51603 -4.53255,18.78974 0.66761,12.56617 3.482007,17.51265 14.15616,24.88042 9.251181,6.38557 19.725389,12.04616 28.963123,15.8329 2.405127,0.98591 -11.411034,11.37686 -22.880242,18.94036 -7.211086,4.75543 -14.14229,7.69127 -13.503155,8.66563 0.431083,0.65718 7.370769,-1.22611 16.08236,-4.82923 15.948732,-6.59642 38.256187,-17.27738 40.4065,-16.81317 5.42544,1.17124 11.11491,2.07462 17.1814,2.75202 7.5625,0.84445 17.33851,2.35239 21.72445,3.35097 5.3426,1.21639 21.37889,2.18823 48.58971,2.94463 22.3384,0.62095 40.96865,1.49507 41.40056,1.94249 0.85101,0.88157 11.28971,0.14951 37.66029,-2.64109 z m -36.46643,7.5841 c -0.46277,-0.47781 -19.02527,-1.37793 -41.25,-2.00024 -22.22471,-0.62232 -43.22107,-1.68625 -46.65857,-2.36427 -3.4375,-0.67802 -14.96876,-2.39792 -25.62501,-3.82199 -6.279496,-0.54539 -8.03424,-0.26463 -14.352086,-1.86215 -2.672182,-0.67569 -23.481493,8.81861 -42.22904,15.30213 -13.982161,4.83549 -27.134467,7.24347 -29.056227,6.55629 -1.975081,-0.70624 10.885255,-9.4709 22.690057,-17.67751 10.191961,-7.08538 19.597111,-13.75479 17.988472,-14.46291 -8.102116,-3.56654 -14.089217,-7.26231 -20.264012,-11.37381 -11.80253,-7.92874 -15.4483,-12.18885 -18.02938,-21.06742 -3.08206,-10.60193 -1.96128,-19.39664 3.94554,-30.96042 7.0908,-13.88167 16.9419,-22.83889 30.73768,-27.94859 5.74421,-2.12755 14.38151,-5.35053 19.19401,-7.16218 23.332243,-8.78335 60.346626,-15.38977 87.641066,-15.64241 5.42241,-0.0503 12.95268,-0.59251 16.73393,-1.20516 23.06813,-3.73756 49.74103,-4.76948 67.4608,-2.60991 10.44525,1.273 35.03183,1.24779 49.4142,1.45526 34.03013,0.4909 74.58431,-2.80439 106.87446,6.21296 4.4687,1.27798 9.9765,2.69172 12.2395,3.14163 5.127,1.01929 25.0108,13.13974 30.3316,18.48908 5.8775,5.90904 13.2679,16.0488 14.2909,19.60742 0.494,1.71875 1.6997,4.39568 2.6793,5.94872 1.8848,2.98822 2.7028,7.81387 3.7993,22.41325 l 0.675,8.98699 -5.4453,7.7914 c -6.1963,8.8659 -16.614,16.38488 -26.6368,19.22521 -3.4697,0.98325 -15.3085,3.26466 -26.3085,5.06981 -11,1.80515 -30.9688,5.44894 -44.375,8.0973 -22.23305,4.39208 -26.79161,4.88278 -51.87503,5.58403 -15.125,0.42283 -33.125,1.33033 -40,2.01666 -6.875,0.68632 -18.40625,1.76365 -25.625,2.39405 -7.21875,0.63041 -16.5,1.50381 -20.625,1.94089 -4.125,0.43707 -7.87863,0.40373 -8.34142,-0.0741 z"
       sodipodi:nodetypes="ssssccsccssssssssscscssscssssssssssssssssssssscsscsssssssssssscsssscssssscsssssssssssssssscsssscsssssccccssssssssssssccccssscssssssccssssssssssssssssssssscccsssssssssssssssssscsscssssscsssscssscssccscsssssssscc" />
  </g>
  <g
     inkscape:groupmode="layer"
     id="layer3"
     inkscape:label="Surrounding texr">
    <flowRoot
       xml:space="preserve"
       id="flowRoot5298"
       style="font-style:normal;font-variant:normal;font-weight:normal;font-stretch:normal;font-size:40px;line-height:100%;font-family:segment;-inkscape-font-specification:segment;letter-spacing:-3.07999992px;word-spacing:0px;fill:#000000;fill-opacity:1;stroke:none;stroke-width:1px;stroke-linecap:butt;stroke-linejoin:miter;stroke-opacity:1"><flowRegion
         id="flowRegion5300"><rect
           id="rect5302"
           width="300"
           height="80"
           x="40"
           y="635.17859"
           style="font-style:normal;font-variant:normal;font-weight:normal;font-stretch:normal;line-height:100%;font-family:segment;-inkscape-font-specification:segment;letter-spacing:-3.07999992px" /></flowRegion><flowPara
         id="flowPara5304" /></flowRoot>    <g
       transform="matrix(1.5082854,0,0,1.5082854,-69.235684,-330.04482)"
       style="font-style:italic;font-variant:normal;font-weight:normal;font-stretch:normal;font-size:45px;line-height:100%;font-family:'Digital-7 Italic';-inkscape-font-specification:'Digital-7 Italic, Italic';letter-spacing:0px;word-spacing:0px;fill:#000000;fill-opacity:1;stroke:none;stroke-width:1px;stroke-linecap:butt;stroke-linejoin:miter;stroke-opacity:1"
       id="flowRoot4157" />
    <path
       id="rect4165"
       style="color:#000000;clip-rule:nonzero;display:inline;overflow:visible;visibility:visible;opacity:1;isolation:auto;mix-blend-mode:normal;color-interpolation:sRGB;color-interpolation-filters:linearRGB;solid-color:#000000;solid-opacity:1;fill:#000000;fill-opacity:1;fill-rule:evenodd;stroke:none;stroke-width:1;stroke-linecap:butt;stroke-linejoin:round;stroke-miterlimit:10;stroke-dasharray:none;stroke-dashoffset:0;stroke-opacity:1;color-rendering:auto;image-rendering:auto;shape-rendering:auto;text-rendering:auto;enable-background:accumulate"
       d="m 36.057137,679.9938 293.359883,0 c 6.90287,0 12.46004,5.60105 12.46004,12.55841 l 0,33.47203 c 0,6.95736 -5.55717,12.55841 -12.46004,12.55841 l -293.359883,0 c -6.902865,0 -12.460046,-5.60105 -12.460046,-12.55841 l 0,-33.47203 c 0,-6.95736 5.557181,-12.55841 12.460046,-12.55841 z m 281.295273,27.35999 1.74101,1.93445 -2.1279,1.93446 -12.57398,0 -1.74102,-1.93446 2.12791,-1.93445 12.57398,0 z m 2.65988,2.41807 0.87051,0.96723 -1.35412,13.54122 q -0.67705,1.93445 -2.65988,2.41807 l -1.06396,-3.86891 1.0156,-10.15591 3.19185,-2.9017 z m -4.11072,16.92652 -14.50845,0 q -1.88609,-0.48362 -2.17626,-2.41807 l 4.014,-1.45084 11.60675,0 1.06396,3.86891 z m 1.64429,-30.95136 -11.55839,0 -3.72384,-1.45083 q 0.67707,-1.93446 2.65988,-2.41807 l 14.46009,0 -1.83774,3.8689 z m -0.0484,10.15592 1.01559,-10.15592 1.83774,-3.8689 q 1.88609,0.48361 2.17627,2.41807 l -1.35412,13.54122 -1.06396,0.96722 -2.61152,-2.90169 z m -22.62941,3.86892 0.87051,0.96723 -1.35412,13.54122 q -0.67707,1.93445 -2.65988,2.41807 l -1.06396,-3.86891 1.01559,-10.15591 3.19186,-2.9017 z m -4.11072,16.92652 -14.50845,0 q -1.88609,-0.48362 -2.17627,-2.41807 l 4.01401,-1.45084 11.60675,0 1.06396,3.86891 z m -16.58799,-3.3853 1.2574,-12.57399 1.06395,-0.96723 2.61152,2.9017 -0.91887,9.18867 -4.014,1.45085 z m 18.23228,-27.56606 -11.5584,0 -3.72382,-1.45083 q 0.67704,-1.93446 2.65988,-2.41807 l 14.46007,0 -1.83773,3.8689 z m -11.70348,0.96725 -0.91886,9.18867 -3.19186,2.90169 -0.87052,-0.96722 1.2574,-12.574 3.72384,1.45086 z m 11.65511,9.18867 1.0156,-10.15592 1.83774,-3.8689 q 1.88609,0.48361 2.17627,2.41807 l -1.35413,13.54122 -1.06396,0.96722 -2.61152,-2.90169 z m -25.28928,1.45085 1.74102,1.93445 -2.12791,1.93446 -12.57397,0 -1.74102,-1.93446 2.1279,-1.93445 12.57398,0 z m 2.65988,2.41807 0.87052,0.96723 -1.35413,13.54122 q -0.67706,1.93445 -2.65988,2.41807 l -1.06395,-3.86891 1.01559,-10.15591 3.19185,-2.9017 z m -4.11071,16.92652 -14.50845,0 q -1.8861,-0.48362 -2.17627,-2.41807 l 4.014,-1.45084 11.60676,0 1.06396,3.86891 z m 1.64429,-30.95136 -11.5584,0 -3.72383,-1.45083 q 0.67705,-1.93446 2.65988,-2.41807 l 14.46008,0 -1.83773,3.8689 z m -0.0484,10.15592 1.01559,-10.15592 1.83774,-3.8689 q 1.88609,0.48361 2.17626,2.41807 l -1.35412,13.54122 -1.06395,0.96722 -2.61152,-2.90169 z m -30.65742,-2.32135 6.91569,-11.70347 q 2.90169,0 3.67548,1.93445 l -8.94688,14.99206 -2.17627,0 0.53198,-5.22304 z m -2.22463,11.41331 -6.91569,11.70348 q -2.90169,0 -3.67548,-1.93446 l 8.94688,-14.99206 2.17627,0 -0.53198,5.22304 z m -21.95234,-7.15749 -2.12791,1.93445 -1.74101,-1.93445 1.11232,-11.12314 3.86892,0 -1.11232,11.12314 z m 7.06078,1.93445 0.87051,0.96723 -1.35412,13.54122 q -0.67706,1.93445 -2.65988,2.41807 l -1.06395,-3.86891 1.01559,-10.15591 3.19185,-2.9017 z m -2.46643,-14.02484 -11.55841,0 -3.72382,-1.45083 q 0.67706,-1.93446 2.65988,-2.41807 l 14.46008,0 -1.83773,3.8689 z m -11.70348,0.96725 -0.91887,9.18867 -3.19186,2.90169 -0.8705,-0.96722 1.2574,-12.574 3.72383,1.45086 z m 11.65512,9.18867 1.01559,-10.15592 1.83773,-3.8689 q 1.8861,0.48361 2.17627,2.41807 l -1.35412,13.54122 -1.06395,0.96722 -2.61152,-2.90169 z m -13.25105,6.77062 -1.0156,10.15591 -1.83773,3.86891 q -1.8861,-0.48362 -2.17626,-2.41807 l 1.35411,-13.54122 1.06395,-0.96723 2.61153,2.9017 z m -11.84479,-16.92654 -10.63953,0 -1.741,-1.93445 2.1279,-1.93445 10.63953,0 1.741,1.93445 -2.1279,1.93445 z m -0.0484,10.15592 1.01559,-10.15592 1.59593,-1.45083 2.17626,2.41808 -1.11231,11.12314 -1.06395,0.96722 -2.61152,-2.90169 z m 2.51479,3.86892 0.87051,0.96723 -1.11232,11.12314 -2.65988,2.41808 -1.30576,-1.45084 1.0156,-10.15591 3.19185,-2.9017 z m -18.28064,-0.96723 -0.87051,-0.96722 1.11232,-11.12314 2.65988,-2.41808 1.30576,1.45083 -1.01559,10.15592 -3.19186,2.90169 z m 14.84697,15.95929 -2.12791,1.93446 -10.63952,0 -1.74101,-1.93446 2.12791,-1.93445 10.63953,0 1.741,1.93445 z m -12.33218,-12.09036 -1.01559,10.15591 -1.59593,1.45084 -2.17627,-2.41808 1.11232,-11.12314 1.06395,-0.96723 2.61152,2.9017 z m -10.06409,14.02482 -15.95929,0 q -1.88611,-0.48362 -2.17627,-2.41807 l 4.014,-1.45084 13.0576,0 1.06396,3.86891 z m -18.03883,-3.3853 1.25739,-12.57399 1.06395,-0.96723 2.61153,2.9017 -0.91887,9.18867 -4.014,1.45085 z m 19.68312,-27.56606 -13.00924,0 -3.72384,-1.45083 q 0.67706,-1.93446 2.65988,-2.41807 l 15.91093,0 -1.83773,3.8689 z m -13.15432,0.96725 -0.91888,9.18867 -3.19186,2.90169 -0.8705,-0.96722 1.2574,-12.574 3.72384,1.45086 z m -11.72615,29.98411 -3.86892,0 0.38688,-3.86891 3.86892,0 -0.38688,3.86891 z m -28.67459,-3.3853 1.2574,-12.57399 1.06395,-0.96723 2.61152,2.9017 -0.91886,9.18867 -4.01401,1.45085 z m 18.23228,-27.56606 -11.60675,0 -3.72384,-1.45083 0.2418,-2.41807 15.47568,0 1.74102,1.93445 -2.12791,1.93445 z m -11.70348,0.96725 -0.91887,9.18867 -3.19186,2.90169 -0.87051,-0.96722 1.2574,-12.574 3.72384,1.45086 z m 11.65512,9.18867 1.01558,-10.15592 1.59594,-1.45083 2.17627,2.41808 -1.11232,11.12314 -1.06395,0.96722 -2.61152,-2.90169 z m 2.51479,3.86892 0.87052,0.96723 -1.11232,11.12314 -2.65989,2.41808 -1.30576,-1.45084 1.01559,-10.15591 3.19186,-2.9017 z m -3.48202,14.99206 -2.12791,1.93446 -15.42731,0 0.24181,-2.41807 4.014,-1.45084 11.5584,0 1.74101,1.93445 z m -22.34791,1.93446 -15.959297,0 q -1.886111,-0.48362 -2.176275,-2.41807 l 4.014005,-1.45084 13.057607,0 1.06396,3.86891 z m -18.038861,-3.3853 1.257398,-12.57399 1.063963,-0.96723 2.611521,2.9017 -0.918869,9.18867 -4.014013,1.45085 z m 19.683131,-27.56606 -13.00923,0 -3.723836,-1.45083 q 0.677064,-1.93446 2.65988,-2.41807 l 15.910936,0 -1.83775,3.8689 z m -13.154325,0.96725 -0.918861,9.18867 -3.191857,2.90169 -0.87051,-0.96722 1.257401,-12.574 3.723827,1.45086 z m -13.634165,10.63952 1.741016,1.93445 -2.127905,1.93446 -12.573984,0 -1.741013,-1.93446 2.127905,-1.93445 12.573981,0 z m 2.659881,2.41807 0.870515,0.96723 -1.354128,13.54122 q -0.677052,1.93445 -2.659882,2.41807 l -1.063953,-3.86891 1.015591,-10.15591 3.191857,-2.9017 z M 75.05517,703.48487 87.822608,691.87812 q 2.901683,0 3.675472,1.93445 l -13.831385,12.57398 -2.901693,0 0.290168,-2.90168 z m -1.886097,9.18869 -1.015592,10.15591 -1.837737,3.86891 q -1.886097,-0.48362 -2.176267,-2.41807 l 1.354122,-13.54122 1.063953,-0.96723 2.611521,2.9017 z m -2.514798,-3.86893 -0.870507,-0.96722 1.354122,-13.54122 q 0.677061,-1.93446 2.659882,-2.41807 l 1.063952,3.8689 -1.015591,10.15592 -3.191858,2.90169 z m -15.568619,0.96723 2.176266,0 5.948463,14.99206 q -1.160676,1.93446 -4.062366,1.93446 l -4.59434,-11.70348 0.531977,-5.22304 z m 0.677059,-6.19027 6.915693,-11.70347 q 2.901688,0 3.675474,1.93445 l -8.946876,14.99206 -2.176267,0 0.531976,-5.22304 z m -2.224627,11.41331 -6.915693,11.70348 q -2.90169,0 -3.675473,-1.93446 l 8.946875,-14.99206 2.176267,0 -0.531976,5.22304 z m 0.67706,-6.19027 -2.176267,0 -5.948462,-14.99206 q 1.160676,-1.93445 4.062364,-1.93445 l 4.594341,11.75184 -0.531976,5.17467 z"
       inkscape:connector-curvature="0" />
    <g
       transform="matrix(2.0041949,0,0,2.0041949,-826.07241,-87.498224)"
       style="font-style:normal;font-weight:normal;font-size:40px;line-height:0%;font-family:sans-serif;letter-spacing:-3.07999992px;word-spacing:0px;fill:#000000;fill-opacity:1;stroke:none;stroke-width:1px;stroke-linecap:butt;stroke-linejoin:miter;stroke-opacity:1"
       id="flowRoot4194" />
    <path
       id="rect4202"
       style="color:#000000;clip-rule:nonzero;display:inline;overflow:visible;visibility:visible;opacity:1;isolation:auto;mix-blend-mode:normal;color-interpolation:sRGB;color-interpolation-filters:linearRGB;solid-color:#000000;solid-opacity:1;fill:#000000;fill-opacity:1;fill-rule:evenodd;stroke:none;stroke-width:1;stroke-linecap:butt;stroke-linejoin:round;stroke-miterlimit:10;stroke-dasharray:none;stroke-dashoffset:0;stroke-opacity:1;color-rendering:auto;image-rendering:auto;shape-rendering:auto;text-rendering:auto;enable-background:accumulate"
       d="m 731.90743,10.877989 366.77697,0 c 8.8071,0 15.8973,7.146169 15.8973,16.022801 l 0,62.240108 c 0,8.87663 -7.0902,16.022802 -15.8973,16.022802 l -366.77697,0 c -8.80711,0 -15.8973,-7.146172 -15.8973,-16.022802 l 0,-62.240108 c 0,-8.876632 7.09019,-16.022801 15.8973,-16.022801 z m 345.42627,44.227665 2.6236,2.915191 -3.2067,2.915194 -18.9487,0 -2.6237,-2.915194 3.2067,-2.915191 18.9488,0 z m -18.22,7.287982 4.3728,0 17.0539,18.948752 q -1.7491,2.91519 -6.1219,2.91519 l -15.7421,-17.491154 0.4373,-4.372788 z m -1.5305,0.728797 -1.5304,15.304762 -2.7695,5.830383 q -2.8423,-0.7288 -3.2795,-3.643989 l 2.0406,-20.406349 1.6033,-1.457595 3.9355,4.372788 z m 20.042,-25.507935 -17.4183,0 -5.6117,-2.186395 q 1.0203,-2.915191 4.0084,-3.643991 l 21.791,0 -2.7694,5.830386 z m -0.073,15.304761 1.5305,-15.304761 2.7695,-5.830386 q 2.8423,0.7288 3.2795,3.643991 l -2.0406,20.406348 -1.6034,1.457597 -3.9355,-4.372789 z m -17.564,-13.847164 -1.3847,13.847164 -4.8101,4.372789 -1.3118,-1.457597 1.8948,-18.948751 5.6118,2.186395 z m -17.5714,16.033559 2.6237,2.915191 -3.2067,2.915194 -18.9488,0 -2.6236,-2.915194 3.2067,-2.915191 18.9487,0 z m 0,29.151924 -24.0503,0 q -2.8423,-0.7288 -3.2796,-3.643989 l 6.049,-2.186394 19.6776,0 1.6033,5.830383 z m -27.1841,-5.101585 1.8948,-18.948753 1.6034,-1.457595 3.9355,4.372788 -1.3847,13.847165 -6.049,2.186395 z m 29.6621,-41.541495 -19.6047,0 -5.6118,-2.186395 q 1.0204,-2.915191 4.0084,-3.643991 l 23.9775,0 -2.7694,5.830386 z m -19.8234,1.457597 -1.3847,13.847164 -4.81,4.372789 -1.3119,-1.457597 1.8949,-18.948751 5.6117,2.186395 z m -40.29689,24.050338 -1.53048,15.304762 -2.76944,5.830383 q -2.84231,-0.7288 -3.27958,-3.643989 l 2.04063,-20.406349 1.60335,-1.457595 3.93552,4.372788 z m -0.0729,15.304762 17.49119,0 5.6117,2.186394 q -1.0203,2.915189 -4.0083,3.643989 l -21.86403,0 2.76944,-5.830383 z m -3.71688,-21.135147 -1.31185,-1.457597 2.04065,-20.406348 q 1.02032,-2.915191 4.00839,-3.643991 l 1.60336,5.830386 -1.53048,15.304761 -4.81007,4.372789 z m -34.10198,5.830385 -1.53048,15.304762 -2.76944,5.830383 q -2.84231,-0.7288 -3.27958,-3.643989 l 2.04063,-20.406349 1.60335,-1.457595 3.93552,4.372788 z m -0.0729,15.304762 17.49115,0 5.61174,2.186394 q -1.02031,2.915189 -4.00838,3.643989 l -21.86395,0 2.76944,-5.830383 z m -3.71688,-21.135147 -1.31185,-1.457597 2.04065,-20.406348 q 1.02032,-2.915191 4.00839,-3.643991 l 1.60336,5.830386 -1.53048,15.304761 -4.81007,4.372789 z m -14.17276,-4.372789 1.53048,-15.304761 2.76941,-5.830386 q 2.84233,0.7288 3.27961,3.643991 l -2.04063,20.406348 -1.60336,1.457597 -3.93551,-4.372789 z m 3.86262,5.101586 1.31185,1.457597 -2.04064,20.406348 q -1.02033,2.915198 -4.00839,3.643988 l -1.60335,-5.830382 1.53046,-15.30476 4.81007,-4.372791 z m -23.82601,-2.186394 -3.20671,2.915194 -2.62367,-2.915194 1.67625,-16.762356 5.83038,0 -1.67625,16.762356 z m 10.64045,2.915194 1.31185,1.457595 -2.04063,20.406349 q -1.02032,2.915189 -4.00839,3.643989 l -1.60336,-5.830383 1.53046,-15.304762 4.81007,-4.372788 z m -3.71686,-21.135147 -17.41828,0 -5.61174,-2.186395 q 1.02031,-2.915191 4.00839,-3.643991 l 21.79107,0 -2.76944,5.830386 z m -17.63691,1.457597 -1.38472,13.847164 -4.81007,4.372789 -1.31184,-1.457597 1.89488,-18.948751 5.61175,2.186395 z m 17.56404,13.847164 1.53046,-15.304761 2.76944,-5.830386 q 2.84231,0.7288 3.27958,3.643991 l -2.04063,20.406348 -1.60335,1.457597 -3.9355,-4.372789 z m -19.96908,10.203174 -1.53048,15.304762 -2.76944,5.830383 q -2.84231,-0.7288 -3.27958,-3.643989 l 2.04063,-20.406349 1.60336,-1.457595 3.93551,4.372788 z m -37.08728,21.135145 -24.05034,0 q -2.84231,-0.7288 -3.27959,-3.643989 l 6.04902,-2.186394 19.67755,0 1.60336,5.830383 z m -27.18418,-5.101585 1.89489,-18.948753 1.60335,-1.457595 3.9355,4.372788 -1.3847,13.847165 -6.04904,2.186395 z m 29.66208,-41.541495 -19.60465,0 -5.61175,-2.186395 q 1.02032,-2.915191 4.00839,-3.643991 l 23.97745,0 -2.76944,5.830386 z m -19.82331,1.457597 -1.3847,13.847164 -4.81006,4.372789 -1.31185,-1.457597 1.89487,-18.948751 5.61174,2.186395 z m -20.36763,13.847164 1.53048,-15.304761 2.76944,-5.830386 q 2.84231,0.7288 3.27959,3.643991 l -2.04064,20.406348 -1.60335,1.457597 -3.93552,-4.372789 z m 3.86265,5.101586 1.31182,1.457597 -2.04063,20.406348 q -1.02031,2.915198 -4.00839,3.643988 l -1.60335,-5.830382 1.53048,-15.30476 4.81007,-4.372791 z m -17.19395,-2.915191 2.62367,2.915191 -3.20671,2.915194 -18.94874,0 -2.62369,-2.915194 3.20671,-2.915191 18.94876,0 z m -18.21996,7.287982 4.3728,0 17.05387,18.948752 q -1.74912,2.91519 -6.12191,2.91519 l -15.74203,-17.491154 0.43727,-4.372788 z m -1.53048,0.728797 -1.53046,15.304762 -2.76944,5.830383 q -2.84231,-0.7288 -3.27958,-3.643989 l 2.04063,-20.406349 1.60335,-1.457595 3.9355,4.372788 z m 20.04195,-25.507935 -17.41826,0 -5.61174,-2.186395 q 1.02031,-2.915191 4.00838,-3.643991 l 21.79105,0 -2.76943,5.830386 z m -0.0729,15.304761 1.53048,-15.304761 2.76944,-5.830386 q 2.8423,0.7288 3.27958,3.643991 l -2.04063,20.406348 -1.60336,1.457597 -3.93551,-4.372789 z m -17.56405,-13.847164 -1.3847,13.847164 -4.81006,4.372789 -1.31185,-1.457597 1.89487,-18.948751 5.61174,2.186395 z m -17.57135,16.033559 2.62369,2.915191 -3.20672,2.915194 -18.94876,0 -2.62367,-2.915194 3.20671,-2.915191 18.94875,0 z m 0,29.151924 -24.05034,0 q -2.84231,-0.7288 -3.27959,-3.643989 l 6.04902,-2.186394 19.67755,0 1.60336,5.830383 z m -27.18416,-5.101585 1.89486,-18.948753 1.60336,-1.457595 3.93552,4.372788 -1.38472,13.847165 -6.04902,2.186395 z m 29.66208,-41.541495 -19.60467,0 -5.61175,-2.186395 q 1.02032,-2.915191 4.00839,-3.643991 l 23.97747,0 -2.76944,5.830386 z m -19.82331,1.457597 -1.38472,13.847164 -4.81007,4.372789 -1.31184,-1.457597 1.89488,-18.948751 5.61175,2.186395 z"
       inkscape:connector-curvature="0" />
  </g>
</svg>
