<?xml version="1.0" encoding="UTF-8" standalone="no"?>
<!-- Created with Inkscape (http://www.inkscape.org/) -->

<svg
   xmlns:dc="http://purl.org/dc/elements/1.1/"
   xmlns:cc="http://creativecommons.org/ns#"
   xmlns:rdf="http://www.w3.org/1999/02/22-rdf-syntax-ns#"
   xmlns:svg="http://www.w3.org/2000/svg"
   xmlns="http://www.w3.org/2000/svg"
   xmlns:sodipodi="http://sodipodi.sourceforge.net/DTD/sodipodi-0.dtd"
   xmlns:inkscape="http://www.inkscape.org/namespaces/inkscape"
   width="11.6in"
   height="11.3in"
   viewBox="0 0 1044 1017"
   id="svg5449"
   version="1.1"
   inkscape:version="0.91 r13725"
   sodipodi:docname="10x12.svg">
  <defs
     id="defs5451" />
  <sodipodi:namedview
     id="base"
     pagecolor="#ffffff"
     bordercolor="#666666"
     borderopacity="1.0"
     inkscape:pageopacity="0.0"
     inkscape:pageshadow="2"
     inkscape:zoom="0.49497475"
     inkscape:cx="604.92649"
     inkscape:cy="458.85158"
     inkscape:document-units="px"
     inkscape:current-layer="layer1"
     showgrid="false"
     units="in"
     inkscape:window-width="1920"
     inkscape:window-height="1016"
     inkscape:window-x="0"
     inkscape:window-y="27"
     inkscape:window-maximized="1" />
  <metadata
     id="metadata5454">
    <rdf:RDF>
      <cc:Work
         rdf:about="">
        <dc:format>image/svg+xml</dc:format>
        <dc:type
           rdf:resource="http://purl.org/dc/dcmitype/StillImage" />
        <dc:title></dc:title>
      </cc:Work>
    </rdf:RDF>
  </metadata>
  <g
     inkscape:label="Layer 1"
     inkscape:groupmode="layer"
     id="layer1"
     transform="translate(0,-35.36215)">
    <path
       style="fill:#000000"
       d="m 50.566583,1035.5289 c -23.216267,-1.5799 -43.0749169,-10.4137 -46.0757797,-20.4966 -1.4323229,-4.8125 -2.6269429,-4.5811 22.6533717,-4.3899 l 22.687297,0.1717 18.285784,-52.37596 c 10.057189,-28.8068 18.223814,-52.43081 18.148074,-52.49774 -0.07579,-0.067 -1.426102,-0.74542 -3.000748,-1.50762 -1.574645,-0.7622 -2.862975,-1.67853 -2.862975,-2.03638 0,-0.87973 2.298065,-6.77651 2.640882,-6.77651 0.150098,0 1.554256,0.60904 3.120376,1.35349 1.566178,0.74446 2.889874,1.2708 2.941596,1.16963 0.584092,-1.14242 1.543544,-4.10865 1.543544,-4.77206 0,-0.46713 -2.237645,-1.85441 -4.972525,-3.08294 -2.73488,-1.22844 -5.213511,-2.46787 -5.508062,-2.7542 -0.609262,-0.59206 2.534442,-9.29122 3.357619,-9.29122 0.292421,0 1.51388,0.45508 2.714432,1.0113 2.520619,1.16791 2.577813,1.13005 3.886994,-2.57058 0.765233,-2.16302 1.300195,-2.78504 2.395632,-2.78504 1.307972,0 3.391659,-5.43712 28.687005,-74.85594 15.00212,-41.17085 30.70521,-84.25265 34.89579,-95.73736 l 7.61923,-20.88124 7.15977,-7.07215 7.15976,-7.07223 0,-13.98598 0,-13.98587 10.39702,0 10.39708,0 40.83483,-15.09378 40.83493,-15.09372 0,-5.95951 0,-5.9595 73.53841,0 73.53839,0 -0.1562,-33.88117 -0.1562,-33.8811 -50.62916,-8.41882 -50.62919,-8.4187 -0.18656,2.56003 -0.18656,2.56011 -4.63529,-0.1946 -4.63529,-0.19442 -0.155,-43.54428 -0.15505,-43.54419 -2.88014,1.21349 c -2.43509,1.02598 -6.58028,1.62283 -9.63385,1.38716 -0.59515,-0.046 -0.73177,-2.29371 -0.60276,-9.91756 l 0.16681,-9.85829 3.91769,0.2379 c 2.15476,0.13073 4.83239,0.65709 5.95023,1.16962 1.11784,0.51241 2.27059,0.93172 2.56157,0.93172 0.29905,0 0.52915,-21.80338 0.52915,-50.12675 l 0,-50.12675 3.05167,0 c 2.67895,0 41.12244,-12.42548 85.908,-27.7667 l 6.68717,-2.29064 0.40814,-8.53092 c 0.22446,-4.69203 0.55027,-9.28284 0.72399,-10.20178 0.29329,-1.5513 -0.72797,-2.41282 -14.26148,-12.03047 -8.01762,-5.6977 -15.70775,-11.15106 -17.08921,-12.1184 l -2.51175,-1.75889 -4.4792,12.95382 c -3.47299,10.0439 -4.71772,12.95394 -5.54096,12.95394 -0.58392,0 -1.06169,-0.28716 -1.06169,-0.63811 0,-0.35089 1.60823,-5.23825 3.5739,-10.86078 1.96573,-5.62247 3.38964,-10.42417 3.16433,-10.67032 -0.22527,-0.24609 -3.59654,-1.85646 -7.49164,-3.57835 -3.89512,-1.72197 -7.08208,-3.50938 -7.08208,-3.97199 0,-1.09253 3.50828,-10.52942 4.19934,-11.29572 0.30503,-0.33826 3.63782,0.78137 7.84909,2.63694 5.58398,2.46034 7.4314,3.02302 7.7934,2.37355 0.26092,-0.46822 1.77145,-4.66426 3.35682,-9.32462 3.2423,-9.53128 3.73021,-10.48644 4.83658,-9.46818 0.5852,0.53854 -0.16541,3.31969 -3.37542,12.5059 -2.2704,6.49727 -4.05655,11.89252 -3.96917,11.98945 0.0874,0.0969 10.58863,-0.77536 23.33619,-1.93834 22.69448,-2.07036 24.06869,-2.11871 65.95647,-2.32316 l 42.7791,-0.20872 2.57626,-2.80369 2.57621,-2.80364 0,-18.04822 0,-18.04834 2.53639,-2.86579 c 2.44586,-2.76344 2.66963,-2.86583 6.2642,-2.86583 2.60206,0 3.82352,-0.27674 4.04487,-0.91651 0.17452,-0.50406 1.08501,-1.12224 2.02338,-1.37375 0.93843,-0.25146 2.73477,-0.75633 3.99194,-1.12192 l 2.28579,-0.66468 -0.39183,-6.4831 c -0.62857,-10.39849 1.49556,-19.66786 5.32593,-23.24187 3.60034,-3.35936 4.00507,-2.72948 7.48848,11.65536 1.72383,7.11828 3.23995,13.05964 3.36932,13.20302 0.12941,0.14352 1.11341,-0.0786 2.18684,-0.49357 1.10413,-0.42676 2.15546,-0.50066 2.42109,-0.17008 0.25821,0.32133 1.312,4.02633 2.34184,8.23316 2.03167,8.29965 1.95225,8.95251 -1.17325,9.64568 -1.14624,0.25413 -1.74928,0.7339 -1.57154,1.25015 1.20257,3.49208 5.95133,24.69623 5.61456,25.06973 -0.81902,0.90822 -4.92155,0.3304 -7.29564,-1.02751 -4.01561,-2.29691 -8.45209,-8.26656 -12.02966,-16.18683 -0.91321,-2.02177 -1.74329,-3.77898 -1.84461,-3.90486 -0.10122,-0.12596 -1.66991,0.25004 -3.48595,0.83547 -4.22802,1.36295 -5.82846,1.36032 -5.82846,-0.01 0,-0.59073 -0.33902,-0.93402 -0.75343,-0.76284 -0.41436,0.17116 -1.77053,0.71501 -3.01364,1.2084 l -2.26022,0.89701 0,13.04048 0,13.04042 2.53639,2.86585 2.5364,2.86578 53.67547,0 53.67543,0 10.50287,-6.68352 10.50288,-6.68359 8.97367,0 8.97368,0 6.86924,4.05618 6.8692,4.05621 12.06295,-0.14766 12.06295,-0.14754 4.64336,7.95476 c 3.82208,6.54767 4.70297,8.56458 4.98035,11.40258 l 0.33695,3.44787 11.31597,-14.96528 c 6.22383,-8.23081 11.44655,-15.34646 11.60609,-15.81238 0.15955,-0.46599 -3.36942,-5.3587 -7.84218,-10.87259 -5.33026,-6.57118 -8.01193,-10.37078 -7.78314,-11.02792 0.38503,-1.10562 1.37547,-16.37351 1.41672,-21.83842 0.0242,-3.18347 0.22986,-3.67359 2.58771,-6.1616 l 2.56156,-2.70297 -1.09468,-1.8587 c -2.26921,-3.85293 -6.38705,-14.05095 -7.36245,-18.23338 -1.14123,-4.89392 -1.42455,-11.4794 -0.69704,-16.20746 0.4629,-3.00872 0.65477,-3.2617 3.674,-4.84559 3.89211,-2.04174 6.81377,-2.10695 13.61703,-0.304 10.86469,2.87925 25.59934,12.42984 35.01179,22.69376 10.74669,11.71877 17.52626,25.46291 17.61318,35.70703 0.077,9.08459 -3.84708,12.12096 -15.5572,12.0376 -6.68638,-0.0473 -10.27421,-0.9853 -18.32294,-4.78853 l -5.06283,-2.39239 -1.70164,2.27519 c -0.93585,1.25138 -1.69894,2.57589 -1.69578,2.94351 0.006,0.36762 1.49355,2.41889 3.31206,4.55842 3.29311,3.87459 3.31477,3.88691 5.44188,3.10854 6.51469,-2.38421 11.62441,4.00341 10.70816,13.38627 l -0.29363,3.00763 10.82749,13.32438 c 5.95513,7.3284 10.69674,13.64442 10.53691,14.03549 -0.35192,0.86133 -14.24219,14.59451 -15.07153,14.90102 -0.32242,0.11919 -3.80439,-3.74549 -7.73769,-8.58826 l -7.15143,-8.80491 -1.06312,2.77591 c -2.95583,7.71736 -3.19508,6.43386 3.98888,21.39711 3.54878,7.39157 6.70135,13.60986 7.00576,13.81852 0.31488,0.21575 0.55356,8.42152 0.55356,19.02816 l 0,18.6488 2.26022,0.65002 c 1.24313,0.35745 5.32618,1.45185 9.07349,2.43191 5.51337,1.44195 6.77767,1.99231 6.62683,2.88462 -0.14411,0.85214 -2.20556,1.55456 -9.07355,3.09142 l -8.88699,1.98869 0,14.55313 c 0,11.74523 0.15638,14.55314 0.81068,14.55314 2.58202,0 4.36775,6.32535 5.26466,18.6482 0.95433,13.11273 -0.17544,28.81211 -2.49725,34.70321 -0.93997,2.38491 -1.35259,2.81539 -2.35865,2.46131 -1.18603,-0.41738 -1.21944,-0.16224 -1.21944,9.31606 0,5.35996 -0.24145,10.26755 -0.53663,10.90585 -0.29507,0.63837 -1.13,4.76977 -1.85531,9.18091 -3.93838,23.95312 -18.4227,59.94565 -38.12555,94.73961 -5.69963,10.06523 -5.91982,10.59175 -5.02269,12.01201 2.82514,4.47251 -0.5064,12.21803 -10.10961,23.50431 l -2.21219,2.59983 0.006,9.43062 0.005,9.43064 12.90189,-23.96467 c 7.09614,-13.18062 13.65812,-24.83987 14.58226,-25.90954 2.34132,-2.70994 5.38376,-3.49482 9.97068,-2.57251 3.16789,0.63705 40.69483,14.90832 65.90268,25.06246 14.02165,5.64822 17.67118,8.26886 18.97137,13.62284 0.68726,2.8304 1.79807,25.45983 1.82363,37.15391 0.01,4.41115 0.21681,8.33784 0.46038,8.72591 0.24358,0.38812 1.98186,0.72215 3.86292,0.74228 4.75522,0.0512 8.60638,2.56897 10.25694,6.70645 0.65949,1.65336 1.06434,3.57777 0.89955,4.27657 -0.26091,1.10632 0.0432,1.27041 2.35623,1.27041 l 2.65587,0 0,5.71564 c 0,4.70156 0.24063,6.18305 1.35617,8.34928 1.06883,2.07572 1.71306,2.63476 3.04106,2.63886 2.00577,0.006 4.64371,2.67443 4.64371,4.69721 0,0.776 -0.29069,2.01326 -0.64595,2.74934 -0.52627,1.09042 -0.27502,2.02451 1.35612,5.04197 1.59199,2.94511 2.49429,3.88909 4.40508,4.60862 1.32157,0.49767 2.74553,1.42446 3.16432,2.05951 0.95254,1.44457 0.98716,4.39153 0.0636,5.41568 -0.5285,0.58597 0.0929,2.23691 2.56158,6.80601 2.85526,5.28454 3.4682,6.03378 4.94424,6.04354 1.97356,0.0134 4.64376,2.67405 4.64376,4.62793 0,0.73455 -0.29057,2.04283 -0.64577,2.90709 -0.55772,1.35734 -0.21869,2.36403 2.48658,7.38346 1.9167,3.55615 3.51883,5.81179 4.12803,5.81179 1.49043,0 3.67636,1.92256 4.31984,3.7994 0.41394,1.20738 0.30481,2.27685 -0.40059,3.9253 -0.94604,2.21068 -0.91441,2.42048 1.30285,8.63259 1.6244,4.55108 2.56415,6.36686 3.29495,6.36686 0.56237,0 1.73711,0.6233 2.61053,1.38519 1.80244,1.57218 2.14774,4.78342 0.75198,6.99309 -0.74065,1.17255 -0.57684,2.04634 1.43359,7.64754 2.0352,5.67013 2.46141,6.37868 4.12418,6.85655 3.32306,0.95477 4.84333,5.37371 2.73684,7.95482 -0.91136,1.11667 -0.81518,1.65388 1.3787,7.69731 2.08029,5.73092 2.56882,6.55929 4.14336,7.02617 0.98168,0.29117 2.12429,1.044 2.53904,1.67297 1.00594,1.5255 0.95796,4.87196 -0.0887,6.1824 -0.73108,0.91537 -0.51837,1.9623 1.60614,7.90578 2.24917,6.29181 2.57979,6.85067 4.05271,6.85067 2.00559,0 4.22485,2.52905 4.22485,4.81465 0,0.9464 -0.50253,2.40894 -1.11662,3.24996 -1.10034,1.50679 -1.08254,1.62277 1.21604,7.92723 2.1073,5.77972 2.49026,6.40831 3.96307,6.50378 1.81524,0.11759 4.37571,2.95802 4.37571,4.85414 0,0.66513 -0.56548,2.00656 -1.2567,2.98088 l -1.25672,1.77158 2.26253,6.33883 c 1.67187,4.68397 2.54193,6.33887 3.33262,6.33887 0.58859,0 1.80854,0.70428 2.71103,1.56504 1.88463,1.79771 2.23143,5.1957 0.7031,6.8904 -0.84853,0.94097 -0.76501,1.51029 0.87795,5.98338 1.62688,4.42954 1.98501,4.9435 3.44453,4.9435 3.2647,0 5.37748,4.71816 3.43307,7.6667 -0.70591,1.07044 -0.60967,1.77096 0.70794,5.15739 0.90493,2.32565 1.29828,4.13689 0.96752,4.4554 -0.30647,0.29519 -2.72712,1.546 -5.37912,2.77949 -2.652,1.23362 -4.90847,2.3086 -5.01428,2.38894 -0.10587,0.0803 0.14175,1.38307 0.55028,2.89503 0.80129,2.96581 1.20797,3.04672 4.88607,0.97247 0.89517,-0.50482 1.78994,-0.91785 1.98836,-0.91785 0.4583,0 2.6819,5.39293 2.69945,6.54722 0.01,0.47638 -1.31816,1.55027 -2.9455,2.38631 l -2.95882,1.52014 15.02576,43.06194 c 8.26417,23.68411 16.50613,47.27261 18.31533,52.41898 l 3.28944,9.3571 22.9167,-0.2227 22.9169,-0.2227 0,1.9298 c 0,1.0614 -0.8007,3.3297 -1.7792,5.0407 -6.9581,12.1663 -33.635,19.9836 -60.99613,17.8741 -19.98065,-1.5408 -34.37488,-5.4972 -43.13229,-11.8558 -3.93336,-2.856 -5.73834,-5.9327 -5.48398,-9.3479 l 0.18823,-2.5273 24.79373,-0.3342 24.79374,-0.334 -16.95824,-48.57114 c -9.32704,-26.71409 -17.12135,-48.75019 -17.32064,-48.96907 -0.19923,-0.21887 -1.55541,0.20234 -3.01365,0.936 -1.45824,0.73364 -2.95352,1.34053 -3.32283,1.34851 -0.6588,0.0147 -2.64348,-4.90177 -2.64348,-6.54786 0,-0.46023 1.28276,-1.44662 2.8506,-2.19185 1.5678,-0.74522 2.94274,-1.45714 3.05541,-1.58201 0.46583,-0.51656 -1.33078,-5.70411 -1.97558,-5.70411 -0.38533,0 -3.2389,1.20297 -6.34138,2.67335 -3.1024,1.47044 -5.82789,2.67341 -6.0566,2.67341 -0.44466,0 -3.58704,-7.671 -3.58704,-8.75643 0,-0.35638 1.21588,-1.22596 2.70194,-1.93235 l 2.70193,-1.28427 -1.14134,-2.9527 c -0.95271,-2.46456 -1.00859,-3.10451 -0.33781,-3.87165 0.67238,-0.7689 0.2669,-2.40005 -2.483,-9.98718 l -3.28662,-9.06811 -9.47458,-0.98465 c -8.70563,-0.90477 -9.54798,-0.89577 -10.37876,0.11013 -0.83625,1.01282 -2.03468,0.95649 -15.97229,-0.74976 -8.28752,-1.01461 -15.13604,-1.87091 -15.21892,-1.90284 -0.0829,-0.032 -0.15067,-0.64135 -0.15067,-1.35394 0,-1.4502 -0.49131,-1.56586 -11.7097,-2.75453 -4.01872,-0.42581 -6.83844,-1.04021 -7.23276,-1.5759 -0.42143,-0.57257 -3.65217,-1.15754 -9.28913,-1.68184 -7.73206,-0.71916 -8.71662,-0.69215 -9.3423,0.25604 -0.62752,0.95095 -4.59952,0.2689 -38.65485,-6.63778 l -37.95709,-7.6977 -29.70082,0 -29.70077,0 0,14.03551 0,14.03548 -50.33652,0 -50.33653,0 1.74612,3.84309 c 4.40756,9.70074 9.77566,26.51782 13.00316,40.73603 3.10235,13.66717 5.46648,34.56769 5.05006,44.64652 l -0.1933,4.6785 -41.73896,0.17168 -41.73896,0.17168 0,23.37966 0,23.37978 22.15028,0.1753 22.15031,0.1752 0.18817,2.5273 c 0.76909,10.3276 -19.12867,19.027 -48.50522,21.2068 -24.91913,1.8491 -48.89971,-4.1613 -58.65855,-14.7017 -1.5656,-1.6911 -3.18206,-4.2018 -3.59215,-5.5797 -1.43065,-4.8069 -2.58784,-4.5813 22.26695,-4.3387 l 22.30267,0.2178 -3.5e-4,-23.25189 -2.9e-4,-23.25174 -42.04035,0.19333 -42.04031,0.19359 -0.18057,-7.68613 c -0.48352,-20.5824 5.74514,-50.20301 15.81103,-75.19017 2.22128,-5.51389 4.18523,-10.40129 4.3643,-10.86077 0.25901,-0.66455 -9.98105,-0.83546 -50.06668,-0.83546 l -50.39233,0 0,-14.03548 0,-14.03551 -29.68437,0 -29.68443,0 -37.96745,7.70306 c -34.18079,6.93492 -38.03771,7.59673 -38.67128,6.63588 -0.63144,-0.95758 -1.59279,-0.98459 -9.34672,-0.26345 -5.59722,0.52058 -8.86909,1.11092 -9.28477,1.67513 -0.38595,0.52411 -3.26886,1.15961 -7.23274,1.59468 -11.54982,1.26747 -11.71409,1.30597 -11.71409,2.74245 0,0.71263 -0.0679,1.32194 -0.15073,1.35387 -0.0828,0.032 -6.93134,0.88228 -15.21886,1.88949 -13.89937,1.68926 -15.13834,1.74694 -15.97229,0.74344 -0.82762,-0.99572 -1.70084,-1.00594 -10.31787,-0.12033 l -9.41372,0.96741 -3.34599,9.09169 c -2.83907,7.71428 -3.22359,9.24357 -2.53819,10.09423 0.67597,0.83903 0.66814,1.36945 -0.0484,3.25141 -1.25976,3.30954 -1.10282,3.79027 1.62544,4.97862 2.1384,0.93151 2.4325,1.29716 2.12747,2.64504 -0.5882,2.5985 -2.82399,7.83897 -3.34455,7.83897 -0.26799,0 -3.21961,-1.32514 -6.55909,-2.9446 l -6.07171,-2.94466 -0.94684,2.62398 c -0.52073,1.44317 -0.94678,2.88597 -0.94678,3.2062 0,0.32024 1.15269,1.09285 2.56158,1.71691 4.04216,1.79056 4.13736,1.99002 2.73493,5.73202 -0.68097,1.81712 -1.54101,3.29721 -1.91119,3.28915 -0.37017,-0.008 -1.86614,-0.61492 -3.32438,-1.34858 -1.45824,-0.73366 -2.786946,-1.1836 -2.952706,-0.9998 -0.165711,0.18382 -7.94822,22.21986 -17.294374,48.96908 l -16.993081,48.63494 24.767586,0.3341 24.767525,0.3341 0.16421,2.6736 c 0.21098,3.4355 -1.33073,6.234 -4.95945,9.0024 -8.06548,6.1535 -23.912959,10.5901 -42.95972,12.0269 -8.644156,0.6522 -10.39332,0.6778 -16.736941,0.2463 z M 135.4006,855.15745 c 4.3514,-0.34527 5.87663,-0.70256 5.87663,-1.37667 0,-0.50067 0.61025,-1.05045 1.35613,-1.22168 4.09099,-0.93907 27.06023,-3.12855 29.3739,-2.8 1.49678,0.21269 6.36211,-0.044 10.81195,-0.57098 4.44982,-0.52659 8.31481,-0.80372 8.58886,-0.61589 0.2741,0.18784 0.49833,0.76917 0.49833,1.2918 0,0.72491 0.60754,0.87092 2.56156,0.61577 1.40889,-0.18401 5.25626,-0.61577 8.54966,-0.95951 4.27956,-0.44662 6.1339,-0.91394 6.49919,-1.63764 0.29252,-0.57968 1.81154,-1.20399 3.5528,-1.46011 2.17078,-0.31933 3.50277,-0.96849 4.65143,-2.26688 0.88521,-1.00069 13.0011,-10.62554 26.92414,-21.3886 13.92298,-10.76312 25.38588,-19.63094 25.47298,-19.70625 0.36776,-0.31793 -7.05789,-5.68947 -7.86523,-5.68947 -0.48682,0 -1.16156,-0.37593 -1.49931,-0.83546 -2.08535,-2.83647 -61.7887,-109.96573 -61.73813,-110.78012 0.0345,-0.55144 -1.47449,-4.53652 -3.35272,-8.85576 l -3.41487,-7.85321 -3.48577,0 -3.48572,0 0,11.22841 c 0,6.17564 0.23194,11.51415 0.51544,11.86332 0.29765,0.36666 -12.0534,35.08176 -29.23234,82.16326 -16.36131,44.84061 -29.74777,81.64119 -29.74777,81.77909 0,0.13796 0.61024,0.0915 1.35612,-0.10322 0.74588,-0.1946 4.00063,-0.56377 7.23274,-0.82034 z m 783.12546,-0.14024 c -0.21995,-0.64329 -13.44562,-36.96013 -29.39033,-80.70412 l -28.9903,-79.5345 0.13967,-12.86593 0.13968,-12.86587 -3.52518,0 -3.5251,0 -3.24157,7.1849 c -1.78286,3.95161 -3.28937,7.94721 -3.34777,8.879 -0.0585,0.93183 -14.05384,26.56258 -31.10071,56.95723 -22.67769,40.43413 -31.29225,55.26848 -32.10419,55.28324 -0.61024,0.0117 -2.70418,1.26057 -4.65315,2.77655 l -3.5436,2.75624 26.35151,20.43289 c 14.49325,11.23797 26.68044,20.9352 27.08253,21.54929 0.42309,0.6461 2.00194,1.30343 3.74726,1.56013 1.72082,0.25324 3.23556,0.87864 3.52718,1.45639 0.36522,0.7237 2.21961,1.19102 6.49913,1.63764 3.29345,0.34374 7.14076,0.7755 8.54965,0.95951 1.95403,0.25515 2.56162,0.1092 2.56162,-0.6157 0,-0.52263 0.22422,-1.10396 0.49833,-1.2918 0.27405,-0.1879 4.13904,0.0892 8.58888,0.61588 4.44977,0.5266 9.31517,0.78361 10.81194,0.57099 2.31367,-0.32854 25.2829,1.86093 29.37391,2.79999 0.74587,0.17123 1.35612,0.7198 1.35612,1.21905 0,0.66814 1.70975,1.07868 6.47931,1.55598 3.56365,0.35664 6.84737,0.69437 7.29725,0.75051 0.54113,0.0675 0.68254,-0.29366 0.41793,-1.06749 z M 774.41818,790.61323 c -0.18558,-0.65702 11.59965,-22.29299 30.21696,-55.4737 16.78665,-29.91811 30.93311,-54.91573 31.43657,-55.55041 0.50345,-0.63459 1.1008,-1.02675 1.32738,-0.87142 0.22666,0.15534 2.0212,-1.88195 3.98791,-4.5272 l 3.5758,-4.80948 -0.17004,-7.47051 -0.16996,-7.4705 -39.00735,-14.41819 c -21.45409,-7.93005 -39.21085,-14.41819 -39.45944,-14.41819 -0.24859,0 -0.45202,38.17888 -0.45202,84.84202 l 0,84.8421 3.76707,3.00113 3.76708,3.00111 0.74219,-4.79978 c 0.40813,-2.63988 0.60523,-5.28455 0.43785,-5.87698 z m -497.68103,7.2647 3.77036,-2.83525 0,-84.99927 0,-84.99928 -39.78009,14.70574 -39.78007,14.70573 0,7.67909 0,7.6791 3.3935,4.43573 c 1.86642,2.43952 3.78994,4.50011 4.27433,4.579 0.48446,0.0787 0.94925,0.2411 1.03289,0.36053 0.0837,0.11949 14.03536,24.96862 31.00384,55.22021 20.26945,36.13685 30.79973,55.5083 30.7002,56.47624 -0.21276,2.07043 0.75418,9.82763 1.22503,9.82763 0.21433,0 2.08623,-1.27583 4.16001,-2.83525 z M 841.60449,625.84709 c 0.48848,-0.48999 -1.18494,-39.37781 -1.80096,-41.85195 -1.23885,-4.97516 -2.47436,-5.59218 -42.41266,-21.18071 -28.74995,-11.22163 -36.74713,-14.07431 -39.4391,-14.06837 -3.59849,0.007 -4.77859,1.71742 -17.55362,25.42502 l -12.40842,23.02736 19.30919,0.47805 c 10.62008,0.26288 20.59749,0.50941 22.17214,0.54767 1.57465,0.0383 2.86298,0.3281 2.86298,0.64393 0,1.52338 1.99319,2.69671 3.90525,2.29901 1.53225,-0.31884 2.16467,-0.12518 2.80371,0.85838 1.24161,1.91102 2.07896,2.2642 3.72369,1.57085 1.26484,-0.53323 1.73195,-0.33185 3.05778,1.31812 1.34863,1.67841 1.7794,1.85711 3.11739,1.29296 2.18828,-0.92258 2.37569,-0.86191 3.30854,1.07094 0.7487,1.55131 1.08219,1.68396 3.30429,1.31455 2.21247,-0.36795 2.55713,-0.23364 3.28867,1.28209 0.8912,1.84651 1.55316,2.02616 3.86862,1.05 1.33815,-0.56421 1.65482,-0.40007 2.58011,1.3367 1.1838,2.22237 1.27192,2.25379 3.5811,1.28025 1.48352,-0.62547 1.80872,-0.48814 3.06796,1.29615 1.29012,1.82798 1.56457,1.93541 3.26506,1.27801 1.68143,-0.64999 1.98151,-0.54386 3.1816,1.1251 1.1474,1.59563 1.5936,1.77728 3.32808,1.35484 1.73522,-0.42262 2.18056,-0.24092 3.33141,1.35957 1.22261,1.70032 1.48359,1.78742 3.27687,1.0942 1.83728,-0.71016 2.0065,-0.63875 2.96491,1.25163 1.01688,2.00579 1.66537,2.13308 4.56947,0.89735 0.64849,-0.27592 1.29196,0.2533 2.01485,1.65721 0.80614,1.56552 1.35262,1.96471 2.2676,1.65622 0.66299,-0.22347 1.32151,-0.52275 1.46349,-0.66513 z"
       id="path5113"
       inkscape:connector-curvature="0" />
    <g
       id="g100-9-2"
       transform="matrix(-0.49341739,2.2587913,-2.0369924,-0.54714339,27.270158,618.22415)">
      <path
         d="m 0,0 c 0.423,-0.123 1.341,0.251 1.429,-0.202 -1.632,-0.819 -3.077,-1.823 -4.897,-2.45 -0.035,-0.279 1.038,-0.41 0.407,-0.616 -1.88,-2.13 -5.525,-2.498 -7.958,-4.081 -0.231,-1.059 -1.172,-1.412 -2.042,-1.835 -0.415,-0.287 0.202,-0.703 -0.202,-1.226 -1.664,-1.533 -4.586,-1.811 -6.327,-3.264 -0.508,-0.15 0.673,-0.615 0,-1.018 -0.546,-0.547 -1.292,-0.887 -2.245,-1.024 -0.615,-0.368 0.581,-0.623 0.204,-1.427 -1.141,0.22 -2.082,0.638 -2.858,1.225 -0.157,-0.706 1.711,-1.144 2.041,-2.042 -0.187,-2.67 -1.554,-6.595 -3.672,-8.571 -0.256,-2.836 -2.284,-5.465 -2.859,-8.368 -0.102,-0.524 0.117,-1.151 0,-1.633 -0.15,-0.622 -0.622,-1.147 -0.612,-1.835 0.036,-2.189 1.699,-3.829 1.838,-6.124 -0.702,-0.088 -1.144,0.083 -1.633,0.205 6.283,-3.854 16.345,-3.927 21.63,-8.777 -1.266,-1.706 -3.63,0.14 -5.507,0.613 -2.165,0.546 -4.577,0.645 -6.327,1.429 2.181,-2.718 8.548,-3.017 10.611,-6.531 -1.967,-0.505 -3.639,0.967 -5.306,1.632 -3.683,1.47 -7.246,2.768 -10.816,4.083 -5.951,2.191 -12.816,3.182 -21.02,3.469 -2.604,-1.748 -4.842,-3.866 -8.163,-4.898 -2.358,-3.967 -7.19,-5.465 -12.041,-6.939 0.921,-0.441 2.142,-0.577 2.654,-1.429 -1.451,-1.051 -3.129,-1.383 -5.308,-2.041 0.493,-1.493 0.126,-3.579 -0.407,-4.694 -1.572,-0.399 -1.889,-2.056 -2.655,-3.264 -0.239,-0.235 -0.72,-0.231 -1.223,-0.204 -0.56,-0.734 -0.917,-1.67 -1.427,-2.45 -3.179,-1.448 -4.275,-4.98 -6.125,-7.754 -1.063,-0.042 -0.707,1.33 -1.427,1.633 -1.655,-3.79 -4.055,-6.829 -5.92,-10.407 -0.971,-0.158 -0.937,0.693 -1.224,1.222 -0.729,-0.697 -0.803,-2.053 -1.427,-2.857 l -0.409,0 c -0.519,0.366 -0.496,1.273 -0.817,1.836 l 0,5.511 c 0.431,3.34 1.269,6.806 2.246,10.205 0.962,3.352 1.499,6.844 2.447,10 0.496,1.649 1.699,3.317 2.45,5.101 0.876,2.08 1.335,4.482 2.245,5.92 2.459,3.88 8.301,4.904 12.857,6.938 3.291,1.467 6.572,2.913 9.389,4.897 -1.829,1.731 -6.286,3.03 -9.797,3.062 -1.952,0.015 -2.474,-0.699 -3.061,-0.408 -0.038,4.008 3.671,1.898 6.121,2.039 2.921,0.17 3.696,1.687 6.123,2.246 1.46,0.337 3.019,0.085 4.491,0.409 4.989,1.103 12.946,6.888 13.878,11.021 0.386,1.719 0.175,3.898 0,5.509 -0.164,1.493 -1.55,3.562 -1.226,5.306 0.432,2.31 6.555,3.742 9.389,4.695 4.103,1.379 7.862,1.969 11.222,2.856 C -14.823,-3.077 -7.111,-1.642 0,0"
         style="fill:#000000;fill-opacity:1;fill-rule:evenodd;stroke:none"
         id="path102-1-7"
         inkscape:connector-curvature="0" />
    </g>
    <g
       id="g52"
       transform="matrix(-3.0064274,0,0,3.3337837,95.830198,422.64657)">
      <path
         d="m 0,0 0.312,0 0,-0.31 0.931,0 c 4.424,-8.007 7.169,-17.694 7.149,-30.147 l 0,-6.215 c -0.417,-3.475 -3.222,-6.021 -3.11,-9.014 -0.907,-0.029 -0.302,-1.256 -1.241,-1.864 -0.61,-7.747 -7.764,-9.7 -12.432,-13.985 -3.736,-3.431 -5.299,-7.078 -8.081,-11.189 -0.382,-3.149 -2.256,-5.728 -1.864,-8.702 4.037,-1.793 7.106,-3.082 9.634,-5.594 -1.15,-3.707 7.146,-3.161 6.527,-8.392 -9.22,4.31 -14.571,-1.986 -23.62,-2.486 l -0.31,0 c -12.875,-0.236 -22.027,3.252 -30.149,7.77 -0.83,1.629 -3.807,2.823 -5.903,2.797 -1.274,-0.016 -5.016,-0.253 -7.459,0 -2.427,0.251 -5.14,0.638 -6.216,1.865 1.689,-0.206 4.443,1.691 6.526,3.108 -2.553,1.918 -8.69,1.851 -9.944,4.04 -1.878,-0.972 -4.267,1.683 -5.906,0.932 -0.293,0.534 -1.148,0.509 -0.931,1.555 -3.359,0.369 -5.385,2.074 -7.77,3.418 -0.027,0.442 -0.053,0.879 0.311,0.932 -0.466,0.091 -0.558,0.416 -1.244,0.933 l 0,0.31 c 2.643,0.348 3.399,-1.31 5.595,-2.797 3.677,-2.492 10.356,-4.153 13.363,-5.283 9.688,1.024 19.403,0.03 29.836,0 1.86,1.664 2.817,4.18 4.661,5.283 -0.859,0.751 -1.452,-1.466 -2.175,0.622 1.156,-0.417 1.936,1.916 3.109,2.487 -0.525,1.699 1.48,1.601 1.864,3.417 -0.463,0.867 -1.39,-0.656 -1.244,0.622 0.642,1.04 0.273,0.271 0.622,0 0.315,0.969 1.2,2.535 2.176,1.865 -1.09,1.463 2.252,2.281 0.931,3.419 -0.092,-0.986 -1.377,-0.612 -1.553,0 3.039,0.938 5.14,4.413 7.459,7.459 0.032,-0.348 -0.452,-0.483 0,-0.622 0.386,2.236 3.798,3.118 3.729,4.973 -0.066,-0.349 -0.344,-0.484 -0.622,-0.623 4.053,4.044 4.705,6.708 8.081,8.392 0.416,0.949 2.18,3.773 1.865,5.594 4.03,2.581 3.173,6.84 6.837,9.013 0.463,3.154 0.924,4.074 3.109,5.595 0.069,2.612 1.595,3.282 3.107,4.972 -2.44,2.864 -0.664,7.753 -0.621,10.878 0.649,0.179 0.887,0.77 1.863,0.621 -0.237,1.17 0.379,1.486 0.312,2.487 C -1.902,-0.999 0.095,-1.546 0,0"
         style="fill:#000000;fill-opacity:1;fill-rule:evenodd;stroke:none"
         id="path54"
         inkscape:connector-curvature="0" />
    </g>
    <g
       id="g20"
       transform="matrix(0.81622665,3.3601305,3.0301871,-0.90510189,973.61106,208.94979)">
      <path
         d="M 0,0 C 1.604,0.721 3.6,-3.851 5.441,-5.003 5.283,-3.096 0.05,1.626 1.576,4.699 2.088,2.453 3.116,1.281 3.857,-0.49 4.107,1.436 2.412,4.298 2.375,6.361 4,4.774 4.482,0.808 5.664,-1.7 c 1.19,0.337 -1.437,2.51 0.511,2.483 2.216,-8.636 6.223,-13.544 11.787,-15.216 7.648,-5.725 15.303,-11.555 23.239,-17.649 4.467,-3.431 7.591,-7.585 13.198,-8.731 1.874,1.058 2.918,0.393 4.39,0.618 0.607,-0.392 0.933,-1.371 1.541,-1.763 8.811,-1.822 21.418,4.521 33.438,7.122 10.913,2.363 26.744,3.135 30.316,13.399 0.882,-1.231 -1.687,-3.73 -2.807,-5.131 3.913,1.418 6.233,6.552 9.062,9.628 -1.414,-3.527 -3.915,-6.531 -6.867,-9.319 3.11,1.01 6.529,4.818 8.961,7.289 -1.274,-3.368 -6.903,-7.594 -12.633,-9.959 2.67,-0.364 5.63,2.063 8.205,2.878 -1.954,-1.903 -5.24,-3.165 -8.593,-4.397 2.552,-0.365 6.734,2.656 9.312,2.346 -2.928,-2.303 -6.131,-2.511 -10.111,-4.008 2.045,-0.953 5.312,0.643 7.694,0.395 -0.885,-1.331 -3.738,-0.707 -5.744,-2.015 3.068,-0.999 -8.114,-3.152 -8.45,-4.807 -1.344,-0.433 -2.598,-0.674 -3.57,-0.33 -0.488,-2.2 -3.725,-1.307 -5.333,-1.872 -1.45,-0.508 -2.858,-2.672 -4.347,-3.367 -10.771,-5.027 -23.36,-7.384 -34.872,-12.232 3.508,-4.531 8.674,-5.611 12.789,-8.875 -2.026,-0.936 -5.211,-2.576 -7.017,0.302 -1.201,-0.673 0.206,-2.599 -0.078,-3.714 -1.379,-0.753 -2.47,-0.906 -4.371,-1.993 -0.822,0.652 -2.25,0.048 -2.503,1.886 -0.732,-0.444 0.234,-1.705 -1.209,-1.806 -5.404,-0.36 -10.289,0.358 -13.278,5.017 -0.695,0.924 -2.056,0.454 -3.038,0.778 -0.964,1.669 -0.989,3.711 -3.49,3.384 1.019,2.178 -0.95,2.774 -2.26,3.813 1.854,1.49 7.102,1.609 9.292,3.721 -7.674,11.474 -18.296,16.815 -26.283,27.639 -5.423,2.909 -9.626,8.355 -14.227,12.978 0.36,0.038 0.554,-0.269 0.964,-0.123 -0.219,0.984 -3.112,2.497 -4.454,3.505 0.885,0.867 3.112,-1.545 4.699,-1.576 C 7.681,-9.801 6.081,-7.691 4.086,-6.399 4.962,-5.553 6.938,-8.49 8.254,-9.084 6.885,-5.701 4.588,-5.507 0,0"
         style="fill:#000000;fill-opacity:1;fill-rule:evenodd;stroke:none"
         id="path22"
         inkscape:connector-curvature="0" />
    </g>
  </g>
</svg>
