<?xml version="1.0" encoding="UTF-8" standalone="no"?>
<!-- Created with Inkscape (http://www.inkscape.org/) -->

<svg
   xmlns:dc="http://purl.org/dc/elements/1.1/"
   xmlns:cc="http://creativecommons.org/ns#"
   xmlns:rdf="http://www.w3.org/1999/02/22-rdf-syntax-ns#"
   xmlns:svg="http://www.w3.org/2000/svg"
   xmlns="http://www.w3.org/2000/svg"
   xmlns:sodipodi="http://sodipodi.sourceforge.net/DTD/sodipodi-0.dtd"
   xmlns:inkscape="http://www.inkscape.org/namespaces/inkscape"
   width="11in"
   height="10in"
   viewBox="0 0 990 900.00002"
   id="svg5449"
   version="1.1"
   inkscape:version="0.91 r13725"
   sodipodi:docname="10x12.svg">
  <defs
     id="defs5451" />
  <sodipodi:namedview
     id="base"
     pagecolor="#ffffff"
     bordercolor="#666666"
     borderopacity="1.0"
     inkscape:pageopacity="0.0"
     inkscape:pageshadow="2"
     inkscape:zoom="0.49497475"
     inkscape:cx="604.92649"
     inkscape:cy="458.85158"
     inkscape:document-units="px"
     inkscape:current-layer="layer1"
     showgrid="false"
     units="in"
     inkscape:window-width="960"
     inkscape:window-height="1016"
     inkscape:window-x="960"
     inkscape:window-y="27"
     inkscape:window-maximized="0" />
  <metadata
     id="metadata5454">
    <rdf:RDF>
      <cc:Work
         rdf:about="">
        <dc:format>image/svg+xml</dc:format>
        <dc:type
           rdf:resource="http://purl.org/dc/dcmitype/StillImage" />
        <dc:title></dc:title>
      </cc:Work>
    </rdf:RDF>
  </metadata>
  <g
     inkscape:label="Layer 1"
     inkscape:groupmode="layer"
     id="layer1"
     transform="translate(0,-152.36215)">
    <path
       style="fill:#000000"
       d="m 48.11179,1035.5439 c -21.9961,-1.4968 -40.8110473,-9.8664 -43.6541951,-19.4193 -1.3570449,-4.5596 -2.4888798,-4.3404 21.4627881,-4.1592 l 21.494931,0.1627 17.324746,-49.62331 c 9.528618,-27.29281 17.266033,-49.67522 17.194274,-49.73864 -0.07181,-0.0635 -1.351151,-0.70624 -2.843039,-1.42838 -1.491887,-0.72214 -2.712507,-1.59031 -2.712507,-1.92936 0,-0.83349 2.177286,-6.42036 2.502086,-6.42036 0.142209,0 1.47257,0.57704 2.95638,1.28236 1.483865,0.70533 2.737992,1.20401 2.786996,1.10816 0.553394,-1.08238 1.46242,-3.89272 1.46242,-4.52126 0,-0.44258 -2.120042,-1.75695 -4.711186,-2.92091 -2.591144,-1.16388 -4.939507,-2.33817 -5.218577,-2.60945 -0.577241,-0.56094 2.40124,-8.8029 3.181154,-8.8029 0.277052,0 1.434316,0.43116 2.571771,0.95815 2.388144,1.10652 2.442332,1.07065 3.682707,-2.43548 0.725015,-2.04934 1.231861,-2.63867 2.269726,-2.63867 1.239229,0 3.213405,-5.15137 27.179315,-70.92177 14.21366,-39.00705 29.09145,-79.82462 33.06179,-90.70573 l 7.21879,-19.7838 6.78347,-6.70046 6.78347,-6.70054 0,-13.25092 0,-13.25082 9.85059,0 9.85064,0 38.6887,-14.30051 38.68878,-14.30044 0,-5.6463 0,-5.64629 69.67349,0 69.67346,0 -0.14799,-32.10049 -0.14799,-32.10043 -47.96827,-7.97635 -47.96829,-7.97625 -0.17675,2.42549 -0.17676,2.42556 -4.39167,-0.18438 -4.39168,-0.1842 -0.14685,-41.25574 -0.1469,-41.25566 -2.72877,1.14972 c -2.30711,0.97205 -6.23445,1.53754 -9.12753,1.31425 -0.56387,-0.0436 -0.69331,-2.17316 -0.57108,-9.39633 l 0.15804,-9.34017 3.71179,0.2254 c 2.04151,0.12386 4.57842,0.62255 5.63751,1.10815 1.05909,0.48548 2.15125,0.88275 2.42694,0.88275 0.28333,0 0.50134,-20.65747 0.50134,-47.49226 l 0,-47.49226 2.89128,0 c 2.53816,0 38.96119,-11.77244 81.39297,-26.30738 l 6.33572,-2.17025 0.38669,-8.08256 c 0.21266,-4.44544 0.52135,-8.79497 0.68594,-9.66561 0.27787,-1.46977 -0.68971,-2.28601 -13.51195,-11.39819 -7.59624,-5.39825 -14.8822,-10.565 -16.19106,-11.4815 l -2.37974,-1.66645 -4.24379,12.27301 c -3.29046,9.51603 -4.46977,12.27313 -5.24974,12.27313 -0.55323,0 -1.00589,-0.27207 -1.00589,-0.60458 0,-0.33245 1.5237,-4.96294 3.38606,-10.28997 1.86242,-5.32697 3.2115,-9.87631 2.99803,-10.10953 -0.21343,-0.23315 -3.40752,-1.75889 -7.09791,-3.39028 -3.6904,-1.63147 -6.70987,-3.32494 -6.70987,-3.76324 0,-1.03511 3.3239,-9.97603 3.97864,-10.70205 0.289,-0.32048 3.44663,0.7403 7.43657,2.49835 5.2905,2.33103 7.04083,2.86414 7.3838,2.2488 0.24721,-0.44361 1.67835,-4.41912 3.1804,-8.83455 3.0719,-9.03035 3.53416,-9.93531 4.58239,-8.97056 0.55444,0.51023 -0.15672,3.14522 -3.19802,11.84863 -2.15108,6.1558 -3.84335,11.26749 -3.76057,11.35933 0.0828,0.0918 10.03213,-0.73461 22.10972,-1.83647 21.50174,-1.96155 22.80373,-2.00736 62.49003,-2.20106 l 40.53078,-0.19775 2.44086,-2.65634 2.44081,-2.65629 0,-17.09967 0,-17.09978 2.40309,-2.71517 c 2.31731,-2.61821 2.52932,-2.71522 5.93497,-2.71522 2.46531,0 3.62257,-0.26219 3.83229,-0.86834 0.16534,-0.47757 1.02798,-1.06326 1.91703,-1.30155 0.88911,-0.23824 2.59104,-0.71658 3.78214,-1.06295 l 2.16566,-0.62975 -0.37124,-6.14237 c -0.59553,-9.85198 1.41696,-18.63419 5.04602,-22.02036 3.41112,-3.1828 3.79458,-2.58603 7.09491,11.0428 1.63323,6.74416 3.06967,12.37327 3.19224,12.50911 0.12261,0.13598 1.05489,-0.0745 2.07191,-0.46763 1.0461,-0.40433 2.04217,-0.47435 2.29384,-0.16114 0.24464,0.30444 1.24305,3.81472 2.21876,7.80045 1.9249,7.86345 1.84965,8.482 -1.11158,9.13874 -1.086,0.24077 -1.65735,0.69533 -1.48895,1.18445 1.13937,3.30854 5.63855,23.39828 5.31948,23.75215 -0.77598,0.86048 -4.66289,0.31303 -6.91221,-0.97351 -3.80456,-2.17619 -8.00787,-7.8321 -11.39742,-15.33611 -0.86521,-1.91551 -1.65167,-3.58037 -1.74766,-3.69963 -0.0959,-0.11934 -1.58215,0.2369 -3.30274,0.79156 -4.00581,1.29132 -5.52214,1.28883 -5.52214,-0.009 0,-0.55968 -0.3212,-0.88493 -0.71383,-0.72275 -0.39258,0.16217 -1.67748,0.67743 -2.85526,1.14489 l -2.14143,0.84987 0,12.35512 0,12.35506 2.40309,2.71523 2.4031,2.71516 50.85447,0 50.85443,0 9.95088,-6.33226 9.95088,-6.33232 8.50205,0 8.50205,0 6.50822,3.843 6.50818,3.84303 11.42896,-0.1399 11.42896,-0.13978 4.39932,7.53668 c 3.62121,6.20355 4.4558,8.11446 4.7186,10.8033 l 0.31924,3.26666 10.72124,-14.17875 c 5.89673,-7.79823 10.84496,-14.53991 10.99612,-14.98134 0.15116,-0.4415 -3.19234,-5.07706 -7.43002,-10.30116 -5.05012,-6.22582 -7.59085,-9.82573 -7.37409,-10.44833 0.3648,-1.04752 1.30318,-15.51298 1.34226,-20.69067 0.0229,-3.01616 0.21778,-3.48052 2.45171,-5.83777 l 2.42694,-2.56091 -1.03715,-1.76101 c -2.14995,-3.65044 -6.05137,-13.31248 -6.97551,-17.2751 -1.08125,-4.63671 -1.34968,-10.87608 -0.6604,-15.35565 0.43857,-2.85059 0.62035,-3.09028 3.4809,-4.59092 3.68756,-1.93444 6.45567,-1.99622 12.90137,-0.28803 10.29368,2.72793 24.25393,11.77657 33.17169,21.50106 10.18188,11.10287 16.60514,24.12466 16.68749,33.83039 0.073,8.60713 -3.64489,11.48392 -14.73956,11.40494 -6.33497,-0.0448 -9.73424,-0.93351 -17.35995,-4.53686 l -4.79675,-2.26665 -1.61221,2.15561 c -0.88666,1.18561 -1.60965,2.44051 -1.60665,2.78881 0.006,0.3483 1.41505,2.29176 3.13799,4.31885 3.12003,3.67095 3.14055,3.68262 5.15587,2.94516 6.1723,-2.2589 11.01347,3.79301 10.14538,12.68274 l -0.2782,2.84956 10.25843,12.62409 c 5.64215,6.94325 10.13456,12.92732 9.98313,13.29783 -0.33342,0.81607 -13.49367,13.82748 -14.27942,14.11788 -0.30548,0.11292 -3.60445,-3.54864 -7.33103,-8.13689 l -6.77557,-8.34216 -1.00725,2.63002 c -2.80048,7.31176 -3.02716,6.09572 3.77924,20.27255 3.36227,7.0031 6.34915,12.89458 6.63756,13.09227 0.29833,0.20441 0.52447,7.97891 0.52447,18.0281 l 0,17.66869 2.14143,0.61585 c 1.17779,0.33867 5.04625,1.37555 8.59662,2.3041 5.2236,1.36617 6.42146,1.8876 6.27854,2.73302 -0.13653,0.80735 -2.08964,1.47285 -8.59667,2.92894 l -8.41992,1.88417 0,13.78827 c 0,11.12794 0.14816,13.78828 0.76807,13.78828 2.44632,0 4.1382,5.99291 4.98797,17.66811 0.90417,12.42357 -0.16622,27.29785 -2.366,32.87933 -0.89057,2.25957 -1.28151,2.66742 -2.23469,2.33195 -1.1237,-0.39544 -1.15535,-0.15371 -1.15535,8.82644 0,5.07826 -0.22876,9.72793 -0.50843,10.33268 -0.27956,0.60482 -1.07061,4.51909 -1.7578,8.69839 -3.73139,22.69423 -17.45447,56.79511 -36.1218,89.76042 -5.40008,9.53624 -5.6087,10.03509 -4.75872,11.3807 2.67666,4.23745 -0.47978,11.5759 -9.57828,22.26901 l -2.09592,2.46319 0.006,8.93498 0.005,8.935 12.22382,-22.70517 c 6.72319,-12.48789 12.94029,-23.53437 13.81586,-24.54783 2.21827,-2.56751 5.10081,-3.31114 9.44666,-2.4373 3.00139,0.60356 38.55605,14.12479 62.43906,23.74526 13.28472,5.35137 16.74244,7.83428 17.9743,12.90687 0.65114,2.68164 1.70357,24.12175 1.72779,35.20123 0.009,4.17931 0.20541,7.89963 0.43618,8.2673 0.23078,0.36773 1.8777,0.6842 3.6599,0.70327 4.5053,0.0485 8.15406,2.43396 9.71787,6.35398 0.62483,1.56647 1.0084,3.38974 0.85227,4.05181 -0.2472,1.04818 0.0409,1.20364 2.2324,1.20364 l 2.51628,0 0,5.41525 c 0,4.45446 0.22799,5.85809 1.2849,7.91047 1.01265,1.96663 1.62302,2.49629 2.88123,2.50017 1.90035,0.006 4.39965,2.53387 4.39965,4.45034 0,0.73522 -0.27541,1.90745 -0.612,2.60485 -0.49861,1.03311 -0.26057,1.9181 1.28485,4.77698 1.50832,2.79032 2.3632,3.68469 4.17356,4.3664 1.25211,0.47152 2.60124,1.3496 2.99802,1.95127 0.90247,1.36865 0.93527,4.16073 0.0603,5.13105 -0.50072,0.55518 0.088,2.11935 2.42695,6.44831 2.7052,5.00681 3.28593,5.71667 4.68439,5.72592 1.86984,0.0127 4.3997,2.53351 4.3997,4.3847 0,0.69594 -0.2753,1.93546 -0.61183,2.7543 -0.52841,1.286 -0.2072,2.23979 2.35589,6.99541 1.81597,3.36925 3.3339,5.50634 3.91108,5.50634 1.4121,0 3.48314,1.82152 4.0928,3.59972 0.39219,1.14392 0.28879,2.15719 -0.37953,3.719 -0.89632,2.09449 -0.86636,2.29327 1.23437,8.17889 1.53903,4.31189 2.42939,6.03224 3.12178,6.03224 0.53282,0 1.64582,0.59054 2.47333,1.31239 1.70771,1.48955 2.03486,4.53202 0.71246,6.62556 -0.70172,1.11092 -0.54652,1.93879 1.35825,7.24561 1.92823,5.37213 2.33204,6.04344 3.90742,6.49619 3.14841,0.90459 4.58878,5.09129 2.593,7.53674 -0.86346,1.05799 -0.77233,1.56696 1.30624,7.29277 1.97096,5.42972 2.43382,6.21456 3.9256,6.6569 0.93009,0.27587 2.01265,0.98913 2.4056,1.58504 0.95307,1.44533 0.90761,4.61591 -0.084,5.85748 -0.69266,0.86726 -0.49113,1.85917 1.52173,7.49028 2.13096,5.96113 2.4442,6.49062 3.83971,6.49062 1.90018,0 4.00281,2.39613 4.00281,4.56161 0,0.89666 -0.47612,2.28233 -1.05794,3.07915 -1.04251,1.4276 -1.02564,1.53748 1.15213,7.5106 1.99655,5.47596 2.35938,6.07151 3.75479,6.16197 1.71983,0.11141 4.14573,2.80255 4.14573,4.59902 0,0.63017 -0.53576,1.9011 -1.19065,2.82421 l -1.19067,1.67848 2.14362,6.00568 c 1.584,4.4378 2.40833,6.00572 3.15747,6.00572 0.55765,0 1.71349,0.66727 2.56855,1.48279 1.78558,1.70323 2.11415,4.92263 0.66614,6.52826 -0.80393,0.89152 -0.7248,1.43092 0.83181,5.66892 1.54138,4.19673 1.88069,4.68368 3.2635,4.68368 3.09312,0 5.09486,4.47019 3.25264,7.26377 -0.66881,1.01418 -0.57763,1.67788 0.67073,4.88633 0.85737,2.20342 1.23005,3.91947 0.91667,4.22124 -0.29036,0.27968 -2.58379,1.46475 -5.09641,2.63341 -2.51262,1.16879 -4.6505,2.18727 -4.75075,2.26339 -0.1003,0.0761 0.1343,1.31038 0.52136,2.74287 0.75918,2.80994 1.14449,2.8866 4.62928,0.92136 0.84812,-0.47828 1.69586,-0.86961 1.88386,-0.86961 0.43421,0 2.54094,5.1095 2.55757,6.20312 0.009,0.45135 -1.24888,1.4688 -2.79069,2.2609 l -2.80332,1.44024 14.23606,40.79876 c 7.82983,22.43935 15.63863,44.78812 17.35274,49.66399 l 3.11656,8.8653 21.71232,-0.211 21.71241,-0.211 0,1.8284 c 0,1.0056 -0.75861,3.1547 -1.68569,4.7758 -6.59237,11.5269 -31.86721,18.9333 -57.79037,16.9347 -18.93054,-1.4598 -32.56826,-5.2083 -40.86541,-11.2327 -3.72663,-2.7059 -5.43675,-5.6209 -5.19576,-8.8566 l 0.17834,-2.3945 23.49066,-0.3166 23.49066,-0.3165 -16.06697,-46.01836 c -8.83684,-25.31009 -16.22151,-46.18805 -16.41033,-46.39542 -0.18876,-0.20737 -1.47366,0.1917 -2.85526,0.8868 -1.3816,0.69509 -2.79829,1.27008 -3.14819,1.27764 -0.62418,0.0139 -2.50455,-4.64415 -2.50455,-6.20373 0,-0.43604 1.21534,-1.37059 2.70078,-2.07665 1.4854,-0.70605 2.78808,-1.38056 2.89483,-1.49887 0.44135,-0.48941 -1.26084,-5.40432 -1.87175,-5.40432 -0.36508,0 -3.06868,1.13975 -6.0081,2.53285 -2.93935,1.39316 -5.5216,2.53291 -5.73829,2.53291 -0.42129,0 -3.39851,-7.26784 -3.39851,-8.29623 0,-0.33765 1.15197,-1.16152 2.55993,-1.83079 l 2.55993,-1.21677 -1.08136,-2.79752 c -0.90264,-2.33503 -0.95558,-2.94135 -0.32005,-3.66817 0.63704,-0.72849 0.25287,-2.27391 -2.35251,-9.46229 l -3.11388,-8.59152 -8.97663,-0.9329 c -8.24809,-0.85722 -9.04617,-0.84869 -9.83329,0.10434 -0.7923,0.95959 -1.92774,0.90622 -15.13284,-0.71035 -7.85196,-0.96129 -14.34054,-1.77258 -14.41907,-1.80283 -0.0785,-0.0303 -0.14275,-0.60765 -0.14275,-1.28279 0,-1.37398 -0.46549,-1.48356 -11.09428,-2.60976 -3.80751,-0.40343 -6.47903,-0.98554 -6.85263,-1.49307 -0.39928,-0.54248 -3.46022,-1.09671 -8.80092,-1.59345 -7.32569,-0.68136 -8.25851,-0.65577 -8.8513,0.24258 -0.59454,0.90097 -4.35779,0.25477 -36.62329,-6.28892 l -35.96219,-7.29313 -28.13985,0 -28.1398,0 0,13.29785 0,13.29782 -47.69101,0 -47.69101,0 1.65435,3.64111 c 4.17591,9.1909 9.26188,25.12414 12.31976,38.59509 2.9393,12.94887 5.17918,32.75093 4.78464,42.30005 l -0.18314,4.43261 -39.5453,0.16266 -39.5453,0.16266 0,22.1509 0,22.15097 20.98613,0.1661 20.98617,0.166 0.17828,2.3945 c 0.72867,9.7848 -18.12333,18.027 -45.95595,20.0922 -23.60947,1.7519 -46.32971,-3.9426 -55.57566,-13.929 -1.48332,-1.6022 -3.01482,-3.981 -3.40336,-5.2865 -1.35546,-4.5542 -2.45183,-4.3405 21.09668,-4.1106 l 21.13051,0.2063 -3.3e-4,-22.0298 -2.7e-4,-22.02971 -39.83086,0.18317 -39.83081,0.18341 -0.17108,-7.28217 c -0.45811,-19.50066 5.44319,-47.56451 14.98005,-71.23843 2.10454,-5.2241 3.96527,-9.85464 4.13493,-10.28997 0.2454,-0.62962 -9.45648,-0.79155 -47.43535,-0.79155 l -47.74388,0 0,-13.29782 0,-13.29785 -28.12426,0 -28.12432,0 -35.97201,7.29821 c -32.38436,6.57044 -36.03858,7.19747 -36.63885,6.28712 -0.59825,-0.90725 -1.50908,-0.93284 -8.85549,-0.2496 -5.30305,0.49322 -8.40296,1.05253 -8.79679,1.58709 -0.36567,0.49656 -3.09706,1.09866 -6.85261,1.51087 -10.94281,1.20085 -11.09844,1.23733 -11.09844,2.59831 0,0.67518 -0.0643,1.25247 -0.14281,1.28272 -0.0785,0.0303 -6.56705,0.83591 -14.41901,1.79018 -13.16887,1.60048 -14.34272,1.65513 -15.13284,0.70437 -0.78412,-0.94339 -1.61145,-0.95307 -9.7756,-0.11401 l -8.91897,0.91657 -3.17013,8.61386 c -2.68986,7.30885 -3.05417,8.75776 -2.40479,9.56371 0.64044,0.79494 0.63302,1.29748 -0.0459,3.08053 -1.19355,3.1356 -1.04486,3.59107 1.54001,4.71696 2.02602,0.88256 2.30466,1.22899 2.01566,2.50603 -0.55728,2.46193 -2.67557,7.42698 -3.16877,7.42698 -0.25391,0 -3.0504,-1.2555 -6.21437,-2.78984 l -5.752598,-2.7899 -0.897079,2.48607 c -0.493363,1.36732 -0.897015,2.73429 -0.897015,3.03769 0,0.30341 1.092107,1.03542 2.426945,1.62668 3.829717,1.69645 3.919917,1.88543 2.591197,5.43076 -0.64518,1.72162 -1.46002,3.12392 -1.81075,3.11629 -0.35071,-0.008 -1.76806,-0.5826 -3.149658,-1.27771 -1.381599,-0.6951 -2.640475,-1.12139 -2.797523,-0.94725 -0.157002,0.17416 -7.530489,21.05206 -16.385441,46.39543 l -16.099983,46.0788 23.465886,0.3166 23.465829,0.3165 0.15558,2.5331 c 0.19989,3.2549 -1.26079,5.9064 -4.6988,8.5293 -7.641588,5.8301 -22.656174,10.0335 -40.701903,11.3948 -8.189849,0.6179 -9.847083,0.6421 -15.857305,0.2333 z m 80.37543,-170.89172 c 4.12271,-0.32712 5.56778,-0.66563 5.56778,-1.30432 0,-0.47435 0.57817,-0.99524 1.28485,-1.15747 3.87599,-0.88971 25.63804,-2.96412 27.83011,-2.65284 1.41812,0.20151 6.02774,-0.0417 10.24371,-0.54097 4.21596,-0.49892 7.87782,-0.76148 8.13746,-0.58352 0.2597,0.17797 0.47214,0.72874 0.47214,1.22391 0,0.68681 0.57561,0.82514 2.42694,0.5834 1.33484,-0.17434 4.98,-0.5834 8.10031,-0.90908 4.05465,-0.42315 5.81153,-0.86591 6.15762,-1.55157 0.27715,-0.54921 1.71633,-1.14071 3.36608,-1.38337 2.05669,-0.30255 3.31867,-0.91759 4.40696,-2.14774 0.83869,-0.9481 12.31781,-10.0671 25.5091,-20.26449 13.19124,-10.19745 24.05169,-18.59921 24.13421,-18.67056 0.34843,-0.30122 -6.68695,-5.39045 -7.45186,-5.39045 -0.46123,0 -1.10051,-0.35617 -1.42051,-0.79155 -1.97575,-2.6874 -58.5413,-104.18631 -58.49339,-104.9579 0.0327,-0.52246 -1.39699,-4.29809 -3.17651,-8.39033 l -3.2354,-7.44047 -3.30257,0 -3.30252,0 0,10.63828 c 0,5.85107 0.21975,10.90901 0.48835,11.23983 0.28201,0.34739 -11.41991,33.23798 -27.69599,77.84504 -15.50141,42.48394 -28.18433,77.35041 -28.18433,77.48106 0,0.13071 0.57817,0.0867 1.28485,-0.0978 0.70668,-0.18437 3.79037,-0.53414 6.85261,-0.77722 z m 741.96708,-0.13287 c -0.20839,-0.60948 -12.73896,-35.01763 -27.84567,-76.46259 l -27.46667,-75.35444 0.13233,-12.18974 0.13233,-12.18968 -3.3399,0 -3.33984,0 -3.0712,6.80728 c -1.68916,3.74393 -3.11649,7.52954 -3.17182,8.41235 -0.0554,0.88286 -13.31522,25.16655 -29.46617,53.96376 -21.48583,38.30905 -29.64763,52.36376 -30.4169,52.37774 -0.57817,0.0111 -2.56206,1.19432 -4.4086,2.63063 l -3.35736,2.61138 24.96657,19.359 c 13.73153,10.64735 25.2782,19.83492 25.65916,20.41674 0.40086,0.61214 1.89673,1.23492 3.55032,1.47813 1.63038,0.23993 3.06551,0.83246 3.3418,1.37985 0.34603,0.68566 2.10296,1.12842 6.15756,1.55157 3.12036,0.32568 6.76547,0.73474 8.10031,0.90908 1.85133,0.24174 2.42699,0.10346 2.42699,-0.58334 0,-0.49516 0.21244,-1.04594 0.47214,-1.22391 0.25965,-0.17802 3.92151,0.0845 8.13748,0.58352 4.2159,0.49892 8.82559,0.74242 10.2437,0.54098 2.19207,-0.31128 23.95412,1.76312 27.83012,2.65283 0.70667,0.16223 1.28484,0.68197 1.28484,1.15498 0,0.63302 1.6199,1.02199 6.13878,1.4742 3.37636,0.3379 6.4875,0.65788 6.91374,0.71107 0.51269,0.064 0.64666,-0.27823 0.39596,-1.01139 z M 733.92024,803.50018 c -0.17583,-0.62249 10.99001,-21.12134 28.62886,-52.55819 15.9044,-28.34572 29.30737,-52.02955 29.78437,-52.63087 0.47699,-0.60124 1.04294,-0.97279 1.25762,-0.82562 0.21474,0.14717 1.91497,-1.78304 3.77831,-4.28927 l 3.38787,-4.55671 -0.1611,-7.07788 -0.16103,-7.07788 -36.95726,-13.66042 c -20.32653,-7.51327 -37.15006,-13.66042 -37.38558,-13.66042 -0.23553,0 -0.42827,36.17233 -0.42827,80.38302 l 0,80.38309 3.56909,2.8434 3.56909,2.84338 0.70319,-4.54752 c 0.38668,-2.50114 0.57342,-5.00681 0.41484,-5.56811 z m -471.52463,6.8829 3.5722,-2.68624 0,-80.532 0,-80.53201 -37.68938,13.93285 -37.68937,13.93285 0,7.2755 0,7.27552 3.21515,4.2026 c 1.76833,2.31131 3.59075,4.2636 4.04969,4.33834 0.45899,0.0746 0.89936,0.22843 0.9786,0.34159 0.0793,0.11321 13.29771,23.65635 29.37439,52.31802 19.20415,34.23762 29.181,52.59098 29.0867,53.50804 -0.20158,1.96162 0.71454,9.31113 1.16065,9.31113 0.20306,0 1.97658,-1.20878 3.94137,-2.68624 z M 797.57546,647.39359 c 0.46281,-0.46424 -1.12266,-37.30825 -1.7063,-39.65236 -1.17374,-4.71368 -2.34432,-5.29827 -40.1836,-20.06752 -27.23895,-10.63186 -34.81583,-13.33462 -37.36632,-13.32899 -3.40936,0.007 -4.52744,1.62716 -16.63106,24.08877 l -11.75627,21.81712 18.29436,0.45293 c 10.06193,0.24906 19.51496,0.48263 21.00685,0.51888 1.49189,0.0363 2.71251,0.31086 2.71251,0.61009 0,1.44332 1.88844,2.55498 3.7,2.17818 1.45172,-0.30208 2.05091,-0.1186 2.65636,0.81327 1.17636,1.81058 1.9697,2.1452 3.52799,1.48829 1.19836,-0.50521 1.64092,-0.31441 2.89707,1.24884 1.27775,1.5902 1.68588,1.75951 2.95355,1.22501 2.07327,-0.87409 2.25083,-0.81661 3.13466,1.01465 0.70935,1.46978 1.02531,1.59546 3.13062,1.24547 2.09619,-0.34862 2.42274,-0.22136 3.11583,1.2147 0.84436,1.74947 1.47153,1.91968 3.6653,0.99482 1.26782,-0.53456 1.56785,-0.37904 2.44451,1.26645 1.12158,2.10557 1.20507,2.13534 3.39289,1.21296 1.40555,-0.5926 1.71366,-0.46248 2.90672,1.22803 1.22231,1.73191 1.48234,1.83369 3.09346,1.21084 1.59306,-0.61583 1.87737,-0.51527 3.01438,1.06597 1.0871,1.51177 1.50985,1.68387 3.15317,1.28364 1.64402,-0.40041 2.06596,-0.22826 3.15632,1.28811 1.15836,1.61096 1.40562,1.69348 3.10465,1.03669 1.74072,-0.67283 1.90105,-0.60518 2.80909,1.18585 0.96343,1.90038 1.57784,2.02098 4.32931,0.85019 0.61441,-0.26142 1.22406,0.23999 1.90896,1.57011 0.76377,1.48325 1.28153,1.86146 2.14842,1.56918 0.62815,-0.21173 1.25206,-0.49528 1.38657,-0.63017 z"
       id="path5113"
       inkscape:connector-curvature="0" />
    <g
       id="g100-9-2"
       transform="matrix(-0.46748507,2.140077,-1.9299351,-0.51838741,33.696244,670.79728)">
      <path
         d="m 0,0 c 0.423,-0.123 1.341,0.251 1.429,-0.202 -1.632,-0.819 -3.077,-1.823 -4.897,-2.45 -0.035,-0.279 1.038,-0.41 0.407,-0.616 -1.88,-2.13 -5.525,-2.498 -7.958,-4.081 -0.231,-1.059 -1.172,-1.412 -2.042,-1.835 -0.415,-0.287 0.202,-0.703 -0.202,-1.226 -1.664,-1.533 -4.586,-1.811 -6.327,-3.264 -0.508,-0.15 0.673,-0.615 0,-1.018 -0.546,-0.547 -1.292,-0.887 -2.245,-1.024 -0.615,-0.368 0.581,-0.623 0.204,-1.427 -1.141,0.22 -2.082,0.638 -2.858,1.225 -0.157,-0.706 1.711,-1.144 2.041,-2.042 -0.187,-2.67 -1.554,-6.595 -3.672,-8.571 -0.256,-2.836 -2.284,-5.465 -2.859,-8.368 -0.102,-0.524 0.117,-1.151 0,-1.633 -0.15,-0.622 -0.622,-1.147 -0.612,-1.835 0.036,-2.189 1.699,-3.829 1.838,-6.124 -0.702,-0.088 -1.144,0.083 -1.633,0.205 6.283,-3.854 16.345,-3.927 21.63,-8.777 -1.266,-1.706 -3.63,0.14 -5.507,0.613 -2.165,0.546 -4.577,0.645 -6.327,1.429 2.181,-2.718 8.548,-3.017 10.611,-6.531 -1.967,-0.505 -3.639,0.967 -5.306,1.632 -3.683,1.47 -7.246,2.768 -10.816,4.083 -5.951,2.191 -12.816,3.182 -21.02,3.469 -2.604,-1.748 -4.842,-3.866 -8.163,-4.898 -2.358,-3.967 -7.19,-5.465 -12.041,-6.939 0.921,-0.441 2.142,-0.577 2.654,-1.429 -1.451,-1.051 -3.129,-1.383 -5.308,-2.041 0.493,-1.493 0.126,-3.579 -0.407,-4.694 -1.572,-0.399 -1.889,-2.056 -2.655,-3.264 -0.239,-0.235 -0.72,-0.231 -1.223,-0.204 -0.56,-0.734 -0.917,-1.67 -1.427,-2.45 -3.179,-1.448 -4.275,-4.98 -6.125,-7.754 -1.063,-0.042 -0.707,1.33 -1.427,1.633 -1.655,-3.79 -4.055,-6.829 -5.92,-10.407 -0.971,-0.158 -0.937,0.693 -1.224,1.222 -0.729,-0.697 -0.803,-2.053 -1.427,-2.857 l -0.409,0 c -0.519,0.366 -0.496,1.273 -0.817,1.836 l 0,5.511 c 0.431,3.34 1.269,6.806 2.246,10.205 0.962,3.352 1.499,6.844 2.447,10 0.496,1.649 1.699,3.317 2.45,5.101 0.876,2.08 1.335,4.482 2.245,5.92 2.459,3.88 8.301,4.904 12.857,6.938 3.291,1.467 6.572,2.913 9.389,4.897 -1.829,1.731 -6.286,3.03 -9.797,3.062 -1.952,0.015 -2.474,-0.699 -3.061,-0.408 -0.038,4.008 3.671,1.898 6.121,2.039 2.921,0.17 3.696,1.687 6.123,2.246 1.46,0.337 3.019,0.085 4.491,0.409 4.989,1.103 12.946,6.888 13.878,11.021 0.386,1.719 0.175,3.898 0,5.509 -0.164,1.493 -1.55,3.562 -1.226,5.306 0.432,2.31 6.555,3.742 9.389,4.695 4.103,1.379 7.862,1.969 11.222,2.856 C -14.823,-3.077 -7.111,-1.642 0,0"
         style="fill:#000000;fill-opacity:1;fill-rule:evenodd;stroke:none"
         id="path102-1-7"
         inkscape:connector-curvature="0" />
    </g>
    <g
       id="g52"
       transform="matrix(-2.8484199,0,0,3.1585715,133.10725,489.32683)">
      <path
         d="m 0,0 0.312,0 0,-0.31 0.931,0 c 4.424,-8.007 7.169,-17.694 7.149,-30.147 l 0,-6.215 c -0.417,-3.475 -3.222,-6.021 -3.11,-9.014 -0.907,-0.029 -0.302,-1.256 -1.241,-1.864 -0.61,-7.747 -7.764,-9.7 -12.432,-13.985 -3.736,-3.431 -5.299,-7.078 -8.081,-11.189 -0.382,-3.149 -2.256,-5.728 -1.864,-8.702 4.037,-1.793 7.106,-3.082 9.634,-5.594 -1.15,-3.707 7.146,-3.161 6.527,-8.392 -9.22,4.31 -14.571,-1.986 -23.62,-2.486 l -0.31,0 c -12.875,-0.236 -22.027,3.252 -30.149,7.77 -0.83,1.629 -3.807,2.823 -5.903,2.797 -1.274,-0.016 -5.016,-0.253 -7.459,0 -2.427,0.251 -5.14,0.638 -6.216,1.865 1.689,-0.206 4.443,1.691 6.526,3.108 -2.553,1.918 -8.69,1.851 -9.944,4.04 -1.878,-0.972 -4.267,1.683 -5.906,0.932 -0.293,0.534 -1.148,0.509 -0.931,1.555 -3.359,0.369 -5.385,2.074 -7.77,3.418 -0.027,0.442 -0.053,0.879 0.311,0.932 -0.466,0.091 -0.558,0.416 -1.244,0.933 l 0,0.31 c 2.643,0.348 3.399,-1.31 5.595,-2.797 3.677,-2.492 10.356,-4.153 13.363,-5.283 9.688,1.024 19.403,0.03 29.836,0 1.86,1.664 2.817,4.18 4.661,5.283 -0.859,0.751 -1.452,-1.466 -2.175,0.622 1.156,-0.417 1.936,1.916 3.109,2.487 -0.525,1.699 1.48,1.601 1.864,3.417 -0.463,0.867 -1.39,-0.656 -1.244,0.622 0.642,1.04 0.273,0.271 0.622,0 0.315,0.969 1.2,2.535 2.176,1.865 -1.09,1.463 2.252,2.281 0.931,3.419 -0.092,-0.986 -1.377,-0.612 -1.553,0 3.039,0.938 5.14,4.413 7.459,7.459 0.032,-0.348 -0.452,-0.483 0,-0.622 0.386,2.236 3.798,3.118 3.729,4.973 -0.066,-0.349 -0.344,-0.484 -0.622,-0.623 4.053,4.044 4.705,6.708 8.081,8.392 0.416,0.949 2.18,3.773 1.865,5.594 4.03,2.581 3.173,6.84 6.837,9.013 0.463,3.154 0.924,4.074 3.109,5.595 0.069,2.612 1.595,3.282 3.107,4.972 -2.44,2.864 -0.664,7.753 -0.621,10.878 0.649,0.179 0.887,0.77 1.863,0.621 -0.237,1.17 0.379,1.486 0.312,2.487 C -1.902,-0.999 0.095,-1.546 0,0"
         style="fill:#000000;fill-opacity:1;fill-rule:evenodd;stroke:none"
         id="path54"
         inkscape:connector-curvature="0" />
    </g>
    <g
       id="g20"
       transform="matrix(0.77332858,3.1835336,2.8709309,-0.85753285,920.73009,237.09398)">
      <path
         d="M 0,0 C 1.604,0.721 3.6,-3.851 5.441,-5.003 5.283,-3.096 0.05,1.626 1.576,4.699 2.088,2.453 3.116,1.281 3.857,-0.49 4.107,1.436 2.412,4.298 2.375,6.361 4,4.774 4.482,0.808 5.664,-1.7 c 1.19,0.337 -1.437,2.51 0.511,2.483 2.216,-8.636 6.223,-13.544 11.787,-15.216 7.648,-5.725 15.303,-11.555 23.239,-17.649 4.467,-3.431 7.591,-7.585 13.198,-8.731 1.874,1.058 2.918,0.393 4.39,0.618 0.607,-0.392 0.933,-1.371 1.541,-1.763 8.811,-1.822 21.418,4.521 33.438,7.122 10.913,2.363 26.744,3.135 30.316,13.399 0.882,-1.231 -1.687,-3.73 -2.807,-5.131 3.913,1.418 6.233,6.552 9.062,9.628 -1.414,-3.527 -3.915,-6.531 -6.867,-9.319 3.11,1.01 6.529,4.818 8.961,7.289 -1.274,-3.368 -6.903,-7.594 -12.633,-9.959 2.67,-0.364 5.63,2.063 8.205,2.878 -1.954,-1.903 -5.24,-3.165 -8.593,-4.397 2.552,-0.365 6.734,2.656 9.312,2.346 -2.928,-2.303 -6.131,-2.511 -10.111,-4.008 2.045,-0.953 5.312,0.643 7.694,0.395 -0.885,-1.331 -3.738,-0.707 -5.744,-2.015 3.068,-0.999 -8.114,-3.152 -8.45,-4.807 -1.344,-0.433 -2.598,-0.674 -3.57,-0.33 -0.488,-2.2 -3.725,-1.307 -5.333,-1.872 -1.45,-0.508 -2.858,-2.672 -4.347,-3.367 -10.771,-5.027 -23.36,-7.384 -34.872,-12.232 3.508,-4.531 8.674,-5.611 12.789,-8.875 -2.026,-0.936 -5.211,-2.576 -7.017,0.302 -1.201,-0.673 0.206,-2.599 -0.078,-3.714 -1.379,-0.753 -2.47,-0.906 -4.371,-1.993 -0.822,0.652 -2.25,0.048 -2.503,1.886 -0.732,-0.444 0.234,-1.705 -1.209,-1.806 -5.404,-0.36 -10.289,0.358 -13.278,5.017 -0.695,0.924 -2.056,0.454 -3.038,0.778 -0.964,1.669 -0.989,3.711 -3.49,3.384 1.019,2.178 -0.95,2.774 -2.26,3.813 1.854,1.49 7.102,1.609 9.292,3.721 -7.674,11.474 -18.296,16.815 -26.283,27.639 -5.423,2.909 -9.626,8.355 -14.227,12.978 0.36,0.038 0.554,-0.269 0.964,-0.123 -0.219,0.984 -3.112,2.497 -4.454,3.505 0.885,0.867 3.112,-1.545 4.699,-1.576 C 7.681,-9.801 6.081,-7.691 4.086,-6.399 4.962,-5.553 6.938,-8.49 8.254,-9.084 6.885,-5.701 4.588,-5.507 0,0"
         style="fill:#000000;fill-opacity:1;fill-rule:evenodd;stroke:none"
         id="path22"
         inkscape:connector-curvature="0" />
    </g>
  </g>
</svg>
