<?xml version="1.0" encoding="UTF-8" standalone="no"?>
<!-- Created with Inkscape (http://www.inkscape.org/) -->

<svg
   xmlns:dc="http://purl.org/dc/elements/1.1/"
   xmlns:cc="http://creativecommons.org/ns#"
   xmlns:rdf="http://www.w3.org/1999/02/22-rdf-syntax-ns#"
   xmlns:svg="http://www.w3.org/2000/svg"
   xmlns="http://www.w3.org/2000/svg"
   xmlns:sodipodi="http://sodipodi.sourceforge.net/DTD/sodipodi-0.dtd"
   xmlns:inkscape="http://www.inkscape.org/namespaces/inkscape"
   width="12in"
   height="10in"
   viewBox="0 0 1080 900.00002"
   id="svg5449"
   version="1.1"
   inkscape:version="0.91 r13725"
   sodipodi:docname="10x12.svg">
  <defs
     id="defs5451" />
  <sodipodi:namedview
     id="base"
     pagecolor="#ffffff"
     bordercolor="#666666"
     borderopacity="1.0"
     inkscape:pageopacity="0.0"
     inkscape:pageshadow="2"
     inkscape:zoom="0.35"
     inkscape:cx="-197.85714"
     inkscape:cy="520"
     inkscape:document-units="px"
     inkscape:current-layer="layer1"
     showgrid="false"
     units="in"
     inkscape:window-width="960"
     inkscape:window-height="1016"
     inkscape:window-x="960"
     inkscape:window-y="27"
     inkscape:window-maximized="0" />
  <metadata
     id="metadata5454">
    <rdf:RDF>
      <cc:Work
         rdf:about="">
        <dc:format>image/svg+xml</dc:format>
        <dc:type
           rdf:resource="http://purl.org/dc/dcmitype/StillImage" />
        <dc:title></dc:title>
      </cc:Work>
    </rdf:RDF>
  </metadata>
  <g
     inkscape:label="Layer 1"
     inkscape:groupmode="layer"
     id="layer1"
     transform="translate(0,-152.36215)">
    <path
       style="fill:#000000"
       d="m 52.294026,1035.5474 c -24.074902,-1.4773 -44.6680067,-9.7385 -47.779854,-19.1674 -1.4852961,-4.5006 -2.7240981,-4.2842 23.491188,-4.1053 l 23.526368,0.1605 18.962068,-48.97985 c 10.429146,-26.93894 18.897807,-49.03114 18.819266,-49.09373 -0.0786,-0.0627 -1.478846,-0.69708 -3.111728,-1.40986 -1.632882,-0.71278 -2.96886,-1.56969 -2.96886,-1.90434 0,-0.82269 2.383056,-6.33712 2.738552,-6.33712 0.155649,0 1.611739,0.56956 3.235781,1.26574 1.624102,0.69618 2.996753,1.18839 3.050388,1.09378 0.605694,-1.06834 1.60063,-3.84225 1.60063,-4.46263 0,-0.43685 -2.320402,-1.73418 -5.156429,-2.88304 -2.836027,-1.14879 -5.406328,-2.30785 -5.711773,-2.57561 -0.631794,-0.55367 2.628176,-8.68876 3.481798,-8.68876 0.303235,0 1.56987,0.42556 2.814823,0.94572 2.613842,1.09217 2.673151,1.05676 4.030751,-2.4039 0.793535,-2.02278 1.348282,-2.60446 2.484233,-2.60446 1.356346,0 3.517097,-5.08458 29.747972,-70.0022 15.55696,-38.50129 31.84081,-78.78962 36.18638,-89.52965 l 7.90102,-19.52727 7.42456,-6.61359 7.42457,-6.61366 0,-13.07911 0,-13.07901 10.78154,0 10.7816,0 42.34509,-14.11509 42.34516,-14.11503 0,-5.57309 0,-5.57308 76.25818,0 76.25814,0 -0.16198,-31.68427 -0.16198,-31.68421 -52.50164,-7.87294 -52.50166,-7.87282 -0.19346,2.39404 -0.19346,2.39411 -4.80672,-0.18199 -4.80673,-0.18181 -0.16072,-40.72082 -0.16079,-40.72075 -2.98666,1.13482 c -2.52515,0.95945 -6.82365,1.5176 -9.99015,1.29721 -0.61716,-0.043 -0.75883,-2.14498 -0.62505,-9.2745 l 0.17297,-9.21907 4.06259,0.22248 c 2.23445,0.12226 5.01111,0.61448 6.1703,1.09379 1.15918,0.47919 2.35456,0.8713 2.6563,0.8713 0.31011,0 0.54872,-20.38962 0.54872,-46.87648 l 0,-46.87648 3.16453,0 c 2.77803,0 42.64332,-11.61979 89.08523,-25.96627 l 6.9345,-2.14212 0.42323,-7.97776 c 0.23276,-4.3878 0.57063,-8.68093 0.75077,-9.54028 0.30413,-1.45072 -0.75489,-2.25638 -14.78893,-11.2504 -8.31415,-5.32826 -16.28869,-10.42801 -17.72124,-11.33264 l -2.60465,-1.64483 -4.64486,12.11387 c -3.60143,9.39264 -4.8922,12.114 -5.74588,12.114 -0.60551,0 -1.10095,-0.26854 -1.10095,-0.59674 0,-0.32814 1.6677,-4.89859 3.70607,-10.15655 2.03843,-5.25791 3.51501,-9.74826 3.28136,-9.97845 -0.2336,-0.23013 -3.72955,-1.73609 -7.76872,-3.34633 -4.03917,-1.61031 -7.344,-3.28183 -7.344,-3.71444 0,-1.02169 3.63804,-9.84668 4.35465,-10.56329 0.31632,-0.31632 3.77237,0.7307 8.13939,2.46596 5.79049,2.30081 7.70624,2.827 8.08162,2.21964 0.27057,-0.43786 1.83697,-4.36182 3.48097,-8.72 3.36222,-8.91327 3.86817,-9.80649 5.01547,-8.85425 0.60683,0.50362 -0.17154,3.10444 -3.50026,11.695 -2.35438,6.07599 -4.20658,11.12139 -4.11598,11.21205 0.0906,0.0906 10.98025,-0.72509 24.19926,-1.81266 23.53383,-1.93612 24.95886,-1.98133 68.39583,-2.17252 l 44.36125,-0.19519 2.67154,-2.6219 2.67148,-2.62185 0,-16.87795 0,-16.87807 2.6302,-2.67996 c 2.53632,-2.58427 2.76836,-2.68001 6.49587,-2.68001 2.6983,0 3.96494,-0.2588 4.19447,-0.85709 0.18097,-0.47137 1.12514,-1.04947 2.09821,-1.28467 0.97314,-0.23515 2.83591,-0.70729 4.13958,-1.04917 l 2.37033,-0.62158 -0.40632,-6.06273 c -0.65181,-9.72425 1.55087,-18.39258 5.52291,-21.73485 3.73349,-3.14153 4.15319,-2.5525 7.76543,10.89962 1.78758,6.65671 3.35978,12.21284 3.49393,12.34692 0.1342,0.13421 1.15458,-0.0735 2.26772,-0.46157 1.14497,-0.39909 2.23517,-0.4682 2.51063,-0.15905 0.26776,0.30049 1.36053,3.76526 2.42845,7.69931 2.10682,7.76149 2.02445,8.37202 -1.21664,9.02024 -1.18863,0.23765 -1.81398,0.68633 -1.62966,1.1691 1.24705,3.26564 6.17143,23.0949 5.82221,23.44418 -0.84932,0.84932 -5.10357,0.30897 -7.56547,-0.96089 -4.16412,-2.14797 -8.76467,-7.73055 -12.47456,-15.13726 -0.94698,-1.89067 -1.80777,-3.53394 -1.91283,-3.65166 -0.105,-0.11779 -1.73167,0.23383 -3.61487,0.78129 -4.38439,1.27458 -6.04403,1.27213 -6.04403,-0.009 0,-0.55242 -0.35155,-0.87345 -0.78129,-0.71338 -0.42968,0.16007 -1.83602,0.66864 -3.12511,1.13004 l -2.34381,0.83886 0,12.19493 0,12.19486 2.6302,2.68002 2.63021,2.67996 55.66062,0 55.66056,0 10.89132,-6.25016 10.89131,-6.25021 9.30556,0 9.30556,0 7.1233,3.79316 7.12325,3.79321 12.50909,-0.13809 12.50908,-0.13797 4.81509,7.43897 c 3.96344,6.12311 4.87691,8.00924 5.16455,10.66321 l 0.34941,3.22432 11.73448,-13.99492 c 6.45401,-7.69711 11.86989,-14.35138 12.03533,-14.78709 0.16545,-0.43577 -3.49404,-5.01123 -8.13221,-10.1676 -5.5274,-6.14509 -8.30824,-9.69832 -8.071,-10.31285 0.39928,-1.03394 1.42634,-15.31184 1.46911,-20.4224 0.0251,-2.97705 0.23837,-3.43539 2.68342,-5.76207 l 2.65631,-2.52771 -1.13517,-1.73818 c -2.35314,-3.60311 -6.62327,-13.13987 -7.63475,-17.0511 -1.18344,-4.5766 -1.47724,-10.73507 -0.72282,-15.15656 0.48002,-2.81363 0.67898,-3.05021 3.80988,-4.53139 4.03606,-1.90936 7.06578,-1.97034 14.12064,-0.2843 11.26652,2.69256 26.54612,11.62388 36.30668,21.22228 11.14414,10.95892 18.17445,23.81186 18.26458,33.39175 0.0799,8.49553 -3.98936,11.33502 -16.13256,11.25707 -6.93367,-0.0442 -10.6542,-0.92141 -19.0006,-4.47804 l -5.25008,-2.23726 -1.76458,2.12766 c -0.97045,1.17023 -1.76177,2.40886 -1.75849,2.75265 0.007,0.34379 1.54879,2.26204 3.43456,4.26285 3.4149,3.62335 3.43736,3.63487 5.64314,2.90698 6.75563,-2.22962 12.05433,3.74382 11.10419,12.51828 l -0.30449,2.81262 11.22793,12.46041 c 6.17538,6.85322 11.09236,12.7597 10.92662,13.12541 -0.36493,0.80548 -14.76893,13.6482 -15.62894,13.93483 -0.33435,0.11145 -3.9451,-3.50264 -8.02387,-8.03139 l -7.41591,-8.234 -1.10244,2.59593 c -3.06515,7.21695 -3.31325,6.01668 4.1364,20.00969 3.68003,6.91229 6.9492,12.72739 7.26486,12.92251 0.32653,0.20176 0.57404,7.87546 0.57404,17.79435 l 0,17.43961 2.34381,0.60785 c 1.2891,0.33429 5.52316,1.35772 9.40907,2.27423 5.71727,1.34846 7.02834,1.86313 6.87191,2.69758 -0.14943,0.79688 -2.28713,1.45376 -9.40912,2.89097 l -9.21567,1.85973 0,13.6095 c 0,10.98366 0.16216,13.6095 0.84066,13.6095 2.67751,0 4.52929,5.91521 5.45937,17.43903 0.98962,12.26248 -0.18193,26.9439 -2.5896,32.45302 -0.97474,2.23027 -1.40263,2.63283 -2.44589,2.30171 -1.2299,-0.39032 -1.26454,-0.15171 -1.26454,8.71199 0,5.01242 -0.25038,9.6018 -0.55648,10.19871 -0.30598,0.59698 -1.17179,4.46049 -1.92393,8.58561 -4.08403,22.39997 -19.10405,56.0587 -39.53559,88.59659 -5.91042,9.41259 -6.13876,9.90498 -5.20845,11.23314 2.92962,4.18251 -0.52512,11.42581 -10.4835,21.98027 l -2.294,2.43125 0.007,8.81914 0.006,8.81914 13.37907,-22.41078 c 7.35858,-12.32597 14.16324,-23.22923 15.12156,-24.22954 2.42791,-2.53422 5.58288,-3.26821 10.33944,-2.40569 3.28505,0.59572 42.1999,13.94164 68.34004,23.43737 14.54023,5.28198 18.32473,7.73271 19.67301,12.73952 0.71267,2.64687 1.86457,23.80899 1.89108,34.74481 0.0102,4.12512 0.22482,7.79721 0.4774,8.16011 0.25259,0.36296 2.05516,0.67533 4.00579,0.69415 4.93108,0.0478 8.92468,2.4024 10.63628,6.27159 0.68388,1.54616 1.1037,3.3458 0.93282,3.99928 -0.27057,1.03459 0.0448,1.18803 2.44338,1.18803 l 2.75408,0 0,5.34505 c 0,4.3967 0.24954,5.78213 1.40634,7.8079 1.10835,1.94113 1.7764,2.46392 3.15353,2.46775 2.07994,0.006 4.81545,2.50101 4.81545,4.39263 0,0.72569 -0.30144,1.88272 -0.66984,2.57108 -0.54573,1.01972 -0.2852,1.89323 1.40628,4.71504 1.65086,2.75414 2.58654,3.63691 4.56799,4.30979 1.37044,0.4654 2.84708,1.3321 3.28136,1.92597 0.98776,1.35091 1.02366,4.10678 0.066,5.06451 -0.54805,0.54799 0.0963,2.09188 2.65631,6.36471 2.96086,4.94189 3.59648,5.64255 5.1271,5.65168 2.04656,0.0126 4.81551,2.50066 4.81551,4.32784 0,0.68692 -0.30132,1.91037 -0.66966,2.7186 -0.57834,1.26932 -0.22678,2.21074 2.57854,6.9047 1.9876,3.32556 3.64898,5.43494 4.28071,5.43494 1.54556,0 3.81233,1.79791 4.4796,3.55305 0.42926,1.12909 0.31608,2.12922 -0.4154,3.67078 -0.98102,2.06734 -0.94823,2.26354 1.35103,8.07285 1.68448,4.25598 2.65899,5.95402 3.41681,5.95402 0.58318,0 1.80137,0.58288 2.70708,1.29537 1.8691,1.47024 2.22717,4.47327 0.7798,6.53965 -0.76804,1.09653 -0.59817,1.91366 1.48661,7.15167 2.11046,5.30247 2.55244,5.96508 4.2767,6.41196 3.44596,0.89286 5.02246,5.02527 2.83806,7.43902 -0.94506,1.04427 -0.84532,1.54664 1.42969,7.19821 2.15723,5.35932 2.66383,6.13398 4.2966,6.57059 1.01799,0.27229 2.20286,0.9763 2.63295,1.56449 1.04314,1.42658 0.99338,4.55605 -0.0919,5.78153 -0.75812,0.85601 -0.53754,1.83506 1.66555,7.39316 2.33235,5.88384 2.67519,6.40646 4.20259,6.40646 2.07976,0 4.38111,2.36507 4.38111,4.50247 0,0.88504 -0.52112,2.25273 -1.15793,3.03922 -1.14103,1.40909 -1.12257,1.51755 1.26102,7.41322 2.18524,5.40496 2.58236,5.99279 4.10965,6.08208 1.88236,0.10996 4.53753,2.76621 4.53753,4.53939 0,0.622 -0.5864,1.87645 -1.30318,2.78759 l -1.30319,1.65671 2.3462,5.92781 c 1.7337,4.38027 2.63594,5.92786 3.45588,5.92786 0.61035,0 1.87543,0.65862 2.8113,1.46356 1.95433,1.68114 2.31395,4.85881 0.72909,6.44361 -0.8799,0.87996 -0.7933,1.41237 0.91042,5.59542 1.68706,4.14232 2.05844,4.62295 3.57193,4.62295 3.38545,0 5.57636,4.41223 3.56004,7.16959 -0.73202,1.00103 -0.63222,1.65612 0.73412,4.82297 0.9384,2.17485 1.3463,3.86865 1.0033,4.16651 -0.3178,0.27606 -2.82798,1.44576 -5.57806,2.59927 -2.75008,1.15363 -5.09001,2.1589 -5.19973,2.23404 -0.10978,0.0751 0.14699,1.29339 0.57063,2.70731 0.83093,2.7735 1.25266,2.84917 5.06678,0.90941 0.92828,-0.47208 1.85614,-0.85834 2.0619,-0.85834 0.47525,0 2.78108,5.04325 2.79928,6.1227 0.01,0.4455 -1.3669,1.44975 -3.05443,2.23158 l -3.06825,1.42157 15.58148,40.26976 c 8.5698,22.1484 17.1166,44.20741 18.9927,49.02011 l 3.4111,8.7503 23.7643,-0.2083 23.7644,-0.2082 0,1.8047 c 0,0.9925 -0.8303,3.1138 -1.845,4.7138 -7.2154,11.3775 -34.8789,18.6879 -63.252,16.7151 -20.71962,-1.4408 -35.64622,-5.1407 -44.72751,-11.087 -4.07883,-2.6708 -5.95056,-5.548 -5.6868,-8.7418 l 0.19519,-2.3634 25.71071,-0.3125 25.71071,-0.3124 -17.58542,-45.42169 c -9.67199,-24.98192 -17.75457,-45.58918 -17.96123,-45.79387 -0.2066,-0.20468 -1.61293,0.18922 -3.12511,0.8753 -1.51217,0.68609 -3.06275,1.25362 -3.44572,1.26108 -0.68316,0.0137 -2.74124,-4.58394 -2.74124,-6.12329 0,-0.43039 1.33019,-1.35282 2.95602,-2.04972 1.62578,-0.6969 3.05158,-1.36267 3.16841,-1.47944 0.48307,-0.48307 -1.38,-5.33424 -2.04864,-5.33424 -0.39958,0 -3.3587,1.12496 -6.57591,2.5 -3.21714,1.3751 -6.04344,2.50007 -6.28061,2.50007 -0.4611,0 -3.71969,-7.1736 -3.71969,-8.18866 0,-0.33328 1.26084,-1.14647 2.80186,-1.80705 l 2.80186,-1.201 -1.18355,-2.76124 c -0.98795,-2.30476 -1.04589,-2.90322 -0.3503,-3.62061 0.69725,-0.71905 0.27677,-2.24443 -2.57484,-9.3396 l -3.40816,-8.48013 -9.825,-0.92081 c -9.02759,-0.8461 -9.9011,-0.83768 -10.76261,0.10297 -0.86718,0.94715 -2.10992,0.89447 -16.56301,-0.70114 -8.59403,-0.94883 -15.69583,-1.74959 -15.78178,-1.77945 -0.0859,-0.0299 -0.15624,-0.59978 -0.15624,-1.26616 0,-1.35617 -0.50948,-1.46433 -12.14278,-2.57592 -4.16735,-0.3982 -7.09135,-0.97277 -7.50025,-1.47371 -0.43702,-0.53545 -3.78724,-1.08249 -9.63268,-1.57279 -8.01802,-0.67253 -9.039,-0.64727 -9.68781,0.23944 -0.65073,0.88928 -4.76964,0.25146 -40.08448,-6.20738 l -39.36089,-7.19857 -30.79929,0 -30.79923,0 0,13.12542 0,13.12541 -52.19817,0 -52.19818,0 1.81069,3.5939 c 4.57057,9.07173 10.1372,24.79838 13.48408,38.09467 3.21708,12.78097 5.66865,32.32628 5.23682,41.75159 l -0.20045,4.37514 -43.28263,0.16054 -43.28264,0.16055 0,21.86369 0,21.8638 22.96948,0.1639 22.96953,0.1639 0.19513,2.3634 c 0.79753,9.658 -19.83613,17.7933 -50.29915,19.8317 -25.84074,1.7292 -50.70822,-3.8915 -60.82798,-13.7484 -1.62351,-1.5814 -3.29975,-3.9294 -3.72501,-5.2179 -1.48356,-4.4952 -2.68354,-4.2843 23.09048,-4.0574 l 23.12751,0.2037 -3.6e-4,-21.7442 -3e-4,-21.74407 -43.59518,0.1808 -43.59513,0.18103 -0.18725,-7.18775 c -0.50141,-19.24781 5.95761,-46.94779 16.39578,-70.31475 2.30344,-5.15637 4.34002,-9.72687 4.52571,-10.15655 0.26859,-0.62146 -10.35019,-0.78129 -51.91835,-0.78129 l -52.25605,0 0,-13.12541 0,-13.12542 -30.78222,0 -30.78229,0 -39.37164,7.20358 c -35.44493,6.48524 -39.4445,7.10414 -40.1015,6.2056 -0.65479,-0.89549 -1.6517,-0.92075 -9.69241,-0.24637 -5.80423,0.48683 -9.1971,1.03889 -9.62815,1.56652 -0.40023,0.49012 -3.38976,1.08441 -7.50024,1.49127 -11.97698,1.18529 -12.14732,1.2213 -12.14732,2.56463 0,0.66643 -0.0704,1.23623 -0.15631,1.26609 -0.0859,0.0299 -7.18769,0.82507 -15.78172,1.76697 -14.41343,1.57973 -15.69822,1.63366 -16.56301,0.69523 -0.85822,-0.93115 -1.76374,-0.94071 -10.69947,-0.11253 l -9.76188,0.90469 -3.46973,8.50217 c -2.94407,7.21409 -3.34281,8.6442 -2.63206,9.4397 0.70096,0.78464 0.69284,1.28067 -0.0502,3.0406 -1.30635,3.09494 -1.1436,3.54451 1.68556,4.65579 2.21749,0.87112 2.52246,1.21306 2.20615,2.47354 -0.60994,2.43001 -2.92843,7.33068 -3.46824,7.33068 -0.27791,0 -3.33869,-1.23922 -6.80168,-2.75366 l -6.29626,-2.75372 -0.98186,2.45383 c -0.53999,1.34959 -0.98179,2.69883 -0.98179,2.9983 0,0.29948 1.19532,1.022 2.65631,1.60559 4.19165,1.67445 4.29038,1.86098 2.83608,5.36034 -0.70615,1.6993 -1.598,3.08342 -1.98187,3.07589 -0.38386,-0.008 -1.93516,-0.57505 -3.44733,-1.26114 -1.51217,-0.68609 -2.89002,-1.10686 -3.06191,-0.93497 -0.17184,0.1719 -8.242178,20.7791 -17.933992,45.79386 l -17.621556,45.48133 25.683594,0.3125 25.683534,0.3125 0.17028,2.5001 c 0.21878,3.2127 -1.37994,5.8299 -5.14287,8.4188 -8.36378,5.7545 -24.79736,9.9034 -44.54855,11.247 -8.963853,0.6099 -10.777708,0.6339 -17.355943,0.2303 z M 140.26556,866.8715 c 4.51233,-0.32288 6.09397,-0.657 6.09397,-1.28742 0,-0.4682 0.63281,-0.98233 1.40628,-1.14246 4.2423,-0.87817 28.06103,-2.92568 30.46027,-2.61844 1.55214,0.19889 6.59741,-0.0412 11.21182,-0.53396 4.6144,-0.49245 8.62234,-0.75161 8.90652,-0.57595 0.28424,0.17566 0.51676,0.71929 0.51676,1.20804 0,0.67791 0.63,0.81444 2.6563,0.57583 1.46099,-0.17207 5.45065,-0.57583 8.86585,-0.89728 4.43785,-0.41767 6.36077,-0.8547 6.73956,-1.53146 0.30335,-0.54209 1.87854,-1.12592 3.68421,-1.36543 2.25106,-0.29863 3.63231,-0.9057 4.82345,-2.1199 0.91795,-0.9358 13.48193,-9.93657 27.9199,-20.00174 14.43792,-10.06523 26.32477,-18.35805 26.41508,-18.42847 0.38136,-0.29732 -7.31892,-5.32056 -8.15611,-5.32056 -0.50482,0 -1.20452,-0.35156 -1.55476,-0.78129 -2.16248,-2.65255 -64.07391,-102.83544 -64.02147,-103.59702 0.0358,-0.51569 -1.52902,-4.24237 -3.47672,-8.28154 l -3.54117,-7.344 -3.61469,0 -3.61463,0 0,10.50035 c 0,5.7752 0.24052,10.76756 0.5345,11.09409 0.30867,0.34289 -12.49918,32.80702 -30.31347,76.8357 -16.96641,41.9331 -30.84797,76.3475 -30.84797,76.47645 0,0.12901 0.63281,0.0856 1.40628,-0.0965 0.77347,-0.18199 4.14859,-0.52721 7.50024,-0.76714 z m 812.0887,-0.13116 c -0.22809,-0.60157 -13.94289,-34.56359 -30.4773,-75.47118 l -30.06249,-74.37739 0.14484,-12.03169 0.14484,-12.03163 -3.65555,0 -3.65548,0 -3.36145,6.71902 c -1.8488,3.69538 -3.41102,7.43191 -3.47158,8.30327 -0.0606,0.87142 -14.57362,24.84025 -32.25096,53.26407 -23.5164,37.81234 -32.44956,51.68482 -33.29153,51.69861 -0.63281,0.0108 -2.80419,1.17884 -4.82524,2.59652 l -3.67466,2.57753 27.3261,19.10799 c 15.02927,10.5093 27.66719,19.57774 28.08415,20.15202 0.43875,0.6042 2.07599,1.21891 3.88585,1.45896 1.78447,0.23681 3.35523,0.82166 3.65763,1.36196 0.37873,0.67676 2.30171,1.11379 6.7395,1.53146 3.41526,0.32145 7.40486,0.72521 8.86585,0.89728 2.0263,0.23861 2.65636,0.10214 2.65636,-0.57577 0,-0.48875 0.23252,-1.03238 0.51676,-1.20804 0.28419,-0.17572 4.29212,0.0834 8.90653,0.57595 4.61434,0.49245 9.65968,0.73279 11.21181,0.53396 2.39924,-0.30724 26.21797,1.74027 30.46028,2.61844 0.77346,0.16013 1.40627,0.67313 1.40627,1.14001 0,0.62481 1.773,1.00874 6.71895,1.45508 3.69545,0.33352 7.10061,0.64935 7.56714,0.70185 0.56114,0.0632 0.70777,-0.27462 0.43338,-0.99828 z M 802.91667,806.51238 c -0.19244,-0.61441 12.02865,-20.84748 31.33451,-51.87672 17.40749,-27.97819 32.07715,-51.35494 32.59923,-51.94845 0.52207,-0.59345 1.1415,-0.96018 1.37647,-0.81492 0.23503,0.14526 2.09595,-1.75992 4.13539,-4.23365 l 3.70805,-4.49763 -0.17632,-6.98611 -0.17625,-6.98611 -40.45001,-13.4833 c -22.24755,-7.41585 -40.66103,-13.4833 -40.91881,-13.4833 -0.25779,0 -0.46874,35.70332 -0.46874,79.34078 l 0,79.34085 3.9064,2.80652 3.90639,2.80652 0.76965,-4.48856 c 0.42322,-2.4687 0.62761,-4.94189 0.45404,-5.49592 z m -516.08735,6.79367 3.9098,-2.65141 0,-79.48783 0,-79.48783 -41.25131,13.75219 -41.25131,13.75219 0,7.18118 0,7.18118 3.519,4.14811 c 1.93546,2.28134 3.93011,4.20832 4.43242,4.28209 0.50237,0.0737 0.98436,0.22547 1.07109,0.33716 0.0868,0.11174 14.55444,23.34963 32.1505,51.63966 21.01908,33.79371 31.93882,51.90909 31.83561,52.81426 -0.22063,1.93618 0.78207,9.1904 1.27034,9.1904 0.22225,0 2.16338,-1.19311 4.31386,-2.65141 z M 872.5878,652.42987 c 0.50655,-0.45822 -1.22876,-36.82451 -1.86755,-39.13822 -1.28467,-4.65257 -2.56588,-5.22959 -43.98126,-19.80733 -29.81325,-10.49401 -38.1062,-13.16173 -40.89773,-13.15617 -3.73157,0.007 -4.95532,1.60606 -18.20282,23.77644 l -12.86733,21.53423 20.02331,0.44706 c 11.01286,0.24583 21.35928,0.47638 22.99217,0.51216 1.63288,0.0358 2.96886,0.30682 2.96886,0.60217 0,1.42461 2.06691,2.52186 4.04968,2.14994 1.58892,-0.29816 2.24473,-0.11707 2.9074,0.80273 1.28754,1.7871 2.15585,2.11739 3.86142,1.46899 1.31161,-0.49866 1.796,-0.31034 3.17086,1.23265 1.39851,1.56957 1.84521,1.73669 3.23268,1.20912 2.26921,-0.86276 2.46356,-0.80602 3.43091,1.0015 0.77639,1.45072 1.12221,1.57477 3.42649,1.22931 2.2943,-0.34409 2.65171,-0.21848 3.4103,1.19896 0.92416,1.72678 1.6106,1.89479 4.0117,0.98192 1.38764,-0.52763 1.71602,-0.37413 2.67554,1.25003 1.22757,2.07827 1.31895,2.10765 3.71354,1.19723 1.53839,-0.58491 1.87561,-0.45649 3.18143,1.21211 1.33783,1.70945 1.62243,1.80991 3.38581,1.19514 1.74362,-0.60785 2.0548,-0.50858 3.29927,1.05215 1.18983,1.49217 1.65254,1.66203 3.45116,1.26699 1.7994,-0.39521 2.26121,-0.22529 3.45462,1.27142 1.26783,1.59006 1.53846,1.67152 3.39806,1.02324 1.90524,-0.6641 2.08072,-0.59733 3.07458,1.17048 1.05448,1.87573 1.72695,1.99477 4.73846,0.83917 0.67247,-0.25803 1.33974,0.23687 2.08937,1.54974 0.83595,1.46403 1.40264,1.83733 2.35146,1.54884 0.68752,-0.20898 1.37039,-0.48886 1.51761,-0.622 z"
       id="path5113"
       inkscape:connector-curvature="0" />
    <g
       id="g100-9-2"
       transform="matrix(-0.51166602,2.1123289,-2.1123289,-0.51166602,36.516099,675.5301)">
      <path
         d="m 0,0 c 0.423,-0.123 1.341,0.251 1.429,-0.202 -1.632,-0.819 -3.077,-1.823 -4.897,-2.45 -0.035,-0.279 1.038,-0.41 0.407,-0.616 -1.88,-2.13 -5.525,-2.498 -7.958,-4.081 -0.231,-1.059 -1.172,-1.412 -2.042,-1.835 -0.415,-0.287 0.202,-0.703 -0.202,-1.226 -1.664,-1.533 -4.586,-1.811 -6.327,-3.264 -0.508,-0.15 0.673,-0.615 0,-1.018 -0.546,-0.547 -1.292,-0.887 -2.245,-1.024 -0.615,-0.368 0.581,-0.623 0.204,-1.427 -1.141,0.22 -2.082,0.638 -2.858,1.225 -0.157,-0.706 1.711,-1.144 2.041,-2.042 -0.187,-2.67 -1.554,-6.595 -3.672,-8.571 -0.256,-2.836 -2.284,-5.465 -2.859,-8.368 -0.102,-0.524 0.117,-1.151 0,-1.633 -0.15,-0.622 -0.622,-1.147 -0.612,-1.835 0.036,-2.189 1.699,-3.829 1.838,-6.124 -0.702,-0.088 -1.144,0.083 -1.633,0.205 6.283,-3.854 16.345,-3.927 21.63,-8.777 -1.266,-1.706 -3.63,0.14 -5.507,0.613 -2.165,0.546 -4.577,0.645 -6.327,1.429 2.181,-2.718 8.548,-3.017 10.611,-6.531 -1.967,-0.505 -3.639,0.967 -5.306,1.632 -3.683,1.47 -7.246,2.768 -10.816,4.083 -5.951,2.191 -12.816,3.182 -21.02,3.469 -2.604,-1.748 -4.842,-3.866 -8.163,-4.898 -2.358,-3.967 -7.19,-5.465 -12.041,-6.939 0.921,-0.441 2.142,-0.577 2.654,-1.429 -1.451,-1.051 -3.129,-1.383 -5.308,-2.041 0.493,-1.493 0.126,-3.579 -0.407,-4.694 -1.572,-0.399 -1.889,-2.056 -2.655,-3.264 -0.239,-0.235 -0.72,-0.231 -1.223,-0.204 -0.56,-0.734 -0.917,-1.67 -1.427,-2.45 -3.179,-1.448 -4.275,-4.98 -6.125,-7.754 -1.063,-0.042 -0.707,1.33 -1.427,1.633 -1.655,-3.79 -4.055,-6.829 -5.92,-10.407 -0.971,-0.158 -0.937,0.693 -1.224,1.222 -0.729,-0.697 -0.803,-2.053 -1.427,-2.857 l -0.409,0 c -0.519,0.366 -0.496,1.273 -0.817,1.836 l 0,5.511 c 0.431,3.34 1.269,6.806 2.246,10.205 0.962,3.352 1.499,6.844 2.447,10 0.496,1.649 1.699,3.317 2.45,5.101 0.876,2.08 1.335,4.482 2.245,5.92 2.459,3.88 8.301,4.904 12.857,6.938 3.291,1.467 6.572,2.913 9.389,4.897 -1.829,1.731 -6.286,3.03 -9.797,3.062 -1.952,0.015 -2.474,-0.699 -3.061,-0.408 -0.038,4.008 3.671,1.898 6.121,2.039 2.921,0.17 3.696,1.687 6.123,2.246 1.46,0.337 3.019,0.085 4.491,0.409 4.989,1.103 12.946,6.888 13.878,11.021 0.386,1.719 0.175,3.898 0,5.509 -0.164,1.493 -1.55,3.562 -1.226,5.306 0.432,2.31 6.555,3.742 9.389,4.695 4.103,1.379 7.862,1.969 11.222,2.856 C -14.823,-3.077 -7.111,-1.642 0,0"
         style="fill:#000000;fill-opacity:1;fill-rule:evenodd;stroke:none"
         id="path102-1-7"
         inkscape:connector-curvature="0" />
    </g>
    <g
       id="g52"
       transform="matrix(-3.1176176,0,0,3.1176176,145.32221,496.4126)">
      <path
         d="m 0,0 0.312,0 0,-0.31 0.931,0 c 4.424,-8.007 7.169,-17.694 7.149,-30.147 l 0,-6.215 c -0.417,-3.475 -3.222,-6.021 -3.11,-9.014 -0.907,-0.029 -0.302,-1.256 -1.241,-1.864 -0.61,-7.747 -7.764,-9.7 -12.432,-13.985 -3.736,-3.431 -5.299,-7.078 -8.081,-11.189 -0.382,-3.149 -2.256,-5.728 -1.864,-8.702 4.037,-1.793 7.106,-3.082 9.634,-5.594 -1.15,-3.707 7.146,-3.161 6.527,-8.392 -9.22,4.31 -14.571,-1.986 -23.62,-2.486 l -0.31,0 c -12.875,-0.236 -22.027,3.252 -30.149,7.77 -0.83,1.629 -3.807,2.823 -5.903,2.797 -1.274,-0.016 -5.016,-0.253 -7.459,0 -2.427,0.251 -5.14,0.638 -6.216,1.865 1.689,-0.206 4.443,1.691 6.526,3.108 -2.553,1.918 -8.69,1.851 -9.944,4.04 -1.878,-0.972 -4.267,1.683 -5.906,0.932 -0.293,0.534 -1.148,0.509 -0.931,1.555 -3.359,0.369 -5.385,2.074 -7.77,3.418 -0.027,0.442 -0.053,0.879 0.311,0.932 -0.466,0.091 -0.558,0.416 -1.244,0.933 l 0,0.31 c 2.643,0.348 3.399,-1.31 5.595,-2.797 3.677,-2.492 10.356,-4.153 13.363,-5.283 9.688,1.024 19.403,0.03 29.836,0 1.86,1.664 2.817,4.18 4.661,5.283 -0.859,0.751 -1.452,-1.466 -2.175,0.622 1.156,-0.417 1.936,1.916 3.109,2.487 -0.525,1.699 1.48,1.601 1.864,3.417 -0.463,0.867 -1.39,-0.656 -1.244,0.622 0.642,1.04 0.273,0.271 0.622,0 0.315,0.969 1.2,2.535 2.176,1.865 -1.09,1.463 2.252,2.281 0.931,3.419 -0.092,-0.986 -1.377,-0.612 -1.553,0 3.039,0.938 5.14,4.413 7.459,7.459 0.032,-0.348 -0.452,-0.483 0,-0.622 0.386,2.236 3.798,3.118 3.729,4.973 -0.066,-0.349 -0.344,-0.484 -0.622,-0.623 4.053,4.044 4.705,6.708 8.081,8.392 0.416,0.949 2.18,3.773 1.865,5.594 4.03,2.581 3.173,6.84 6.837,9.013 0.463,3.154 0.924,4.074 3.109,5.595 0.069,2.612 1.595,3.282 3.107,4.972 -2.44,2.864 -0.664,7.753 -0.621,10.878 0.649,0.179 0.887,0.77 1.863,0.621 -0.237,1.17 0.379,1.486 0.312,2.487 C -1.902,-0.999 0.095,-1.546 0,0"
         style="fill:#000000;fill-opacity:1;fill-rule:evenodd;stroke:none"
         id="path54"
         inkscape:connector-curvature="0" />
    </g>
    <g
       id="g20"
       transform="matrix(0.84641411,3.1422561,3.1422561,-0.84641411,1007.3815,247.45019)">
      <path
         d="M 0,0 C 1.604,0.721 3.6,-3.851 5.441,-5.003 5.283,-3.096 0.05,1.626 1.576,4.699 2.088,2.453 3.116,1.281 3.857,-0.49 4.107,1.436 2.412,4.298 2.375,6.361 4,4.774 4.482,0.808 5.664,-1.7 c 1.19,0.337 -1.437,2.51 0.511,2.483 2.216,-8.636 6.223,-13.544 11.787,-15.216 7.648,-5.725 15.303,-11.555 23.239,-17.649 4.467,-3.431 7.591,-7.585 13.198,-8.731 1.874,1.058 2.918,0.393 4.39,0.618 0.607,-0.392 0.933,-1.371 1.541,-1.763 8.811,-1.822 21.418,4.521 33.438,7.122 10.913,2.363 26.744,3.135 30.316,13.399 0.882,-1.231 -1.687,-3.73 -2.807,-5.131 3.913,1.418 6.233,6.552 9.062,9.628 -1.414,-3.527 -3.915,-6.531 -6.867,-9.319 3.11,1.01 6.529,4.818 8.961,7.289 -1.274,-3.368 -6.903,-7.594 -12.633,-9.959 2.67,-0.364 5.63,2.063 8.205,2.878 -1.954,-1.903 -5.24,-3.165 -8.593,-4.397 2.552,-0.365 6.734,2.656 9.312,2.346 -2.928,-2.303 -6.131,-2.511 -10.111,-4.008 2.045,-0.953 5.312,0.643 7.694,0.395 -0.885,-1.331 -3.738,-0.707 -5.744,-2.015 3.068,-0.999 -8.114,-3.152 -8.45,-4.807 -1.344,-0.433 -2.598,-0.674 -3.57,-0.33 -0.488,-2.2 -3.725,-1.307 -5.333,-1.872 -1.45,-0.508 -2.858,-2.672 -4.347,-3.367 -10.771,-5.027 -23.36,-7.384 -34.872,-12.232 3.508,-4.531 8.674,-5.611 12.789,-8.875 -2.026,-0.936 -5.211,-2.576 -7.017,0.302 -1.201,-0.673 0.206,-2.599 -0.078,-3.714 -1.379,-0.753 -2.47,-0.906 -4.371,-1.993 -0.822,0.652 -2.25,0.048 -2.503,1.886 -0.732,-0.444 0.234,-1.705 -1.209,-1.806 -5.404,-0.36 -10.289,0.358 -13.278,5.017 -0.695,0.924 -2.056,0.454 -3.038,0.778 -0.964,1.669 -0.989,3.711 -3.49,3.384 1.019,2.178 -0.95,2.774 -2.26,3.813 1.854,1.49 7.102,1.609 9.292,3.721 -7.674,11.474 -18.296,16.815 -26.283,27.639 -5.423,2.909 -9.626,8.355 -14.227,12.978 0.36,0.038 0.554,-0.269 0.964,-0.123 -0.219,0.984 -3.112,2.497 -4.454,3.505 0.885,0.867 3.112,-1.545 4.699,-1.576 C 7.681,-9.801 6.081,-7.691 4.086,-6.399 4.962,-5.553 6.938,-8.49 8.254,-9.084 6.885,-5.701 4.588,-5.507 0,0"
         style="fill:#000000;fill-opacity:1;fill-rule:evenodd;stroke:none"
         id="path22"
         inkscape:connector-curvature="0" />
    </g>
  </g>
</svg>
