<?xml version="1.0" encoding="UTF-8" standalone="no"?>
<!-- Created with Inkscape (http://www.inkscape.org/) -->

<svg
   xmlns:dc="http://purl.org/dc/elements/1.1/"
   xmlns:cc="http://creativecommons.org/ns#"
   xmlns:rdf="http://www.w3.org/1999/02/22-rdf-syntax-ns#"
   xmlns:svg="http://www.w3.org/2000/svg"
   xmlns="http://www.w3.org/2000/svg"
   xmlns:sodipodi="http://sodipodi.sourceforge.net/DTD/sodipodi-0.dtd"
   xmlns:inkscape="http://www.inkscape.org/namespaces/inkscape"
   width="657.81036mm"
   height="204.16763mm"
   viewBox="0 0 2330.8241 723.42862"
   id="svg6998"
   version="1.1"
   inkscape:version="0.91 r13725"
   sodipodi:docname="cargoboat.svg">
  <defs
     id="defs7000" />
  <sodipodi:namedview
     id="base"
     pagecolor="#ffffff"
     bordercolor="#666666"
     borderopacity="1.0"
     inkscape:pageopacity="0.0"
     inkscape:pageshadow="2"
     inkscape:zoom="0.35"
     inkscape:cx="-59.587893"
     inkscape:cy="493.14288"
     inkscape:document-units="px"
     inkscape:current-layer="layer1"
     showgrid="false"
     fit-margin-top="0"
     fit-margin-left="0"
     fit-margin-right="0"
     fit-margin-bottom="0"
     inkscape:window-width="1920"
     inkscape:window-height="1016"
     inkscape:window-x="0"
     inkscape:window-y="27"
     inkscape:window-maximized="1" />
  <metadata
     id="metadata7003">
    <rdf:RDF>
      <cc:Work
         rdf:about="">
        <dc:format>image/svg+xml</dc:format>
        <dc:type
           rdf:resource="http://purl.org/dc/dcmitype/StillImage" />
        <dc:title></dc:title>
      </cc:Work>
    </rdf:RDF>
  </metadata>
  <g
     inkscape:label="Layer 1"
     inkscape:groupmode="layer"
     id="layer1"
     transform="translate(88.26925,-302.07648)">
    <g
       transform="translate(631.11116,189.14535)"
       id="layer1-6"
       inkscape:label="Layer 1">
      <path
         id="path4017"
         d="m 1075.5558,112.93113 c -4.3869,0.16042 -8.1834,5.98069 -2.7318,10.44245 5.117,4.18808 9.6451,6.87558 8.1702,18.97017 l -0.6897,5.59146 -13.9149,0.81705 3.4723,19.58288 -855.69847,24.71481 c -1.56357,-3.82503 -7.80426,-3.9292 -7.96594,1.8127 l -2.32341,82.39114 -2.93612,-0.10202 c -3.72026,-0.1412 -8.58205,2.48375 -9.34468,6.12765 l -2.60426,12.53609 c -0.83236,3.97687 4.14335,8.52239 8.1702,9.06377 l 5.92339,0.79155 -0.15302,5.10633 -139.403744,-20.6297 c -0.06764,-0.0102 -0.135741,-0.0177 -0.204036,-0.0222 -3.722932,-2.30136 -7.709124,-0.40882 -5.055258,4.67232 l 136.441958,261.31808 -78.38269,0 0,71.41249 -259.12139,-0.19798 0,-100.39108 c 0,-17.1389 -0.84197,-32.11934 -22.74884,-33.85516 -6.60331,4.55683 -8.44795,17.07267 -10.51912,29.18293 13.2092,9.62791 9.34462,16.79011 9.34462,32.68067 l 0,72.35706 -5.82122,0 c -105.06952,-0.0806 -167.28606,-22.67016 -200.75658,-70.00806 l -0.12789,0 0,-21.47233 -30.53603,-2.19573 c 43.38601,-82.91462 89.47926,-160.40796 135.03772,-238.97769 3.2841,-1.62067 1.82635,-6.5893 -1.81279,-6.17874 -0.18048,0.0107 -0.35975,0.0365 -0.53598,0.0769 l -144.15264,30.86795 1.35326,-85.42941 -8.04254,0 -3.49789,91.09746 -251.74362,213.75234 -11.08074,-0.68974 0,-74.24644 -5.84681,0 0,73.91458 -25.09775,-1.53186 28.59565,117.88025 57.19121,182.19566 2106.75715,0 c 94.9035,-47.2605 86.3397,-243.90778 85.1996,-264.48463 l -4.3915,0 0,-31.50626 -2.6552,0 c 1.0596,-2.10827 1.8679,-3.74592 2.9361,-5.8723 2.918,-5.80858 3.1142,-6.20543 5.8212,-11.59144 27.4865,-6.27507 38.4696,6.75752 45.1913,7.55742 9.5718,-10.74519 -4.7795,-18.69908 6.1787,-33.2168 -13.2567,3.91618 -15.7829,-6.54653 -35.0807,-6.99579 0.1701,-1.35104 -1.0043,-2.48713 -2.349,-2.27231 -0.6696,0.10512 -1.2434,0.53553 -1.5318,1.14891 0,0 -10.9191,21.71141 -21.8807,43.53172 -1.6035,3.19168 -2.8448,5.68076 -4.4171,8.80857 l -152.3482,-2.17029 c -3.9269,-7.26371 -7.2188,-14.98303 -11.7193,-22.28931 l -14.068,0 1.1235,-52.18697 17.9999,-0.79148 c 7.2361,-0.32084 12.7951,-8.28257 17.9488,-19.17435 1.6354,-3.45613 1.3055,-5.99998 -4.1105,-5.99998 l -31.302,0 0.1279,-5.36169 c 0.4199,-19.521 -6.4041,-19.73865 -7.4299,-0.20405 l -0.2809,5.56596 -22.1105,0 -0.5108,-21.62551 -20.4255,0 -12.817,-60.10176 -107.3867,-28.03401 c -9.9649,23.89539 -16.8752,47.66732 -22.5191,71.3869 l -23.2595,0 0.306,-7.42974 c 0.4318,-10.12264 -4.6878,-10.92106 -5.3616,0 l -0.4599,7.42974 -15.6254,0 c -6.9357,9.28327 1.1424,26.08366 13.5829,32.85951 l -1.2766,20.65513 -29.9999,0 -1.7617,-32.68067 c -0.8874,-16.56449 -3.6752,-25.03861 -11.0807,-32.68075 l -32.1702,-33.19129 18.3064,-184.95244 9.4722,-0.71488 4.0852,-23.05527 -11.2597,0.66387 1.3533,-13.78716 c 0.4584,-4.6369 -0.7334,-6.35055 -2.0426,-7.86385 l -9.3445,-10.80012 c -1.269,-1.46732 -2.8016,-2.04491 -4.2639,-1.99146 z m 1.7618,58.34013 0.153,0 -0.022,0.25505 -0.1279,-0.25505 z m -0.3578,4.0851 -3.9574,32.45091 -26.9617,0.30679 c 1.7319,-2.3418 2.7575,-5.20177 2.7575,-8.29787 0,-7.9142 -6.6593,-14.3233 -14.8594,-14.3233 -8.2004,0 -14.8596,6.4091 -14.8596,14.3233 0,7.91426 6.6592,14.32336 14.8596,14.32336 1.7133,0 3.3445,-0.30237 4.8765,-0.81705 4.3565,5.37537 22.6928,28.02729 29.0807,36.30624 l -12.2808,100.72302 -121.40368,-4.34045 -3.60002,-54.86782 c -0.16339,-2.48124 -1.72705,-3.58136 -3.24251,-3.5489 -1.47473,0.0296 -2.88551,1.14536 -2.96165,3.0893 l -152.4249,5.71913 -2.91064,7.88934 144.30576,267.36908 c -11.74599,27.45435 -44.07348,54.91358 -75.11764,55.05609 -20.9844,0.0963 -262.0807,1.16844 -262.0807,1.16844 l 0,-100.95277 c 0,-17.13891 -0.8419,-32.11934 -22.74879,-33.85516 -6.60322,4.55683 -8.44796,17.07266 -10.51906,29.18292 13.2091,9.62791 9.34463,16.79011 9.34463,32.68068 l 0,72.91883 -249.19364,-0.17957 0,-71.56574 -77.66774,0 199.65874,-230.1187 c 1.02279,-1.17855 1.16932,-2.2182 0.81705,-3.01271 -0.0654,-1.2551 -1.06829,-2.25803 -2.3234,-2.3234 l -87.57414,-4.54471 29.66797,-61.50609 c 2.44213,-5.06213 -3.42012,-8.45675 -6.17867,-2.8851 l -1.81278,3.67657 -128.0675,44.93599 -5.59153,-22.31482 -8.62974,-0.33193 -0.84249,-80.78262 862.43887,-21.54884 z m -43.021,16.51909 c 4.5469,0 8.2211,3.55201 8.2211,7.94037 0,4.38835 -3.6742,7.94044 -8.2211,7.94044 -4.5471,0 -8.2213,-3.55209 -8.2213,-7.94044 0,-4.38836 3.6742,-7.94037 8.2213,-7.94037 z m 15.4722,22.4935 22.6722,0.94472 -2.7063,22.31474 z m -694.87367,47.31047 -26.75729,54.02525 -110.78259,-5.74463 4.97875,-1.73612 9.90639,1.3276 -1.09797,-4.41697 z m -286.798783,34.05942 135.037783,19.99141 -5.92339,210.53531 z m -346.466647,1.09783 c -32.54746,64.05882 -81.00108,150.79646 -131.51432,236.32243 l -4.03402,-0.28092 0,-8.19579 -4.39146,-0.84256 3.14038,-197.71836 136.79942,-29.28494 z m 1203.10986,3.11495 0,206.78213 c 0,22.33781 -2.63142,41.66808 -8.29782,57.93161 L 776.06751,303.42394 Z m -708.63531,14.83391 0.40882,0.0222 99.54844,25.27643 -97.65907,197.25875 -2.29789,-222.56076 z m 25.45519,1.32767 84.20392,4.36596 -7.48083,15.11483 z m 92.45071,4.79998 84.51028,4.39146 -26.68077,28.95316 -65.84654,-16.72343 z m -759.57131,12.63826 -8.42548,220.0331 -213.90552,-12.99569 c -0.55594,4.95272 -4.75415,8.80849 -9.85524,8.80849 -5.47923,0 -9.90633,-4.45267 -9.90633,-9.9319 0,-0.0296 -2.2e-4,-0.0518 0,-0.0769 l -1.40425,-0.0761 243.49682,-205.7609 z m 749.38406,8.50206 64.26359,16.31484 -151.5313,164.57808 z m 664.15893,65.23383 c 4.51234,0 8.17004,3.65795 8.17004,8.17013 0,4.51226 -3.6577,8.1702 -8.17004,8.1702 -4.51216,0 -8.17022,-3.65794 -8.17022,-8.1702 0,-4.51218 3.65806,-8.17013 8.17022,-8.17013 z m 75.26777,0 c 4.5124,0 8.1701,3.65795 8.1701,8.17013 0,4.51226 -3.6577,8.1702 -8.1701,8.1702 -4.5121,0 -8.1702,-3.65794 -8.1702,-8.1702 0,-4.51218 3.6581,-8.17013 8.1702,-8.17013 z m 105.9571,27.57433 c -1.2962,6.37147 -2.5615,12.75365 -3.8299,19.12327 l -14.2211,0 0.817,-19.04661 17.234,-0.0769 z m 191.897,30.33177 -2.7064,51.80402 -16.1871,0 -1.2,-50.91039 z m -371.41131,6.79145 c 3.72648,0 6.74048,3.01403 6.74048,6.74044 0,3.7264 -3.014,6.74036 -6.74048,6.74036 -3.72637,0 -6.76587,-3.01396 -6.76587,-6.74036 0,-3.72641 3.0395,-6.74044 6.76587,-6.74044 z m 39.65091,0 c 3.7266,0 6.7404,3.01403 6.7404,6.74044 0,3.7264 -3.0138,6.74036 -6.7404,6.74036 -3.7262,0 -6.7403,-3.01396 -6.7403,-6.74036 0,-3.72641 3.0141,-6.74044 6.7403,-6.74044 z m 39.6765,0 c 3.7262,0 6.7404,3.01403 6.7404,6.74044 0,3.7264 -3.0142,6.74036 -6.7404,6.74036 -3.7265,0 -6.766,-3.01396 -6.766,-6.74036 0,-3.72641 3.0395,-6.74044 6.766,-6.74044 z m 39.6509,0 c 3.7264,0 6.7404,3.01403 6.7404,6.74044 0,3.7264 -3.014,6.74036 -6.7404,6.74036 -3.7264,0 -6.7404,-3.01396 -6.7404,-6.74036 0,-3.72641 3.014,-6.74044 6.7404,-6.74044 z m 39.6508,0 c 3.7266,0 6.766,3.01403 6.766,6.74044 0,3.7264 -3.0394,6.74036 -6.766,6.74036 -3.7261,0 -6.7404,-3.01396 -6.7404,-6.74036 0,-3.72641 3.0143,-6.74044 6.7404,-6.74044 z m 39.6766,0 c 3.7261,0 6.7404,3.01403 6.7404,6.74044 0,3.7264 -3.0143,6.74036 -6.7404,6.74036 -3.7266,0 -6.766,-3.01396 -6.766,-6.74036 0,-3.72641 3.0394,-6.74044 6.766,-6.74044 z m 79.3017,0 c 3.7265,0 6.7659,3.01403 6.7659,6.74044 0,3.7264 -3.0394,6.74036 -6.7659,6.74036 -3.7262,0 -6.7405,-3.01396 -6.7405,-6.74036 0,-3.72641 3.0143,-6.74044 6.7405,-6.74044 z m 39.6765,0 c 3.7261,0 6.7404,3.01403 6.7404,6.74044 0,3.7264 -3.0143,6.74036 -6.7404,6.74036 -3.7266,0 -6.7404,-3.01396 -6.7404,-6.74036 0,-3.72641 3.0138,-6.74044 6.7404,-6.74044 z m 267.8541,22.2638 c 1.8319,12.02421 3.3806,19.29826 -14.1446,28.13603 6.5266,-12.98571 13.1163,-26.09134 14.1446,-28.13603 z m -585.13801,33.16571 c 3.72648,0 6.74048,3.03954 6.74048,6.76602 0,3.72641 -3.014,6.74037 -6.74048,6.74037 -3.72637,0 -6.76587,-3.01396 -6.76587,-6.74037 0,-3.72648 3.0395,-6.76602 6.76587,-6.76602 z m 39.65091,0 c 3.7266,0 6.7404,3.03954 6.7404,6.76602 0,3.72641 -3.0138,6.74037 -6.7404,6.74037 -3.7262,0 -6.7403,-3.01396 -6.7403,-6.74037 0,-3.72648 3.0141,-6.76602 6.7403,-6.76602 z m 39.6765,0 c 3.7262,0 6.7404,3.03954 6.7404,6.76602 0,3.72641 -3.0142,6.74037 -6.7404,6.74037 -3.7265,0 -6.766,-3.01396 -6.766,-6.74037 0,-3.72648 3.0395,-6.76602 6.766,-6.76602 z m 39.6509,0 c 3.7264,0 6.7404,3.03954 6.7404,6.76602 0,3.72641 -3.014,6.74037 -6.7404,6.74037 -3.7264,0 -6.7404,-3.01396 -6.7404,-6.74037 0,-3.72648 3.014,-6.76602 6.7404,-6.76602 z m 39.6508,0 c 3.7266,0 6.766,3.03954 6.766,6.76602 0,3.72641 -3.0394,6.74037 -6.766,6.74037 -3.7261,0 -6.7404,-3.01396 -6.7404,-6.74037 0,-3.72648 3.0143,-6.76602 6.7404,-6.76602 z m 39.6766,0 c 3.7261,0 6.7404,3.03954 6.7404,6.76602 0,3.72641 -3.0143,6.74037 -6.7404,6.74037 -3.7266,0 -6.766,-3.01396 -6.766,-6.74037 0,-3.72648 3.0394,-6.76602 6.766,-6.76602 z m 39.6508,0 c 3.7264,0 6.7404,3.03954 6.7404,6.76602 0,3.72641 -3.014,6.74037 -6.7404,6.74037 -3.7264,0 -6.7404,-3.01396 -6.7404,-6.74037 0,-3.72648 3.014,-6.76602 6.7404,-6.76602 z m 39.6509,0 c 3.7265,0 6.7659,3.03954 6.7659,6.76602 0,3.72641 -3.0394,6.74037 -6.7659,6.74037 -3.7262,0 -6.7405,-3.01396 -6.7405,-6.74037 0,-3.72648 3.0143,-6.76602 6.7405,-6.76602 z m 39.6765,0 c 3.7261,0 6.7404,3.03954 6.7404,6.76602 0,3.72641 -3.0143,6.74037 -6.7404,6.74037 -3.7266,0 -6.7404,-3.01396 -6.7404,-6.74037 0,-3.72648 3.0138,-6.76602 6.7404,-6.76602 z m 39.6508,0 c 3.7264,0 6.7659,3.03954 6.7659,6.76602 0,3.72641 -3.0395,6.74037 -6.7659,6.74037 -3.7264,0 -6.7404,-3.01396 -6.7404,-6.74037 0,-3.72648 3.014,-6.76602 6.7404,-6.76602 z m -1759.5245,9.44687 0.79147,0.0517 c -0.26244,0.44356 -0.52858,0.8841 -0.79147,1.32767 l 0,-1.37861 z m 13.07228,0.94465 6.89362,0.51084 0,4.31487 -6.89362,-0.48497 0,-4.34037 z m -6.17866,0.38294 0,3.49782 -1.7617,-0.1279 c 0.58329,-1.12466 1.17708,-2.24769 1.7617,-3.37021 z m 20.70629,0.66387 6.86804,0.51085 0,4.34052 -6.86804,-0.51084 z m 1782.37549,5.41278 30.0509,0.61286 0,8.57866 -23.5148,-0.33194 c -2.4928,-2.7768 -4.6196,-5.75063 -6.5361,-8.85958 z m 35.8721,0.71488 33.5489,0.66387 0,8.37447 -33.5489,-0.48497 0,-8.55322 z m 39.3956,0.79155 37.0467,0.74038 0,8.11919 -37.0467,-0.53597 0,-8.32338 z m 42.8935,0.84247 28.4169,0.58699 c -1.3495,2.68528 -2.7213,5.37441 -3.9574,7.83827 l -24.4595,-0.33193 0,-8.09362 z m -1925.66002,0.1279 4.41704,0.33194 0,4.31479 -6.58726,-0.45983 c 0.71858,-1.39842 1.45024,-2.79211 2.17022,-4.18727 z m 1958.59602,0.53597 0.332,0 0,7.88928 -4.2638,-0.0517 c 1.2641,-2.51871 2.5654,-5.11964 3.9318,-7.83827 z m -1948.00032,0.22992 6.89362,0.51084 0,4.3148 -6.89362,-0.48497 0,-4.34045 z m 14.52763,1.04682 6.86804,0.51084 0,4.34045 -6.86804,-0.51084 z m 1794.17119,9.61926 18.2552,0.33194 0,9.19145 c -7.6498,-2.3691 -13.5198,-5.63515 -18.2552,-9.52339 z m 24.0764,0.43396 33.5489,0.61286 0,12.05105 0.2809,0.58698 -6.6894,0 c -10.7792,0 -19.6867,-0.95293 -27.1403,-2.62975 l 0,-10.62121 z m 39.3956,0.71489 37.0467,0.689 0,11.25958 0.2809,0.58698 -37.3275,0 0,-12.53608 z m 42.8935,0.79139 21.7277,0.40882 c -0.3194,0.63874 -0.8182,1.61074 -1.1235,2.22124 -1.8724,3.74473 -3.3567,6.71744 -4.5448,9.11492 l -16.0594,0 0,-11.74469 z m 26.2467,0.48497 7.0213,0.12789 0,9.93191 0.5618,1.19999 -13.1999,0 c 1.0748,-2.15899 2.1287,-4.28308 3.6255,-7.27664 0.5456,-1.09161 1.4008,-2.80393 1.9915,-3.98293 z m -1353.31343,29.91119 12.25524,0 0,37.0467 -12.25524,0 z m 31.50626,0 12.25523,0 0,37.0722 -12.25523,0 z"
         style="fill:#000000;fill-opacity:1;stroke:none"
         inkscape:connector-curvature="0"
         sodipodi:nodetypes="ccccccccccccccccccccccsccscccccccccccccccccccccccccccccccccccccccccsccccccccccccccccccccccccccccccccccccccssssccccccccccscsccscccccccccccccccccsssssccccccccccccccccccccccccscccccccccccccccccccccssccccccccsssssssssscccccccccccsssssssssssssssssssssssssssssssssssssssscccsssssssssssssssssssssssssssssssssssssssssssssssssscccccccccccccccccccccccccccccccccccccccccccccccccccccccccccccccccccccccccccsccccccccccccccccccccccccccccccccccc" />
    </g>
  </g>
</svg>
