<?xml version="1.0" encoding="UTF-8" standalone="no"?>
<!-- Created with Inkscape (http://www.inkscape.org/) -->

<svg
   width="26.044632mm"
   height="128.11554mm"
   viewBox="0 0 26.044632 128.11554"
   version="1.1"
   id="svg5"
   xml:space="preserve"
   inkscape:version="1.2.1 (9c6d41e, 2022-07-14)"
   sodipodi:docname="labels.svg"
   xmlns:inkscape="http://www.inkscape.org/namespaces/inkscape"
   xmlns:sodipodi="http://sodipodi.sourceforge.net/DTD/sodipodi-0.dtd"
   xmlns="http://www.w3.org/2000/svg"
   xmlns:svg="http://www.w3.org/2000/svg"><sodipodi:namedview
     id="namedview7"
     pagecolor="#ffffff"
     bordercolor="#000000"
     borderopacity="0.25"
     inkscape:showpageshadow="2"
     inkscape:pageopacity="0.0"
     inkscape:pagecheckerboard="0"
     inkscape:deskcolor="#d1d1d1"
     inkscape:document-units="mm"
     showgrid="false"
     inkscape:zoom="0.34712911"
     inkscape:cx="-792.21245"
     inkscape:cy="2182.1852"
     inkscape:window-width="956"
     inkscape:window-height="1022"
     inkscape:window-x="0"
     inkscape:window-y="56"
     inkscape:window-maximized="1"
     inkscape:current-layer="g3282" /><defs
     id="defs2" /><g
     inkscape:groupmode="layer"
     id="layer2"
     inkscape:label="Layer 2"
     transform="translate(248.72942,-652.43022)"><path
       style="fill:#ffff00;stroke-width:0.08462"
       d="m -243.17649,677.69368 c 0.0281,-0.44996 0.0337,-0.45839 0.562,-0.84631 l 0.53364,-0.39183 h 3.05551 3.05552 v 0.84619 0.8462 l -3.6175,8e-5 -3.61752,10e-5 0.0284,-0.4545 z m 8.89908,-0.39195 v -0.84619 h 3.05551 3.05552 l 0.53364,0.39183 c 0.52834,0.38792 0.53393,0.39635 0.562,0.84631 l 0.0284,0.45448 -3.61751,-8e-5 -3.61751,-1.5e-4 z m -7.61629,-1.29047 c -2.6e-4,-0.0581 0.15821,-0.9911 0.35215,-2.07318 l 0.35264,-1.96742 h 2.26723 2.26723 l 0.0429,0.27503 c 0.0236,0.15124 0.0841,0.92235 0.13435,1.71356 0.0502,0.79118 0.11315,1.60037 0.13973,1.79816 l 0.0483,0.35964 h -2.80207 c -2.18499,0 -2.80218,-0.0233 -2.80255,-0.10579 z m 7.98742,-0.29616 c 0.0267,-0.22106 0.0896,-1.06832 0.13982,-1.8828 0.0502,-0.81446 0.10881,-1.56653 0.13025,-1.67124 l 0.039,-0.1904 h 2.26642 2.26643 l 0.35808,2.00973 c 0.19695,1.10535 0.35679,2.03828 0.35519,2.07319 -0.002,0.0349 -1.26308,0.0634 -2.80331,0.0634 h -2.8004 z m -10.21766,-1.08614 c -0.70173,-0.16985 -1.46465,-0.55733 -1.95798,-0.99444 -0.40529,-0.35909 -0.89475,-1.07093 -1.01315,-1.47346 l -0.056,-0.1904 h 2.33275 2.33276 v 1.39624 1.39624 l -0.57118,-0.006 c -0.31416,-0.004 -0.79439,-0.061 -1.06719,-0.12711 z m 16.36227,-1.26206 v -1.39624 h 2.33275 2.33276 l -0.056,0.1904 c -0.1184,0.40253 -0.60787,1.11437 -1.01316,1.47346 -0.76912,0.68147 -1.97535,1.12477 -3.06747,1.12736 l -0.52888,8.4e-4 z m -19.378,-1.90965 c 0,-0.18683 0.51687,-4.52604 0.55118,-4.62726 0.0197,-0.0581 0.11321,-0.10577 0.20774,-0.10577 0.15846,0 0.1719,-0.0529 0.1719,-0.67697 v -0.67695 h -0.67695 -0.67697 l 9.2e-4,-0.74044 c 0.002,-1.35835 0.43613,-2.51722 1.26943,-3.39088 0.86443,-0.9063 1.7758,-1.28436 3.09617,-1.28436 h 0.79497 v 2.70783 2.70785 h -0.55003 -0.55003 v 0.67695 c 0,0.6657 0.004,0.67697 0.21156,0.67697 0.11634,0 0.21154,0.0173 0.21154,0.0383 0,0.0675 0.50777,4.39626 0.53894,4.5945 l 0.0299,0.1904 h -2.31531 c -1.58443,0 -2.31532,-0.0285 -2.31532,-0.0903 z m 6.60037,-1.30592 v -1.39623 h 1.90395 1.90395 v 1.39623 1.39623 h -1.90395 -1.90395 z m 7.02347,0 v -1.39623 h 1.90394 1.90396 v 1.39623 1.39623 h -1.90396 -1.90394 z m 6.06489,-0.95196 c 0.15236,-1.29153 0.27805,-2.37678 0.27931,-2.41169 9.2e-4,-0.0349 0.0975,-0.0634 0.21385,-0.0634 0.20802,0 0.21155,-0.0113 0.21155,-0.67696 v -0.67696 h -0.55002 -0.55004 v -2.70785 -2.70783 h 0.79498 c 1.32036,0 2.23174,0.37805 3.09617,1.28437 0.83329,0.87364 1.26713,2.03252 1.26942,3.39088 l 9.2e-4,0.74043 h -0.67696 -0.67696 v 0.67696 c 0,0.62404 0.0135,0.67696 0.1719,0.67696 0.0945,0 0.18803,0.0476 0.20774,0.10577 0.0343,0.10123 0.55118,4.44043 0.55118,4.62727 0,0.0619 -0.7294,0.0903 -2.3102,0.0903 h -2.3102 z m -13.00374,-0.87387 c -0.51313,-0.10271 -1.00288,-0.4642 -1.24165,-0.91647 -0.18647,-0.35321 -0.1969,-0.45959 -0.1969,-2.00973 v -1.63678 h 1.54853 1.54851 l 0.18251,0.62033 c 0.24209,0.82285 0.78426,1.56002 1.47633,2.00734 0.66562,0.43021 1.20572,0.58789 2.01373,0.58789 0.80802,0 1.34812,-0.15768 2.01374,-0.58789 0.69207,-0.44732 1.23424,-1.18449 1.47633,-2.00734 l 0.1825,-0.62033 h 1.55476 1.55476 l -0.0274,1.72769 -0.0274,1.72767 -0.25464,0.36204 c -0.15395,0.2189 -0.42066,0.44752 -0.67455,0.57822 l -0.41993,0.21617 -5.16423,0.0137 c -2.84032,0.007 -5.33558,-0.0206 -5.54501,-0.0625 z m 2.87708,-4.94377 v -2.32706 h 0.70518 0.70518 l 0.48998,1.62894 c 0.26948,0.89592 0.51624,1.65801 0.54835,1.69356 0.0321,0.0355 0.21765,-0.49974 0.41233,-1.18947 0.19467,-0.68976 0.41268,-1.45186 0.48446,-1.69355 l 0.1305,-0.43948 h 0.716 0.71598 v 2.32706 2.32705 h -0.5058 -0.50582 l -0.0231,-1.52123 -0.0231,-1.52123 -0.47106,1.50007 -0.47107,1.50008 -0.47598,0.0252 -0.47598,0.0252 -0.43323,-1.37915 c -0.23828,-0.75853 -0.46596,-1.47435 -0.50596,-1.59069 -0.0459,-0.13349 -0.0752,0.37399 -0.0794,1.37508 l -0.006,1.58661 h -0.46543 -0.46541 z m -4.29897,-1.93924 0.0256,-1.89692 0.25463,-0.36204 c 0.15404,-0.21901 0.4206,-0.44745 0.67471,-0.57822 l 0.42006,-0.21617 h 5.3779 5.37789 l 0.42007,0.21617 c 0.25412,0.13078 0.52066,0.3592 0.6747,0.57823 l 0.25463,0.36204 0.027,1.89692 0.027,1.89692 h -1.55951 -1.55949 l -0.0477,-0.40287 c -0.11992,-1.01248 -0.70188,-1.95311 -1.56892,-2.53588 -0.66772,-0.4488 -1.22128,-0.61529 -2.04561,-0.61529 -0.82433,0 -1.37789,0.16649 -2.04561,0.61529 -0.86704,0.58277 -1.449,1.5234 -1.56892,2.53588 l -0.0478,0.40287 h -1.55818 -1.55818 z m 1.20518,-4.0404 c 0.2772,-2.45016 2.07915,-4.39312 4.50469,-4.8572 0.80462,-0.15394 1.28334,-0.15314 2.11454,0.004 0.85165,0.16058 2.0305,0.73969 2.66904,1.31117 0.96811,0.86642 1.64977,2.20452 1.80096,3.53521 l 0.0601,0.52888 h -5.60417 -5.60417 z m 2.94842,-0.27135 c 0.14977,-0.0638 0.3675,-0.21919 0.48385,-0.34529 0.17929,-0.19431 0.21155,-0.31106 0.21155,-0.76567 0,-0.45461 -0.0322,-0.57135 -0.21155,-0.76568 -0.24563,-0.26621 -0.66013,-0.46131 -0.98005,-0.46131 -0.37537,0 -0.86482,0.33501 -1.05082,0.71925 -0.21309,0.44017 -0.21193,0.57771 0.008,1.03351 0.28969,0.59841 0.93296,0.84313 1.5383,0.58519 z m 6.23652,-0.0642 c 0.36605,-0.22315 0.48349,-0.37288 0.59075,-0.75321 0.11866,-0.42077 -0.0228,-0.85909 -0.37795,-1.1709 -0.54401,-0.47764 -1.24621,-0.42736 -1.73024,0.12391 -0.2194,0.2499 -0.25808,0.36229 -0.25808,0.74993 0,0.37194 0.0421,0.50602 0.2285,0.72754 0.42647,0.50683 1.03633,0.63405 1.54702,0.32273 z"
       id="path3316" /><path
       id="path3650"
       style="fill:#ffff00;stroke-width:0.0624162"
       d="m -235.47486,780.29561 c -0.0217,-0.15807 -0.0394,-1.01503 -0.0394,-1.90434 v -1.61695 l -0.1532,-0.15321 c -0.19209,-0.19208 -0.30782,-0.19145 -0.64897,0.004 -0.14941,0.0854 -0.29687,0.1553 -0.32769,0.1553 -0.092,0 -0.071,-2.7654 0.022,-2.88666 0.0816,-0.10649 2.63623,-1.60732 2.73587,-1.60732 0.033,0 0.0573,0.594 0.0573,1.40436 0,1.60006 0.0385,1.48002 -0.58966,1.83941 -0.29082,0.16638 -0.38611,0.26262 -0.4879,0.49271 -0.12114,0.27386 -0.12461,0.36165 -0.0822,2.07965 0.042,1.70246 0.0381,1.80787 -0.0787,2.07173 -0.0676,0.1529 -0.17811,0.30751 -0.24549,0.34357 -0.1116,0.0597 -0.12602,0.04 -0.16191,-0.22183 z m 4.74343,-2.54989 c -0.0216,-0.0562 -0.0392,-0.91056 -0.0392,-1.89866 0,-1.72301 -0.005,-1.80328 -0.12936,-1.961 -0.16145,-0.20525 -0.32192,-0.20719 -0.6953,-0.008 -0.16121,0.0858 -0.30845,0.15605 -0.32719,0.15605 -0.0188,0 -0.034,-0.6266 -0.034,-1.39244 0,-1.02999 0.0207,-1.42076 0.0796,-1.50126 0.0437,-0.0598 0.68275,-0.45676 1.41997,-0.88199 l 1.34039,-0.77314 0.0168,1.40401 c 0.009,0.77222 -0.006,1.44468 -0.0338,1.49437 -0.0278,0.0497 -0.24322,0.20964 -0.4787,0.35546 -0.69295,0.42908 -0.67635,0.36211 -0.63669,2.56874 0.0361,2.01311 0.0246,2.10929 -0.28717,2.39659 -0.13679,0.12602 -0.16096,0.13119 -0.1953,0.0417 z m -10.85281,-1.3292 -2.04413,-0.2229 v -1.77037 -1.77038 l 0.26527,0.0367 c 0.14589,0.0202 1.16054,0.1321 2.25476,0.24878 1.09421,0.11667 2.00989,0.23532 2.03484,0.26366 0.025,0.0283 0.032,0.8169 0.0156,1.75237 l -0.0297,1.70084 -0.22629,-0.008 c -0.12446,-0.005 -1.14615,-0.10817 -2.27042,-0.23077 z m 3.07454,-1.64426 4.8e-4,-1.70604 1.20097,-0.6964 c 1.38219,-0.80148 13.67552,-7.94574 14.07431,-8.17927 l 0.26527,-0.15535 v 1.7151 1.71507 l -0.37898,0.22576 c -0.20843,0.12416 -0.40504,0.22575 -0.43691,0.22575 -0.0322,0 -0.0579,-0.30739 -0.0579,-0.69069 0,-0.85359 -0.0829,-1.05399 -0.43692,-1.05589 -0.22213,-0.002 -3.10386,1.67842 -3.26967,1.90573 -0.11875,0.16277 -0.13402,0.27988 -0.15191,1.16472 l -0.0198,0.98374 -0.41703,0.25 -0.41703,0.25 -0.0312,-0.77339 c -0.034,-0.84423 -0.11141,-1.03556 -0.41868,-1.03556 -0.21674,0 -3.16392,1.71365 -3.30514,1.9218 -0.0956,0.14092 -0.11998,0.33554 -0.14599,1.16633 l -0.0312,0.99719 -0.4057,0.23594 -0.40571,0.23593 -0.0312,-0.77435 c -0.0337,-0.83629 -0.11197,-1.03652 -0.40519,-1.03652 -0.14745,0 -2.90253,1.55216 -3.14286,1.77064 -0.28633,0.26029 -0.3217,0.4131 -0.32263,1.39388 l -9.1e-4,0.92374 -0.5971,0.34329 c -0.3284,0.18881 -0.62292,0.35265 -0.6545,0.36409 -0.034,0.0124 -0.0572,-0.67345 -0.0569,-1.68524 z m -7.43966,0.15563 -1.79046,-1.03294 0.0357,-1.6939 c 0.0196,-0.93164 0.0389,-1.69774 0.0428,-1.70242 0.0124,-0.015 3.43185,1.97273 3.48483,2.02572 0.028,0.0279 0.0434,0.8126 0.0342,1.74365 l -0.0166,1.69282 z m 19.92238,-1.74094 c 0,-1.82042 -0.0211,-2.03635 -0.21219,-2.16391 -0.13048,-0.0871 -0.38165,-0.0434 -0.63043,0.10991 -0.13732,0.0845 -0.27073,0.15391 -0.29648,0.15409 -0.0257,1.8e-4 -0.0469,-0.62855 -0.0469,-1.39713 0,-1.2402 0.0123,-1.41195 0.10923,-1.52633 0.0601,-0.0709 0.69906,-0.46727 1.41997,-0.88088 l 1.31074,-0.752 0.0177,1.42011 0.0177,1.4201 -0.17372,0.14731 c -0.0955,0.081 -0.31415,0.2355 -0.48579,0.34329 -0.53725,0.33741 -0.54005,0.35058 -0.5257,2.47417 0.006,1.01271 0.008,1.90233 0.004,1.97692 -0.0104,0.16443 -0.29753,0.51973 -0.4199,0.51973 -0.0738,0 -0.0881,-0.29832 -0.0881,-1.84538 z m -5.3261,-8.39632 c 0.16922,-0.086 0.24105,-0.0873 0.27038,-0.24187 0.0296,-0.1555 -0.11415,-0.23735 -1.47728,-1.02319 -0.59391,-0.34239 -1.08152,-0.6389 -1.3647,-0.77394 -0.17229,-0.1024 -0.27036,-0.0609 -0.4104,9.1e-4 -0.46544,0.25738 -1.74648,1.05427 -2.96087,1.79558 -1.59598,0.97425 -3.27102,1.75816 -3.27402,1.98517 -0.002,0.16215 0.10468,0.23484 1.482,1.02868 0.8151,0.46979 1.46166,0.9297 1.58942,0.85417 0.93308,-0.55159 1.89513,-1.18415 2.92511,-1.79221 1.06317,-0.62766 2.16056,-1.29487 3.22036,-1.83336 z m -17.36587,6.96814 c -0.006,-0.0357 6.4e-4,-1.42811 6.4e-4,-1.99787 0,-0.6427 -0.0275,-1.52044 0.004,-1.48633 0.0301,0.0326 0.21347,0.66845 0.30434,0.94555 0.0819,0.24976 0.29475,0.72345 0.355,0.9483 0.0323,0.12044 -0.003,0.73634 -0.0103,1.27889 0,0 -0.0443,1.81436 -0.0443,2.02263 0,0.10625 -0.41939,-1.1808 -0.41939,-1.1808 -0.0472,-0.1447 -0.17507,-0.44999 -0.19016,-0.53037 z m 7.23823,0.62855 -2.3151,-0.25733 -1.83558,-1.05576 c -1.00957,-0.58067 -1.89998,-1.10082 -1.97872,-1.15591 -0.1087,-0.076 -0.24715,-0.41443 -0.57544,-1.4064 -0.23775,-0.71843 -0.42613,-1.31205 -0.4186,-1.31915 0.007,-0.007 1.74106,-1.01654 3.85229,-2.24317 2.11123,-1.22664 5.66625,-3.29214 7.90003,-4.58999 l 4.06143,-2.35974 2.46876,0.26736 2.46875,0.26734 1.98394,1.14903 1.98395,1.14904 0.42397,1.31065 c 0.23318,0.72087 0.40427,1.32942 0.38019,1.35235 -0.0364,0.0346 -5.71717,3.34077 -14.04609,8.1746 -1.13696,0.65985 -1.76176,0.98764 -1.87249,0.98235 -0.0914,-0.005 -1.20798,-0.12373 -2.48129,-0.26527 z m 13.73729,-10.14361 c 1.20786,-0.535 1.08675,-1.66503 -0.2221,-2.0724 -1.22095,-0.37999 -2.68025,0.20097 -2.68025,1.06704 0,0.4763 0.49576,0.95227 1.16827,1.12164 0.41589,0.10474 1.38126,0.04 1.73408,-0.11628 z m -14.22282,8.23467 c 1.04874,-0.36861 1.28961,-1.23899 0.50787,-1.83526 -1.01087,-0.77102 -3.06787,-0.37195 -3.2691,0.63424 -0.10261,0.51304 0.31687,0.9986 1.0679,1.23612 0.39984,0.12645 1.28594,0.10808 1.69333,-0.035 z m 9.04227,-3.14831 c 3.87267,-2.24908 4.55917,-2.66866 4.57495,-2.79618 0.0107,-0.0863 -0.0291,-0.19059 -0.0936,-0.24542 -0.0982,-0.0835 -4.98507,-2.9141 -5.42577,-3.14275 -0.14825,-0.077 -0.19375,-0.0735 -0.39185,0.029 -0.12325,0.0639 -2.20427,1.26689 -4.62445,2.67354 -3.76976,2.19102 -4.40304,2.57936 -4.41911,2.70987 -0.0103,0.0838 0.0179,0.18279 0.0628,0.22002 0.23348,0.19378 5.5267,3.19846 5.63428,3.19828 0.0695,-1.2e-4 2.17677,-1.19097 4.68278,-2.64635 z"
       sodipodi:nodetypes="sscssssssssssssssscssssscscsssssccccsssscsccccsscccssscsscccsssscccsssscssscccsssscccsssssscccssccsccsssccssssssssssssscssssscsscccccssscssssssssssssssssssssssssss" /></g></svg>
