<?xml version="1.0" encoding="UTF-8" standalone="no"?>
<!-- Created with Inkscape (http://www.inkscape.org/) -->

<svg
   xmlns:dc="http://purl.org/dc/elements/1.1/"
   xmlns:cc="http://creativecommons.org/ns#"
   xmlns:rdf="http://www.w3.org/1999/02/22-rdf-syntax-ns#"
   xmlns:svg="http://www.w3.org/2000/svg"
   xmlns="http://www.w3.org/2000/svg"
   xmlns:sodipodi="http://sodipodi.sourceforge.net/DTD/sodipodi-0.dtd"
   xmlns:inkscape="http://www.inkscape.org/namespaces/inkscape"
   width="120mm"
   height="20mm"
   viewBox="0 0 120 20"
   version="1.1"
   id="svg8"
   sodipodi:docname="phoenix watch band.svg"
   inkscape:version="0.92.3 (2405546, 2018-03-11)">
  <defs
     id="defs2" />
  <sodipodi:namedview
     id="base"
     pagecolor="#ffffff"
     bordercolor="#666666"
     borderopacity="1.0"
     inkscape:pageopacity="0.0"
     inkscape:pageshadow="2"
     inkscape:zoom="0.7"
     inkscape:cx="20.356851"
     inkscape:cy="262.94757"
     inkscape:document-units="mm"
     inkscape:current-layer="layer1"
     showgrid="false"
     inkscape:snap-page="true"
     inkscape:window-width="1920"
     inkscape:window-height="1025"
     inkscape:window-x="0"
     inkscape:window-y="27"
     inkscape:window-maximized="1" />
  <metadata
     id="metadata5">
    <rdf:RDF>
      <cc:Work
         rdf:about="">
        <dc:format>image/svg+xml</dc:format>
        <dc:type
           rdf:resource="http://purl.org/dc/dcmitype/StillImage" />
        <dc:title></dc:title>
      </cc:Work>
    </rdf:RDF>
  </metadata>
  <g
     inkscape:label="Layer 1"
     inkscape:groupmode="layer"
     id="layer1"
     transform="translate(0,-277)">
    <rect
       style="opacity:1;vector-effect:none;fill:none;fill-opacity:1;stroke:#ffff00;stroke-width:0.30000001;stroke-linecap:round;stroke-linejoin:round;stroke-miterlimit:4;stroke-dasharray:none;stroke-dashoffset:0;stroke-opacity:1;paint-order:stroke fill markers"
       id="rect868"
       width="68.035713"
       height="19.999998"
       x="0"
       y="277" />
    <path
       style="fill:#668000;stroke-width:0.04194685"
       d="m 29.686175,290.31628 c 0.983161,0.35423 2.073631,0.66796 2.772035,0.79757 0.976009,0.18112 2.18945,0.21462 3.339189,0.0923 0.647977,-0.0689 1.836044,-0.30242 2.277846,-0.44772 1.655449,-0.54445 3.102633,-1.49224 5.792187,-3.79337 2.254679,-1.92907 3.065865,-2.51507 4.282704,-3.09244 1.728077,-0.81995 5.06643,-1.73042 9.111224,-2.48553 1.135946,-0.21206 2.022912,-0.35972 2.111212,-0.35245 0.08375,0.007 0.133757,0.0183 0.111628,0.0257 -0.520975,0.16444 -1.27602,0.41594 -2.07976,0.69195 -0.554058,0.19026 -1.305542,0.44412 -1.669795,0.56451 -1.357605,0.44877 -2.295691,0.84763 -3.826575,1.62597 -1.230642,0.6257 -1.540961,0.82273 -1.989471,1.26491 -0.272874,0.26908 -0.329108,0.41969 -0.269649,0.72114 0.07809,0.39591 0.464247,0.50382 1.40062,0.39229 0.562569,-0.067 1.599321,-0.31423 2.59083,-0.6182 0.312736,-0.0958 0.953481,-0.27058 1.424116,-0.38812 0.957308,-0.23909 1.45254,-0.38605 1.979463,-0.58763 0.401814,-0.15371 0.453871,-0.17651 1.928435,-0.84455 0.582829,-0.26405 1.365095,-0.61008 1.738671,-0.76899 1.125504,-0.47873 1.658179,-0.81292 2.304838,-1.44579 0.369476,-0.36159 0.839823,-0.86917 1.186969,-1.28178 l 0.189413,-0.22545 -0.126887,0.40977 c -0.340831,1.10293 -0.848464,1.85189 -1.691975,2.49544 -0.362567,0.27663 -0.607615,0.41987 -1.30973,0.76629 -1.455708,0.71823 -2.104599,1.09869 -3.36599,1.97256 -1.317896,0.91302 -2.073279,1.33545 -2.718393,1.52158 -0.164691,0.0475 -0.335357,0.12029 -0.37932,0.16145 -0.04763,0.0446 -0.192967,0.0972 -0.359777,0.13006 -0.153965,0.0303 -0.572432,0.13293 -0.929511,0.22803 -1.193824,0.31807 -1.592143,0.48418 -1.559599,0.64919 0.0029,0.0146 0.639494,-0.0853 1.414963,-0.22202 0.775466,-0.13666 1.44276,-0.23997 1.483043,-0.22955 0.09912,0.0255 2.558391,-0.5208 3.036297,-0.67447 1.454935,-0.46782 2.495351,-1.0552 3.323922,-1.87715 0.103465,-0.10244 0.103706,-0.10282 0.07528,-0.009 -0.05597,0.18309 -0.472731,0.70789 -0.779863,0.98179 -1.620987,1.44562 -3.866095,2.55537 -6.288844,3.10895 -0.872984,0.1993 -1.139072,0.22725 -2.220548,0.2326 -1.092354,0.005 -1.510886,0.0396 -2.209742,0.17711 -0.53514,0.10569 -0.716549,0.15832 -0.97034,0.28103 -0.507335,0.24529 -0.725389,0.53174 -0.688328,0.90505 0.02008,0.20219 0.03072,0.21849 0.212353,0.33956 0.111751,0.0744 0.296862,0.14407 0.446766,0.16854 0.274798,0.0447 0.892336,0.0434 1.136015,-0.003 0.135138,-0.0254 0.142323,-0.0219 0.07673,0.0383 -0.05026,0.0461 -0.293189,0.1091 -0.793505,0.20521 -0.621051,0.11931 -0.823858,0.14007 -1.466516,0.14964 -2.373988,0.0361 -2.868008,0.0737 -4.065295,0.30849 -0.894505,0.1754 -1.452107,0.34144 -1.976859,0.58862 -0.171971,0.081 -0.197622,0.11091 -0.222855,0.25969 -0.01693,0.0999 -0.01064,0.17975 0.01575,0.19714 0.02594,0.0171 0.151078,-0.0166 0.300786,-0.0808 0.14092,-0.0605 0.523726,-0.18544 0.850492,-0.27765 0.96756,-0.2731 2.042359,-0.37459 4.19022,-0.39571 1.588737,-0.0157 1.758839,-0.0274 2.508459,-0.17881 0.578859,-0.11667 0.75117,-0.16653 1.002699,-0.29147 0.369435,-0.18352 0.790779,-0.51594 0.896363,-0.70704 0.08572,-0.15517 0.06111,-0.42979 -0.04364,-0.48655 -0.08027,-0.0434 -0.487101,-0.0318 -0.945857,0.0265 -0.635069,0.0811 -1.504632,0.0673 -1.52263,-0.0239 -0.01122,-0.0569 0.361009,-0.23006 0.792378,-0.36852 0.700876,-0.22493 1.176278,-0.2671 2.679405,-0.23849 l 0.750764,0.0142 1.172861,-0.23279 c 1.217337,-0.24173 1.58374,-0.34824 2.547617,-0.73985 1.611562,-0.65475 3.27025,-1.68421 4.195607,-2.60386 0.164309,-0.16329 0.334418,-0.34508 0.378188,-0.40434 0.134589,-0.18228 0.328503,-0.64851 0.479842,-1.15269 0.192824,-0.64232 0.14312,-0.87514 -0.117756,-0.55023 -0.05608,0.0698 -0.114225,0.12897 -0.129214,0.13226 -0.01499,0.003 -0.350126,0.24061 -0.744809,0.52782 -1.031617,0.75067 -1.646619,1.06619 -2.725462,1.3982 -0.839997,0.25849 -0.826008,0.23497 0.329383,-0.5476 1.88579,-1.27726 1.987598,-1.33647 3.17662,-1.8505 0.388669,-0.16803 0.84388,-0.39244 1.011573,-0.4984 0.599184,-0.3786 1.197131,-1.03301 1.590453,-1.74038 0.267126,-0.48041 0.365545,-0.72811 0.593036,-1.49604 0.09618,-0.32466 0.230132,-0.73151 0.297609,-0.90361 0.147995,-0.37749 0.156904,-0.48231 0.05634,-0.66062 -0.09248,-0.16363 -0.202308,-0.15954 -0.289235,0.0107 -0.03283,0.0644 -0.151461,0.17598 -0.263917,0.24809 -0.249142,0.15974 -0.517286,0.42809 -0.995595,0.99789 l -0.363144,0.43352 -0.04158,-0.1439 c -0.02278,-0.079 -0.07215,-0.16004 -0.109485,-0.18032 -0.13421,-0.073 -2.366307,-0.1003 -3.363001,-0.0412 -0.821626,0.0488 -2.255916,0.29251 -3.908954,0.66467 -3.253833,0.73255 -4.551124,1.06585 -5.717238,1.46861 -0.296958,0.10253 -0.545018,0.18364 -0.551612,0.17877 -0.0066,-0.005 0.177027,-0.23686 0.408044,-0.51605 0.62484,-0.75516 0.620724,-0.74814 0.564911,-0.95227 -0.04404,-0.16093 -0.05654,-0.17274 -0.178355,-0.16036 -0.180511,0.0177 -0.643822,0.24364 -1.594826,0.77703 -0.444631,0.24938 -1.339936,0.73352 -1.989543,1.07627 -0.649606,0.34277 -1.429218,0.77883 -1.732696,0.96891 -1.015599,0.63615 -3.007571,2.23093 -4.578513,3.66522 -0.572652,0.52283 -1.31377,1.12113 -1.354492,1.09383 -0.01064,-0.007 0.01872,-0.11463 0.0651,-0.23903 0.04638,-0.12439 0.118399,-0.49802 0.160009,-0.83011 0.08986,-0.71716 0.138364,-0.90456 0.279676,-1.08055 0.129142,-0.16083 0.415483,-0.36678 0.546397,-0.39265 0.118864,-0.0234 0.166167,-0.16143 0.114409,-0.33407 -0.0325,-0.1084 -0.07925,-0.14367 -0.290628,-0.21915 -0.385732,-0.13761 -0.709946,-0.17864 -1.053392,-0.13341 -0.438016,0.0577 -0.761356,0.25239 -1.539664,0.92842 -1.827742,1.58755 -2.799881,2.28103 -3.662036,2.61255 -0.423415,0.16281 -1.24847,0.31618 -1.70203,0.31705 -0.440648,6.2e-4 -1.023953,-0.0778 -1.439632,-0.19357 -0.330765,-0.0921 -0.574823,-0.20998 -1.3363,-0.64475 -0.287071,-0.1639 -0.610983,-0.33242 -0.719567,-0.3746 l -0.197391,-0.0768 0.175232,-0.28977 c 0.538261,-0.89058 0.69414,-1.82264 0.602482,-3.60243 -0.07079,-1.37452 0.01693,-1.94368 0.392618,-2.54652 0.380952,-0.61128 1.524122,-1.60475 2.246355,-1.95169 0.260567,-0.12517 0.757796,-0.21122 1.072979,-0.18638 0.268993,0.0212 0.278976,0.0187 0.318643,-0.0661 0.04762,-0.10204 -0.0049,-0.41662 -0.08607,-0.51569 -0.03072,-0.0375 -0.113119,-0.0692 -0.182802,-0.0708 -0.06969,-0.002 -0.283953,-0.0876 -0.476145,-0.19072 -0.19219,-0.10318 -0.533441,-0.2363 -0.75835,-0.29631 -0.224911,-0.06 -0.48523,-0.16217 -0.578674,-0.22695 -0.215735,-0.14958 -0.469175,-0.23796 -0.811842,-0.28287 -0.247903,-0.0325 -0.9742,-0.043 -1.350086,-0.0284 l -6e-6,5.3e-4 c -0.125301,0.004 -0.211816,0.0122 -0.228518,0.0231 -0.06791,0.0426 -0.09429,0.31086 -0.04095,0.41636 0.02449,0.0484 0.07369,0.12636 0.109342,0.17307 0.09014,0.11803 0.0034,0.23324 -0.313369,0.41497 -0.384244,0.22051 -0.876339,0.33182 -1.373421,0.31114 -0.320865,-0.0133 -0.415851,-0.004 -0.455518,0.0446 -0.07368,0.0906 -0.0656,0.28706 0.01871,0.4555 0.06454,0.12884 0.06531,0.16109 0.0074,0.24743 -0.109765,0.16368 -0.474304,0.21302 -0.813458,0.10994 -0.436072,-0.1325 -0.893123,-0.14787 -1.39542,-0.0471 -0.98103,0.1968 -1.842489,0.72083 -3.359426,2.04376 -1.59386,1.39002 -2.373793,1.86252 -4.18198,2.53432 -0.956297,0.35529 -1.904928,0.58641 -2.386359,0.58113 -0.185146,-0.002 -0.492072,-0.0511 -0.72433,-0.11609 -0.221725,-0.0621 -0.416559,-0.10062 -0.43274,-0.0856 -0.01618,0.015 -0.03489,0.10669 -0.04149,0.20394 -0.01648,0.24101 0.07678,0.37108 0.376727,0.525 0.515393,0.26445 0.90209,0.29999 1.661588,0.15201 0.294384,-0.0574 0.648056,-0.14125 0.78612,-0.18646 0.232805,-0.0758 0.251956,-0.0757 0.266677,-0.001 0.0125,0.0634 0.1178,0.10112 0.495028,0.17846 0.671433,0.13777 0.900737,0.1531 1.363181,0.0901 0.481195,-0.0655 0.879751,-0.20461 1.391735,-0.48465 0.632675,-0.34605 1.060088,-0.70597 2.272926,-1.91448 1.354705,-1.34985 1.583398,-1.54354 1.904114,-1.61213 0.196428,-0.0421 0.228535,-0.0621 0.256314,-0.1611 0.0403,-0.14364 0.0012,-0.35275 -0.07562,-0.40426 -0.08281,-0.0555 -0.359786,0.007 -0.608243,0.13749 -0.330006,0.17325 -0.753754,0.52189 -1.414124,1.16321 -1.413978,1.37322 -2.055282,1.86957 -3.022838,2.34006 -0.398907,0.19399 -1.117283,0.35012 -1.434914,0.31182 -0.215634,-0.026 -0.197273,-0.0481 0.137845,-0.16654 0.347169,-0.12273 1.282181,-0.56857 1.680667,-0.80145 0.544245,-0.31807 1.152236,-0.78553 2.023076,-1.55502 1.259366,-1.11279 1.808336,-1.49608 2.551007,-1.78192 0.626646,-0.24125 1.598128,-0.37995 1.90913,-0.27252 0.476549,0.16461 1.043438,-0.16379 1.179547,-0.68362 l 0.05386,-0.20625 0.17626,5.5e-4 c 0.09709,10e-5 0.389287,-0.043 0.649381,-0.0954 0.39217,-0.079 0.510007,-0.11907 0.690578,-0.23525 0.416625,-0.26805 0.566152,-0.47379 0.6865,-0.94585 0.0097,-0.0381 1.03539,-0.0263 1.250055,0.0143 0.219436,0.0415 0.252764,0.0625 0.322856,0.20197 0.07716,0.15357 0.08372,0.15656 0.4712,0.20219 l 0.392681,0.046 -0.233374,0.11827 c -0.322916,0.16377 -0.654271,0.39554 -1.120734,0.78378 -0.750507,0.62467 -1.147558,1.07987 -1.402826,1.60853 -0.30362,0.62878 -0.353396,1.08913 -0.255806,2.35363 0.0761,0.98597 0.06292,1.53885 -0.0505,2.12117 -0.07138,0.36642 -0.351386,1.10177 -0.552542,1.45233 l -0.09545,0.16727 -0.03669,-0.18484 c -0.101926,-0.51669 -0.09104,-1.38631 0.02522,-2.03951 0.03405,-0.19128 0.16468,-0.71894 0.290278,-1.17276 0.125588,-0.45382 0.215209,-0.83383 0.19953,-0.84433 -0.05709,-0.0383 -0.279624,0.18367 -0.45577,0.45445 -0.481322,0.73994 -0.619305,2.13918 -0.378704,3.83893 0.257936,1.82224 1.27371,3.47622 2.741944,4.46425 0.745797,0.50189 1.566312,0.81688 2.675214,1.02688 0.72399,0.13711 1.229842,0.18779 3.607006,0.3605 1.169002,0.0849 2.418108,0.19355 2.776151,0.24186 1.719748,0.23203 2.574155,0.69439 2.521599,1.3648 -0.01576,0.201 -0.08421,0.21166 -0.123677,0.0189 -0.0098,-0.0478 -0.110942,-0.20703 -0.224522,-0.3538 -0.16157,-0.20878 -0.273718,-0.3036 -0.516058,-0.43441 -0.635691,-0.34308 -1.007332,-0.40243 -2.344538,-0.37227 -3.941454,0.0876 -6.408948,-0.0882 -7.987889,-0.5694 -1.063429,-0.32408 -1.670588,-0.67746 -2.778775,-1.6177 -1.321452,-1.1212 -1.844945,-1.73306 -2.063451,-2.41111 -0.05457,-0.16932 -0.08333,-0.2091 -0.143411,-0.19722 -0.129098,0.0254 -0.143707,0.18584 -0.04805,0.52918 0.212425,0.76246 0.777218,1.47506 2.019042,2.54532 2.18079,1.87951 4.069351,2.41964 8.544,2.44353 0.638442,0.004 1.626196,-0.009 2.195129,-0.0259 1.192532,-0.0369 1.736333,-0.017 2.071548,0.0773 0.47455,0.13353 0.925653,0.5023 0.985387,0.80511 0.03428,0.17378 -0.04575,0.50585 -0.135786,0.56243 -0.07047,0.0443 -0.131857,0.30529 -0.10451,0.44395 0.01043,0.0528 0.04672,0.11547 0.08076,0.13901 l -2e-5,-10e-4 c 0.09142,0.0633 0.464741,-0.0669 0.698684,-0.24367 0.631938,-0.47737 0.64394,-1.50143 0.02656,-2.31451 -0.326854,-0.43047 -0.794855,-0.7218 -1.424772,-0.88699 -0.715676,-0.18765 -1.314753,-0.25034 -4.616753,-0.48236 -2.181234,-0.15325 -3.012019,-0.263 -3.939901,-0.52093 -0.927782,-0.25789 -1.89166,-0.79434 -2.471148,-1.3751 -0.271975,-0.27258 -0.697034,-0.73683 -0.7224,-0.79034 l -0.209328,-0.44151 c -0.224496,-0.40728 -0.458943,-0.93957 -0.431634,-0.98031 0.0073,-0.0109 0.242337,0.11853 0.52198,0.28802 0.963766,0.58416 1.52197,0.82755 2.220765,0.96754 0.933245,0.18698 1.929385,0.11078 2.842621,-0.21791 0.955354,-0.34383 1.7736,-0.90288 3.367847,-2.30028 0.531951,-0.46627 1.044234,-0.86877 1.244092,-0.97743 0.220191,-0.11972 0.665462,-0.27015 0.78201,-0.26443 l 0.108139,0.006 -0.09601,0.1652 c -0.126107,0.21733 -0.199638,0.49061 -0.283808,1.05427 -0.125652,0.84148 -0.209931,1.02415 -0.599542,1.29562 -0.301158,0.20983 -0.417151,0.37765 -0.382509,0.55328 0.02172,0.11014 0.05612,0.14714 0.175335,0.19092 0.231336,0.0848 0.452214,0.0546 0.791263,-0.1085 0.534512,-0.25716 1.725721,-1.14743 3.196073,-2.38841 0.514061,-0.43386 1.150699,-0.96317 1.414388,-1.17614 1.151662,-0.93013 2.548638,-1.76575 4.899382,-2.93084 0.473814,-0.23482 0.894234,-0.44492 0.934143,-0.46691 0.01554,-0.008 0.02563,-0.0119 0.03079,-0.0109 l 1.2e-5,2.1e-4 c 0.03616,0.007 -0.168696,0.23295 -0.431202,0.46844 -0.350882,0.31478 -0.554133,0.44449 -1.280303,0.8174 -1.150178,0.59066 -1.80797,1.0698 -3.904058,2.84367 -2.711932,2.29504 -3.962429,3.14097 -5.527045,3.74012 -0.88082,0.33729 -1.894926,0.51695 -3.147637,0.55776 -1.777052,0.0579 -2.524779,-0.0513 -4.805595,-0.70299 -0.682169,-0.19492 -1.26464,-0.33914 -1.294289,-0.32046 -0.02965,0.0187 -0.06668,0.0978 -0.08287,0.17632 0.03462,0.31604 0.583271,0.37566 0.8304,0.46473 z m 33.101296,-9.30822 0.149948,0.003 -0.286516,0.28162 c -0.660793,0.64925 -1.183364,0.94648 -2.767501,1.57423 -0.370779,0.14693 -1.141979,0.48242 -1.713295,0.74524 -1.933548,0.88944 -1.963962,0.89937 -6.001902,1.97709 -1.073577,0.28641 -2.1582,0.43767 -2.184516,0.30426 -0.0088,-0.0443 0.218084,-0.2648 0.486922,-0.47366 0.324689,-0.25223 0.688451,-0.46116 1.725556,-0.99047 1.375598,-0.70206 2.274512,-1.08014 3.65211,-1.53469 0.364291,-0.1202 1.229581,-0.4155 1.922812,-0.6563 1.596988,-0.55475 2.225377,-0.75018 3.041316,-0.94644 0.617953,-0.14863 1.609087,-0.29087 1.975072,-0.28363 z m -36.965544,1.71709 -0.2888,0.0594 c -0.522666,0.10725 -1.004996,0.54652 -1.596073,1.45312 -0.583306,0.89468 -0.74838,1.30141 -1.278563,3.15203 -0.543673,1.89772 -0.798013,2.52219 -1.349333,3.31262 -0.823794,1.18106 -1.846805,1.78051 -2.940823,1.7239 -0.426053,-0.0221 -1.058878,-0.19179 -1.463168,-0.39262 -0.169453,-0.0842 -0.337224,-0.14826 -0.37336,-0.14156 -0.07498,0.013 -0.129129,0.19339 -0.100927,0.33638 0.01044,0.053 0.110596,0.17177 0.222762,0.2639 0.446032,0.36636 1.091612,0.62119 1.646522,0.65005 0.18605,0.01 0.41995,-0.0218 0.832525,-0.11291 0.53583,-0.11825 0.60128,-0.14257 0.993969,-0.36781 0.99644,-0.57157 1.707159,-1.39962 2.168951,-2.52648 0.199913,-0.48782 0.30334,-0.84285 0.838311,-2.88189 0.290745,-1.10817 0.458784,-1.59257 0.757398,-2.18306 0.396445,-0.78393 0.931294,-1.35045 1.609245,-1.70456 0.339586,-0.17736 0.421813,-0.28967 0.362964,-0.49554 z m -3.212473,0.70479 c -0.352887,0.0189 -0.585781,0.30379 -0.770319,0.94129 -0.219011,0.7566 -0.562201,1.19942 -1.28504,1.65842 -0.267715,0.17 -0.498336,0.34883 -0.559547,0.43375 -0.136341,0.1891 -0.09666,0.31081 0.112708,0.34512 0.09112,0.0149 0.28942,-0.005 0.482304,-0.0492 0.271246,-0.0617 0.370921,-0.10648 0.581007,-0.26153 0.316773,-0.23385 0.618253,-0.58178 0.760215,-0.87649 0.05989,-0.12432 0.179198,-0.47049 0.265084,-0.76962 0.09803,-0.34146 0.23286,-0.68303 0.362466,-0.91728 0.214297,-0.38733 0.227182,-0.51387 0.05112,-0.50443 z m 1.930694,2.96986 c -0.08973,7.5e-4 -0.313414,0.10655 -0.470509,0.22938 -0.507738,0.39703 -0.882798,1.39794 -1.120466,2.99027 -0.195793,1.31178 -0.376155,1.74039 -1.015446,2.41397 -0.571062,0.60169 -0.813979,0.99049 -0.767313,1.22706 0.01761,0.0897 0.03964,0.10241 0.140135,0.0826 0.392966,-0.0775 0.997954,-0.57974 1.328982,-1.10314 0.45079,-0.71277 0.620459,-1.27927 0.785955,-2.62554 0.132979,-1.08176 0.237004,-1.57906 0.424121,-2.01941 0.134319,-0.31612 0.408366,-0.70112 0.613189,-0.86223 0.142018,-0.1117 0.195551,-0.2695 0.110945,-0.32625 -0.0068,-0.005 -0.01677,-0.007 -0.02959,-0.006 z m 0.906681,1.9603 c -0.0434,-0.003 -0.109082,0.015 -0.196903,0.054 -0.460402,0.20419 -0.757002,0.74992 -1.014277,1.86607 -0.234556,1.01759 -0.423101,1.58481 -0.666811,2.00504 -0.05597,0.0965 -0.277106,0.36807 -0.491618,0.6035 -0.404022,0.44342 -0.531356,0.64695 -0.500644,0.80266 0.01675,0.0849 0.03078,0.0869 0.208264,0.0248 0.442702,-0.15484 0.968063,-0.67033 1.249574,-1.22564 0.197084,-0.38877 0.298935,-0.73215 0.509073,-1.71922 0.170208,-0.79949 0.273973,-1.06166 0.692987,-1.75022 0.270879,-0.44514 0.340546,-0.65134 0.210354,-0.66104 z"
       id="path828"
       inkscape:connector-curvature="0"
       sodipodi:nodetypes="cccccscccccccccccccccccccccccccccccccccccccccccccccccccccccccccccccccccsccccccccccccccccccccccccccccccccccccccccccccsccccccccccccccccccccsccccccccccccccccccccccccccccccccscccccccccccccccccsccccccccccccccccccccccccccscccccccccccccccccccccccscccccccccscccccccccccccssccccccccccccccccccccccccccccscccssccccccccccccccccc" />
    <path
       style="fill:#aa0000;stroke-width:0.01922029"
       d="m 2.2577263,286.11986 c -1.01e-4,0.50631 0.01143,1.0826 0.03399,1.34933 0.159587,1.88221 0.560595,3.50374 1.191073,4.8149 1.016699,2.11436 2.4557467,3.00945 3.7500967,2.33278 1.037523,-0.5424 1.866206,-2.01372 2.266815,-4.02449 0.04002,-0.20085 0.06955,-0.36818 0.06634,-0.37194 -0.0031,-0.004 -0.04754,0.0277 -0.09834,0.07 -0.622717,0.51809 -1.999918,0.21904 -3.494728,-0.75925 -0.66478,-0.43507 -1.1715397,-0.85188 -1.7681997,-1.45414 -0.457217,-0.4615 -0.803723,-0.87312 -1.127941,-1.33839 -0.313794,-0.45034 -0.651146,-1.10499 -0.745079,-1.44646 -0.01386,-0.0505 -0.03164,-0.0958 -0.03963,-0.10077 -0.02271,-0.014 -0.0343,0.42211 -0.03438,0.92841 z m 0.188596,-2.37446 c 0,0.0119 0.02796,-0.005 0.06234,-0.0377 0.630556,-0.60098 2.174769,-0.23657 3.7982537,0.89644 1.594798,1.113 2.940359,2.72526 3.377761,4.04716 0.02444,0.074 0.04621,0.12149 0.04777,0.10563 0.0016,-0.0158 0.0088,-0.11969 0.01582,-0.23069 0.007,-0.11099 0.01425,-0.4225 0.01739,-0.69206 0.02796,-2.69081 -0.621424,-5.34832 -1.721656,-7.04408 -0.43506,-0.67054 -0.989123,-1.20389 -1.505947,-1.45009 -0.308593,-0.14701 -0.498575,-0.19641 -0.794458,-0.20762 -0.285897,-0.0108 -0.441138,0.0109 -0.6831617,0.0959 -0.337602,0.11864 -0.608517,0.29603 -0.915466,0.6002 -0.644504,0.63865 -1.154811,1.6476 -1.48571,2.93661 -0.0715,0.27856 -0.212882,0.92938 -0.212882,0.98023 z"
       id="path863"
       inkscape:connector-curvature="0" />
    <rect
       style="opacity:1;vector-effect:none;fill:none;fill-opacity:1;stroke:#ffff00;stroke-width:0.30000001;stroke-linecap:round;stroke-linejoin:round;stroke-miterlimit:4;stroke-dasharray:none;stroke-dashoffset:0;stroke-opacity:1;paint-order:stroke fill markers"
       id="rect870"
       width="11.5"
       height="20"
       x="0"
       y="277" />
  </g>
</svg>
