<?xml version="1.0" encoding="UTF-8" standalone="no"?>
<!-- Created with Inkscape (http://www.inkscape.org/) -->

<svg
   xmlns:dc="http://purl.org/dc/elements/1.1/"
   xmlns:cc="http://creativecommons.org/ns#"
   xmlns:rdf="http://www.w3.org/1999/02/22-rdf-syntax-ns#"
   xmlns:svg="http://www.w3.org/2000/svg"
   xmlns="http://www.w3.org/2000/svg"
   xmlns:sodipodi="http://sodipodi.sourceforge.net/DTD/sodipodi-0.dtd"
   xmlns:inkscape="http://www.inkscape.org/namespaces/inkscape"
   width="120mm"
   height="20mm"
   viewBox="0 0 120 20"
   version="1.1"
   id="svg8"
   sodipodi:docname="phoenix watch band_nologo.svg"
   inkscape:version="0.92.3 (2405546, 2018-03-11)">
  <defs
     id="defs2" />
  <sodipodi:namedview
     id="base"
     pagecolor="#ffffff"
     bordercolor="#666666"
     borderopacity="1.0"
     inkscape:pageopacity="0.0"
     inkscape:pageshadow="2"
     inkscape:zoom="5.6"
     inkscape:cx="81.432197"
     inkscape:cy="48.960686"
     inkscape:document-units="mm"
     inkscape:current-layer="layer1"
     showgrid="false"
     inkscape:snap-page="true"
     inkscape:window-width="1920"
     inkscape:window-height="1025"
     inkscape:window-x="0"
     inkscape:window-y="27"
     inkscape:window-maximized="1" />
  <metadata
     id="metadata5">
    <rdf:RDF>
      <cc:Work
         rdf:about="">
        <dc:format>image/svg+xml</dc:format>
        <dc:type
           rdf:resource="http://purl.org/dc/dcmitype/StillImage" />
        <dc:title></dc:title>
      </cc:Work>
    </rdf:RDF>
  </metadata>
  <g
     inkscape:label="Layer 1"
     inkscape:groupmode="layer"
     id="layer1"
     transform="translate(0,-277)">
    <rect
       style="opacity:1;vector-effect:none;fill:none;fill-opacity:1;stroke:#ffff00;stroke-width:0.30000001;stroke-linecap:round;stroke-linejoin:round;stroke-miterlimit:4;stroke-dasharray:none;stroke-dashoffset:0;stroke-opacity:1;paint-order:stroke fill markers"
       id="rect868"
       width="68.035713"
       height="19.999998"
       x="0"
       y="277" />
    <path
       style="fill:#668000;stroke-width:0.01536957"
       d="m 7.0490598,290.61037 c 0.1339179,-0.34915 0.2525238,-0.73639 0.3015237,-0.98441 0.068471,-0.34659 0.081136,-0.7775 0.034892,-1.1858 -0.026047,-0.23011 -0.1143309,-0.65202 -0.1692616,-0.8089 -0.2058299,-0.58788 -0.5641451,-1.1018 -1.4340917,-2.05691 -0.7292898,-0.80068 -0.9508283,-1.08875 -1.169104,-1.52086 -0.3099848,-0.61367 -0.6541901,-1.79921 -0.9396607,-3.23557 -0.080168,-0.4034 -0.1359926,-0.71837 -0.1332444,-0.74974 0.00265,-0.0297 0.00693,-0.0476 0.00968,-0.0397 0.062172,0.18502 0.157247,0.45314 0.2615933,0.73856 0.071923,0.19676 0.1679011,0.46364 0.2134148,0.59299 0.169658,0.4821 0.3204483,0.81523 0.614701,1.35889 0.2365472,0.43702 0.3110354,0.54721 0.4782028,0.70648 0.1017313,0.0969 0.1586645,0.11689 0.2726286,0.0958 0.1496745,-0.0277 0.1904699,-0.16486 0.148306,-0.49738 -0.025333,-0.1998 -0.1187955,-0.56797 -0.2337123,-0.92006 -0.036217,-0.11106 -0.102293,-0.3386 -0.1467295,-0.50573 -0.09039,-0.33997 -0.1459468,-0.51583 -0.2221551,-0.70295 -0.058107,-0.14268 -0.066727,-0.16119 -0.3192836,-0.68482 -0.099826,-0.20698 -0.2306427,-0.48477 -0.2907187,-0.61743 -0.1809847,-0.39968 -0.307326,-0.58886 -0.5465838,-0.81849 -0.1366999,-0.13122 -0.3285925,-0.29824 -0.4845799,-0.42151 l -0.085234,-0.0673 0.1549144,0.0451 c 0.4169652,0.12103 0.7001114,0.3013 0.9434066,0.60086 0.1045802,0.12874 0.1587329,0.21576 0.2896976,0.46509 0.2715291,0.51696 0.4153622,0.74739 0.7457311,1.19534 0.3451694,0.468 0.5048702,0.73625 0.5752363,0.96534 0.017955,0.0584 0.04548,0.11911 0.061041,0.13471 0.016865,0.017 0.036747,0.0685 0.04917,0.12776 0.011455,0.0546 0.050249,0.20327 0.086212,0.33009 0.1202465,0.42395 0.1830453,0.56541 0.2454272,0.55383 0.0055,-8.2e-4 -0.032242,-0.22708 -0.083939,-0.50246 -0.051665,-0.27538 -0.090726,-0.51236 -0.086782,-0.52667 0.00968,-0.0353 -0.19689,-0.90852 -0.254985,-1.07824 -0.1768604,-0.51667 -0.3989208,-0.88614 -0.7096608,-1.18039 -0.038723,-0.0368 -0.038877,-0.0369 -0.00337,-0.0267 0.069214,0.0199 0.267619,0.16788 0.3711683,0.27695 0.5465197,0.57565 0.9660631,1.37292 1.1753458,2.23329 0.075348,0.31001 0.085916,0.4045 0.087933,0.78856 0.00194,0.3879 0.014971,0.53654 0.066962,0.7847 0.039957,0.19005 0.059848,0.25447 0.1062445,0.3446 0.092733,0.18016 0.2010251,0.2576 0.342156,0.24443 0.076438,-0.007 0.082604,-0.0108 0.1283713,-0.0754 0.028125,-0.0397 0.054467,-0.10544 0.063721,-0.15867 0.016896,-0.0976 0.016406,-0.31688 -0.00112,-0.40341 -0.00958,-0.0478 -0.00825,-0.0506 0.01448,-0.0273 0.017426,0.018 0.041241,0.10412 0.077581,0.28179 0.045103,0.22053 0.05295,0.29257 0.056568,0.52078 0.013645,0.84306 0.02786,1.01849 0.1166256,1.44367 0.066309,0.31764 0.1290828,0.51566 0.2225294,0.70201 0.030621,0.0611 0.041934,0.0701 0.098175,0.0792 0.037765,0.006 0.06795,0.003 0.074532,-0.006 0.00642,-0.009 -0.00631,-0.0535 -0.030551,-0.10681 -0.022877,-0.05 -0.070109,-0.186 -0.1049661,-0.30201 -0.1032468,-0.34361 -0.1416147,-0.7253 -0.149599,-1.48805 -0.00591,-0.56417 -0.010358,-0.62459 -0.067604,-0.89079 -0.044103,-0.20557 -0.062957,-0.26676 -0.1101907,-0.35608 -0.069377,-0.13118 -0.1950524,-0.28081 -0.2672978,-0.31831 -0.058667,-0.0304 -0.1624827,-0.0218 -0.1839409,0.0156 -0.016406,0.0286 -0.012024,0.17297 0.00999,0.33589 0.030662,0.22551 0.025446,0.53431 -0.00907,0.5407 -0.021512,0.003 -0.086976,-0.12819 -0.13932,-0.28138 -0.085039,-0.24889 -0.1009768,-0.41772 -0.090165,-0.95151 l 0.0054,-0.2666 -0.088005,-0.41651 c -0.091388,-0.43232 -0.1316535,-0.56242 -0.2797016,-0.90472 -0.2475304,-0.57229 -0.6367196,-1.16132 -0.9843958,-1.48994 -0.061734,-0.0584 -0.1304583,-0.11874 -0.152862,-0.1343 -0.068907,-0.0478 -0.2451705,-0.11665 -0.4357769,-0.17039 -0.2428305,-0.0685 -0.3308487,-0.0508 -0.208016,0.0418 0.026384,0.0199 0.048763,0.0407 0.050005,0.0458 0.00112,0.006 0.09096,0.12432 0.1995436,0.2645 0.2837921,0.36633 0.4030756,0.58474 0.5285926,0.96786 0.097727,0.29829 0.08883,0.29333 -0.2070214,-0.11698 -0.482871,-0.66967 -0.5052554,-0.70582 -0.6995855,-1.12807 -0.063527,-0.13801 -0.148363,-0.29967 -0.1884217,-0.35922 -0.1431301,-0.21279 -0.3905311,-0.42513 -0.6579545,-0.5648 -0.1816205,-0.0949 -0.2752639,-0.12982 -0.5655809,-0.21062 -0.122739,-0.0342 -0.2765499,-0.0818 -0.3416118,-0.10567 -0.1427113,-0.0525 -0.1823391,-0.0558 -0.2497489,-0.02 -0.061856,0.033 -0.060317,0.0719 0.00408,0.10269 0.024345,0.0117 0.066533,0.0538 0.093793,0.0938 0.060389,0.0885 0.1618409,0.1837 0.3772551,0.35356 l 0.1638931,0.12896 -0.054407,0.0146 c -0.029868,0.009 -0.060502,0.0257 -0.068173,0.0389 -0.027596,0.0478 -0.037919,0.84032 -0.015571,1.19426 0.018444,0.29178 0.1105839,0.80112 0.2512794,1.38814 0.2769423,1.15551 0.4029473,1.6162 0.5552123,2.03029 0.038764,0.10546 0.069427,0.19354 0.067583,0.19591 -0.00194,0.003 -0.089544,-0.0628 -0.1950944,-0.14492 -0.2854899,-0.2219 -0.2828354,-0.22042 -0.3600078,-0.20061 -0.060838,0.0156 -0.0653,0.02 -0.060622,0.0634 0.00672,0.0641 0.092111,0.22865 0.2937575,0.56636 0.094282,0.15789 0.277309,0.47584 0.4068869,0.70652 0.1295849,0.2307 0.2944383,0.50754 0.3662984,0.61532 0.2404978,0.36065 0.8434085,1.06803 1.3856451,1.62591 0.1976574,0.20336 0.423846,0.46654 0.413525,0.481 -0.00265,0.003 -0.043341,-0.007 -0.090368,-0.0231 -0.047029,-0.0164 -0.1882779,-0.042 -0.3138256,-0.057 -0.2711233,-0.0317 -0.3419706,-0.0491 -0.4085041,-0.0993 -0.060806,-0.0458 -0.1386617,-0.14753 -0.1484425,-0.19402 -0.00886,-0.0423 -0.061031,-0.0589 -0.1262955,-0.0407 -0.040977,0.0116 -0.054314,0.0282 -0.082849,0.10322 -0.052022,0.13698 -0.067532,0.25211 -0.050432,0.37408 0.021817,0.15554 0.095413,0.27037 0.3509912,0.54676 0.6001764,0.64906 0.8623486,0.99428 0.98768,1.30045 0.06155,0.15037 0.1195332,0.44336 0.1198624,0.60443 2.344e-4,0.15648 -0.029409,0.36361 -0.073179,0.51124 -0.03482,0.11746 -0.079384,0.20413 -0.2437497,0.47454 -0.061958,0.10194 -0.1256718,0.21697 -0.1416179,0.25553 l -0.029033,0.0701 -0.1095485,-0.0622 c -0.3366858,-0.19116 -0.6890526,-0.24651 -1.3619066,-0.21395 -0.5196403,0.0252 -0.734813,-0.006 -0.9627176,-0.13943 -0.2310962,-0.13528 -0.606679,-0.54124 -0.7378405,-0.79771 -0.047324,-0.0926 -0.079853,-0.26913 -0.070457,-0.38105 0.00805,-0.0956 0.00703,-0.099 -0.024987,-0.11317 -0.03858,-0.017 -0.1575039,0.002 -0.1949579,0.0305 -0.014175,0.0108 -0.026159,0.0402 -0.026771,0.0649 -7.562e-4,0.0248 -0.033119,0.10084 -0.072098,0.16908 -0.039009,0.0682 -0.089329,0.18944 -0.1120206,0.26931 -0.022684,0.0799 -0.061306,0.17231 -0.085803,0.2055 -0.056547,0.0765 -0.089961,0.1666 -0.1069387,0.28829 -0.01229,0.0881 -0.016253,0.34597 -0.010736,0.47944 h 2.007e-4 c 0.00153,0.0446 0.00457,0.0752 0.00876,0.0812 0.0161,0.0242 0.1175215,0.0335 0.157406,0.0145 0.018302,-0.009 0.047773,-0.0261 0.065433,-0.0389 0.044623,-0.032 0.088178,-8.2e-4 0.1568812,0.11129 0.083369,0.13646 0.1254446,0.3112 0.1176265,0.48772 -0.00498,0.11395 -0.00153,0.14769 0.016866,0.16177 0.03425,0.0262 0.1085243,0.0232 0.1722035,-0.007 0.04871,-0.0229 0.060899,-0.0232 0.093538,-0.003 0.061876,0.039 0.080536,0.16843 0.041567,0.28888 -0.050096,0.15485 -0.055904,0.31715 -0.017802,0.49553 0.0744,0.34838 0.2725124,0.65431 0.7726492,1.193 0.5254997,0.56601 0.7041294,0.84297 0.9581053,1.4851 0.2346467,0.32982 0.2328824,0.31052 0.1434433,0.72916 0.0057,0.006 0.040333,0.0123 0.077102,0.0148 0,0 0.2741983,-0.15835 0.1850758,-0.56854 0.023968,-0.005 0.038224,-0.0418 0.067472,-0.1758 0.052083,-0.23844 0.057882,-0.31987 0.034066,-0.48408 -0.024763,-0.17089 -0.077356,-0.31243 -0.1832224,-0.49424 -0.1308252,-0.22467 -0.2668945,-0.37645 -0.7237737,-0.80715 -0.5103139,-0.48108 -0.5835396,-0.56229 -0.6094703,-0.67618 -0.015918,-0.0698 -0.023479,-0.0812 -0.060898,-0.091 -0.054305,-0.0142 -0.1333585,-3.6e-4 -0.1528314,0.0268 -0.020983,0.0293 0.00265,0.12777 0.051982,0.21599 0.065494,0.1172 0.1973026,0.26769 0.4397552,0.50219 0.5191481,0.50213 0.7067943,0.72987 0.8846648,1.07347 0.073341,0.14166 0.1323639,0.39677 0.1178842,0.50956 -0.00979,0.0765 -0.01819,0.07 -0.062957,-0.049 -0.046397,-0.12327 -0.2149493,-0.45532 -0.30299,-0.59683 -0.1202475,-0.19326 -0.2969714,-0.40917 -0.5878786,-0.71843 -0.4206929,-0.44722 -0.5655973,-0.64216 -0.673659,-0.90591 -0.091205,-0.22254 -0.1436417,-0.56751 -0.103028,-0.67796 0.062233,-0.16923 -0.061917,-0.37056 -0.2584434,-0.41888 l -0.077977,-0.0191 2.079e-4,-0.0626 c 3.76e-5,-0.0344 -0.016253,-0.13825 -0.036064,-0.2306 -0.029868,-0.13927 -0.045011,-0.18112 -0.088932,-0.24524 -0.1013335,-0.14796 -0.1791168,-0.20106 -0.3575803,-0.24378 -0.014409,-0.003 -0.00999,-0.36769 0.0054,-0.44393 0.015694,-0.0779 0.023632,-0.0898 0.076357,-0.11466 0.058054,-0.0274 0.059187,-0.0297 0.076438,-0.16732 l 0.017385,-0.13945 0.044716,0.083 c 0.061916,0.11467 0.1495347,0.23234 0.2963091,0.39799 0.2361579,0.26652 0.4082473,0.40752 0.6081089,0.49818 0.2377119,0.10781 0.4117477,0.12549 0.8897946,0.0908 0.3727487,-0.0269 0.5817665,-0.0223 0.8019141,0.018 0.1385251,0.0254 0.416526,0.1248 0.549056,0.19622 l 0.063243,0.0339 -0.069875,0.0131 c -0.195336,0.0361 -0.5240976,0.0323 -0.771041,-0.009 -0.072311,-0.0122 -0.2717971,-0.0584 -0.4433647,-0.10309 -0.1715677,-0.0447 -0.3152319,-0.0763 -0.319201,-0.0708 -0.01448,0.0203 0.069439,0.0993 0.1718062,0.16184 0.2797353,0.17091 0.8087212,0.21991 1.4513156,0.13448 0.6889019,-0.0916 1.3141928,-0.45232 1.6877202,-0.97372 0.1897403,-0.26483 0.308823,-0.55622 0.3882138,-0.95002 0.051839,-0.2571 0.070997,-0.43674 0.1362884,-1.28092 0.032101,-0.41512 0.073168,-0.85869 0.091439,-0.98584 0.087719,-0.61072 0.2625155,-0.91414 0.5159657,-0.89547 0.07599,0.006 0.080015,0.0298 0.00713,0.0439 -0.018068,0.003 -0.078272,0.0395 -0.1337539,0.0798 -0.078935,0.0574 -0.1147774,0.0972 -0.1642307,0.18326 -0.1297022,0.22574 -0.1521395,0.35772 -0.1407374,0.83258 0.033119,1.3997 -0.033343,2.27594 -0.2152624,2.83665 -0.1225199,0.37764 -0.2561159,0.59325 -0.6115755,0.98681 -0.4238725,0.46926 -0.6551878,0.65516 -0.9115259,0.73276 -0.064017,0.0195 -0.079047,0.0296 -0.074565,0.051 0.00958,0.0458 0.070253,0.0511 0.2000581,0.017 0.2882496,-0.0754 0.5576497,-0.27603 0.9622641,-0.71701 0.7105526,-0.77443 0.9147503,-1.4451 0.9237821,-3.03413 0.00153,-0.22673 -0.00337,-0.57749 -0.00979,-0.77953 -0.013951,-0.42348 -0.00642,-0.61661 0.029227,-0.73564 0.050484,-0.16854 0.1898953,-0.32872 0.304373,-0.34994 0.065698,-0.0122 0.1912382,0.0163 0.2126281,0.0483 0.016753,0.0251 0.1154162,0.0467 0.1678369,0.0371 0.019963,-0.003 0.043656,-0.0165 0.052553,-0.0287 l -3.78e-4,1e-5 c 0.023927,-0.0324 -0.025294,-0.16504 -0.092121,-0.24813 -0.1804701,-0.22441 -0.5676189,-0.22867 -0.8750052,-0.009 -0.1627407,0.11607 -0.2728783,0.28227 -0.3353285,0.50595 -0.070946,0.25414 -0.094639,0.46689 -0.1823572,1.6395 -0.057933,0.7746 -0.099429,1.06962 -0.196939,1.39913 -0.097492,0.32946 -0.3003029,0.67175 -0.5198604,0.87754 -0.1030486,0.0966 -0.2785605,0.24753 -0.2987895,0.25655 l -0.1669138,0.0744 c -0.1539737,0.0798 -0.3552069,0.16298 -0.3706087,0.15327 -0.00408,-0.003 0.044807,-0.086 0.1088871,-0.18536 0.2208427,-0.34225 0.3128564,-0.54048 0.3657807,-0.78863 0.070691,-0.33141 0.041883,-0.68517 -0.082379,-1.00947 -0.1299857,-0.33926 -0.3413359,-0.62984 -0.8696258,-1.19599 -0.1762747,-0.18888 -0.3284406,-0.37082 -0.3695195,-0.44179 -0.045267,-0.0782 -0.1021311,-0.23633 -0.099969,-0.27769 l 0.00224,-0.0385 0.062456,0.0341 c 0.082165,0.0448 0.1854768,0.0709 0.3985695,0.10074 0.3181238,0.0447 0.3871826,0.0745 0.4898128,0.2129 0.079322,0.10696 0.1427714,0.14815 0.2091684,0.13584 0.041638,-0.009 0.05563,-0.0199 0.072179,-0.0622 0.03206,-0.0821 0.020646,-0.16058 -0.041016,-0.281 -0.097217,-0.18981 -0.4337887,-0.61283 -0.9029444,-1.135 -0.1640217,-0.18254 -0.3641286,-0.40861 -0.4446426,-0.50224 -0.3516372,-0.409 -0.6675456,-0.90508 -1.1080101,-1.73988 -0.08878,-0.16826 -0.1682037,-0.31755 -0.1765172,-0.33173 -0.00305,-0.006 -0.00449,-0.009 -0.00408,-0.0108 h 7.95e-5 c 0.00265,-0.0128 0.088066,0.0598 0.1770941,0.15312 0.1190032,0.1246 0.1680406,0.19678 0.3090205,0.45466 0.2232997,0.40844 0.4044403,0.64203 1.0750554,1.3864 0.8676457,0.96305 1.1874509,1.40712 1.4139615,1.96274 0.1275133,0.3128 0.1954338,0.67293 0.2108621,1.1178 0.021889,0.63106 -0.019392,0.89658 -0.2657673,1.70654 -0.073687,0.24226 -0.1282123,0.44912 -0.1211503,0.45964 0.00703,0.0105 0.036971,0.0237 0.066656,0.0295 0.1194801,-0.0123 0.1420194,-0.20712 0.1756928,-0.29488 z m -3.5189934,-11.75488 0.00112,-0.0532 0.1064676,0.10175 c 0.2454505,0.23465 0.3578189,0.42023 0.5951414,0.9828 0.055549,0.13165 0.1823798,0.40553 0.2817399,0.6084 0.3362546,0.68665 0.3400089,0.69744 0.747443,2.13139 0.1082778,0.38125 0.1654625,0.76642 0.1150258,0.77577 -0.016743,0.003 -0.1001112,-0.0774 -0.1790678,-0.17293 -0.095352,-0.1153 -0.1743425,-0.24448 -0.3744496,-0.61276 -0.2654146,-0.4885 -0.4083493,-0.80774 -0.5801932,-1.29694 -0.045439,-0.12937 -0.1570808,-0.43665 -0.2481151,-0.68282 -0.209725,-0.56712 -0.2836079,-0.79028 -0.3578037,-1.08002 -0.05619,-0.21946 -0.1099643,-0.57142 -0.1072274,-0.7014 z m 0.6491498,13.12715 0.022459,0.10255 c 0.040548,0.18561 0.2066136,0.3569 0.5493556,0.5668 0.3382357,0.20714 0.4920008,0.26577 1.1916322,0.45405 0.7174371,0.19306 0.9535196,0.28337 1.2523438,0.47914 0.4465023,0.29257 0.6731259,0.65586 0.6517241,1.04436 -0.00835,0.15131 -0.072506,0.37603 -0.1484304,0.51959 -0.031835,0.0601 -0.056048,0.11977 -0.05352,0.1326 0.0049,0.0266 0.073107,0.0458 0.1271687,0.0358 0.020034,-0.003 0.064934,-0.0392 0.099764,-0.0791 0.1385026,-0.15839 0.2348422,-0.38765 0.2457522,-0.58471 0.00377,-0.066 -0.00825,-0.14914 -0.042687,-0.29564 -0.044705,-0.19028 -0.053897,-0.21353 -0.1390509,-0.35299 -0.2160837,-0.35384 -0.5291297,-0.60624 -0.955142,-0.77023 -0.1844209,-0.0711 -0.3186417,-0.10771 -1.0895053,-0.2977 -0.4189462,-0.10323 -0.6020741,-0.16291 -0.8253104,-0.26896 -0.2963673,-0.14081 -0.5105412,-0.33074 -0.6444135,-0.57149 -0.067054,-0.12061 -0.1095098,-0.1498 -0.1873394,-0.1289 z m 0.2664472,1.14079 c 0.00713,0.12532 0.1148485,0.20803 0.355857,0.27358 0.2860341,0.0778 0.4534429,0.19964 0.6269693,0.45633 0.064271,0.0951 0.1318758,0.17697 0.1639808,0.1987 0.071486,0.0484 0.1175023,0.0344 0.1304726,-0.0399 0.0056,-0.0323 -0.00194,-0.10276 -0.018598,-0.17127 -0.023326,-0.0963 -0.040252,-0.13172 -0.098867,-0.20633 -0.088413,-0.11248 -0.2199438,-0.21954 -0.3313592,-0.26996 -0.046999,-0.0212 -0.1778694,-0.0638 -0.2909571,-0.0941 -0.1290898,-0.0349 -0.2582203,-0.0827 -0.3467795,-0.1287 -0.1464309,-0.076 -0.19427,-0.0807 -0.1907012,-0.0182 z m 1.1227628,-0.68561 c 2.833e-4,0.0319 0.040282,0.11129 0.086721,0.16708 0.1500974,0.18031 0.5284938,0.31349 1.1304781,0.3979 0.495921,0.0694 0.6579585,0.13357 0.9126069,0.36061 0.2274707,0.20279 0.3744569,0.28904 0.4638923,0.27248 0.033914,-0.007 0.038714,-0.0141 0.031225,-0.0497 -0.029298,-0.13956 -0.2191725,-0.35441 -0.4170449,-0.47196 -0.2694644,-0.16008 -0.4836312,-0.22033 -0.9925909,-0.27911 -0.4089626,-0.0471 -0.5969676,-0.0841 -0.7634431,-0.1506 -0.1195097,-0.0477 -0.26506,-0.14502 -0.3259684,-0.21776 -0.042229,-0.0504 -0.1018844,-0.0694 -0.1233392,-0.0394 -0.00194,0.003 -0.00265,0.006 -0.00224,0.0105 z m 0.7410954,-0.32198 c -0.00112,0.0155 0.0057,0.0388 0.020411,0.0699 0.077194,0.16349 0.2835089,0.26883 0.7054715,0.3602 0.3847023,0.0832 0.5991412,0.15023 0.7580105,0.23677 0.036482,0.0199 0.1391487,0.0984 0.2281543,0.17459 0.1676362,0.14348 0.2445803,0.18869 0.3034476,0.17779 0.032101,-0.006 0.032855,-0.0108 0.00938,-0.074 -0.058534,-0.15722 -0.2534195,-0.3438 -0.4633563,-0.44376 -0.1469751,-0.07 -0.2767903,-0.10616 -0.649955,-0.18078 -0.3022491,-0.0605 -0.4013626,-0.0973 -0.6616738,-0.2461 -0.1682865,-0.0962 -0.2462415,-0.12092 -0.2499079,-0.0746 z"
       id="path828"
       inkscape:connector-curvature="0"
       sodipodi:nodetypes="cccccscccccccccccccccccccccccccccccccccccccccccccccccccccccccccccccccccsccccccccccccccccccccccccccccccccccccccccccccsccccccccccccccccccccscccccccccccccccccccccccccccscccccccccccccccccsccccccccccccccccccccccccccscccccccccccccccccccccccscccccccccscccccccccccccssccccccccccccccccccccccccccccscccsscccccccccccccccccc" />
    <rect
       style="opacity:1;vector-effect:none;fill:none;fill-opacity:1;stroke:#ffff00;stroke-width:0.30000001;stroke-linecap:round;stroke-linejoin:round;stroke-miterlimit:4;stroke-dasharray:none;stroke-dashoffset:0;stroke-opacity:1;paint-order:stroke fill markers"
       id="rect870"
       width="11.5"
       height="20"
       x="0"
       y="277" />
  </g>
</svg>
