<?xml version="1.0" encoding="UTF-8" standalone="no"?>
<!-- Generator: Adobe Illustrator 19.2.1, SVG Export Plug-In . SVG Version: 6.00 Build 0)  -->

<svg
   xmlns:dc="http://purl.org/dc/elements/1.1/"
   xmlns:cc="http://creativecommons.org/ns#"
   xmlns:rdf="http://www.w3.org/1999/02/22-rdf-syntax-ns#"
   xmlns:svg="http://www.w3.org/2000/svg"
   xmlns="http://www.w3.org/2000/svg"
   xmlns:sodipodi="http://sodipodi.sourceforge.net/DTD/sodipodi-0.dtd"
   xmlns:inkscape="http://www.inkscape.org/namespaces/inkscape"
   version="1.1"
   id="layer"
   x="0px"
   y="0px"
   viewBox="0 0 652 652"
   style="enable-background:new 0 0 652 652;"
   xml:space="preserve"
   sodipodi:docname="solidworks-vector-logo.svg"
   inkscape:version="0.92.3 (2405546, 2018-03-11)"><metadata
   id="metadata11"><rdf:RDF><cc:Work
       rdf:about=""><dc:format>image/svg+xml</dc:format><dc:type
         rdf:resource="http://purl.org/dc/dcmitype/StillImage" /></cc:Work></rdf:RDF></metadata><defs
   id="defs9" /><sodipodi:namedview
   pagecolor="#ffffff"
   bordercolor="#666666"
   borderopacity="1"
   objecttolerance="10"
   gridtolerance="10"
   guidetolerance="10"
   inkscape:pageopacity="0"
   inkscape:pageshadow="2"
   inkscape:window-width="1920"
   inkscape:window-height="1025"
   id="namedview7"
   showgrid="false"
   inkscape:snap-global="false"
   inkscape:zoom="2"
   inkscape:cx="347.70971"
   inkscape:cy="149.78068"
   inkscape:window-x="0"
   inkscape:window-y="27"
   inkscape:window-maximized="1"
   inkscape:current-layer="g910" />
<style
   type="text/css"
   id="style2">
	.st0{fill:#E23B3B;}
</style>
<g
   id="g882"><path
     id="path850"
     d="m 190.23737,299.54286 c 8.2,1.4 14.9,2.4 16.4,5.5 1.7,3.5 -7.2,3.7 -11.7,3.8 -21.5,0.4 -34.5,0.8 -35.2,7.4 -0.8,8.5 9.2,17.1 19.1,29.1 9.1,11 19.4,21.8 16.4,31.9 -3.7,12.6 -20.7,15.2 -37,15.2 -15.6,0 -30.3,-2.3 -36.5,-3.4 -7.7,-1.4 -6.6,-4.8 -4.5,-5.9 2.3,-1.2 15.4,-1.3 24.5,-1.7 7.5,-0.4 29.3,-0.4 32.7,-5.5 4.2,-6.1 -6,-16.8 -15.4,-27.8 -11.7,-13.8 -24.5,-28.1 -17.7,-38.5 8.8,-13.4 34.5,-12.5 48.9,-10.1"
     style="fill:#e23b3b" /><path
     id="path848"
     d="m 84.737363,321.84286 c 13.500002,-0.7 30.000007,1.4 39.200007,7.7 4.6,3.1 7.8,8.9 5.9,15.6 -5.3,18.8 -25.2,41.6 -69.400007,59.1 -14,5.6 -25.1,7.7 -27.5,6.2 -2.5,-1.6 4.8,-14 7,-18.2 7.1,-13.4 15.9,-26.4 24.5,-38.3 3.2,-4.4 8,-12 12.5,-11.4 4,0.6 -0.7,8.6 -3.7,13.8 -5.1,8.6 -19.2,32.6 -14.6,34 10.3,3.2 58.600007,-29.8 51.500007,-48.1 -3.3,-8.5 -24.300007,-9.3 -37.500007,-9.3 -6,0 -19.1,1.3 -19.9,-2.9 -0.8,-3.8 20,-7.6 32,-8.2"
     style="fill:#e23b3b" /><path
     id="path846"
     d="m 121.13737,241.54286 c 16.3,-0.7 35.5,2.5 39.1,13.3 5.9,17.6 -23.9,43.3 -49.9,55.9 -6.4,3.1 -10.2,4 -11.800005,3.7 -1.5,-0.2 -1.8,-1.7 -1.3,-2.6 0.9,-1.9 5.100005,-5.6 10.700005,-9.7 29.2,-21.4 38.8,-37 33.2,-43.4 -3.5,-4.1 -18.4,-6.9 -33.7,-6.9 -4.2,0 -15.200007,0.9 -16.300007,-2.7 -0.9,-3 13.800007,-6.9 30.000007,-7.6"
     style="fill:#e23b3b" /><path
     id="path844"
     d="m 424.83737,441.14286 -22.7,51.2 c -1.2,2.7 -3.4,4.2 -6.1,4.2 h -0.1 -4.1 l -6.6,-32.2 -15.8,28.2 c -0.7,1.2 -1.6,2.1 -2.5,2.8 -1.1,0.8 -2.4,1.1 -3.8,1.1 h -0.3 -4.9 v -59 h 3.9 c 0.6,0 1.2,0.1 1.8,0.6 0.6,0.5 0.8,1.3 0.8,1.9 l -0.2,49.1 18.1,-31.5 h 3.8 c 2.3,-0.1 4.3,1.5 4.6,4 l 6,27.8 22.9,-51.9 h 3 c 0.6,0 1.2,0.1 1.7,0.5 0.5,0.4 0.8,1.2 0.8,1.8 0,0.7 -0.1,1 -0.3,1.4"
     style="fill:#e23b3b" /><path
     id="path842"
     d="m 631.13737,443.84286 v 0.2 -0.2 c -0.2,0 -21.9,0.1 -21.9,0.1 -4.5,0 -7.2,2.9 -7.2,6.5 0,2.1 1.2,4.1 3.2,6.1 l 15.7,15.5 c 0,0 5.6,4.7 5.6,10.8 v 0 c 0,4.4 -1.3,13.7 -12.6,13.8 h -24.1 v -4.4 h -0.1 0.1 c 0,-0.7 0.7,-1.7 1.4,-1.8 0.2,-0.1 21.6,-0.1 21.7,-0.1 4.4,0 7.2,-2.9 7.2,-6.5 0,-2.1 -1,-4.4 -2.9,-6.3 l -16.6,-16.2 c -1.7,-1.5 -5,-5.2 -5,-9.8 0.1,-4.4 1.2,-13.7 12.6,-13.8 h 24.4 v 4.4 0 c -0.1,0.6 -0.8,1.6 -1.5,1.7"
     style="fill:#e23b3b" /><path
     d="m 460.33737,437.44286 v 0 c -19,-1.5 -31,11.7 -35.2,28.5 -3.8,15.1 1.3,30.9 19.3,33 19.3,1.5 31.4,-11.8 35.3,-28.5 3.6,-15.1 -1.7,-30.9 -19.4,-33 m 13.1,32.5 c -4.1,17.2 -15.7,23.6 -26.7,23 l -1.1,-0.1 c -10.6,-1.4 -18.4,-9.5 -14.3,-26.4 4.3,-17.2 16.6,-23.6 27.4,-23 10.9,1.1 18.7,9.6 14.7,26.5"
     style="fill:#e23b3b"
     id="path838" /><path
     id="path836"
     d="m 587.83737,439.74286 c 0,1.4 -0.8,2.1 -0.8,2.1 l -30.4,25.8 22.7,24.7 c 0,0 0.9,1.1 0.9,2.1 0,0.6 -0.3,1.3 -0.8,1.6 -0.5,0.3 -1,0.4 -1.6,0.4 h -2.9 l -24,-26.1 -4.8,26.1 h -6.5 l 11,-59 h 2.9 c 0.7,0 1.3,0.2 1.9,0.6 0.5,0.4 1.1,1.2 0.9,2.5 l -4,22.9 30.3,-26 h 2.9 c 0.5,0 1.1,0.1 1.6,0.5 0.5,0.6 0.8,1.3 0.7,1.8"
     style="fill:#e23b3b" /><path
     d="m 532.13737,442.94286 c -4.6,-5.2 -12.4,-5.4 -21.4,-5.4 h -15.2 l -11,59 h 6.5 l 4.6,-25.4 11.8,0.1 14.7,25.3 h 3.3 c 0.6,0 1.1,-0.1 1.6,-0.4 0.5,-0.4 0.8,-1.1 0.7,-1.6 0,-0.8 -0.8,-2.1 -0.8,-2.1 l -12.5,-21.4 c 14.9,-1.3 18.8,-11.8 19.7,-16 0.8,-3.5 0.6,-9.1 -2,-12.1 m -14.6,21.4 c -3.6,1 -8.7,1.1 -13.9,1.1 -1.9,0 -4.5,-0.1 -6.8,-0.1 l 3.9,-21.5 c 3.1,0 13.1,-0.2 16.5,0 1.3,0.1 2.6,0.2 3.3,0.3 2.8,0.5 4.6,1.1 5.8,2.2 5,5.1 0.4,15.6 -8.8,18"
     style="fill:#e23b3b"
     id="path832" /><path
     id="path830"
     d="m 109.73737,437.34286 h 30.3 v 6.3 c -0.4,2.8 -2,5.7 -4.8,5.7 h -22.9 c -2.3,0 -3.6,0.6 -3.8,2 -0.1,0.9 0.3,1.5 1.9,2.6 l 20,14.2 c 4.3,3 6.5,7.8 5.4,14.4 -1.1,7.1 -6.7,13.7 -17.9,13.7 H 92.337363 v -8.2 c 0.4,-2.7 1.7,-3.8 4.100002,-3.8 h 21.900005 c 3.9,0 5.1,-0.9 5.4,-3.1 0.2,-1.6 -0.7,-2.5 -2.7,-3.9 l -18.9,-13.2 c -5.300005,-3.7 -6.700007,-9.3 -6.000005,-14 1,-6.7 6.900005,-12.7 13.600005,-12.7"
     style="fill:#e23b3b" /><path
     id="path828"
     d="m 324.23737,437.34286 h -31.7 l -0.2,0.9 c -0.7,4 -0.4,8.6 5.9,8.6 h 23.5 c 9.3,0 12.9,6.7 10.6,19.4 -2.1,11.6 -8.4,20.4 -17.8,20.4 h -12.8 l 6.1,-33.2 h -10.8 c -1.5,0 -2.5,1.1 -2.6,2 l -7.4,40.7 h 24.9 c 18.4,0 31.2,-8.6 35.1,-30.4 2.9,-16.6 -4.1,-28.4 -22.8,-28.4"
     style="fill:#e23b3b" /><path
     id="path826"
     d="m 251.53737,490.44286 -1.1,5.9 h -41.5 l 10.8,-59 h 11 c 1.2,0 1.9,1.1 1.7,2 l -8.6,47.4 h 25 c 2.3,0 3.2,1 2.7,3.7"
     style="fill:#e23b3b" /><path
     id="path824"
     d="m 281.83737,439.34286 -10.4,56.9 h -13.1 l 10.8,-59 h 11 c 1.2,0.1 1.9,1.2 1.7,2.1"
     style="fill:#e23b3b" /><path
     d="m 179.83737,437.34286 c -21.1,0 -32.4,14 -35.2,30.8 -2.7,16.8 4,30.7 25.1,30.7 21.1,0 32.4,-14 35.2,-30.7 2.7,-16.8 -4,-30.8 -25.1,-30.8 m 12,30.7 c -2.2,13.7 -8.5,20.6 -20.5,20.6 -11.9,0 -15.9,-6.9 -13.7,-20.6 2.2,-13.7 8.5,-20.6 20.5,-20.6 12,0 15.9,7 13.7,20.6"
     style="fill:#e23b3b"
     id="path4" /></g>
<g
   id="g910"
   transform="translate(0,120.20815)"><path
     style="fill:#e23b3b"
     d="m 424.83737,441.14286 -22.7,51.2 c -1.2,2.7 -3.4,4.2 -6.1,4.2 h -0.1 -4.1 l -6.6,-32.2 -15.8,28.2 c -0.7,1.2 -1.6,2.1 -2.5,2.8 -1.1,0.8 -2.4,1.1 -3.8,1.1 h -0.3 -4.9 v -59 h 3.9 c 0.6,0 1.2,0.1 1.8,0.6 0.6,0.5 0.8,1.3 0.8,1.9 l -0.2,49.1 18.1,-31.5 h 3.8 c 2.3,-0.1 4.3,1.5 4.6,4 l 6,27.8 22.9,-51.9 h 3 c 0.6,0 1.2,0.1 1.7,0.5 0.5,0.4 0.8,1.2 0.8,1.8 0,0.7 -0.1,1 -0.3,1.4"
     id="path890"
     inkscape:connector-curvature="0" /><path
     style="fill:#e23b3b"
     d="m 631.13737,443.84286 v 0.2 -0.2 c -0.2,0 -21.9,0.1 -21.9,0.1 -4.5,0 -7.2,2.9 -7.2,6.5 0,2.1 1.2,4.1 3.2,6.1 l 15.7,15.5 c 0,0 5.6,4.7 5.6,10.8 v 0 c 0,4.4 -1.3,13.7 -12.6,13.8 h -24.1 v -4.4 h -0.1 0.1 c 0,-0.7 0.7,-1.7 1.4,-1.8 0.2,-0.1 21.6,-0.1 21.7,-0.1 4.4,0 7.2,-2.9 7.2,-6.5 0,-2.1 -1,-4.4 -2.9,-6.3 l -16.6,-16.2 c -1.7,-1.5 -5,-5.2 -5,-9.8 0.1,-4.4 1.2,-13.7 12.6,-13.8 h 24.4 v 4.4 0 c -0.1,0.6 -0.8,1.6 -1.5,1.7"
     id="path892"
     inkscape:connector-curvature="0" /><path
     id="path894"
     style="fill:#e23b3b"
     d="m 460.33737,437.44286 v 0 c -19,-1.5 -31,11.7 -35.2,28.5 -3.8,15.1 1.3,30.9 19.3,33 19.3,1.5 31.4,-11.8 35.3,-28.5 3.6,-15.1 -1.7,-30.9 -19.4,-33 m 13.1,32.5 c -4.1,17.2 -15.7,23.6 -26.7,23 l -1.1,-0.1 c -10.6,-1.4 -18.4,-9.5 -14.3,-26.4 4.3,-17.2 16.6,-23.6 27.4,-23 10.9,1.1 18.7,9.6 14.7,26.5"
     inkscape:connector-curvature="0" /><path
     style="fill:#e23b3b"
     d="m 587.83737,439.74286 c 0,1.4 -0.8,2.1 -0.8,2.1 l -30.4,25.8 22.7,24.7 c 0,0 0.9,1.1 0.9,2.1 0,0.6 -0.3,1.3 -0.8,1.6 -0.5,0.3 -1,0.4 -1.6,0.4 h -2.9 l -24,-26.1 -4.8,26.1 h -6.5 l 11,-59 h 2.9 c 0.7,0 1.3,0.2 1.9,0.6 0.5,0.4 1.1,1.2 0.9,2.5 l -4,22.9 30.3,-26 h 2.9 c 0.5,0 1.1,0.1 1.6,0.5 0.5,0.6 0.8,1.3 0.7,1.8"
     id="path896"
     inkscape:connector-curvature="0" /><path
     id="path898"
     style="fill:#e23b3b"
     d="m 532.13737,442.94286 c -4.6,-5.2 -12.4,-5.4 -21.4,-5.4 h -15.2 l -11,59 h 6.5 l 4.6,-25.4 11.8,0.1 14.7,25.3 h 3.3 c 0.6,0 1.1,-0.1 1.6,-0.4 0.5,-0.4 0.8,-1.1 0.7,-1.6 0,-0.8 -0.8,-2.1 -0.8,-2.1 l -12.5,-21.4 c 14.9,-1.3 18.8,-11.8 19.7,-16 0.8,-3.5 0.6,-9.1 -2,-12.1 m -14.6,21.4 c -3.6,1 -8.7,1.1 -13.9,1.1 -1.9,0 -4.5,-0.1 -6.8,-0.1 l 3.9,-21.5 c 3.1,0 13.1,-0.2 16.5,0 1.3,0.1 2.6,0.2 3.3,0.3 2.8,0.5 4.6,1.1 5.8,2.2 5,5.1 0.4,15.6 -8.8,18"
     inkscape:connector-curvature="0" /><path
     style="fill:#e23b3b"
     d="m 97.73737,437.34286 h 30.3 v 6.3 c -0.4,2.8 -2,5.7 -4.8,5.7 h -22.9 c -2.3,0 -3.6,0.6 -3.8,2 -0.1,0.9 0.3,1.5 1.9,2.6 l 20,14.2 c 4.3,3 6.5,7.8 5.4,14.4 -1.1,7.1 -6.7,13.7 -17.9,13.7 H 80.337363 v -8.2 c 0.4,-2.7 1.7,-3.8 4.100002,-3.8 h 21.900005 c 3.9,0 5.1,-0.9 5.4,-3.1 0.2,-1.6 -0.7,-2.5 -2.7,-3.9 l -18.9,-13.2 c -5.300005,-3.7 -6.700007,-9.3 -6.000005,-14 1,-6.7 6.900005,-12.7 13.600005,-12.7"
     id="path900"
     inkscape:connector-curvature="0" /><path
     style="fill:#e23b3b"
     d="m 324.23737,437.34286 h -31.7 l -0.2,0.9 c -0.7,4 -0.4,8.6 5.9,8.6 h 23.5 c 9.3,0 12.9,6.7 10.6,19.4 -2.1,11.6 -8.4,20.4 -17.8,20.4 h -12.8 l 6.1,-33.2 h -10.8 c -1.5,0 -2.5,1.1 -2.6,2 l -7.4,40.7 h 24.9 c 18.4,0 31.2,-8.6 35.1,-30.4 2.9,-16.6 -4.1,-28.4 -22.8,-28.4"
     id="path902"
     inkscape:connector-curvature="0" /><path
     style="fill:#e23b3b"
     d="m 227.53737,490.44286 -1.1,5.9 h -41.5 l 10.8,-59 h 11 c 1.2,0 1.9,1.1 1.7,2 l -8.6,47.4 h 25 c 2.3,0 3.2,1 2.7,3.7"
     id="path904"
     inkscape:connector-curvature="0" /><path
     transform="matrix(1,0,0.12984758,1,-134.66701,-86.433884)"
     style="fill:#e23b3b;stroke-width:0.87269825"
     d="m 222.93359,522.86719 c -0.16097,-2.5e-4 -0.30986,0.0854 -0.39062,0.22461 l -34.28516,59 c -0.17543,0.30096 0.0423,0.67867 0.39063,0.67773 h 9.97656 c 0.16097,2.5e-4 0.30986,-0.0854 0.39062,-0.22461 L 206.5,569.66016 h 17.48242 c 0.26901,-3.3e-4 0.47784,-0.23469 0.44727,-0.50196 l -0.72852,-6.32226 -0.002,-0.01 c -0.10914,-1.21693 -0.26623,-2.11128 -0.77149,-2.75976 -0.50681,-0.65049 -1.33195,-0.90821 -2.4375,-0.90821 h -7.88867 l 11.80078,-20.31836 5.46485,43.53516 c 0.0283,0.22544 0.22004,0.39455 0.44726,0.39453 h 9.97657 c 0.27165,9e-5 0.48166,-0.23835 0.44726,-0.50781 l -7.15625,-56.94727 c -6.5e-4,-0.002 -10e-4,-0.004 -0.002,-0.006 -0.0892,-0.62858 -0.12862,-1.18679 -0.4336,-1.67382 -0.30497,-0.48704 -0.9026,-0.75913 -1.71484,-0.76758 -0.001,-10e-6 -0.003,-10e-6 -0.004,0 H 231.3125 224.5 Z"
     id="path857"
     inkscape:connector-curvature="0"
     sodipodi:nodetypes="ccccccccccccscccccccccccccc" /><path
     sodipodi:nodetypes="ccccccccccccscccccccccccccc"
     inkscape:connector-curvature="0"
     id="path930"
     d="m 257.983,436.43331 c -0.16101,-2.5e-4 -0.29878,0.0854 -0.36146,0.22461 l -26.62415,59 c -0.13635,0.30096 0.13042,0.67867 0.47863,0.67773 h 9.97656 c 0.161,2.5e-4 0.29877,-0.0854 0.36145,-0.22461 l 5.81133,-12.88476 h 17.48242 c 0.26897,-3.3e-4 0.44737,-0.23469 0.38209,-0.50196 l -1.54945,-6.32226 -0.003,-0.01 c -0.26715,-1.21693 -0.54037,-2.11128 -1.12984,-2.75976 -0.59127,-0.65049 -1.44987,-0.90821 -2.55542,-0.90821 h -7.88867 l 9.16249,-20.31836 11.11778,43.53516 c 0.0576,0.22544 0.27127,0.39455 0.49849,0.39453 h 9.97657 c 0.27166,9e-5 0.45071,-0.23835 0.38132,-0.50781 l -14.55071,-56.94727 c -9.1e-4,-0.002 -0.002,-0.004 -0.003,-0.006 -0.17082,-0.62858 -0.28272,-1.18679 -0.65094,-1.67382 -0.36822,-0.48704 -1.00118,-0.75913 -1.81451,-0.76758 -10e-4,-10e-6 -0.003,-10e-6 -0.004,0 h -0.11504 -6.8125 z"
     style="fill:#e23b3b;stroke-width:0.87269825" /></g></svg>