  0
SECTION
  2
HEADER
  9
$ACADVER
  1
AC1014
  9
$HANDSEED
  5
FFFF
  9
$INSUNITS
 70
     4
  9
$MEASUREMENT
 70
     1
  0
ENDSEC
  0
SECTION
  2
TABLES
  0
TABLE
  2
VPORT
  5
8
330
0
100
AcDbSymbolTable
 70
     4
  0
VPORT
  5
2E
330
8
100
AcDbSymbolTableRecord
100
AcDbViewportTableRecord
  2
*ACTIVE
 70
     0
 10
0.0
 20
0.0
 11
1.0
 21
1.0
 12
210.0
 22
148.5
 13
0.0
 23
0.0
 14
10.0
 24
10.0
 15
10.0
 25
10.0
 16
0.0
 26
0.0
 36
1.0
 17
0.0
 27
0.0
 37
0.0
 40
341.0
 41
1.24
 42
50.0
 43
0.0
 44
0.0
 50
0.0
 51
0.0
 71
     0
 72
   100
 73
     1
 74
     3
 75
     0
 76
     0
 77
     0
 78
     0
  0
ENDTAB
  0
TABLE
  2
LTYPE
  5
5
330
0
100
AcDbSymbolTable
 70
     1
  0
LTYPE
  5
14
330
5
100
AcDbSymbolTableRecord
100
AcDbLinetypeTableRecord
  2
BYBLOCK
 70
     0
  3

 72
    65
 73
     0
 40
0.0
  0
LTYPE
  5
15
330
5
100
AcDbSymbolTableRecord
100
AcDbLinetypeTableRecord
  2
BYLAYER
 70
     0
  3

 72
    65
 73
     0
 40
0.0
  0
LTYPE
  5
16
330
5
100
AcDbSymbolTableRecord
100
AcDbLinetypeTableRecord
  2
CONTINUOUS
 70
     0
  3
Solid line
 72
    65
 73
     0
 40
0.0
  0
ENDTAB
  0
TABLE
  2
LAYER
  5
2
100
AcDbSymbolTable
 70
2
  0
LAYER
  5
50
100
AcDbSymbolTableRecord
100
AcDbLayerTableRecord
  2
0
 70
0
  6
CONTINUOUS
  0
LAYER
  5
51
100
AcDbSymbolTableRecord
100
AcDbLayerTableRecord
  2
Layer_1
 70
0
  6
CONTINUOUS
  0
ENDTAB
  0
TABLE
  2
STYLE
  5
3
330
0
100
AcDbSymbolTable
 70
     1
  0
STYLE
  5
11
330
3
100
AcDbSymbolTableRecord
100
AcDbTextStyleTableRecord
  2
STANDARD
 70
     0
 40
0.0
 41
1.0
 50
0.0
 71
     0
 42
2.5
  3
txt
  4

  0
ENDTAB
  0
TABLE
  2
VIEW
  5
6
330
0
100
AcDbSymbolTable
 70
     0
  0
ENDTAB
  0
TABLE
  2
UCS
  5
7
330
0
100
AcDbSymbolTable
 70
     0
  0
ENDTAB
  0
TABLE
  2
APPID
  5
9
330
0
100
AcDbSymbolTable
 70
     2
  0
APPID
  5
12
330
9
100
AcDbSymbolTableRecord
100
AcDbRegAppTableRecord
  2
ACAD
 70
     0
  0
ENDTAB
  0
TABLE
  2
DIMSTYLE
  5
A
330
0
100
AcDbSymbolTable
 70
     1
  0
DIMSTYLE
105
27
330
A
100
AcDbSymbolTableRecord
100
AcDbDimStyleTableRecord
  2
ISO-25
 70
     0
  3

  4

  5

  6

  7

 40
1.0
 41
2.5
 42
0.625
 43
3.75
 44
1.25
 45
0.0
 46
0.0
 47
0.0
 48
0.0
140
2.5
141
2.5
142
0.0
143
0.03937007874016
144
1.0
145
0.0
146
1.0
147
0.625
 71
     0
 72
     0
 73
     0
 74
     0
 75
     0
 76
     0
 77
     1
 78
     8
170
     0
171
     3
172
     1
173
     0
174
     0
175
     0
176
     0
177
     0
178
     0
270
     2
271
     2
272
     2
273
     2
274
     3
340
11
275
     0
280
     0
281
     0
282
     0
283
     0
284
     8
285
     0
286
     0
287
     3
288
     0
  0
ENDTAB
  0
TABLE
  2
BLOCK_RECORD
  5
1
330
0
100
AcDbSymbolTable
 70
     1
  0
BLOCK_RECORD
  5
1F
330
1
100
AcDbSymbolTableRecord
100
AcDbBlockTableRecord
  2
*MODEL_SPACE
  0
BLOCK_RECORD
  5
1B
330
1
100
AcDbSymbolTableRecord
100
AcDbBlockTableRecord
  2
*PAPER_SPACE
  0
ENDTAB
  0
ENDSEC
  0
SECTION
  2
BLOCKS
  0
BLOCK
  5
20
330
1F
100
AcDbEntity
  8
0
100
AcDbBlockBegin
  2
*MODEL_SPACE
 70
     0
 10
0.0
 20
0.0
 30
0.0
  3
*MODEL_SPACE
  1

  0
ENDBLK
  5
21
330
1F
100
AcDbEntity
  8
0
100
AcDbBlockEnd
  0
BLOCK
  5
1C
330
1B
100
AcDbEntity
 67
     1
  8
0
100
AcDbBlockBegin
  2
*PAPER_SPACE
  1

  0
ENDBLK
  5
1D
330
1B
100
AcDbEntity
 67
     1
  8
0
100
AcDbBlockEnd
  0
ENDSEC
  0
SECTION
  2
ENTITIES
  0
SPLINE
  5
100
100
AcDbEntity
  8
Layer_1
 62
7
100
AcDbSpline
 70
8
 71
3
 72
8
 73
4
 74
0
 40
0
 40
0
 40
0
 40
0
 40
1
 40
1
 40
1
 40
1
 10
0.015035
 20
30.041070
 30
0.0
 10
0.043344
 20
27.931947
 30
0.0
 10
0.017844
 20
26.245641
 30
0.0
 10
0.001522
 20
24.874683
 30
0.0
  0
SPLINE
  5
101
100
AcDbEntity
  8
Layer_1
 62
7
100
AcDbSpline
 70
8
 71
3
 72
8
 73
4
 74
0
 40
0
 40
0
 40
0
 40
0
 40
1
 40
1
 40
1
 40
1
 10
0.001522
 20
24.874683
 30
0.0
 10
-0.012485
 20
23.702530
 30
0.0
 10
0.093447
 20
22.760891
 30
0.0
 10
0.131964
 20
21.982591
 30
0.0
  0
SPLINE
  5
102
100
AcDbEntity
  8
Layer_1
 62
7
100
AcDbSpline
 70
8
 71
3
 72
8
 73
4
 74
0
 40
0
 40
0
 40
0
 40
0
 40
1
 40
1
 40
1
 40
1
 10
0.131964
 20
21.982591
 30
0.0
 10
0.418830
 20
16.185643
 30
0.0
 10
3.337586
 20
9.756557
 30
0.0
 10
7.599578
 20
5.538766
 30
0.0
  0
SPLINE
  5
103
100
AcDbEntity
  8
Layer_1
 62
7
100
AcDbSpline
 70
8
 71
3
 72
8
 73
4
 74
0
 40
0
 40
0
 40
0
 40
0
 40
1
 40
1
 40
1
 40
1
 10
7.599578
 20
5.538766
 30
0.0
 10
11.211956
 20
1.963857
 30
0.0
 10
15.801937
 20
0.120955
 30
0.0
 10
20.439232
 20
0.102479
 30
0.0
  0
LWPOLYLINE
  5
104
100
AcDbEntity
  8
Layer_1
 62
7
100
AcDbPolyline
 90
2
 70
0
 10
0.046729
 20
40.320183
 30
0.0
 10
0.015035
 20
30.041070
 30
0.0
  0
SPLINE
  5
105
100
AcDbEntity
  8
Layer_1
 62
7
100
AcDbSpline
 70
8
 71
3
 72
8
 73
4
 74
0
 40
0
 40
0
 40
0
 40
0
 40
1
 40
1
 40
1
 40
1
 10
20.439232
 20
0.101797
 30
0.0
 10
30.513285
 20
-0.085236
 30
0.0
 10
40.043281
 20
0.049085
 30
0.0
 10
50.000345
 20
0.011224
 30
0.0
  0
LWPOLYLINE
  5
106
100
AcDbEntity
  8
Layer_1
 62
7
100
AcDbPolyline
 90
2
 70
0
 10
20.439232
 20
0.102479
 30
0.0
 10
20.439232
 20
0.101797
 30
0.0
  0
SPLINE
  5
107
100
AcDbEntity
  8
Layer_1
 62
7
100
AcDbSpline
 70
8
 71
3
 72
8
 73
4
 74
0
 40
0
 40
0
 40
0
 40
0
 40
1
 40
1
 40
1
 40
1
 10
50.000345
 20
3.850360
 30
0.0
 10
43.228739
 20
3.815977
 30
0.0
 10
28.824301
 20
3.760322
 30
0.0
 10
21.414738
 20
3.862401
 30
0.0
  0
SPLINE
  5
108
100
AcDbEntity
  8
Layer_1
 62
7
100
AcDbSpline
 70
8
 71
3
 72
8
 73
4
 74
0
 40
0
 40
0
 40
0
 40
0
 40
1
 40
1
 40
1
 40
1
 10
21.414738
 20
3.862401
 30
0.0
 10
16.890750
 20
3.925146
 30
0.0
 10
13.142236
 20
5.758282
 30
0.0
 10
10.379993
 20
8.674871
 30
0.0
  0
SPLINE
  5
109
100
AcDbEntity
  8
Layer_1
 62
7
100
AcDbSpline
 70
8
 71
3
 72
8
 73
4
 74
0
 40
0
 40
0
 40
0
 40
0
 40
1
 40
1
 40
1
 40
1
 10
10.379993
 20
8.674871
 30
0.0
 10
6.151931
 20
13.404634
 30
0.0
 10
4.074127
 20
18.833496
 30
0.0
 10
4.065792
 20
25.242634
 30
0.0
  0
SPLINE
  5
10a
100
AcDbEntity
  8
Layer_1
 62
7
100
AcDbSpline
 70
8
 71
3
 72
8
 73
4
 74
0
 40
0
 40
0
 40
0
 40
0
 40
1
 40
1
 40
1
 40
1
 10
4.065792
 20
25.242634
 30
0.0
 10
4.065792
 20
28.706595
 30
0.0
 10
4.445335
 20
29.912635
 30
0.0
 10
5.852262
 20
32.725205
 30
0.0
  0
LWPOLYLINE
  5
10b
100
AcDbEntity
  8
Layer_1
 62
7
100
AcDbPolyline
 90
2
 70
0
 10
50.000345
 20
0.011224
 30
0.0
 10
50.000345
 20
3.850360
 30
0.0
  0
SPLINE
  5
10c
100
AcDbEntity
  8
Layer_1
 62
7
100
AcDbSpline
 70
8
 71
3
 72
8
 73
4
 74
0
 40
0
 40
0
 40
0
 40
0
 40
1
 40
1
 40
1
 40
1
 10
13.150240
 20
27.235163
 30
0.0
 10
13.773879
 20
31.820196
 30
0.0
 10
16.967304
 20
34.846155
 30
0.0
 10
21.892467
 20
36.365241
 30
0.0
  0
LWPOLYLINE
  5
10d
100
AcDbEntity
  8
Layer_1
 62
7
100
AcDbPolyline
 90
3
 70
0
 10
5.852262
 20
32.725205
 30
0.0
 10
9.586980
 20
27.277305
 30
0.0
 10
13.150240
 20
27.235163
 30
0.0
  0
SPLINE
  5
10e
100
AcDbEntity
  8
Layer_1
 62
7
100
AcDbSpline
 70
8
 71
3
 72
8
 73
4
 74
0
 40
0
 40
0
 40
0
 40
0
 40
1
 40
1
 40
1
 40
1
 10
21.841307
 20
30.402265
 30
0.0
 10
19.589876
 20
29.491584
 30
0.0
 10
18.115859
 20
27.306270
 30
0.0
 10
18.114885
 20
24.877626
 30
0.0
  0
SPLINE
  5
10f
100
AcDbEntity
  8
Layer_1
 62
7
100
AcDbSpline
 70
8
 71
3
 72
8
 73
4
 74
0
 40
0
 40
0
 40
0
 40
0
 40
1
 40
1
 40
1
 40
1
 10
18.114885
 20
24.877626
 30
0.0
 10
18.114971
 20
23.931759
 30
0.0
 10
18.340100
 20
22.999485
 30
0.0
 10
18.771675
 20
22.157824
 30
0.0
  0
LWPOLYLINE
  5
110
100
AcDbEntity
  8
Layer_1
 62
7
100
AcDbPolyline
 90
2
 70
0
 10
21.892467
 20
36.365241
 30
0.0
 10
21.841307
 20
30.402265
 30
0.0
  0
SPLINE
  5
111
100
AcDbEntity
  8
Layer_1
 62
7
100
AcDbSpline
 70
8
 71
3
 72
8
 73
4
 74
0
 40
0
 40
0
 40
0
 40
0
 40
1
 40
1
 40
1
 40
1
 10
21.117454
 20
24.227747
 30
0.0
 10
21.070120
 20
24.441149
 30
0.0
 10
21.046025
 20
24.659047
 30
0.0
 10
21.045557
 20
24.877626
 30
0.0
  0
SPLINE
  5
112
100
AcDbEntity
  8
Layer_1
 62
7
100
AcDbSpline
 70
8
 71
3
 72
8
 73
4
 74
0
 40
0
 40
0
 40
0
 40
0
 40
1
 40
1
 40
1
 40
1
 10
21.045557
 20
24.877626
 30
0.0
 10
21.045747
 20
26.551476
 30
0.0
 10
22.402623
 20
27.908347
 30
0.0
 10
24.076472
 20
27.908535
 30
0.0
  0
SPLINE
  5
113
100
AcDbEntity
  8
Layer_1
 62
7
100
AcDbSpline
 70
8
 71
3
 72
8
 73
4
 74
0
 40
0
 40
0
 40
0
 40
0
 40
1
 40
1
 40
1
 40
1
 10
24.076472
 20
27.908535
 30
0.0
 10
24.421853
 20
27.908173
 30
0.0
 10
24.764630
 20
27.848732
 30
0.0
 10
25.090003
 20
27.732940
 30
0.0
  0
LWPOLYLINE
  5
114
100
AcDbEntity
  8
Layer_1
 62
7
100
AcDbPolyline
 90
2
 70
0
 10
18.771675
 20
22.157824
 30
0.0
 10
21.117454
 20
24.227747
 30
0.0
  0
SPLINE
  5
115
100
AcDbEntity
  8
Layer_1
 62
7
100
AcDbSpline
 70
8
 71
3
 72
8
 73
4
 74
0
 40
0
 40
0
 40
0
 40
0
 40
1
 40
1
 40
1
 40
1
 10
27.432325
 20
29.800095
 30
0.0
 10
26.885543
 20
30.173465
 30
0.0
 10
26.280390
 20
30.453144
 30
0.0
 10
25.641707
 20
30.627655
 30
0.0
  0
LWPOLYLINE
  5
116
100
AcDbEntity
  8
Layer_1
 62
7
100
AcDbPolyline
 90
2
 70
0
 10
25.090003
 20
27.732940
 30
0.0
 10
27.432325
 20
29.800095
 30
0.0
  0
SPLINE
  5
117
100
AcDbEntity
  8
Layer_1
 62
7
100
AcDbSpline
 70
8
 71
3
 72
8
 73
4
 74
0
 40
0
 40
0
 40
0
 40
0
 40
1
 40
1
 40
1
 40
1
 10
25.706004
 20
40.296302
 30
0.0
 10
17.882645
 20
40.296302
 30
0.0
 10
14.267396
 20
37.446714
 30
0.0
 10
10.652369
 20
32.512298
 30
0.0
  0
SPLINE
  5
118
100
AcDbEntity
  8
Layer_1
 62
7
100
AcDbSpline
 70
8
 71
3
 72
8
 73
4
 74
0
 40
0
 40
0
 40
0
 40
0
 40
1
 40
1
 40
1
 40
1
 10
10.652369
 20
32.512298
 30
0.0
 10
10.533487
 20
32.688575
 30
0.0
 10
9.250416
 20
34.952943
 30
0.0
 10
8.035578
 20
36.850563
 30
0.0
  0
LWPOLYLINE
  5
119
100
AcDbEntity
  8
Layer_1
 62
7
100
AcDbPolyline
 90
2
 70
0
 10
25.641707
 20
30.627655
 30
0.0
 10
25.706004
 20
40.296302
 30
0.0
  0
SPLINE
  5
11a
100
AcDbEntity
  8
Layer_1
 62
7
100
AcDbSpline
 70
8
 71
3
 72
8
 73
4
 74
0
 40
0
 40
0
 40
0
 40
0
 40
1
 40
1
 40
1
 40
1
 10
39.396231
 20
10.212901
 30
0.0
 10
37.233254
 20
7.969885
 30
0.0
 10
35.225874
 20
6.659746
 30
0.0
 10
32.672080
 20
5.327772
 30
0.0
  0
SPLINE
  5
11b
100
AcDbEntity
  8
Layer_1
 62
7
100
AcDbSpline
 70
8
 71
3
 72
8
 73
4
 74
0
 40
0
 40
0
 40
0
 40
0
 40
1
 40
1
 40
1
 40
1
 10
32.672080
 20
5.327772
 30
0.0
 10
34.979108
 20
5.328722
 30
0.0
 10
39.571692
 20
5.323759
 30
0.0
 10
39.571692
 20
5.323759
 30
0.0
  0
SPLINE
  5
11c
100
AcDbEntity
  8
Layer_1
 62
7
100
AcDbSpline
 70
8
 71
3
 72
8
 73
4
 74
0
 40
0
 40
0
 40
0
 40
0
 40
1
 40
1
 40
1
 40
1
 10
39.571692
 20
5.323759
 30
0.0
 10
40.369535
 20
5.897299
 30
0.0
 10
41.151907
 20
6.537224
 30
0.0
 10
41.784304
 20
7.293824
 30
0.0
  0
LWPOLYLINE
  5
11d
100
AcDbEntity
  8
Layer_1
 62
7
100
AcDbPolyline
 90
4
 70
0
 10
8.035578
 20
36.850563
 30
0.0
 10
5.826688
 20
40.300449
 30
0.0
 10
2.823428
 20
40.309814
 30
0.0
 10
0.046729
 20
40.320183
 30
0.0
  0
SPLINE
  5
11e
100
AcDbEntity
  8
Layer_1
 62
7
100
AcDbSpline
 70
8
 71
3
 72
8
 73
4
 74
0
 40
0
 40
0
 40
0
 40
0
 40
1
 40
1
 40
1
 40
1
 10
25.098941
 20
48.973220
 30
0.0
 10
24.905919
 20
48.972833
 30
0.0
 10
24.711822
 20
48.970545
 30
0.0
 10
24.516818
 20
48.965193
 30
0.0
  0
SPLINE
  5
11f
100
AcDbEntity
  8
Layer_1
 62
7
100
AcDbSpline
 70
8
 71
3
 72
8
 73
4
 74
0
 40
0
 40
0
 40
0
 40
0
 40
1
 40
1
 40
1
 40
1
 10
24.516818
 20
48.965193
 30
0.0
 10
18.542788
 20
48.957166
 30
0.0
 10
12.354372
 20
47.167043
 30
0.0
 10
7.016464
 20
42.058518
 30
0.0
  0
LWPOLYLINE
  5
120
100
AcDbEntity
  8
Layer_1
 62
7
100
AcDbPolyline
 90
2
 70
0
 10
41.784304
 20
7.293824
 30
0.0
 10
39.396231
 20
10.212901
 30
0.0
  0
SPLINE
  5
121
100
AcDbEntity
  8
Layer_1
 62
7
100
AcDbSpline
 70
8
 71
3
 72
8
 73
4
 74
0
 40
0
 40
0
 40
0
 40
0
 40
1
 40
1
 40
1
 40
1
 10
9.073255
 20
38.569232
 30
0.0
 10
13.646372
 20
42.748787
 30
0.0
 10
17.146947
 20
44.700644
 30
0.0
 10
24.176669
 20
45.077680
 30
0.0
  0
SPLINE
  5
122
100
AcDbEntity
  8
Layer_1
 62
7
100
AcDbSpline
 70
8
 71
3
 72
8
 73
4
 74
0
 40
0
 40
0
 40
0
 40
0
 40
1
 40
1
 40
1
 40
1
 10
24.176669
 20
45.077680
 30
0.0
 10
30.065166
 20
45.393508
 30
0.0
 10
34.257143
 20
43.342409
 30
0.0
 10
38.480872
 20
39.145140
 30
0.0
  0
SPLINE
  5
123
100
AcDbEntity
  8
Layer_1
 62
7
100
AcDbSpline
 70
8
 71
3
 72
8
 73
4
 74
0
 40
0
 40
0
 40
0
 40
0
 40
1
 40
1
 40
1
 40
1
 10
38.480872
 20
39.145140
 30
0.0
 10
41.666655
 20
35.979322
 30
0.0
 10
43.395811
 20
32.877133
 30
0.0
 10
44.264778
 20
28.766464
 30
0.0
  0
SPLINE
  5
124
100
AcDbEntity
  8
Layer_1
 62
7
100
AcDbSpline
 70
8
 71
3
 72
8
 73
4
 74
0
 40
0
 40
0
 40
0
 40
0
 40
1
 40
1
 40
1
 40
1
 10
44.264778
 20
28.766464
 30
0.0
 10
44.952037
 20
25.515357
 30
0.0
 10
44.700733
 20
21.294529
 30
0.0
 10
43.632185
 20
18.134062
 30
0.0
  0
LWPOLYLINE
  5
125
100
AcDbEntity
  8
Layer_1
 62
7
100
AcDbPolyline
 90
2
 70
0
 10
7.016464
 20
42.058518
 30
0.0
 10
9.073255
 20
38.569232
 30
0.0
  0
SPLINE
  5
126
100
AcDbEntity
  8
Layer_1
 62
7
100
AcDbSpline
 70
8
 71
3
 72
8
 73
4
 74
0
 40
0
 40
0
 40
0
 40
0
 40
1
 40
1
 40
1
 40
1
 10
34.970847
 20
22.293590
 30
0.0
 10
34.400925
 20
18.606942
 30
0.0
 10
30.633501
 20
14.411079
 30
0.0
 10
26.328868
 20
13.805095
 30
0.0
  0
SPLINE
  5
127
100
AcDbEntity
  8
Layer_1
 62
7
100
AcDbSpline
 70
8
 71
3
 72
8
 73
4
 74
0
 40
0
 40
0
 40
0
 40
0
 40
1
 40
1
 40
1
 40
1
 10
26.328868
 20
13.805095
 30
0.0
 10
26.360241
 20
15.658700
 30
0.0
 10
26.348401
 20
17.512573
 30
0.0
 10
26.349605
 20
19.366379
 30
0.0
  0
SPLINE
  5
128
100
AcDbEntity
  8
Layer_1
 62
7
100
AcDbSpline
 70
8
 71
3
 72
8
 73
4
 74
0
 40
0
 40
0
 40
0
 40
0
 40
1
 40
1
 40
1
 40
1
 10
26.349605
 20
19.366379
 30
0.0
 10
28.582188
 20
20.287054
 30
0.0
 10
30.038861
 20
22.463605
 30
0.0
 10
30.038692
 20
24.878576
 30
0.0
  0
SPLINE
  5
129
100
AcDbEntity
  8
Layer_1
 62
7
100
AcDbSpline
 70
8
 71
3
 72
8
 73
4
 74
0
 40
0
 40
0
 40
0
 40
0
 40
1
 40
1
 40
1
 40
1
 10
30.038692
 20
24.878576
 30
0.0
 10
30.037531
 20
25.701734
 30
0.0
 10
29.865929
 20
26.515729
 30
0.0
 10
29.534692
 20
27.269292
 30
0.0
  0
LWPOLYLINE
  5
12a
100
AcDbEntity
  8
Layer_1
 62
7
100
AcDbPolyline
 90
5
 70
0
 10
43.632185
 20
18.134062
 30
0.0
 10
42.852331
 20
15.827003
 30
0.0
 10
40.480972
 20
19.065320
 30
0.0
 10
38.109613
 20
22.302955
 30
0.0
 10
34.970847
 20
22.293590
 30
0.0
  0
SPLINE
  5
12b
100
AcDbEntity
  8
Layer_1
 62
7
100
AcDbSpline
 70
8
 71
3
 72
8
 73
4
 74
0
 40
0
 40
0
 40
0
 40
0
 40
1
 40
1
 40
1
 40
1
 10
27.094889
 20
25.116407
 30
0.0
 10
27.102381
 20
25.037340
 30
0.0
 10
27.106796
 20
24.957991
 30
0.0
 10
27.108000
 20
24.878576
 30
0.0
  0
SPLINE
  5
12c
100
AcDbEntity
  8
Layer_1
 62
7
100
AcDbSpline
 70
8
 71
3
 72
8
 73
4
 74
0
 40
0
 40
0
 40
0
 40
0
 40
1
 40
1
 40
1
 40
1
 10
27.108000
 20
24.878576
 30
0.0
 10
27.108195
 20
23.204191
 30
0.0
 10
25.750784
 20
21.846771
 30
0.0
 10
24.076395
 20
21.846972
 30
0.0
  0
SPLINE
  5
12d
100
AcDbEntity
  8
Layer_1
 62
7
100
AcDbSpline
 70
8
 71
3
 72
8
 73
4
 74
0
 40
0
 40
0
 40
0
 40
0
 40
1
 40
1
 40
1
 40
1
 10
24.076395
 20
21.846972
 30
0.0
 10
23.870513
 20
21.848002
 30
0.0
 10
23.665272
 20
21.869983
 30
0.0
 10
23.463850
 20
21.912661
 30
0.0
  0
LWPOLYLINE
  5
12e
100
AcDbEntity
  8
Layer_1
 62
7
100
AcDbPolyline
 90
2
 70
0
 10
29.534692
 20
27.269292
 30
0.0
 10
27.094889
 20
25.116407
 30
0.0
  0
SPLINE
  5
12f
100
AcDbEntity
  8
Layer_1
 62
7
100
AcDbSpline
 70
8
 71
3
 72
8
 73
4
 74
0
 40
0
 40
0
 40
0
 40
0
 40
1
 40
1
 40
1
 40
1
 10
21.024047
 20
19.759776
 30
0.0
 10
21.396700
 20
19.538106
 30
0.0
 10
21.792424
 20
19.357736
 30
0.0
 10
22.204196
 20
19.221890
 30
0.0
  0
LWPOLYLINE
  5
130
100
AcDbEntity
  8
Layer_1
 62
7
100
AcDbPolyline
 90
2
 70
0
 10
23.463850
 20
21.912661
 30
0.0
 10
21.024047
 20
19.759776
 30
0.0
  0
SPLINE
  5
131
100
AcDbEntity
  8
Layer_1
 62
7
100
AcDbSpline
 70
8
 71
3
 72
8
 73
4
 74
0
 40
0
 40
0
 40
0
 40
0
 40
1
 40
1
 40
1
 40
1
 10
22.083896
 20
9.397007
 30
0.0
 10
24.171767
 20
9.397007
 30
0.0
 10
25.989814
 20
9.302153
 30
0.0
 10
28.063453
 20
9.804212
 30
0.0
  0
SPLINE
  5
132
100
AcDbEntity
  8
Layer_1
 62
7
100
AcDbSpline
 70
8
 71
3
 72
8
 73
4
 74
0
 40
0
 40
0
 40
0
 40
0
 40
1
 40
1
 40
1
 40
1
 10
28.063453
 20
9.804212
 30
0.0
 10
31.647861
 20
10.671988
 30
0.0
 10
35.109904
 20
12.810330
 30
0.0
 10
37.282025
 20
16.357598
 30
0.0
  0
SPLINE
  5
133
100
AcDbEntity
  8
Layer_1
 62
7
100
AcDbSpline
 70
8
 71
3
 72
8
 73
4
 74
0
 40
0
 40
0
 40
0
 40
0
 40
1
 40
1
 40
1
 40
1
 10
37.282025
 20
16.357598
 30
0.0
 10
39.076510
 20
14.124443
 30
0.0
 10
40.698674
 20
11.890337
 30
0.0
 10
42.701582
 20
9.397007
 30
0.0
  0
SPLINE
  5
134
100
AcDbEntity
  8
Layer_1
 62
7
100
AcDbSpline
 70
8
 71
3
 72
8
 73
4
 74
0
 40
0
 40
0
 40
0
 40
0
 40
1
 40
1
 40
1
 40
1
 10
42.701582
 20
9.397007
 30
0.0
 10
44.712453
 20
9.397007
 30
0.0
 10
46.723551
 20
9.398345
 30
0.0
 10
48.734381
 20
9.384966
 30
0.0
  0
LWPOLYLINE
  5
135
100
AcDbEntity
  8
Layer_1
 62
7
100
AcDbPolyline
 90
2
 70
0
 10
22.204196
 20
19.221890
 30
0.0
 10
22.083896
 20
9.397007
 30
0.0
  0
SPLINE
  5
136
100
AcDbEntity
  8
Layer_1
 62
7
100
AcDbSpline
 70
8
 71
3
 72
8
 73
4
 74
0
 40
0
 40
0
 40
0
 40
0
 40
1
 40
1
 40
1
 40
1
 10
48.726354
 20
18.826847
 30
0.0
 10
48.580541
 20
26.916993
 30
0.0
 10
48.489633
 20
28.635314
 30
0.0
 10
47.858003
 20
30.857860
 30
0.0
  0
SPLINE
  5
137
100
AcDbEntity
  8
Layer_1
 62
7
100
AcDbSpline
 70
8
 71
3
 72
8
 73
4
 74
0
 40
0
 40
0
 40
0
 40
0
 40
1
 40
1
 40
1
 40
1
 10
47.858003
 20
30.857860
 30
0.0
 10
45.471608
 20
39.255019
 30
0.0
 10
37.259557
 20
48.997891
 30
0.0
 10
25.099177
 20
48.973528
 30
0.0
  0
LWPOLYLINE
  5
138
100
AcDbEntity
  8
Layer_1
 62
7
100
AcDbPolyline
 90
2
 70
0
 10
48.734381
 20
9.384966
 30
0.0
 10
48.726354
 20
18.826847
 30
0.0
  0
LWPOLYLINE
  5
139
100
AcDbEntity
  8
Layer_1
 62
7
100
AcDbPolyline
 90
2
 70
0
 10
25.099177
 20
48.973528
 30
0.0
 10
25.098941
 20
48.973220
 30
0.0
  0
ENDSEC
  0
SECTION
  2
OBJECTS
  0
DICTIONARY
  5
C
330
0
100
AcDbDictionary
  3
ACAD_GROUP
350
D
  3
ACAD_MLINESTYLE
350
17
  0
DICTIONARY
  5
D
330
C
100
AcDbDictionary
  0
DICTIONARY
  5
1A
330
C
100
AcDbDictionary
  0
DICTIONARY
  5
17
330
C
100
AcDbDictionary
  3
STANDARD
350
18
  0
DICTIONARY
  5
19
330
C
100
AcDbDictionary
  0
ENDSEC
  0
EOF
