<?xml version="1.0" encoding="UTF-8" standalone="no"?>
<!-- Created with Inkscape (http://www.inkscape.org/) -->

<svg
   width="50mm"
   height="48.973972mm"
   viewBox="0 0 50 48.973972"
   version="1.1"
   id="svg860"
   inkscape:version="1.2.2 (b0a8486541, 2022-12-01)"
   sodipodi:docname="matterworks2.svg"
   xmlns:inkscape="http://www.inkscape.org/namespaces/inkscape"
   xmlns:sodipodi="http://sodipodi.sourceforge.net/DTD/sodipodi-0.dtd"
   xmlns="http://www.w3.org/2000/svg"
   xmlns:svg="http://www.w3.org/2000/svg">
  <sodipodi:namedview
     id="namedview862"
     pagecolor="#ffffff"
     bordercolor="#000000"
     borderopacity="0.25"
     inkscape:showpageshadow="2"
     inkscape:pageopacity="0.0"
     inkscape:pagecheckerboard="0"
     inkscape:deskcolor="#d1d1d1"
     inkscape:document-units="mm"
     showgrid="false"
     inkscape:zoom="1.0077041"
     inkscape:cx="76.41132"
     inkscape:cy="156.79206"
     inkscape:window-width="1276"
     inkscape:window-height="1543"
     inkscape:window-x="0"
     inkscape:window-y="55"
     inkscape:window-maximized="1"
     inkscape:current-layer="layer1" />
  <defs
     id="defs857" />
  <g
     inkscape:label="Layer 1"
     inkscape:groupmode="layer"
     id="layer1"
     transform="translate(-68.552649,-66.151682)">
    <g
       id="g437"
       transform="matrix(1.3378576,0,0,1.3378576,-22.256743,-126.68807)">
      <path
         id="path441"
         style="fill:#808080;stroke-width:0.254"
         d="m 67.911462,150.6088 -0.02369,7.68325 c 0.02116,1.57649 0.0021,2.83694 -0.0101,3.86168 -0.01047,0.87614 0.06871,1.57998 0.0975,2.16173 0.214422,4.333 2.396082,9.1385 5.581761,12.29114 2.700116,2.67211 6.130954,4.04961 9.597158,4.06342 v 5.1e-4 c 7.529975,0.1398 14.653289,0.0394 22.095819,0.0677 v -2.86961 c -5.06152,0.0257 -15.828296,0.0673 -21.366665,-0.009 -3.381511,-0.0469 -6.183384,-1.4171 -8.248057,-3.59714 -3.160317,-3.53532 -4.713397,-7.59319 -4.719627,-12.38378 0,-2.58918 0.283694,-3.49065 1.335319,-5.59294 l 2.791561,4.0721 2.663403,0.0315 c 0.466146,-3.42714 2.853111,-5.68893 6.534485,-6.82439 l -0.03824,4.4571 c -1.68286,0.6807 -2.784632,2.31414 -2.78536,4.12946 6.4e-5,0.707 0.16834,1.40384 0.490926,2.03295 l 1.753381,-1.54719 c -0.03538,-0.15951 -0.05339,-0.32238 -0.05374,-0.48576 1.42e-4,-1.25114 1.014356,-2.26535 2.265495,-2.26549 0.258159,2.7e-4 0.514372,0.0447 0.757576,0.13125 l 1.750798,-1.54512 c -0.408699,-0.27908 -0.861028,-0.48813 -1.33842,-0.61857 l 0.04806,-7.22695 c -5.847667,0 -8.549929,2.12996 -11.252026,5.81825 -0.08886,-0.13176 -1.047907,-1.82429 -1.955953,-3.24269 l -1.651062,-2.57866 -2.244824,-0.007 z m 29.412272,22.50406 c -1.616744,1.67657 -3.117185,2.65585 -5.02605,3.65145 1.724417,-7.1e-4 5.157201,0.003 5.157201,0.003 0.596357,-0.4287 1.181151,-0.90702 1.653844,-1.47255 z"
         sodipodi:nodetypes="ccsssccccccccccccccccccccccccccccccc" />
      <path
         id="path439"
         style="fill:#000080;stroke-width:0.254"
         d="m 86.637048,144.14098 c -0.144277,2.9e-4 -0.289357,0.002 -0.435115,0.006 -4.465363,0.006 -9.090971,1.34405 -13.080856,5.16248 l 1.537374,2.60811 c 3.418233,-3.12406 6.034781,-4.583 11.289233,-4.86482 4.40143,-0.23607 7.534775,1.29705 10.691854,4.43435 2.381253,2.36633 3.673732,4.6851 4.323252,7.75767 0.5137,2.43008 0.32586,5.58499 -0.47284,7.94732 l -0.582911,1.72444 -1.772502,-2.42052 -1.772501,-2.42001 -2.34611,0.007 c -0.425995,2.75563 -3.242003,5.89188 -6.459554,6.34483 0.02345,-1.3855 0.0146,-2.7712 0.0155,-4.15685 1.668772,-0.68817 2.75758,-2.31506 2.757454,-4.12016 -8.68e-4,-0.61528 -0.129134,-1.22371 -0.376721,-1.78697 l -1.823661,1.6092 c 0.0056,0.0591 0.0089,0.11841 0.0098,0.17777 1.46e-4,1.25154 -1.014468,2.26616 -2.266011,2.26601 -0.153889,-7.7e-4 -0.307299,-0.0172 -0.457854,-0.0491 l -1.823661,1.6092 c 0.278544,0.16569 0.574333,0.30051 0.882117,0.40205 l -0.08992,7.34373 c 1.560605,0 2.919527,0.0709 4.469494,-0.30437 2.67921,-0.64863 5.266957,-2.24696 6.890536,-4.89841 1.34131,1.6692 2.553816,3.33911 4.050915,5.20278 1.50305,0 3.00627,-0.001 4.50929,0.009 l -0.006,-7.05745 c -0.10899,-6.04708 -0.17694,-7.33146 -0.64906,-8.99273 -1.78374,-6.27656 -7.921939,-13.55899 -17.011366,-13.54078 z"
         sodipodi:nodetypes="scccsssccccccccccccccccsccccss" />
    </g>
  </g>
</svg>
